<svg width="25" height="46" viewBox="0 0 25 46" fill="none" xmlns="http://www.w3.org/2000/svg">
<g id="arbolito">
<path id="Vector" d="M24.9 37.2727C24.83 36.8727 24.56 36.5127 24.28 36.2227C23.78 35.7627 23.14 35.5227 22.57 35.1827C21.91 34.8127 21.26 34.4127 20.64 33.9627C20.23 33.6327 19.86 33.2727 19.5 32.8827C18.55 31.7927 18.71 31.8727 18.53 31.6527C18.51 31.6227 18.48 31.5827 18.46 31.5527C18.67 31.5527 18.89 31.5727 19.1 31.6027C19.98 31.6927 19.52 31.6827 21.31 31.9127C23.14 32.2427 24.57 30.2027 23.61 28.5927C23.31 28.0327 22.75 27.7427 22.21 27.4627C21.7 27.1527 21.2 26.8327 20.72 26.4827C19.62 25.5627 18.51 24.6427 17.58 23.5527C18.68 23.5127 19.78 23.5127 20.89 23.5927C21.2 23.6027 21.52 23.6127 21.83 23.6227C21.88 23.6227 21.93 23.6227 21.98 23.6227C21.98 23.6227 21.98 23.6227 21.99 23.6227C22.29 23.6227 22.58 23.5827 22.85 23.4327C23.68 23.1527 24.22 22.2627 24.22 21.4027C24.18 20.7327 23.97 20.2327 23.54 19.8127C23.44 19.6327 23.31 19.4627 23.17 19.3027C22.79 18.9127 22.29 18.7227 21.76 18.6427C21.4 18.5627 21.05 18.4327 20.7 18.3127C20.52 18.2427 20.33 18.1727 20.15 18.1027C19.64 17.8727 19.13 17.6127 18.67 17.2927C18.28 16.9727 17.91 16.6327 17.59 16.2527C17.58 16.2327 17.57 16.2227 17.56 16.2027C17.26 15.7527 16.98 15.2727 16.75 14.7827C16.75 14.7827 16.75 14.7727 16.75 14.7627C16.63 14.4427 16.53 14.1227 16.43 13.7927C16.28 13.2127 16.11 12.6327 16.01 12.0427C15.98 11.7027 15.98 11.3627 15.8 11.0627C15.62 10.5227 15.16 10.0627 14.62 9.88273C14.18 9.62273 13.66 9.68273 13.17 9.77273C12.6 9.91273 12.16 10.3127 11.84 10.7927C11.48 11.3827 11.54 12.0727 11.48 12.7327C11.4 13.1927 11.24 13.6427 11.06 14.0727C10.41 15.6027 9.94 16.1827 9.64 16.5227C9.3 16.9027 8.95 17.2727 8.56 17.6027C8.14 17.9027 7.69 18.1627 7.23 18.3927C7.21 18.3927 7.2 18.4027 7.18 18.4127C7.08 18.4527 6.99 18.4827 6.89 18.5127C6.53 18.6327 6.17 18.7427 5.8 18.8327C5.64 18.8727 5.47 18.9127 5.31 18.9727C5.02 19.0127 4.75 19.1027 4.5 19.2527C4 19.5427 3.63 20.0327 3.48 20.5827C3.18 21.7827 3.84 22.9727 5.03 23.3127C6.25 23.5227 7.47 23.6727 8.7 23.7627C7.96 24.5727 7.04 25.3427 5.72 26.4327C5.6 26.5227 5.49 26.6027 5.37 26.6827C4.57 27.3027 3.35 27.5827 3 28.6327C2.81 28.9827 2.76 29.3527 2.85 29.7927C2.86 30.0927 2.95 30.3627 3.11 30.6227C3.19 30.8027 3.22 30.8427 3.46 31.0827C3.88 31.5327 4.48 31.6927 5.07 31.7427C5.65 31.8127 6.23 31.8227 6.81 31.8427C7.25 31.8627 7.69 31.8727 8.13 31.8727C7.72 32.1827 7.3 32.4727 6.88 32.7727C6.25 33.2227 5.65 33.7227 4.97 34.1027C4.87 34.1627 4.77 34.2127 4.67 34.2527C4.46 34.3327 4.25 34.4027 4.04 34.4627C3.49 34.6327 2.93 34.7827 2.36 34.8827C1.66 34.9827 0.88 35.1827 0.48 35.8127C0.13 36.1727 0.05 36.6827 0 37.1627C0 37.9327 0.43 38.7127 1.11 39.0927C1.82 39.4927 2.66 39.4727 3.45 39.5927C4.68 39.7127 5.91 39.7527 7.14 39.7827C7.95 39.8227 8.75 39.8327 9.56 39.8227C9.54 40.3227 9.52 40.8327 9.52 41.3327C9.49 42.1527 9.5 42.9927 9.88 43.7327C10.05 44.0527 10.41 44.3727 10.73 44.5927C11.1 44.7927 11.5 44.9327 11.93 44.9527C12.72 45.0727 13.51 45.0627 14.31 45.0527C14.6 45.0227 14.97 44.9927 15.25 44.8427C15.74 44.7027 16.07 44.3027 16.35 43.8927C16.64 43.3727 16.71 42.7927 16.73 42.2027C16.75 41.3727 16.71 40.5527 16.65 39.7327C16.8 39.7427 16.96 39.7527 17.11 39.7627C17.92 39.8227 18.72 39.7827 19.53 39.8127C20.23 39.8527 20.92 39.9627 21.62 40.0227C22.37 40.0927 23.18 40.1827 23.85 39.7627C24.52 39.3627 24.97 38.6127 24.97 37.8227L24.89 37.2327L24.9 37.2727ZM18.31 20.3227C18.46 19.9727 18.75 19.6927 19.12 19.5927C19.54 19.4927 20.01 19.6427 20.31 19.9427C20.48 20.1127 20.59 20.3127 20.62 20.5527C20.64 20.7127 20.62 20.8627 20.57 21.0027C20.5 21.3127 20.33 21.5827 20.03 21.7527C19.96 21.7927 19.88 21.8227 19.81 21.8427C19.78 21.8527 19.75 21.8727 19.72 21.8827C19.26 22.0627 18.71 21.8927 18.44 21.4727C18.2 21.1327 18.13 20.7127 18.3 20.3127L18.31 20.3227ZM8.32 21.9627C8.16 22.0327 8 22.0627 7.84 22.0627C7.68 22.1227 7.49 22.1227 7.34 22.0827C7.17 22.0327 6.93 21.8827 6.85 21.7127C6.83 21.6627 6.81 21.6127 6.79 21.5527C6.59 21.2627 6.52 20.8727 6.63 20.5327C6.79 20.0027 7.32 19.4527 7.91 19.5927C8.12 19.6427 8.29 19.7627 8.41 19.9227C8.69 20.0627 8.9 20.3227 8.98 20.6527C9.11 21.1827 8.83 21.7527 8.33 21.9627H8.32ZM8.22 36.6627C8.1 36.7927 7.99 36.9227 7.83 37.0127C7.67 37.1027 7.48 37.1527 7.3 37.1527C7.17 37.1527 7.07 37.1327 6.96 37.0927C6.55 37.0127 6.19 36.7427 6.08 36.3227C5.97 35.9127 6.07 35.4327 6.37 35.1327C6.56 34.9427 6.82 34.8427 7.08 34.8327C7.29 34.7927 7.52 34.8027 7.73 34.8927C8 35.0027 8.22 35.2027 8.36 35.4627C8.45 35.6327 8.51 35.8227 8.51 36.0227C8.51 36.2927 8.4 36.4727 8.23 36.6727L8.22 36.6627ZM8.68 29.1527C8.38 29.4427 7.93 29.5727 7.53 29.4627C7.19 29.3727 6.88 29.1127 6.72 28.8027C6.6 28.5627 6.53 28.2627 6.61 28.0027C6.61 27.9927 6.61 27.9727 6.62 27.9527C6.6 28.1327 6.6 28.1427 6.62 27.9927C6.62 27.9527 6.62 27.9227 6.63 27.8827C6.65 27.7827 6.69 27.6627 6.74 27.5727C6.98 27.1727 7.46 26.9027 7.93 27.0427C7.94 27.0427 7.95 27.0427 7.96 27.0527C8.12 27.0727 8.28 27.1227 8.43 27.2127C9.11 27.6227 9.26 28.5927 8.67 29.1527H8.68ZM14.06 23.2527C13.87 23.3227 13.67 23.3327 13.47 23.3027C13.22 23.2727 13.03 23.1727 12.86 23.0027C12.68 22.8627 12.55 22.6627 12.53 22.4427C12.46 22.2027 12.45 21.9427 12.5 21.6827C12.59 21.2827 12.89 20.8727 13.3 20.7427C13.68 20.6327 14.12 20.7827 14.4 21.0527C14.46 21.1127 14.52 21.1827 14.56 21.2527C14.9 21.5027 15.05 21.9427 14.93 22.3627C14.8 22.7827 14.47 23.0927 14.06 23.2427V23.2527ZM14.79 28.4927C14.75 28.7727 14.57 28.9727 14.33 29.0827C13.99 29.5027 13.45 29.7427 12.86 29.5827C12.53 29.4927 12.24 29.1527 12.26 28.7927C12.27 28.5627 12.34 28.3427 12.45 28.1527C12.54 27.8927 12.72 27.6727 12.96 27.5027C13.36 27.2227 13.84 27.2427 14.28 27.4227C14.38 27.4627 14.46 27.5427 14.53 27.6327C14.77 27.8427 14.83 28.1427 14.79 28.4727V28.4927ZM12.28 16.1127C12.34 15.9627 12.37 15.9027 12.36 15.9227C12.34 15.9627 12.32 16.0127 12.3 16.0527C12.3 16.0327 12.32 16.0127 12.33 15.9927C12.35 15.9527 12.36 15.9327 12.36 15.9327C12.37 15.9027 12.38 15.8627 12.4 15.8327C12.49 15.6727 12.63 15.5127 12.8 15.4227C13.4 15.0727 14.23 15.2927 14.57 15.9027C14.72 16.1627 14.72 16.5327 14.54 16.7827C14.48 17.0927 14.3 17.3927 14.01 17.5427C13.59 17.7627 13.07 17.7027 12.71 17.4227C12.41 17.1927 12.21 16.8227 12.23 16.4327C12.23 16.3327 12.25 16.2227 12.28 16.1227V16.1127ZM11.92 34.5827C11.4 34.6727 10.87 34.4927 10.6 34.0227C10.39 33.6527 10.34 33.1027 10.65 32.7727C10.69 32.7027 10.73 32.6327 10.79 32.5727C10.83 32.5327 10.87 32.4927 10.91 32.4527C11.09 32.2927 11.26 32.1827 11.49 32.1027C11.61 32.0627 11.74 32.0327 11.86 32.0327C11.89 32.0327 11.92 32.0327 11.95 32.0327C12.39 31.9827 12.83 32.1427 13.07 32.5527C13.55 33.3527 12.75 34.4327 11.91 34.5727L11.92 34.5827ZM15.18 39.3027C15.18 39.3027 15.15 39.3227 15.14 39.3327C14.93 39.5727 14.61 39.7027 14.29 39.7127C14.21 39.7127 14.12 39.7127 14.04 39.6927C13.81 39.7827 13.53 39.7827 13.32 39.6527C12.69 39.2727 12.51 38.3727 12.9 37.7527C13.28 37.1427 14.28 37.0027 14.87 37.3627C14.89 37.3627 14.9 37.3827 14.92 37.3927C15.2 37.4927 15.45 37.7527 15.48 38.0427C15.67 38.4727 15.64 38.9627 15.19 39.3127L15.18 39.3027ZM18.43 27.9327C18.7 27.6727 19.07 27.5527 19.44 27.6027C19.51 27.6027 19.58 27.5927 19.64 27.5827C20.1 27.5727 20.44 27.9627 20.46 28.4027C20.46 28.4427 20.46 28.4827 20.46 28.5227C20.55 28.9027 20.45 29.3027 20.17 29.5927C19.89 29.8827 19.47 30.0127 19.08 29.8827C18.97 29.8527 18.88 29.8027 18.79 29.7327C18.39 29.7027 18.04 29.3227 18.06 28.9227C18.07 28.5627 18.18 28.1827 18.45 27.9227L18.43 27.9327ZM20.19 36.1727C20.19 36.1727 20.15 36.2027 20.13 36.2227C20.04 36.4427 19.88 36.6327 19.65 36.7527C19.29 36.9327 18.83 36.9827 18.47 36.7527C18.04 36.4927 17.86 35.9427 17.98 35.4627C18.09 35.0227 18.43 34.7027 18.87 34.6027C19.22 34.5227 19.72 34.4827 20.03 34.6727C20.54 34.9727 20.6 35.7527 20.18 36.1627L20.19 36.1727Z" fill="#0B7B75"/>
<path id="Vector_2" d="M9.05995 5.13277L10.62 3.60277C10.78 3.44277 10.85 3.21277 10.82 2.99277L10.44 0.84277C10.34 0.28277 10.93 -0.15723 11.44 0.11277L13.38 1.12277C13.58 1.22277 13.82 1.22277 14.02 1.12277L15.94 0.0827704C16.44 -0.18723 17.04 0.24277 16.94 0.80277L16.58 2.96277C16.54 3.18277 16.62 3.41277 16.78 3.57277L18.35 5.09277C18.76 5.49277 18.54 6.18277 17.97 6.27277L15.81 6.60277C15.59 6.63277 15.39 6.78277 15.29 6.98277L14.33 8.94277C14.08 9.45277 13.35 9.46277 13.09 8.94277L12.11 6.99277C12.01 6.79277 11.81 6.65277 11.59 6.62277L9.42995 6.32277C8.85995 6.24277 8.62995 5.55277 9.03995 5.15277L9.05995 5.13277Z" fill="#F7B744"/>
</g>
</svg>
