<svg width="335" height="150" viewBox="0 0 335 150" fill="none" xmlns="http://www.w3.org/2000/svg">
<path d="M334.298 82.5948C334.45 120.162 303.322 150.578 265.78 149.992C229.664 149.432 198.892 119.5 199.528 81.2967C200.139 45.2056 230.122 14.5866 268.097 15.1975C304.086 15.7574 334.425 45.2565 334.323 82.5948H334.298Z" fill="#B4131A"/>
<path d="M264.686 147.447C262.981 147.447 261.301 147.294 259.596 147.116C256.694 146.81 253.818 146.276 250.993 145.563C246.742 144.494 242.619 143.018 238.649 141.109C232.744 138.258 227.399 134.619 222.588 130.165C217.091 125.049 212.586 119.195 209.099 112.526C206.299 107.181 204.314 101.582 203.092 95.6769C202.379 92.2409 201.972 88.7285 201.819 85.2161C201.641 81.5 201.819 77.784 202.277 74.0935C202.812 69.8175 203.779 65.6434 205.154 61.5456C207.088 55.7679 209.811 50.3975 213.273 45.3834C218.72 37.5442 225.541 31.2066 233.762 26.3198C238.547 23.4691 243.637 21.2802 249.008 19.7531C252.596 18.735 256.261 18.0223 259.977 17.6151C262.625 17.3351 265.272 17.1824 267.919 17.2333C272.653 17.3351 277.361 17.8951 281.968 19.015C286.219 20.0331 290.342 21.4584 294.312 23.3164C300.574 26.2434 306.25 30.0867 311.315 34.7953C316.939 40.0385 321.495 46.0706 324.982 52.9173C326.739 56.3533 328.164 59.9421 329.284 63.6581C330.811 68.6976 331.676 73.8389 331.931 79.0821C332.109 82.8745 332.007 86.6923 331.524 90.4592C330.989 94.7606 330.047 98.9602 328.673 103.058C326.891 108.352 324.473 113.341 321.394 118.024C318.925 121.791 316.099 125.252 312.918 128.434C308.209 133.117 302.941 137.011 297.061 140.091C292.582 142.458 287.873 144.24 282.961 145.487C278.99 146.505 274.969 147.116 270.871 147.319C270.311 147.345 269.751 147.421 269.166 147.37C267.664 147.319 266.162 147.294 264.661 147.37L264.686 147.447Z" fill="#ECE8DF"/>
<path d="M329.894 82.1361C330.022 116.675 301.643 145.69 265.78 145.105C231.878 144.545 203.957 116.878 203.906 82.0597C203.881 47.2921 232.591 18.2511 268.58 19.1165C301.923 19.931 329.971 47.3939 329.894 82.1106V82.1361Z" fill="#B4131A"/>
<path d="M266.926 141.464C234.347 141.515 207.19 114.841 207.597 81.2953C208.004 49.2765 234.271 22.3226 267.868 22.8062C300.115 23.2644 326.535 49.7092 326.255 82.6952C325.975 114.969 299.708 141.439 266.926 141.464Z" fill="#ECE8DF"/>
<path d="M266.799 125.303C289.711 125.303 308.286 106.444 308.286 83.18C308.286 59.9159 289.711 41.0566 266.799 41.0566C243.886 41.0566 225.312 59.9159 225.312 83.18C225.312 106.444 243.886 125.303 266.799 125.303Z" fill="#A71C1B"/>
<path d="M285.303 36.4994C286.982 35.2777 288.662 34.1578 290.24 32.9107C291.004 32.3253 291.64 32.1217 292.48 32.6562C292.938 32.9361 293.473 33.1143 293.982 33.3179C294.236 33.4197 294.338 33.5215 294.211 33.827C292.709 37.263 291.207 40.7245 289.731 44.186C289.629 44.4151 289.553 44.4914 289.299 44.3642C288.408 43.9569 287.517 43.5497 286.601 43.1934C286.295 43.0661 286.244 42.9643 286.372 42.6589C287.008 41.2335 287.593 39.8082 288.204 38.3829C288.23 38.3065 288.306 38.2556 288.23 38.1029C287.211 38.841 286.168 39.5028 285.226 40.2918C284.514 40.8772 283.903 40.979 283.114 40.5209C282.757 40.3173 282.579 40.1391 282.503 39.7319C282.35 38.4847 282.147 37.2121 281.968 35.9649C281.968 35.8377 281.968 35.685 281.816 35.5577C281.485 36.2704 281.179 36.983 280.874 37.6957C280.543 38.4338 280.238 39.1465 279.932 39.8846C279.83 40.1391 279.729 40.19 279.449 40.0882C278.532 39.681 277.616 39.2737 276.7 38.8919C276.445 38.7901 276.42 38.6883 276.522 38.4338C278.049 34.9723 279.55 31.5108 281.052 28.0493C281.154 27.7948 281.281 27.7948 281.51 27.8966C282.325 28.2529 283.114 28.6093 283.928 28.9402C284.157 29.042 284.259 29.1692 284.284 29.4237C284.564 31.6126 284.895 33.827 285.201 36.0159C285.201 36.1431 285.252 36.2704 285.303 36.4994Z" fill="#A71C1B"/>
<path d="M230.86 55.4116C230.835 56.9388 230.3 58.1605 229.537 59.3058C228.646 60.6802 227.577 61.8765 226.177 62.7673C225.872 62.9455 225.744 62.92 225.566 62.64C225.134 61.9528 224.675 61.2656 224.192 60.6039C224.014 60.3748 224.065 60.273 224.294 60.1203C225.541 59.3822 226.559 58.415 227.221 57.1169C227.424 56.7351 227.755 56.277 227.297 55.8952C226.839 55.5389 226.483 55.9716 226.177 56.277C225.617 56.8115 225.057 57.3714 224.497 57.9314C224.268 58.1605 224.014 58.3895 223.759 58.5932C222.588 59.5094 221.367 59.8658 219.967 59.1022C218.618 58.3641 217.829 56.9642 218.058 55.4371C218.44 52.6373 220.018 50.5757 222.283 48.9722C222.487 48.8195 222.614 48.845 222.767 49.074C223.225 49.7613 223.708 50.4485 224.217 51.1102C224.395 51.3647 224.319 51.4665 224.115 51.5938C223.174 52.2047 222.385 52.9428 221.799 53.91C221.647 54.1899 221.494 54.4699 221.443 54.7753C221.392 55.0298 221.443 55.2844 221.698 55.4371C221.952 55.5898 222.181 55.5389 222.385 55.3607C222.716 55.0553 223.047 54.7499 223.377 54.4444C223.937 53.8845 224.472 53.2736 225.108 52.7646C226.203 51.8738 227.373 51.4156 228.748 52.0774C230.199 52.7646 230.86 53.9354 230.886 55.4116H230.86Z" fill="#A71C1B"/>
<path d="M240.15 37.1885C240.838 35.585 242.008 34.7451 243.612 34.4651C244.63 34.2869 245.521 34.5924 246.284 35.2541C246.819 35.7123 247.201 36.2977 247.532 36.934C248.295 38.3338 249.033 39.7591 249.797 41.159C249.949 41.439 249.975 41.5917 249.644 41.7699C248.728 42.228 247.837 42.7116 246.946 43.1952C246.666 43.3479 246.539 43.3224 246.386 43.0425C245.75 41.8208 245.114 40.6245 244.452 39.4283C244.325 39.1992 244.223 38.9956 244.07 38.792C243.663 38.2575 243.23 38.1302 242.721 38.3338C242.136 38.5883 241.779 39.1737 241.856 39.7846C241.907 40.1664 242.059 40.5227 242.263 40.8536C242.874 41.9989 243.485 43.1443 244.095 44.2896C244.248 44.5696 244.223 44.6714 243.943 44.8241C243.001 45.3077 242.085 45.7913 241.168 46.3004C240.914 46.4276 240.812 46.4022 240.685 46.1476C239.336 43.6024 237.987 41.0572 236.613 38.512C236.46 38.232 236.536 38.1302 236.791 37.9775C237.605 37.5703 238.42 37.1376 239.209 36.6794C239.59 36.4504 239.794 36.4758 239.947 36.9085C239.947 36.9849 240.023 37.0612 240.125 37.1885H240.15Z" fill="#A71C1B"/>
<path d="M245.19 126.321C246.233 126.27 247.15 126.601 247.964 127.263C249.135 128.204 249.491 129.553 248.957 130.928C248.804 131.309 248.6 131.691 248.397 132.048C247.608 133.295 246.793 134.516 246.03 135.764C245.877 136.018 245.75 136.094 245.47 135.916C244.732 135.407 243.968 134.924 243.204 134.465C242.874 134.262 242.899 134.135 243.103 133.855C243.764 132.862 244.401 131.869 245.037 130.877C245.164 130.673 245.292 130.469 245.393 130.266C245.648 129.706 245.571 129.273 245.19 128.968C244.732 128.611 244.172 128.586 243.714 128.891C243.408 129.095 243.204 129.375 243.026 129.68C242.39 130.673 241.728 131.666 241.117 132.658C240.965 132.887 240.888 132.938 240.634 132.786C239.87 132.251 239.081 131.768 238.292 131.259C238.063 131.106 238.012 131.004 238.165 130.749C240.125 127.721 242.059 124.692 244.019 121.663C244.172 121.434 244.273 121.383 244.528 121.561C245.292 122.07 246.055 122.579 246.844 123.037C247.124 123.216 247.15 123.343 246.971 123.597C246.462 124.336 245.979 125.099 245.495 125.863C245.419 125.99 245.266 126.117 245.292 126.321H245.19Z" fill="#A71C1B"/>
<path d="M264.915 37.9006C263.694 39.5041 261.225 39.7586 259.723 38.5624C258.425 37.5188 258.145 34.8718 260.41 33.981C261.53 33.5483 262.701 33.5483 263.846 33.4974C264.025 33.4974 264.33 33.5992 264.381 33.3956C264.457 33.1411 264.254 32.9375 264.05 32.7847C263.414 32.3266 262.676 32.4284 261.988 32.5302C261.505 32.6066 261.021 32.7847 260.588 33.0647C260.359 33.2174 260.258 33.2174 260.13 32.9629C259.799 32.3012 259.469 31.6649 259.112 31.0285C258.985 30.8249 259.036 30.6977 259.24 30.5959C261.377 29.5269 263.617 29.1705 265.908 29.9596C267.41 30.4686 268.173 31.6649 268.275 33.192C268.428 34.9736 268.428 36.7807 268.504 38.5878C268.504 38.8678 268.402 38.9187 268.148 38.9187C267.257 38.9187 266.341 38.9442 265.45 39.0205C265.017 39.046 264.814 38.9442 264.89 38.486C264.89 38.3333 264.89 38.1552 264.89 37.8752L264.915 37.9006Z" fill="#A71C1B"/>
<path d="M236.435 49.049C236.816 51.2379 233.838 53.2995 232.184 52.8414C230.453 52.3578 229.562 50.6271 230.377 49.0236C230.708 48.3364 231.217 47.751 231.777 47.2165C232.184 46.7838 232.591 46.3511 232.998 45.893C232.54 45.5621 232.031 45.6639 231.573 45.9693C230.784 46.4784 230.275 47.2165 229.97 48.0818C229.919 48.2091 229.868 48.3618 229.817 48.54C229.028 48.2346 228.264 47.9291 227.475 47.6492C227.272 47.5728 227.195 47.471 227.272 47.2928C228.239 44.9003 229.791 43.0423 232.311 42.2533C233.533 41.8715 234.678 42.2533 235.62 43.0678C237.045 44.3404 238.267 45.8421 239.616 47.191C239.82 47.3946 239.641 47.471 239.54 47.5728C238.827 48.2346 238.114 48.8963 237.427 49.5581C237.198 49.7871 237.071 49.7617 236.893 49.5326C236.765 49.3545 236.613 49.2272 236.46 49.049H236.435Z" fill="#A71C1B"/>
<path d="M296.298 48.3861C294.109 49.0988 291.513 46.2482 292.124 44.2883C292.633 42.6849 294.109 41.8704 295.687 42.4812C296.782 42.8885 297.596 43.6775 298.461 44.4156C298.64 44.5683 298.792 44.8992 299.021 44.7465C299.25 44.5938 299.2 44.212 299.123 43.9575C299.047 43.652 298.843 43.3975 298.64 43.1684C298.029 42.5321 297.291 42.1249 296.451 41.9467C296.196 41.8958 296.12 41.8449 296.196 41.565C296.4 40.8777 296.603 40.1905 296.756 39.5033C296.833 39.2234 296.96 39.1725 297.214 39.2488C299.429 39.936 301.21 41.1577 302.356 43.1939C303.094 44.492 302.967 45.8155 302.152 47.0626C301.668 47.8007 301.058 48.4116 300.498 49.0733C299.81 49.8624 299.123 50.6259 298.461 51.4149C298.258 51.644 298.156 51.644 297.927 51.4404C297.24 50.8041 296.527 50.1932 295.814 49.5824C295.585 49.3788 295.509 49.2515 295.764 49.0224C295.916 48.8697 296.044 48.6916 296.273 48.4625L296.298 48.3861Z" fill="#A71C1B"/>
<path d="M240.888 121.766C240.888 123.471 240.888 123.471 239.667 123.267C239.132 123.166 238.623 123.089 238.089 123.013C237.783 122.987 237.707 122.86 237.758 122.555C237.885 121.562 237.656 120.697 236.918 120.01C236.154 119.297 235.289 119.144 234.322 119.526C233.711 119.755 233.227 120.162 232.845 120.697C231.726 122.249 232.718 124.387 234.678 124.718C235.204 124.803 235.459 125.117 235.442 125.66C235.416 126.271 235.365 126.856 235.365 127.467C235.365 127.798 235.289 127.925 234.933 127.874C234.271 127.823 233.634 127.722 233.049 127.416C230.707 126.22 229.257 124.387 229.079 121.715C228.926 119.45 230.046 117.77 231.955 116.65C233.813 115.555 235.722 115.581 237.554 116.701C239.59 117.948 240.787 119.781 240.914 121.766H240.888Z" fill="#A71C1B"/>
<path d="M292.149 119.271C291.895 121.765 291.666 124.157 291.437 126.626C291.844 126.397 292.2 126.219 292.582 126.015C292.76 125.914 292.684 125.812 292.633 125.685C292.48 125.379 292.327 125.048 292.149 124.768C292.022 124.565 291.996 124.437 292.251 124.31C293.091 123.903 293.905 123.445 294.72 123.012C294.949 122.885 295.076 122.885 295.153 123.139C295.153 123.165 295.178 123.19 295.203 123.216C295.407 123.572 295.509 124.081 295.814 124.208C296.043 124.31 296.476 123.954 296.807 123.75C296.985 123.648 297.087 123.674 297.189 123.852C297.545 124.539 297.901 125.226 298.258 125.888C298.36 126.092 298.309 126.168 298.13 126.27C297.901 126.372 297.698 126.524 297.469 126.601C297.112 126.728 297.112 126.906 297.316 127.186C297.443 127.339 297.494 127.543 297.596 127.721C297.851 128.213 297.74 128.578 297.265 128.815C296.552 129.197 295.84 129.553 295.153 129.935C294.898 130.088 294.771 130.037 294.669 129.782C294.618 129.655 294.542 129.553 294.491 129.426C293.956 128.433 293.956 128.459 293.015 128.968C291.793 129.63 290.571 130.266 289.349 130.928C289.095 131.08 288.942 131.106 288.84 130.775C288.84 130.724 288.79 130.648 288.739 130.597C287.924 129.528 287.924 128.357 288.128 127.11C288.408 125.252 288.586 123.368 288.79 121.51C288.815 121.154 288.942 120.95 289.273 120.772C290.215 120.289 291.157 119.78 292.175 119.245L292.149 119.271Z" fill="#A71C1B"/>
<path d="M304.57 109.574C304.57 109.574 304.595 109.523 304.621 109.497C304.773 109.37 304.952 109.268 305.13 109.141C305.282 109.065 305.435 109.014 305.588 108.912C307.522 108.199 308.973 108.937 310.22 110.363C311.035 111.279 311.875 112.144 312.74 113.01C312.994 113.264 313.045 113.417 312.74 113.671C312.154 114.18 311.569 114.715 311.035 115.275C310.755 115.555 310.576 115.555 310.347 115.249C310.271 115.148 310.195 114.995 309.991 114.969C310.169 116.446 309.304 117.311 308.209 117.998C307.039 118.736 305.766 118.533 304.901 117.566C304.086 116.649 304.086 115.504 304.901 114.359C305.435 113.621 306.097 113.01 306.733 112.399C306.81 112.322 306.962 112.246 306.937 112.144C306.911 111.992 306.733 111.992 306.606 111.941C306.224 111.839 305.919 111.941 305.613 112.17C304.926 112.653 304.417 113.29 304.188 114.104C304.086 114.41 303.984 114.511 303.679 114.359C303.17 114.13 302.661 113.926 302.126 113.799C301.694 113.671 301.668 113.468 301.821 113.111C302.432 111.686 303.348 110.515 304.595 109.599L304.57 109.574Z" fill="#A71C1B"/>
<path d="M256.669 36.8062C257.152 37.5443 257.636 38.257 258.12 38.9696C258.247 39.1478 258.171 39.2496 258.018 39.326C256.491 40.3186 254.862 40.7767 253.08 40.1659C252.113 39.8096 251.553 38.9951 251.273 38.0279C251.018 37.2389 250.815 36.4244 250.611 35.61C250.535 35.3554 250.509 35.2536 250.179 35.33C249.262 35.559 249.262 35.559 249.033 34.6428C248.906 34.1592 248.804 33.6756 248.651 33.192C248.55 32.8866 248.651 32.8102 248.931 32.7339C249.797 32.5302 249.797 32.5048 249.568 31.614C249.44 31.1558 249.339 30.6977 249.211 30.265C249.135 30.0359 249.211 29.9341 249.44 29.8832C250.484 29.6032 251.527 29.3487 252.571 29.0687C252.826 28.9924 252.927 29.0942 252.978 29.3487C253.106 29.9087 253.284 30.4686 253.411 31.054C253.487 31.4358 253.615 31.5885 254.047 31.4358C254.378 31.3085 254.734 31.2831 255.065 31.1558C255.32 31.0795 255.447 31.0795 255.523 31.3849C255.676 32.0721 255.88 32.7848 256.058 33.472C256.134 33.7265 256.083 33.8283 255.829 33.8792C255.447 33.9556 255.065 34.0828 254.658 34.1846C254.378 34.2355 254.251 34.3119 254.378 34.6428C254.556 35.2027 254.684 35.8136 254.836 36.3735C255.091 37.3152 255.651 37.5189 256.465 36.9589C256.542 36.908 256.592 36.8571 256.694 36.7808L256.669 36.8062Z" fill="#A71C1B"/>
<path d="M256.694 130.496C257.865 130.623 258.934 130.776 260.003 130.878C260.308 130.903 260.334 131.133 260.359 131.311C260.665 132.583 260.97 133.83 261.275 135.103C261.301 135.23 261.352 135.383 261.428 135.587C262.166 134.263 262.854 133.016 263.515 131.743C263.693 131.412 263.846 131.311 264.253 131.362C265.144 131.514 266.061 131.591 266.977 131.692C267.002 131.922 266.875 132.049 266.799 132.176C265.501 134.569 264.177 136.936 262.904 139.328C262.726 139.634 262.574 139.735 262.217 139.684C261.275 139.532 260.334 139.43 259.392 139.328C259.188 139.328 259.061 139.252 259.01 139.023C258.247 136.197 257.483 133.372 256.72 130.445L256.694 130.496Z" fill="#A71C1B"/>
<path d="M315.158 52.2041C315.311 52.2041 315.336 52.3314 315.361 52.4077C315.896 53.3749 316.43 54.3421 316.965 55.2838C317.143 55.6147 316.889 55.6401 316.736 55.742C314.369 57.0655 312.002 58.389 309.609 59.687C308.54 60.2979 307.446 60.8578 306.377 61.4941C306.046 61.6978 305.919 61.6214 305.766 61.2905C305.308 60.4251 304.85 59.5852 304.366 58.7708C304.162 58.4144 304.162 58.2872 304.544 58.0581C307.42 56.4801 310.271 54.8766 313.147 53.2985C313.732 52.9677 314.318 52.6622 314.903 52.3314C314.98 52.2805 315.081 52.2296 315.158 52.2041Z" fill="#A71C1B"/>
<path d="M301.541 124.031C300.905 123.852 300.396 123.471 299.988 122.987C299.556 122.478 299.097 121.994 298.716 121.46C298.487 121.18 298.359 121.129 298.054 121.384C297.519 121.867 297.519 121.842 297.036 121.282C296.73 120.925 296.45 120.544 296.145 120.213C295.89 119.958 295.941 119.78 296.221 119.602C296.323 119.526 296.425 119.424 296.527 119.347C296.756 119.195 296.73 119.067 296.552 118.864C296.17 118.431 295.84 117.998 295.458 117.566C295.28 117.362 295.305 117.26 295.509 117.082C296.247 116.497 296.985 115.886 297.698 115.25C297.901 115.071 298.028 115.122 298.181 115.3C298.537 115.759 298.919 116.166 299.25 116.624C299.403 116.828 299.505 116.853 299.708 116.675C299.988 116.42 300.294 116.191 300.574 115.937C300.752 115.784 300.828 115.809 300.955 115.988C301.363 116.497 301.795 117.031 302.228 117.515C302.381 117.667 302.381 117.795 302.177 117.922C302.126 117.947 302.101 117.973 302.05 118.024C301.744 118.304 301.159 118.533 301.159 118.889C301.159 119.22 301.643 119.576 301.923 119.907C302.101 120.111 302.254 120.315 302.432 120.518C302.864 121.002 303.424 120.976 303.755 120.391C303.984 120.009 304.137 120.06 304.417 120.264C304.901 120.594 305.41 120.874 305.919 121.18C306.071 121.256 306.148 121.333 306.097 121.536C305.69 122.987 302.992 124.489 301.515 124.056L301.541 124.031Z" fill="#A71C1B"/>
<path d="M277.336 130.547C277.819 129.681 278.507 129.198 279.347 128.892C279.576 128.816 279.678 128.816 279.728 129.07C279.957 129.885 280.187 130.674 280.441 131.463C280.517 131.692 280.467 131.794 280.237 131.819C279.983 131.87 279.703 131.921 279.474 132.023C278.659 132.354 278.303 132.964 278.507 133.804C278.787 134.95 279.092 136.095 279.474 137.215C279.652 137.724 279.474 137.851 279.041 137.953C278.227 138.157 277.438 138.411 276.649 138.64C276.369 138.717 276.241 138.691 276.14 138.386C275.427 135.891 274.689 133.397 273.951 130.903C273.874 130.623 273.951 130.547 274.18 130.496C274.969 130.267 275.783 130.037 276.572 129.783C276.954 129.656 277.158 129.707 277.209 130.139C277.209 130.241 277.285 130.317 277.336 130.496V130.547Z" fill="#A71C1B"/>
<path d="M307.217 47.4708C307.217 47.4708 307.395 47.5726 307.446 47.649C308.108 48.5144 308.769 49.4052 309.457 50.2706C309.584 50.4487 309.584 50.5251 309.406 50.6523C307.064 52.434 304.723 54.1902 302.406 55.9719C302.203 56.1246 302.126 56.0737 301.974 55.8955C301.337 55.0301 300.676 54.1647 300.014 53.2994C299.861 53.1212 299.887 53.0194 300.065 52.8667C302.381 51.1105 304.697 49.3288 307.039 47.5726C307.115 47.5217 307.166 47.4708 307.242 47.4199L307.217 47.4708Z" fill="#A71C1B"/>
<path d="M269.471 139.761C269.14 139.863 269.038 139.685 268.987 139.303C268.758 136.834 268.504 134.365 268.224 131.896C268.173 131.514 268.224 131.336 268.657 131.311C269.547 131.26 270.413 131.158 271.304 131.056C271.609 131.031 271.685 131.107 271.736 131.413C271.991 133.907 272.22 136.401 272.525 138.87C272.576 139.354 272.449 139.506 271.991 139.532C271.176 139.583 270.362 139.685 269.496 139.786L269.471 139.761Z" fill="#A71C1B"/>
<path d="M288.102 134.084C288.153 134.262 288 134.262 287.898 134.313C287.033 134.771 286.142 135.204 285.277 135.662C285.073 135.764 284.997 135.713 284.895 135.535C283.699 133.167 282.503 130.826 281.306 128.459C281.204 128.255 281.255 128.179 281.434 128.077C282.324 127.644 283.19 127.186 284.055 126.754C284.208 126.677 284.31 126.626 284.411 126.83C285.608 129.222 286.829 131.615 288.051 134.007C288.051 134.033 288.077 134.058 288.102 134.109V134.084Z" fill="#A71C1B"/>
<path d="M255.6 130.011C255.6 130.011 255.549 130.164 255.498 130.265C254.658 132.658 253.818 135.025 252.978 137.417C252.876 137.723 252.775 137.825 252.418 137.697C251.578 137.367 250.739 137.087 249.873 136.807C249.619 136.705 249.517 136.628 249.619 136.323C250.484 133.905 251.349 131.462 252.189 129.018C252.266 128.764 252.367 128.662 252.647 128.789C253.538 129.12 254.429 129.425 255.32 129.731C255.422 129.782 255.6 129.782 255.549 130.011H255.6Z" fill="#A71C1B"/>
<path d="M308.464 46.9615C308.464 45.7144 309.558 44.849 310.755 45.129C311.798 45.3835 312.791 46.6307 312.765 47.6997C312.765 48.9723 311.442 49.8376 310.195 49.405C309.253 49.0741 308.438 47.9287 308.438 46.9361L308.464 46.9615Z" fill="#A71C1B"/>
<path d="M269.827 126.933C270.947 126.933 271.711 127.543 271.787 128.511C271.863 129.452 271.176 130.241 270.133 130.445C269.725 130.521 269.344 130.521 268.936 130.445C268.224 130.267 267.689 129.732 267.587 129.071C267.46 128.282 267.817 127.62 268.504 127.238C268.911 127.009 269.344 126.933 269.802 126.933H269.827Z" fill="#A71C1B"/>
<path d="M282.019 123.318C282.986 123.318 283.724 124.056 283.724 125.024C283.724 126.067 282.554 127.085 281.357 127.111C280.365 127.111 279.601 126.347 279.601 125.38C279.601 124.311 280.772 123.318 282.019 123.318Z" fill="#A71C1B"/>
<path d="M254.582 125.099C255.142 125.099 255.651 125.302 256.109 125.608C256.796 126.091 257.076 126.829 256.822 127.568C256.567 128.357 255.854 128.815 255.014 128.764C254.48 128.738 253.996 128.56 253.564 128.28C252.876 127.797 252.571 127.008 252.8 126.269C253.055 125.506 253.691 125.073 254.556 125.073L254.582 125.099Z" fill="#A71C1B"/>
<path d="M226.508 83.4603C226.432 61.4441 244.376 43.1949 266.901 43.424C288.79 43.6276 306.682 61.6478 306.428 83.9184C306.173 105.375 288.535 123.446 266.264 123.318C244.274 123.217 226.534 105.349 226.508 83.4348V83.4603Z" fill="#ECE8DF"/>
<path d="M263.337 36.908C262.828 36.908 262.472 36.6535 262.421 36.2462C262.37 35.839 262.65 35.5081 263.185 35.4318C263.541 35.3809 263.923 35.4063 264.279 35.3809C264.483 35.3809 264.508 35.4827 264.533 35.6608C264.635 36.348 264.075 36.9334 263.337 36.9334V36.908Z" fill="#ECE7DE"/>
<path d="M234.958 48.1329C234.958 48.8201 234.704 49.2019 234.245 49.431C233.915 49.6092 233.609 49.5837 233.329 49.2783C233.075 48.9983 233.075 48.7183 233.278 48.4129C233.533 48.0057 233.915 47.7257 234.245 47.3948C234.373 47.2676 234.424 47.3185 234.525 47.4203C234.78 47.6493 234.958 47.9293 234.958 48.1075V48.1329Z" fill="#ECE7DE"/>
<path d="M296.705 46.9875C296.222 46.9875 295.687 46.6312 295.534 46.1985C295.433 45.9185 295.509 45.664 295.687 45.4604C295.891 45.2568 296.12 45.1804 296.425 45.2822C296.934 45.4604 297.265 45.8676 297.672 46.1985C297.774 46.2748 297.749 46.3512 297.672 46.453C297.418 46.7839 297.138 46.9875 296.705 46.9875Z" fill="#ECE6DE"/>
<path d="M307.318 115.351C306.962 115.147 306.86 114.664 307.166 114.333C307.42 114.053 307.726 113.824 308.006 113.569C308.082 113.519 308.133 113.468 308.235 113.493C308.591 113.62 308.744 114.333 308.54 114.791C308.311 115.3 307.7 115.555 307.318 115.351Z" fill="#ECE7DE"/>
<path d="M305.028 85.2673C304.952 87.3544 304.672 89.416 304.214 91.4522C303.374 95.3718 301.948 99.0878 299.912 102.549C296.171 108.963 291.029 113.901 284.488 117.388C281.129 119.17 277.565 120.442 273.824 121.155C269.115 122.071 264.381 122.097 259.647 121.257C252.113 119.933 245.572 116.624 239.998 111.407C235.34 107.054 231.98 101.862 229.893 95.83C228.213 90.994 227.526 86.0054 227.857 80.915C228.443 71.4977 231.98 63.353 238.471 56.5064C242.721 52.0013 247.812 48.7434 253.64 46.6818C257.305 45.3838 261.072 44.6965 264.941 44.5438C269.446 44.3657 273.849 44.9511 278.151 46.3255C283.674 48.0817 288.586 50.9578 292.837 54.9283C296.247 58.1098 298.996 61.775 301.083 65.9746C302.865 69.5888 304.086 73.3811 304.672 77.3771C304.85 78.6243 304.977 79.8969 305.054 81.144C305.003 82.5185 305.003 83.8674 305.054 85.2418L305.028 85.2673Z" fill="#B4131A"/>
<path d="M305.028 85.2668C305.028 85.2668 304.951 84.9868 304.951 84.8341C304.951 83.7397 304.951 82.6707 304.951 81.5762C304.951 81.4235 304.901 81.2708 305.028 81.1436C305.104 82.518 305.104 83.8669 305.028 85.2414V85.2668Z" fill="#B0060E"/>
<path d="M266.493 46.8091C285.913 46.7073 303.195 62.793 302.864 83.842C302.559 103.389 286.448 119.882 265.882 119.602C246.361 119.348 229.639 103.237 230.071 82.3912C230.453 62.6658 246.768 46.7836 266.493 46.8091Z" fill="#ECE8DF"/>
<path d="M257.458 82.1616C257.331 81.7035 256.771 80.7108 256.516 80.329C256.236 79.8964 255.6 80.2272 255.727 80.7617C255.854 81.2962 256.287 82.2125 256.618 82.6197C256.974 83.0524 257.611 82.747 257.432 82.1616H257.458Z" fill="white"/>
<path d="M256.516 80.2782C256.72 79.6419 256.949 79.1329 257.229 78.8784C257.458 78.7002 257.839 78.6493 258.018 78.7511C258.221 78.8275 258.425 79.0565 258.399 79.2856C258.628 79.1074 258.985 79.1329 259.29 79.2856C259.647 79.4892 259.927 79.9474 259.901 80.5073C259.876 80.9909 259.672 81.5254 259.239 81.9072C258.908 82.1871 258.17 82.4162 257.534 82.1872C257.483 82.1872 257.432 82.1617 257.407 82.1617C257.254 81.7036 256.72 80.7109 256.49 80.3291V80.2782H256.516Z" fill="#A71C1B"/>
<path d="M252.265 70.454C251.96 70.1231 251.476 69.9959 250.56 70.0977C249.644 70.1995 247.989 70.8358 246.666 71.6248C244.859 72.6684 243.434 74.2209 243.154 75.0863C242.899 75.9517 243.968 76.588 244.477 76.0026C245.19 75.1627 246.539 74.1446 247.862 73.3556C249.593 72.312 250.942 71.803 251.96 71.5739C252.545 71.4467 252.596 70.7849 252.291 70.454H252.265Z" fill="white"/>
<path d="M240.634 87.3288C240.099 87.4052 239.285 87.5579 238.7 87.736C238.114 87.9142 238.14 88.8814 238.776 88.9068C239.539 88.9577 240.125 89.2886 240.329 89.9504C240.812 91.5539 241.067 92.0884 241.728 92.9792C242.441 93.9464 243.383 94.9899 245.088 95.6008C245.368 96.1607 245.444 97.0261 245.037 97.7133C244.681 98.3241 244.019 98.7059 243.179 98.7823C242.696 98.8332 242.085 98.8332 241.805 98.4259C241.499 97.9933 241.525 97.4079 241.805 96.797C241.932 96.4916 241.601 96.1353 241.219 96.5425C240.227 97.5606 240.099 98.9859 240.914 100.564C241.627 101.938 243.001 102.295 245.088 101.989C249.008 101.378 256.72 100.259 260.767 99.5967C262.752 99.2913 264.839 99.1641 266.29 98.2987C268.097 97.2042 269.319 94.8626 269.039 92.6738C268.759 90.4849 267.537 89.5177 266.697 89.2632C265.857 89.0086 264.941 89.1868 264.381 89.5177C263.795 89.874 263.541 90.434 263.744 90.8412C263.999 91.3757 264.534 91.4775 264.864 91.223C265.144 91.0194 265.144 90.5612 264.966 90.3576C265.195 90.154 265.832 90.0013 266.468 90.2558C267.282 90.5867 267.791 91.2739 267.766 92.6738C267.766 93.4373 266.646 94.3536 265.679 94.5318C264.635 94.7354 263.465 94.659 262.625 94.3027C261.988 94.0227 261.327 93.5646 260.996 92.9028C262.37 91.4775 262.319 89.6959 262.37 88.7541C262.446 87.3797 262.166 85.5981 262.523 84.7327C262.879 83.8419 263.388 83.5364 264.075 83.5619C264.508 83.5619 264.966 83.8673 265.068 84.2745C265.119 84.4782 265.272 84.6818 265.628 84.7072C265.908 84.7072 266.162 84.5291 266.213 84.3254C266.519 83.4092 266.162 82.2893 264.813 81.8311C263.694 81.4494 262.065 81.8311 260.919 82.4165C259.774 83.0019 259.061 83.7655 258.476 84.7581C257.916 85.7508 256.898 86.5398 254.811 86.8961C252.724 87.2524 251.629 87.4306 250.306 87.5324C248.779 87.6342 247.379 87.3033 246.157 87.1252C244.935 86.9725 242.059 87.1252 240.685 87.3033L240.634 87.3288ZM256.796 94.8881C256.847 95.5753 257.331 96.6188 257.789 97.1788C258.298 97.8151 258.985 98.2478 259.545 98.4514C257.229 98.655 254.022 98.935 251.96 99.2913C251.706 99.3422 251.451 99.3677 251.197 99.4186C251.197 99.4186 251.247 99.3931 251.273 99.3677C251.731 98.9859 252.24 98.1205 252.393 97.1024C252.444 96.7461 252.444 96.288 252.393 95.8298C253.716 95.6262 255.193 95.3208 256.796 94.8881ZM248.88 99.8513C247.15 100.233 245.699 100.437 244.732 100.538C243.408 100.691 242.441 100.615 241.805 99.7495C242.161 99.8767 242.797 99.9276 243.179 99.8767C244.375 99.6986 245.317 99.3677 246.081 98.5023C246.87 97.6115 246.997 96.8734 246.895 96.0334C247.15 96.0589 247.43 96.0843 247.71 96.1098C248.804 96.1862 249.695 96.1862 251.095 96.008C251.197 96.3134 251.171 96.5679 251.146 96.8734C251.069 97.6115 250.408 98.7059 249.797 99.215C249.466 99.4695 249.211 99.6477 248.855 99.8767L248.88 99.8513ZM258.781 96.4407C258.4 95.9571 258.12 95.2953 257.941 94.5572C258.476 94.3791 259.392 94.0482 259.927 93.7173C260.359 94.43 261.454 95.0663 262.192 95.3717C263.414 95.8553 265.093 95.8807 266.061 95.4989C266.748 95.2444 267.181 94.939 267.486 94.6336C267.231 95.3208 266.824 95.9825 266.112 96.6697C265.068 97.7133 263.465 97.9933 261.912 98.1969C261.097 98.146 259.367 97.2551 258.781 96.4661V96.4407Z" fill="#DF9F64"/>
<path d="M289.171 67.6287C288.738 67.3742 288.509 67.2469 287.873 66.9161C287.059 66.5088 285.913 66.0507 285.226 65.7198C284.106 65.1853 283.393 64.4981 282.986 64.0654C282.477 63.48 282.121 62.5892 282.07 62.0292C282.019 61.2911 282.91 61.1639 283.088 61.8002C283.215 62.3347 283.368 62.691 283.521 63.0219C283.877 63.7345 284.361 64.269 285.022 64.6508C284.615 64.1672 284.361 63.5309 284.259 63.1491C284.157 62.7673 284.004 62.1819 284.055 61.622C284.132 61.0621 284.819 61.1639 284.921 61.8765C285.022 62.5892 285.175 63.3273 285.557 63.8618C285.964 64.3963 286.168 64.8035 287.211 65.4907C286.88 65.0835 286.702 64.4472 286.651 63.9636C286.6 63.2509 287.568 63.1746 287.746 64.04C287.949 65.1599 288.331 65.9743 289.171 66.5852C290.138 67.2978 290.266 67.3996 291.207 67.756C291.411 67.9596 291.207 68.1887 290.953 68.3414C290.418 68.0614 289.68 67.7814 289.146 67.6287H289.171Z" fill="#D1C5A7"/>
<path d="M291.462 67.5528C291.182 67.171 291.054 66.8656 290.698 66.4075C290.24 65.7966 289.731 64.8549 289.375 64.3204C288.815 63.4295 288.636 62.5896 288.586 62.0806C288.509 61.3934 288.662 60.6807 288.891 60.2735C289.196 59.6626 289.96 59.9171 289.756 60.4771C289.578 60.9607 289.527 61.1898 289.476 61.5206C289.4 62.2587 289.476 62.8441 289.807 63.3786C289.756 62.8441 289.909 62.2078 290.011 61.8515C290.113 61.4952 290.316 61.0625 290.571 60.7316C290.902 60.3244 291.36 60.6807 291.08 61.2916C290.8 61.8515 290.622 62.386 290.571 62.9714C290.52 63.5568 290.571 63.964 291.003 64.9567C290.978 64.4985 291.156 63.9131 291.36 63.5059C291.691 62.8951 292.429 63.2514 292.123 64.0149C291.716 65.0076 291.487 65.7711 291.894 66.5856C292.047 66.891 292.174 67.171 292.327 67.4001C292.022 67.451 291.742 67.5019 291.462 67.5782V67.5528Z" fill="#D1C5A7"/>
<path d="M286.015 87.1754C285.913 87.4299 285.761 87.7863 285.557 88.1171C284.921 89.0334 283.903 89.6697 283.114 90.0261C282.325 90.3824 281.765 91.1205 281.714 91.8077C281.663 92.3422 281.332 93.6912 281.103 94.5565C280.899 95.3201 280.746 95.8292 280.568 96.5418C280.416 97.1018 279.957 97.7635 279.423 97.6108C279.118 97.509 278.71 97.1272 278.558 96.4655C278.456 95.9564 278.583 94.9383 278.99 94.6838C279.398 94.4293 279.652 93.9966 279.779 93.4621C279.957 92.6731 280.212 91.7314 280.11 90.7387C281.001 90.4333 282.121 89.7715 282.834 89.237C283.75 88.5498 284.513 87.8117 284.972 86.9209C285.302 87.0227 285.633 87.0991 286.041 87.2009L286.015 87.1754Z" fill="#A28978"/>
<path d="M295.585 85.8007C294.694 85.9534 293.6 86.1316 292.913 86.2843C291.844 86.5134 291.284 86.4116 290.927 86.0043C290.749 85.8007 290.622 85.6226 290.52 85.4189C289.655 86.0298 287.848 85.9789 286.499 85.6735C286.091 85.5717 285.531 85.6735 285.353 86.0552C285.226 86.3352 285.099 86.5897 284.946 86.9206C285.277 87.0224 285.608 87.0988 286.015 87.2006C288.051 87.7096 288.764 87.8114 290.062 87.786C291.411 87.7605 293.473 87.4551 295.56 85.8516L295.585 85.8007Z" fill="#D1C5A7"/>
<path d="M291.767 66.2029C291.92 65.9739 292.276 66.0248 292.658 66.2793C292.938 66.4575 293.142 66.6611 293.269 66.941C293.32 67.0428 293.294 67.221 293.269 67.3228C293.727 67.3737 294.16 67.5264 294.643 67.7555C295.534 68.2136 295.738 68.4173 296.374 68.6209C296.959 68.799 297.494 68.8245 297.978 68.8754C298.537 68.9009 298.843 69.3335 298.919 69.7917C299.021 70.3262 298.919 70.937 298.512 71.5224C298.105 72.1078 296.985 72.4133 296.349 72.6169C295.89 72.7441 295.356 72.9223 294.949 73.2277C293.854 74.0422 293.88 74.9839 293.829 75.6202C293.803 76.1293 293.829 76.6892 293.88 77.3764C293.931 78.0382 294.083 79.3362 294.058 79.9725C294.032 80.7361 293.905 81.576 293.88 82.0342C293.854 82.4923 294.032 83.0523 294.669 83.1032C295.254 83.1541 296.221 83.1795 297.01 83.1032C297.799 83.0523 298.334 83.0523 298.996 83.1032C299.657 83.1795 300.039 83.6377 300.014 84.1722C300.014 84.6812 299.581 85.9029 299.276 86.6665C298.996 87.43 298.614 88.6772 298.385 89.5171C298.156 90.357 297.799 90.9679 297.29 91.2479C296.781 91.5278 296.501 91.2988 296.349 90.7897C296.196 90.2552 296.17 89.848 296.221 89.3898C296.247 89.0844 296.374 88.6517 296.73 88.3209C297.087 87.99 297.29 87.5064 297.418 87.0737C297.545 86.641 297.596 86.2592 297.621 85.9029C297.621 85.6484 297.341 85.4957 296.858 85.5466C296.247 85.6229 293.982 85.9793 292.862 86.2338C291.793 86.4629 291.233 86.361 290.876 85.9538C290.698 85.7502 290.571 85.572 290.469 85.3684C289.604 85.9793 287.797 85.9284 286.448 85.6229C286.04 85.5211 285.481 85.6229 285.302 86.0047C285.175 86.2847 285.048 86.5392 284.895 86.8701C284.437 87.7609 283.673 88.499 282.757 89.1862C282.044 89.7462 280.925 90.3825 280.034 90.6879C279.805 90.7643 279.601 90.8406 279.423 90.8915C278.583 91.146 278.634 91.8078 278.532 92.3423C278.405 92.8768 278.023 94.7093 277.819 95.4729C277.641 96.2365 277.132 97.3564 276.878 97.8654C276.623 98.3745 276.038 98.7053 275.58 98.4763C275.198 98.2727 275.02 97.7636 274.943 97.2546C274.867 96.6437 275.071 96.0329 275.478 95.8038C275.809 95.6002 276.063 95.1929 276.241 94.5566C276.47 93.7931 276.776 92.0878 276.827 91.1461C276.878 90.2043 276.827 89.848 277.438 89.3644C277.998 88.9317 278.354 88.3463 278.71 87.4809C278.99 86.8192 279.168 85.7247 279.27 84.7321C279.372 83.9685 279.652 82.8486 280.186 81.9324C279.677 81.6524 279.041 81.7033 278.558 81.576C277.921 81.3979 277.641 80.5834 277.641 79.998C277.641 79.3362 278.15 79.1581 278.634 79.209C279.143 79.2853 279.627 79.6417 280.008 80.1507C280.263 80.507 280.645 80.9143 280.95 80.9143C281.968 79.9471 283.673 79.6671 284.87 79.6417C285.964 79.6162 287.288 79.4635 288.178 79.0563C289.171 78.5981 289.604 77.8855 289.807 77.351C290.062 76.7147 290.113 75.6202 290.036 74.7039C289.96 73.8131 289.884 73.3295 289.706 72.006C289.604 71.2679 289.553 70.6316 289.706 69.9953V69.9189C289.426 69.868 289.146 69.7917 288.84 69.639C288.128 69.2572 287.949 68.4173 287.898 67.9846C287.848 67.6282 287.949 67.4501 288.637 67.5773C289.171 67.6791 290.189 68.0609 290.876 68.4173C291.131 68.2645 291.335 68.0355 291.131 67.8319C291.08 67.8319 291.004 67.781 290.953 67.7555C291.309 67.5773 291.716 67.501 292.174 67.4246C292.022 67.1956 291.894 66.9156 291.742 66.6102C291.691 66.4829 291.64 66.3811 291.614 66.2538L291.767 66.2029Z" fill="#A28978"/>
<path d="M297.01 83.1296C297.01 83.1296 297.036 83.1296 297.061 83.1296C297.85 83.0787 298.385 83.0787 299.047 83.1296C299.708 83.206 300.09 83.6641 300.065 84.1986C300.065 84.4531 299.938 84.8604 299.81 85.2931C299.861 85.8275 299.887 86.3366 299.836 86.7438C299.785 87.202 299.734 87.4056 299.556 87.8128C299.352 88.271 299.759 89.1363 300.039 89.4163C300.345 89.7472 300.701 89.8235 300.981 89.5945C301.363 89.2636 301.49 88.9327 301.592 88.3982C301.719 87.7619 301.592 86.4639 301.592 85.3949C301.592 84.0459 301.617 82.5951 301.592 82.0352C301.541 81.2971 300.981 80.8389 300.447 80.8135C299.887 80.8135 298.741 81.1698 297.57 81.3225C297.494 81.7298 297.214 82.646 297.061 83.0787L297.01 83.1296Z" fill="#A28978"/>
<path d="M253.64 74.7557C253.258 74.7557 252.647 74.8575 252.266 75.2138C251.68 75.1629 251.171 75.5447 250.891 75.9774C250.611 75.5956 250.026 75.1884 249.339 74.7557C249.568 74.2721 249.949 73.4067 249.848 72.7704V72.6431C250.484 72.3632 251.044 72.1341 251.553 72.0068C251.706 72.1086 251.858 72.185 252.037 72.2868C252.469 72.5922 252.826 73.2031 252.826 73.8139C253.436 73.7121 253.818 74.1194 253.716 74.5266C253.716 74.603 253.665 74.7048 253.64 74.7557Z" fill="#EED7CE"/>
<path d="M247.913 86.8954C248.32 84.9865 247.862 81.7287 245.953 79.5652H246.004C247.506 79.3616 250.153 79.8452 251.807 80.6088C252.062 80.6597 252.291 80.6851 252.494 80.7106C253.462 80.8378 254.352 80.8378 255.421 80.7106C255.523 80.7106 255.625 80.7106 255.727 80.6851C255.727 80.736 255.727 80.7615 255.727 80.8124C255.854 81.3469 256.287 82.2632 256.618 82.6704C256.668 82.7213 256.719 82.7722 256.77 82.7976L256.694 82.8485L255.93 83.3067C255.93 83.3067 255.854 83.3576 255.829 83.383C256.134 83.9175 256.363 84.4775 256.49 85.0374V85.1647C255.523 85.4956 253.436 86.0046 251.96 86.2846C251.094 86.4628 249.338 86.7173 247.913 86.9463V86.8954Z" fill="#A71C1B"/>
<path d="M246.106 87.1506C247.328 87.3033 248.728 87.6597 250.255 87.5579C251.578 87.4815 252.673 87.2779 254.76 86.9216C255.6 86.7688 256.262 86.5652 256.796 86.3107C257.687 85.9035 257.102 84.9363 256.542 85.1144C255.549 85.4453 253.436 85.9544 251.986 86.2343C251.044 86.4125 249.059 86.7179 247.582 86.947C247.099 87.0234 246.564 87.0997 246.132 87.1506H246.106Z" fill="white"/>
<path d="M297.749 68.875C297.749 68.875 297.927 68.875 298.003 68.875C298.563 68.9005 298.869 69.3331 298.945 69.7913C298.97 69.9949 298.996 70.1985 298.945 70.4276C298.41 70.4276 298.105 70.2494 297.927 69.9694C297.749 69.6895 297.672 69.3077 297.749 68.9005V68.875Z" fill="#595757"/>
<path d="M293.803 69.1555C293.854 69.41 294.083 69.5882 294.338 69.5373C294.592 69.4864 294.771 69.2573 294.72 69.0028C294.669 68.7483 294.44 68.5701 294.185 68.621C293.931 68.6719 293.752 68.901 293.803 69.1555Z" fill="#595757"/>
<path d="M273.951 76.867C268.479 76.6634 261.912 78.496 259.545 79.4632C259.469 79.3868 259.392 79.3359 259.316 79.285C259.214 79.2341 259.112 79.1832 259.01 79.1832C261.047 78.2669 268.122 76.1544 273.976 76.3835C277.947 76.5362 282.07 77.5543 286.372 79.4123C286.397 79.4123 286.473 79.4632 286.524 79.4886C286.219 79.5395 285.888 79.565 285.583 79.5904C281.561 77.936 277.641 77.0198 273.951 76.8925V76.867Z" fill="#5A4E43"/>
<path d="M287.237 81.0932C285.913 80.9405 284.03 80.1515 283.19 79.8206C282.91 79.7188 282.63 79.617 282.35 79.4897C280.925 78.9298 279.423 78.3698 277.591 77.988C272.424 76.919 265.883 77.5044 259.621 79.5406C259.723 79.6679 259.799 79.8206 259.85 79.9733C266.01 77.9626 272.424 77.4281 277.489 78.4462C279.296 78.8279 280.747 79.3879 282.172 79.9224C282.248 79.9478 282.35 79.9987 282.426 80.0242C283.012 80.3042 284.081 80.7114 285.099 81.1186C285.888 81.4241 286.702 81.5768 287.262 81.6277C287.262 81.4241 287.262 81.2459 287.237 81.0677V81.0932Z" fill="#5A4E43"/>
<path d="M297.011 83.1289C297.163 82.6962 297.418 81.7799 297.52 81.3727C297.978 79.5401 296.578 76.7913 296.043 75.6205C295.662 74.8315 295.356 74.1952 295.432 73.737C295.534 73.0753 295.891 72.7953 296.374 72.6426C295.916 72.7698 295.382 72.948 294.974 73.2534C293.88 74.0679 293.905 75.0096 293.854 75.6459C293.829 76.155 293.854 76.7149 293.905 77.4021C293.956 78.0639 294.109 79.3619 294.084 79.9983C294.058 80.7618 293.931 81.6017 293.905 82.0599C293.88 82.518 294.058 83.078 294.694 83.1289C295.28 83.1798 296.222 83.1798 296.985 83.1289H297.011Z" fill="#D1C5A7"/>
<path d="M238.012 75.2133C238.623 75.4932 239.336 75.2133 239.616 74.6279C239.896 74.017 239.616 73.3044 239.03 73.0244C238.445 72.7444 237.707 73.0244 237.427 73.6098C237.147 74.2206 237.427 74.9333 238.012 75.2133Z" fill="white"/>
<path d="M239.005 72.9985C240.812 71.5223 242.11 68.9007 245.241 68.7989C246.997 68.748 248.448 69.1807 250.051 70.1733C249.109 70.4024 247.76 70.9624 246.666 71.5987C245.062 72.5404 243.764 73.8639 243.306 74.7547C242.161 74.1693 240.736 73.4821 239.845 74.1948C239.794 74.2202 239.768 74.2711 239.718 74.322C239.845 73.7876 239.565 73.2022 239.03 72.9731L239.005 72.9985Z" fill="#A71C1B"/>
<path d="M297.443 79.2354C293.753 79.9735 290.087 78.5991 289.349 78.1919C289.655 77.861 289.782 77.5301 289.935 77.1992C290.724 77.5301 293.625 78.6754 297.112 78.1155C297.24 78.4464 297.367 78.8791 297.443 79.2354Z" fill="#A71C1B"/>
<g style="mix-blend-mode:multiply">
<path d="M298.69 71.2683C298.69 71.2683 298.589 71.421 298.538 71.4974C298.487 71.4974 298.436 71.4974 298.385 71.5228C298.08 71.5737 297.85 71.5737 297.596 71.5737C296.96 71.5737 296.476 71.421 296.222 71.1665C296.171 71.1156 296.171 71.0647 296.222 71.0138C296.272 70.9629 296.323 70.9629 296.374 71.0138C296.603 71.2428 297.011 71.3446 297.596 71.3701C297.927 71.3701 298.207 71.3701 298.665 71.2683H298.69Z" fill="#9D9D9E"/>
</g>
<path d="M254.302 89.1621C255.243 89.0094 256.058 88.8312 256.465 88.7039C258.094 88.1949 259.189 87.4822 259.799 86.5405C259.901 86.3878 260.003 86.2351 260.079 86.0824C260.69 85.0897 261.199 84.6061 262.09 84.2498C262.243 84.1989 262.294 84.0207 262.243 83.8935C262.192 83.7408 262.014 83.6899 261.886 83.7408C260.767 84.1989 260.232 84.7843 259.621 85.8024C259.545 85.9296 259.443 86.0824 259.341 86.2605C258.807 87.1005 257.814 87.7368 256.312 88.1949C255.371 88.4749 251.935 89.0603 250.331 89.0857C248.651 89.0857 247.481 88.9585 246.208 88.7294C244.783 88.4749 243.052 88.4494 240.939 88.653C240.787 88.653 240.685 88.8057 240.685 88.9585C240.685 89.1112 240.838 89.213 240.99 89.213C243.052 89.0094 244.706 89.0348 246.106 89.2893C247.404 89.5184 248.6 89.6711 250.331 89.6457C251.324 89.6457 252.953 89.4166 254.302 89.1875V89.1621Z" fill="#5A4E43"/>
<path d="M289.553 85.7766C288.687 83.3332 288.407 79.8717 288.636 78.8027C288.509 78.8791 288.382 78.9555 288.255 79.0064C288 79.1336 287.669 79.2354 287.364 79.3118C287.287 79.6172 287.237 80.1262 287.237 80.7371C287.237 81.2461 287.287 81.857 287.364 82.4933C287.491 83.6132 287.746 84.8349 288.102 85.8784C288.611 85.8784 289.12 85.8784 289.578 85.7766H289.553Z" fill="#A71C1B"/>
<path d="M246.157 87.5579C244.935 87.4052 242.059 87.5579 240.685 87.736C240.15 87.8124 239.336 87.9651 238.75 88.1433C237.427 88.1687 235.874 87.0997 235.951 85.369C236.002 84.3255 235.951 82.9765 235.365 82.4929C234.042 81.4239 233.253 83.1037 230.988 83.1292C231.42 82.162 231.369 81.2203 231.089 80.3804C230.809 79.4895 230.758 78.5478 231.446 77.5806C232.031 78.8278 233.202 79.8459 234.602 79.7186C235.773 79.6168 236.536 78.7769 238.394 78.1151C239.692 77.657 241.932 77.7079 243.739 78.4205C243.434 77.9624 243.255 77.3261 243.739 76.6643L243.79 76.588C243.383 76.4607 243.052 76.0026 243.205 75.4935C243.459 74.6282 244.91 73.0756 246.717 72.0321C248.04 71.243 249.695 70.6067 250.611 70.5049C251.527 70.4031 252.011 70.5304 252.316 70.8613C252.647 71.1921 252.596 71.8539 251.986 71.9811C251.375 72.1084 250.688 72.3375 249.848 72.7193V72.8465C249.949 73.4574 249.593 74.2718 249.364 74.73C250.026 75.1372 250.586 75.519 250.866 75.9008C251.146 75.4681 251.629 75.1118 252.164 75.1627C252.571 74.7809 253.233 74.6791 253.589 74.73C253.869 74.7809 253.92 75.01 253.92 75.2899C253.436 75.5699 252.571 75.9262 252.011 75.8753C252.495 76.4098 253.538 76.588 254.2 76.3335C254.404 77.0461 254.2 77.6061 253.971 78.2424C255.091 78.7769 254.658 80.3549 255.447 81.0167C254.378 81.1694 253.487 81.1694 252.52 81.0167C252.316 80.9912 252.062 80.9403 251.833 80.9149C250.178 80.1767 247.506 79.6677 246.004 79.8713H245.953C247.862 82.0348 248.32 85.2926 247.913 87.2015C247.913 87.2015 247.684 87.227 247.557 87.2524C247.073 87.3288 246.539 87.4052 246.106 87.4561L246.157 87.5579Z" fill="white"/>
<g style="mix-blend-mode:multiply">
<path d="M251.756 73.4581C251.756 73.4581 251.807 73.4326 251.807 73.4072C251.807 73.3563 251.807 73.3054 251.756 73.2799C251.604 73.2036 251.4 73.2036 251.247 73.2799C251.095 73.3563 250.967 73.4835 250.917 73.6363C250.917 73.6872 250.917 73.7381 250.967 73.7635C251.018 73.7635 251.069 73.7635 251.095 73.7126C251.12 73.6108 251.222 73.5344 251.324 73.4835C251.451 73.4326 251.578 73.4326 251.68 73.4835C251.706 73.4835 251.731 73.4835 251.756 73.4835V73.4581Z" fill="#595757"/>
</g>
<path d="M309.864 66.229H312.664C312.944 66.229 313.224 66.1017 313.402 65.8727L315.005 63.582C315.412 62.9966 316.354 63.1238 316.558 63.811L317.398 66.4581C317.474 66.738 317.703 66.9416 317.983 67.0435L320.656 67.8579C321.343 68.0615 321.495 69.0033 320.91 69.4105L318.645 71.0394C318.416 71.2176 318.263 71.4721 318.289 71.7776L318.339 74.5773C318.339 75.3154 317.525 75.7226 316.94 75.29L314.7 73.6356C314.471 73.4574 314.165 73.4065 313.885 73.5083L311.238 74.4246C310.551 74.6536 309.889 74.0173 310.118 73.3047L311.009 70.6577C311.111 70.3777 311.06 70.0723 310.882 69.8432L309.202 67.6289C308.769 67.0435 309.202 66.2035 309.915 66.229H309.864Z" fill="#F7B744"/>
<path d="M313.096 80.6343H315.896C316.176 80.6343 316.456 80.507 316.634 80.2779L318.237 77.9872C318.645 77.4018 319.586 77.5291 319.79 78.2163L320.63 80.8633C320.706 81.1433 320.935 81.3469 321.215 81.4487L323.888 82.2632C324.575 82.4668 324.728 83.4085 324.142 83.8158L321.877 85.4447C321.648 85.6229 321.495 85.8774 321.521 86.1828L321.572 88.9826C321.572 89.7207 320.757 90.1279 320.172 89.6952L317.932 88.0408C317.703 87.8627 317.397 87.8118 317.117 87.9136L314.47 88.8299C313.783 89.0589 313.121 88.4226 313.351 87.71L314.241 85.0629C314.343 84.783 314.292 84.4775 314.114 84.2485L312.434 82.0341C312.002 81.4487 312.434 80.6088 313.147 80.6343H313.096Z" fill="#F7B744"/>
<path d="M308.031 95.1938H310.831C311.111 95.1938 311.391 95.0666 311.569 94.8375L313.172 92.5468C313.58 91.9614 314.521 92.0887 314.725 92.7759L315.565 95.4229C315.641 95.7029 315.87 95.9065 316.15 96.0083L318.823 96.8228C319.51 97.0264 319.663 97.9681 319.077 98.3753L316.812 100.004C316.583 100.182 316.43 100.437 316.456 100.742L316.507 103.542C316.507 104.28 315.692 104.687 315.107 104.255L312.867 102.6C312.638 102.422 312.333 102.371 312.053 102.473L309.406 103.389C308.718 103.618 308.057 102.982 308.286 102.27L309.176 99.6225C309.278 99.3425 309.227 99.0371 309.049 98.808L307.369 96.5937C306.937 96.0083 307.369 95.1684 308.082 95.1938H308.031Z" fill="#F7B744"/>
<path d="M226.737 105.095L223.988 105.579C223.708 105.63 223.454 105.808 223.352 106.088L222.181 108.633C221.876 109.295 220.934 109.32 220.603 108.684L219.305 106.215C219.178 105.961 218.923 105.782 218.618 105.757L215.844 105.426C215.131 105.35 214.8 104.459 215.309 103.95L217.243 101.939C217.447 101.735 217.523 101.43 217.472 101.15L216.912 98.4267C216.76 97.714 217.498 97.1286 218.16 97.4595L220.654 98.6812C220.908 98.8085 221.214 98.8085 221.468 98.6812L223.886 97.3068C224.523 96.9504 225.286 97.4849 225.184 98.1976L224.803 100.946C224.752 101.226 224.854 101.532 225.083 101.71L227.144 103.593C227.679 104.077 227.424 104.993 226.712 105.121L226.737 105.095Z" fill="#F7B744"/>
<path d="M220.985 90.6889L218.236 91.1725C217.956 91.2234 217.702 91.4016 217.6 91.6815L216.429 94.2267C216.124 94.8885 215.182 94.914 214.851 94.2777L213.553 91.8088C213.426 91.5543 213.171 91.3761 212.866 91.3506L210.091 91.0198C209.379 90.9434 209.048 90.0526 209.557 89.5435L211.491 87.5328C211.695 87.3292 211.771 87.0238 211.72 86.7438L211.16 84.0204C211.008 83.3078 211.746 82.7224 212.407 83.0532L214.902 84.2749C215.156 84.4022 215.462 84.4022 215.716 84.2749L218.134 82.9005C218.771 82.5442 219.534 83.0787 219.432 83.7914L219.051 86.5402C219 86.8202 219.101 87.1256 219.33 87.3038L221.392 89.1872C221.927 89.6708 221.672 90.5871 220.959 90.7143L220.985 90.6889Z" fill="#F7B744"/>
<path d="M223.377 75.0092L220.629 75.4928C220.349 75.5437 220.094 75.7219 219.992 76.0018L218.821 78.5471C218.516 79.2088 217.574 79.2343 217.243 78.598L215.945 76.1291C215.818 75.8746 215.564 75.6964 215.258 75.671L212.484 75.3401C211.771 75.2637 211.44 74.3729 211.949 73.8639L213.884 71.8531C214.087 71.6495 214.164 71.3441 214.113 71.0641L213.553 68.3407C213.4 67.6281 214.138 67.0427 214.8 67.3736L217.294 68.5953C217.549 68.7225 217.854 68.7225 218.109 68.5953L220.527 67.2208C221.163 66.8645 221.927 67.399 221.825 68.1117L221.443 70.8605C221.392 71.1405 221.494 71.4459 221.723 71.6241L223.785 73.5075C224.319 73.9911 224.065 74.9074 223.352 75.0347L223.377 75.0092Z" fill="#F7B744"/>
<path d="M-196.812 5.729C-145.73 -4.83365 -94.8511 13.1356 -45.4484 24.0546C-19.9199 29.7049 5.9904 33.0646 32.028 35.0499C45.4158 36.068 58.8546 36.9333 72.2933 36.9842C85.7321 37.0352 97.72 35.9662 110.37 34.4899C137.374 31.3593 165.754 27.0834 191.74 37.646C193.293 38.2823 193.955 35.7625 192.428 35.1517C169.571 25.8617 144.654 27.9233 120.703 30.6721C108.384 32.0974 96.0656 33.7009 83.6704 34.1845C69.9517 34.719 56.233 34.0318 42.5652 33.1664C15.6113 31.4357 -11.3171 28.5341 -37.7873 23.0365C-64.2576 17.5388 -88.3099 10.514 -113.864 5.49993C-141.429 0.12952 -169.757 -2.51751 -197.525 3.23468C-199.154 3.56556 -198.467 6.08533 -196.838 5.729H-196.812Z" fill="#A71C1B"/>
<path d="M-203.761 22.4257C-152.678 11.8631 -101.799 29.8323 -52.3969 40.7513C-26.8683 46.4017 -0.958023 49.7614 25.0795 51.7466C38.4674 52.7647 51.9061 53.6301 65.3448 53.681C78.7836 53.7319 90.7716 52.6629 103.421 51.1867C130.426 48.0561 158.805 43.7801 184.792 54.3427C186.344 54.979 187.006 52.4593 185.479 51.8484C162.623 42.5584 137.705 44.62 113.755 47.3689C101.436 48.7942 89.1172 50.3977 76.722 50.8813C63.0033 51.4157 49.2845 50.7285 35.6167 49.8632C8.66289 48.1324 -18.2655 45.2309 -44.7357 39.7332C-71.206 34.2355 -95.2583 27.2107 -120.812 22.1967C-148.402 16.8008 -176.731 14.1538 -204.499 19.906C-206.128 20.2368 -205.441 22.7566 -203.812 22.4003L-203.761 22.4257Z" fill="#A71C1B"/>
<path d="M-213.331 40.0136C-162.248 29.451 -111.37 47.4202 -61.9669 58.3392C-36.4384 63.9896 -10.5281 67.3492 15.5095 69.3345C28.8973 70.3526 42.3361 71.218 55.7748 71.2689C69.2136 71.3198 81.2015 70.2508 93.8513 68.7746C120.856 65.644 149.235 61.368 175.222 71.9306C176.774 72.5669 177.436 70.0472 175.909 69.4363C153.053 60.1463 128.135 62.2079 104.185 64.9567C91.866 66.3821 79.5471 67.9855 67.1519 68.4691C53.4332 69.0036 39.7145 68.3164 26.0467 67.4511C-0.907166 65.7203 -27.8356 62.8188 -54.3058 57.3211C-80.7761 51.8234 -104.828 44.7986 -130.382 39.7846C-157.972 34.3887 -186.301 31.7417 -214.069 37.4939C-215.698 37.8247 -215.011 40.3445 -213.382 39.9882L-213.331 40.0136Z" fill="#A71C1B"/>
<path d="M-212.745 63.4033C-161.663 52.8406 -110.784 70.8099 -61.3815 81.7288C-35.8529 87.3792 -9.94264 90.7389 16.0949 92.7242C29.4828 93.7423 42.9215 94.6076 56.3602 94.6585C69.799 94.7094 81.787 93.6404 94.4367 92.1642C121.441 89.0336 149.821 84.7576 175.807 95.3203C177.36 95.9566 178.022 93.4368 176.495 92.826C153.638 83.5359 128.721 85.5976 104.77 88.3464C92.4514 89.7717 80.1326 91.3752 67.7374 91.8588C54.0186 92.3933 40.2999 91.7061 26.6321 90.8407C-0.321732 89.11 -27.2501 86.2084 -53.7204 80.7107C-80.1906 75.2131 -104.243 68.1883 -129.797 63.1742C-157.387 57.7783 -185.715 55.1313 -213.484 60.8835C-215.113 61.2144 -214.425 63.7341 -212.796 63.3778L-212.745 63.4033Z" fill="#A71C1B"/>
<path d="M-208.546 81.9082C-157.464 71.3455 -106.585 89.3147 -57.182 100.234C-31.6535 105.884 -5.74316 109.244 20.2944 111.229C33.6822 112.247 47.121 113.113 60.5597 113.163C73.9985 113.214 85.9864 112.145 98.6362 110.669C125.641 107.538 154.02 103.263 180.007 113.825C181.559 114.461 182.221 111.942 180.694 111.331C157.838 102.041 132.92 104.102 108.97 106.851C96.6509 108.277 84.3321 109.88 71.9369 110.364C58.2181 110.898 44.4994 110.211 30.8316 109.346C3.87775 107.615 -23.0506 104.713 -49.5209 99.2156C-75.9911 93.718 -100.043 86.6932 -125.597 81.6791C-153.188 76.2832 -181.516 73.6362 -209.284 79.3884C-210.913 79.7193 -210.226 82.239 -208.597 81.8827L-208.546 81.9082Z" fill="#A71C1B"/>
</svg>
