<svg width="129" height="18" viewBox="0 0 129 18" fill="none" xmlns="http://www.w3.org/2000/svg">
<g id="Group">
<path id="Vector" d="M95.5043 0.155992C100.324 5.9593 105.126 11.7459 109.979 17.5659C109.679 18.0829 109.129 17.8494 108.712 17.8494C103.075 17.8828 97.4221 17.8494 91.7855 17.8994C90.8183 17.8994 90.2847 17.5492 89.6843 16.8155C85.1984 11.3624 80.6458 5.97597 76.1099 0.55622C75.9765 0.105964 76.2934 0.0392589 76.6102 0.0559351C82.9138 0.105964 89.2174 -0.127503 95.521 0.155992H95.5043Z" fill="#EDE9E0"/>
<path id="Vector_2" d="M76.3936 0.15648C79.1618 3.42501 81.9634 6.67686 84.715 9.96206C86.8328 12.4968 88.9007 15.065 91.0352 17.6664C90.585 18.0667 90.0847 17.8832 89.6511 17.8832C84.0646 17.8999 78.4948 17.8832 72.9082 17.9333C72.0411 17.9333 71.4741 17.7165 70.9071 17.0328C66.3545 11.5296 61.7686 6.07652 57.1826 0.606736C57.2493 0.123128 57.5995 0.073099 57.9831 0.073099C64.1199 0.123128 70.2567 -0.0603103 76.4102 0.139804L76.3936 0.15648Z" fill="#A71C1B"/>
<path id="Vector_3" d="M113.982 0.123156C116.533 2.5412 118.534 5.44285 120.819 8.07768C122.853 10.429 124.771 12.8971 126.739 15.3151C127.372 16.0822 127.973 16.8827 128.74 17.8332C122.386 17.8332 116.283 17.8332 110.179 17.8833C109.195 17.8833 108.762 17.2496 108.278 16.6826C104.56 12.2467 100.891 7.77751 97.1886 3.32498C96.4215 2.40779 95.6378 1.4906 94.8707 0.573412C94.8206 -0.0102537 95.2542 0.0397748 95.6044 0.0397748C101.725 0.0898033 107.861 -0.126987 113.998 0.123156H113.982Z" fill="#0B7B75"/>
<path id="Vector_4" d="M38.3385 0.223375C43.1579 6.02668 47.9607 11.8133 52.8134 17.6333C52.5133 18.1502 51.9629 17.9168 51.546 17.9168C45.9095 17.9501 40.2563 17.9168 34.6197 17.9668C33.6525 17.9668 33.1189 17.6166 32.5185 16.8829C28.0327 11.4298 23.4801 6.04335 18.9441 0.623603C18.8107 0.173346 19.1276 0.106642 19.4444 0.123318C25.748 0.173346 32.0516 -0.0601199 38.3552 0.223375H38.3385Z" fill="#EDE9E0"/>
<path id="Vector_5" d="M19.2276 0.222886C21.9959 3.49141 24.7974 6.74326 27.549 10.0285C29.6669 12.5632 31.7347 15.1314 33.8693 17.7329C33.419 18.1331 32.9187 17.9496 32.4852 17.9496C26.8986 17.9663 21.3288 17.9496 15.7423 17.9997C14.8751 17.9997 14.3081 17.7829 13.7412 17.0992C9.18856 11.596 4.58594 6.14292 0 0.673142C0.0667046 0.189534 0.416904 0.139505 0.800456 0.139505C6.93728 0.189534 13.0741 0.00609601 19.2276 0.20621V0.222886Z" fill="#A71C1B"/>
<path id="Vector_6" d="M56.7989 0.189562C59.3504 2.60761 61.3515 5.50926 63.6361 8.14409C65.6706 10.4954 67.5884 12.9635 69.5562 15.3815C70.1899 16.1486 70.7902 16.9491 71.5573 17.8996C65.2037 17.8996 59.1002 17.8996 52.9968 17.9497C52.0129 17.9497 51.5793 17.316 51.0957 16.749C47.3769 12.3131 43.7081 7.84392 40.006 3.39138C39.2389 2.4742 38.4551 1.55701 37.688 0.639818C37.638 0.0561526 38.0716 0.106181 38.4218 0.106181C44.5419 0.15621 50.6788 -0.0605806 56.8156 0.189562H56.7989Z" fill="#0B7B75"/>
</g>
</svg>
