<svg width="291" height="32" viewBox="0 0 291 32" fill="none" xmlns="http://www.w3.org/2000/svg">
<path d="M31.2365 25.3213L31.1826 15.4872L26.4989 23.3832H23.2866L18.6028 15.8282V25.3213H11.981V3.73291H17.9568L24.9914 15.236L31.8287 3.73291H37.8045L37.8763 25.3213H31.2544H31.2365Z" fill="#A71C1B"/>
<path d="M59.0157 18.5024H47.2973C47.7819 19.7945 48.9663 20.4764 50.689 20.4764C52.2323 20.4764 53.0937 20.0816 54.2063 19.2381L57.8493 22.899C56.2162 24.6936 53.8474 25.6088 50.4737 25.6088C44.2825 25.6088 40.2627 21.8761 40.2627 16.8514C40.2627 11.8267 44.3722 8.12988 49.8276 8.12988C54.8165 8.12988 59.1055 11.1447 59.1055 16.8514C59.1055 17.3359 59.0516 17.9999 59.0157 18.4844V18.5024ZM47.1717 15.1466H52.5913C52.3221 13.7289 51.2992 12.9034 49.8815 12.9034C48.4638 12.9034 47.4409 13.7289 47.1717 15.1466Z" fill="#A71C1B"/>
<path d="M79.9046 15.702V25.3208H72.9418V16.9044C72.9418 14.8048 72.1342 13.9972 70.8781 13.9972C69.4604 13.9972 68.258 14.8945 68.258 17.3889V25.3208H61.2952V8.45205H67.9171V10.121C69.245 8.79301 71.0396 8.14697 72.9956 8.14697C76.8898 8.14697 79.9046 10.3902 79.9046 15.702Z" fill="#A71C1B"/>
<path d="M81.8789 23.9578L83.7991 19.3638C85.3962 20.3149 87.6932 20.8712 89.6852 20.8712C91.3721 20.8712 91.8387 20.5661 91.8387 20.0636C91.8387 18.3409 82.1301 20.6558 82.1301 13.8904C82.1301 10.714 85.0912 8.12988 90.7619 8.12988C93.2205 8.12988 95.8405 8.59647 97.6351 9.51169L95.7149 14.1057C93.9921 13.1546 92.2693 12.8675 90.8517 12.8675C89.0571 12.8675 88.5726 13.2623 88.5726 13.675C88.5726 15.4337 98.2631 13.1546 98.2631 19.9021C98.2631 22.9529 95.3919 25.6088 89.5416 25.6088C86.6345 25.6088 83.6196 24.9269 81.8968 23.9399L81.8789 23.9578Z" fill="#A71C1B"/>
<path d="M117.033 16.2404V25.3029H110.555V23.0776C109.747 24.7645 108.15 25.6079 105.782 25.6079C101.654 25.6079 99.5186 23.2571 99.5186 20.3679C99.5186 17.1018 101.977 15.2893 107.217 15.2893H110.017C109.801 13.9972 108.814 13.3153 106.84 13.3153C105.333 13.3153 103.628 13.7998 102.515 14.6432L100.29 10.0492C102.264 8.81096 105.261 8.14697 107.881 8.14697C113.678 8.14697 117.015 10.6414 117.015 16.2583L117.033 16.2404ZM110.071 19.8115V18.6451H108.348C106.876 18.6451 106.23 19.1476 106.23 20.0628C106.23 20.8344 106.84 21.4266 107.899 21.4266C108.85 21.4266 109.712 20.9421 110.088 19.8295L110.071 19.8115Z" fill="#A71C1B"/>
<path d="M115.599 30.7765L117.268 25.9312C117.734 26.1825 118.29 26.326 118.847 26.326C119.672 26.326 120.3 25.7338 120.3 24.3879V8.45233H127.263V24.4597C127.263 28.8025 124.553 31.62 119.888 31.62C118.255 31.62 116.675 31.3508 115.599 30.7945V30.7765ZM119.583 3.55321C119.583 1.54331 121.216 0 123.782 0C126.348 0 127.981 1.41769 127.981 3.42759C127.981 5.5631 126.348 7.08847 123.782 7.08847C121.216 7.08847 119.583 5.54516 119.583 3.53526V3.55321Z" fill="#A71C1B"/>
<path d="M148.188 18.5024H136.469C136.954 19.7945 138.138 20.4764 139.861 20.4764C141.404 20.4764 142.266 20.0816 143.378 19.2381L147.021 22.899C145.388 24.6936 143.019 25.6088 139.646 25.6088C133.454 25.6088 129.435 21.8761 129.435 16.8514C129.435 11.8267 133.544 8.12988 139 8.12988C143.988 8.12988 148.277 11.1447 148.277 16.8514C148.277 17.3359 148.224 17.9999 148.188 18.4844V18.5024ZM136.344 15.1466H141.763C141.494 13.7289 140.471 12.9034 139.053 12.9034C137.636 12.9034 136.613 13.7289 136.344 15.1466Z" fill="#A71C1B"/>
<path d="M179.197 25.3213L179.144 15.4872L174.46 23.3832H171.248L166.564 15.8282V25.3213H159.942V3.73291H165.918L172.952 15.236L179.79 3.73291H185.765L185.837 25.3213H179.215H179.197Z" fill="#A71C1B"/>
<path d="M205.81 16.2406V25.303H199.332V23.0778C198.524 24.7647 196.927 25.6081 194.558 25.6081C190.431 25.6081 188.295 23.2573 188.295 20.368C188.295 17.102 190.754 15.2895 195.994 15.2895H198.794C198.578 13.9974 197.591 13.3155 195.617 13.3155C194.11 13.3155 192.405 13.8 191.292 14.6434L189.067 10.0494C191.041 8.81113 194.038 8.14715 196.658 8.14715C202.454 8.14715 205.792 10.6416 205.792 16.2585L205.81 16.2406ZM198.865 6.58589H194.235L198.309 1.65088H204.931L198.865 6.58589ZM198.829 19.8117V18.6453H197.107C195.635 18.6453 194.971 19.1477 194.971 20.063C194.971 20.8346 195.581 21.4268 196.64 21.4268C197.591 21.4268 198.453 20.9423 198.829 19.8297V19.8117Z" fill="#A71C1B"/>
<path d="M227.973 8.45205V21.965C227.973 28.4972 224.151 31.6197 217.708 31.6197C214.37 31.6197 211.356 30.9019 209.256 29.5201L211.607 24.7645C212.935 25.7874 215.178 26.4334 217.008 26.4334C219.88 26.4334 221.01 25.1773 221.01 22.9161V22.611C219.969 23.8134 218.426 24.4056 216.362 24.4056C212.073 24.4056 208.251 21.2651 208.251 16.2583C208.251 11.2515 212.073 8.14697 216.362 8.14697C218.677 8.14697 220.31 8.86479 221.351 10.3722V8.45205H227.973ZM221.064 16.2583C221.064 14.6253 219.826 13.5845 218.193 13.5845C216.56 13.5845 215.286 14.6253 215.286 16.2583C215.286 17.8914 216.56 18.9681 218.193 18.9681C219.826 18.9681 221.064 17.8914 221.064 16.2583Z" fill="#A71C1B"/>
<path d="M230.342 3.55321C230.342 1.54331 231.975 0 234.541 0C237.107 0 238.741 1.41769 238.741 3.42759C238.741 5.5631 237.107 7.08847 234.541 7.08847C231.975 7.08847 230.342 5.54516 230.342 3.53526V3.55321ZM231.06 8.45233H238.023V25.3211H231.06V8.45233Z" fill="#A71C1B"/>
<path d="M240.212 16.8685C240.212 11.754 244.34 8.14697 250.172 8.14697C254.281 8.14697 257.35 10.0313 258.463 13.1358L253.061 15.7918C252.343 14.2126 251.338 13.5665 250.136 13.5665C248.557 13.5665 247.265 14.6791 247.265 16.8685C247.265 19.0578 248.557 20.2063 250.136 20.2063C251.338 20.2063 252.361 19.5603 253.061 17.9811L258.463 20.637C257.35 23.7596 254.263 25.6259 250.172 25.6259C244.34 25.6259 240.212 22.0188 240.212 16.8685Z" fill="#A71C1B"/>
<path d="M259 16.8685C259 11.754 263.11 8.14697 268.799 8.14697C274.487 8.14697 278.597 11.754 278.597 16.8685C278.597 21.983 274.523 25.6259 268.799 25.6259C263.074 25.6259 259 21.983 259 16.8685ZM271.544 16.8685C271.544 14.6791 270.342 13.5665 268.799 13.5665C267.255 13.5665 266.053 14.6791 266.053 16.8685C266.053 19.0578 267.255 20.2063 268.799 20.2063C270.342 20.2063 271.544 19.0578 271.544 16.8685Z" fill="#A71C1B"/>
<path d="M11.2086 28.4966L2.89983 29.8425L2.11023 16.2937L7.65539 15.3964L11.2086 28.4966ZM8.15787 10.3178C8.49883 12.3816 7.08114 14.212 4.67644 14.6068C2.27174 15.0016 0.369519 13.7095 0.0464997 11.6458C-0.276519 9.61796 1.10528 7.67985 3.50998 7.28505C5.91468 6.89025 7.83485 8.28999 8.17581 10.3178H8.15787Z" fill="#F7B744"/>
<path d="M282.042 4.10986L290.387 5.25838L287.157 18.4483L281.594 17.6946L282.042 4.12781V4.10986ZM279.638 22.3784C279.925 20.3146 281.809 18.9687 284.214 19.2918C286.619 19.6148 288.072 21.4273 287.785 23.491C287.498 25.5368 285.614 26.9724 283.191 26.6315C280.768 26.2905 279.333 24.4062 279.62 22.3604L279.638 22.3784Z" fill="#F7B744"/>
</svg>
