<svg width="247" height="33" viewBox="0 0 247 33" fill="none" xmlns="http://www.w3.org/2000/svg">
<path d="M25.3665 26H20.5025L20.4705 12.56L13.8785 23.632H11.5425L4.9825 12.848V26H0.118502V3.6H4.4065L12.7905 17.52L21.0465 3.6H25.3025L25.3665 26ZM45.593 17.456C45.593 17.84 45.529 18.384 45.497 18.8H32.473C32.953 20.944 34.777 22.256 37.401 22.256C39.225 22.256 40.537 21.712 41.721 20.592L44.377 23.472C42.777 25.296 40.377 26.256 37.273 26.256C31.321 26.256 27.449 22.512 27.449 17.392C27.449 12.24 31.385 8.528 36.633 8.528C41.689 8.528 45.593 11.92 45.593 17.456ZM36.665 12.304C34.393 12.304 32.761 13.68 32.409 15.888H40.889C40.537 13.712 38.905 12.304 36.665 12.304ZM57.7805 8.528C61.8445 8.528 64.9165 10.896 64.9165 16.144V26H59.9245V16.912C59.9245 14.128 58.6445 12.848 56.4365 12.848C54.0365 12.848 52.3085 14.32 52.3085 17.488V26H47.3165V8.784H52.0845V10.8C53.4285 9.328 55.4445 8.528 57.7805 8.528ZM73.6335 26.256C70.7215 26.256 67.7775 25.456 66.1775 24.4L67.8415 20.816C69.3775 21.808 71.7135 22.48 73.8255 22.48C76.1295 22.48 76.9935 21.872 76.9935 20.912C76.9935 18.096 66.5935 20.976 66.5935 14.096C66.5935 10.832 69.5375 8.528 74.5615 8.528C76.9295 8.528 79.5535 9.072 81.1855 10.032L79.5215 13.584C77.8255 12.624 76.1295 12.304 74.5615 12.304C72.3215 12.304 71.3615 13.008 71.3615 13.904C71.3615 16.848 81.7615 14 81.7615 20.784C81.7615 23.984 78.7855 26.256 73.6335 26.256ZM90.1855 8.528C95.4335 8.528 98.4735 10.96 98.4735 16.176V26H93.8015V23.856C92.8735 25.424 91.0815 26.256 88.5535 26.256C84.5215 26.256 82.1215 24.016 82.1215 21.04C82.1215 18 84.2655 15.888 89.5135 15.888H93.4815C93.4815 13.744 92.2015 12.496 89.5135 12.496C87.6895 12.496 85.8015 13.104 84.5535 14.096L82.7615 10.608C84.6495 9.264 87.4335 8.528 90.1855 8.528ZM89.8015 22.896C91.4655 22.896 92.9055 22.128 93.4815 20.56V18.8H90.0575C87.7215 18.8 86.9855 19.664 86.9855 20.816C86.9855 22.064 88.0415 22.896 89.8015 22.896ZM104.112 6.384C102.256 6.384 101.008 5.168 101.008 3.6C101.008 2.032 102.256 0.815998 104.112 0.815998C105.968 0.815998 107.216 1.968 107.216 3.504C107.216 5.168 105.968 6.384 104.112 6.384ZM100.112 32.464C98.5755 32.464 97.0715 32.176 96.1115 31.504L97.4555 27.888C97.9995 28.272 98.7355 28.496 99.5675 28.496C100.816 28.496 101.616 27.696 101.616 26V8.784H106.608V25.968C106.608 29.936 104.272 32.464 100.112 32.464ZM126.468 17.456C126.468 17.84 126.404 18.384 126.372 18.8H113.348C113.828 20.944 115.652 22.256 118.276 22.256C120.1 22.256 121.412 21.712 122.596 20.592L125.252 23.472C123.652 25.296 121.252 26.256 118.148 26.256C112.196 26.256 108.324 22.512 108.324 17.392C108.324 12.24 112.26 8.528 117.508 8.528C122.564 8.528 126.468 11.92 126.468 17.456ZM117.54 12.304C115.268 12.304 113.636 13.68 113.284 15.888H121.764C121.412 13.712 119.78 12.304 117.54 12.304ZM161.254 26H156.39L156.358 12.56L149.766 23.632H147.43L140.87 12.848V26H136.006V3.6H140.294L148.678 17.52L156.934 3.6H161.19L161.254 26ZM178.857 1.968L173.065 6.576H169.161L173.481 1.968H178.857ZM171.561 8.528C176.809 8.528 179.849 10.96 179.849 16.176V26H175.177V23.856C174.249 25.424 172.457 26.256 169.929 26.256C165.897 26.256 163.497 24.016 163.497 21.04C163.497 18 165.641 15.888 170.889 15.888H174.857C174.857 13.744 173.577 12.496 170.889 12.496C169.065 12.496 167.177 13.104 165.929 14.096L164.137 10.608C166.025 9.264 168.809 8.528 171.561 8.528ZM171.177 22.896C172.841 22.896 174.281 22.128 174.857 20.56V18.8H171.433C169.097 18.8 168.361 19.664 168.361 20.816C168.361 22.064 169.417 22.896 171.177 22.896ZM195.978 8.784H200.714V23.12C200.714 29.52 197.258 32.464 191.05 32.464C187.786 32.464 184.618 31.664 182.602 30.096L184.586 26.512C186.058 27.696 188.458 28.464 190.666 28.464C194.186 28.464 195.722 26.864 195.722 23.76V23.024C194.41 24.464 192.522 25.168 190.282 25.168C185.514 25.168 181.674 21.872 181.674 16.848C181.674 11.824 185.514 8.528 190.282 8.528C192.682 8.528 194.666 9.328 195.978 10.992V8.784ZM191.274 21.072C193.898 21.072 195.786 19.376 195.786 16.848C195.786 14.32 193.898 12.624 191.274 12.624C188.65 12.624 186.73 14.32 186.73 16.848C186.73 19.376 188.65 21.072 191.274 21.072ZM206.256 6.384C204.4 6.384 203.152 5.168 203.152 3.6C203.152 2.032 204.4 0.815998 206.256 0.815998C208.112 0.815998 209.36 1.968 209.36 3.504C209.36 5.168 208.112 6.384 206.256 6.384ZM203.76 26V8.784H208.752V26H203.76ZM220.105 26.256C214.505 26.256 210.505 22.576 210.505 17.392C210.505 12.208 214.505 8.528 220.105 8.528C223.721 8.528 226.569 10.096 227.817 12.912L223.945 14.992C223.017 13.36 221.641 12.624 220.073 12.624C217.545 12.624 215.561 14.384 215.561 17.392C215.561 20.4 217.545 22.16 220.073 22.16C221.641 22.16 223.017 21.456 223.945 19.792L227.817 21.904C226.569 24.656 223.721 26.256 220.105 26.256ZM237.065 26.256C231.593 26.256 227.593 22.576 227.593 17.392C227.593 12.208 231.593 8.528 237.065 8.528C242.537 8.528 246.505 12.208 246.505 17.392C246.505 22.576 242.537 26.256 237.065 26.256ZM237.065 22.16C239.561 22.16 241.449 20.368 241.449 17.392C241.449 14.416 239.561 12.624 237.065 12.624C234.569 12.624 232.649 14.416 232.649 17.392C232.649 20.368 234.569 22.16 237.065 22.16Z" fill="#A71C1B"/>
</svg>
