<svg width="275" height="150" viewBox="0 0 275 150" fill="none" xmlns="http://www.w3.org/2000/svg">
<path d="M274.046 81.2566C274.211 119.564 242.446 150.603 204.155 149.991C167.318 149.413 135.916 118.886 136.56 79.9351C137.171 43.1147 167.764 11.8942 206.484 12.5054C243.205 13.0836 274.129 43.1643 274.029 81.2566H274.046Z" fill="#B4131A"/>
<path d="M203.048 147.414C201.314 147.414 199.58 147.266 197.862 147.084C194.905 146.77 191.981 146.241 189.09 145.515C184.746 144.424 180.55 142.905 176.503 140.955C170.49 138.048 165.022 134.331 160.133 129.789C154.516 124.585 149.941 118.589 146.389 111.8C143.548 106.365 141.516 100.633 140.261 94.6201C139.534 91.1016 139.121 87.5501 138.956 83.949C138.79 80.1496 138.956 76.3668 139.418 72.6006C139.963 68.2396 140.954 63.9777 142.358 59.7985C144.341 53.9178 147.099 48.417 150.651 43.3292C156.201 35.3341 163.172 28.8588 171.547 23.8866C176.437 20.9793 181.624 18.7493 187.091 17.18C190.759 16.1228 194.492 15.396 198.291 15.016C200.984 14.7352 203.676 14.57 206.385 14.6361C211.225 14.7352 216.016 15.3134 220.724 16.4532C225.068 17.4938 229.264 18.9475 233.311 20.8472C239.704 23.8371 245.485 27.7355 250.656 32.559C256.388 37.8946 261.029 44.0561 264.581 51.027C266.382 54.5455 267.819 58.1962 268.958 61.9955C270.511 67.1328 271.403 72.3858 271.668 77.7379C271.849 81.6198 271.734 85.4852 271.238 89.3506C270.676 93.7281 269.718 98.023 268.314 102.202C266.497 107.604 264.019 112.708 260.897 117.466C258.386 121.298 255.496 124.85 252.241 128.087C247.451 132.861 242.066 136.826 236.07 139.964C231.494 142.359 226.687 144.21 221.682 145.481C217.635 146.506 213.521 147.15 209.342 147.365C208.764 147.398 208.186 147.464 207.608 147.414C206.071 147.348 204.552 147.348 203.015 147.414H203.048Z" fill="#ECE8DF"/>
<path d="M269.553 80.7938C269.668 116.012 240.728 145.63 204.155 145.019C169.565 144.441 141.086 116.227 141.053 80.7112C141.02 45.2453 170.308 15.6271 207.013 16.5191C241.025 17.3451 269.619 45.361 269.553 80.7773V80.7938Z" fill="#B4131A"/>
<path d="M205.311 141.303C172.092 141.352 144.374 114.129 144.803 79.9352C145.216 47.2776 172.009 19.7903 206.286 20.2694C239.191 20.7319 266.117 47.7236 265.836 81.3559C265.555 114.261 238.745 141.286 205.328 141.303H205.311Z" fill="#ECE8DF"/>
<path d="M205.179 124.85C228.552 124.85 247.5 105.606 247.5 81.8681C247.5 58.1299 228.552 38.8862 205.179 38.8862C181.806 38.8862 162.858 58.1299 162.858 81.8681C162.858 105.606 181.806 124.85 205.179 124.85Z" fill="#A71C1B"/>
<path d="M224.044 34.2273C225.762 32.9884 227.48 31.8321 229.082 30.5767C229.858 29.9655 230.503 29.7838 231.378 30.3289C231.841 30.6262 232.386 30.8079 232.914 31.0062C233.179 31.1053 233.278 31.2044 233.146 31.5183C231.609 35.0368 230.09 38.5553 228.586 42.0903C228.487 42.3381 228.405 42.3876 228.14 42.272C227.232 41.859 226.307 41.4461 225.382 41.0661C225.068 40.934 225.018 40.8183 225.15 40.5045C225.795 39.0673 226.406 37.5972 227.017 36.16C227.05 36.0774 227.116 36.0114 227.05 35.8792C226.026 36.6226 224.952 37.2998 223.978 38.1093C223.251 38.7204 222.64 38.8196 221.814 38.3405C221.45 38.1258 221.252 37.9441 221.202 37.5311C221.037 36.2426 220.839 34.9707 220.657 33.6987C220.641 33.5666 220.657 33.4179 220.509 33.2858C220.178 34.0291 219.864 34.7394 219.551 35.4662C219.22 36.2096 218.89 36.9529 218.576 37.7128C218.46 37.9771 218.361 38.0432 218.08 37.911C217.155 37.4815 216.214 37.0851 215.272 36.6886C215.008 36.5895 214.991 36.4739 215.107 36.2261C216.66 32.6911 218.196 29.1561 219.716 25.621C219.831 25.3567 219.947 25.3733 220.178 25.4724C221.004 25.8358 221.83 26.1992 222.656 26.5461C222.887 26.6452 222.987 26.7774 223.02 27.0251C223.317 29.2717 223.631 31.5017 223.945 33.7483C223.961 33.8804 223.994 34.0126 224.044 34.2273Z" fill="#B41319"/>
<path d="M168.524 53.5375C168.491 55.0903 167.946 56.3292 167.186 57.502C166.277 58.9061 165.187 60.1285 163.767 61.037C163.469 61.2353 163.321 61.1857 163.139 60.8884C162.693 60.1781 162.214 59.5008 161.735 58.8235C161.553 58.5757 161.603 58.4766 161.85 58.328C163.106 57.5681 164.163 56.5935 164.84 55.272C165.039 54.8755 165.402 54.413 164.906 54.0331C164.444 53.6697 164.081 54.1157 163.767 54.413C163.189 54.9581 162.627 55.5363 162.049 56.0979C161.801 56.3292 161.553 56.5604 161.289 56.7752C160.099 57.7002 158.844 58.0802 157.423 57.3038C156.052 56.5439 155.259 55.1068 155.474 53.554C155.871 50.6963 157.473 48.5984 159.769 46.9795C159.984 46.8309 160.099 46.8474 160.248 47.0787C160.727 47.789 161.223 48.4828 161.735 49.16C161.933 49.4078 161.85 49.5234 161.619 49.6721C160.661 50.2833 159.852 51.0432 159.274 52.0343C159.108 52.3151 158.96 52.5959 158.91 52.9263C158.877 53.1906 158.91 53.4384 159.158 53.6036C159.406 53.7688 159.653 53.7027 159.868 53.521C160.215 53.2236 160.545 52.9098 160.876 52.5794C161.454 52.0013 161.999 51.3901 162.627 50.878C163.734 49.9694 164.939 49.5069 166.344 50.1677C167.814 50.8615 168.491 52.0673 168.524 53.5705V53.5375Z" fill="#B41319"/>
<path d="M178.006 34.9378C178.7 33.3024 179.906 32.4435 181.541 32.1626C182.582 31.9809 183.49 32.2948 184.283 32.9721C184.828 33.4511 185.225 34.0458 185.555 34.6735C186.331 36.1106 187.075 37.5643 187.868 38.9849C188.033 39.2822 188.049 39.4309 187.703 39.5961C186.777 40.0586 185.869 40.5542 184.96 41.0497C184.68 41.2149 184.547 41.1819 184.399 40.8846C183.755 39.6456 183.094 38.4233 182.433 37.2009C182.317 36.9696 182.185 36.7549 182.037 36.5566C181.624 36.028 181.178 35.8794 180.666 36.0941C180.071 36.3419 179.707 36.9531 179.79 37.5643C179.856 37.9607 180.005 38.3076 180.203 38.6545C180.831 39.8274 181.442 41.0002 182.086 42.1565C182.235 42.4373 182.202 42.553 181.921 42.7016C180.963 43.1807 180.021 43.6928 179.096 44.2048C178.848 44.3535 178.733 44.3039 178.601 44.0396C177.23 41.4462 175.842 38.8527 174.454 36.2593C174.289 35.962 174.388 35.8628 174.636 35.7307C175.462 35.3012 176.305 34.8882 177.114 34.4092C177.51 34.1779 177.709 34.211 177.857 34.6405C177.874 34.723 177.94 34.7891 178.039 34.9378H178.006Z" fill="#B41319"/>
<path d="M183.127 125.858C184.184 125.808 185.125 126.155 185.951 126.816C187.141 127.774 187.521 129.145 186.959 130.566C186.81 130.962 186.596 131.342 186.381 131.689C185.588 132.961 184.762 134.2 183.953 135.472C183.787 135.736 183.672 135.819 183.374 135.62C182.615 135.108 181.855 134.596 181.062 134.134C180.731 133.935 180.764 133.787 180.946 133.506C181.623 132.498 182.268 131.474 182.912 130.467C183.044 130.268 183.16 130.07 183.275 129.855C183.54 129.277 183.473 128.848 183.077 128.517C182.615 128.154 182.036 128.121 181.557 128.451C181.26 128.649 181.045 128.947 180.847 129.244C180.186 130.252 179.542 131.276 178.898 132.284C178.749 132.515 178.65 132.581 178.402 132.399C177.609 131.871 176.816 131.359 176.007 130.846C175.759 130.698 175.726 130.582 175.891 130.334C177.89 127.245 179.872 124.173 181.855 121.067C182.003 120.82 182.119 120.786 182.367 120.952C183.143 121.464 183.936 121.976 184.729 122.471C185.01 122.637 185.043 122.769 184.861 123.05C184.349 123.809 183.853 124.586 183.358 125.362C183.275 125.494 183.127 125.61 183.143 125.841L183.127 125.858Z" fill="#B41319"/>
<path d="M203.247 35.6478C202.008 37.2667 199.48 37.5475 197.944 36.3416C196.606 35.2844 196.342 32.5753 198.638 31.6833C199.778 31.2373 200.967 31.2373 202.156 31.1712C202.355 31.1712 202.635 31.2703 202.701 31.0721C202.784 30.8078 202.553 30.5931 202.355 30.4444C201.694 29.9819 200.967 30.0645 200.24 30.1801C199.728 30.2627 199.249 30.4279 198.82 30.7252C198.605 30.8739 198.489 30.8739 198.357 30.6096C198.027 29.9323 197.68 29.2881 197.316 28.6273C197.201 28.4126 197.234 28.297 197.448 28.1978C199.629 27.0911 201.909 26.7607 204.254 27.5536C205.79 28.0822 206.55 29.2881 206.682 30.8409C206.831 32.6744 206.831 34.508 206.914 36.3416C206.914 36.6224 206.798 36.672 206.567 36.672C205.642 36.6885 204.733 36.705 203.808 36.7711C203.379 36.8041 203.164 36.705 203.23 36.226C203.247 36.0608 203.23 35.8791 203.23 35.6148L203.247 35.6478Z" fill="#B41319"/>
<path d="M174.223 47.0454C174.603 49.2755 171.58 51.3899 169.895 50.9108C168.128 50.4153 167.236 48.6643 168.045 47.0124C168.392 46.3021 168.92 45.7239 169.466 45.1623C169.895 44.7328 170.292 44.2703 170.721 43.8243C170.242 43.4939 169.746 43.593 169.251 43.9069C168.458 44.4355 167.929 45.1788 167.615 46.0543C167.566 46.203 167.516 46.3351 167.467 46.5168C166.657 46.203 165.864 45.8891 165.072 45.6083C164.873 45.5257 164.791 45.4266 164.873 45.2284C165.864 42.7836 167.434 40.9005 170.011 40.0745C171.266 39.6781 172.422 40.0745 173.381 40.917C174.851 42.222 176.09 43.7417 177.461 45.1293C177.659 45.3275 177.494 45.4101 177.378 45.5257C176.651 46.203 175.924 46.8637 175.231 47.5575C174.999 47.7888 174.867 47.7723 174.686 47.5245C174.553 47.3593 174.405 47.2106 174.256 47.0454H174.223Z" fill="#B41319"/>
<path d="M235.276 46.3684C233.03 47.1118 230.387 44.1879 231.031 42.1727C231.543 40.5208 233.063 39.7114 234.682 40.3225C235.788 40.752 236.631 41.5449 237.506 42.2883C237.672 42.437 237.853 42.7838 238.085 42.6187C238.316 42.4535 238.266 42.0901 238.184 41.8092C238.101 41.4954 237.903 41.2311 237.672 40.9998C237.044 40.3556 236.3 39.9426 235.425 39.7609C235.161 39.7114 235.078 39.6453 235.161 39.3645C235.375 38.6707 235.557 37.9604 235.739 37.2501C235.805 36.9692 235.954 36.9032 236.218 36.9858C238.464 37.6795 240.298 38.935 241.471 40.9998C242.231 42.3378 242.099 43.6759 241.273 44.9478C240.794 45.6912 240.166 46.3189 239.588 46.9796C238.894 47.7725 238.184 48.5489 237.506 49.3583C237.292 49.6061 237.176 49.5896 236.961 49.3914C236.267 48.7471 235.541 48.1194 234.814 47.5082C234.583 47.31 234.483 47.1613 234.764 46.9301C234.929 46.7814 235.045 46.5997 235.276 46.3519V46.3684Z" fill="#B41319"/>
<path d="M178.749 121.215C178.749 122.949 178.749 122.966 177.51 122.735C176.982 122.635 176.437 122.536 175.891 122.487C175.578 122.454 175.495 122.322 175.545 122.024C175.677 121.017 175.445 120.125 174.686 119.414C173.909 118.687 173.017 118.522 172.043 118.919C171.431 119.166 170.936 119.579 170.539 120.108C169.4 121.677 170.407 123.874 172.406 124.205C172.946 124.293 173.204 124.618 173.182 125.179C173.149 125.791 173.116 126.402 173.1 127.013C173.1 127.343 173.017 127.475 172.67 127.442C172.01 127.376 171.349 127.294 170.754 126.98C168.375 125.774 166.872 123.874 166.69 121.165C166.542 118.853 167.665 117.135 169.614 115.995C171.497 114.872 173.463 114.921 175.33 116.061C177.411 117.333 178.634 119.2 178.766 121.215H178.749Z" fill="#B41319"/>
<path d="M231.031 118.655C230.783 121.199 230.535 123.627 230.288 126.155C230.717 125.923 231.081 125.725 231.444 125.544C231.642 125.444 231.543 125.329 231.494 125.213C231.328 124.899 231.163 124.569 230.981 124.272C230.849 124.057 230.833 123.941 231.097 123.809C231.94 123.38 232.782 122.934 233.624 122.471C233.856 122.339 233.988 122.339 234.07 122.603C234.07 122.636 234.104 122.669 234.12 122.686C234.318 123.033 234.45 123.561 234.748 123.693C234.979 123.793 235.425 123.429 235.772 123.231C235.97 123.132 236.053 123.148 236.152 123.347C236.499 124.04 236.879 124.734 237.259 125.411C237.374 125.61 237.325 125.709 237.126 125.791C236.895 125.907 236.68 126.056 236.449 126.138C236.086 126.27 236.086 126.452 236.284 126.749C236.4 126.915 236.482 127.113 236.581 127.295C236.846 127.79 236.735 128.165 236.251 128.418C235.524 128.798 234.797 129.178 234.087 129.574C233.823 129.723 233.691 129.69 233.591 129.409C233.542 129.277 233.459 129.161 233.393 129.046C232.865 128.038 232.865 128.054 231.873 128.566C230.635 129.227 229.379 129.888 228.14 130.565C227.876 130.714 227.711 130.73 227.612 130.417C227.595 130.35 227.562 130.284 227.513 130.235C226.67 129.161 226.687 127.955 226.885 126.667C227.182 124.767 227.364 122.851 227.562 120.951C227.595 120.588 227.727 120.373 228.041 120.208C229.016 119.712 229.957 119.2 231.014 118.639L231.031 118.655Z" fill="#B41319"/>
<path d="M243.701 108.776C243.701 108.776 243.734 108.726 243.751 108.693C243.916 108.561 244.097 108.446 244.263 108.33C244.411 108.247 244.577 108.181 244.725 108.099C246.691 107.372 248.178 108.132 249.466 109.585C250.292 110.51 251.151 111.402 252.027 112.278C252.291 112.542 252.324 112.691 252.027 112.955C251.432 113.484 250.837 114.029 250.292 114.607C250.011 114.904 249.83 114.888 249.598 114.574C249.516 114.458 249.433 114.31 249.235 114.277C249.417 115.78 248.541 116.655 247.418 117.366C246.212 118.109 244.923 117.911 244.031 116.936C243.189 116.011 243.189 114.822 244.031 113.666C244.56 112.906 245.254 112.294 245.915 111.667C245.997 111.584 246.146 111.518 246.113 111.402C246.08 111.254 245.915 111.237 245.782 111.204C245.402 111.089 245.072 111.204 244.775 111.436C244.064 111.931 243.552 112.575 243.305 113.401C243.205 113.715 243.106 113.814 242.776 113.666C242.264 113.434 241.735 113.236 241.19 113.087C240.761 112.972 240.728 112.757 240.876 112.394C241.504 110.94 242.446 109.751 243.718 108.809L243.701 108.776Z" fill="#B41319"/>
<path d="M194.839 34.5411C195.334 35.2845 195.813 36.0278 196.309 36.7546C196.441 36.9363 196.358 37.0354 196.21 37.118C194.657 38.1257 192.988 38.6047 191.188 37.9605C190.197 37.6136 189.635 36.7711 189.338 35.78C189.09 34.9706 188.875 34.1447 188.66 33.3187C188.594 33.0544 188.545 32.9553 188.231 33.0379C187.306 33.2857 187.306 33.2692 187.058 32.3441C186.926 31.8485 186.827 31.353 186.662 30.8739C186.563 30.5601 186.662 30.4775 186.959 30.4114C187.835 30.1967 187.835 30.1801 187.603 29.2881C187.488 28.8256 187.372 28.3631 187.24 27.9171C187.157 27.6693 187.24 27.5867 187.471 27.5206C188.545 27.2398 189.602 26.9755 190.676 26.6782C190.94 26.6121 191.039 26.7112 191.089 26.959C191.221 27.5371 191.403 28.0988 191.518 28.6935C191.601 29.0899 191.733 29.2551 192.162 29.0734C192.493 28.9412 192.856 28.9082 193.187 28.7926C193.451 28.71 193.583 28.71 193.649 29.0238C193.814 29.7341 193.996 30.4444 194.194 31.1382C194.26 31.4025 194.227 31.5016 193.946 31.5677C193.55 31.6503 193.154 31.7825 192.757 31.8651C192.476 31.9311 192.361 31.9972 192.46 32.3441C192.642 32.9223 192.774 33.5335 192.922 34.1116C193.187 35.0697 193.765 35.2845 194.591 34.7063C194.657 34.6567 194.723 34.6072 194.822 34.5246L194.839 34.5411Z" fill="#B41319"/>
<path d="M194.871 130.119C196.061 130.268 197.151 130.4 198.241 130.516C198.555 130.549 198.572 130.763 198.621 130.978C198.935 132.267 199.249 133.555 199.563 134.844C199.596 134.976 199.645 135.124 199.711 135.339C200.455 133.985 201.165 132.713 201.859 131.424C202.041 131.094 202.206 130.978 202.602 131.044C203.527 131.193 204.452 131.275 205.377 131.391C205.41 131.622 205.278 131.738 205.196 131.887C203.874 134.315 202.536 136.743 201.215 139.171C201.033 139.485 200.868 139.584 200.504 139.535C199.546 139.386 198.588 139.287 197.614 139.171C197.399 139.155 197.283 139.089 197.217 138.874C196.441 135.983 195.664 133.109 194.871 130.136V130.119Z" fill="#B41319"/>
<path d="M254.521 50.251C254.669 50.251 254.686 50.3831 254.736 50.4657C255.281 51.4403 255.809 52.4315 256.371 53.4061C256.569 53.7364 256.305 53.7695 256.123 53.8686C253.711 55.2231 251.283 56.5612 248.871 57.8992C247.781 58.5104 246.658 59.1051 245.584 59.7328C245.237 59.931 245.122 59.8484 244.956 59.5345C244.494 58.659 244.031 57.8001 243.519 56.9576C243.305 56.6107 243.321 56.462 243.718 56.2473C246.658 54.645 249.565 53.0096 252.489 51.3743C253.084 51.0439 253.678 50.7135 254.273 50.3831C254.356 50.3336 254.455 50.284 254.521 50.251Z" fill="#B41319"/>
<path d="M240.612 123.511C239.968 123.33 239.456 122.933 239.026 122.454C238.58 121.942 238.134 121.43 237.721 120.885C237.49 120.587 237.341 120.538 237.044 120.802C236.499 121.298 236.482 121.265 236.003 120.703C235.706 120.34 235.409 119.96 235.078 119.613C234.814 119.349 234.864 119.167 235.161 118.985C235.277 118.919 235.359 118.803 235.475 118.737C235.706 118.589 235.69 118.457 235.508 118.258C235.128 117.829 234.765 117.366 234.385 116.937C234.203 116.739 234.219 116.623 234.434 116.441C235.194 115.83 235.937 115.219 236.664 114.575C236.879 114.393 236.995 114.442 237.143 114.641C237.507 115.103 237.887 115.533 238.25 115.979C238.399 116.177 238.514 116.226 238.729 116.028C239.01 115.764 239.34 115.533 239.621 115.268C239.786 115.12 239.885 115.136 240.017 115.318C240.447 115.847 240.876 116.375 241.322 116.887C241.471 117.052 241.471 117.168 241.289 117.3C241.24 117.333 241.207 117.366 241.174 117.399C240.86 117.697 240.265 117.911 240.265 118.275C240.265 118.622 240.761 118.969 241.025 119.316C241.19 119.53 241.372 119.745 241.554 119.943C242 120.439 242.561 120.406 242.892 119.811C243.123 119.415 243.288 119.481 243.585 119.679C244.081 120.009 244.593 120.307 245.105 120.604C245.254 120.687 245.336 120.753 245.287 120.951C244.874 122.438 242.132 123.957 240.612 123.511Z" fill="#B41319"/>
<path d="M215.95 130.169C216.445 129.277 217.139 128.781 218.014 128.484C218.246 128.402 218.345 128.418 218.411 128.666C218.626 129.492 218.873 130.301 219.121 131.111C219.204 131.358 219.154 131.441 218.906 131.474C218.642 131.507 218.378 131.59 218.13 131.689C217.304 132.019 216.924 132.647 217.139 133.522C217.42 134.695 217.75 135.852 218.13 136.991C218.312 137.52 218.147 137.636 217.684 137.751C216.858 137.949 216.049 138.214 215.239 138.461C214.958 138.544 214.826 138.528 214.727 138.214C214 135.67 213.257 133.126 212.497 130.582C212.415 130.301 212.497 130.219 212.745 130.153C213.554 129.921 214.38 129.69 215.19 129.426C215.586 129.294 215.784 129.343 215.834 129.789C215.834 129.888 215.9 129.971 215.966 130.153L215.95 130.169Z" fill="#B41319"/>
<path d="M246.41 45.4443C246.542 45.4443 246.592 45.5599 246.641 45.6425C247.319 46.5345 247.996 47.4265 248.69 48.3185C248.822 48.4837 248.822 48.5828 248.64 48.715C246.262 50.5155 243.866 52.3326 241.504 54.1497C241.289 54.3148 241.207 54.2653 241.075 54.0671C240.414 53.175 239.737 52.2996 239.059 51.4241C238.911 51.2258 238.927 51.1267 239.125 50.9781C241.504 49.1775 243.866 47.377 246.228 45.5764C246.295 45.5268 246.361 45.4773 246.427 45.4277L246.41 45.4443Z" fill="#B41319"/>
<path d="M207.905 139.551C207.558 139.65 207.459 139.485 207.426 139.089C207.194 136.561 206.914 134.05 206.649 131.523C206.6 131.143 206.633 130.945 207.095 130.928C207.987 130.879 208.896 130.763 209.788 130.664C210.085 130.631 210.184 130.714 210.217 131.027C210.465 133.571 210.713 136.099 211.01 138.643C211.06 139.138 210.944 139.287 210.465 139.32C209.639 139.369 208.813 139.485 207.921 139.568L207.905 139.551Z" fill="#B41319"/>
<path d="M226.918 133.77C226.967 133.951 226.802 133.968 226.72 134.001C225.828 134.463 224.936 134.909 224.044 135.372C223.845 135.471 223.763 135.438 223.664 135.24C222.441 132.828 221.235 130.416 219.996 128.021C219.897 127.806 219.947 127.74 220.145 127.641C221.037 127.195 221.929 126.733 222.821 126.287C222.97 126.204 223.069 126.171 223.185 126.369C224.407 128.814 225.646 131.242 226.885 133.687C226.885 133.72 226.918 133.753 226.934 133.786L226.918 133.77Z" fill="#B41319"/>
<path d="M193.765 129.623C193.765 129.623 193.698 129.788 193.665 129.887C192.806 132.316 191.947 134.76 191.089 137.189C190.973 137.519 190.874 137.618 190.527 137.486C189.668 137.156 188.809 136.858 187.933 136.561C187.669 136.462 187.553 136.379 187.686 136.065C188.578 133.588 189.453 131.11 190.312 128.615C190.395 128.351 190.494 128.269 190.775 128.368C191.683 128.715 192.592 129.012 193.517 129.342C193.632 129.375 193.814 129.375 193.748 129.623H193.765Z" fill="#B41319"/>
<path d="M247.682 44.9154C247.682 43.66 248.805 42.768 250.028 43.0653C251.101 43.3131 252.093 44.6015 252.076 45.6918C252.059 46.9802 250.721 47.8723 249.466 47.4263C248.508 47.0959 247.682 45.923 247.682 44.9154Z" fill="#B41319"/>
<path d="M208.268 126.468C209.408 126.468 210.184 127.095 210.267 128.087C210.35 129.045 209.656 129.854 208.582 130.069C208.169 130.151 207.773 130.151 207.376 130.069C206.649 129.887 206.104 129.342 206.005 128.665C205.89 127.855 206.22 127.178 206.947 126.798C207.36 126.583 207.806 126.484 208.268 126.501V126.468Z" fill="#B41319"/>
<path d="M220.707 122.784C221.698 122.784 222.458 123.544 222.441 124.535C222.441 125.609 221.252 126.65 220.03 126.65C219.022 126.65 218.229 125.873 218.246 124.882C218.246 123.776 219.435 122.768 220.723 122.784H220.707Z" fill="#B41319"/>
<path d="M192.74 124.618C193.319 124.618 193.847 124.816 194.31 125.147C195.02 125.642 195.284 126.402 195.037 127.146C194.772 127.938 194.045 128.434 193.187 128.384C192.658 128.351 192.146 128.186 191.716 127.889C191.006 127.41 190.709 126.6 190.94 125.841C191.188 125.064 191.848 124.618 192.74 124.635V124.618Z" fill="#B41319"/>
<path d="M164.081 82.1482C163.998 59.6992 182.317 41.0825 205.278 41.2972C227.595 41.512 245.865 59.8974 245.584 82.6108C245.32 104.498 227.348 122.933 204.618 122.801C182.202 122.685 164.097 104.482 164.064 82.1317L164.081 82.1482Z" fill="#ECE8DF"/>
<path d="M201.661 34.6571C201.132 34.6571 200.785 34.4093 200.719 33.9798C200.67 33.5669 200.95 33.22 201.495 33.1374C201.859 33.0878 202.239 33.1043 202.619 33.0713C202.833 33.0713 202.867 33.1704 202.883 33.3521C202.982 34.0624 202.421 34.6571 201.661 34.6571Z" fill="#ECE7DE"/>
<path d="M172.72 46.1047C172.72 46.815 172.472 47.1949 172.01 47.4427C171.679 47.6079 171.349 47.5914 171.085 47.294C170.82 47.0132 170.837 46.7159 171.019 46.402C171.266 45.989 171.663 45.7082 171.993 45.3613C172.109 45.2457 172.175 45.2953 172.274 45.3944C172.522 45.6421 172.72 45.9064 172.703 46.1047H172.72Z" fill="#ECE7DE"/>
<path d="M235.689 44.9319C235.194 44.9319 234.665 44.5684 234.5 44.1224C234.384 43.8251 234.467 43.5773 234.665 43.3791C234.864 43.1643 235.111 43.0817 235.409 43.1974C235.921 43.3791 236.268 43.8086 236.664 44.1224C236.763 44.205 236.747 44.2876 236.664 44.3867C236.416 44.7171 236.102 44.9319 235.673 44.9484L235.689 44.9319Z" fill="#ECE6DE"/>
<path d="M246.509 114.674C246.129 114.46 246.047 113.981 246.361 113.634C246.625 113.353 246.939 113.122 247.22 112.857C247.286 112.791 247.352 112.758 247.451 112.791C247.798 112.923 247.98 113.65 247.765 114.113C247.534 114.625 246.906 114.906 246.509 114.674Z" fill="#ECE7DE"/>
<path d="M244.197 83.9825C244.114 86.1134 243.833 88.2113 243.371 90.2926C242.495 94.2902 241.058 98.073 238.993 101.608C235.177 108.149 229.924 113.188 223.251 116.756C219.815 118.589 216.197 119.861 212.381 120.588C207.574 121.513 202.751 121.563 197.927 120.704C190.263 119.349 183.573 115.979 177.89 110.66C173.149 106.233 169.713 100.931 167.566 94.7857C165.848 89.8466 165.154 84.7754 165.484 79.5719C166.079 69.9745 169.697 61.6656 176.321 54.6616C180.665 50.0694 185.836 46.7491 191.799 44.6347C195.532 43.3132 199.365 42.6194 203.329 42.4542C207.938 42.2725 212.414 42.8672 216.808 44.2713C222.458 46.0718 227.446 49.0122 231.774 53.0428C235.26 56.2804 238.068 60.0467 240.182 64.3086C242.016 67.9923 243.238 71.8577 243.833 75.9378C244.015 77.2098 244.147 78.4982 244.213 79.7867C244.147 81.1743 244.147 82.5784 244.213 83.9659L244.197 83.9825Z" fill="#B4131A"/>
<path d="M244.196 83.9815C244.064 83.8493 244.114 83.7007 244.114 83.552C244.114 82.4453 244.114 81.3385 244.114 80.2317C244.114 80.0831 244.064 79.9179 244.196 79.8022C244.262 81.1898 244.262 82.5939 244.196 83.9815Z" fill="#B0060E"/>
<path d="M204.865 44.7667C224.671 44.6511 242.297 61.0708 241.966 82.5452C241.653 102.5 225.216 119.3 204.254 119.019C184.332 118.754 167.285 102.318 167.714 81.0585C168.111 60.9386 184.745 44.7337 204.865 44.7667Z" fill="#ECE8DF"/>
<path d="M249.119 64.5724H251.96C252.258 64.5889 252.538 64.4567 252.704 64.209L254.339 61.8798C254.768 61.2686 255.71 61.4173 255.925 62.1276L256.784 64.8367C256.866 65.1175 257.098 65.3322 257.378 65.4314L260.104 66.2573C260.814 66.472 260.963 67.4136 260.368 67.8431L258.056 69.495C257.808 69.6602 257.676 69.941 257.676 70.2383L257.725 73.0796C257.725 73.8229 256.899 74.2524 256.288 73.8229L253.992 72.138C253.761 71.9563 253.447 71.9232 253.166 72.0058L250.474 72.9309C249.763 73.1787 249.086 72.5014 249.334 71.7911L250.226 69.0985C250.325 68.8177 250.275 68.5039 250.094 68.2726L248.376 66.0095C247.93 65.4148 248.359 64.5724 249.102 64.5724H249.119Z" fill="#F7B744"/>
<path d="M252.406 79.2579H255.247C255.545 79.2744 255.826 79.1423 255.991 78.8945L257.626 76.5654C258.056 75.9542 258.997 76.1028 259.212 76.8131L260.071 79.5222C260.154 79.803 260.385 80.0178 260.666 80.1169L263.391 80.9428C264.102 81.1576 264.25 82.0992 263.655 82.5286L261.343 84.1805C261.095 84.3457 260.963 84.6265 260.963 84.9239L261.013 87.7651C261.013 88.5084 260.187 88.9379 259.575 88.5085L257.279 86.8235C257.048 86.6418 256.734 86.6088 256.453 86.6914L253.761 87.6164C253.05 87.8642 252.373 87.1869 252.621 86.4766L253.513 83.7841C253.612 83.5033 253.563 83.1894 253.381 82.9581L251.663 80.6951C251.217 80.1004 251.646 79.2579 252.39 79.2579H252.406Z" fill="#F7B744"/>
<path d="M247.252 94.1075H250.094C250.391 94.1241 250.672 93.9919 250.837 93.7441L252.472 91.415C252.902 90.8038 253.843 90.9524 254.058 91.6628L254.917 94.3718C255 94.6527 255.231 94.8674 255.512 94.9665L258.237 95.7924C258.948 96.0072 259.096 96.9488 258.502 97.3783L256.189 99.0301C255.941 99.1953 255.809 99.4761 255.809 99.7735L255.859 102.615C255.859 103.358 255.033 103.788 254.422 103.358L252.126 101.673C251.894 101.491 251.58 101.458 251.3 101.541L248.607 102.466C247.897 102.714 247.219 102.037 247.467 101.326L248.359 98.6337C248.458 98.3529 248.409 98.039 248.227 97.8077L246.509 95.5447C246.063 94.95 246.493 94.1075 247.236 94.1075H247.252Z" fill="#F7B744"/>
<path d="M164.328 104.218L161.52 104.714C161.223 104.763 160.975 104.961 160.859 105.226L159.67 107.819C159.356 108.496 158.415 108.53 158.068 107.869L156.73 105.358C156.598 105.094 156.333 104.928 156.036 104.879L153.211 104.549C152.468 104.466 152.154 103.574 152.666 103.029L154.648 100.98C154.846 100.766 154.946 100.468 154.88 100.171L154.318 97.3793C154.169 96.6525 154.929 96.0744 155.59 96.3882L158.15 97.6436C158.415 97.7758 158.728 97.7593 158.993 97.6271L161.471 96.223C162.115 95.8596 162.908 96.3882 162.809 97.1316L162.412 99.9563C162.363 100.254 162.478 100.551 162.693 100.749L164.791 102.682C165.336 103.194 165.072 104.102 164.345 104.235L164.328 104.218Z" fill="#F7B744"/>
<path d="M158.448 89.516L155.639 90.0115C155.342 90.0611 155.094 90.2593 154.979 90.5236L153.789 93.1171C153.475 93.7943 152.534 93.8274 152.187 93.1666L150.849 90.6558C150.717 90.3915 150.452 90.2263 150.155 90.1767L147.33 89.8464C146.587 89.7638 146.273 88.8717 146.785 88.3266L148.768 86.2783C148.966 86.0635 149.065 85.7662 148.999 85.4689L148.437 82.6772C148.289 81.9504 149.048 81.3722 149.709 81.6861L152.27 82.9415C152.534 83.0736 152.848 83.0571 153.112 82.925L155.59 81.5209C156.234 81.1575 157.027 81.6861 156.928 82.4294L156.531 85.2541C156.482 85.5515 156.597 85.8488 156.812 86.047L158.91 87.9797C159.455 88.4918 159.191 89.4003 158.464 89.5325L158.448 89.516Z" fill="#F7B744"/>
<path d="M160.909 73.5257L158.101 74.0213C157.803 74.0709 157.556 74.2691 157.44 74.5334L156.251 77.1268C155.937 77.8041 154.995 77.8371 154.648 77.1764L153.31 74.6655C153.178 74.4012 152.914 74.2361 152.616 74.1865L149.792 73.8561C149.048 73.7735 148.735 72.8815 149.247 72.3364L151.229 70.2881C151.427 70.0733 151.526 69.776 151.46 69.4786L150.898 66.687C150.75 65.9601 151.51 65.382 152.17 65.6958L154.731 66.9513C154.995 67.0834 155.309 67.0669 155.573 66.9347L158.051 65.5306C158.695 65.1672 159.488 65.6958 159.389 66.4392L158.993 69.2639C158.943 69.5612 159.059 69.8586 159.274 70.0568L161.371 71.9895C161.917 72.5016 161.652 73.4101 160.925 73.5423L160.909 73.5257Z" fill="#F7B744"/>
<path d="M-254.473 5.9142C-228.902 0.578628 -202.62 2.44525 -177.082 7.02096C-151.544 11.5967 -125.709 18.9475 -99.9725 24.63C-74.2363 30.3125 -47.1454 33.8475 -20.385 35.8628C-6.7735 36.8869 6.88751 37.7459 20.532 37.7955C33.4002 37.8285 46.1692 36.7217 58.9548 35.2351C83.4521 32.3938 109.106 28.4293 133.256 35.4498C136.18 36.3088 139.054 37.3164 141.879 38.4727C143.448 39.117 144.142 36.5566 142.589 35.9123C119.331 26.381 93.7929 28.5449 69.4112 31.3531C56.7908 32.8068 44.187 34.4587 31.484 34.9542C17.6908 35.4828 3.88113 34.8056 -9.87904 33.9301C-37.3168 32.1956 -64.7214 29.2553 -91.6636 23.6884C-118.606 18.1216 -143.12 10.969 -169.137 5.81509C-194.278 0.859448 -220.147 -2.01482 -245.685 1.66887C-248.873 2.1314 -252.028 2.69303 -255.167 3.35379C-256.835 3.70068 -256.125 6.26109 -254.456 5.9142H-254.473Z" fill="#B5131A"/>
<path d="M-261.559 22.9287C-235.988 17.5932 -209.707 19.4598 -184.169 24.0355C-158.631 28.6112 -132.795 35.9621 -107.059 41.6445C-80.8437 47.4261 -54.2319 50.862 -27.4715 52.8773C-13.86 53.9015 -0.198944 54.7605 13.4456 54.81C26.3137 54.8431 39.0827 53.7363 51.8683 52.2496C76.3657 49.4084 102.019 45.4439 126.17 52.4643C129.094 53.3233 131.968 54.331 134.793 55.4873C136.362 56.1315 137.056 53.5711 135.503 52.9269C112.244 43.3955 86.7064 45.5595 62.3247 48.3677C49.7043 49.8213 37.1005 51.4732 24.3976 51.9688C10.6044 52.4974 -3.20535 51.8201 -16.9655 50.9446C-44.4032 49.2101 -71.8079 46.2698 -98.7501 40.703C-125.692 35.1361 -150.206 27.9835 -176.223 22.8296C-201.381 17.8575 -227.25 14.9832 -252.804 18.6669C-255.992 19.1294 -259.148 19.6911 -262.286 20.3518C-263.955 20.6987 -263.244 23.2591 -261.576 22.9122L-261.559 22.9287Z" fill="#B5131A"/>
<path d="M-271.322 40.8843C-245.751 35.5487 -219.469 37.4154 -193.931 41.9911C-168.393 46.5668 -142.558 53.9176 -116.822 59.6001C-91.0854 65.2826 -63.9945 68.8176 -37.2341 70.8329C-23.6226 71.857 -9.96158 72.716 3.68295 72.7656C16.5511 72.7986 29.3201 71.6919 42.1057 70.2052C66.6031 67.3639 92.2567 63.3994 116.407 70.4199C119.331 71.2789 122.205 72.2865 125.03 73.4428C126.599 74.0871 127.293 71.5267 125.74 70.8824C102.482 61.3511 76.9438 63.5151 52.5621 66.3232C39.9417 67.7769 27.3379 69.4288 14.6349 69.9243C0.841736 70.4529 -12.968 69.7757 -26.7281 68.9002C-54.1658 67.1657 -81.5705 64.2254 -108.513 58.6585C-135.455 53.0917 -159.969 45.9391 -185.986 40.7852C-211.144 35.813 -237.012 32.9388 -262.567 36.6225C-265.755 37.085 -268.91 37.6466 -272.049 38.3074C-273.717 38.6543 -273.007 41.2147 -271.338 40.8678L-271.322 40.8843Z" fill="#B5131A"/>
<path d="M-270.711 64.7373C-245.14 59.4018 -218.858 61.2684 -193.32 65.8441C-167.782 70.4198 -141.947 77.7707 -116.21 83.4531C-90.4742 89.1356 -63.3833 92.6706 -36.6229 94.6859C-23.0114 95.7101 -9.35034 96.5691 4.29419 96.6186C17.1623 96.6516 29.9313 95.5449 42.7169 94.0582C67.2143 91.217 92.868 87.2524 117.018 94.2729C119.942 95.1319 122.817 96.1396 125.641 97.2959C127.211 97.9401 127.904 95.3797 126.352 94.7355C103.093 85.2041 77.555 87.3681 53.1733 90.1763C40.5529 91.6299 27.9491 93.2818 15.2461 93.7774C1.45294 94.306 -12.3568 93.6287 -26.1169 92.7532C-53.5546 91.0187 -80.9593 88.0784 -107.901 82.5116C-134.844 76.9447 -159.358 69.7921 -185.375 64.6382C-210.533 59.6661 -236.401 56.7918 -261.956 60.4755C-265.144 60.938 -268.299 61.4996 -271.438 62.1604C-273.106 62.5073 -272.396 65.0677 -270.727 64.7208L-270.711 64.7373Z" fill="#B5131A"/>
<path d="M-266.432 83.6191C-240.861 78.2835 -214.58 80.1501 -189.042 84.7258C-163.074 89.3841 -137.668 96.6524 -111.932 102.335C-86.1958 108.017 -59.105 111.552 -32.3446 113.568C-18.7331 114.592 -5.07205 115.451 8.57248 115.5C21.4406 115.533 34.2096 114.427 46.9952 112.94C71.4926 110.099 97.1462 106.134 121.297 113.155C124.221 114.014 127.095 115.021 129.92 116.178C131.489 116.822 132.183 114.261 130.63 113.617C107.371 104.086 81.8333 106.25 57.4516 109.058C44.8312 110.512 32.2274 112.164 19.5244 112.659C5.73126 113.188 -8.07846 112.51 -21.8386 111.635C-49.2764 109.9 -76.681 106.96 -103.623 101.393C-130.565 95.8265 -155.079 88.6738 -181.096 83.5199C-207.113 78.3661 -232.123 75.6735 -257.677 79.3572C-260.866 79.8197 -264.021 80.3814 -267.159 81.0421C-268.828 81.389 -268.117 83.9494 -266.449 83.6025L-266.432 83.6191Z" fill="#B5131A"/>
<path d="M227.43 77.7878C227.876 78.2668 228.636 78.366 229.214 78.0191C229.842 77.6226 230.007 76.8132 229.594 76.202C229.165 75.5908 228.306 75.4256 227.678 75.8055C227.645 75.8221 227.612 75.8386 227.595 75.8716C227.595 75.8716 227.48 75.9707 227.414 76.0698C227.414 76.0698 227.447 76.1029 227.447 76.1194C227.81 76.6315 227.628 77.2427 227.248 77.5565C227.314 77.6391 227.364 77.7052 227.447 77.8043L227.43 77.7878Z" fill="white"/>
<path d="M226.125 77.7044C226.753 78.7616 227.116 80.0831 226.687 81.768C227.265 83.073 226.852 85.6169 225.018 86.0794C224.523 86.8558 223.333 87.3514 222.21 87.3349C220.971 87.3349 219.947 87.7974 219.253 88.6068C216.346 87.5992 214.066 85.2865 214.446 83.3704C213.125 82.7592 213.108 80.7439 214.33 79.7527C214.198 78.0678 215.256 76.3334 216.048 75.6726H216.065C215.503 75.59 215.256 74.9623 215.47 74.5163C215.702 74.0372 216.164 73.7069 217.238 73.4756C218.312 73.2278 220.393 73.3104 222.177 73.6738C224.589 74.1529 226.786 75.3092 227.413 76.1847C228.041 77.0437 227.1 78.1835 226.29 77.7044C226.207 77.6549 226.125 77.6053 226.026 77.5557C226.042 77.5888 226.092 77.6714 226.125 77.7209V77.7044Z" fill="white"/>
<path d="M221.83 79.1753C222.458 79.0266 223.68 79.2744 224.192 80.0343C224.424 79.803 224.87 79.6874 225.283 79.7865C225.25 79.5387 225.167 78.8284 225.299 78.3494C225.018 78.0355 224.87 77.4574 224.87 77.127V77.0114C223.862 76.6149 222.656 76.268 221.5 76.0367C220.096 75.7394 218.94 75.6073 217.965 75.5742V75.6238C217.75 75.9376 217.122 76.1028 216.61 76.5323C216.66 76.9288 216.445 77.7877 216.098 78.5146C217.056 78.1181 218.576 78.1181 219.452 78.6632H219.485C219.518 79.1423 219.898 79.5057 220.476 79.6213C221.054 79.737 221.549 79.5883 221.781 79.1753H221.847H221.83Z" fill="#EED7CE"/>
<path d="M228.454 75.4421C227.694 72.4522 226.125 69.8423 222.97 69.8753C220.277 69.9083 218.279 71.4942 216.941 73.3773L216.858 73.526C216.974 73.4929 217.122 73.4599 217.254 73.4269C218.328 73.1791 220.41 73.2617 222.194 73.6251C224.556 74.0876 226.703 75.2109 227.38 76.0699L227.579 75.8882C227.579 75.8882 227.628 75.8551 227.661 75.8221C227.909 75.6569 228.206 75.5908 228.487 75.6073L228.438 75.4256L228.454 75.4421Z" fill="#B5131A"/>
<path d="M221.351 80.8102C220.988 80.678 220.608 80.4633 220.343 80.2485C220.046 80.3972 219.584 80.4633 219.171 80.4302V80.4633C219.055 81.124 219.435 81.7517 220.046 81.8674C220.657 81.983 221.219 81.5535 221.335 80.8928V80.7937L221.351 80.8102Z" fill="#932626"/>
<path d="M226.076 90.5732C224.837 90.9531 223.433 91.5478 221.83 91.713C220.426 91.8616 219.27 91.8451 217.007 91.8451C214.744 91.8451 213.571 91.2009 212.794 90.2758C212.018 89.3343 211.143 88.657 209.838 88.244C208.533 87.831 206.765 87.7319 205.675 88.3101C204.337 89.0204 204.172 90.2593 204.651 91.1513C204.75 91.333 205.047 91.5147 205.328 91.4321C205.691 91.3495 205.807 91.1183 205.824 90.887C205.873 90.441 206.286 90.0611 206.732 89.962C207.426 89.8133 208.021 90.0611 208.549 90.9035C209.078 91.7625 209.111 93.6622 209.425 95.0828C209.656 96.0574 209.904 97.9075 211.605 99.1795C211.39 99.9393 210.763 100.534 210.151 100.93C209.326 101.459 208.12 101.756 206.996 101.707C205.939 101.674 204.634 100.93 204.486 100.121C204.221 98.6509 204.634 97.8414 205.411 97.3624C206.038 96.9825 206.732 97.0155 206.996 97.1972C206.848 97.4285 206.93 97.9075 207.244 98.0727C207.641 98.2709 208.186 98.0727 208.351 97.4615C208.483 96.999 208.103 96.4539 207.442 96.1896C206.815 95.9418 205.824 95.9253 204.998 96.3382C204.172 96.7512 203.048 97.9736 203.147 100.303C203.247 102.648 204.915 104.878 206.996 105.704C208.648 106.365 210.862 106.117 212.993 106.101C217.321 106.051 225.563 105.886 229.759 105.837C231.973 105.803 233.36 105.192 233.856 103.623C234.418 101.855 234.021 100.369 232.832 99.4933C232.353 99.1464 232.072 99.5924 232.254 99.8732C232.634 100.468 232.782 101.079 232.534 101.591C232.303 102.054 231.675 102.153 231.163 102.202C230.271 102.268 229.511 101.971 229.032 101.409C228.487 100.749 228.421 99.8567 228.603 99.2125C230.288 98.2709 231.081 97.032 231.659 95.8757C232.187 94.835 232.369 94.2238 232.584 92.4563C232.667 91.746 233.212 91.2835 234.021 91.1018C234.698 90.9531 234.55 89.9455 233.905 89.8629C233.261 89.7803 232.402 89.7637 231.824 89.7803C230.354 89.8298 227.331 90.1602 226.092 90.5401L226.076 90.5732ZM221.037 100.732C221.054 101.211 221.136 101.707 221.269 102.054C221.599 103.078 222.309 103.887 222.838 104.218C222.871 104.234 222.887 104.251 222.92 104.267C222.64 104.267 222.359 104.267 222.095 104.267C219.881 104.267 216.495 104.548 214.05 104.73C214.595 104.416 215.223 103.838 215.652 103.094C216.032 102.434 216.346 101.261 216.28 100.534C218.047 100.699 219.633 100.765 221.037 100.732ZM224.325 103.805C223.581 103.375 222.722 102.351 222.508 101.591C222.425 101.294 222.359 101.03 222.408 100.683C223.912 100.6 224.853 100.451 225.976 100.187C226.274 100.121 226.555 100.038 226.819 99.9558C226.868 100.881 227.133 101.608 228.107 102.401C229.049 103.177 230.106 103.359 231.378 103.342C231.791 103.342 232.468 103.177 232.799 102.962C232.287 103.986 231.279 104.234 229.875 104.3C228.867 104.35 227.314 104.383 225.431 104.3C225.018 104.119 224.721 104.003 224.341 103.772L224.325 103.805ZM211.506 104.862C209.854 104.928 208.136 104.895 206.864 104.003C206.022 103.408 205.46 102.797 205.08 102.136C205.444 102.417 205.956 102.648 206.716 102.797C207.806 103.012 209.54 102.698 210.73 101.988C211.44 101.558 212.464 100.699 212.794 99.8732C213.406 100.121 214.413 100.319 215.008 100.418C214.958 101.228 214.793 101.955 214.479 102.533C214 103.441 212.348 104.68 211.506 104.878V104.862Z" fill="#DF9F64"/>
<path d="M192.245 94.7364C193.054 95.2815 193.897 96.2561 194.31 96.7187C194.706 97.1977 195.169 97.9245 195.433 98.4862C195.615 98.8826 195.995 100.105 196.143 100.749C196.275 101.393 196.358 102.269 196.226 102.765C196.11 103.227 195.945 103.723 195.912 104.284C195.912 104.664 196.408 104.929 197.085 104.929C197.762 104.929 198.671 104.664 198.671 104.251C198.671 103.772 198.671 103.128 198.456 102.632C198.258 102.12 197.977 101.014 197.861 100.617C197.762 100.221 197.498 98.9652 197.531 98.5027C197.564 98.0236 197.597 97.495 197.333 97.0821C197.068 96.6856 196.589 96.0744 196.441 95.2815C196.292 94.5217 196.242 93.0845 196.209 92.3412C196.176 91.5978 196.011 89.8799 195.433 89.1035C195.945 89.0374 196.821 88.3767 197.019 87.8315C197.217 87.2699 197.267 86.5761 197.25 86.0971C197.217 85.618 196.969 85.3702 196.523 85.5354C196.061 85.7171 195.747 85.8658 195.185 86.1962C194.624 86.5266 194.277 87.1047 194.128 87.5342C194.095 87.6168 194.078 87.6829 194.062 87.749C193.765 87.5177 193.467 87.3029 193.236 87.1543C192.592 86.7578 191.089 86.7248 189.569 86.6752C188.049 86.6422 186.777 86.7413 185.968 86.4109C185.158 86.0806 184.151 85.5354 183.721 84.8582C183.292 84.1809 183.077 83.1402 183.027 82.4299C183.06 81.9178 183.06 81.3562 183.193 80.8441C183.325 80.332 183.325 79.3574 183.226 78.5975C183.589 78.5975 184.2 78.2672 184.498 77.9698C184.894 77.5569 185.076 77.0448 185.191 76.5492C185.29 76.1693 185.142 75.8059 184.498 76.0041C183.853 76.2023 183.292 76.7309 182.747 77.3091C182.565 77.0117 182.317 76.8631 181.97 76.6483C181.491 76.3675 181.144 76.3014 180.863 76.5492C180.715 76.6648 180.252 76.7805 179.922 76.7805C179.591 76.7805 179.063 76.6814 178.931 76.5492C178.716 76.3179 178.435 76.2519 177.89 76.5822C177.543 76.797 177.196 76.9952 177.048 77.3421C176.502 76.764 175.924 76.2188 175.28 76.0041C174.636 75.8059 174.421 76.0702 174.57 76.5327C174.702 77.0117 175.016 77.656 175.33 77.9533C175.66 78.2837 176.205 78.581 176.569 78.581C176.469 79.3574 176.469 80.332 176.602 80.8276C176.734 81.3231 176.651 81.9178 176.767 82.4134C176.981 83.3054 177.246 85.6345 177.18 86.6918C177.13 87.749 177.13 89.8799 177.477 90.838C177.824 91.7961 178.534 93.1176 178.782 93.4149C178.931 94.9842 179.211 96.7517 179.41 97.5281C179.624 98.3045 179.872 100.022 179.955 100.782C180.037 101.493 180.004 102.781 179.839 103.211C179.658 103.69 179.492 104.466 179.476 104.796C179.443 105.127 179.624 105.358 180.318 105.358C181.012 105.358 181.97 105.358 182.102 105.028C182.234 104.714 182.102 103.789 181.937 103.178C181.788 102.715 181.739 100.981 181.772 100.435C181.805 99.7581 181.772 97.7428 181.788 97.0986C181.788 96.57 181.722 95.5293 181.755 95.1329C182.036 95.232 182.317 95.2155 182.697 95.232C182.879 96.2231 182.945 97.3794 183.027 98.0402C183.093 98.6514 183.126 99.2626 183.226 99.9068C183.325 100.634 183.44 101.691 183.473 102.352C183.506 103.029 183.424 104.036 183.292 104.301C183.143 104.615 183.11 104.995 183.143 105.292C183.16 105.457 183.655 105.787 184.398 105.754C185.109 105.738 185.753 105.705 185.753 105.259C185.753 104.813 185.753 104.383 185.621 103.987C185.489 103.59 185.34 102.533 185.257 101.988C185.191 101.443 185.191 100.303 185.257 99.659C185.323 99.0148 185.307 98.0567 185.323 97.6602C185.34 97.1647 185.505 95.9423 185.538 95.4467C186.546 95.4467 187.322 95.6119 188.545 95.5128C189.024 96.0249 189.883 97.3464 190.097 97.6272C190.312 97.8915 190.543 98.6844 190.477 99.1634C190.428 99.5764 189.982 101.195 189.85 101.608C189.717 102.021 189.42 102.732 189.255 103.062C189.09 103.392 188.892 103.789 188.925 104.202C188.925 104.466 189.354 104.681 189.883 104.681C190.411 104.681 191.237 104.714 191.336 104.169C191.435 103.624 191.303 103.045 191.402 102.55C191.501 102.038 191.799 101.146 192.014 100.535C192.195 99.9729 192.36 99.5434 192.526 99.0643C192.691 98.5853 192.757 98.2714 192.592 97.7263C192.427 97.1812 192.03 96.0249 191.832 95.2155L191.766 94.8851C191.898 94.8355 192.096 94.7364 192.212 94.6868L192.245 94.7364Z" fill="#A28978"/>
<path d="M182.168 76.6967C182.565 76.2177 183.242 75.6561 183.754 75.21C184.233 74.7806 185.125 74.2354 185.819 73.872C186.711 73.393 187.454 72.98 187.95 72.3688C188.412 71.8072 188.677 70.816 188.792 70.1883C188.908 69.6102 188.908 69.2302 188.875 68.6521C188.825 68.0244 187.884 68.0739 187.9 68.7677C187.9 69.1807 187.834 69.5937 187.768 70.0066C187.653 70.6509 187.421 71.3281 187.107 71.9228C186.992 72.1376 186.761 72.2201 186.595 72.1706C186.348 72.088 186.298 71.8402 186.331 71.6915C186.364 71.5098 186.43 71.3777 186.496 71.0969C186.579 70.7335 186.612 70.4196 186.562 69.7588C186.513 69.0485 185.77 69.0651 185.703 69.7258C185.654 70.2379 185.637 70.6013 185.555 71.0308C185.456 71.5264 185.142 72.3358 184.877 72.6496C184.745 72.8148 184.564 72.8974 184.382 72.8809C184.2 72.8644 184.035 72.7157 184.002 72.501C183.952 72.055 183.853 71.5759 183.606 70.8491C183.308 69.9571 182.185 70.3205 182.598 71.4107C182.78 71.9063 183.044 72.7157 183.126 73.2939C183.193 73.7399 183.027 74.1033 182.846 74.3841C182.301 75.177 181.772 75.7717 181.21 76.3829L181.161 76.4324C181.376 76.3994 181.64 76.4985 181.954 76.6802C182.003 76.7133 182.053 76.7463 182.102 76.7793L182.152 76.7133L182.168 76.6967Z" fill="#D1C5A7"/>
<path d="M178.551 76.3829C177.989 75.7717 177.461 75.1935 176.916 74.3841C176.734 74.1033 176.569 73.7399 176.635 73.2939C176.717 72.7157 176.982 71.9063 177.163 71.4107C177.56 70.3205 176.453 69.9571 176.156 70.8491C175.908 71.5759 175.825 72.055 175.759 72.501C175.726 72.7322 175.578 72.8644 175.379 72.8809C175.198 72.8974 174.999 72.8148 174.884 72.6496C174.636 72.3358 174.306 71.5098 174.206 71.0308C174.124 70.6178 174.107 70.2544 174.058 69.7258C174.008 69.0651 173.248 69.0485 173.199 69.7588C173.149 70.4196 173.182 70.7335 173.265 71.0969C173.331 71.3777 173.381 71.4933 173.43 71.6915C173.463 71.8237 173.414 72.088 173.166 72.1706C173.001 72.2201 172.769 72.1376 172.654 71.9228C172.34 71.3281 172.092 70.6509 171.993 70.0066C171.927 69.5937 171.844 69.1807 171.861 68.7677C171.877 68.0739 170.936 68.0244 170.886 68.6521C170.853 69.2302 170.853 69.5937 170.969 70.1883C171.084 70.816 171.365 71.8072 171.811 72.3688C172.323 72.98 173.05 73.393 173.942 73.872C174.636 74.2354 175.528 74.7806 176.007 75.21C176.503 75.6561 177.18 76.2342 177.593 76.6967L177.642 76.7463C177.642 76.7463 177.791 76.6472 177.874 76.5976C178.154 76.4159 178.369 76.3498 178.551 76.3664V76.3829Z" fill="#D1C5A7"/>
<path d="M180.996 81.1738C180.897 81.8841 180.5 82.3632 179.889 82.3632C179.278 82.3632 178.898 81.9007 178.782 81.1738C178.667 80.5296 179.278 80.1992 179.889 80.1992C180.5 80.1992 181.095 80.5296 180.996 81.1738Z" fill="#D1C5A7"/>
<path d="M181.772 95.1651C181.029 95.0329 179.41 94.3226 178.799 93.4471C178.551 93.1498 177.841 91.8283 177.494 90.8702C177.378 90.5563 177.296 90.0938 177.246 89.5982L177.279 89.3835C177.362 87.8968 178.303 85.1382 178.303 84.6426C178.303 84.2957 178.667 84.3783 178.815 84.4609C179.228 84.6922 179.658 84.7913 179.939 84.7913C180.269 84.7913 180.765 84.7087 181.145 84.4444C181.26 84.3618 181.657 84.2792 181.69 84.5435C181.756 85.3034 182.169 87.2195 182.218 88.1446C182.268 88.954 182.086 90.3416 182.136 91.6135C182.169 92.7533 182.532 94.1905 182.73 95.2642C182.35 95.2311 182.07 95.2642 181.789 95.1651H181.772Z" fill="#D1C5A7"/>
<path d="M185.571 95.5126C186.579 95.5126 187.355 95.6778 188.578 95.5787C189.783 95.4795 191.138 95.3143 192.245 94.7362C191.601 94.2076 191.188 93.5468 190.89 93.266C190.593 92.9852 190.362 92.8035 189.701 92.8365C189.04 92.8696 186.777 92.7539 186.298 92.8365H186.149C186.083 93.1174 186.017 93.3651 185.968 93.6129C185.852 94.092 185.654 94.8518 185.571 95.5126Z" fill="#D1C5A7"/>
<path d="M233.889 89.8959C233.245 89.8133 232.386 89.7968 231.808 89.8133C230.337 89.8629 227.314 90.1933 226.076 90.5732C225.993 90.5897 225.927 90.6228 225.844 90.6558H225.563C225.167 90.6558 224.688 90.6558 224.159 90.6558V90.6228C223.779 89.7142 223.565 88.4753 223.614 87.1373V87.0877C224.225 86.873 224.738 86.5096 225.018 86.0636C226.852 85.6011 227.265 83.0572 226.687 81.7522C226.786 81.3722 226.835 81.0088 226.868 80.6785L226.984 80.6289C228.752 79.5717 231.064 79.1257 232.501 79.39C234.55 79.7534 235.508 80.4967 236.73 80.3976C238.217 80.2655 239.258 79.0101 239.637 77.606C240.513 78.498 240.645 79.4726 240.496 80.4637C240.364 81.3888 240.48 82.3799 241.091 83.3215C238.729 83.6849 237.606 82.0826 236.416 83.4206C235.871 84.0318 236.086 85.4524 236.317 86.5096C236.697 88.3101 235.276 89.6977 233.889 89.8959Z" fill="#0B7B75"/>
<path d="M223.614 87.0875C223.168 87.2527 222.689 87.3353 222.21 87.3188C220.971 87.3188 219.947 87.7813 219.253 88.5907C217.287 87.9134 215.586 86.625 214.826 85.2539H214.809C214.859 85.353 214.892 85.4521 214.892 85.5843C214.859 86.1624 214.562 87.1866 214.281 87.6656C214.248 87.7317 214.182 87.7978 214.132 87.8474L214.231 87.8804L215.107 88.2273C215.107 88.2273 215.189 88.2438 215.239 88.2603C215.024 88.888 214.876 89.5158 214.842 90.127V90.2756C215.933 90.4408 218.212 90.5895 219.798 90.639C220.558 90.6555 222.557 90.6721 224.176 90.6721V90.639C223.796 89.7305 223.597 88.4916 223.631 87.1536V87.104L223.614 87.0875Z" fill="#B5131A"/>
<path d="M213.339 87.3683C213.405 86.8728 213.802 85.733 213.984 85.287C214.182 84.7749 214.909 85.0227 214.876 85.6008C214.843 86.179 214.545 87.2032 214.264 87.6822C213.967 88.1943 213.24 87.9795 213.323 87.3518L213.339 87.3683Z" fill="white"/>
<path d="M213.984 85.2379C213.653 84.6267 213.323 84.1146 212.976 83.9164C212.712 83.7677 212.315 83.8008 212.117 83.9164C211.919 84.032 211.737 84.2963 211.82 84.5441C211.555 84.412 211.175 84.4945 210.895 84.7093C210.564 84.9736 210.35 85.5022 210.482 86.0804C210.597 86.5759 210.895 87.121 211.407 87.4349C211.787 87.6662 212.596 87.7983 213.224 87.4184C213.257 87.3853 213.323 87.3688 213.339 87.3523C213.405 86.8402 213.802 85.7335 213.984 85.2875C213.984 85.2875 213.984 85.2709 213.984 85.2544V85.2049V85.2379Z" fill="#B5131A"/>
<path d="M224.523 90.6061C222.937 90.6226 220.806 90.6556 219.798 90.6391C218.213 90.6061 215.949 90.4409 214.843 90.2757C214.231 90.1766 213.785 91.2999 214.793 91.5642C215.388 91.7459 216.115 91.845 217.023 91.845C219.286 91.845 220.443 91.845 221.847 91.7128C223.465 91.5477 224.87 90.953 226.092 90.573C225.613 90.6061 225.051 90.6061 224.539 90.6061H224.523Z" fill="white"/>
<path d="M187.851 95.5451C188.66 95.0165 189.189 92.4726 189.106 91.052C189.04 89.5983 188.892 87.6821 188.082 86.8231C188.082 86.8231 188.016 86.7405 187.917 86.691C187.587 86.691 186.959 86.6745 186.563 86.6084L186.629 86.6745C187.422 87.5335 187.735 89.4662 187.801 90.8868C187.868 92.3074 187.19 95.1321 186.414 95.4955C186.348 95.5451 186.315 95.5451 186.265 95.5616C186.513 95.5616 187.009 95.6111 187.24 95.6277C187.455 95.6277 187.636 95.6277 187.735 95.6277C187.801 95.5946 187.818 95.5946 187.851 95.5616V95.5451Z" fill="#B5131A"/>
<path d="M177.263 89.5163C178.022 90.0779 179.74 90.3918 181.359 89.9623C183.391 89.4172 184.993 87.6001 185.01 86.0308V85.9647C184.845 85.8821 184.564 85.7004 184.366 85.5518V85.6839C184.366 86.6255 183.077 88.3104 181.293 88.806C179.674 89.252 177.956 88.9216 177.196 88.36H177.18C177.18 88.5417 177.18 88.8555 177.196 89.0042C177.196 89.1529 177.229 89.4172 177.229 89.4667C177.229 89.4832 177.263 89.5163 177.263 89.5163Z" fill="#B5131A"/>
<path d="M223.647 78.3324C223.647 78.3324 223.499 78.2828 223.449 78.2167C223.267 77.8368 222.689 77.5725 222.227 77.7707C222.127 77.8203 221.995 77.7707 221.946 77.6551C221.896 77.556 221.946 77.4238 222.061 77.3743C222.689 77.0935 223.532 77.4073 223.829 78.0185C223.878 78.1176 223.829 78.2498 223.73 78.2993C223.697 78.2993 223.664 78.3158 223.631 78.3158L223.647 78.3324Z" fill="#595757"/>
<path d="M219.782 77.3411C219.782 77.3411 219.65 77.3081 219.617 77.2585C219.501 77.1098 219.303 77.0107 219.072 76.9777C218.807 76.9446 218.526 77.0272 218.345 77.1759C218.246 77.2585 218.113 77.242 218.047 77.1429C217.965 77.0603 217.981 76.9116 218.08 76.8455C218.361 76.6143 218.741 76.5151 219.121 76.5482C219.468 76.5812 219.765 76.7464 219.947 76.9777C220.013 77.0768 219.997 77.2089 219.914 77.275C219.881 77.308 219.831 77.3246 219.782 77.3246V77.3411Z" fill="#595757"/>
<path d="M181.97 79.9346C182.125 79.9346 182.251 79.7202 182.251 79.4556C182.251 79.191 182.125 78.9766 181.97 78.9766C181.815 78.9766 181.689 79.191 181.689 79.4556C181.689 79.7202 181.815 79.9346 181.97 79.9346Z" fill="#595757"/>
<path d="M177.989 79.4556C177.989 79.7199 177.857 79.9346 177.708 79.9346C177.56 79.9346 177.427 79.7199 177.427 79.4556C177.427 79.1913 177.56 78.9766 177.708 78.9766C177.857 78.9766 177.989 79.1913 177.989 79.4556Z" fill="#595757"/>
<g style="mix-blend-mode:multiply">
<path d="M182.119 81.7188C182.119 81.7188 182.004 81.7518 182.004 81.8179C181.954 82.2804 181.64 82.7099 181.178 82.9081C180.765 83.0898 180.352 83.0568 180.153 82.8255C180.104 82.7759 180.087 82.6108 180.071 82.4621C180.071 82.4125 180.071 82.363 180.071 82.3465C180.005 82.3465 179.955 82.363 179.889 82.363C179.889 82.363 179.873 82.363 179.856 82.363C179.856 82.3795 179.856 82.4291 179.856 82.4786C179.856 82.6438 179.823 82.7925 179.773 82.842C179.559 83.0568 179.146 83.0898 178.733 82.9246C178.27 82.7264 177.956 82.2969 177.907 81.8344C177.907 81.7683 177.841 81.7353 177.791 81.7353C177.725 81.7353 177.692 81.8013 177.692 81.8509C177.742 82.396 178.122 82.8916 178.65 83.1228C178.848 83.2054 179.063 83.255 179.245 83.255C179.509 83.255 179.757 83.1724 179.922 83.0072C179.922 83.0072 179.939 82.9742 179.955 82.9742C179.955 82.9742 179.955 83.0072 179.988 83.0072C180.153 83.1724 180.385 83.2715 180.649 83.2715C180.847 83.2715 181.045 83.222 181.26 83.1394C181.789 82.9081 182.152 82.4125 182.218 81.8674C182.218 81.8013 182.185 81.7518 182.119 81.7518V81.7188Z" fill="#808080"/>
</g>
<path d="M210.614 85.0556C207.657 85.1217 205.08 86.1128 203.626 87.8142C202.404 89.2348 201.132 91.1841 200.95 94.8182C200.917 95.3964 200.901 95.9745 200.884 96.5196C200.802 99.0305 200.752 101.029 199.497 101.954C199.166 102.202 198.72 102.334 198.373 102.367C198.307 102.202 198.258 101.987 198.192 101.789C198.192 101.789 198.208 101.789 198.225 101.789C198.489 101.789 198.886 101.673 199.15 101.475C200.174 100.715 200.24 98.8488 200.306 96.5031C200.306 95.958 200.339 95.3798 200.372 94.7852C200.521 91.7622 201.38 89.5652 203.197 87.4343C204.898 85.452 207.987 84.3453 211.489 84.4774C211.291 84.4939 211.093 84.5765 210.928 84.7087C210.812 84.7913 210.713 84.9234 210.63 85.0556H210.614Z" fill="#595757"/>
<path d="M194.327 98.8659C194.029 98.1556 193.748 97.3957 193.451 96.6028C193.286 96.1733 193.121 95.7273 192.955 95.2979C193.154 95.4796 193.352 95.6778 193.534 95.8595C193.914 96.7185 194.376 97.627 194.723 98.3373C195.02 98.932 195.466 99.7414 196.061 100.435C196.094 100.551 196.111 100.666 196.144 100.749C196.193 100.947 196.226 101.179 196.243 101.426C196.21 101.426 196.16 101.393 196.127 101.36C195.318 100.617 194.723 99.6258 194.327 98.8659Z" fill="#595757"/>
<g style="mix-blend-mode:multiply">
<path d="M217.866 94.1081C219.336 94.1081 221.054 94.042 222.094 93.8768C223.895 93.596 225.134 93.2326 226.439 92.7536C227.826 92.258 229.577 91.9276 231.758 91.7789C231.923 91.7789 232.039 91.6303 232.039 91.4651C232.039 91.2999 231.89 91.1843 231.725 91.1843C229.495 91.3495 227.694 91.6798 226.257 92.1919C224.985 92.6544 223.779 93.0179 222.028 93.2822C220.343 93.5465 216.66 93.5465 215.619 93.4143C214.248 93.2326 212.927 92.7701 212.233 91.9937C212.101 91.845 211.968 91.6964 211.853 91.5807C211.027 90.6391 210.482 90.094 209.012 89.7637C208.846 89.7306 208.698 89.8297 208.665 89.9949C208.632 90.1601 208.731 90.3088 208.896 90.3418C210.184 90.6391 210.614 91.0521 211.423 91.9772C211.539 92.1093 211.671 92.258 211.803 92.4067C212.596 93.2987 214.066 93.8438 215.553 94.009C215.999 94.0585 216.891 94.1081 217.899 94.1081H217.866Z" fill="#808080"/>
</g>
<path d="M198.621 103.276C199.414 103.144 200.223 102.764 200.785 102.252C202.189 100.963 202.206 98.6011 202.222 95.3469V95.1321C202.239 92.1257 203.098 89.714 204.783 87.963C205.84 86.8727 208.318 85.9807 210.448 85.8486C210.448 85.6338 210.449 85.4356 210.531 85.2539C208.235 85.353 205.542 86.3276 204.37 87.55C202.569 89.4166 201.661 91.9771 201.644 95.1321V95.3469C201.627 98.4689 201.611 100.715 200.405 101.822C199.91 102.268 199.199 102.599 198.505 102.698C197.878 102.78 196.936 102.665 196.308 102.103C196.16 101.971 196.011 101.822 195.895 101.69C195.334 101.046 194.822 100.022 194.343 98.8489C194.045 98.1386 193.765 97.3787 193.467 96.5858C193.302 96.1563 193.137 95.7103 192.972 95.2808C192.889 95.0496 192.79 94.8183 192.707 94.587C191.749 92.1753 190.659 89.9783 189.04 88.9211C189.007 88.9046 188.974 88.888 188.941 88.888C188.991 89.1523 189.024 89.4001 189.04 89.6644C190.329 90.7051 191.303 92.7039 192.146 94.7853C192.41 95.4625 192.674 96.1398 192.922 96.8005C193.731 98.948 194.491 100.963 195.466 102.087C195.664 102.301 195.945 102.566 196.16 102.747C196.176 102.764 196.226 102.797 196.259 102.813C196.804 103.193 197.779 103.408 198.671 103.276H198.621Z" fill="#595757"/>
</svg>
