<svg width="153" height="48" viewBox="0 0 153 48" fill="none" xmlns="http://www.w3.org/2000/svg">
<g clip-path="url(#clip0_1073_3430)">
<path d="M87.4498 9.96387L84.6606 17.905L86.4632 19.7928L89.3011 10.2196L87.4498 9.96387Z" fill="#A71C1B"/>
<path d="M82.0908 10.4024L84.9165 20.1339H86.7922L83.8934 10.1953L82.0908 10.4024Z" fill="#A71C1B"/>
<path d="M89.6667 9.95136L89.3013 21.79H92.1026L91.384 9.81738L89.6667 9.95136Z" fill="#A71C1B"/>
<path d="M103.198 7.47865L102.845 21.7897H105.646L104.916 7.32031L103.198 7.47865Z" fill="#A71C1B"/>
<path d="M96.3288 14.9932L102.845 20.1452L101.298 22.2401L95.123 16.6374L96.3288 14.9932Z" fill="#A71C1B"/>
<path d="M96.6942 6.89453C96.6942 6.89453 102.431 7.32082 101.493 12.3388C101.14 14.2389 98.7769 16.1145 96.5602 16.0902L96.3044 14.3607C96.3044 14.3607 99.9827 13.4715 99.3372 10.2683C99.0449 8.8311 96.8404 8.39263 96.4993 8.39263L96.682 6.89453H96.6942Z" fill="#A71C1B"/>
<path d="M97.2911 22.3866L96.8161 6.05371H94.1974L93.9539 22.3866H97.2911Z" fill="#A71C1B"/>
<path d="M116.267 16.5521H114.611V21.6067H111.785V16.5521H106.73L106.134 14.1162L111.736 0H114.623V14.1162H116.279V16.5521H116.267ZM112.077 5.74879H111.931L109.191 14.1162H111.87L112.077 5.74879Z" fill="#A71C1B"/>
<path d="M131.358 16.3816H128.069V15.2611L131.358 14.9688V16.3816Z" fill="#A71C1B"/>
<path d="M127.326 20.5106L131.394 8.72073L128.581 5.90723L123.928 20.5106H127.326Z" fill="#A71C1B"/>
<path d="M135.011 20.5109L130.992 4.94531L128.069 5.39596L131.747 20.5109H135.011Z" fill="#A71C1B"/>
<path d="M119.312 4.40972L118.934 20.9984H122.247L121.687 4.21484L119.312 4.40972Z" fill="#A71C1B"/>
<path d="M126.376 6.04159H114.891L115.524 2.78962L125.901 2.3877L126.376 6.04159Z" fill="#A71C1B"/>
<path d="M61.3245 3.37402C61.3245 3.37402 50.8987 3.69069 51.6051 14.2505C51.9096 18.7935 57.0494 21.8384 61.5194 21.8018L62.0431 18.3306C62.0431 18.3306 53.8218 17.4781 55.8437 10.1094C56.9764 6.00483 61.0078 6.37022 61.6899 6.37022L61.3245 3.37402Z" fill="#A71C1B"/>
<path d="M79.2286 7.58802L78.7415 22.1792L82.1518 22.1914L81.3235 7.42969L79.2286 7.58802Z" fill="#A71C1B"/>
<path d="M74.308 13.0447L64.272 13.0082L64.2842 9.48828L74.3202 10.7428L74.308 13.0447Z" fill="#A71C1B"/>
<path d="M66.647 21.8873L67.3169 1.9248L62.104 2.52161L63.8213 21.802L66.647 21.8873Z" fill="#A71C1B"/>
<path d="M73.4797 2.16797L72.8098 21.8259L77.1214 21.8503L76.3054 2.5699L73.4797 2.16797Z" fill="#A71C1B"/>
<path d="M119.86 25.4311H120.981V26.9779H119.933V30.2786H117.814V26.9779H117.107V25.4311H117.814V25.4067C117.814 24.0913 118.642 23.2388 120.104 23.2388C120.554 23.2388 121.054 23.324 121.358 23.4945L120.847 24.9683C120.7 24.9074 120.542 24.8465 120.372 24.8465C120.067 24.8465 119.86 25.0292 119.86 25.4311ZM121.005 23.6529C121.005 23.0439 121.504 22.5811 122.284 22.5811C123.063 22.5811 123.563 23.0073 123.563 23.6163C123.563 24.2618 123.063 24.7369 122.284 24.7369C121.504 24.7369 121.005 24.274 121.005 23.665V23.6529ZM121.224 25.1388H123.343V30.2664H121.224V25.1388Z" fill="#A71C1B"/>
<path d="M49.364 22.4961H51.5685V27.3436H54.5282V29.0609H49.364V22.5083V22.4961Z" fill="#A71C1B"/>
<path d="M60.1797 26.2957V29.0483H58.2066V28.3784C57.963 28.89 57.4758 29.1458 56.7572 29.1458C55.5027 29.1458 54.8572 28.4393 54.8572 27.5502C54.8572 26.5637 55.6123 26.0034 57.1957 26.0034H58.0482C57.9873 25.6137 57.6829 25.4066 57.0861 25.4066C56.6232 25.4066 56.1117 25.5528 55.7707 25.8085L55.1008 24.4079C55.6976 24.0303 56.611 23.8232 57.4027 23.8232C59.1688 23.8232 60.1797 24.5784 60.1797 26.2835V26.2957ZM58.0604 27.3797V27.0265H57.5367C57.0861 27.0265 56.8912 27.1726 56.8912 27.4528C56.8912 27.6842 57.0739 27.8669 57.4027 27.8669C57.695 27.8669 57.9508 27.7207 58.0726 27.3797H58.0604Z" fill="#A71C1B"/>
<path d="M60.8374 31.9834L61.3489 30.5097C61.4951 30.5827 61.6534 30.6315 61.824 30.6315C62.0797 30.6315 62.2624 30.4488 62.2624 30.0468V25.1993H64.3817V30.059C64.3817 31.3744 63.5535 32.227 62.1406 32.227C61.6413 32.227 61.1663 32.1417 60.8374 31.9712V31.9834ZM62.0432 23.7134C62.0432 23.1044 62.5426 22.6416 63.3221 22.6416C64.1015 22.6416 64.6009 23.0679 64.6009 23.6769C64.6009 24.3224 64.1015 24.7974 63.3221 24.7974C62.5426 24.7974 62.0432 24.3346 62.0432 23.7256V23.7134Z" fill="#A71C1B"/>
<path d="M70.3009 25.1992V30.3269H68.2912V29.8397C67.9015 30.2294 67.3899 30.4243 66.8418 30.4243C65.6117 30.4243 64.686 29.7057 64.686 28.0371V25.2114H66.8053V27.6717C66.8053 28.4025 67.0611 28.6461 67.4752 28.6461C67.8406 28.6461 68.1938 28.3781 68.1938 27.6108V25.1992H70.313H70.3009Z" fill="#A71C1B"/>
<path d="M76.5612 25.2V29.3046C76.5612 31.2899 75.4042 32.2399 73.4432 32.2399C72.4323 32.2399 71.5189 32.0206 70.8733 31.6065L71.5798 30.1693C71.9817 30.4738 72.6637 30.6809 73.224 30.6809C74.1009 30.6809 74.442 30.2911 74.442 29.6091V29.5116C74.1253 29.877 73.6503 30.0597 73.0291 30.0597C71.7259 30.0597 70.5688 29.1097 70.5688 27.5872C70.5688 26.0648 71.7259 25.127 73.0291 25.127C73.7356 25.127 74.2227 25.3462 74.5516 25.7968V25.2122H76.5612V25.2ZM74.4663 27.5751C74.4663 27.0757 74.0888 26.759 73.5894 26.759C73.09 26.759 72.7125 27.0757 72.7125 27.5751C72.7125 28.0744 73.1022 28.4033 73.5894 28.4033C74.0766 28.4033 74.4663 28.0744 74.4663 27.5751Z" fill="#A71C1B"/>
<path d="M82.4928 25.1992V30.3269H80.4831V29.8397C80.0934 30.2294 79.5818 30.4243 79.0337 30.4243C77.8036 30.4243 76.8779 29.7057 76.8779 28.0371V25.2114H78.9972V27.6717C78.9972 28.4025 79.253 28.6461 79.6671 28.6461C80.0325 28.6461 80.3857 28.3781 80.3857 27.6108V25.1992H82.5049H82.4928Z" fill="#A71C1B"/>
<path d="M88.2416 28.2566H84.6851C84.8313 28.6464 85.1967 28.8534 85.7204 28.8534C86.1832 28.8534 86.4512 28.7316 86.7922 28.4758L87.9006 29.5964C87.4012 30.1445 86.6826 30.4246 85.6595 30.4246C83.7717 30.4246 82.5537 29.2919 82.5537 27.7694C82.5537 26.247 83.796 25.1143 85.4525 25.1143C86.9749 25.1143 88.266 26.0277 88.266 27.7694C88.266 27.9156 88.2416 28.1104 88.2416 28.2688V28.2566ZM84.6486 27.2335H86.2929C86.2076 26.8072 85.9031 26.5515 85.4646 26.5515C85.0262 26.5515 84.7217 26.8072 84.6364 27.2335H84.6486Z" fill="#A71C1B"/>
<path d="M92.5166 30.1445C92.1877 30.3272 91.7127 30.4124 91.2133 30.4124C89.8005 30.4124 88.9723 29.7425 88.9723 28.3297V27.0143H88.2659V25.4675H88.9723V24.0303H91.0915V25.4675H92.139V27.0143H91.0915V28.3053C91.0915 28.622 91.2742 28.8047 91.53 28.8047C91.7005 28.8047 91.871 28.756 92.005 28.6585L92.5166 30.1323V30.1445Z" fill="#A71C1B"/>
<path d="M97.9367 28.2566H94.3802C94.5264 28.6464 94.8918 28.8534 95.4155 28.8534C95.8783 28.8534 96.1463 28.7316 96.4873 28.4758L97.5956 29.5964C97.0963 30.1445 96.3777 30.4246 95.3546 30.4246C93.4667 30.4246 92.2488 29.2919 92.2488 27.7694C92.2488 26.247 93.4911 25.1143 95.1475 25.1143C96.67 25.1143 97.961 26.0277 97.961 27.7694C97.961 27.9156 97.9367 28.1104 97.9367 28.2688V28.2566ZM94.3437 27.2335H95.9879C95.9027 26.8072 95.5982 26.5515 95.1597 26.5515C94.7212 26.5515 94.4168 26.8072 94.3315 27.2335H94.3437Z" fill="#A71C1B"/>
<path d="M101.907 25.1143V26.9899C101.724 26.9656 101.59 26.9534 101.444 26.9534C100.811 26.9534 100.36 27.2457 100.36 28.0617V30.3393H98.241V25.2117H100.251V25.7598C100.628 25.3335 101.201 25.1143 101.907 25.1143Z" fill="#A71C1B"/>
<path d="M102.151 25.2H104.27V30.3276H102.151V25.2ZM103.466 23.1416H105.476L103.637 24.6397H102.236L103.478 23.1416H103.466Z" fill="#A71C1B"/>
<path d="M109.921 27.575V30.3276H107.948V29.6577C107.705 30.1693 107.218 30.425 106.499 30.425C105.244 30.425 104.599 29.7186 104.599 28.8295C104.599 27.843 105.354 27.2827 106.937 27.2827H107.79C107.729 26.8929 107.425 26.6859 106.828 26.6859C106.365 26.6859 105.853 26.832 105.512 27.0878L104.842 25.6872C105.439 25.3096 106.353 25.1025 107.144 25.1025C108.91 25.1025 109.921 25.8577 109.921 27.5628V27.575ZM107.802 28.659V28.3058H107.278C106.828 28.3058 106.633 28.4519 106.633 28.7321C106.633 28.9635 106.816 29.1462 107.144 29.1462C107.437 29.1462 107.693 29 107.814 28.659H107.802Z" fill="#A71C1B"/>
<path d="M111.078 27.7577C111.078 26.1987 112.321 25.1025 114.062 25.1025C115.804 25.1025 117.046 26.1987 117.046 27.7577C117.046 29.3167 115.804 30.4129 114.062 30.4129C112.321 30.4129 111.078 29.3045 111.078 27.7577ZM114.891 27.7577C114.891 27.0878 114.525 26.759 114.062 26.759C113.6 26.759 113.234 27.1 113.234 27.7577C113.234 28.4154 113.6 28.7686 114.062 28.7686C114.525 28.7686 114.891 28.4276 114.891 27.7577Z" fill="#A71C1B"/>
<path d="M123.757 27.7577C123.757 26.1987 125.012 25.1025 126.778 25.1025C128.02 25.1025 128.958 25.675 129.299 26.625L127.655 27.4289C127.436 26.9538 127.131 26.759 126.766 26.759C126.291 26.759 125.889 27.1 125.889 27.7577C125.889 28.4154 126.279 28.7686 126.766 28.7686C127.131 28.7686 127.436 28.5737 127.655 28.0987L129.299 28.9026C128.958 29.8526 128.02 30.425 126.778 30.425C125.012 30.425 123.757 29.3289 123.757 27.7699V27.7577Z" fill="#A71C1B"/>
<path d="M129.348 23.7134C129.348 23.1044 129.847 22.6416 130.627 22.6416C131.406 22.6416 131.906 23.0679 131.906 23.6769C131.906 24.3224 131.406 24.7974 130.627 24.7974C129.847 24.7974 129.348 24.3346 129.348 23.7256V23.7134ZM129.567 25.1993H131.686V30.327H129.567V25.1993Z" fill="#A71C1B"/>
<path d="M137.289 27.575V30.3276H135.316V29.6577C135.072 30.1693 134.585 30.425 133.867 30.425C132.612 30.425 131.967 29.7186 131.967 28.8295C131.967 27.843 132.722 27.2827 134.305 27.2827H135.158C135.097 26.8929 134.792 26.6859 134.195 26.6859C133.733 26.6859 133.221 26.832 132.88 27.0878L132.21 25.6872C132.807 25.3096 133.72 25.1025 134.512 25.1025C136.278 25.1025 137.289 25.8577 137.289 27.5628V27.575ZM135.17 28.659V28.3058H134.646C134.195 28.3058 134.001 28.4519 134.001 28.7321C134.001 28.9635 134.183 29.1462 134.512 29.1462C134.804 29.1462 135.06 29 135.182 28.659H135.17Z" fill="#A71C1B"/>
<path d="M137.606 23.373H139.725V30.3276H137.606V23.373Z" fill="#A71C1B"/>
<path d="M60.2649 30.5835V45.0529H56.0751V44.176C55.4296 44.8946 54.4796 45.2478 53.152 45.2478C50.3629 45.2478 48 43.1407 48 39.706C48 36.2714 50.3629 34.1886 53.152 34.1886C54.3212 34.1886 55.2225 34.481 55.8681 35.1021V30.5713H60.2771L60.2649 30.5835ZM55.929 39.7182C55.929 38.3297 55.1738 37.6355 54.1873 37.6355C53.2007 37.6355 52.4456 38.3419 52.4456 39.7182C52.4456 41.0945 53.2007 41.8253 54.1873 41.8253C55.1738 41.8253 55.929 41.1067 55.929 39.7182Z" fill="#A71C1B"/>
<path d="M72.4445 40.7534H65.0271C65.3438 41.5694 66.0746 42.0079 67.1707 42.0079C68.1451 42.0079 68.6932 41.7521 69.3996 41.2284L71.7016 43.5547C70.6663 44.6874 69.1682 45.272 67.0368 45.272C63.1149 45.272 60.5815 42.9092 60.5815 39.7303C60.5815 36.5514 63.1758 34.2129 66.6226 34.2129C69.7772 34.2129 72.4932 36.1251 72.4932 39.7303C72.4932 40.0469 72.4567 40.4489 72.4323 40.7655L72.4445 40.7534ZM64.954 38.6219H68.3887C68.2182 37.7206 67.5727 37.1969 66.6714 37.1969C65.7701 37.1969 65.1246 37.7206 64.954 38.6219Z" fill="#A71C1B"/>
<path d="M76.4517 43.9682L77.9376 40.6187C79.2286 41.3739 80.946 41.8733 82.4441 41.8733C83.7473 41.8733 84.2223 41.6053 84.2223 41.1303C84.2223 39.413 76.6709 40.8014 76.6709 35.7104C76.6709 33.177 78.8023 31.1064 83.0287 31.1064C84.8678 31.1064 86.7556 31.4962 88.1807 32.3001L86.7922 35.6373C85.4402 34.9552 84.1736 34.6264 82.9921 34.6264C81.6402 34.6264 81.2139 35.0161 81.2139 35.4789C81.2139 37.1232 88.7653 35.7469 88.7653 40.7893C88.7653 43.2861 86.6339 45.3932 82.4075 45.3932C80.1299 45.3932 77.828 44.8329 76.4638 43.9925L76.4517 43.9682Z" fill="#A71C1B"/>
<path d="M99.9827 39.3278V45.0644H95.8903V43.6638C95.3788 44.7356 94.3679 45.2593 92.8698 45.2593C90.2511 45.2593 88.9114 43.7734 88.9114 41.9465C88.9114 39.8759 90.4704 38.731 93.7832 38.731H95.5615C95.4275 37.915 94.8063 37.4765 93.5518 37.4765C92.6018 37.4765 91.5178 37.7932 90.8236 38.3169L89.4229 35.406C90.6774 34.6265 92.5653 34.2002 94.2217 34.2002C97.8878 34.2002 99.9949 35.7836 99.9949 39.3278H99.9827ZM95.5736 41.5932V40.8503H94.4775C93.5396 40.8503 93.1255 41.167 93.1255 41.7516C93.1255 42.2388 93.5153 42.6042 94.173 42.6042C94.782 42.6042 95.3179 42.2875 95.5615 41.5932H95.5736Z" fill="#A71C1B"/>
<path d="M112.418 38.9751V45.0649H108.009V39.7424C108.009 38.4148 107.498 37.9033 106.706 37.9033C105.805 37.9033 105.049 38.4635 105.049 40.0469V45.0649H100.64V34.3955H104.83V35.443C105.671 34.6026 106.803 34.1885 108.046 34.1885C110.506 34.1885 112.418 35.6135 112.418 38.9629V38.9751Z" fill="#A71C1B"/>
<path d="M121.334 44.6868C120.652 45.0765 119.653 45.247 118.618 45.247C115.67 45.247 113.953 43.8586 113.953 40.9111V38.1828H112.491V34.9674H113.953V31.9834H118.362V34.9674H120.542V38.1828H118.362V40.8745C118.362 41.5322 118.752 41.9098 119.275 41.9098C119.628 41.9098 119.982 41.8124 120.274 41.6175L121.321 44.6746L121.334 44.6868Z" fill="#A71C1B"/>
<path d="M132.161 39.3278V45.0644H128.069V43.6638C127.557 44.7356 126.547 45.2593 125.048 45.2593C122.43 45.2593 121.09 43.7734 121.09 41.9465C121.09 39.8759 122.649 38.731 125.962 38.731H127.74C127.606 37.915 126.985 37.4765 125.731 37.4765C124.781 37.4765 123.697 37.7932 123.002 38.3169L121.602 35.406C122.856 34.6265 124.744 34.2002 126.4 34.2002C130.066 34.2002 132.174 35.7836 132.174 39.3278H132.161ZM127.752 41.5932V40.8503H126.656C125.718 40.8503 125.304 41.167 125.304 41.7516C125.304 42.2388 125.694 42.6042 126.352 42.6042C126.961 42.6042 127.497 42.2875 127.74 41.5932H127.752Z" fill="#A71C1B"/>
<path d="M143.245 20.9487L152.696 23.6769L146.741 38.3778L140.444 36.5508L143.245 20.9365V20.9487ZM137.374 41.6663C138.056 39.3156 140.456 38.0855 143.196 38.865C145.937 39.6445 147.301 41.983 146.619 44.3336C145.937 46.6843 143.513 47.9875 140.785 47.1958C138.056 46.4042 136.704 43.9682 137.374 41.6541V41.6663Z" fill="#F7B744"/>
<path d="M48.4872 46.4897L39.1698 48L38.2928 32.7998L44.5045 31.7889L48.4872 46.4776V46.4897ZM45.0647 26.1132C45.4423 28.4273 43.8589 30.4857 41.1672 30.9241C38.4755 31.3626 36.3319 29.9011 35.9543 27.5869C35.589 25.3093 37.1479 23.1413 39.8396 22.7029C42.5314 22.2644 44.6993 23.8234 45.0647 26.101V26.1132Z" fill="#F7B744"/>
<path d="M26.3933 17.3198C26.308 17.2954 26.2106 17.2832 26.1253 17.271C26.1862 17.2102 26.2593 17.1493 26.3324 17.0884C26.3689 17.064 26.3933 17.0396 26.4298 17.0031C26.5394 16.93 26.6247 16.8204 26.6612 16.6986C26.6978 16.5646 26.6734 16.4063 26.6125 16.2845C26.5882 16.248 26.5516 16.2114 26.5273 16.1749C26.4298 16.0653 26.2837 16.0287 26.1497 16.0165C25.9183 16.0165 25.7599 16.1871 25.5894 16.321C25.358 16.5159 25.1388 16.723 24.9317 16.93C24.6638 17.198 24.4202 17.4659 24.1766 17.7582C24.1522 17.7217 24.1279 17.6852 24.1157 17.6486C23.9452 17.4172 23.7747 17.1858 23.5311 17.0153C23.3605 16.8935 23.1778 16.8082 22.983 16.7351C22.8612 16.6864 22.7516 16.6499 22.6298 16.6133C22.8003 16.3698 22.9221 16.0896 22.9952 15.8095C23.0926 15.8095 23.1778 15.8095 23.2753 15.7973C23.4702 15.7973 23.6772 15.7973 23.8721 15.7973C24.0061 15.7973 24.14 15.8217 24.2618 15.7486C24.4567 15.6755 24.5907 15.4685 24.5907 15.2614C24.5907 14.9691 24.3471 14.7255 24.0548 14.7255C23.8355 14.7255 23.6163 14.7255 23.3971 14.7255C23.2509 14.7255 23.117 14.7255 22.9708 14.7499C22.8003 14.1043 22.3131 13.5197 21.6798 13.3005C21.5458 13.2518 21.3996 13.2274 21.2535 13.2152C21.3022 13.1056 21.3144 12.9838 21.2778 12.862C21.156 12.4357 20.6079 12.3383 20.34 12.6671C20.34 12.6671 20.34 12.6671 20.3278 12.6793C20.2913 12.7037 20.2669 12.728 20.2304 12.7524C20.1329 12.5941 20.0233 12.4357 19.9137 12.2896C19.8041 12.1191 19.6823 11.9607 19.5727 11.8024C19.524 11.7293 19.4752 11.6562 19.4143 11.5953C19.3413 11.5344 19.256 11.4857 19.1707 11.4492C19.0368 11.4005 18.8663 11.4248 18.7445 11.4979C18.6714 11.5466 18.5983 11.6075 18.5252 11.6684C18.3547 11.8024 18.1842 11.9485 18.0137 12.0825C17.8432 12.2165 17.6848 12.3505 17.5143 12.4723C17.4169 12.5453 17.3316 12.6184 17.2707 12.728C17.2342 12.8133 17.1855 12.8986 17.1976 13.0082C17.1976 13.0569 17.1976 13.0812 17.222 13.1665C17.2585 13.3005 17.356 13.4101 17.4291 13.5319C17.6117 13.8607 17.7944 14.2018 17.965 14.5306C17.9284 14.5672 17.8797 14.6037 17.8432 14.6402C17.5752 14.8351 17.5265 15.2249 17.7701 15.4685C17.9771 15.6755 18.3182 15.6755 18.5252 15.4685C18.5739 15.4319 18.6105 15.3954 18.6592 15.3467C18.647 15.4928 18.647 15.639 18.6592 15.7851C18.6957 16.1871 18.8175 16.5281 19.0489 16.8204C19.0489 16.8326 19.0733 16.8569 19.0855 16.8691C18.8175 17.1005 18.5739 17.3685 18.3425 17.6364C18.1842 17.8191 18.038 18.0018 17.9041 18.2089C17.5143 17.8435 17.1246 17.4781 16.7714 17.1005C16.747 17.0762 16.7105 17.0518 16.6861 17.0275C16.6861 17.0275 16.6861 17.0275 16.6861 17.0153C16.6861 16.9787 16.6739 16.93 16.6617 16.8935C16.613 16.6621 16.5765 16.4428 16.5399 16.2114C16.5278 16.0896 16.5156 15.9556 16.4181 15.8704C16.2963 15.6877 16.0528 15.6268 15.8579 15.6755C15.5777 15.7608 15.4072 16.0531 15.4803 16.3332C15.4803 16.4063 15.4803 16.3576 15.4803 16.2967C15.4803 16.3698 15.5047 16.4307 15.5047 16.5037C15.4438 16.4672 15.3707 16.4307 15.2976 16.4307C15.0906 16.3819 14.8713 16.5037 14.7617 16.6864C14.6156 16.9422 14.7008 17.271 14.9566 17.4172C15.1393 17.5146 15.322 17.5877 15.5047 17.6486C15.6021 17.673 15.6995 17.6973 15.797 17.7217C15.8335 17.7704 15.8822 17.8191 15.9431 17.8435C15.9797 17.8679 16.0162 17.88 16.0528 17.8922C16.0528 17.8922 16.0649 17.9044 16.0771 17.9166C15.9066 17.9531 15.7361 18.0018 15.5656 18.0262C15.4316 18.0627 15.3098 18.148 15.2489 18.2698C15.1758 18.3916 15.1515 18.5499 15.2002 18.6839C15.2854 18.964 15.5777 19.1345 15.8579 19.0615C16.1867 19.0006 16.5156 18.9031 16.8444 18.8422C16.8444 18.8422 16.8566 18.8422 16.8688 18.8422C16.9175 18.8422 16.9662 18.8422 17.0149 18.8422C17.1367 18.964 17.2707 19.0858 17.3925 19.1954C17.3194 19.3781 17.2707 19.5486 17.222 19.7435C17.088 20.4621 17.0149 21.2051 17.088 21.9359C17.1855 22.6788 17.2951 23.4583 17.7092 24.116C17.8919 24.384 18.1355 24.591 18.4034 24.7737C18.6105 24.9077 18.8419 25.0051 19.0855 25.066C19.2682 25.1147 19.4631 25.1269 19.6579 25.1513C20.072 25.2 20.4983 25.2122 20.9124 25.1513C21.3996 25.1026 21.899 25.0538 22.3862 24.9686C22.7881 24.9077 23.19 24.8468 23.5798 24.7372C23.8234 24.6519 24.0548 24.5423 24.2862 24.4205C24.4445 24.3352 24.5907 24.2378 24.7247 24.1282C24.8465 24.0308 24.9683 23.9211 25.0657 23.7872C25.1266 23.7019 25.1997 23.6288 25.2484 23.5436C25.2971 23.4461 25.3336 23.3487 25.3702 23.2513C25.4676 22.9468 25.4798 22.6179 25.4676 22.2891C25.4676 21.875 25.4067 21.473 25.3336 21.0711C25.2606 20.6205 25.1631 20.1698 25.0048 19.7313C24.9195 19.4999 24.8221 19.2563 24.7247 19.0249C24.7247 18.9884 24.7125 18.9397 24.7003 18.9031C24.883 18.6717 25.0657 18.4525 25.2606 18.2332C25.5651 18.2941 25.8696 18.3185 26.1619 18.3794C26.2958 18.4159 26.4542 18.3916 26.576 18.3307C26.6978 18.2576 26.783 18.148 26.8196 18.014C26.8926 17.7339 26.7343 17.4294 26.442 17.3563L26.3933 17.3198ZM21.9355 14.6524C21.9355 14.6524 21.9842 14.7499 21.9964 14.8108C21.9964 14.8229 21.9964 14.8473 21.9964 14.8595C21.9964 14.8717 21.9964 14.8838 21.9964 14.9082C21.9964 14.9447 21.9964 14.9691 21.9964 14.9935C21.9964 15.0056 21.9964 15.0178 21.9964 15.03C21.9964 15.0422 21.9964 15.0544 21.9842 15.0665C21.9842 15.0665 21.9842 15.0909 21.9721 15.1031C21.9721 15.1152 21.9599 15.1274 21.9477 15.1396C21.8868 15.2127 21.8015 15.2736 21.7041 15.2979C21.6798 15.2979 21.6554 15.2979 21.6432 15.2979C21.5458 15.3345 21.4483 15.3223 21.3509 15.2736C21.2778 15.2249 21.1926 15.164 21.1438 15.0787C21.0829 14.9813 21.0586 14.8473 21.1073 14.7377C21.1438 14.5672 21.2656 14.421 21.4483 14.3845C21.6432 14.3358 21.8503 14.4088 21.9599 14.5915L21.9355 14.6524ZM18.4034 13.0934C18.5496 12.9716 18.7079 12.862 18.8541 12.7402C18.8663 12.728 18.8906 12.7159 18.9028 12.7037C19.0611 12.9229 19.2073 13.1421 19.3534 13.3736C19.1586 13.5197 18.9759 13.6537 18.781 13.812C18.6592 13.5684 18.5252 13.337 18.4034 13.1056V13.0934Z" fill="#A71C1B"/>
<path d="M22.8124 30.8393C22.6419 30.5957 22.2887 30.4861 22.0208 30.5957C21.7772 30.6809 21.5701 30.9489 21.5823 31.2168C21.5823 31.3143 21.5823 31.3995 21.6188 31.4848C21.5823 31.4848 21.5458 31.4848 21.497 31.4848C21.0342 31.4848 21.2291 31.4848 20.7906 31.4361C20.34 31.3752 19.8893 31.2777 19.4387 31.2412C19.3412 31.2412 19.2682 31.229 19.2194 31.2168C19.1585 31.1316 19.0733 31.0585 18.9637 31.022C18.854 30.9733 18.5496 30.7418 18.2207 30.4739C18.2938 29.7309 18.5374 28.8784 18.6105 28.6469C18.8906 27.9892 18.1598 27.3924 17.5752 27.7944C17.4169 27.904 17.3438 28.0867 17.2951 28.2694C17.2585 28.4033 17.2098 28.5373 17.1733 28.6713C17.1002 28.9271 17.0393 29.195 16.9784 29.463C16.8931 29.4021 16.7957 29.3412 16.7104 29.2925C16.4668 29.1463 16.2111 29.0367 15.9553 28.9149C15.8213 28.854 15.6873 28.7809 15.5534 28.7078C15.395 28.6348 15.2002 28.6226 15.0296 28.6835C14.6886 28.8053 14.4937 29.2316 14.6277 29.5726C14.6521 29.6335 14.6886 29.6822 14.713 29.7431C14.8104 29.8771 14.9444 29.9502 15.0905 30.0232C15.322 30.145 15.5655 30.2547 15.797 30.3765C15.5899 30.4373 15.395 30.4982 15.188 30.5713C15.0784 30.6079 14.9566 30.6566 14.8469 30.6931C14.7251 30.7297 14.6034 30.7784 14.5181 30.8758C14.311 31.0463 14.2501 31.3752 14.3476 31.6188C14.4572 31.8624 14.6155 32.0085 14.8713 32.0694C15.0296 32.106 15.1758 32.0694 15.3341 32.0085C15.5046 31.9476 15.6752 31.8867 15.8457 31.838C16.2841 31.6797 16.747 31.5822 17.1976 31.4483C17.2585 31.497 17.3194 31.5457 17.3803 31.5944C17.4899 31.6919 17.6117 31.7771 17.7335 31.8624C17.697 32.0085 17.6726 32.1425 17.6361 32.2887C17.5386 32.8367 17.5508 33.4092 17.4412 33.9451C17.4412 33.9694 17.4412 33.9938 17.429 34.0182C17.3803 34.1765 17.3316 34.3348 17.2585 34.481C17.2585 34.4932 17.2463 34.5175 17.2342 34.5297C17.1733 34.6271 17.1245 34.7124 17.0515 34.7977C17.0271 34.822 17.0027 34.8464 16.9784 34.8707C16.954 34.8951 16.9297 34.9195 16.9053 34.9438C16.82 35.0169 16.7348 35.0778 16.6374 35.1387C16.4912 35.2118 16.345 35.2727 16.1989 35.3457C15.9797 35.4432 15.7604 35.5528 15.529 35.6137C15.2123 35.6746 14.8835 35.7111 14.5546 35.7599C14.0918 35.8329 13.6168 35.8451 13.154 35.9304C12.8129 36.0034 12.4719 36.0887 12.1431 36.2227C11.6681 36.4419 11.2296 36.7342 10.8764 37.124C10.718 37.3067 10.5841 37.5137 10.4745 37.733C10.3527 37.94 10.2552 38.1592 10.17 38.3907C9.93855 38.1227 9.69495 37.8669 9.39046 37.6599C9.09815 37.4528 8.75712 37.331 8.41609 37.3432C8.20903 37.3432 8.00198 37.4041 7.83147 37.5259C7.58787 37.7208 7.49044 38.0009 7.52697 38.3176C7.57569 38.5977 7.72185 38.8413 7.9289 39.0362C8.29429 39.3772 8.78148 39.5112 9.24431 39.6208C9.20777 39.8644 9.19559 40.0958 9.23213 40.3394C9.35392 41.1554 9.70713 42.0689 9.69495 42.2881C9.70713 42.3978 9.71931 42.4952 9.71931 42.6048C9.67059 43.0311 9.60969 43.0798 9.58534 43.1894C9.31738 43.9202 9.17123 44.6875 9.13469 45.467C9.09815 46.0395 9.06161 46.7337 9.52444 47.1478C9.65841 47.2574 9.82893 47.3305 9.99944 47.3549C10.2187 47.3792 10.4379 47.3549 10.645 47.2818C10.6693 47.2818 10.7059 47.2696 10.7302 47.2574C10.7668 47.1965 10.7911 47.1356 10.8277 47.0626C10.8886 46.8921 10.9616 46.7337 11.0347 46.5632C11.0347 46.5632 11.0347 46.5388 11.0469 46.5267C11.0956 46.4049 11.1565 46.2831 11.2052 46.1613C11.2296 46.1004 11.2539 46.0517 11.2783 45.9908C11.327 45.8933 11.3636 45.7959 11.4123 45.6985C11.461 45.601 11.5097 45.5036 11.5584 45.4061C11.6072 45.2965 11.6681 45.1869 11.729 45.0773C11.7533 45.0042 11.7899 44.9433 11.8142 44.8702C11.8507 44.785 11.8873 44.6997 11.936 44.6266C11.936 44.6023 11.9604 44.5901 11.9604 44.5657C11.9969 44.4805 12.0456 44.3952 12.0822 44.3221C12.1431 44.2125 12.204 44.1029 12.2527 43.9933C12.2649 43.9568 12.2892 43.9202 12.3136 43.8959C12.3501 43.8106 12.3988 43.7375 12.4476 43.6523C12.4719 43.6036 12.4963 43.567 12.5206 43.5183C12.5572 43.4452 12.5937 43.3721 12.6424 43.3112C12.6668 43.2625 12.7033 43.2138 12.7277 43.1529C12.7642 43.092 12.8008 43.0189 12.8373 42.958C13.02 42.6535 13.2027 42.349 13.3976 42.0567C13.3976 42.0567 13.3976 42.0446 13.4097 42.0324C13.4706 41.9349 13.5437 41.8497 13.6046 41.7522C13.6168 41.7401 13.629 41.7157 13.6412 41.7035C13.6412 41.7035 13.6412 41.6913 13.6533 41.6792C13.6899 41.6304 13.7264 41.5817 13.763 41.533C13.9091 41.3503 14.0553 41.1676 14.2136 40.9971C14.2501 40.9606 14.2867 40.924 14.3232 40.8875C14.3232 40.8875 14.3354 40.8753 14.3476 40.8631C14.3841 40.8266 14.4207 40.7901 14.4572 40.7535C14.4572 40.7535 14.4694 40.7413 14.4816 40.7292C14.5546 40.6561 14.6277 40.583 14.713 40.5099C14.7251 40.5099 14.7373 40.4856 14.7495 40.4734C14.7739 40.449 14.7982 40.4247 14.8348 40.4003C14.8469 40.3881 14.8591 40.3759 14.8835 40.3638C14.9078 40.3394 14.9322 40.315 14.9687 40.3029C14.9809 40.2907 15.0053 40.2785 15.0175 40.2541C15.0418 40.2298 15.0784 40.2054 15.1027 40.1811C15.1271 40.1689 15.1514 40.1445 15.1636 40.1324C15.188 40.108 15.2123 40.0958 15.2489 40.0715C15.2489 40.0715 15.2489 40.0715 15.2611 40.0715C15.2854 40.0593 15.3098 40.0349 15.3341 40.0227C15.3585 40.0106 15.3707 39.9984 15.395 39.9862C15.395 39.9862 15.4194 39.974 15.4316 39.9618C15.4681 39.9375 15.5046 39.9131 15.5412 39.9009C15.5412 39.9009 15.5655 39.8888 15.5777 39.8766C15.5899 39.8766 15.6021 39.8644 15.6143 39.8522C15.6508 39.8279 15.6873 39.8157 15.7239 39.7913C15.7239 39.7913 15.7361 39.7913 15.7482 39.7791C15.7604 39.7791 15.7848 39.7548 15.797 39.7548C15.8335 39.7304 15.87 39.7182 15.9066 39.7061C15.9431 39.6817 15.9797 39.6695 16.0284 39.6573C16.0284 39.6573 16.0406 39.6573 16.0527 39.6573C16.0893 39.6452 16.138 39.6208 16.1745 39.6086C16.1867 39.6086 16.2111 39.5964 16.2232 39.5843C16.2598 39.5721 16.2963 39.5599 16.3207 39.5477C16.345 39.5477 16.3694 39.5355 16.3938 39.5234C16.4425 39.5112 16.4912 39.499 16.5277 39.4746C16.5886 39.4625 16.6374 39.4381 16.6983 39.4259C16.6983 39.4259 16.7104 39.4259 16.7226 39.4259C16.7713 39.4259 16.82 39.4016 16.8688 39.3894C16.8688 39.3894 16.8809 39.3894 16.8931 39.3894C16.9418 39.3894 17.0027 39.3772 17.0515 39.365C17.0515 39.365 17.0515 39.365 17.0636 39.365C17.1124 39.365 17.1733 39.3529 17.222 39.3529C17.356 39.3529 17.4777 39.3407 17.6117 39.3529C17.6361 39.3529 17.6726 39.3529 17.697 39.3529C17.7213 39.3529 17.7457 39.3529 17.7701 39.3529C17.7944 39.3529 17.831 39.3529 17.8553 39.3529C17.8797 39.3529 17.904 39.3529 17.9284 39.3529C17.9528 39.3529 17.9893 39.3529 18.0137 39.3529C18.038 39.3529 18.0624 39.3529 18.0867 39.365C18.1111 39.365 18.1476 39.365 18.172 39.3772C18.1963 39.3772 18.2329 39.3894 18.2572 39.4016C18.306 39.4016 18.3547 39.4259 18.4034 39.4381C18.4278 39.4381 18.4521 39.4503 18.4887 39.4625C18.513 39.4625 18.5374 39.4746 18.5739 39.4868C18.5983 39.4868 18.6226 39.499 18.647 39.5112C18.6714 39.5112 18.6957 39.5234 18.7201 39.5355C18.7444 39.5355 18.7688 39.5599 18.8053 39.5721C18.8297 39.5721 18.854 39.5964 18.8784 39.5964C18.9028 39.5964 18.9393 39.6208 18.9637 39.633C20.0233 40.0958 20.9368 40.9849 21.7284 41.8619C21.7772 41.9106 21.8137 41.9715 21.8259 42.0446C21.9964 42.1055 22.1791 42.1542 22.3618 42.142C22.5201 42.1176 22.6663 42.0689 22.8003 41.9837C22.9221 41.8862 23.0317 41.7766 23.1291 41.6426C23.7624 40.8753 23.0804 40.2541 22.6054 39.6452C22.0573 38.9387 21.4361 38.2932 20.7784 37.6842C20.681 37.5868 20.5836 37.4772 20.4861 37.3798C20.6201 36.7342 20.7663 36.0887 20.8881 35.4432C20.9489 35.0534 21.0342 34.6759 21.1195 34.2983C21.1438 34.1643 21.1682 34.0182 21.1682 33.872C21.3143 33.7746 21.4483 33.6771 21.6067 33.5919C21.899 33.4335 22.2035 33.2874 22.4836 33.0803C22.6054 32.9707 22.7272 32.8489 22.7881 32.6784C22.8246 32.5566 22.849 32.4226 22.8368 32.2887C22.8368 32.1303 22.8003 31.9842 22.715 31.8502C22.7028 31.8258 22.6785 31.8136 22.6663 31.7893C22.8003 31.6675 22.8977 31.4848 22.8855 31.3021C22.9099 31.1438 22.8368 30.9976 22.7637 30.8636L22.8124 30.8393ZM19.7066 32.313C19.7066 32.313 19.7066 32.3374 19.7188 32.3374C19.7188 32.3496 19.731 32.3739 19.7432 32.3861C19.7432 32.3983 19.7432 32.4226 19.7432 32.4348C19.7432 32.447 19.7432 32.4714 19.7432 32.4835C19.7432 32.5079 19.7432 32.5566 19.7432 32.581C19.7432 32.6175 19.731 32.6419 19.7188 32.6784C19.7188 32.7028 19.6823 32.7393 19.6701 32.7637C19.6457 32.788 19.6214 32.8124 19.597 32.8367C19.5726 32.8489 19.5361 32.8733 19.5118 32.8855C19.4752 32.8976 19.4387 32.9098 19.4021 32.9098C19.4021 32.9098 19.4021 32.9098 19.39 32.9098C19.3656 32.9098 19.3169 32.9098 19.2925 32.9098C19.256 32.9098 19.2194 32.8976 19.1951 32.8733C19.1829 32.8733 19.122 32.8367 19.1098 32.8246C19.0976 32.8246 19.0855 32.8002 19.0733 32.788C19.0367 32.7393 19.0367 32.7515 19.0124 32.7028C18.988 32.654 18.988 32.654 18.9758 32.6053C18.9758 32.581 18.9758 32.5566 18.9637 32.5444C18.9637 32.5201 18.9637 32.4713 18.9637 32.447C18.9637 32.4348 18.9758 32.3983 18.9758 32.3983C18.9758 32.3861 18.9758 32.3617 18.988 32.3496C19.0002 32.313 19.0246 32.2887 19.0489 32.2643C19.0489 32.2643 19.0611 32.2521 19.0733 32.2399C19.0733 32.2399 19.0976 32.2278 19.1098 32.2156C19.122 32.2156 19.1342 32.2034 19.1464 32.1912C19.1464 32.1912 19.1707 32.179 19.1951 32.1669C19.1951 32.1669 19.1951 32.1669 19.2073 32.1669C19.2073 32.1669 19.2073 32.1669 19.2194 32.1669C19.2682 32.1425 19.3169 32.1425 19.3656 32.1425C19.4143 32.1425 19.463 32.1425 19.4996 32.1669C19.5239 32.179 19.5605 32.2034 19.5848 32.2156C19.6092 32.2399 19.6335 32.2643 19.6579 32.2887C19.6579 32.2887 19.6579 32.3008 19.6579 32.313H19.7066Z" fill="#D1C5A7"/>
<path d="M1.76595 32.2891C1.88774 33.3853 2.95955 33.7872 3.87303 33.2878C4.1288 33.1539 4.37239 32.9834 4.59163 32.7885C3.76341 32.1064 2.92301 31.4365 2.05826 30.791C1.88774 31.266 1.71723 31.7776 1.75377 32.2891H1.76595Z" fill="#DF9F64"/>
<path d="M9.01294 31.7774C9.08602 31.7043 9.1591 31.6434 9.23217 31.5704C9.40269 31.412 9.5732 31.2659 9.74372 31.1197C9.84116 31.0345 9.93859 30.9614 10.036 30.8761C10.0604 30.8518 10.0969 30.8274 10.1213 30.803C10.3527 30.6082 10.5841 30.4255 10.8277 30.2306C10.8764 30.1941 10.913 30.1575 10.9617 30.1332C11.0348 30.0844 11.1078 30.0235 11.1809 29.9748C11.1931 29.9748 11.2053 29.9505 11.2296 29.9383C11.2905 29.9017 11.3393 29.853 11.4002 29.8165C11.4611 29.7678 11.5219 29.7312 11.5828 29.6825C11.6437 29.6338 11.7046 29.5973 11.7655 29.5485C11.8264 29.4998 11.8873 29.4633 11.9482 29.4146C12.0091 29.378 12.07 29.3293 12.1309 29.2928C12.2405 29.2197 12.3502 29.1466 12.4598 29.0613C12.4354 28.9517 12.4111 28.8421 12.3867 28.7325C12.2649 28.221 12.0944 27.7216 11.9239 27.2344C11.8995 27.1491 11.863 27.0639 11.8386 26.9786C11.8264 26.9299 11.8021 26.8812 11.7777 26.8325C12.0335 26.6741 12.3014 26.5158 12.5572 26.3575C12.3136 25.8581 12.1066 25.3466 11.9361 24.8228C11.8386 24.5427 11.7655 24.2504 11.6925 23.9581C11.6925 23.9581 11.6681 23.8363 11.6559 23.7876V23.7632C11.6559 23.7145 11.6316 23.6536 11.6194 23.6049C11.6194 23.5805 11.6194 23.5683 11.6072 23.544C11.6072 23.4952 11.5828 23.4344 11.5707 23.3856C11.5707 23.3735 11.5707 23.3491 11.5707 23.3369C11.5098 23.0081 11.4611 22.667 11.4245 22.326C11.1809 22.326 10.9373 22.326 10.7059 22.326C10.5476 22.326 10.3892 22.326 10.2309 22.326C10.6572 21.6927 10.8764 20.9132 10.7912 20.1458C10.8033 19.8779 10.7912 19.6099 10.7181 19.3542C10.5719 18.8792 10.2918 18.4529 9.91424 18.1118C9.62192 17.8561 9.26871 17.6856 8.89114 17.5881C8.4405 17.4907 7.97767 17.5029 7.5392 17.5881C7.13728 17.6247 6.73535 17.7343 6.36996 17.9413C6.01675 18.1484 5.70008 18.4285 5.48084 18.7817C5.48084 18.7939 5.45648 18.8061 5.4443 18.8183C5.17635 19.1349 4.99366 19.5003 4.85968 19.8901C4.62827 20.56 4.70134 21.2907 4.9693 21.9363C4.49429 21.9119 4.01928 21.8997 3.55646 21.8754C3.58082 21.9972 3.593 22.1189 3.61736 22.2407C3.61736 22.2651 3.61736 22.2895 3.61736 22.3138C3.61736 22.3625 3.61736 22.3991 3.62954 22.4478C3.62954 22.4722 3.62954 22.4965 3.62954 22.5209C3.62954 22.5696 3.62954 22.6061 3.64172 22.6549C3.64172 22.6792 3.64172 22.7036 3.64172 22.7279C3.64172 22.7766 3.64172 22.8132 3.64172 22.8619C3.64172 22.8863 3.64172 22.9106 3.64172 22.935C3.64172 22.9837 3.64172 23.0202 3.64172 23.069C3.64172 23.0933 3.64172 23.1177 3.64172 23.142C3.64172 23.1786 3.64172 23.2273 3.64172 23.2638C3.64172 23.2882 3.64172 23.3126 3.64172 23.3491C3.64172 23.3856 3.64172 23.4344 3.64172 23.4709C3.64172 23.5561 3.64172 23.6414 3.64172 23.7388C3.64172 24.019 3.62954 24.2991 3.593 24.5792C3.593 24.5914 3.593 24.6036 3.593 24.628C3.593 24.701 3.58082 24.7741 3.56864 24.8594C3.56864 24.8959 3.56864 24.9324 3.55646 24.969C3.55646 25.0055 3.55646 25.0542 3.54428 25.0908C3.5321 25.1882 3.50774 25.2978 3.49556 25.3953C3.44684 25.651 3.38594 25.8946 3.31286 26.1382C3.27633 26.2844 3.22761 26.4305 3.17889 26.5645C3.32504 26.6741 3.48338 26.7838 3.64172 26.8812C3.75133 26.9543 3.84877 27.0273 3.95839 27.0882C3.82441 27.3075 3.69043 27.5267 3.55646 27.7459C3.21543 28.3184 2.89876 28.8908 2.60645 29.4876C3.05709 29.8043 3.50774 30.1332 3.94621 30.4742C4.05582 30.5594 4.17762 30.6569 4.28724 30.7421C4.28724 30.7421 4.3116 30.7665 4.32378 30.7665C4.42121 30.8396 4.50647 30.9248 4.60391 30.9979C4.64045 31.0223 4.67699 31.0588 4.71352 31.0832C4.98148 31.3268 5.26161 31.5704 5.52956 31.8018C5.87059 31.412 6.19944 31.0101 6.52829 30.6082C6.71099 30.3889 6.8815 30.1697 7.07638 29.9505C7.47831 30.5351 7.92895 31.0954 8.33088 31.68C8.42832 31.8261 8.53793 31.9601 8.64755 32.1063C8.74499 32.0088 8.84243 31.9236 8.93986 31.8261C8.96422 31.8018 8.98858 31.7774 9.02512 31.7531L9.01294 31.7774ZM7.39305 28.9883C7.36869 29.0735 7.28343 29.1344 7.19817 29.1466C7.07638 29.1466 6.99112 29.0492 6.97894 28.9396V28.9274V28.903C6.97894 28.8665 6.96676 28.8178 6.96676 28.7812C6.96676 28.6838 7.0033 28.5985 7.07638 28.5376C7.13727 28.4889 7.21035 28.4645 7.28343 28.4524C7.33215 28.4524 7.38087 28.4524 7.41741 28.4767C7.42959 28.4767 7.45395 28.5133 7.4783 28.5133C7.4783 28.5133 7.46613 28.5011 7.45395 28.4889C7.46613 28.4889 7.4783 28.5133 7.50266 28.5254C7.62446 28.6229 7.62446 28.8056 7.52702 28.9152C7.49048 28.9517 7.45395 28.9761 7.40523 28.9883H7.39305ZM7.28343 26.8081C7.28343 26.8081 7.42959 26.7594 7.50266 26.7838C7.52702 26.7838 7.56356 26.7838 7.58792 26.8081C7.661 26.8325 7.7219 26.8812 7.75844 26.9543C7.7828 27.003 7.79498 27.0395 7.79498 27.0882C7.79498 27.1126 7.79498 27.1613 7.79498 27.1735C7.79498 27.1491 7.79498 27.1613 7.79498 27.1857C7.7828 27.3318 7.67318 27.4171 7.55138 27.478C7.51484 27.4902 7.47831 27.5024 7.44177 27.5024C7.40523 27.5024 7.36869 27.5024 7.33215 27.5024C7.27125 27.478 7.23471 27.4293 7.21035 27.3684C7.17381 27.2831 7.17381 27.1857 7.21035 27.1004C7.21035 27.1004 7.21035 27.1004 7.21035 27.0882C7.17381 27.003 7.22253 26.9056 7.29561 26.8447L7.28343 26.8081ZM7.27125 25.5292C7.29561 25.4196 7.34433 25.31 7.45395 25.2491C7.50266 25.2248 7.5392 25.2126 7.58792 25.2004C7.67318 25.1882 7.77062 25.2004 7.83152 25.2613C7.85587 25.2857 7.88023 25.31 7.89241 25.3344C7.92895 25.3953 7.95331 25.4684 7.94113 25.5292C7.94113 25.578 7.94113 25.6389 7.92895 25.6876C7.90459 25.8459 7.77062 25.9434 7.62446 25.9677C7.47831 25.9921 7.35651 25.9312 7.30779 25.8094C7.27125 25.7607 7.24689 25.7119 7.24689 25.651C7.24689 25.6023 7.24689 25.5536 7.28343 25.5171L7.27125 25.5292ZM10.5841 22.8984C10.6328 22.9959 10.6694 23.0933 10.7059 23.2029C10.7059 23.2273 10.7181 23.2517 10.7303 23.276C10.7425 23.3247 10.7546 23.3856 10.7668 23.4344C10.7668 23.4587 10.7668 23.4831 10.7668 23.4952C10.7668 23.4952 10.7668 23.4952 10.7668 23.5074C10.7668 23.5318 10.7668 23.5561 10.7668 23.5805C10.7668 23.6049 10.7668 23.6292 10.7668 23.6536C10.7668 23.6536 10.7668 23.6658 10.7668 23.6779C10.7668 23.7023 10.7668 23.7145 10.7668 23.7388C10.7668 23.7388 10.7668 23.751 10.7668 23.7632C10.7668 23.7876 10.7668 23.8119 10.7668 23.8363C10.7668 23.8606 10.7668 23.885 10.7546 23.8972C10.7059 24.0921 10.5719 24.2869 10.3527 24.2747C10.0726 24.2626 9.85334 24.0555 9.695 23.8119C9.695 23.8972 9.67064 23.9824 9.64628 24.0677C9.59756 24.2626 9.45141 24.4574 9.23217 24.4818C8.95204 24.5183 8.75717 24.2869 8.61101 23.9946C8.51358 24.3478 8.35524 24.6401 8.02639 24.5914C7.89241 24.5792 7.7828 24.5183 7.69754 24.4331C7.69754 24.4331 7.661 24.3965 7.64882 24.3844C7.63664 24.3722 7.62446 24.3478 7.61228 24.3235C7.57574 24.2626 7.5392 24.2017 7.50266 24.1286C7.50266 24.1042 7.49048 24.0921 7.4783 24.0677C7.4783 24.0677 7.4783 24.0677 7.4783 24.0555C7.4783 24.0312 7.46613 24.019 7.45395 23.9946C7.45395 23.9946 7.45395 23.9946 7.45395 23.9824C7.45395 23.9581 7.44177 23.9337 7.42959 23.9094C7.42959 23.9459 7.40523 23.9824 7.39305 24.019C7.38087 24.0555 7.36869 24.0921 7.35651 24.1286C7.33215 24.2017 7.29561 24.2747 7.25907 24.3478C7.11292 24.6158 6.90586 24.7985 6.60137 24.701C6.3456 24.6158 6.18726 24.4331 6.07765 24.1895C6.07765 24.1895 6.05329 24.1164 6.02893 24.0799C6.00457 24.0068 5.98021 23.9337 5.96803 23.8606C5.96803 23.8606 5.96803 23.8485 5.96803 23.8363C5.96803 23.7997 5.95585 23.7632 5.94367 23.7267C5.91931 23.7632 5.89495 23.7876 5.85841 23.8241C5.85841 23.8241 5.85841 23.8241 5.84623 23.8363C5.7488 23.9337 5.65136 24.0312 5.54174 24.1042C5.32251 24.2626 5.07891 24.3478 4.8475 24.2626C4.67699 24.2017 4.57955 24.0677 4.54301 23.9094C4.49429 23.7145 4.53083 23.4709 4.59173 23.2395C4.60391 23.1786 4.62827 23.1055 4.65263 23.0446C4.65263 23.0202 4.67699 22.9837 4.68917 22.9593C4.71352 22.8984 4.73788 22.8497 4.76224 22.7888C4.76224 22.7888 4.76224 22.7888 4.76224 22.7767C4.76224 22.7523 4.7866 22.7279 4.79878 22.7158C4.79878 22.6914 4.82314 22.667 4.83532 22.6427C4.83532 22.6427 4.83532 22.6427 4.83532 22.6305C4.83532 22.6183 4.8475 22.594 4.85968 22.5818C4.85968 22.5818 4.85968 22.5818 4.85968 22.5696C4.85968 22.5574 4.88404 22.5331 4.88404 22.5209C5.0302 22.2895 5.39559 22.4965 5.26161 22.7279C5.26161 22.7279 5.26161 22.7279 5.26161 22.7401C5.26161 22.7401 5.26161 22.7401 5.26161 22.7523C5.26161 22.7523 5.26161 22.7645 5.26161 22.7767C5.26161 22.7767 5.26161 22.801 5.24943 22.8132C5.24943 22.8254 5.23725 22.8375 5.22507 22.8497C5.22507 22.8497 5.22507 22.8741 5.21289 22.8863C5.21289 22.8863 5.21289 22.8863 5.21289 22.8984C5.21289 22.8984 5.21289 22.9228 5.20071 22.935C5.20071 22.935 5.20071 22.935 5.20071 22.9472C5.18853 22.9837 5.17635 23.0202 5.15199 23.0568C5.15199 23.0568 5.15199 23.0568 5.15199 23.069C5.15199 23.0811 5.15199 23.0933 5.13981 23.1177C5.13981 23.1177 5.13981 23.1177 5.13981 23.1299C5.13981 23.142 5.13981 23.1542 5.12763 23.1786C5.12763 23.1786 5.12763 23.1786 5.12763 23.1908C5.11545 23.2273 5.10327 23.276 5.09109 23.3126C5.09109 23.3126 5.09109 23.3126 5.09109 23.3247C5.09109 23.3369 5.09109 23.3613 5.07891 23.3735C5.07891 23.3735 5.07891 23.3735 5.07891 23.3856C5.07891 23.3978 5.07891 23.41 5.07891 23.4344C5.07891 23.4344 5.07891 23.4344 5.07891 23.4465C5.0302 23.6536 5.0302 23.8241 5.12763 23.8485C5.12763 23.8485 5.13981 23.8485 5.15199 23.8485C5.29815 23.8485 5.5052 23.6414 5.61482 23.544C5.61482 23.544 5.61482 23.544 5.627 23.5318C5.65136 23.5074 5.66354 23.4952 5.6879 23.4709C5.78533 23.3613 5.87059 23.2517 5.95585 23.1299C5.95585 23.1299 6.00457 23.069 6.01675 23.0324C6.12636 22.8619 6.39432 22.9106 6.41868 23.1177C6.41868 23.142 6.41868 23.1664 6.41868 23.1908C6.41868 23.1908 6.41868 23.1908 6.41868 23.2029C6.41868 23.2273 6.41868 23.2517 6.41868 23.276C6.41868 23.276 6.41868 23.276 6.41868 23.2882C6.41868 23.3126 6.41868 23.3369 6.41868 23.3613C6.41868 23.3613 6.41868 23.3613 6.41868 23.3735C6.41868 23.3856 6.41868 23.3978 6.41868 23.41C6.41868 23.41 6.41868 23.4344 6.41868 23.4587C6.44303 23.7388 6.50393 24.0312 6.71099 24.1895C6.95458 24.3844 7.02766 23.9824 7.08856 23.7997C7.11292 23.7388 7.1251 23.6658 7.14945 23.6049C7.17381 23.5318 7.18599 23.4587 7.21035 23.3856C7.21035 23.3735 7.21035 23.3613 7.21035 23.3491C7.22253 23.276 7.24689 23.2029 7.25907 23.1299C7.29561 22.9472 7.55138 22.9228 7.64882 23.069C7.661 23.0933 7.67318 23.1177 7.68536 23.1299C7.68536 23.1299 7.68536 23.142 7.68536 23.1542C7.68536 23.1664 7.69754 23.1908 7.70972 23.2029C7.70972 23.2029 7.70972 23.2151 7.70972 23.2273C7.70972 23.2517 7.7219 23.2638 7.73408 23.2882C7.73408 23.3126 7.74626 23.3369 7.75844 23.3491V23.3735C7.75844 23.3856 7.75844 23.3978 7.77062 23.41C7.77062 23.41 7.77062 23.4344 7.77062 23.4465C7.77062 23.4465 7.77062 23.4587 7.77062 23.4709C7.79498 23.5318 7.80716 23.5927 7.83152 23.6658C7.86805 23.7754 7.90459 23.8728 7.96549 23.9703C8.11165 24.2382 8.18472 24.0068 8.23344 23.8119C8.2578 23.7388 8.26998 23.6658 8.28216 23.5927C8.29434 23.5196 8.30652 23.4587 8.3187 23.3856C8.3187 23.3613 8.3187 23.3369 8.3187 23.3126C8.3187 23.2882 8.3187 23.2638 8.3187 23.2395C8.3187 23.1908 8.3187 23.142 8.33088 23.0933C8.33088 23.0811 8.33088 23.069 8.33088 23.0568C8.33088 23.0568 8.33088 23.0568 8.33088 23.0446C8.33088 23.0446 8.33088 23.0324 8.33088 23.0202C8.33088 23.0202 8.33088 23.0202 8.33088 23.0081C8.33088 23.0081 8.33088 23.0081 8.33088 22.9959C8.33088 22.9959 8.33088 22.9959 8.33088 22.9837C8.33088 22.9837 8.33088 22.9837 8.33088 22.9715C8.33088 22.9715 8.33088 22.9715 8.33088 22.9593C8.33088 22.9593 8.33088 22.9593 8.34306 22.9472C8.35524 22.9472 8.3796 22.9228 8.39178 22.9228C8.45268 22.8984 8.51358 22.8984 8.57447 22.935C8.57447 22.935 8.59883 22.9472 8.59883 22.9593C8.59883 22.9593 8.61101 22.9715 8.62319 22.9837C8.62319 22.9837 8.62319 22.9959 8.63537 23.0081C8.63537 23.0081 8.64755 23.0324 8.64755 23.0446C8.70845 23.2151 8.76935 23.3856 8.83025 23.544C8.83025 23.544 8.83025 23.5561 8.83025 23.5683C8.83025 23.5683 8.83025 23.5805 8.83025 23.5927C8.83025 23.6049 8.83025 23.617 8.84243 23.6414C8.84243 23.6536 8.84243 23.6658 8.85461 23.6779C8.85461 23.6901 8.85461 23.7023 8.86679 23.7267C8.86679 23.7388 8.87896 23.7632 8.89114 23.7754C8.89114 23.7876 8.90332 23.7997 8.9155 23.8119C8.95204 23.885 8.98858 23.9459 9.0373 23.9581C9.07384 23.9703 9.0982 23.9215 9.12256 23.8485C9.12256 23.8363 9.12256 23.8241 9.12256 23.7997C9.12256 23.7876 9.12256 23.7754 9.12256 23.751C9.12256 23.6779 9.13474 23.6049 9.13474 23.5561C9.13474 23.5561 9.13474 23.5561 9.13474 23.544C9.13474 23.544 9.13474 23.544 9.13474 23.5318V23.5074C9.1591 23.3369 9.17128 23.1542 9.19564 22.9837C9.19564 22.9837 9.19564 22.9715 9.19564 22.9593C9.19564 22.9593 9.19564 22.9593 9.19564 22.9472C9.19564 22.9472 9.19564 22.935 9.19564 22.9228C9.19564 22.9228 9.19564 22.9106 9.19564 22.8984C9.19564 22.8984 9.19564 22.8863 9.20782 22.8741C9.20782 22.8741 9.22 22.8619 9.23217 22.8497C9.23217 22.8497 9.24435 22.8497 9.25653 22.8375C9.25653 22.8375 9.25653 22.8375 9.26871 22.8375C9.26871 22.8375 9.26871 22.8375 9.28089 22.8375C9.28089 22.8375 9.28089 22.8375 9.29307 22.8375C9.29307 22.8375 9.29307 22.8375 9.30525 22.8375C9.30525 22.8375 9.31743 22.8375 9.32961 22.8375C9.32961 22.8375 9.32961 22.8375 9.34179 22.8375C9.34179 22.8375 9.35397 22.8375 9.36615 22.8375C9.36615 22.8375 9.36615 22.8375 9.37833 22.8375C9.37833 22.8375 9.37833 22.8375 9.39051 22.8375C9.39051 22.8375 9.39051 22.8375 9.40269 22.8375C9.40269 22.8375 9.40269 22.8375 9.41487 22.8375C9.41487 22.8375 9.41487 22.8375 9.42705 22.8375C9.42705 22.8375 9.42705 22.8375 9.43923 22.8375C9.43923 22.8375 9.43923 22.8375 9.45141 22.8375C9.45141 22.8375 9.50013 22.8984 9.52449 22.935C9.53667 22.9715 9.56103 23.0202 9.58538 23.069C9.58538 23.069 9.58538 23.069 9.58538 23.0811C9.58538 23.0933 9.58538 23.1055 9.59756 23.1177C9.59756 23.1177 9.59756 23.1299 9.59756 23.142C9.59756 23.142 9.59756 23.1664 9.60974 23.1786C9.60974 23.1786 9.60974 23.1908 9.60974 23.2029C9.60974 23.2029 9.60974 23.2273 9.62192 23.2395C9.62192 23.2395 9.62192 23.2638 9.6341 23.276C9.6341 23.276 9.6341 23.3004 9.64628 23.3004C9.64628 23.3126 9.65846 23.3369 9.67064 23.3491C9.67064 23.3491 9.67064 23.3491 9.67064 23.3613C9.67064 23.3735 9.695 23.3978 9.695 23.41C9.695 23.41 9.695 23.4222 9.695 23.4344C9.695 23.4465 9.70718 23.4587 9.71936 23.4709C9.71936 23.4709 9.71936 23.4831 9.73154 23.4952C9.73154 23.4952 9.74372 23.5196 9.7559 23.5318C9.7559 23.5318 9.7559 23.544 9.76808 23.5561C9.76808 23.5561 9.78026 23.5805 9.79244 23.5927C9.79244 23.5927 9.79244 23.6049 9.80462 23.617C9.80462 23.617 9.8168 23.6414 9.82898 23.6414C9.82898 23.6414 9.82898 23.6536 9.85334 23.6658C9.85334 23.6658 9.86552 23.6779 9.8777 23.6901C9.8777 23.6901 9.88988 23.6901 9.90206 23.7023C9.90206 23.7023 9.92641 23.7145 9.92641 23.7267C9.92641 23.7267 9.93859 23.7267 9.95077 23.7388C9.95077 23.7388 9.97513 23.751 9.98731 23.7632C9.98731 23.7632 9.98731 23.7632 9.99949 23.7632C10.0117 23.7632 10.036 23.7876 10.0482 23.7876C10.0482 23.7876 10.0482 23.7632 10.0604 23.751C10.0604 23.751 10.0604 23.751 10.0604 23.7388V23.7145C10.0604 23.7145 10.0604 23.7145 10.0604 23.7023C10.0604 23.7023 10.0604 23.6901 10.0604 23.6779C10.0604 23.6779 10.0604 23.6658 10.0604 23.6536V23.6292C10.0604 23.6292 10.0604 23.617 10.0604 23.6049V23.5805C10.0604 23.5805 10.0604 23.5683 10.0604 23.5561V23.5318C10.0604 23.5318 10.0604 23.5196 10.0604 23.5074V23.4831C10.0604 23.4831 10.0604 23.4709 10.0604 23.4587V23.4344C10.0604 23.4344 10.0604 23.4222 10.0604 23.41V23.3856C10.0604 23.3856 10.0604 23.3735 10.0604 23.3613V23.3369C10.0604 23.3369 10.0604 23.3247 10.0604 23.3126C10.0604 23.3126 10.0604 23.3004 10.0604 23.2882C10.0604 23.2882 10.0604 23.276 10.0604 23.2638C10.0604 23.2638 10.0604 23.2517 10.0604 23.2395C10.0604 23.2395 10.0604 23.2273 10.0604 23.2151C10.0604 23.2151 10.0604 23.2029 10.0604 23.1908C10.0604 23.1908 10.0604 23.1786 10.0604 23.1664C10.0604 23.1664 10.0604 23.1664 10.0604 23.1542C10.0604 23.1542 10.0604 23.142 10.0604 23.1299C10.0604 23.1299 10.0604 23.1177 10.0604 23.1055C10.0604 23.1055 10.0604 23.0811 10.0482 23.0811C9.92641 22.8375 10.2918 22.6183 10.4136 22.8619L10.5841 22.8984ZM6.49175 20.3164C6.32124 20.1946 6.29688 19.9753 6.35778 19.7805C6.39432 19.6343 6.47957 19.5003 6.62573 19.4638C6.74753 19.4029 6.89368 19.3785 7.01548 19.4638C7.14946 19.5612 7.22253 19.7439 7.21035 19.9023C7.21035 20.0728 7.12509 20.2311 6.96676 20.3164C6.8206 20.4016 6.63791 20.4138 6.49175 20.3164ZM8.51358 20.1093C8.51358 20.1093 8.46486 20.0606 8.45268 20.0119C8.3796 19.7317 8.55012 19.3663 8.86679 19.342C9.0373 19.3298 9.18346 19.4272 9.26871 19.5734C9.37833 19.7074 9.42705 19.9023 9.36615 20.0606C9.28089 20.3042 9.02512 20.4138 8.78153 20.3529C8.65973 20.3285 8.56229 20.2311 8.51358 20.1215V20.1093ZM8.51358 18.4042C8.74499 18.2093 9.00076 18.2702 9.25653 18.4163C9.47577 18.5381 9.70718 18.8183 9.57321 19.0619C9.54885 19.1228 9.51231 19.1837 9.43923 19.208C9.29307 19.2567 9.19564 19.1715 9.08602 19.0862C8.96422 18.9766 8.81807 18.9522 8.67191 18.9401C8.59883 18.9401 8.55011 18.8913 8.52575 18.8426C8.45268 18.7817 8.3796 18.7208 8.3796 18.6234C8.3796 18.526 8.4405 18.4529 8.51358 18.4163V18.4042ZM7.96549 20.901C8.12383 20.901 8.30652 20.8401 8.4405 20.9619C8.65973 21.1568 8.42832 21.6196 8.26998 21.7901C8.18472 21.8875 8.08729 21.9606 7.96549 22.0093C7.81933 22.0946 7.64882 22.1311 7.46613 22.0824C7.10074 21.9606 6.84496 21.4369 6.86932 21.0593C6.86932 20.9132 7.0033 20.8401 7.1251 20.8523C7.14945 20.8523 7.17381 20.8523 7.19817 20.8523C7.23471 20.8523 7.27125 20.8523 7.30779 20.8644C7.52702 20.901 7.74626 20.9253 7.96549 20.9132V20.901ZM5.96803 19.0497C6.02893 18.7574 6.43086 18.5747 6.66227 18.4651C6.9424 18.3433 7.31997 18.4407 7.24689 18.8183C7.22253 18.9644 7.10074 19.074 6.96676 19.1349C6.79624 19.208 6.61355 19.2933 6.43086 19.3542C6.4065 19.3542 6.38214 19.3542 6.36996 19.3542C6.29688 19.3907 6.2238 19.4151 6.15072 19.3907C6.00457 19.3542 5.93149 19.1958 5.96803 19.0497Z" fill="#DF9F64"/>
<path d="M9.54884 32.3009C9.54884 32.3009 9.6341 32.2156 9.68282 32.1791C9.73154 32.1303 9.79243 32.0816 9.84115 32.0329C9.88987 31.9842 9.93859 31.9476 9.98731 31.8989C10.036 31.8502 10.0969 31.8015 10.1456 31.7528C10.1578 31.7406 10.1822 31.7162 10.1944 31.7041C10.2431 31.6553 10.304 31.6066 10.3527 31.5579C10.4014 31.5092 10.4501 31.4726 10.4989 31.4239C10.6328 31.3143 10.7546 31.2047 10.8886 31.1073C10.9617 31.0464 11.0469 30.9855 11.12 30.9246C11.1809 30.8758 11.2418 30.8393 11.2905 30.7906C11.3514 30.7419 11.4245 30.6931 11.4854 30.6444C11.5463 30.5957 11.6072 30.5592 11.6681 30.5104C11.729 30.4617 11.8021 30.413 11.8752 30.3643C11.9361 30.3278 11.997 30.279 12.0578 30.2425C12.1309 30.1938 12.1918 30.1572 12.2649 30.1085C12.3745 30.0354 12.472 29.9745 12.5816 29.9015C12.5572 29.7675 12.545 29.6457 12.5207 29.5117C12.4354 29.5726 12.3502 29.6335 12.2649 29.6822C12.2527 29.6822 12.2405 29.7066 12.2284 29.7066C12.1431 29.7675 12.0578 29.8284 11.9848 29.8771C11.9361 29.9136 11.8995 29.938 11.8508 29.9745C11.7777 30.0354 11.6925 30.0842 11.6194 30.1451C11.5707 30.1816 11.5219 30.2181 11.4732 30.2547C11.4367 30.279 11.4001 30.3156 11.3636 30.3399C11.3271 30.3643 11.3027 30.3887 11.2662 30.413C11.2662 30.413 11.2662 30.413 11.254 30.4252C11.2053 30.4617 11.1566 30.4983 11.1078 30.5348C11.0835 30.547 11.0591 30.5713 11.0348 30.5835C10.986 30.6201 10.9373 30.6566 10.8886 30.7053C10.8521 30.7297 10.8277 30.754 10.7912 30.7784C10.6572 30.888 10.5354 30.9855 10.4014 31.0951C10.3649 31.1194 10.3283 31.156 10.2918 31.1803C10.2674 31.1925 10.2553 31.2169 10.2309 31.229C10.1822 31.2656 10.1456 31.3021 10.0969 31.3387C10.0969 31.3387 10.0969 31.3387 10.0847 31.3508C10.0847 31.3508 10.0847 31.3508 10.0726 31.363C10.0238 31.3996 9.98731 31.4361 9.93859 31.4848C9.93859 31.4848 9.92641 31.497 9.91423 31.5092C9.76808 31.6432 9.60974 31.765 9.46358 31.8989C9.46358 31.8989 9.4514 31.9111 9.43922 31.9233C9.35397 32.0085 9.25653 32.0938 9.17127 32.1669C9.08602 32.2521 8.98858 32.3374 8.90332 32.4227C8.9764 32.5079 9.04948 32.5932 9.12255 32.6784C9.20781 32.5932 9.29307 32.4957 9.37833 32.4105C9.43922 32.3496 9.48794 32.3009 9.54884 32.2521V32.3009Z" fill="#DF9F64"/>
<path d="M2.88655 24.0556C2.88655 24.1165 2.87437 24.1774 2.86219 24.2383C2.86219 24.2627 2.86219 24.2749 2.86219 24.2992C2.86219 24.3114 2.86219 24.3357 2.86219 24.3479C2.86219 24.4088 2.83783 24.4819 2.83783 24.5428C2.83783 24.5793 2.82565 24.6281 2.81347 24.6646C2.81347 24.689 2.81347 24.7255 2.80129 24.7499C2.80129 24.7986 2.78911 24.8473 2.77693 24.896C2.77693 24.9204 2.77693 24.9569 2.76475 24.9813C2.76475 25.03 2.75257 25.0665 2.74039 25.1152C2.72821 25.2127 2.70386 25.2979 2.69168 25.3954C2.69168 25.3954 2.69168 25.3954 2.69168 25.4076C2.69168 25.4685 2.66732 25.5294 2.65514 25.5903C2.65514 25.6146 2.65514 25.6268 2.65514 25.6512C2.65514 25.6755 2.65514 25.6877 2.65514 25.7121C2.63078 25.8338 2.6186 25.9678 2.59424 26.0896C2.69168 26.1627 2.78911 26.2358 2.88655 26.2967C2.92309 26.1749 2.95963 26.0409 2.99617 25.9191C3.08142 25.6146 3.14232 25.3101 3.19104 25.0056C3.19104 24.9935 3.19104 24.9813 3.19104 24.9691C3.19104 24.9082 3.20322 24.8473 3.2154 24.7986C3.2154 24.7742 3.2154 24.7499 3.2154 24.7133C3.2154 24.6646 3.2154 24.6281 3.22758 24.5793C3.22758 24.5793 3.22758 24.5672 3.22758 24.555C3.22758 24.4941 3.23976 24.4332 3.23976 24.3723C3.23976 24.3479 3.23976 24.3236 3.23976 24.287C3.23976 24.2505 3.23976 24.2018 3.23976 24.1652C3.23976 24.0313 3.25194 23.8973 3.25194 23.7633C3.25194 23.2639 3.22758 22.7768 3.1545 22.2774C3.1545 22.2774 3.1545 22.2774 3.1545 22.2652C3.1545 22.2165 3.14232 22.1678 3.13014 22.1191C3.11796 22.0338 3.10578 21.9485 3.08142 21.8633C2.97181 21.8633 2.86219 21.8633 2.75257 21.8633C2.77693 21.9485 2.81347 22.0338 2.82565 22.1191C2.82565 22.1434 2.82565 22.1678 2.83783 22.1921C2.88655 22.4235 2.91091 22.6428 2.92309 22.8742C2.92309 22.9716 2.92309 23.0691 2.92309 23.1665C2.92309 23.1665 2.92309 23.1665 2.92309 23.1787C2.92309 23.2274 2.92309 23.2639 2.92309 23.3127C2.92309 23.3614 2.92309 23.4101 2.92309 23.4588C2.92309 23.5441 2.92309 23.6172 2.91091 23.6902C2.91091 23.7024 2.91091 23.7268 2.91091 23.7389C2.91091 23.7998 2.91091 23.8607 2.88655 23.9216C2.88655 23.9582 2.88655 23.9947 2.88655 24.0313V24.0556Z" fill="#DF9F64"/>
<path d="M15.0174 23.5681C14.9687 23.422 14.9078 23.2758 14.8103 23.1662C14.6398 22.947 14.384 22.813 14.1405 22.7156C13.9212 22.6303 13.6898 22.5572 13.4584 22.5085C13.1539 22.4598 12.8494 22.4233 12.5449 22.3867C12.6302 22.7643 12.7398 23.1419 12.8494 23.5072C12.8494 23.5316 12.8616 23.556 12.8738 23.5925C12.886 23.6412 12.8981 23.6778 12.9103 23.7265C12.9347 23.7996 12.959 23.8848 12.9834 23.9579C13.0077 24.0188 13.0199 24.0797 13.0443 24.1284C13.0443 24.1528 13.0565 24.1771 13.0686 24.2015C13.2392 24.6887 13.434 25.1637 13.6533 25.6387C13.8116 25.5169 13.9821 25.3951 14.1405 25.2733C14.3232 25.115 14.5302 24.981 14.6885 24.7861C14.8469 24.5791 14.9809 24.3842 15.0418 24.1406C15.0783 23.9457 15.0661 23.763 15.0174 23.5803V23.5681Z" fill="#DF9F64"/>
<path d="M4.50635 31.4725C4.50635 31.4725 4.49417 31.4603 4.482 31.4481C4.44546 31.4116 4.40892 31.375 4.3602 31.3507C4.27494 31.2776 4.20186 31.2167 4.11661 31.1436C4.08007 31.1071 4.04353 31.0827 4.00699 31.0584C3.93391 30.9975 3.84865 30.9366 3.77558 30.8757C3.67814 30.8026 3.59288 30.7295 3.49544 30.6564C3.4589 30.6321 3.42237 30.5956 3.38583 30.5712C3.32493 30.5225 3.25185 30.4738 3.19095 30.4129C2.94736 30.2302 2.69159 30.0475 2.44799 29.877C2.37492 30.0475 2.30184 30.2058 2.22876 30.3763C2.61851 30.6686 2.99608 30.9609 3.38583 31.2654C3.53198 31.375 3.66596 31.4847 3.81211 31.6065C4.1775 31.8988 4.55507 32.2033 4.92046 32.4956C5.04226 32.3738 5.15188 32.2642 5.26149 32.1424C5.0179 31.9231 4.77431 31.7039 4.53071 31.4847L4.50635 31.4725Z" fill="#DF9F64"/>
<path d="M12.3745 23.398C12.2771 23.057 12.1797 22.7038 12.1066 22.3628C12.0213 22.3628 11.9239 22.3628 11.8386 22.3506C11.863 22.6551 11.9117 22.9596 11.9726 23.2641C11.997 23.3737 12.0213 23.4833 12.0335 23.5929C12.0457 23.6538 12.0579 23.7147 12.07 23.7756V23.8C12.0822 23.8609 12.0944 23.9096 12.1066 23.9705C12.1066 23.9705 12.1066 23.9827 12.1066 23.9948C12.1553 24.2019 12.2162 24.4089 12.2771 24.6038C12.2771 24.6282 12.2893 24.6525 12.3014 24.6891C12.3014 24.7134 12.3136 24.7378 12.3258 24.7622C12.338 24.8109 12.3502 24.8474 12.3745 24.884C12.3745 24.8961 12.3745 24.9205 12.3867 24.9327C12.5329 25.3468 12.7034 25.7487 12.8983 26.1506C12.9835 26.0897 13.0809 26.041 13.1662 25.9801C13.2149 25.9558 13.2515 25.9192 13.3002 25.8949C13.1053 25.4686 12.9226 25.0423 12.7643 24.6038C12.6181 24.2019 12.4841 23.8 12.3623 23.398H12.3745Z" fill="#DF9F64"/>
<path d="M12.411 30.5353C12.3866 30.5597 12.3623 30.5719 12.3257 30.5962C12.2648 30.6328 12.2039 30.6815 12.143 30.718C12.0821 30.7668 12.0091 30.8155 11.9482 30.852C11.8873 30.9007 11.8264 30.9373 11.7655 30.986C11.7046 31.0347 11.6437 31.0712 11.5828 31.12C11.5584 31.1443 11.5219 31.1687 11.4975 31.1809C11.4732 31.2052 11.4488 31.2174 11.4244 31.2418C11.327 31.3148 11.2296 31.3879 11.1321 31.4732C11.1199 31.4732 11.0956 31.4975 11.0834 31.5097C10.9373 31.6315 10.7789 31.7533 10.6328 31.8873C10.6206 31.8873 10.6084 31.9116 10.5962 31.9238C10.5962 31.9238 10.5719 31.9482 10.5597 31.9482C10.5231 31.9847 10.4744 32.0213 10.4379 32.0578C10.3892 32.1065 10.3404 32.1431 10.2917 32.1918C10.1821 32.2892 10.0847 32.3867 9.98724 32.4841C9.96288 32.5084 9.92634 32.545 9.90198 32.5693C9.8289 32.6424 9.75583 32.7155 9.67057 32.7886C9.67057 32.7886 9.65839 32.8008 9.64621 32.8129C9.57313 32.886 9.48787 32.9713 9.41479 33.0444C9.65839 33.2758 9.91416 33.495 10.2065 33.6655C10.3892 33.7508 10.5719 33.8482 10.7789 33.8847C10.9981 33.9213 11.2052 33.9213 11.4123 33.8726C11.7898 33.7873 12.1065 33.5194 12.3136 33.2027C12.3866 33.1053 12.4353 32.9835 12.4841 32.8738C12.545 32.7155 12.618 32.545 12.6546 32.3867C12.7886 31.729 12.752 31.0591 12.6789 30.4014C12.5937 30.4501 12.5206 30.511 12.4353 30.5597L12.411 30.5353Z" fill="#DF9F64"/>
<path d="M2.24103 25.3955C2.26539 25.2372 2.30193 25.0666 2.32629 24.9083C2.37501 24.6647 2.41155 24.4211 2.44809 24.1775C2.44809 24.1288 2.46027 24.0679 2.47245 24.0192C2.47245 24.0192 2.47245 24.007 2.47245 23.9948C2.47245 23.9705 2.47245 23.9583 2.47245 23.9339C2.47245 23.8852 2.47245 23.8243 2.48463 23.7756C2.48463 23.7512 2.48463 23.7269 2.48463 23.7025C2.48463 23.6416 2.48463 23.5807 2.49681 23.5198C2.49681 23.5198 2.49681 23.4955 2.49681 23.4833C2.49681 23.4346 2.49681 23.3737 2.49681 23.3249C2.49681 23.3249 2.49681 23.3128 2.49681 23.3006C2.49681 23.2397 2.49681 23.1788 2.49681 23.1179C2.49681 22.8134 2.46027 22.5089 2.39937 22.2044C2.37501 22.0948 2.33847 22.0095 2.28975 21.9121C2.11924 21.9243 1.93654 21.9486 1.76603 21.973C1.49807 22.0095 1.21794 22.0461 0.96217 22.1557C0.243571 22.4237 -0.194897 23.0326 0.0486962 23.8C0.377547 24.6404 1.37628 25.2615 2.1436 25.8218C2.16796 25.6878 2.19231 25.5538 2.21667 25.4198L2.24103 25.3955Z" fill="#DF9F64"/>
<path d="M35.4549 33.6286C35.3209 33.4703 35.1869 33.312 35.0042 33.2023C34.7728 33.0318 34.5048 32.9344 34.2369 32.8613C33.1773 32.5934 32.2516 32.8491 31.5695 32.703C31.5452 32.6786 31.533 32.6421 31.5208 32.6177C31.4843 32.5325 31.4478 32.4472 31.4112 32.3619C31.2407 31.9235 31.1189 31.4606 31.0093 31.01C31.0093 31.01 31.0093 30.9978 31.0093 30.9856C30.9118 30.5228 30.8509 30.0478 30.7779 29.585C30.7779 29.5363 30.7657 29.4754 30.7535 29.4266H30.7779C31.2163 29.2683 31.3869 28.8664 31.3869 28.4279C31.4112 28.0625 31.4112 27.6971 31.3625 27.3317C31.3381 27.1734 31.3016 27.0029 31.2407 26.8446C31.1433 26.6375 30.9971 26.467 30.8022 26.3574C30.5343 26.2112 30.2176 26.2356 29.9253 26.2478C29.3285 26.2965 28.7439 26.3696 28.1471 26.4548C27.1727 26.5888 26.1861 26.6375 25.1996 26.7349C24.8342 26.7715 24.4566 26.8324 24.1034 26.9176C23.9207 26.9785 23.6893 26.9907 23.5553 27.1491C23.4579 27.2343 23.3848 27.3439 23.3605 27.4779C23.3361 27.5144 23.2996 27.551 23.2874 27.5997C23.1778 27.8189 23.2508 28.0747 23.2874 28.3061C23.3239 28.5497 23.3848 28.8055 23.4457 29.0491C23.5553 29.4266 23.738 29.792 24.1156 29.926C24.1887 30.7542 24.2374 31.5703 24.2983 32.3985C24.3714 33.178 24.4688 33.9697 24.615 34.737C24.688 35.1267 24.7489 35.5043 24.8342 35.894C24.8951 36.1863 24.956 36.4665 25.09 36.7344C25.3945 37.38 25.8086 37.9889 26.3567 38.4396C26.6124 38.6223 26.8682 38.7928 27.1483 38.9268C27.5137 39.0851 27.8913 39.2069 28.281 39.2556C29.0605 39.3409 29.84 39.2922 30.6195 39.1582C31.1554 39.0607 31.6792 38.9146 32.2151 38.7806C32.5683 38.6954 32.9337 38.6223 33.2747 38.5127C33.7132 38.3543 34.1395 38.1351 34.5292 37.8915C34.8702 37.6723 35.1991 37.4043 35.4427 37.0755C35.6497 36.7832 35.8202 36.4665 35.9055 36.1133C35.9908 35.8453 36.0151 35.5652 36.0273 35.2729C36.0273 34.6883 35.8081 34.0914 35.4549 33.6286ZM33.9933 34.1158C34.0786 34.1523 34.1638 34.1889 34.2491 34.2254C34.2491 34.2254 34.2491 34.2254 34.2612 34.2254C34.2856 34.2498 34.31 34.262 34.3343 34.2863C34.3587 34.3107 34.383 34.3229 34.3952 34.3472C34.4561 34.4203 34.517 34.5056 34.5657 34.5908C34.6266 34.7248 34.6875 34.8709 34.7241 35.0171C34.7363 35.0902 34.7484 35.1511 34.7484 35.2242C34.7484 35.2729 34.7484 35.3094 34.7484 35.3581C34.7484 35.3581 34.7484 35.3825 34.7484 35.3947C34.6997 35.3947 34.6632 35.3947 34.6145 35.3947C34.5536 35.3947 34.4927 35.3947 34.4439 35.3703C34.3465 35.3581 34.2491 35.3338 34.1516 35.3094C34.0542 35.2729 33.9446 35.2242 33.8471 35.1754C33.7497 35.1024 33.6644 35.0293 33.5792 34.9562C33.5061 34.8709 33.4452 34.7735 33.3843 34.6761C33.3234 34.5421 33.2625 34.4081 33.226 34.262C33.226 34.2376 33.226 34.2132 33.2138 34.1889C33.2138 34.128 33.1894 34.0671 33.1894 33.994C33.3965 33.994 33.567 34.0184 33.9689 34.1036C33.9689 34.1036 33.9811 34.1036 33.9933 34.1036V34.1158ZM28.1592 34.5786C28.0983 34.6639 28.0374 34.7492 27.9766 34.8344C27.9766 34.8344 27.9644 34.8588 27.9522 34.8709C27.5503 34.7491 27.124 34.7004 26.7099 34.8344C26.5028 34.8831 26.3079 34.9927 26.1131 35.0902C26.0643 35.1145 26.0156 35.1389 25.9791 35.1754C25.9425 34.9806 25.906 34.7857 25.8695 34.603C25.772 34.0671 25.699 33.519 25.6259 32.9709C25.8695 32.8613 26.1009 32.7273 26.3445 32.5934C26.3567 32.5934 26.381 32.569 26.3932 32.569C26.8804 32.3132 27.4041 32.1183 27.9278 31.9478C28.6343 31.7408 28.5734 31.7408 29.1214 31.6555C29.292 31.6312 29.4503 31.619 29.6208 31.5946C29.6817 31.5946 29.7426 31.5946 29.7913 31.5824C29.8766 31.9235 29.974 32.2767 30.0836 32.5934C30.0106 32.6543 29.9497 32.7151 29.8766 32.776C29.5843 33.044 29.3041 33.312 29.024 33.5921C28.7073 33.9088 28.4028 34.2376 28.1227 34.5908L28.1592 34.5786ZM29.4625 29.5606C29.4625 29.5606 29.4625 29.6215 29.4746 29.6581C29.5112 29.8773 29.5355 30.0843 29.5721 30.3036C29.5112 30.3036 29.4625 30.3158 29.4016 30.3158C28.756 30.3767 28.1227 30.535 27.5015 30.7299C26.8073 30.9491 26.1374 31.2292 25.5041 31.5824C25.4675 31.0344 25.431 30.4863 25.3823 29.9382C26.381 29.8529 27.3797 29.719 28.3785 29.6459C28.7439 29.6215 29.0971 29.585 29.4625 29.5606ZM26.7586 27.892C27.5381 27.8433 28.3054 27.7215 29.0727 27.6241C29.4138 27.5875 29.7426 27.5388 30.0836 27.5266C30.0836 27.6362 30.0958 27.7459 30.108 27.8555C30.108 28.0747 30.108 28.16 30.108 28.2209C29.2311 28.3061 28.3541 28.3548 27.4772 28.4401C26.5394 28.5132 25.6015 28.6593 24.6637 28.708C24.6393 28.6471 24.6271 28.5984 24.615 28.5375C24.615 28.5253 24.615 28.5132 24.615 28.4888C24.5906 28.367 24.5662 28.2452 24.5541 28.1234C25.1143 28.0138 25.9791 27.9529 26.7708 27.8798L26.7586 27.892ZM27.9644 37.8915C27.7451 37.8184 27.5381 37.721 27.3432 37.5992C27.1971 37.5018 27.0509 37.38 26.9169 37.2582C26.7829 37.112 26.6611 36.9415 26.5515 36.771C26.5028 36.6979 26.4541 36.6248 26.4054 36.5396C26.4176 36.503 26.4419 36.4665 26.4541 36.4299C26.4663 36.4178 26.4785 36.3934 26.4906 36.3812C26.5028 36.369 26.515 36.3447 26.5394 36.3325C26.6124 36.2716 26.6855 36.2229 26.7708 36.1742C26.8682 36.1255 26.9778 36.0767 27.0874 36.0402C27.1362 36.0402 27.1971 36.028 27.2458 36.028C27.3797 36.0402 27.5137 36.0767 27.6477 36.1133C27.806 36.1742 27.9644 36.2472 28.1105 36.3325C28.1714 36.369 28.2201 36.4178 28.281 36.4665C28.3298 36.5274 28.3785 36.5883 28.415 36.6614C28.4637 36.771 28.5125 36.8928 28.549 37.0146C28.5734 37.1485 28.5855 37.2825 28.5855 37.4165C28.5855 37.5261 28.5612 37.6357 28.5368 37.7332C28.5246 37.7697 28.5125 37.8062 28.4881 37.8428C28.4759 37.8793 28.4516 37.9159 28.4272 37.9524C28.4272 37.9646 28.4028 37.9889 28.3907 38.0011C28.2445 37.9768 28.0983 37.9402 27.9522 37.9037L27.9644 37.8915ZM29.7913 37.9889C29.8279 37.855 29.8522 37.721 29.8644 37.5748C29.9009 37.0876 29.8279 36.6005 29.6086 36.162C29.4868 35.8819 29.3041 35.6504 29.0971 35.4678C29.3529 35.1389 29.6208 34.8344 29.9131 34.5421C30.1445 34.2985 30.4003 34.0671 30.6439 33.8235C30.6804 33.787 30.717 33.7626 30.7535 33.7261C30.8144 33.7748 30.8875 33.8113 30.9484 33.86C31.1189 33.9331 31.3016 33.9818 31.4843 34.0062C31.6183 34.0184 31.7644 34.0306 31.8984 34.0427C31.8984 34.0671 31.8984 34.0793 31.8984 34.1036C31.9106 34.2741 31.9471 34.4447 31.9837 34.603C31.9349 34.6395 31.8862 34.6761 31.8375 34.7248C31.6548 34.9927 31.4843 35.2607 31.3381 35.5652C31.1798 35.894 31.0702 36.2472 30.9606 36.5883C30.8875 36.8319 30.8144 37.0755 30.7413 37.3191C30.6926 37.5018 30.5952 37.6966 30.6561 37.8793C30.4247 37.928 30.1932 37.9524 29.7791 38.0011L29.7913 37.9889ZM32.7388 37.3434C32.4952 37.4165 32.2516 37.4774 32.008 37.5383C32.008 37.5383 32.008 37.5383 32.008 37.5261C32.2394 36.7953 32.1785 36.8684 32.4343 36.2351C32.4952 36.1011 32.5561 35.9671 32.6292 35.8331C32.958 36.1863 33.3843 36.4543 33.8471 36.5761C33.9202 36.6005 34.0055 36.6126 34.0786 36.637C33.8837 36.7953 33.6644 36.9293 33.4452 37.0511C33.2138 37.1729 32.9702 37.2703 32.7144 37.3556L32.7388 37.3434Z" fill="#F7B744"/>
</g>
<defs>
<clipPath id="clip0_1073_3430">
<rect width="152.696" height="48" fill="white"/>
</clipPath>
</defs>
</svg>
