<?xml version="1.0" encoding="UTF-8"?>
<svg id="Layer_2" data-name="Layer 2" xmlns="http://www.w3.org/2000/svg" viewBox="0 0 177.62 92.44">
  <defs>
    <style>
      .cls-1 {
        fill: #fff;
        stroke-width: 0px;
      }
    </style>
  </defs>
  <g id="Layer_1-2" data-name="Layer 1">
    <g>
      <g id="LBjlkx">
        <g>
          <path class="cls-1" d="m150.25,27.84c-1.67-.17-3.21-.05-4.73.33-1.19.29-1.2.57-1.37,1.66-.07.44.02.91.07,1.37.04.34.28.42.54.22.08-.07.15-.16.23-.22.1-.08.23-.14.33-.03.09.1,0,.2-.07.28-.39.48-.92.85-1.18,1.45-.07.17-.23.11-.29-.07-.02-.07-.03-.15-.02-.23.09-.54.01-1.04-.15-1.57-.15-.49-.07-1.06-.06-1.59.02-.85.43-1.37,1.24-1.61.17-.05.41-.03.41-.28,0-.22-.19-.37-.37-.43-.33-.12-.67-.19-1.01-.25-.18-.03-.31.1-.44.21-.19.18-.38.36-.59.51-.35.25-.77.3-1.12.06-.37-.26-.86-.44-.81-1.09.07-.82.39-1.46,1.01-1.97.57-.47,1.78-.11,2.03.63.04.12.07.23.11.35.19.61.25.6.9.44.66-.17,1.28-.47,1.96-.57.31-.05.63-.07.89.09.52.32,1.01.16,1.48-.04.3-.13.6-.22.91-.29,1.48-.35,2.81,1.23,2.69,2.34-.03.27.11.36.32.48.73.4,1.28.88,1.57,1.77.26.79.02,1.5.05,2.24,0,.17-.07.35.11.46.17.1.27-.08.4-.14.34-.14.68-.27,1.03-.39.25-.09.39-.23.36-.51-.05-.52.03-1.04.1-1.55.02-.17.03-.33-.01-.5-.11-.46.11-.74.59-.71.58.03,1.1-.17,1.63-.34.44-.14.93-.06,1.39.06.83.21,1.65.43,2.48.59.33.07.5.19.5.52,0,.15.05.31.02.46-.27,1.12-.17,2.29-.41,3.41-.12.55-.1,1.06.23,1.58.25.41.37.92.32,1.41-.09.85-.19,1.69-.39,2.53-.36,1.5-.27,2.99.28,4.45.49,1.3.72,2.64.52,4.04-.16,1.12-.48,2.19-1.05,3.15-.74,1.23-1.16,2.52-1.16,3.95,0,.9-.28,1.78-.6,2.6-.23.59-.69,1.12-1.12,1.6-.7.79-1.69,1.16-2.63,1.58-.43.19-.93.2-1.4.18-.28-.01-.35.1-.34.34.04,1.51-.6,2.74-1.7,3.69-.59.51-1.33.87-2.18.86-.33,0-.64.13-.99.1-.57-.05-1.09-.28-1.63-.43-.13-.04-.27-.12-.38,0-.1.12-.05.27.01.39.05.11.12.22.18.32.47.69.5,1.29-.03,1.93-.43.52-.22,1.18-.49,1.72-.06.12.05.2.17.2.15,0,.3,0,.45-.02.2-.02.36.04.47.22.1.17-.03.28-.11.41-.09.14-.19.28-.26.43-.08.18-.07.39.13.47.18.08.32-.06.42-.21.15-.23.19-.51.25-.78.16-.78.61-1.11,1.27-.97.5.11.89.7.89,1.24,0,.94-.43,1.69-1.02,2.37-.12.14-.23.28-.31.45-.35.66-1.1.72-1.54.11-.11-.15-.2-.31-.31-.45-.07-.08-.16-.16-.28-.1-.11.05-.13.16-.1.28.08.26.17.52.24.79.12.47-.02.76-.45.91-.42.15-.68-.04-.82-.42-.13-.34-.39-.62-.44-1,0-.06-.08-.14-.14-.17-.43-.21-.52-.55-.46-.99.04-.25-.08-.36-.35-.32-.55.08-.83-.16-.88-.72-.06-.62-.05-.59-.6-.37-.53.21-1.01.22-1.53-.2-.66-.54-1.14-1.16-1.49-1.93-.23-.5-.13-1.4.24-1.81.33-.37.28-.58-.2-.75-.13-.05-.27-.09-.37-.17-1.32-.99-2.78-1.71-4.31-2.3-.11-.04-.23-.09-.33-.15-.68-.35-1.02-.31-1.6.19-.22.19-.19.42-.09.63.46,1,.03,1.76-.58,2.53-.32.41-.63.83-1.03,1.16-.64.52-1.3.75-2.18.17-.36-.24-.57-.23-.66.26-.05.28-.31.4-.55.51-.31.13-.42.35-.37.69.1.6-.05.82-.64.92-.39.07-.59.26-.64.65-.06.49-.25.88-.68,1.19-.36.27-.7.26-1.07.1-.36-.16-.42-.49-.38-.81.06-.47-.06-.54-.47-.33-.31.16-.65.17-.98.04-1.15-.46-1.91-1.3-2.32-2.44-.15-.41-.02-.87.2-1.24.26-.43.58-.83.92-1.2.39-.42.91-.4,1.44,0,.47.35.52.66.22,1.23-.38.7-.31,1.14.23,1.47.34.21.54.13.62-.25.17-.78.25-.84,1.06-.85.13,0,.25,0,.32-.13.07-.15,0-.26-.1-.37-.56-.62-.54-.69.22-1.06.1-.05.2-.09.19-.22,0-.18-.08-.32-.25-.41-.21-.12-.41-.24-.6-.41-.63-.61-.52-1.33-.31-2.05.12-.41.28-.8.44-1.2.23-.58.65-.99,1.21-1.26.34-.16.5-.4.34-.77-.1-.24-.03-.45.08-.66.31-.58.15-1.2.16-1.8,0-.23-.19-.37-.4-.46-1.35-.59-2.31-1.61-3.29-2.68-1.06-1.16-1.19-2.51-1.03-3.92.08-.71.66-1.2,1.26-1.65.62-.47,1.34-.6,2-.91.19-.09.38-.09.57-.14.22-.05.49.11.66-.1.3-.39.57-.79.83-1.2.1-.16-.03-.28-.17-.37-.38-.22-.37-.51-.16-.85.36-.56.74-1.12,1.04-1.71.32-.63.88-1.05,1.29-1.59.15-.19.4-.28.66-.24.42.07.74-.07.98-.43.14-.21.38-.3.58-.44.48-.31.46-.59-.02-.88-.83-.49-1.33-1.22-1.53-2.16-.22-1.03-.43-2.05-.55-3.1-.02-.2-.12-.4-.3-.5-.75-.41-1.04-1.18-1.45-1.85-.42-.7-.73-1.43-.22-2.23.15-.24.04-.48-.14-.67-.9-.91-.69-1.68.42-2.3.78-.43.77-1.29-.01-1.8-.55-.36-1.09-.71-1.6-1.14-.27-.23-.25-.4-.04-.59.27-.24.51-.4.97-.28,1.35.35,1.99,1.42,2.7,2.43.19.27.36.57.53.86.14.23.3.23.47.03.23-.27.32-.57.27-.93-.09-.69.06-1.3.66-1.75.18-.13.29-.15.47,0,.55.48.69.94.44,1.63-.05.14-.13.25-.27.29-.37.12-.39.41-.33.71.04.25.15.5.22.74.06.19.19.29.38.25.67-.12,1.02.33,1.32.79.45.69.42,1.53.63,2.3.06.22-.05.45-.15.66-.09.21-.21.44-.14.66.29.93.57,1.88,1.45,2.46.24.16.45.15.65-.06.65-.69,1.48-.87,2.38-.77.33.04.46-.07.46-.38-.01-.48.06-.94.16-1.41.05-.21.08-.46.32-.51.2-.04.31.17.42.31.26.32.49.67.71,1.01.64,1,1.62,1.29,2.7,1.36.33.02.67.04,1.01-.01.31-.05.53-.17.7-.44.23-.38.68-.48,1.08-.3.17.08.28.19.22.39-.06.19-.21.2-.37.15-.1-.03-.21-.05-.31-.07-.19-.02-.28.1-.34.25-.05.15.02.28.17.33.24.09.49.16.74.23.11.03.21.05.23.18.02.13-.06.2-.14.27-.38.34-.92.3-1.25-.12-.21-.27-.35-.42-.8-.33-1.27.23-2.46-.11-3.48-.91-.36-.28-.59-.69-.79-1.11-.05-.12-.1-.3-.27-.26-.16.03-.15.2-.15.34-.04,1.49.66,2.67,1.76,3.53.5.39,1.25.61,2,.41.39-.1.81-.09,1.22-.12.13-.01.24.06.32.15.2.25.46.46.57.77.28.73.79,1.26,1.4,1.71.42.31.92.46,1.42.44.83-.03,1.67-.09,2.4-.59.25-.17.56-.24.84-.37.11-.05.24-.13.21-.27-.03-.15-.2-.12-.31-.12-.3.02-.61.07-.91.08-.78.01-1.51-.24-2.2-.56-.76-.36-1.12-1.05-1.35-1.82-.03-.09-.01-.2.08-.24.1-.04.17.04.22.12.18.28.37.56.59.81.74.85,1.77.94,2.77,1.11.19.03.25-.08.21-.25-.02-.07-.06-.15.04-.19.08-.03.14.02.2.07.52.41.89.35,1.25-.22.25-.39.44-.8.47-1.27.04-.61-.29-.83-.84-.59-.17.08-.37.18-.52.06-.2-.16,0-.32.07-.48.38-.96.04-2.08-.83-2.65-.8-.53-1.59-1.06-2.5-1.41-.8-.3-1.61-.28-2.44-.19-.57.07-1.16.05-1.72.21-.12.03-.27.06-.32-.09-.07-.18.1-.23.22-.28.51-.22,1.08-.18,1.61-.29,1.69-.35,3.26.06,4.77.83.3.15.55.36.89.45.26.07.34,0,.36-.23.05-.44.09-.88.13-1.32.02-.26-.15-.42-.31-.59-.96-1.03-2.19-1.43-3.45-1.53Zm-19.57,20.75c-.35-.06-.84,0-1.32,0-1.09.02-2.12.21-3.04.83-.45.3-.94.57-1.15,1.14-.43,1.19-.13,2.24.53,3.24.68,1.02,1.64,1.79,2.52,2.63.2.19.39.18.43-.16.03-.22-.03-.43-.08-.63-.11-.44-.26-.87-.28-1.34-.02-.67-.21-.85-.88-.92-.09,0-.18,0-.28,0-.13,0-.19-.05-.23-.17-.05-.14.05-.21.13-.25.13-.08.27-.14.42-.17,1.04-.26,2.01.1,2.98.37.72.2,1.32.69,2.04.89,1.14.32,2.15.93,3.15,1.51,1.48.86,2.89,1.83,4.36,2.7.85.51,1.58,1.17,2.44,1.64.76.42,1.44.96,2.17,1.41.88.54,1.78,1.08,2.63,1.68,1.07.76,2.3,1.24,3.66,1.28.87.03,1.71-.05,2.4-.69,1.37-1.26,1.36-3.36.49-4.92-.44-.79-1.16-1.33-1.77-1.97-.11-.11-.24-.22-.4-.18-.19.05-.21.24-.23.41-.09.82-.2,1.64-.27,2.46-.05.58.14.83.7,1,.17.05.36.11.3.32-.05.19-.26.2-.43.17-1.22-.18-2.19-.85-3.1-1.63-.51-.43-.95-.95-1.49-1.34-.87-.63-1.64-1.36-2.45-2.05-1.05-.89-2.15-1.7-3.27-2.48-1.12-.78-2.25-1.54-3.42-2.23-.59-.35-1.2-.7-1.85-.97-.7-.29-1.43-.52-2.15-.75-1.03-.33-2.04-.71-3.27-.84Zm24.11-4.76c.82-.16,1.27.49,1.86.84.79.47,1.47,1.13,2.29,1.56.18.09.3.27.21.46-.09.19-.29.14-.44.04-.4-.25-.8-.51-1.2-.75-.73-.45-1.46-.89-2.19-1.33-.1-.06-.23-.15-.33-.04-.1.12-.1.29-.03.43.03.07.1.11.15.17.38.57.91,1.08,1.07,1.73.28,1.11.98,1.95,1.54,2.89.1.17.29.35.07.51-.22.16-.4-.03-.51-.23-.23-.41-.65-.69-.78-1.17-.03-.13-.16-.23-.32-.22-.14.01-.2.13-.21.26-.11.84-.46,1.56-.98,2.22-.76.96-1.52,1.9-2.9,1.91-.27,0-.51.16-.46.46.1.64-.03,1.28.01,1.92,0,.14.02.3.15.36.43.21.8.51,1.16.8.89.7,1.75,1.43,2.24,2.5.21.47.47.6.97.46,1.46-.42,2.79-1.03,3.67-2.38.6-.92,1.17-1.84,1.14-2.99-.02-.68.2-1.32.17-2-.01-.36.15-.7.29-1.05.52-1.22,1.18-2.36,1.52-3.67.33-1.27.17-2.46-.12-3.69-.22-.95-.63-1.87-.39-2.89.04-.17.07-.42-.12-.48-.2-.06-.29.17-.37.33-.28.52-.77.7-1.3.82-.08.02-.16.03-.19-.06-.02-.08,0-.16.08-.2.59-.34.89-1,1.47-1.37.14-.09.23-.24.35-.36.05-.05.06-.11.02-.16-.04-.06-.11-.09-.15-.04-.21.28-.57.34-.82.57-1.11,1.04-2.09,2.22-3.57,2.81-.58.23-1.17.43-1.79.47-.4.02-.83.26-1.21.03-.46-.28-.98-.31-1.48-.45-.14-.04-.39-.09-.43.11-.04.17.11.38.28.43.53.17,1.02.49,1.61.45Zm-18.94-2.87c0,.75.4,1.36.89,1.92.17.2.39.32.68.32.38,0,.67.12.77.56.04.16.22.28.33.43.31.42.86.37,1.23.67.46.38.95.44,1.49.21.2-.08.45-.13.55.13.2.5.67.7,1.08.86.42.17,1.05.39,1.39-.02.49-.58,1.02-.61,1.66-.51.41.06.51-.15.5-.54-.01-.61.19-1.17.61-1.62.46-.49.96-.95,1.7-.99.11,0,.22-.1.33-.15.68-.31.69-1.03.95-1.6.1-.21-.08-.31-.28-.38-1.08-.36-2-.9-2.37-2.08-.03-.1-.08-.21-.21-.22-.13,0-.17.11-.23.2-.05.08-.08.16-.12.25-.14.33-.35.58-.73.6-.41.03-.68-.22-.9-.54-.1-.16-.16-.34-.15-.52.01-.42-.24-.52-.58-.5-.36.02-.68-.09-1-.25-1.02-.51-1.67-1.29-1.9-2.42-.06-.32-.23-.47-.61-.45-.56.04-1.06.26-1.59.41-.69.19-1.03.62-.99,1.33.02.31-.11.5-.44.5-.84,0-1.35.57-1.83,1.14-.47.56-.39,1.26-.16,1.87.13.37.27.66.04,1.01-.05.09-.06.2-.1.34Zm15.05,13.76c.03-.26.06-.52.09-.77.04-.31-.05-.48-.4-.4-.98.22-1.83-.19-2.65-.64-.28-.16-.7-.21-.84-.49-.32-.63-.85-1.16-.89-1.93-.03-.57-.34-.96-.88-1.17-.36-.14-.65-.38-.97-.58-.45-.29-.81-.68-1.29-.92-.43-.22-.8-.57-1.23-.78-.71-.35-1.32-.91-2.11-1.08-.39-.09-.73-.27-1.01-.51-.59-.5-1.25-.85-1.95-1.17-.16-.07-.31-.12-.4.04-.3.48-.75.85-1.06,1.32-.31.46-.25.65.26.87.94.42,1.89.83,2.83,1.25.47.21.96.41,1.38.7.83.59,1.77,1,2.63,1.55,1.34.85,2.7,1.66,4,2.57,1.39.98,2.72,2.02,3.85,3.31.21.24.39.19.51-.11.13-.33.11-.69.14-1.04Zm-19.11,12.58c.59-.01,1.13-.14,1.42-.68.35-.65,1.01-1.11,1.12-1.91.05-.4-.04-.61-.44-.69-.53-.11-1.07-.35-1.38-.73-.64-.77-1.49-1.18-2.34-1.61-.52-.26-1.06-.39-1.65-.09-.71.36-.85,1.06-1.09,1.67-.28.7,0,1.25.63,1.67.78.52,1.55,1.06,2.32,1.6.44.31.9.61,1.43.77Zm17.05-20.07c.74.08,1.21-.1,1.69-.29.56-.23.87-.71,1.19-1.15.62-.84.91-1.83.32-2.91-.19-.34-.28-.71-.35-1.08-.05-.28-.09-.57-.23-.83-.11-.23-.3-.34-.55-.35-.24,0-.4.13-.49.34-.13.3-.22.6-.2.93.06.94-.61,1.54-1.56,1.41-.23-.03-.45-.08-.67.06-.46.3-.84.62-.95,1.22-.09.5-.02.97.06,1.45.05.3.22.53.46.65.47.23.9.58,1.27.55Zm-16.54-13.09c.29.02.47.03.66,0,1.33-.23,2.48-1.42,2.68-2.77.02-.16.1-.32.13-.48.18-.92-.02-1.76-.57-2.5-.35-.47-.75-.4-1,.1-.09.17-.21.29-.37.4-.17.11-.3.25-.36.46-.13.5-.47.81-.93.99-.59.23-1.19.22-1.79,0-.36-.13-.61-.11-.71.34-.1.48,0,.91.23,1.32.2.38.47.72.64,1.11.3.66.84.93,1.39,1.03Zm11.31,35.62c.25.04.5.06.73-.03.53-.23,1.09-.37,1.55-.77.35-.31.72-.63,1.12-.85.53-.28.87-.7,1.22-1.15.29-.39.29-.78.04-1.19-.25-.42-.55-.81-.9-1.16-.35-.36-.56-.36-.85.05-.21.29-.47.53-.77.71-.81.46-1.68.82-2.53,1.18-.85.36-1.19,1.21-.77,2.02.07.14.15.27.19.42.13.52.45.78.97.77Zm13.31-35.31c-.04.32-.09.64-.1.96,0,.23-.25.62.08.68.4.06.28-.39.3-.63.07-.88.19-1.74.82-2.42.43-.46.8-1.05,1.6-.78.49.17.78.57,1.11.92.11.12.23.3.41.24.16-.06.19-.26.22-.43.08-.62,0-1.25.19-1.86.08-.26-.09-.42-.37-.47-1.14-.21-2.21-.63-3.29-1.06-.45-.18-.49-.13-.58.35-.07.4.04.81-.06,1.18-.29,1.09-.18,2.22-.34,3.32Zm-23.97,7.92c-1.09-.11-1.08-.11-1.64.82-.14.23-.32.45-.49.66-.38.46-.73.94-1.02,1.46-.23.41-.11.59.35.62.09,0,.18.01.27,0,1.01-.09,1.97.12,2.9.47.32.12.53.03.7-.23.48-.76.91-1.55,1.54-2.2.09-.1.16-.22.22-.34.13-.25.04-.4-.22-.47-.22-.06-.45-.11-.65-.21-.62-.31-1.27-.52-1.96-.58Zm25.73-8.87c-.05,1,1.06,2.74,1.94,3.27.21.13.48.3.71.05.27-.3.46-.68.28-1.09-.46-1.06-1.09-2-2.11-2.62-.46-.28-.76-.15-.81.39Zm1.9,4.06c-.03-.1-.12-.13-.2-.17-.1-.05-.22-.06-.28-.13-.79-.83-1.56-1.67-1.87-2.82-.03-.11-.02-.27-.18-.29-.2-.03-.19.16-.23.28-.37,1.06-.09,2.04.5,2.91.44.66,1.63.72,2.26.23Zm-5.11,5.29s.11,0,.2-.03c.43-.17.84-.41,1.33-.42.11,0,.28-.1.22-.23-.06-.14-.25-.17-.4-.15-.57.07-1.08-.12-1.57-.39-.21-.12-.44-.21-.66-.31-.55-.24-1.03-.15-1.45.29-.08.09-.19.16-.29.21-.11.06-.18.12-.15.25.02.13.09.22.23.25.83.17,1.66.35,2.56.54Zm1.89-1.69c.03-.7-.15-1.24-.28-1.78-.05-.2-.14-.19-.29-.09-.29.19-.59.38-.88.56-.29.17-.58.33-.86.51-.16.11-.23.28-.21.48.01.13.11.12.2.13.63.1,1.22.33,1.86.42.4.06.56.09.47-.23Zm-.96-5.96c.03-.38.12-.76.06-1.14-.03-.21-.09-.32-.32-.22-.3.13-.62.15-.94.11-.22-.03-.37.03-.41.25-.04.19.03.35.23.45.86.45,1.03,1.32.41,2.09-.09.12-.18.25-.25.38-.05.09-.08.22,0,.3.1.11.23.06.34,0,.47-.26.8-.64.83-1.18.02-.35.05-.7.07-1.05Zm4.04,4.25c-.03.15-.04.2-.04.24,0,.13-.11.29.06.37.13.06.22-.08.31-.16.17-.15.34-.31.49-.48.34-.39.68-.78.87-1.28.06-.15.11-.31-.02-.42-.17-.14-.27.04-.38.14-.1.09-.2.21-.32.25-.72.22-1.22.58-.97,1.34Zm-1.48,1.35c.06-.51-.29-1.18-.71-1.41-.11-.06-.23-.13-.34-.07-.12.07-.1.22-.07.34.11.43.1.87.17,1.31.03.21-.07.53.2.6.31.07.48-.21.62-.44.07-.11.1-.25.13-.32Zm.8-1.57c.02-.28.1-.58-.18-.69-.44-.16-.83-.55-1.36-.34-.15.06-.24.2-.25.36-.02.16.15.19.25.22.44.15.72.5.99.84.22.28.35.26.48-.07.04-.11.05-.24.07-.32Zm-8.04,1.24c-.03.33.18.53.42.36.35-.24.66-.53.98-.82.06-.05.11-.16.05-.25-.06-.1-.16-.08-.24-.05-.33.13-.65.25-.97.39-.16.07-.23.2-.23.36Zm5.41-2.55c-.45,0-.88.09-1.32.15-.11.02-.23.02-.23.16,0,.15.14.16.23.17.38.04.75.06,1.13.08.13,0,.23-.07.32-.15.09-.07.13-.17.11-.28-.03-.15-.16-.1-.25-.13Zm-1.96-4.63c.44-.12.87-.22,1.22-.52.06-.05.1-.11.07-.2-.03-.08-.11-.11-.19-.1-.4.07-.79.2-1.14.42-.09.06-.13.18-.08.29.02.05.08.07.13.11Zm-.46,6.44c.19,0,.47.1.52-.14.05-.24-.22-.23-.39-.25-.2-.03-.44-.05-.47.21-.02.23.22.13.34.18Zm-9.23-2.24c-.11.01-.13.09-.12.16.04.22.12.43.27.6.02.02.11.03.12.01.13-.19-.13-.31-.1-.49.02-.1-.03-.24-.17-.28Z"/>
          <path class="cls-1" d="m146.32,32.91c.11.22.36.17.46.34.05.08.11.16.06.25-.06.09-.18.07-.25.03-.5-.3-1.06-.44-1.62-.57-.14-.03-.36-.19-.28-.41.09-.23.29-.07.44-.05.1.01.2.07.29.12.31.18.46.13.49-.26.02-.33.12-.66.55-.64.28.01.43.18.48.46.09.42-.14.59-.5.67-.04.01-.08.04-.14.06Z"/>
          <path class="cls-1" d="m150.12,34.96c.55.21,1.12.36,1.7.5.11.03.22.12.31.19.17.14.31.36.19.55-.13.2-.32,0-.48-.07-.62-.25-1.23-.5-1.85-.75-.15-.06-.38-.07-.31-.3.06-.23.28-.11.44-.12Z"/>
          <path class="cls-1" d="m149.94,34.22c.02-.32.18-.48.5-.45.37.04.67.35.63.66-.04.36-.32.41-.6.42-.26,0-.56-.37-.54-.63Z"/>
          <path class="cls-1" d="m153.94,36.41c.06-.25.17-.5.5-.53.15-.01.28.1.2.27-.13.29-.16.71-.53.78-.19.03-.19-.29-.18-.52Z"/>
          <path class="cls-1" d="m132.2,45.14q-1.05-.11-.58-.9c.18-.3.45-.53.61-.84.1-.2.34-.2.53-.18.48.07.97.14,1.44.24.38.08.34.34.14.53-.26.24-.49.51-.69.78-.44.58-1.02.42-1.46.37Z"/>
        </g>
      </g>
      <g>
        <path class="cls-1" d="m119.71,6l51.62,2.39c.17,0,.3.15.29.32l-3.58,77.43c0,.17-.15.3-.32.29l-51.62-2.39c-.17,0-.3-.15-.29-.32l3.58-77.43c0-.08.04-.16.1-.21.06-.06.14-.08.22-.08m-.03.62l.32-.29-3.58,77.43-.29-.32,51.62,2.39-.32.29,3.58-77.43.29.32-51.62-2.39Z"/>
        <path class="cls-1" d="m176.88,5.79c-1.62.08-2.94,1.38-3.01,3.03-.08,1.65,1.12,3.06,2.72,3.29l.03-.62c-1.26-.21-2.19-1.34-2.13-2.64.06-1.31,1.09-2.34,2.37-2.44l.03-.62Zm.44-2.87l-2.57-.12h0s0,0,0,0l-.62-.03c0,.08,0,.15,0,.23,0,.03,0,.05,0,.08,0,.1-.02.21-.03.31l.62.03h0s0,0,0,0l2.26.1-.1,2.26h0s-.03.62-.03.62c.1,0,.21,0,.31,0,.1,0,.21.02.31.03l.03-.62.12-2.57c0-.17-.12-.32-.29-.32h0Zm-8.93.21c.08,1.62,1.38,2.94,3.03,3.01,1.65.08,3.06-1.12,3.29-2.72h0s-.62-.03-.62-.03c-.21,1.26-1.34,2.19-2.64,2.13-1.31-.06-2.34-1.09-2.44-2.37l-.62-.03Zm-2.87-.75c0,.1,0,.21,0,.31,0,.1-.02.21-.03.31l.62.03h0s0,0,0,0l2.28.11.62.03c0-.1,0-.21,0-.31,0-.1.02-.21.03-.31h0s-.62-.03-.62-.03c-.01.07-.02.15-.02.23h0c0-.08.01-.15.02-.23h0s-2.28-.11-2.28-.11h0s0,0,0,0l-.62-.03h0Zm-5.11.38l-.62-.03c.08,1.62,1.38,2.94,3.03,3.01,1.65.08,3.06-1.12,3.29-2.72h0s-.62-.03-.62-.03h.31s-.31,0-.31,0c-.21,1.26-1.34,2.19-2.64,2.13-1.31-.06-2.34-1.09-2.44-2.37h0Zm-3.49-.78c0,.1,0,.21,0,.31,0,.1-.02.21-.03.31l.62.03h0s0,0,0,0l2.28.11.62.03c0-.1,0-.21,0-.31,0-.1.02-.21.03-.31h0s-.62-.03-.62-.03c-.01.07-.02.15-.02.23h0c0-.08.01-.15.02-.23h0s-2.28-.11-2.28-.11h0s0,0,0,0l-.62-.03h0Zm-5.11.38l-.62-.03c.08,1.62,1.38,2.94,3.03,3.01,1.65.08,3.06-1.12,3.29-2.72h0s-.62-.03-.62-.03h.31s-.31,0-.31,0c-.21,1.26-1.34,2.19-2.64,2.13-1.31-.06-2.34-1.09-2.44-2.37h0Zm-3.49-.78c0,.1,0,.21,0,.31,0,.1-.02.21-.03.31l.62.03s0,0,0,0h0s2.28.11,2.28.11h0s.62.03.62.03c0-.1,0-.21,0-.31,0-.1.02-.21.03-.31h0s-.62-.03-.62-.03c-.01.07-.02.15-.02.23,0-.08.01-.15.02-.23h0s-2.28-.11-2.28-.11h0s0,0,0,0l-.62-.03h0Zm-5.11.38l-.62-.03c.08,1.62,1.38,2.94,3.03,3.01,1.65.08,3.06-1.12,3.29-2.72h0s-.62-.03-.62-.03h.31s-.31,0-.31,0c-.21,1.26-1.34,2.19-2.64,2.13-1.31-.06-2.34-1.09-2.44-2.37h0Zm-2.87-.75l-.62-.03c0,.1,0,.21,0,.31,0,.1-.02.21-.03.31l.62.03h0s0,0,0,0l2.28.11h0s.62.03.62.03c0-.1,0-.21,0-.31,0-.1.02-.21.03-.31h0s-.62-.03-.62-.03c-.01.08-.02.16-.03.24h0c0-.08.01-.16.03-.24h0s-2.28-.11-2.28-.11h0,0s0,0,0,0Zm-5.73.35l-.62-.03c.08,1.62,1.38,2.94,3.03,3.01,1.65.08,3.06-1.12,3.29-2.72h0s-.62-.03-.62-.03h.31s-.31,0-.31,0c-.21,1.26-1.34,2.19-2.64,2.13-1.31-.06-2.34-1.09-2.44-2.37h0Zm-2.87-.75l-.62-.03c0,.1,0,.21,0,.31,0,.1-.02.21-.03.31l.62.03h0s0,0,0,0l2.28.11.62.03c0-.1,0-.21,0-.31,0-.1.02-.21.03-.31h0s-.62-.03-.62-.03c-.01.08-.02.17-.03.26,0-.09.01-.17.03-.26h0s-2.28-.11-2.28-.11h0s0,0,0,0h0Zm-5.73.35l-.62-.03c.08,1.62,1.38,2.94,3.03,3.01,1.65.08,3.06-1.12,3.29-2.72h0s-.62-.03-.62-.03h.31s-.31,0-.31,0c-.21,1.26-1.34,2.19-2.64,2.13-1.31-.06-2.34-1.09-2.44-2.37h0Zm-2.87-.75l-.62-.03c0,.1,0,.21,0,.31,0,.1-.02.21-.03.31l.62.03h0s0,0,0,0l2.28.11h0s0,0,0,0l.62.03c0-.1,0-.21,0-.31,0-.1.02-.21.03-.31h0s-.62-.03-.62-.03c-.01.1-.02.2-.03.3,0-.1.01-.2.03-.3h0s-2.28-.11-2.28-.11h0s0,0,0,0h0Zm-5.73.35l-.62-.03c.08,1.62,1.38,2.94,3.03,3.01,1.65.08,3.06-1.12,3.29-2.72h0s-.62-.03-.62-.03h.31s-.31,0-.31,0c-.21,1.26-1.34,2.19-2.64,2.13-1.31-.06-2.34-1.09-2.44-2.37h0ZM114.24,0c-.17,0-.32.12-.32.29l-.12,2.57h0s-.03.62-.03.62c.1,0,.21,0,.31,0,.1,0,.21.02.31.03l.03-.62h0s0,0,0,0l.1-2.26,2.26.1.62.03c0-.1,0-.21,0-.31,0-.1.02-.21.03-.31h0s-.62-.03-.62-.03c-.01.07-.02.15-.03.22h0c0-.08.01-.15.02-.23h0s-2.57-.12-2.57-.12h0Zm.18,2.9l-.03.62c1.26.21,2.19,1.34,2.13,2.64-.06,1.31-1.09,2.34-2.37,2.44l-.03.62c1.62-.08,2.94-1.38,3.01-3.03.08-1.65-1.12-3.06-2.72-3.29h0Zm-.88,5.67l-.03.62-.11,2.28h0s0,0,0,0l-.03.62c.1,0,.21,0,.31,0,.1,0,.21.02.31.03l.03-.62h0s0,0,0,0l.11-2.28h0s-.06,0-.08,0h0s-.04,0-.05,0c-.04,0-.09,0-.13,0h0c.09,0,.18,0,.26,0l.03-.62h0s-.08,0-.11,0c-.07,0-.13,0-.2,0-.1,0-.21-.02-.31-.03h0Zm.48,2.93l-.03.62c1.26.21,2.19,1.34,2.13,2.64-.06,1.31-1.09,2.34-2.37,2.44l-.03.62c1.62-.08,2.94-1.38,3.01-3.03.08-1.65-1.12-3.06-2.72-3.29h0Zm-.27,5.7c-.1,0-.21,0-.31,0-.1,0-.2-.01-.29-.03h0s-.04.62-.04.62c0,0,.01,0,.02,0h0s0,0,0,0l-.12,2.28h0s0,0,0,0l-.03.62c.1,0,.21,0,.31,0,.05,0,.11,0,.16.01,0,0,.01,0,.02,0,0,0,0,0,0,0h0s0,0,.01,0c0,0,0,0,0,0h0s0,0,0,0c.01,0,.02,0,.03,0,0,0,0,0,.01,0h0s0,0,0,0c0,0,0,0,0,0h0s.03,0,.05,0l.03-.62h0s0,0,0,0l.11-2.28h0s.03-.62.03-.62h0Zm-.13,2.9l-.03.62c1.26.21,2.19,1.34,2.13,2.64-.06,1.31-1.09,2.34-2.37,2.44l-.03.62c1.62-.08,2.94-1.38,3.01-3.03.08-1.65-1.12-3.06-2.72-3.29h0Zm-.27,5.7c-.1,0-.2,0-.31,0-.1,0-.2-.01-.29-.03h0s-.04.62-.04.62l-.11,2.28h0s0,0,0,0l-.03.62c.1,0,.21,0,.31,0,.05,0,.11,0,.16.01,0,0,0,0,0,0,0,0,0,0,.01,0,0,0,0,0,0,0h0s0,0,0,0h0s0,0,0,0c0,0,0,0,0,0,0,0,0,0,0,0h0s0,0,.01,0c0,0,0,0,0,0h0s0,0,0,0c.01,0,.03,0,.04,0h0s0,0,0,0h0s0,0,0,0h0s.03,0,.04,0l.03-.62s0,0,0,0h0s.11-2.28.11-2.28h0s-.04,0-.05,0c0,0,0,0,0,0,0,0,0,0,0,0h0s.04,0,.05,0l.03-.62h0Zm-.18.63h0s0,0,0,0h0s0,0,0,0c0,0,0,0,0,0h0Zm0,0h0s0,0,0,0h0s0,0,0,0c0,0,0,0,0,0h0s0,0,0,0Zm0,0h0s0,0,0,0h0s0,0,0,0h0,0s0,0,0,0h0s0,0,0,0h0Zm-.02,0h0s0,0,0,0h0s0,0,0,0h0Zm-.02,0h0s0,0,0,0h0s0,0,0,0Zm0,0h0s0,0,0,0Zm-.23-.01h0s0,0,0,0h0s0,0,0,0h0s0,0,0,0h0Zm.21.01h0s0,0,0,0c0,0,0,0,0,0h0Zm-.02,0h0s0,0,0,0Zm-.1,0h0,0Zm0,0h0s0,0,0,0h0Zm.02,0h0s0,0,0,0h0s0,0,0,0c0,0,0,0,0,0h0Zm0,0h0s0,0,0,0h0Zm0,0h0s0,0,0,0h0Zm0,0h0s0,0,0,0h0s0,0,0,0h0s0,0,0,0Zm0,0h0s0,0,0,0h0Zm.02,0h0s0,0,0,0h0s0,0,0,0h0s0,0,0,0h0s0,0,0,0h0s0,0,0,0h0s0,0,0,0Zm0,0h0s0,0,0,0h0s0,0,0,0h0s0,0,0,0h0Zm0,0h0s0,0,0,0Zm.21,2.28l-.03.62c1.26.21,2.19,1.34,2.13,2.64-.06,1.31-1.09,2.34-2.37,2.44l-.03.62c1.62-.08,2.94-1.38,3.01-3.03.08-1.65-1.12-3.06-2.72-3.29h0Zm-.26,5.7h0s0,0,0,0c-.1,0-.2,0-.3,0-.1,0-.2-.01-.29-.03h0s-.04.62-.04.62c0,0,.01,0,.02,0h0s-.12,2.28-.12,2.28h0s-.03.62-.03.62c.1,0,.21,0,.31,0,.1,0,.21.02.31.03l.03-.62s0,0,0,0h0s.11-2.28.11-2.28h0s-.02,0-.04,0c-.09,0-.17,0-.26,0,.1,0,.2,0,.3,0l.03-.62Zm-.13,2.9l-.03.62c1.26.21,2.19,1.34,2.13,2.64-.06,1.31-1.09,2.34-2.37,2.44l-.03.62h0s0,0,0,0c1.62-.08,2.94-1.38,3.01-3.03.08-1.65-1.12-3.06-2.72-3.29h0Zm-.26,5.7h0s0,0,0,0c-.1,0-.2,0-.3,0-.1,0-.2-.01-.29-.03h0s-.04.62-.04.62l-.11,2.28h0s-.01,0-.02,0v.62c.09,0,.2,0,.3,0,.1,0,.21.02.31.03l.03-.62s0,0,0,0h0s.11-2.28.11-2.28h0s-.07,0-.1,0c-.07,0-.14,0-.2,0,.1,0,.21,0,.31,0l.03-.62Zm-.13,2.9l-.03.62c1.26.21,2.19,1.34,2.13,2.64-.06,1.31-1.09,2.34-2.37,2.44l-.03.62h0c1.62-.08,2.94-1.38,3.01-3.03.08-1.65-1.12-3.06-2.72-3.29h0Zm-.88,5.67l-.03.62-.11,2.28h0s-.01,0-.02,0v.62c.09,0,.2,0,.3,0,.1,0,.21.02.31.03l.03-.62h0s0,0,0,0l.11-2.28h0s-.07,0-.1,0h0s-.03,0-.04,0h0s-.04,0-.06,0c-.04,0-.07,0-.11,0,.1,0,.21,0,.31,0l.03-.62h0s-.07,0-.1,0c-.07,0-.14,0-.21,0-.1,0-.21-.02-.31-.03h0Zm.48,2.93l-.03.62c1.26.21,2.19,1.34,2.13,2.64-.06,1.31-1.09,2.34-2.37,2.44l-.03.62c1.62-.08,2.94-1.38,3.01-3.03.08-1.65-1.12-3.06-2.72-3.29h0Zm-.88,5.67l-.03.62-.11,2.28h0s-.03.62-.03.62c.1,0,.21,0,.31,0,.1,0,.21.02.31.03l.03-.62h0s0,0,0,0l.11-2.28h0s-.06,0-.09,0c-.05,0-.1,0-.16,0h0c.08,0,.16,0,.24,0l.03-.62h0s-.07,0-.1,0c-.07,0-.14,0-.21,0-.1,0-.21-.02-.31-.03h0Zm.31.03h0s0,0,0,0h0s0,0,0,0h0s0,0,0,0Zm.18,2.9l-.03.62c1.26.21,2.19,1.34,2.13,2.64-.06,1.31-1.09,2.34-2.37,2.44l-.03.62c1.62-.08,2.94-1.38,3.01-3.03.08-1.65-1.12-3.06-2.72-3.29h0Zm-.88,5.67l-.03.62-.11,2.28h0s0,0,0,0c0,0,0,0-.01,0l-.02.62c.1,0,.21,0,.31,0,.1,0,.21.02.31.03l.03-.62h0s0,0,0,0h0s.11-2.28.11-2.28h0s-.06,0-.09,0c-.04,0-.08,0-.12,0h0c.07,0,.14,0,.2,0l.03-.62h0s-.08,0-.11,0c-.07,0-.13,0-.2,0-.1,0-.21-.02-.31-.03h0Zm.17.64s.07,0,.11,0h0s0,0,0,0c-.04,0-.07,0-.11,0h0Zm.31,2.29l-.03.62c1.26.21,2.19,1.34,2.13,2.64-.06,1.31-1.09,2.34-2.37,2.44l-.03.62c1.62-.08,2.94-1.38,3.01-3.03.08-1.65-1.12-3.06-2.72-3.29h0Zm-.88,5.67l-.03.62s.01,0,.02,0h0s-.12,2.28-.12,2.28h0s0,0,0,0l-.03.62c.1,0,.21,0,.31,0,.1,0,.21.02.31.03l.03-.62h0s0,0,0,0l.11-2.28h0s-.01,0-.02,0c0,0-.01,0-.02,0h0s.02,0,.03,0l.03-.62h0s-.08,0-.11,0c-.07,0-.13,0-.2,0-.1,0-.21-.02-.31-.03h0Zm.48,2.93l-.03.62c1.26.21,2.19,1.34,2.13,2.64-.06,1.31-1.09,2.34-2.37,2.44l-.03.62c1.62-.08,2.94-1.38,3.01-3.03.08-1.65-1.12-3.06-2.72-3.29h0Zm-.26,5.7c-.1,0-.2,0-.31,0-.1,0-.2-.01-.29-.03h0s-.04.62-.04.62l-.12,2.57c0,.17.12.32.29.32l2.57.12.62.03c0-.1,0-.21,0-.31,0-.1.02-.21.03-.31h0s-.62-.03-.62-.03c-.01.07-.02.15-.02.23h0c0-.08.01-.15.02-.23l-2.26-.1.1-2.26s0,0,0,0h0s0,0,0,0l.03-.62h0Zm5.43.27c-1.65-.08-3.06,1.12-3.29,2.72l.62.03c.21-1.26,1.34-2.19,2.64-2.13,1.31.06,2.34,1.09,2.44,2.37h.31s0,.01,0,.01h-.31s.62.01.62.01h0s0,0,0,0c-.08-1.62-1.38-2.94-3.03-3.01h0Zm2.41,2.99c0,.1,0,.21,0,.31,0,.1-.02.21-.03.31l.62.03h0s0,0,0,0l2.28.11h0s0,0,0,0l.62.03c0-.1,0-.21,0-.31,0-.1.02-.21.03-.31h0s-.62-.03-.62-.03c-.01.07-.02.15-.02.23h0c0-.08.01-.15.02-.23l-2.28-.11h0s0,0,0,0l-.62-.03h0Zm6.2-2.59c-1.65-.08-3.06,1.12-3.29,2.72l.62.03c.21-1.26,1.34-2.19,2.65-2.13,1.31.06,2.34,1.09,2.44,2.37h.02s.6.03.6.03h0s0,0,0,0h0s0,0,0,0c-.08-1.62-1.38-2.94-3.03-3.01h0Zm3.03,3.01h0s0,0,0,0h0s-.62-.03-.62-.03c0,.1,0,.2,0,.31,0,.1-.02.21-.03.31l.62.03h0s0,0,0,0l2.28.11h0s0,0,0,0l.62.03c0-.1,0-.21,0-.31,0-.1.02-.21.03-.31h0s-.62-.03-.62-.03c-.01.07-.02.15-.02.23,0-.08.01-.15.02-.23l-2.28-.11Zm5.57-2.62c-1.65-.08-3.06,1.12-3.29,2.72l.62.03c.21-1.26,1.34-2.19,2.64-2.13,1.31.06,2.34,1.09,2.44,2.37h.31s0,.01,0,.01h-.3s.61.01.61.01h0s0,0,0,0c-.08-1.62-1.38-2.94-3.03-3.01h0Zm3.03,3.01h0s0,0,0,0h0s-.62-.03-.62-.03c0,.1,0,.2,0,.31,0,.1-.02.21-.03.31l.62.03h0s0,0,0,0l2.28.11h0s.62.03.62.03c0-.1,0-.21,0-.31,0-.1.02-.21.03-.31h0s-.62-.03-.62-.03c-.01.07-.02.15-.02.23,0-.08.01-.15.02-.23l-2.28-.11Zm5.57-2.62c-1.65-.08-3.06,1.12-3.29,2.72l.62.03c.21-1.26,1.34-2.19,2.64-2.13,1.31.06,2.34,1.09,2.44,2.37h.31s-.31,0-.31,0l.62.03h0s0,0,0,0c-.08-1.62-1.38-2.94-3.03-3.01h0Zm3.04,3.01c0,.08,0,.15,0,.23h0c0-.08,0-.15,0-.23h0s-.62-.03-.62-.03c0,.1,0,.2,0,.31,0,.1-.02.21-.03.31l.62.03h0s0,0,0,0l2.28.11h0s.62.03.62.03c0-.1,0-.21,0-.31,0-.1.02-.21.03-.31h0s-.62-.03-.62-.03c-.01.07-.02.15-.02.23,0-.08.01-.15.02-.23l-2.27-.11h0Zm5.57-2.62c-1.65-.08-3.06,1.12-3.29,2.72l.62.03c.21-1.26,1.34-2.19,2.64-2.13,1.31.06,2.34,1.09,2.44,2.37h.31s-.31,0-.31,0l.62.03h0s0,0,0,0c-.08-1.62-1.38-2.94-3.03-3.01h0Zm3.03,3.01s0,0,0,0h0s-.62-.03-.62-.03h0c0,.08,0,.15,0,.23,0,.03,0,.05,0,.08,0,.1-.02.21-.03.31l.62.03h0s0,0,0,0l2.28.11h0s.62.03.62.03c0-.1,0-.21,0-.31,0-.1.02-.21.03-.31h0s-.62-.03-.62-.03c-.01.07-.02.15-.02.23,0-.08.01-.15.02-.23l-2.28-.11h0Zm5.57-2.62c-1.65-.08-3.06,1.12-3.29,2.72l.62.03c.21-1.26,1.34-2.19,2.64-2.13,1.31.06,2.34,1.09,2.44,2.37h.02s.6.03.6.03h0s0,0,0,0c-.08-1.62-1.38-2.94-3.03-3.01h0Zm3.03,3.01h0c0,.08,0,.15,0,.23h0c0-.08,0-.15,0-.23l-.62-.03h0c0,.08,0,.15,0,.23,0,.03,0,.05,0,.08,0,.1-.02.21-.03.31l.62.03h0s0,0,0,0l2.28.11s0,0,0,0h0s0,0,0,0l.62.03c0-.1,0-.21,0-.31,0-.1.02-.21.03-.31l-.62-.03s0,0,0,0h0s0,0,0,0l-2.28-.11h0Zm5.57-2.62c-1.65-.08-3.06,1.12-3.29,2.72l.62.03c.21-1.26,1.34-2.19,2.64-2.13,1.31.06,2.34,1.09,2.44,2.37h.31s-.31,0-.31,0l.61.03h0c-.08-1.62-1.38-2.94-3.03-3.01h0Zm5.43.23l-.03.62s0,0,0,0h0s-.11,2.26-.11,2.26l-2.26-.1h0c0,.08,0,.15,0,.23,0-.08,0-.15,0-.23l-.62-.03h0c0,.08,0,.15,0,.23,0,.03,0,.05,0,.08,0,.1-.02.21-.03.31l.62.03h0s0,0,0,0l2.57.12c.08,0,.16-.03.22-.08.06-.06.1-.13.1-.21l.12-2.57h0s.03-.62.03-.62h0s-.03,0-.04,0c0,0,0,0,0,0,0,0,0,0,0,0h0s0,0,0,0c0,0,0,0,0,0h0s0,0,0,0c0,0,0,0,0,0,0,0,0,0,0,0-.02,0-.03,0-.05,0h0s0,0,0,0c0,0,0,0,0,0h0s0,0,0,0c0,0-.01,0-.02,0,0,0,0,0,0,0h0c-.06,0-.12,0-.18,0-.1,0-.21-.02-.31-.03h0Zm.51.03s0,0,0,0c0,0,0,0,0,0,0,0,0,0,0,0h0Zm-.25-5.74c-1.62.08-2.94,1.38-3.01,3.03-.08,1.65,1.12,3.06,2.72,3.29l.03-.62c-1.26-.21-2.19-1.34-2.13-2.64.06-1.31,1.09-2.34,2.37-2.44l.03-.62Zm.75-2.87c-.1,0-.21,0-.31,0-.1,0-.21-.02-.31-.03l-.03.62-.11,2.28h0,0l-.03.62c.1,0,.21,0,.31,0,.1,0,.21.02.31.03l.03-.62.11-2.28h0s0,0,0,0h0s0,0,0,0c0,0,0,0,0,0h0s0,0,0,0c0,0,0,0,0,0h0s0,0,0,0c0,0,0,0,0,0h0s0,0,0,0l.03-.62h0Zm-.04.62h0s0,0,0,0h0Zm-.01,0h0s0,0,0,0c0,0,0,0,0,0h0s0,0,0,0c0,0,0,0,0,0,0,0,0,0,0,0,0,0,0,0,0,0h0s0,0,0,0c0,0,0,0,0,0h0Zm-.02,0h0s0,0,0,0t0,0h0Zm-.05,0h0s0,0,0,0h0s0,0,0,0h0s0,0,0,0t0,0h0s0,0,0,0h0s0,0,0,0h0s0,0,0,0h0s0,0,0,0h0Zm0,0h0s0,0,0,0h0s0,0,0,0Zm-.01,0s0,0,0,0c0,0,0,0,0,0,0,0,0,0,0,0,0,0,0,0,0,0h0s0,0,0,0h0s0,0,0,0c0,0,0,0,0,0h0s0,0,0,0h0s0,0,0,0h0s0,0,0,0h0s0,0,0,0h0s0,0,0,0h0s.01,0,.02,0c0,0,0,0,0,0h0Zm.54-9.23c-.1,0-.21,0-.31,0-.1,0-.21-.02-.31-.03l-.03.62-.11,2.28h0s-.03.62-.03.62c.1,0,.21,0,.31,0,.1,0,.21.02.31.03l.03-.62.11-2.28h0s0,0,0,0h0s.03-.62.03-.62h0Zm-.75,2.87c-1.62.08-2.94,1.38-3.01,3.03-.08,1.65,1.12,3.06,2.72,3.29l.03-.62c-1.26-.21-2.19-1.34-2.13-2.64.06-1.31,1.09-2.34,2.37-2.44l.03-.62h0Zm.53-11.5l-.03.62-.11,2.28h0s-.03.62-.03.62c.1,0,.21,0,.31,0,.1,0,.21.02.31.03l.03-.62.11-2.28h0s0,0,0,0h0s.03-.62.03-.62h0c-.1,0-.21,0-.31,0-.1,0-.21-.02-.31-.03h0Zm-.13,2.9c-1.62.08-2.94,1.38-3.01,3.03-.08,1.65,1.12,3.06,2.72,3.29l.03-.62c-1.26-.21-2.19-1.34-2.13-2.64.06-1.31,1.09-2.34,2.37-2.44l.03-.62Zm.4-8.6c-1.62.08-2.94,1.38-3.01,3.03-.08,1.65,1.12,3.06,2.72,3.29l.03-.62c-1.26-.21-2.19-1.34-2.13-2.64.06-1.31,1.09-2.34,2.37-2.44l.03-.62Zm.13-2.9l-.03.62-.11,2.28h0s-.03.62-.03.62c.1,0,.21,0,.31,0,.09,0,.18.01.27.03-.01,0-.02,0-.03,0h0s0,0,0,0h0s0,0,0,0h0s0,0,0,0c.01,0,.02,0,.03,0,.01,0,.03,0,.04,0l.03-.62s-.02,0-.03,0c-.02,0-.03,0-.05,0h0s.05,0,.08.01l.11-2.28h0s0,0,0,0c0,0,0,0-.01,0,0,0,0,0,0,0,0,0,0,0,0,0,0,0,0,0,0,0h0s0,0,0,0,0,0,0,0h0s0,0,0,0c0,0,0,0,0,0,0,0,0,0,0,0,0,0,0,0,0,0,0,0,0,0,0,0,0,0,0,0,0,0h0s0,0,0,0c0,0,0,0,0,0h0s0,0,0,0c.01,0,.02,0,.03,0h0s0,0,0,0c0,0,0,0,0,0h0s0,0,0,0l.03-.62h0c-.1,0-.21,0-.31,0-.1,0-.21-.02-.31-.03h0Zm.56.65h0s0,0,0,0h0Zm-.02,0s0,0,0,0c0,0,0,0,0,0,0,0-.01,0-.02,0,0,0,0,0,0,0,0,0,0,0,.01,0h0Zm-.03,0s-.01,0-.02,0c0,0,.01,0,.02,0h0Zm-.25-6.36c-1.62.08-2.94,1.38-3.01,3.03-.08,1.65,1.12,3.06,2.72,3.29l.03-.62c-1.26-.21-2.19-1.34-2.13-2.64.06-1.31,1.09-2.34,2.37-2.44l.03-.62Zm.13-2.9l-.03.62s0,0,0,0h0s-.11,2.28-.11,2.28h0s-.03.62-.03.62c.1,0,.21,0,.31,0,.1,0,.21.02.31.03l.03-.62h0s0,0,0,0l.11-2.28s0,0,0,0t0,0h0s0,0,0,0c0,0,0,0,0,0,0,0,0,0,0,0,0,0,0,0,0,0-.05,0-.1,0-.15,0,.01,0,.03,0,.04,0,.04,0,.09,0,.13,0l.03-.62h0c-.1,0-.21,0-.31,0-.1,0-.21-.02-.31-.03h0Zm.26-5.7c-1.62.08-2.94,1.38-3.01,3.03-.08,1.65,1.12,3.06,2.72,3.29l.03-.62c-1.26-.21-2.19-1.34-2.13-2.64.06-1.31,1.09-2.34,2.37-2.44l.03-.62Zm.13-2.9l-.03.62h0s0,0,0,0l-.11,2.28h0s-.03.62-.03.62c.1,0,.21,0,.31,0,.1,0,.21.02.31.03l.03-.62h0s0,0,0,0l.11-2.28h0s.03-.62.03-.62c-.1,0-.21,0-.31,0-.1,0-.21-.02-.31-.03h0Zm.26-5.7c-1.62.08-2.94,1.38-3.01,3.03-.08,1.65,1.12,3.06,2.72,3.29l.03-.62c-1.26-.21-2.19-1.34-2.13-2.64.06-1.31,1.09-2.34,2.37-2.44l.03-.62Zm.13-2.9l-.03.62s0,0,0,0h0s-.11,2.28-.11,2.28h0,0l-.03.62c.1,0,.21,0,.31,0,.1,0,.2.02.3.03,0,0,0,0,0,0,0,0,0,0,0,0,0,0,0,0,0,0l.03-.62h0s0,0,0,0l.11-2.28h0s-.01,0-.02,0c0,0,0,0,0,0,0,0,0,0,0,0,0,0,0,0,0,0h0s0,0,0,0h0s0,0,0,0h0s0,0,0,0l.03-.62h0c-.1,0-.21,0-.31,0-.1,0-.21-.02-.31-.03h0Zm.55.65s0,0-.01,0c0,0,0,0,.01,0h0Zm-.28-6.35c-1.62.08-2.94,1.38-3.01,3.03-.08,1.65,1.12,3.06,2.72,3.29l.03-.62c-1.26-.21-2.19-1.34-2.13-2.64.06-1.31,1.09-2.34,2.37-2.44l.03-.62Zm.13-2.9l-.03.62-.11,2.28h0s0,0,0,0l-.03.62c.1,0,.21,0,.31,0,.1,0,.21.02.31.03l.03-.62.11-2.28h0s-.01,0-.02,0h0s0,0,0,0c0,0,0,0,0,0h0s0,0,.01,0l.03-.62h0c-.1,0-.21,0-.31,0-.1,0-.21-.02-.31-.03h0Zm.58.65s0,0,0,0c0,0,0,0,0,0h0Zm0,0s0,0,0,0c0,0,0,0,0,0h0Zm0,0s0,0,0,0c0,0,0,0,0,0h0Zm-.03,0s-.01,0-.02,0c0,0,.01,0,.02,0h0Zm-.05,0h0s0,0,0,0h0Zm-.23-6.36c-1.62.08-2.94,1.38-3.01,3.03-.08,1.65,1.12,3.06,2.72,3.29l.03-.62c-1.26-.21-2.19-1.34-2.13-2.64.06-1.31,1.09-2.34,2.37-2.44l.03-.62Zm.75-2.87c-.1,0-.21,0-.31,0-.1,0-.21-.02-.31-.03l-.03.62-.11,2.28h0,0s-.03.62-.03.62c.1,0,.21,0,.31,0,.1,0,.21.02.31.03l.03-.62.11-2.28h0s0,0,0,0h0s.03-.62.03-.62h0Z"/>
      </g>
      <g>
        <path class="cls-1" d="m131.36,10.49c.25.01.45.06.62.15.17.09.29.21.39.35.1.14.16.3.2.47s.05.35.04.53c-.01.25-.06.46-.14.64-.08.18-.19.33-.33.44-.14.11-.3.19-.5.24s-.4.07-.63.06l-.52-.03-.09,1.92-.97-.05.24-4.81,1.7.08Zm-.4,2.16c.19,0,.35-.04.48-.15.12-.11.19-.29.21-.54.01-.24-.03-.43-.13-.56-.1-.13-.27-.2-.51-.21l-.4-.02-.07,1.46.43.02Z"/>
        <path class="cls-1" d="m133.05,11.97c.05-.31.13-.57.26-.78.12-.21.3-.38.52-.49.22-.11.51-.16.88-.14.36.02.65.09.86.23.21.13.37.31.47.54.1.23.17.49.18.8.02.31.02.65,0,1.01-.02.37-.05.71-.1,1.01-.05.3-.14.56-.26.78-.12.21-.3.38-.52.48-.22.11-.51.15-.88.13-.37-.02-.65-.09-.86-.22-.21-.13-.37-.3-.47-.53-.1-.23-.17-.49-.18-.8s-.02-.64,0-1.01c.02-.36.05-.7.1-1.01Zm.85,1.88c0,.23.03.41.07.56.04.14.1.25.19.32.08.07.2.11.34.12.14,0,.26-.02.35-.08.09-.06.16-.16.22-.3.05-.14.09-.32.12-.55.03-.23.05-.5.06-.82.02-.32.02-.6.02-.82,0-.23-.03-.41-.07-.56-.04-.15-.1-.25-.19-.32-.08-.07-.2-.11-.34-.12-.14,0-.26.02-.35.08-.09.06-.16.16-.22.3-.05.14-.09.32-.12.55-.03.22-.05.5-.06.82-.02.32-.02.6-.02.83Z"/>
        <path class="cls-1" d="m136.91,10.76l.97.05-.2,4.02,1.72.08-.04.8-2.69-.13.24-4.81Z"/>
        <path class="cls-1" d="m139.92,12.31c.05-.31.13-.57.26-.78.12-.21.3-.38.52-.49.22-.11.51-.16.88-.14.36.02.65.09.86.23.21.13.37.31.47.54.1.23.17.49.18.8.02.31.02.65,0,1.01-.02.37-.05.71-.1,1.01-.05.3-.14.56-.26.78-.12.21-.3.38-.52.48-.22.11-.51.15-.88.13-.37-.02-.65-.09-.86-.22-.21-.13-.37-.3-.47-.53-.1-.23-.17-.49-.18-.8-.02-.31-.02-.65,0-1.01.02-.36.05-.7.1-1.01Zm.85,1.88c0,.23.03.41.07.56.04.14.1.25.19.32.08.07.2.11.34.11.14,0,.26-.02.35-.08.09-.06.16-.16.22-.3.05-.14.09-.32.12-.55s.05-.5.06-.82c.02-.32.02-.6.02-.82,0-.23-.03-.41-.07-.56-.04-.15-.1-.25-.19-.32-.08-.07-.2-.11-.34-.12-.14,0-.26.02-.35.08-.09.06-.16.16-.22.3-.05.14-.09.32-.12.55-.03.22-.05.5-.06.82-.02.32-.02.6-.02.83Z"/>
        <path class="cls-1" d="m147.53,14.59h.01s.16-3.3.16-3.3l.89.04-.24,4.81-1.11-.05-1.02-3.43h-.01s-.17,3.37-.17,3.37l-.89-.04.24-4.81,1.12.05,1.01,3.35Z"/>
        <path class="cls-1" d="m149.15,12.77c.05-.31.13-.57.26-.78.12-.21.3-.38.52-.49.22-.11.51-.16.88-.14.36.02.65.09.86.23.21.13.37.31.47.54.1.23.17.49.18.8.02.31.02.65,0,1.01-.02.37-.05.71-.1,1.01-.05.3-.14.56-.26.78-.12.21-.3.38-.52.48-.22.11-.51.15-.88.13-.37-.02-.65-.09-.86-.22-.21-.13-.37-.3-.47-.53-.1-.23-.17-.49-.18-.8-.02-.31-.02-.65,0-1.01.02-.36.05-.7.1-1.01Zm.85,1.88c0,.23.03.41.07.56.04.14.1.25.19.32.08.07.2.11.34.11.14,0,.26-.02.35-.08.09-.06.16-.16.22-.3.05-.14.09-.32.12-.55.03-.23.05-.5.06-.82.02-.32.02-.6.02-.82,0-.23-.03-.41-.07-.56-.04-.15-.1-.25-.19-.32-.08-.07-.2-.11-.34-.12-.14,0-.26.02-.35.08-.09.06-.16.16-.22.3-.05.14-.09.32-.12.55-.03.22-.05.5-.06.82-.02.32-.02.6-.02.83Z"/>
        <path class="cls-1" d="m154.81,11.64c.4.02.71.14.93.35.21.21.31.53.29.95-.02.32-.09.58-.23.78-.14.2-.35.32-.63.36h0c.24.06.41.15.52.28.11.13.17.33.18.6,0,.09,0,.19,0,.29s0,.22,0,.35c0,.26,0,.45.01.59.02.14.07.23.16.29v.04s-1.05-.05-1.05-.05c-.05-.07-.07-.15-.08-.24,0-.09-.01-.18-.01-.27l.02-.93c0-.19-.04-.34-.12-.45-.08-.11-.22-.17-.42-.18l-.52-.03-.1,2.04-.97-.05.24-4.81,1.79.09Zm-.52,2.08c.23.01.42-.03.55-.14.13-.1.2-.29.22-.55.02-.45-.19-.68-.64-.7l-.46-.02-.07,1.39.4.02Z"/>
        <path class="cls-1" d="m159.43,12.67l-1.05-.05-.2,4.02-.97-.05.2-4.02-1.05-.05.04-.8,3.07.15-.04.8Z"/>
        <path class="cls-1" d="m162.53,12.82l-1.72-.08-.06,1.13,1.62.08-.04.8-1.62-.08-.06,1.29,1.79.09-.04.8-2.76-.14.24-4.81,2.69.13-.04.8Z"/>
      </g>
      <g>
        <path class="cls-1" d="m151.62,81.78c.01-.21.04-.41.09-.59.05-.18.13-.35.22-.52.09-.16.21-.32.35-.47.14-.15.3-.31.49-.46l.41-.34c.11-.09.2-.17.27-.25.07-.08.12-.16.16-.24.04-.08.07-.17.08-.26.01-.09.03-.2.03-.32.02-.4-.13-.6-.44-.62-.12,0-.22.01-.29.06-.07.05-.13.11-.17.19-.04.08-.07.18-.09.29-.02.11-.03.23-.04.36l-.93-.05v-.18c.03-.44.17-.78.42-1.01.25-.23.63-.33,1.14-.3.49.02.84.15,1.06.39.22.24.32.56.3.98,0,.15-.03.29-.06.43-.03.13-.08.26-.15.38-.07.12-.15.23-.25.34-.1.11-.22.22-.36.34l-.56.47c-.15.12-.27.24-.36.36-.09.12-.14.22-.17.31l1.8.09-.04.75-2.94-.14Z"/>
        <path class="cls-1" d="m155.05,78.76c.04-.3.11-.57.22-.8.11-.23.27-.41.47-.54.21-.13.49-.19.84-.17.29.01.53.07.72.16s.33.23.44.42.17.43.21.73.04.66.02,1.08c-.02.33-.04.65-.08.96-.04.3-.11.57-.22.8-.11.23-.27.41-.48.53-.21.13-.49.18-.84.16-.29-.01-.53-.06-.72-.15-.19-.09-.34-.22-.44-.41-.11-.19-.17-.43-.21-.73-.03-.3-.04-.66-.02-1.08.02-.33.04-.65.08-.96Zm.87,1.95c0,.19.03.34.06.46.04.11.09.19.15.23.06.04.15.07.25.07.11,0,.2-.02.27-.06.07-.05.13-.13.17-.26.04-.12.08-.29.11-.49.03-.21.05-.46.06-.77l.03-.52c.01-.3.02-.55.01-.74,0-.19-.03-.34-.06-.46-.03-.11-.08-.19-.15-.23-.07-.04-.15-.07-.25-.07-.11,0-.2.02-.27.06-.07.05-.13.13-.17.26-.04.12-.08.29-.11.49-.03.21-.05.46-.06.77l-.03.52c-.01.3-.02.55-.01.74Z"/>
        <path class="cls-1" d="m158.09,82.1c.01-.21.04-.41.09-.59.05-.18.13-.35.22-.52.09-.16.21-.32.35-.47.14-.15.3-.31.49-.46l.41-.35c.11-.09.2-.17.27-.25.07-.08.12-.16.16-.24.04-.08.07-.17.08-.26.01-.09.03-.2.03-.32.02-.4-.13-.6-.44-.62-.12,0-.22.01-.29.06-.07.05-.13.11-.17.19-.04.08-.07.18-.09.29-.02.11-.03.23-.04.36l-.93-.05v-.18c.03-.44.17-.78.42-1.01.25-.23.63-.33,1.14-.3.49.02.84.15,1.06.39.22.24.32.56.3.98,0,.15-.03.29-.06.43-.03.13-.08.26-.15.38-.07.12-.15.23-.25.34-.1.11-.22.22-.36.34l-.56.47c-.15.12-.27.24-.36.36-.09.12-.14.22-.17.31l1.8.09-.04.75-2.94-.14Z"/>
        <path class="cls-1" d="m162.42,81.55c.06.15.2.23.41.24.12,0,.21,0,.28-.05.07-.04.13-.09.17-.16.04-.07.07-.15.09-.24.02-.09.03-.19.03-.3,0-.11,0-.21,0-.31s-.04-.19-.08-.26c-.04-.08-.1-.14-.18-.19s-.19-.08-.32-.08l-.32-.02.03-.63.32.02c.1,0,.19-.01.26-.05.07-.04.13-.09.18-.16.05-.07.08-.15.11-.23.03-.09.04-.18.04-.28.01-.23-.02-.39-.09-.49-.07-.1-.19-.15-.34-.16-.1,0-.19,0-.25.05-.07.03-.12.09-.16.15-.04.07-.07.15-.08.24-.02.09-.03.2-.03.31l-.89-.04c.02-.48.16-.82.41-1.04.25-.22.6-.32,1.06-.3.44.02.77.14,1,.35.23.21.33.53.31.95-.01.29-.09.52-.23.69-.14.18-.32.28-.55.32h0c.31.08.52.21.64.42.12.21.17.46.15.76,0,.16-.04.33-.09.5-.05.17-.13.32-.26.45-.12.13-.29.24-.5.31-.21.08-.48.1-.81.09-.46-.02-.8-.17-1.02-.43-.22-.26-.32-.63-.29-1.09v-.02s.93.05.93.05c0,.28.02.49.08.64Z"/>
      </g>
    </g>
    <g>
      <path class="cls-1" d="m20.36,54.33c.06-.16.1-.32.21-.43.2-.06.41-.11.62-.16.03,0,.06,0,.09,0,.14.01.26.12.4.19.19-.08.15-.2-.12-.29,1.47-.35,3.09-.62,4.93-.76-.07.24.43.38.44.52.37.14.61.24.88.33.13.04.3.05.42.07l.02-.31c-.23-.02-.48-.03-.74-.05-.03-.11-.06-.21-.09-.31-.05,0-.1,0-.15,0-.03.05-.07.1-.11.16-.32-.04-.5-.15-.33-.28.09-.07.11-.12.1-.15,1.43-.09,2.99-.11,4.72-.03,2.73.13,5,.45,6.97.9-.24.13-.49.26-.73.39.02.02.04.03.06.05.07,0,.16,0,.22-.01.39-.1.74-.17,1.23-.08.25.05.45.05.62,0,1.69.48,3.14,1.05,4.47,1.67,0,.04,0,.09-.01.14.06-.03.11-.05.16-.08.98.46,1.89.95,2.78,1.44-.03.04-.06.09-.1.15.11-.02.2-.03.29-.05.23.12.45.25.67.37.15.08.3.16.44.25-.3.22-.5.57-.35.76.16-.18.3-.33.43-.49.04-.05.08-.1.12-.15,1.85,1.02,3.7,2,6,2.78.02.03.06.07.1.08.04.01.1.01.16,0,.04.01.07.02.11.03-.27.02-.53.05-.78.07.13.12.22.21.31.3.04.04.04.1.09.11.33.07.43.19.48.32,0,.03,0,.05,0,.08-.09,0-.17,0-.24,0-.21.02-.51,0-.59.07-.01,0-.02.02-.02.03-1.06-.35-2.02-.73-2.93-1.14,0-.1-.01-.19-.02-.3-.16.03-.27.05-.45.08-.02-.01-.04-.02-.06-.03.07-.12.13-.21.2-.34-.26-.06-.54-.18-.8-.18-.1,0-.21.03-.32.07-.96-.49-1.87-.99-2.77-1.49-.24-.13-.47-.26-.71-.4.27-.02.52-.03.82-.05-.3-.14-.54-.3-.85-.38-.12-.03-.33.05-.55.12-1.62-.89-3.29-1.72-5.29-2.4-.08-.09-.25-.15-.51-.19,0,.01.02.02.03.03-2.31-.73-5.09-1.26-8.75-1.43-4.83-.22-8.23.32-11.11,1.18,0-.07.02-.14.05-.21.17-.33.35-.66.47-1-.31.25-.62.51-1,.82-.07-.16-.1-.25-.15-.37-.12.06-.23.11-.24.11-.03.15-.05.25-.08.4-.36-.14-.6-.24-.95-.37.54-.19,1.09-.36,1.66-.53.04.1.08.2.14.33Zm20.91.81c.01-.15.03-.3.04-.46q-.3.13-.04.46Zm-15.15-2.09c-.39.02-.67.04-.95.06.59.21.59.21.95-.06Zm-1.66.79c-.18-.25-.57-.13-.87-.16.23.14.45.3.87.16Z"/>
      <polygon class="cls-1" points="18.56 54.53 18.56 54.53 18.56 54.53 18.56 54.53"/>
      <path class="cls-1" d="m8.88,59.21s0,0,0,0c0,0,0,0,0,0-.21-.3-.38-.35-1.02-.35-.14,0-.31-.07-.41-.14-.02-.02-.04-.04-.06-.06,2.64-.62,4.79-1.54,7-2.48,1.1-.47,2.2-.94,3.38-1.38-.1.07-.02.11.22.21.22-.09.29-.12.18-.36.13-.05.27-.09.4-.14.19.29.34.52.49.75-.06.01-.12.02-.18.03-.11-.11-.23-.22-.34-.33-.05,0-.1.02-.16.02.06.12.07.25.2.34.1.07.36.07.55.09.03,0,.11-.09.11-.14,0-.09-.06-.19-.01-.27.02-.03.33-.06.38-.03.11.06.2.17.19.25,0,.03-.01.07-.02.1-1.64.54-3.14,1.17-4.66,1.82-1.83.78-3.68,1.57-5.86,2.19-.12-.05-.26-.1-.38-.16Z"/>
      <path class="cls-1" d="m8.99,59.41s.01.02.02.03c-.2.06-.4.11-.6.16.19-.06.39-.13.59-.19Z"/>
      <path class="cls-1" d="m1.27,60.39c0-.08-.18-.16-.3-.24-.22-.13-.45-.24-.7-.38-.07.03-.17.07-.26.11v-.43c2.54,0,4.66-.22,6.52-.59-.02.04-.05.09-.08.13.25-.06.35-.08.49-.11.04.1.08.2.12.29-.2,0-.41-.01-.61-.02.5.28,1.04.42,1.68.39.04.04.07.07.1.1-.34.09-.69.17-1.05.24,0-.06-.02-.12-.03-.18-.03,0-.06,0-.09,0-.06.08-.11.16-.17.24-1.12.22-2.32.4-3.64.51-.37.02-.73.04-1.1.01.08.02.16.03.24.05-.51.03-1.03.05-1.57.06.01-.01.03-.02.06-.03.13-.05.38-.11.37-.16Zm2.79-.87c-.53-.27-.6-.27-.94-.04.33.02.63.03.94.04Z"/>
      <path class="cls-1" d="m96.47,65.72c.18,0,.36.01.54.02l-.02.21s-.07-.06-.11-.08c-.1-.06-.26-.1-.42-.15Z"/>
      <path class="cls-1" d="m80.43,69.32s.02-.02.03-.04c-.05,0-.1.01-.14.02-.28-.03-.52.06-.8.28-.12-.08-.25-.16-.37-.23.19-.08.39-.17.58-.25,1.41-.6,2.84-1.21,4.42-1.74-.01.07-.03.14-.04.21.45.14.5.43.05.62-.18-.05-.36-.1-.54-.16.36.27.16.4-.28.53-.22.06-.19.25,0,.33-.16.06-.32.13-.49.19-.07,0-.14,0-.2,0-.03,0-.06.02-.07.03-.03.04-.05.07-.08.1-.12.05-.23.09-.34.14-.06,0-.12,0-.2-.01-.05,0-.13.06-.24.12-.26-.19-.5-.37-.74-.55-.05.01-.11.02-.16.03.03.17.07.35.11.55-.19-.09-.36-.15-.51-.18Z"/>
      <path class="cls-1" d="m32.2,62.94c-.27-.03-.4-.09-.43-.21.28.02.55.04.81.06-.1.06-.19.12-.3.18-.03-.01-.05-.02-.08-.03Z"/>
      <path class="cls-1" d="m28.98,62.64c.05,0,.11,0,.16,0-.05,0-.1.01-.16,0Z"/>
      <path class="cls-1" d="m60.48,73.23s-.08,0-.11-.01c.02-.03.05-.06.07-.09.01.04.03.07.04.11Z"/>
      <path class="cls-1" d="m18.98,44.83s0-.02,0-.03c.68-.25,1.39-.48,2.14-.69.22.16-.16.21-.3.28-.07.03-.31-.03-.45-.05-.04.17-.08.41-.17.64,0,.02-.25.02-.36.03.04-.08.07-.14.1-.2-.09,0-.19,0-.28,0-.22,0-.44,0-.69,0Z"/>
      <path class="cls-1" d="m83.39,29.95s.25-.04.38-.03c.18.02.36.06.6.1-.13-.09-.24-.16-.34-.22.49-.03.98-.04,1.43.09-.61.25-1.21.51-1.82.77-1.48.63-2.97,1.27-4.63,1.82-.03-.01-.05-.03-.08-.04-.03.01-.05.03-.08.04.01.01.02.03.04.04-.12.04-.25.08-.38.12-.18-.07-.35-.14-.58-.23.17-.02.28-.02.38-.04.1-.02.25-.06.27-.1.03-.07,0-.17-.08-.21-.17-.09-.39-.14-.58-.22-.1-.04-.21-.09-.31-.13,1.76-.53,3.33-1.18,4.91-1.86-.02.06-.04.14-.07.19.43.03.74.12.95-.09Z"/>
      <path class="cls-1" d="m32.51,34.15c.05.04.11.07.2.08,0,0,0,0,0,0-.06,0-.11,0-.17,0,0-.02-.02-.05-.03-.07Z"/>
      <path class="cls-1" d="m22.83,44.86c-.1.02-.2.05-.29.07-.01-.02-.03-.03-.04-.05-.24.05-.48.11-.8.18-.25-.09-.6-.19-.44-.49.08-.16.07-.33.05-.51.99-.27,2.04-.51,3.19-.7.07.06.15.12.22.18.19-.08.32-.12.42-.18.06-.03.12-.08.15-.12,2.05-.28,4.38-.4,7.15-.27,2.58.12,4.75.41,6.64.83-.07.04-.14.07-.21.11.66.23.95.69,1.87.83-.09-.16-.17-.29-.26-.45-.04,0-.12-.01-.13-.01-.1-.09-.2-.17-.3-.25,1.06.27,2.04.58,2.94.91-.08.09-.2.19-.26.28.1.02.28.02.32.06.08.08.09.19.13.28-.05,0-.09.02-.14.03-.1-.05-.2-.1-.33-.16-.04.03-.09.06-.16.11-.49-.11-.24-.33-.33-.54-.11,0-.2.02-.35.03.04-.1.06-.18.1-.29-.11.03-.19.04-.3.07,0-.08.01-.14.02-.21-.14.2-.39.33-.18.62.22.3.68.48.93.74.08.09.29.14.45.2,0,0-.01,0-.02,0-1.78-.71-3.81-1.3-6.35-1.67,0,0,0,0,.01,0,.06,0,.13-.11.26-.22-.41,0-.68,0-.95,0-.01.04-.02.08-.03.12-1.06-.14-2.22-.24-3.47-.29-.27-.01-.54-.02-.8-.03,0,0,0-.01-.01-.02,0,0,0,.01-.01.02-3.43-.1-6.12.2-8.42.72,0-.04.02-.08-.01-.11-.03-.02-.2-.03-.24-.01-.06.03-.09.1-.07.14,0,.02.02.03.03.05Z"/>
      <path class="cls-1" d="m7.7,59.08c.06.07.12.13.18.18-.27,0-.54-.04-.81-.1.39-.23.9-.24,1.39,0-.06.02-.13.04-.19.06-.17-.04-.36-.09-.57-.14Z"/>
      <path class="cls-1" d="m98.4,47.03s.02-.04.04-.07c.04-.06.07-.12.1-.16l-.03.35s-.03,0-.05,0c0-.03-.01-.07-.05-.12Z"/>
      <path class="cls-1" d="m91.21,37.36c-.2.04-.39.01-.77-.15.04-.06.08-.11.12-.16-.26-.07-.42-.15-.5-.23.31-.07.63-.13.95-.18.2.04.44.07.64.08,0,0,.01,0,.02,0-.11.16-.23.32-.36.5.35-.03.59-.05.88-.07,0,0,.02-.05-.01-.07-.34-.14-.3-.26.01-.38.03-.01.04-.05.05-.08.03-.07.06-.14.12-.19,1.51-.2,3.18-.31,5.06-.3.02.03.04.05.06.07-.1.04-.19.07-.31.11.15.07.28.14.43.21q.38-.31,1.31-.18s.01.06.02.08c-.12.04-.29.01-.54-.07-.04-.01-.11-.01-.21-.02.08.08.13.14.22.24-.65,0-1.03.17-1.45.47.04,0,.08,0,.12.01-.17.06-.32.02-.5-.07-.18-.09-.41-.17-.62-.25-.05.03-.09.05-.14.08.26.15.53.29.81.45-.63,0-1.23.03-1.81.07-.1-.19-.34-.41-.23-.56.08-.12.61-.14.94-.21.03.02.06.05.1.07.03-.09.07-.17.1-.27-.37-.17-.69-.1-1.02,0-.16.05-.34.07-.64.13,0,.04.05.14.05.24,0,.09-.07.17-.14.33.26.24.31.27.69.27-1.04.07-1.99.18-2.89.33,0-.03.01-.06.01-.09-.18-.06-.33-.12-.56-.2Zm1.15-.3c.56.1.87.36,1.38.31.02-.03.05-.07.07-.1-.21-.05-.41-.11-.62-.16.06-.09.13-.2.2-.32-.3-.06-.42.02-.56.12-.14-.02-.27-.04-.41-.06-.02.03-.05.06-.07.09.09.03.18.05.27.08-.07.03-.15.04-.26.05Z"/>
      <path class="cls-1" d="m75.94,52.64c0-.05-.03-.1-.09-.16-.07-.07-.16-.13-.2-.2-.04-.09-.03-.18-.04-.27.16,0,.33,0,.49.01.14,0,.28.02.39.03-.08-.13-.15-.25-.22-.37-.17.06-.35.11-.55.18-.03-.18-.05-.29-.04-.36.12-.03.23-.07.35-.1.09.09.18.18.27.27.11-.04.22-.08.36-.14-.13-.07-.22-.12-.33-.18.17,0,.34.02.51.02.03,0,.07-.06.1-.09,0,0,0,0,0,0h0s0,0,0,0c-.12-.01-.24-.03-.36-.04.55-.18,1.08-.36,1.59-.56-.08.1-.07.21.03.32.06.07.07.15.12.26.14-.07.25-.12.35-.17.15.06.29.11.43.16.11-.08.27-.16.31-.26.03-.07-.09-.16-.17-.24-.03-.03-.15-.05-.18-.08-.08-.08-.06-.23-.26-.24.12-.05.24-.1.36-.15.04.03.1.06.16.08.31.09.61.16.59.38,0,.04.16.09.33.19-.23-.02-.34-.03-.46-.04-.25.29-.34.64-1.02.79-.09.02-.16.06-.22.1-.16.06-.31.11-.47.17-.04,0-.08-.02-.12-.04-.18-.09-.24-.17-.14-.25.09.02.19.05.29.07-.07-.05-.13-.09-.18-.13.02,0,.04-.01.06-.02.04-.01.05-.05.08-.09-.1.01-.17.03-.24.04-.11-.08-.21-.15-.33-.24.3.01.51.02.74.04-.33-.22-.5-.22-1.28-.07,0,0,0,0,0,0,0,0,0,0,0,0,0,0,0,0,0,0,.1.04.23.08.28.14.02.02-.1.09-.11.09.17.04.33.08.49.12-.05.07,0,.19.09.43-.53.03-.63.04-.61.23-.38.12-.77.24-1.17.35Z"/>
      <path class="cls-1" d="m80.57,50.1c.48.29.5.29.32.58-.03.06-.18.09-.28.13-.06-.06-.12-.12-.17-.18-.04-.05-.03-.11-.09-.14-.25-.12-.42-.31-.47-.49.48-.2.96-.4,1.44-.61,1.7-.73,3.42-1.46,5.4-2.06.06.07.09.12.07.15-.03.05-.15.12-.24.13-.33.02-.33.12-.23.25.61,0,1.21,0,1.82,0,.05,0,.09-.04.14-.05.12-.02.25-.04.37-.06.01.08.06.16.02.23,0,0,0,0-.01.01-1.13.28-2.18.62-3.18.99-.18.02-.28.06-.49.16.01,0,.02,0,.03.01-1.01.39-1.99.8-2.98,1.23-.21.09-.42.18-.63.27-.06-.07-.09-.16-.07-.23.05-.23-.28-.54-.69-.6-.08-.01-.21,0-.26.02-.04.02-.03.09,0,.14.03.05.1.09.17.13Zm1.88-.91c.03.08.14.15.21.22.06,0,.13,0,.19,0-.01-.13-.01-.27-.05-.4,0-.02-.21-.02-.32-.04-.01.07-.06.15-.03.22Z"/>
      <path class="cls-1" d="m98.68,37.27c-.32-.01-.64-.02-.95-.02,0-.04,0-.08,0-.12.35.04.67.08.99.11-.01.01-.03.02-.04.04Z"/>
      <path class="cls-1" d="m86.03,37.96c.1-.04.21-.07.31-.11.02.04.04.07.07.12.04-.05.09-.11.13-.16l.51.02s.04.05.07.08c-.27.07-.54.14-.79.2-.1-.06-.2-.11-.3-.16Z"/>
      <path class="cls-1" d="m56.4,52.22c-.03.07-.03.16-.08.22-2.69-.77-4.78-1.79-6.72-2.85.24-.03.47-.07.71-.1,0-.02.01-.04.02-.05-.36-.02-.72-.04-1.11-.05-.35-.19-.69-.38-1.04-.58-1.55-.87-3.07-1.71-4.83-2.45,0,0,.01,0,.02-.01-.08-.07-.15-.19-.24-.2-.03,0-.07,0-.1,0,.34-.16.68-.33,1.04-.49.1-.04.39,0,.43-.04.01-.01.02-.03.03-.04,1.31.58,2.49,1.2,3.64,1.83-.21.08-.41.16-.59.23.23.11.43.21.66.33.14-.02.36-.04.64-.07-.1.12-.17.19-.27.31.36,0,.69.01,1.01.01,1.73.96,3.46,1.88,5.55,2.63-.05.05-.06.12-.05.19.06.02.11.04.17.06.05-.05.11-.1.16-.15.07.02.14.05.22.07-.11.15-.21.3-.32.45.23.07.41.12.66.19-.05-.12-.09-.21-.14-.32.35.11.59.09.78-.02.78.23,1.61.43,2.51.61-.41-.05-.83-.1-1.26-.16.02.07.05.17.08.29-.25,0-.5,0-.77,0,.03.21.05.42.08.62-.14-.03-.28-.07-.41-.11-.03-.17-.03-.34-.06-.51-.02-.11-.06-.23-.09-.32-.44.09-.78.16-1.13.23.13.11.25.21.35.29.15-.02.29-.04.43-.06Zm-1.92-1.62l-.2.05.5.47c.06-.01.11-.03.17-.04-.15-.16-.31-.32-.46-.48Z"/>
      <path class="cls-1" d="m88.41,38.41c-.12-.14-.24-.28-.37-.42-.03-.03-.21-.06-.22-.06-.09.06-.16.14-.26.23-.11,0-.28.02-.52.04.24-.28.46-.54.68-.8.27-.08.55-.16.83-.23.09.09.17.17.26.26.12-.07.22-.13.34-.2-.1-.05-.19-.09-.28-.13.12-.03.24-.06.36-.09.2.07.39.15.24.32.18.02.38.02.56.04.06.05.12.11.19.17.03-.04.06-.08.09-.12,0,0,0,0,0,0,.23.07.38.23.59.36.07,0,.13,0,.19,0-.32.06-.64.13-.95.2.06-.05.13-.1.2-.16-.32.02-.62,0-.69.06-.1.07-.26.17-.2.27-.35.09-.69.18-1.02.28Zm1.56-.77c-.5-.2-.63-.03-.76.15.23-.05.46-.09.76-.15Z"/>
      <path class="cls-1" d="m98.4,36.14c.23,0,.46.01.69.02,0,0,0,0,0,.01-.23-.01-.46-.01-.69-.02,0,0,0-.01,0-.02Z"/>
      <path class="cls-1" d="m85.7,67.35c.34.02.67.03,1.06.05-.08-.23.11-.48-.42-.66-.02,0-.04-.02-.06-.03,2.69-.7,5.87-1.14,10.07-1-.12.36.03.47.63.53l-.05.62c-4.5-.21-7.76.25-10.52,1.01-.04-.05-.09-.1-.13-.16-.28.1-.31.19-.23.26-.31.09-.61.18-.91.28-.02-.25-.05-.51-.03-.77,0,0,0,0,0,0,.09-.13.31-.16.61-.14Zm7.21-.9c.22-.02.44-.05.73-.08-.18-.11-.29-.18-.42-.26-.12.08-.24.16-.36.24.02.03.03.06.05.1Zm-1.1-.08c-.14-.19-.44-.13-.66-.09-.14.02-.23.12-.4.21.47-.05.75-.08,1.06-.12Zm-1.36-.22c-.26.17-.51.34-.75.51.7-.02.88-.13.75-.51Zm-1.71.57c.23,0,.46,0,.76,0-.12-.12-.19-.18-.28-.27-.18.06-.35.11-.52.16.01.04.02.07.04.11Z"/>
      <path class="cls-1" d="m75.55,42.95c-.01-.1-.03-.2-.03-.3,0-.05.03-.1.04-.15.09.04.26.1.25.12-.06.11-.17.22-.26.33Z"/>
      <path class="cls-1" d="m73.36,62.69c.04.11,0,.19-.09.26-.18.04-.37.07-.55.11.11-.18.23-.35.36-.57.09.06.25.13.28.2Z"/>
      <path class="cls-1" d="m55.95,61.37c-.11-.02-.23-.03-.36-.05.02-.07.05-.14.12-.18.13.04.25.08.38.11-.02.02-.04.04-.06.07-.02.01-.04.03-.08.05Z"/>
      <path class="cls-1" d="m58.59,52.89s-.08.06-.12.08c-.33-.07-.66-.14-.97-.22-.01-.04-.02-.08-.02-.13-.03-.4.34-.53,1.17-.38-.09.06-.17.1-.22.15-.06.06-.12.12-.14.19,0,.02.16.09.19.08.14-.03.3-.07.39-.13.25-.19.49-.36,1.03-.31.12.01.25-.02.36-.08,1.37.22,2.89.38,4.61.46,2.33.11,4.33.04,6.1-.16.05.09.1.19.19.35.29-.17.5-.3.72-.43-.02,0-.03-.02-.05-.03.62-.09,1.22-.19,1.79-.31,0,0,.02.02.03.03.21.02.43.03.63.08.09.02.18.11.19.17.04.16.13.19.39.1.1-.03.28,0,.42,0,.08.22.02.37-.2.48-.2.05-.41.1-.62.15-.1.01-.21.02-.33.03,0,.01.01.03.02.04-1.29.27-2.7.48-4.27.6,0,0,0,0,0,0-.02,0-.05,0-.07,0-.02-.05-.03-.11-.05-.16.02-.06.04-.13.06-.19.15.08.3.16.45.24-.06-.16-.1-.33-.61-.35.03.1.06.2.09.3-.01.04-.02.07-.04.11.02.02.04.04.06.06-.54.01-1.08.03-1.65.04.03.02.06.04.09.05-.43.01-.87.02-1.33.02-.08-.17-.38-.21-.66-.21-.16,0-.32.09-.49.15.03.02.07.03.1.05.02,0,.04,0,.05,0-.37,0-.74-.02-1.13-.04-2.37-.11-4.41-.37-6.19-.73,0-.03,0-.07,0-.11Zm1.37.16c.12-.1.23-.18.4-.33-.2.04-.29.06-.43.1-.15-.1-.28-.19-.46-.31-.03.11-.06.21-.09.31.18.07.37.14.58.23Z"/>
      <path class="cls-1" d="m48.46,47.56c.11.06.22.12.33.18-.15,0-.3,0-.45,0-.02-.06.07-.12.13-.17Z"/>
      <path class="cls-1" d="m79.88,40.46h.12s-.01-.03-.02-.04c.11-.04.22-.09.33-.14.02.03.05.07.08.11.28-.13.53-.24.86-.39.03,0,.19.02.35.01.45-.02,1,.06,1.09-.3.02-.06.17-.1.22-.15.06-.07.17-.19.11-.23-.06-.04-.12-.07-.2-.11.99-.42,1.99-.83,3.06-1.22.47.25.38.62.57.96.23-.12.41-.23.6-.33-.05-.07-.11-.15-.17-.23.03-.01.07-.02.1-.03.19.08.39.15.55.24.03.01.05.03.07.04-1.69.54-3.22,1.19-4.77,1.86,0,0-.02,0-.02.01,0,0,0,0,0,0-.15-.04-.3-.06-.44-.11-.31-.1-.49-.07-.62.15.35,0,.66,0,.97,0-1.59.68-3.21,1.36-5.04,1.94-.1-.02-.21-.05-.32-.1.06.04.12.09.18.14-.17.05-.35.1-.52.16-.23-.11-.43-.22-.63-.32,0,0,.12-.08.24-.15-.28-.12-.59-.24-.88-.37,1.49-.39,2.83-.87,4.13-1.39Zm6.34-1.76c-.38,0-.77,0-1.25,0q.26.14,1.25,0Zm-2.23,1c0-.2-.15-.37-.46-.48-.05.01-.11.02-.16.03.12.2.24.4.42.69.11-.12.21-.18.21-.24Zm-.81.11s.09,0,.14,0c.04-.19.33-.39-.19-.59.02.21.04.4.05.59Zm-1.89.72c-.3-.03-.57-.06-.83-.09-.01.03-.02.05-.03.08.24.08.48.17.78.27.03-.09.05-.16.08-.26Zm-1.04,1s-.01-.02-.02-.02c-.12.03-.25.05-.38.08-.06-.16-.02-.29.09-.41.18.04.37.07.56.11.02-.22-.04-.27-.48-.18.13-.11.3-.2.49-.3-1.25.27-1.44.39-.91,1.03.24-.11.45-.21.66-.31Zm-1,.42c.17-.03.24-.09.19-.27-.06-.21-.39-.36-.76-.38.18.21.37.43.57.66Z"/>
      <path class="cls-1" d="m10.73,67.39c-.23.01-.44.04-.64.08,1.21-.44,2.35-.93,3.51-1.42.33-.14.66-.28.99-.42-.04.04-.07.08-.12.1.17.07.33.14.5.21.04-.03.07-.05.11-.08-.08-.07-.16-.14-.3-.26.02,0,.04.01.06.02.02.02.04.03.06.05.02,0,.04,0,.06-.01.32.1.58.2.86.24.35.05.76.06,1.01-.11-.15-.07-.28-.14-.42-.2.04,0,.07,0,.11-.01.19-.02.39-.02.59-.08-.12-.03-.24-.05-.39-.08.22-.19.44-.37.66-.56-.04-.02-.08-.03-.12-.05-.15.06-.3.13-.46.19-.32.11-.41.1-.5-.07.49-.19.99-.38,1.5-.55,0,.01,0,.02,0,.03-.03.13-.22.24-.29.31.53.09.97.17,1.48.26-.09-.28-.18-.58-.28-.9.7-.22,1.44-.42,2.21-.6.09.01.16.03.21.07.04-.05.07-.1.11-.14.72-.16,1.47-.3,2.26-.41.02.07.03.13.04.19-.18-.03-.35-.06-.52-.09-.01.02-.03.04-.04.07.49.09.97.17,1.46.26.03-.02.06-.04.09-.06-.29-.12-.59-.24-.95-.38.47-.07.97-.13,1.47-.17.02.04.04.07.06.11.08.16.42.25.69.19.15-.03.34,0,.54,0-.07-.19.03-.32.23-.41.7-.04,1.43-.05,2.2-.05-.07.06-.14.11-.13.16.07.19-.14.63-.42.74q.24.18,1,.18c.18-.17.33-.31.47-.44.27.06.43.1.58.14.01-.16.03-.29.04-.42.02-.27.06-.29.55-.18.04-.04.07-.08.11-.12.13,0,.26.01.38.02-.01.12.06.22.29.3.12.04.28.05.43.07-.07.04-.15.09-.22.13.72.08,1.01-.03.95-.4,2.04.18,3.81.48,5.38.86.3.17.6.33.89.5.04-.02.09-.04.13-.05-.25-.13-.49-.25-.74-.38,2.35.6,4.26,1.39,5.97,2.25h0c.26.13.41.21-.08.29-.19.03-.35.27-.33.41.05.24.04.34-.14.38-.22-.11-.45-.23-.68-.34-.07-.27-.03-.54-.57-.74-.29-.11-.26-.42-.06-.58.08-.06.03-.17-.04-.26-.2.22-.64.39-.35.68.02.02-.08.11-.13.11-.12,0-.25-.03-.24-.03-.05-.15-.02-.25-.11-.3-.18-.12-.29-.27-.63-.35-.53-.13-.13-.29.03-.46-.51.14-.85.05-1.14-.18-.15-.11-.36-.21-.54-.31l-.13.06c.28.17.56.34.85.51.04.02.15.03.16.06.11.18.27.34.52.46-.01.05.09.15.31.33,0-.07,0-.15,0-.22.07.02.14.03.22.05.08.01.15.14.13.2-.02.06-.07.11-.11.17-2.68-1.08-5.93-1.89-10.63-2.11-3.9-.18-6.86.14-9.37.72.08-.04.16-.08.24-.12-.24-.07-.28-.08-.62.21-.29.07-.58.15-.87.23.09-.08.19-.16.29-.25h.22c-.06-.08-.1-.16-.19-.31-.17.12-.37.19-.36.26.04.23-.15.32-.64.31.07.05.12.09.17.13-.26.08-.52.16-.78.24-.03-.02-.05-.03-.08-.05-.04.03-.06.07-.06.1-1.54.52-2.95,1.12-4.39,1.73-.67.29-1.34.57-2.03.85-.36-.08-.7-.2-.99-.37-.13-.07-.39-.13-.58-.12Zm25.41-3.4c-.11-.13-.22-.25-.35-.39-.27.31-.22.37.35.39Zm-3.98-.64s0-.05,0-.08c-.38-.03-.76-.06-1.14-.09,0,.03-.02.06-.03.1.37.15.76.18,1.15.07Zm-9.53.28c-.25.06-.43.1-.68.16.27.07.45.12.69.19,0-.12,0-.2,0-.34Zm-.64.76c.16-.14.54-.24.07-.41-.2.12-.48.21-.07.41Z"/>
      <path class="cls-1" d="m55.88,72.4c0-.08-.02-.15-.03-.26.18.01.38.03.59.04.01-.03.02-.05.03-.08-.34-.05-.67-.1-.94-.14.12-.21.25-.45.4-.69,2.03.52,4.4.9,7.36,1.03,3.88.18,6.84-.13,9.35-.71.04.08.08.15.15.21.15.15.09.43.68.35.33-.04.67-.07,1-.13.25-.04.47-.12.81-.21-.38-.11-.79-.02-1.23-.01.02-.12.05-.25.06-.33-.25-.02-.49-.04-.74-.06,1.12-.29,2.15-.63,3.15-1.01-.02.01-.03.03-.05.04.31.02.48.02.64.03.04-.03.08-.05.13-.08-.1-.05-.2-.1-.29-.15.6-.23,1.19-.48,1.78-.72.12.11.29.21.51.26.17.04.37.03.6.02.01.04.03.09.05.14.05-.05.09-.1.13-.15.16-.01.32-.03.49-.03.13.06.23.12.29.18-.11.05-.21.09-.32.14-.17.07-.35.15-.53.22-.07-.14-.16-.25-.6-.2,0-.04,0-.08,0-.11-.01-.05-.1-.1-.15-.15-.08.04-.21.07-.25.12-.09.13-.13.28-.2.43.2.09.45.11.65.04.04.01.08.03.14.04-.31.13-.62.26-.93.39-.04,0-.09,0-.13,0,0,.01.02.03.02.04-.75.3-1.51.6-2.32.87,0,0,0,0,0,0l-.19.02s.01.03.02.05c-1.75.59-3.68,1.08-5.98,1.37.02-.02.03-.04.05-.05-.04-.02-.08-.04-.12-.07-.17.05-.4.08-.49.15-.01,0-.02.02-.02.04-.36.04-.73.07-1.11.1.1-.07.19-.14.28-.21.06-.05.09-.12.12-.17-.21.03-.37.05-.51.07-.11.09-.23.17-.31.26-.02.02-.03.05-.03.08-.19.01-.37.02-.56.03-.04-.03-.07-.06-.11-.08-.16.04-.32.07-.49.11-1.09.03-2.26.03-3.51-.03-.41-.02-.81-.04-1.2-.07.05,0,.09,0,.14,0,.39.01.78-.11,1.22-.17.45.25.68.22,1.04.01.07.08.12.15.18.21.04,0,.08,0,.13,0-.03-.1-.02-.2-.1-.29-.13-.15-.27-.31-.47-.43-.13-.08-.38-.12-.62-.19-.06.43-.13.46-.58.29.16-.14.57-.26.24-.47-.39.18-.55.4-.56.68-.02-.06-.04-.12-.06-.18-.27-.04-.54-.08-.89-.14.04.07.06.13.1.18.04.05.11.09.17.13-.11.02-.23.07-.34.06-.14-.01-.25-.08-.39-.1-.13-.02-.28-.02-.4-.05-.06-.02-.13-.03-.19-.06,0-.07-.05-.14-.19-.22-.02.05-.04.09-.06.13-.03,0-.05-.02-.08-.03.01.04.03.07.04.11,0,0,0,0,0,0-.21-.03-.53-.1-.55-.08-.1.11-.22.24-.26.36-1.61-.21-3.03-.5-4.31-.84,0,0,0,0,0,0,.19.04.43.08.67.12Zm13.49.44c.07.02.14.03.2.03,0,0,.01,0,.02.01.05-.01.1-.02.15-.04,0,0,0-.01.01-.02.11-.04.21-.11.3-.17.15-.09.32-.18.48-.27-.01-.02-.03-.05-.04-.07-.19.02-.38.03-.57.05-.29.03-.57.07-.96.12.1.08.19.26.4.33Zm-2.39.46c-.09-.07-.16-.17-.22-.16-.58.01-.86-.47-1.64-.28.72.09,1.01.52,1.86.44Zm-9.42-.63c.19-.05.36-.12.59-.2-.12-.04-.21-.08-.26-.07-.19.04-.37.09-.55.14.08.05.2.14.23.13Zm-.5-.26c.13-.08.26-.16.41-.26-.13-.19-.34-.23-.64-.09.08.12.15.24.22.35Z"/>
      <path class="cls-1" d="m92.64,27.71c.09.01.17.02.26.03-.39.06-.77.12-1.13.19-.03-.02-.06-.04-.1-.07.08-.02.17-.05.27-.07-.01-.03-.02-.06-.03-.08-.2.01-.39.02-.59.04,0,.03,0,.06,0,.09.1.04.2.09.3.13-1.71.34-3.2.8-4.61,1.32-.01,0-.03,0-.04,0-.07.02-.13.05-.19.08-.02,0-.04.02-.07.02-.02-.06-.13-.15-.14-.21-.1,0-.19-.02-.25,0-.2.05-.39.1-.58.16.21.05.41.12.62.13.05,0,.1,0,.14,0-.12.05-.24.09-.36.14-.02,0-.05-.02-.07-.03-.33-.24-.77-.08-1.15-.15-.3-.06-.68,0-1.02.03-.22.02-.44.07-.68.11.04.04.07.07.1.11-.15,0-.29,0-.44,0,0,0,.02,0,.03-.01,3.52-1.5,7.14-3.05,12.96-3.36,0,.06-.01.12-.01.17,0,.08,0,.16.02.25-.06-.03-.11-.08-.14-.16,0-.02-.02-.04-.04-.05-.08-.02-.18-.04-.26-.04-.36.02-.71.05-1.07.13.59-.04,1.08.07,1.55.25,0,.02.02.05.03.07.02-.01.03-.02.05-.04.13.05.26.12.39.18.02-.19.03-.27.03-.38-.1.03-.2.05-.29.06.05-.16.1-.32.14-.48,1.2-.05,2.48-.05,3.88.02l-.09,1.13c-2.36-.11-4.38-.03-6.17.17-.56-.14-.99-.11-1.28.1Zm-7.62,1.34c-.17.05-.34.1-.55.16.12.06.21.12.24.11.16-.04.31-.09.44-.14.02,0-.09-.09-.13-.13Zm4.19-1.11c-.07,0-.14,0-.21,0,.03.12.06.25.1.42.32-.1.53-.18.75-.25-.01-.02-.02-.03-.04-.05-.16,0-.31.02-.51.03-.03-.05-.07-.11-.1-.16Zm.77-.62c.06.18-.7.13-.3.47.19-.16.33-.29.48-.41-.06-.02-.12-.03-.18-.05Zm10.06-.25c-.39,0-.88-.09-.95.24.32-.08.63-.16.95-.24Z"/>
      <path class="cls-1" d="m1.36,69.95c-.2.15-.4.3-.6.46-.24,0-.5,0-.75,0v-1.12c3.22-.06,5.76-.49,7.96-1.13.11,0,.22.02.36.03-.09.1-.19.22-.31.33-.06.06-.19.1-.22.15-.17.39-.77.6-1.26.85-.1.05-.19.1-.24.17-.02.03-.04.05-.07.08-1.49.31-3.15.52-5.03.61.16-.06.34-.11.58-.11.1,0,.19-.15.28-.22-.02-.02-.05-.04-.07-.06-.27.08-.54.15-.62-.05Z"/>
      <path class="cls-1" d="m74.44,33.07s-.08,0-.12,0c-.03-.06-.05-.12-.1-.22-.08.08-.13.12-.12.11-.26-.06-.51-.12-.76-.17-.04.03-.08.05-.13.08.18.11.36.22.57.35-.06.02-.15.06-.3.13.2.07.37.12.56.19,0,.05,0,.1.01.15-.77.12-1.59.21-2.45.28,0-.03,0-.06,0-.09-.36-.16-.79-.14-.93.08.31,0,.6,0,.89,0-.77.06-1.58.1-2.43.11.12-.08.24-.17.35-.25-.05-.08-.1-.16-.16-.25-.11.03-.24.07-.37.1.04.02.08.03.12.05-.1.09-.19.19-.29.28-.02.02-.05.05-.07.07-.2,0-.4,0-.6,0,0,0,.01-.02.02-.03.04-.05.09-.11.12-.16.03-.04.04-.09.05-.13-.1,0-.27-.02-.28,0-.08.1-.13.21-.19.31-.48,0-.97-.02-1.48-.05-2.47-.11-4.57-.39-6.41-.78.18-.03.35-.1.52-.16-.53.11-.8,0-.97-.24,0,0,0,0,0-.01,0,0,0,0,0,0,.08-.08.16-.15.24-.23-.04,0-.08.01-.12.02-.18-.25-.37-.5-.56-.75.26.07.52.13.78.19.07.07.16.13.26.19.02-.04.03-.08.05-.12.68.15,1.4.28,2.17.39-.01.02-.02.03-.01.04.09.13.03.32.49.37-.08-.13-.15-.24-.24-.38.89.12,1.84.22,2.86.29-.02.06-.03.12-.05.18-.43-.03-.76.02-.54.35.08.11,0,.25-.02.38.07.01.15.03.22.04.12-.1.24-.21.42-.37.32.07.7.16,1,.22-.09-.22-.15-.43-.29-.64-.03-.05-.12-.08-.23-.13.16,0,.33.02.49.03s.35.01.52.02c.05.19-.05.42.41.54.05-.01.1-.02.15-.03-.14-.17-.28-.33-.42-.5,2.65.09,4.86-.06,6.79-.37-.02.06-.01.13-.07.2.27-.02.47-.04.75-.06-.06.16-.1.27-.15.39Zm-5.62.23c.21-.03.38-.06.6-.09,0,.08-.01.13-.02.26.32-.19.54-.33.78-.48-.39-.11-1.14.05-1.35.3Zm1.49-.19c-.44.15.19.29.18.46.36-.06.69-.11,1.12-.17-.49-.11-.87-.19-1.3-.29Zm1.61.26c.08-.09.16-.19.24-.28.23.03.46.06.69.09-.94-.27-1.1-.23-.93.19Z"/>
      <path class="cls-1" d="m59.51,32.82s0,0,0,0c-.01.04-.03.07-.02.11,0,.06-.02.13-.02.19-.58-.13-1.13-.28-1.66-.43.06-.07.28-.06.77-.03.15,0,.31-.02.49-.04-.03-.05-.06-.09-.09-.13.04-.01.08-.02.13-.04.14.12.28.23.42.35,0,0,0,0,0,0,0,0,0,0,0,0Z"/>
      <path class="cls-1" d="m8.88,59.21s0,0,0,0c.03.06.06.12.09.18-.14-.03-.29-.07-.46-.11.12-.02.24-.05.36-.07,0,0,0,0,0,0h0Z"/>
      <path class="cls-1" d="m44.38,66.78c-.02-.06.1-.13.15-.2.1-.13.21-.27.31-.4.91.47,1.78.95,2.63,1.43.79.44,1.58.88,2.39,1.3-.02,0-.05,0-.07.01-.02,0-.06,0-.09-.01-.55-.15-1.11-.3-1.66-.46l-.07.07c.77.22,1.54.45,2.41.7,0-.02-.02-.05-.03-.07.73.36,1.48.71,2.28,1.04,0,0,0,0,0,0-.1.04-.21.07-.32.1-.31.08-.33.11-.07.33.05-.3.47-.22.8-.24.02,0,.04,0,.07,0,.14.05.29.11.43.16-.05.02-.1.03-.16.05.26.07.4.11.59.15-.21.15-.09.39-.51.5-.06.02-.07.18,0,.22.11.06.35.11.47.09.17-.03.29-.14.53-.26.23.21.45.42.67.62-.26.1-.5.14-.73.14-3.19-.95-5.53-2.26-7.83-3.54-.08-.04-.16-.09-.24-.13.06,0,.11,0,.17.01.23.02.45.05.75.09.4-.11.01-.25-.13-.36-.06-.04-.32-.01-.49-.01,0-.01.03-.07.07-.19-.21.07-.33.11-.48.15-.46-.23-.93-.46-1.4-.69-.08.03-.15.05-.21.06-.17-.09-.34-.18-.52-.27.2.02.38.03.54.04-.11-.16-.24-.3-.3-.44Z"/>
      <path class="cls-1" d="m56.49,32.28c-2.33-.8-4.21-1.79-6.01-2.79.06-.03.13-.05.19-.08-.13-.02-.26-.03-.38-.03-.18-.1-.36-.2-.53-.3-.05-.03-.11-.06-.16-.09.03-.01.06-.02.09-.03.5-.2,1.07-.31,1.67-.39,1.75.97,3.51,1.9,5.65,2.64-.34,0-.67,0-1.01,0,0,.03-.01.06-.02.09.29.05.59.09.88.15.11.02.27.12.25.15-.16.19-.35.37-.53.56-.03.03-.06.06-.09.1Z"/>
      <path class="cls-1" d="m50.65,28.34c-.35.19-.69.38-1.04.58-.04-.01-.08-.03-.11-.04.04-.06.09-.12.18-.24-.2.05-.34.07-.39.11-.02.02-.04.03-.06.05-1.61-.9-3.23-1.76-5.13-2.49.17,0,.35,0,.53-.01-.08-.13-.14-.22-.22-.35-.23.04-.45.09-.68.11-.08,0-.17.01-.26.01-2.32-.82-5.09-1.42-8.8-1.65-.24-.2.49-.3.41-.46-.26.03-.51.07-.84.11.04.3-.29.38-.83.2-.07.03-.09.05-.09.08-3.13-.1-5.64.12-7.81.55-.01-.03-.03-.06-.04-.1-.13.06-.2.11-.23.15-.22.04-.43.09-.63.14-.21-.14-.43-.29-.69-.46.04.22.02.39.11.54,0,.02.03.03.05.05-2.44.62-4.47,1.48-6.55,2.37-.22.09-.43.18-.65.28-.58-.17-1.18-.34-1.83-.53.58-.24,1.16-.49,1.75-.74,1.01-.43,2.04-.87,3.12-1.28.08,0,.2-.02.23-.05.01-.02.03-.03.04-.05,1.03-.38,2.12-.74,3.31-1.04.1.11.19.22.29.33.04-.01.08-.02.13-.03-.08-.11-.16-.23-.24-.34,2.76-.69,6.05-1.09,10.41-.89,1.38.06,2.64.18,3.81.33-.13.04-.27.07-.41.11l.64.03c-.02.08-.04.15-.06.22.03,0,.06.01.09.02.09-.09.18-.17.27-.26.01-.01.02-.02.03-.04,1.39.21,2.64.48,3.79.79-.08.07-.16.15-.24.22.06.02.12.04.18.07.07-.06.14-.12.22-.18.02-.02.04-.03.06-.05,2.59.73,4.63,1.7,6.51,2.71-.05.03-.1.05-.17.08.08-.01.16-.03.23-.04.56.3,1.12.61,1.66.92.05.03.1.06.15.09-.06.02-.13.03-.14.07Zm-31.47-2.69c-.24.12-.42.21-.71.34.24.01.54.06.59.02.36-.25.74-.24,1.17-.01.17-.13.3-.23.47-.36-.61,0-1.14,0-1.53.01Z"/>
      <path class="cls-1" d="m4.14,29.85c.18,0,.35-.02.52-.03-.03.04-.07.09-.1.14-.11-.03-.23-.06-.42-.11Z"/>
      <path class="cls-1" d="m6.14,29.74s0-.02-.01-.04c.07,0,.13-.01.2-.02-.01.02-.03.04-.04.05-.05,0-.09,0-.14,0Z"/>
      <path class="cls-1" d="m0,49.59c1.16.02,2.23,0,3.23-.06.15.06.29.12.44.18,0,0,0-.04.02-.1.15.03.28.06.48.1-.02-.11-.28-.15-.44-.21,2-.16,3.71-.47,5.26-.88.06.12.22.19.46.23.07.01.19-.06.31-.1-.22-.07-.39-.13-.56-.18.4-.11.78-.22,1.16-.34.11.09.22.18.27.28-.06.09-.11.17-.16.26.04,0,.07.02.11.02.24-.12.48-.24.75-.37-.16-.01-.29-.02-.39-.03-.06-.1-.12-.19-.19-.29.57-.19,1.12-.39,1.66-.6.03.1.18.21.28.33.26-.16.47-.29.7-.43.1,0,.26.02.49.04-.2-.1-.53-.18-.82-.2.71-.29,1.4-.58,2.11-.88.92-.39,1.84-.79,2.81-1.16.02.02.04.04.07.06.05.04.07.09.11.14-.08.02-.17.03-.25.05,0,.02-.01.04-.02.06.26.04.52.08.87.13-.16-.13-.25-.2-.35-.28.03-.01.06-.03.1-.04l.56.32s.06-.03.09-.05l-.26-.25s.06-.04.08-.06c.16.05.35.09.48.16.2.1.3.22.27.36-.08.03-.16.06-.24.09-.09-.04-.16-.08-.23-.11-.04.08-.08.16-.12.23-.13.05-.26.1-.38.15-.02-.02-.03-.05-.05-.07l-.16.06s0,.06.01.08c-.75.29-1.48.6-2.21.91-.03-.05-.08-.13-.14-.23-.37.05-.73.1-1.1.16,0,.02-.01.04-.02.05.38.02.76.04,1.17.05-.13.05-.25.11-.38.16-.7.3-1.41.6-2.14.9-.11-.01-.23-.03-.34-.04-.06,0-.15.02-.19.05-.03.02,0,.09.02.09.08,0,.16.01.23.02-1.48.59-3.06,1.14-4.87,1.56-.02-.04-.03-.09-.06-.14-.14.1-.24.18-.31.23-.91.2-1.89.37-2.94.5.02-.04.03-.08.04-.13-.12.06-.24.11-.35.16-1.49.17-3.15.24-5,.21v-1.12Zm16.79-2.81c.26-.05.5-.09.71-.15.08-.02.09-.1.13-.16-.11-.01-.28-.05-.3-.03-.27.22-.48.04-.7-.07-.04.02-.07.03-.11.05.09.12.18.24.27.36Zm-9.8,3.25c-.11-.17.42-.35-.14-.56.04.23-.2.4.14.56Z"/>
      <path class="cls-1" d="m0,29.82c.1,0,.2.01.31.02.08,0,.17,0,.25,0,.11.09.09.17-.21.26-.03,0-.02.05-.01.04.06.03.12.06.17.09-.02.11.13.18.43.21.2.1.41.2.62.31.1-.03.23-.08.41-.13-.42-.18-.5-.41-.6-.63.1,0,.21-.01.32-.02.03-.03.07-.05.12-.08.79.01,1.55,0,2.26-.03.14.13.23.24.34.33-.02.02-.03.03-.05.05.04,0,.08,0,.11,0,.04.03.09.06.15.08.29.11.68.14,1.03.21,0,0,0,0,0,.01,0,0,0,0,0,0,0,0,.01,0,.02,0,0,.06-.06.16-.01.18.13.05.27.09.41.13-.95.09-1.96.15-3.04.16-.05-.11-.08-.2-.15-.28-.02-.02-.22-.03-.25-.01-.11.07-.18.15-.32.28.18,0,.3,0,.42.01-.8,0-1.64,0-2.52-.05-.08,0-.15,0-.22-.01v-1.13Z"/>
      <path class="cls-1" d="m5.66,30.52s-.06-.1-.08-.14c.19.02.38.03.59,0,0-.01,0-.03,0-.04.07.02.15.05.28.09-.32.04-.55.08-.77.11,0,0,0,0,0,0,0,0-.02,0-.02,0Z"/>
      <path class="cls-1" d="m64.31,62.72c-.24-.03-.51-.06-.77-.09.04-.07.07-.14.11-.2.15,0,.29.02.44.02.54.02,1.06.04,1.56.05.09.07.24.11.37.11.12,0,.23-.05.33-.11,2.34,0,4.32-.21,6.07-.55-.01,0-.02.01-.02.02-.09.17-.35.35.06.53.08.04.11.18.05.23-.19.14-.24.27-.23.41-.58.1-1.19.19-1.82.26-.15-.04-.29-.07-.44-.11,0,0,0,0,0,0,0,0,0,0,0,0,.07-.05.14-.1.24-.17-.25-.19-.52-.4-.86-.65.11.29.2.52.3.77.05,0,.18.03.31.06,0,0,0,0,0,0h0s0,0,0,0c0,0,0,0,0,0-.03.05-.02.1,0,.16-1.32.13-2.76.2-4.34.18-.05-.04-.09-.09-.14-.14-.09.04-.18.09-.27.13-.41,0-.83-.02-1.26-.04,0,0-.02,0-.03,0-.05-.05-.11-.1-.18-.15-.21-.12-.41-.21-.09-.35.06-.03.02-.11.03-.25.21.14.36.25.53.35.09.06.21.11.31.16.02-.08.08-.17.04-.24-.07-.13-.2-.26-.3-.37Zm2.86.23c.26-.05.46-.08.68-.12-.11-.21-.52-.14-.91-.24.11.17.18.28.23.36Z"/>
      <path class="cls-1" d="m34.4,33.66c-.1.11-.2.22-.36.4.16.07.38.17.6.28-.48-.04-.98-.07-1.49-.09-.04,0-.08,0-.12,0,0-.01,0-.03,0-.04.26-.06.29-.14.17-.29-.16.06-.29.1-.43.15-.09-.04-.19-.07-.34-.13,0,.03-.02.06-.02.08-.04-.03-.09-.07-.13-.1-.09.05-.23.09-.25.14-.02.06-.02.11,0,.16-7.32-.17-11.22,1.5-15.33,3.25-.41.17-.81.35-1.22.52-.2-.03-.36-.06-.57-.1.03.11.06.2.08.3-.32.13-.64.26-.97.39,0-.02.01-.04,0-.06-.04-.13-.29-.24-.52-.34.2.22.58.42-.15.62.03,0,.05,0,.08.02-.49.19-1,.36-1.53.53-.18-.22-.46-.41-1-.5.02.05.03.13.06.13.48.05.63.23.78.42-.24.08-.48.15-.73.22-.08-.1-.15-.2-.2-.3-.41.13-.53-.05-.61-.21-.07-.14-.12-.28-.16-.41,2.17-.6,4.03-1.39,5.94-2.21.76-.32,1.52-.65,2.32-.97,0,0,0,0,.01.01.09.08.25.13.42.21.06-.05.19-.12.18-.13-.16-.08-.2-.17-.19-.26.17-.07.34-.13.52-.2.12.01.25.02.38.02,0-.06,0-.11,0-.16.06-.02.12-.04.18-.07.15.14.29.27.43.4.19-.25.15-.42-.14-.5.88-.31,1.81-.59,2.81-.84.11.07.3.08.48.09.46.02.85-.14.87-.38.12.02.23.05.35.07-.1.07-.19.14-.29.2.04.01.09.02.13.03.2-.02.4-.05.64-.08,0-.02-.02-.05-.03-.07.23.04.45.09.68.13.02-.03.04-.07.07-.1-.27-.05-.53-.11-.8-.16-.02-.05-.04-.11-.07-.17,2.3-.41,4.98-.6,8.27-.46-.02,0-.03,0-.05.01,0,.03,0,.05,0,.08.38.03.76.06,1.14.09,0-.03.02-.06.02-.1-.02,0-.05-.02-.07-.02.26.02.51.04.75.06,0,.09-.01.17-.02.25-.02.27-.06.29-.55.18Zm-14.75,1.52c-.5-.03-.21.17-.27.25-.02.03.11.09.17.13.05-.04.13-.08.14-.12.01-.08-.02-.16-.04-.26Zm13.97-1.72s-.09-.02-.14-.03c.08-.05.17-.1.26-.15-.81-.1-1.08.06-.92.55.15-.09.29-.17.44-.26.21.05.29.13.27.28,0,.05.14.12.28.16.15-.21.2-.41-.19-.54Z"/>
      <path class="cls-1" d="m24.85,33.58c-.05.04-.1.07-.15.11-.07-.01-.14-.03-.21-.04.12-.02.24-.04.36-.07Z"/>
      <path class="cls-1" d="m48.02,37.03c.15.08.3.16.45.24-.18-.08-.41-.14-.45-.24Z"/>
      <path class="cls-1" d="m48.63,37.36s.03.02.05.03c0,0,0,0-.01,0,0-.01-.02-.02-.03-.03Z"/>
      <path class="cls-1" d="m21.26,45.19c.05.02.1.03.15.04-.09.03-.17.05-.26.08.04-.04.07-.08.1-.12Z"/>
      <path class="cls-1" d="m15.43,27.61s.06,0,.09.01c.4.11.79.21,1.19.32-1.32.56-2.67,1.11-4.17,1.59-.04-.03-.07-.07-.11-.11-.08.08-.15.15-.22.21-.3.09-.6.18-.91.26-.22-.27.21-.56,0-.83-.04.08-.09.15-.16.27-.14-.09-.23-.15-.32-.21-.04,0-.08,0-.1,0-.53.14-.53.14-.2.46.06.06.1.12.16.19.12,0,.24,0,.41,0-.05.09-.1.16-.14.23-.38.1-.77.19-1.18.28-.14-.05-.26-.14-.34-.29-.36.01-.63.02-1,.03-.08.07-.23.19-.39.32-.27-.05-.55-.11-.82-.16-.02.01-.04.03-.07.04.18.13.36.27.57.42.08,0,.24-.06.32-.04-.41.06-.83.12-1.26.17,0-.01,0-.03,0-.04,0-.1.1-.21.16-.33-.21-.03-.52-.09-.83-.14,0,0-.01.02-.02.02-.17-.02-.34-.05-.51-.07.02-.1.11-.19.31-.26.13,0,.3.04.45.02.28-.04.59-.08.42-.31,0,0,0-.01,0-.02,1.76-.22,3.29-.56,4.69-.98.02.03.05.05.07.07.03.03.16.03.24.05.02-.04.08-.1.05-.13-.03-.03-.06-.05-.09-.08,1.12-.35,2.16-.74,3.19-1.16.08.17.18.27.55.19Z"/>
      <path class="cls-1" d="m75.58,33.11s.04.05.06.08c0,0,0,.01,0,.02.01,0,.02,0,.03,0,.05.04.11.08.18.13-.36.08-.73.15-1.1.22.03-.23.14-.45.15-.67.36-.01.55,0,.68.23Z"/>
      <path class="cls-1" d="m15.57,65.22c.15-.06.3-.12.46-.18.06.1.11.17.17.26-.14.05-.31.11-.5.18-.21.02-.43.07-.63.07v-.12c.14-.06.28-.11.41-.16h.05s.03-.03.05-.04Z"/>
      <polygon class="cls-1" points="9.76 38.76 9.76 38.76 9.76 38.76 9.76 38.76"/>
      <path class="cls-1" d="m93.75,27.63c-.11.01-.22.03-.33.04,0-.02,0-.04.01-.06.1,0,.21.01.32.02Z"/>
      <path class="cls-1" d="m74.93,42.72c.2.08.41.16.62.24,0,0,0,0,0,0,.12.01.24.02.36.04-1.17.29-2.43.52-3.83.69.15-.07.3-.14.43-.21-.04-.12-.08-.22-.13-.35-.25-.04-.41-.02-.44.18-.02.14-.1.27-.18.42-1.34.14-2.81.22-4.44.2.08-.09.16-.18.26-.28-.46,0-.45.16-.5.28-.49,0-.99-.02-1.51-.05-.13,0-.25-.01-.38-.02,0-.19,0-.34,0-.49-.39.16-.48.31-.01.48-2.68-.15-4.93-.48-6.86-.95-.05-.11-.17-.21-.43-.31.05.06.04.13.01.2-.36-.09-.72-.19-1.06-.29,0,0,.01,0,.02-.01-.03-.03-.07-.05-.1-.08-.04.01-.08.02-.12.03-3.11-.95-5.41-2.23-7.67-3.49-.29-.16-.58-.32-.87-.48-.02-.03-.03-.06-.05-.09-.02-.04-.07-.1-.04-.11.44-.18.66-.43.89-.69.01-.01.03-.03.04-.04.3.17.61.34.91.51,2.04,1.14,4.02,2.24,6.53,3.1.05.21.1.39.15.59.36.06.4-.04.41-.18,0-.09,0-.17-.05-.24,1.1.35,2.31.66,3.67.9-.12.08-.23.16-.36.25.25.06.48.07.61-.13.01-.02.05-.04.09-.06,1.41.23,2.98.4,4.75.48.93.04,1.8.06,2.62.05.09.09.2.18.31.28.27-.12.55-.21.74-.31,1.7-.07,3.19-.24,4.55-.5.13.17.4.28.84.35.08.01.13.07.21.1Zm-25.86-4.69c-.01.15-.02.26-.04.39.22-.06.38-.1.6-.15-.18-.07-.32-.14-.56-.24Zm12.25,4.65c.2.19.38.36.58.56.29-.19,0-.48-.58-.56Z"/>
      <path class="cls-1" d="m2.42,40.73c.1.03.2.09.29.13-.09,0-.17,0-.26,0,0,0,0,0-.01-.01-.02-.03-.01-.06-.02-.12Z"/>
      <path class="cls-1" d="m9.09,30.15c.02.08.04.16.06.26-.26.05-.52.1-.79.15,0-.07-.06-.15-.1-.22.25-.05.49-.1.84-.18Z"/>
      <path class="cls-1" d="m47.23,37.17s.09.08.16.12c.07.07.14.14.2.21.05.06.06.17,0,.21-.07.04-.26.03-.45.05.05.09.1.18.16.27-1.05-.57-2.14-1.11-3.33-1.6.12-.28.28-.56.39-.85.01-.04-.25-.15-.29-.14-.22.06-.51.13-.58.24-.1.16-.14.33-.17.5-2.25-.86-4.91-1.52-8.48-1.82.01,0,.03-.02.04-.02-.07-.07-.14-.14-.25-.25.15-.02.29-.06.39-.05.33.05.58.06.85-.08.09-.05.3-.22.57-.07.06-.07.2-.15.18-.21-.03-.07-.02-.16.02-.27.75.09,1.47.2,2.14.33-.15.09-.38.16-.67.21-.13.02-.17.19-.25.29.22.05.45.09.67.14.02-.02.03-.04.05-.06.18.07.3.3.6.07.06-.04.3-.01.45-.04.12-.02.22-.07.36-.12.09.04.22.1.33.15.21-.06.41-.11.61-.17,1.98.51,3.65,1.15,5.15,1.86.04.06.09.13.13.19-.73.06-1.48.39-1.34.53.64-.12,1.27-.24,1.93-.37.19.09.37.19.55.28-.06,0-.12.02-.18.03-.02.07-.03.13-.03.18-.04,0-.09-.01-.13-.02-.03.12-.05.24-.07.36.05.02.11.05.16.07.05-.05.11-.11.13-.14Zm-4.72-2.04c.04-.07.08-.14.13-.22-.08-.03-.16-.05-.24-.08-.13.06-.27.13-.4.19.12.04.23.07.35.11-.17,0-.34.02-.52.02.02.04.04.08.06.12.61-.04,1.22-.08,1.83-.13-.42-.05-.81-.03-1.2-.02Z"/>
      <path class="cls-1" d="m85.4,29.83c.21-.1.35-.14.48-.1-.09.04-.18.07-.27.11-.06,0-.13,0-.21,0Z"/>
      <path class="cls-1" d="m77.69,32.75l.12-.04c-.03-.08-.07-.16-.1-.25.03,0,.06-.02.08-.03.11.08.21.16.35.22.04.02.1.03.16.04-.6.18-1.22.35-1.88.51-.05-.01-.1-.03-.14-.05.02-.02.04-.04.07-.06.12,0,.24,0,.32-.01-.09-.22-.18-.45-.31-.76-.37-.14-.24.24-.58.32-.23-.11-.46-.22-.7-.32.74-.15,1.45-.33,2.12-.52.07,0,.13,0,.2,0,.03,0,.04.1.05.13l-.48-.02c.15.22.28.43.43.62.06.07.19.14.29.2Z"/>
      <path class="cls-1" d="m57.87,32.47s-.17.01-.26.03c-.1.02-.19.04-.29.06-.15-.05-.31-.1-.45-.14,0-.01.02-.02.03-.03.32-.23.67-.44,1.02-.66.05-.03.17-.02.22-.03.19.21.36.4.57.62-.39-.02-.76-.1-.84.16Z"/>
      <path class="cls-1" d="m9.13,67.8c.13-.04.26-.09.4-.13-.01,0-.02.01-.04.02-.1.06-.23.1-.36.12Z"/>
      <path class="cls-1" d="m96.43,56.7c-.39.01-.45.11-.41.27-6.95-.07-10.75,1.55-14.76,3.26-.14.06-.28.12-.43.18-.14-.1-.38-.18-.62-.2-.17-.02-.34-.06-.5-.09,0-.02-.01-.04-.02-.06-.22.02-.43.04-.65.06-.05.21.4.49.97.65-.38.16-.76.31-1.15.47h-.06c.06-.09.13-.17.23-.29-.3.06-.55.12-.87.19.18.09.3.15.41.21-.04.01-.07.03-.11.04-.35.03-.44-.18-.67-.26-.25.1-.28.26-.07.54-.29.11-.59.21-.9.32,0,0,0,0,0,0-.03,0-.06.01-.09.02,0,0,0,.01-.01.02-.95.32-1.95.61-3.03.85-.01,0-.02,0-.03-.01-.03-.01-.02-.06-.02-.1.02-.1.13-.22.05-.28-.28-.2-.62-.39-.96-.57,0,0,0,0,0,0,.15-.03.29-.06.44-.09,0,.03,0,.06,0,.1.13.02.3.03.48.06.04.17.05.39.56.23,0,0,0,0,0,0,0,0,0,0,0,0-.04.07-.09.14-.14.22l.66.03s.04-.07.06-.11c-.19-.05-.38-.09-.58-.14,0,0,0,0,0,0,0,0,0,0-.01,0,.04-.16.07-.33.11-.49-.08-.06-.16-.1-.24-.11,2.39-.61,4.39-1.47,6.44-2.34.52-.22,1.04-.44,1.57-.66.02.01.05.03.07.04.07-.03.15-.06.22-.1-.02-.01-.03-.03-.05-.04.22-.09.45-.18.68-.27.08.08.17.16.26.24.28-.31.35-.39.31-.46.14-.06.29-.11.44-.16.06.03.13.07.21.14.11-.08.22-.16.34-.26-.06,0-.12,0-.18-.01.66-.23,1.34-.46,2.06-.66.07.03.15.05.23.08.09-.01.28-.06.42-.04.09.02.12.15.17.23.03.05.06.11.22.16.05-.07.1-.14.15-.22.27.04.53.07.91.12-.17-.21-.17-.39-.69-.42-.26-.02-.51-.05-.76-.08,2.82-.74,6.2-1.18,10.71-.97l-.09,1.13c-.46-.02-.91-.03-1.35-.04.13-.06.16-.14.06-.27Zm-21,4.9c-.15,0-.31,0-.47,0-.07.09-.12.18-.18.26.82.15.82.15.66-.25Zm9.59-3.81s-.19-.02-.22,0c-.07.04-.16.11-.14.16.03.14-.02.31.3.38.07-.14.15-.23.16-.33.01-.07-.05-.14-.11-.21Zm6.97-1.55c-.06.14-.11.27-.17.41.06,0,.12,0,.17,0,.14-.09.28-.18.49-.31-.17-.04-.33-.07-.49-.11Z"/>
      <path class="cls-1" d="m97.68,46.57c.12.15.22.28.33.41-.02.04-.04.1-.06.15-.62-.02-1.22-.03-1.79-.03.07-.08.31-.13.45-.2-.33-.12-.45,0-.55.1-.03.03-.06.07-.08.1-.17,0-.34,0-.5,0,.05-.05.11-.09.14-.14.14-.18.26-.37.34-.57-.58.15-.76.43-.95.72-2.02.07-3.75.3-5.31.62.05-.05.13-.09.15-.13.04-.08.05-.16.07-.25-.06-.01-.12-.02-.18-.03-.12.07-.23.15-.41.25-.65.03-1.45.06-2.33.1.08-.13.16-.25.23-.37-.04-.03-.09-.07-.14-.1.13-.04.26-.08.4-.11.18.05.38.1.59.15.02-.11.04-.21.06-.33,1.95-.49,4.17-.84,6.84-.94.02.16.19.28.38.38.06.03.3-.03.46-.05,0-.02,0-.05,0-.07-.3.04-.55.07-.51-.17,0-.03-.02-.07-.07-.11,1.05-.03,2.16-.02,3.36.03l-.05.62c-.07-.07-.32-.07-.87-.07Zm-8.64.41c-.1,0-.19,0-.29,0,.03.1.05.2.09.29,0,0,.14,0,.21,0,0-.1,0-.2,0-.3Zm1.52-.07c-.29.1-.78.08-.56.37.47,0,.67-.12.56-.37Zm2.8-.18c-.17,0-.33,0-.49.02-.06,0-.12.04-.17.03-.47-.07-.75.06-.96.27.1-.02.19-.06.29-.07.29-.02.59-.02.88-.04.17-.01.34-.05.49-.09.03,0-.03-.13-.04-.13Z"/>
      <path class="cls-1" d="m72.7,62.11c.08,0,.15,0,.23,0,.04.09.08.18.12.26-.17,0-.34-.01-.5-.02.05-.08.1-.16.15-.25Z"/>
      <path class="cls-1" d="m8.42,68.63c.03.1.06.17.08.23.04,0,.08,0,.12.01.03-.07.08-.14.09-.21.01-.16-.01-.33.01-.49,0-.04.17-.06.24-.1.38-.2.76-.39,1.34-.46.39-.04.97,0,1.15.19.11.11.25.19.41.24-1.44.57-2.97,1.1-4.72,1.52.33-.33.89-.6,1.28-.94Z"/>
      <path class="cls-1" d="m42.75,66.5c-.07-.03-.15-.07-.22-.1.04-.01.07-.02.11-.04.04.05.07.09.11.14Z"/>
      <path class="cls-1" d="m0,39.71c.36.01.72.03,1.06.03-.24.1-.38.33-.29.53.18-.05.35-.1.55-.16-.11-.08-.2-.14-.28-.2.07-.06.13-.12.19-.17.33,0,.65,0,.96,0,0,.05,0,.11-.03.16.31-.08.52-.14.65-.17,0,0,0,0,0,0,1.28-.04,2.44-.13,3.52-.28.02.02.05.04.07.06,0,0,.15-.02.37-.06-.02-.02-.04-.04-.06-.06.65-.1,1.26-.21,1.85-.34.08.08.16.16.24.24.09-.01.18-.02.27-.03-.02-.1.03-.23-.07-.28-.01,0-.03-.01-.04-.01.13-.03.26-.06.39-.09.25.13.43.29.5.5.04.13.21.26.32.38l-.1.03s-.1-.08-.15-.12c-.1.11-.14.15,0,.25-.69.17-1.4.33-2.16.46,0,0,0,0-.01,0,0,0,0,0,0,0-1.43.25-3,.42-4.77.48.04-.02.07-.05.11-.1.03-.04.5.02.82.03-.51-.31-.49-.46.02-.55-.1-.08-.2-.16-.33-.26-.08.07-.19.17-.36.32-.17-.12-.29-.21-.41-.3.12.21-.22.3-.35.44-.2.21-.48.2-.8.22-.35.02-.41.12-.42.24-.39,0-.81-.02-1.22-.03v-1.13Zm7.28.38c.18.06.4.09.6.13.02-.02.04-.04.06-.05-.16-.09-.3-.18-.47-.26-.06-.03-.21,0-.31.01.04.06.05.14.13.17Z"/>
      <path class="cls-1" d="m80.5,60.55s.02-.03.03-.04c0,0,.01.01.02.02-.02,0-.03.01-.05.02Z"/>
      <path class="cls-1" d="m56.84,62.46c-.17-.04-.34-.07-.52-.1,0-.08-.04-.16-.22-.25-.06-.03.12-.22.24-.31.07-.05.24-.07.37-.1.32-.07.26-.15.06-.24.04,0,.09,0,.13,0,.59.15,1.2.28,1.85.4-.02.01-.04.03-.07.04.13,0,.25,0,.34,0,.87.15,1.8.28,2.81.38.12.02.21.03.3.03,0,0,0,0,.01,0,.13.01.26.02.39.03.23.06.37.19.41.35.05.19.36.68.48.78-.02.02-.04.04-.06.06-1.27-.07-2.44-.19-3.53-.35.19-.11.2-.26.08-.42-.15-.21-.48-.2-.98-.13.21.15.37.25.56.38,0,0-.05.03-.08.06-.01.01-.02.02-.03.03,0,0-.02,0-.02,0,0,0,.02-.01.02-.02-.04-.02-.08-.04-.12-.05-.04.01-.09.02-.14.03-.8-.13-1.56-.28-2.27-.45.01-.04,0-.17-.04-.18Zm2.63-.12c.11.13.2.29.78.24-.26-.14-.44-.24-.62-.34-.06.03-.18.08-.16.1Z"/>
    </g>
  </g>
</svg>