<svg width="38" height="36" viewBox="0 0 38 36" fill="none" xmlns="http://www.w3.org/2000/svg">
<path id="Star 1" d="M18.0734 1.28316C18.411 0.451232 19.589 0.451234 19.9266 1.28317L24.234 11.8967C24.3773 12.2499 24.7091 12.4909 25.0893 12.5181L36.5144 13.3349C37.41 13.399 37.774 14.5192 37.0871 15.0974L28.3241 22.4738C28.0324 22.7193 27.9057 23.1092 27.9974 23.4792L30.7511 34.5976C30.967 35.4691 30.014 36.1615 29.2518 35.6869L19.5286 29.6322C19.205 29.4307 18.795 29.4307 18.4714 29.6322L8.74815 35.6869C7.98601 36.1615 7.03304 35.4691 7.24889 34.5976L10.0026 23.4792C10.0943 23.1092 9.96756 22.7193 9.67593 22.4738L0.912898 15.0974C0.226017 14.5192 0.59002 13.399 1.48557 13.3349L12.9107 12.5181C13.2909 12.4909 13.6227 12.2499 13.766 11.8967L18.0734 1.28316Z" fill="white"/>
</svg>
