<svg width="229" height="33" viewBox="0 0 229 33" fill="none" xmlns="http://www.w3.org/2000/svg">
<path d="M6.76613 25V7.752H0.494125V3.56H18.7341V7.752H12.4621V25H6.76613ZM21.6786 25.416C20.1746 25.416 18.9586 25.032 17.9986 24.232C17.0386 23.464 16.5906 22.344 16.5906 20.872C16.5906 19.72 16.8786 18.792 17.4866 18.024C18.0946 17.288 18.8946 16.712 19.8866 16.264C20.8786 15.848 21.9666 15.56 23.1186 15.368C24.2706 15.176 25.4226 15.08 26.5106 15.048V14.696C26.5106 13.8 26.3186 13.096 25.9666 12.584C25.6146 12.072 25.1026 11.816 24.4626 11.816C23.8866 11.816 23.4386 12.008 23.0546 12.36C22.6706 12.712 22.4146 13.224 22.3186 13.864H17.1986C17.4546 12.168 18.2546 10.856 19.5666 9.896C20.8466 8.936 22.5426 8.456 24.6546 8.456C27.0866 8.456 28.8786 9.064 30.0306 10.28C31.1826 11.496 31.7906 13.288 31.7906 15.688V25H26.9266L26.7986 22.888C26.2226 23.688 25.4866 24.296 24.5586 24.744C23.6306 25.192 22.6706 25.416 21.6786 25.416ZM23.8226 22.056C24.5586 22.056 25.1986 21.768 25.7106 21.192C26.2226 20.616 26.5106 19.752 26.5106 18.632V17.384C24.9106 17.448 23.7586 17.736 23.0546 18.248C22.3506 18.76 22.0306 19.4 22.0306 20.168C22.0306 20.808 22.1906 21.288 22.5106 21.608C22.8306 21.928 23.2786 22.056 23.8226 22.056ZM33.8294 25V8.872H38.5974L38.8534 11.688C39.1094 10.92 39.5894 10.216 40.2934 9.576C40.9654 8.936 41.8614 8.616 43.0134 8.616C43.2054 8.616 43.3974 8.648 43.5574 8.648C43.6854 8.68 43.8454 8.712 43.9734 8.712V13.736C43.8454 13.704 43.6534 13.672 43.3974 13.64C43.1414 13.608 42.8854 13.576 42.6614 13.576C41.6694 13.576 40.8694 13.896 40.2294 14.504C39.5894 15.112 39.2694 16.04 39.2694 17.288V25H33.8294ZM47.5141 7.048C46.6501 7.048 45.9141 6.792 45.3381 6.216C44.7621 5.64 44.4741 4.968 44.4741 4.136C44.4741 3.336 44.7621 2.664 45.3381 2.088C45.9141 1.512 46.6501 1.224 47.5141 1.224C48.3461 1.224 49.0821 1.512 49.6581 2.088C50.2341 2.664 50.5541 3.336 50.5541 4.136C50.5541 4.968 50.2341 5.64 49.6581 6.216C49.0821 6.792 48.3461 7.048 47.5141 7.048ZM40.9221 31.528L41.5941 28.2C42.0421 28.36 42.4901 28.424 42.9381 28.424C44.1541 28.424 44.7941 27.656 44.7941 26.056V8.872H50.2341V25.32C50.2341 27.432 49.7221 29.096 48.7301 30.312C47.7381 31.528 46.1701 32.136 44.0261 32.136C43.5141 32.136 43.0021 32.104 42.4581 32.008C41.9141 31.912 41.4021 31.752 40.9221 31.528ZM59.7029 25.416C58.1669 25.416 56.7909 25.128 55.5749 24.488C54.3269 23.88 53.3349 22.952 52.6309 21.704C51.8949 20.456 51.5429 18.856 51.5429 16.936C51.5429 15.208 51.8629 13.736 52.5349 12.456C53.2069 11.176 54.1349 10.216 55.3509 9.512C56.5669 8.808 57.9749 8.456 59.5749 8.456C61.2389 8.456 62.6789 8.84 63.8629 9.544C65.0469 10.248 65.9429 11.24 66.5829 12.52C67.1909 13.8 67.5109 15.304 67.5109 17V18.056H56.9189C57.0469 19.528 57.3349 20.552 57.8469 21.16C58.3589 21.768 58.9669 22.056 59.7349 22.056C60.4069 22.056 60.9509 21.896 61.3349 21.512C61.7189 21.16 61.9749 20.648 62.1349 19.976H67.3189C66.8709 21.8 65.9749 23.176 64.5989 24.072C63.2229 24.968 61.5909 25.416 59.7029 25.416ZM59.5749 11.816C58.8389 11.816 58.2309 12.136 57.7509 12.776C57.2709 13.416 56.9829 14.312 56.9189 15.464H62.1349C62.0389 14.312 61.7829 13.416 61.3669 12.776C60.9189 12.136 60.3429 11.816 59.5749 11.816ZM75.0544 25.416C73.0704 25.416 71.6304 24.872 70.6704 23.784C69.7104 22.696 69.2624 21.288 69.2624 19.592V12.392H67.1824V8.872H69.2624V4.328H74.7024V8.872H78.5104V12.392H74.7024V19.528C74.7024 20.232 74.8624 20.776 75.1824 21.096C75.5024 21.448 75.9184 21.608 76.4624 21.608C76.7504 21.608 77.0704 21.576 77.3904 21.512C77.7104 21.448 77.9984 21.352 78.3184 21.224L79.1504 24.552C78.6384 24.84 78.0304 25.064 77.2624 25.192C76.4944 25.352 75.7584 25.416 75.0544 25.416ZM83.8036 25.416C82.2996 25.416 81.0836 25.032 80.1236 24.232C79.1636 23.464 78.7156 22.344 78.7156 20.872C78.7156 19.72 79.0036 18.792 79.6116 18.024C80.2196 17.288 81.0196 16.712 82.0116 16.264C83.0036 15.848 84.0916 15.56 85.2436 15.368C86.3956 15.176 87.5476 15.08 88.6356 15.048V14.696C88.6356 13.8 88.4436 13.096 88.0916 12.584C87.7396 12.072 87.2276 11.816 86.5876 11.816C86.0116 11.816 85.5636 12.008 85.1796 12.36C84.7956 12.712 84.5396 13.224 84.4436 13.864H79.3236C79.5796 12.168 80.3796 10.856 81.6916 9.896C82.9716 8.936 84.6676 8.456 86.7796 8.456C89.2116 8.456 91.0036 9.064 92.1556 10.28C93.3076 11.496 93.9156 13.288 93.9156 15.688V25H89.0516L88.9236 22.888C88.3476 23.688 87.6116 24.296 86.6836 24.744C85.7556 25.192 84.7956 25.416 83.8036 25.416ZM85.9476 22.056C86.6836 22.056 87.3236 21.768 87.8356 21.192C88.3476 20.616 88.6356 19.752 88.6356 18.632V17.384C87.0356 17.448 85.8836 17.736 85.1796 18.248C84.4756 18.76 84.1556 19.4 84.1556 20.168C84.1556 20.808 84.3156 21.288 84.6356 21.608C84.9556 21.928 85.4036 22.056 85.9476 22.056ZM102.578 25.416C100.274 25.416 98.4824 24.968 97.2024 24.008C95.9224 23.048 95.1864 21.704 94.9944 19.912H100.274C100.37 20.808 100.658 21.416 101.138 21.736C101.586 22.056 102.098 22.216 102.642 22.216C103.25 22.216 103.73 22.088 104.082 21.832C104.402 21.576 104.594 21.224 104.594 20.808C104.594 20.456 104.434 20.104 104.146 19.784C103.858 19.464 103.314 19.208 102.546 18.984L99.8584 18.28C98.4504 17.928 97.3624 17.384 96.5944 16.616C95.8264 15.88 95.4424 14.856 95.4424 13.512C95.4424 12.392 95.7624 11.464 96.4024 10.696C97.0424 9.96 97.9064 9.416 98.9944 9.032C100.082 8.648 101.298 8.456 102.674 8.456C104.658 8.456 106.258 8.904 107.442 9.8C108.594 10.696 109.33 12.008 109.65 13.672H104.402C104.306 13.064 104.114 12.584 103.794 12.2C103.474 11.848 102.994 11.656 102.418 11.656C101.842 11.656 101.426 11.816 101.138 12.104C100.818 12.392 100.69 12.744 100.69 13.128C100.69 13.512 100.818 13.864 101.074 14.152C101.33 14.44 101.778 14.664 102.482 14.824L104.786 15.4C106.61 15.88 107.922 16.488 108.69 17.224C109.458 17.96 109.842 18.952 109.842 20.2C109.842 21.864 109.202 23.176 107.922 24.072C106.642 24.968 104.85 25.416 102.578 25.416ZM115.267 25L117.667 3.56H123.267L127.747 17.032L132.259 3.56H137.859L140.259 25H134.531L133.283 11.912L129.475 23.432H125.923L122.083 11.784L120.803 25H115.267ZM145.654 25.416C144.15 25.416 142.934 25.032 141.974 24.232C141.014 23.464 140.566 22.344 140.566 20.872C140.566 19.72 140.854 18.792 141.462 18.024C142.07 17.288 142.87 16.712 143.862 16.264C144.854 15.848 145.942 15.56 147.094 15.368C148.246 15.176 149.398 15.08 150.486 15.048V14.696C150.486 13.8 150.294 13.096 149.942 12.584C149.59 12.072 149.078 11.816 148.438 11.816C147.862 11.816 147.414 12.008 147.03 12.36C146.646 12.712 146.39 13.224 146.294 13.864H141.174C141.43 12.168 142.23 10.856 143.542 9.896C144.822 8.936 146.518 8.456 148.63 8.456C151.062 8.456 152.854 9.064 154.006 10.28C155.158 11.496 155.766 13.288 155.766 15.688V25H150.902L150.774 22.888C150.198 23.688 149.462 24.296 148.534 24.744C147.606 25.192 146.646 25.416 145.654 25.416ZM147.798 22.056C148.534 22.056 149.174 21.768 149.686 21.192C150.198 20.616 150.486 19.752 150.486 18.632V17.384C148.886 17.448 147.734 17.736 147.03 18.248C146.326 18.76 146.006 19.4 146.006 20.168C146.006 20.808 146.166 21.288 146.486 21.608C146.806 21.928 147.254 22.056 147.798 22.056ZM145.526 5L150.326 0.00799942L153.142 3.368L147.414 7.208L145.526 5ZM164.94 32.136C162.924 32.136 161.228 31.688 159.82 30.792C158.412 29.896 157.58 28.52 157.26 26.696H162.38C162.508 27.4 162.828 27.912 163.276 28.296C163.724 28.68 164.268 28.872 164.94 28.872C166.764 28.872 167.692 27.688 167.692 25.288V22.856C167.18 23.56 166.572 24.136 165.836 24.52C165.068 24.904 164.236 25.096 163.308 25.096C161.964 25.096 160.78 24.744 159.82 24.008C158.86 23.304 158.092 22.312 157.58 21.064C157.036 19.816 156.78 18.376 156.78 16.744C156.78 15.144 157.036 13.704 157.612 12.456C158.188 11.208 158.988 10.216 160.012 9.512C161.036 8.808 162.284 8.456 163.692 8.456C164.524 8.456 165.356 8.712 166.188 9.16C167.02 9.64 167.66 10.344 168.108 11.304L168.268 8.872H173.132V23.656C173.132 29.32 170.38 32.136 164.94 32.136ZM165.068 21.352C165.836 21.352 166.476 21 166.988 20.232C167.5 19.496 167.756 18.44 167.756 17.032V16.456C167.756 15.112 167.5 14.088 166.988 13.32C166.476 12.584 165.836 12.2 165.068 12.2C164.172 12.2 163.532 12.648 163.084 13.48C162.636 14.344 162.412 15.432 162.412 16.744C162.412 18.088 162.636 19.208 163.084 20.072C163.532 20.936 164.172 21.352 165.068 21.352ZM178.081 7.048C177.217 7.048 176.481 6.792 175.905 6.216C175.329 5.64 175.041 4.968 175.041 4.136C175.041 3.336 175.329 2.664 175.905 2.088C176.481 1.512 177.217 1.224 178.081 1.224C178.913 1.224 179.649 1.512 180.225 2.088C180.801 2.664 181.121 3.336 181.121 4.136C181.121 4.968 180.801 5.64 180.225 6.216C179.649 6.792 178.913 7.048 178.081 7.048ZM175.361 25V8.872H180.801V25H175.361ZM190.21 25.416C188.674 25.416 187.266 25.096 186.05 24.456C184.802 23.816 183.81 22.888 183.106 21.608C182.37 20.328 182.018 18.792 182.018 16.936C182.018 15.176 182.37 13.672 183.106 12.392C183.81 11.112 184.802 10.152 186.05 9.48C187.266 8.808 188.674 8.456 190.21 8.456C191.426 8.456 192.578 8.712 193.666 9.16C194.754 9.608 195.65 10.312 196.354 11.208C197.058 12.136 197.506 13.288 197.698 14.664H192.322C192.13 13.704 191.874 13.032 191.522 12.616C191.138 12.2 190.722 11.976 190.21 11.976C189.506 11.976 188.93 12.36 188.418 13.096C187.906 13.864 187.65 15.144 187.65 16.936C187.65 18.728 187.906 20.008 188.418 20.776C188.93 21.544 189.506 21.896 190.21 21.896C190.754 21.896 191.202 21.704 191.586 21.256C191.97 20.84 192.226 20.072 192.418 18.984H197.762C197.506 20.488 197.026 21.704 196.29 22.664C195.522 23.624 194.626 24.296 193.57 24.744C192.514 25.192 191.394 25.416 190.21 25.416ZM202.785 25.416C201.281 25.416 200.065 25.032 199.105 24.232C198.145 23.464 197.697 22.344 197.697 20.872C197.697 19.72 197.985 18.792 198.593 18.024C199.201 17.288 200.001 16.712 200.993 16.264C201.985 15.848 203.073 15.56 204.225 15.368C205.377 15.176 206.529 15.08 207.617 15.048V14.696C207.617 13.8 207.425 13.096 207.073 12.584C206.721 12.072 206.209 11.816 205.569 11.816C204.993 11.816 204.545 12.008 204.161 12.36C203.777 12.712 203.521 13.224 203.425 13.864H198.305C198.561 12.168 199.361 10.856 200.673 9.896C201.953 8.936 203.649 8.456 205.761 8.456C208.193 8.456 209.985 9.064 211.137 10.28C212.289 11.496 212.897 13.288 212.897 15.688V25H208.033L207.905 22.888C207.329 23.688 206.593 24.296 205.665 24.744C204.737 25.192 203.777 25.416 202.785 25.416ZM204.929 22.056C205.665 22.056 206.305 21.768 206.817 21.192C207.329 20.616 207.617 19.752 207.617 18.632V17.384C206.017 17.448 204.865 17.736 204.161 18.248C203.457 18.76 203.137 19.4 203.137 20.168C203.137 20.808 203.297 21.288 203.617 21.608C203.937 21.928 204.385 22.056 204.929 22.056ZM221.56 25.416C219.256 25.416 217.464 24.968 216.184 24.008C214.904 23.048 214.168 21.704 213.976 19.912H219.256C219.352 20.808 219.64 21.416 220.12 21.736C220.568 22.056 221.08 22.216 221.624 22.216C222.232 22.216 222.712 22.088 223.064 21.832C223.384 21.576 223.576 21.224 223.576 20.808C223.576 20.456 223.416 20.104 223.128 19.784C222.84 19.464 222.296 19.208 221.528 18.984L218.84 18.28C217.432 17.928 216.344 17.384 215.576 16.616C214.808 15.88 214.424 14.856 214.424 13.512C214.424 12.392 214.744 11.464 215.384 10.696C216.024 9.96 216.888 9.416 217.976 9.032C219.064 8.648 220.28 8.456 221.656 8.456C223.64 8.456 225.24 8.904 226.424 9.8C227.576 10.696 228.312 12.008 228.632 13.672H223.384C223.288 13.064 223.096 12.584 222.776 12.2C222.456 11.848 221.976 11.656 221.4 11.656C220.824 11.656 220.408 11.816 220.12 12.104C219.8 12.392 219.672 12.744 219.672 13.128C219.672 13.512 219.8 13.864 220.056 14.152C220.312 14.44 220.76 14.664 221.464 14.824L223.768 15.4C225.592 15.88 226.904 16.488 227.672 17.224C228.44 17.96 228.824 18.952 228.824 20.2C228.824 21.864 228.184 23.176 226.904 24.072C225.624 24.968 223.832 25.416 221.56 25.416Z" fill="white"/>
</svg>
