<svg width="2491" height="18" viewBox="0 0 2491 18" fill="none" xmlns="http://www.w3.org/2000/svg">
<path d="M4.79657 0.732358C4.91679 0.299538 5.31088 0 5.76009 0H45.6844C46.3457 0 46.8249 0.630448 46.6479 1.26764L42.2034 17.2676C42.0832 17.7005 41.6891 18 41.2399 18H1.31564C0.654317 18 0.175124 17.3696 0.352123 16.7324L4.79657 0.732358Z" fill="#C40C2E"/>
<path d="M1252.8 0.732358C1252.92 0.299538 1253.31 0 1253.76 0H1293.68C1294.35 0 1294.82 0.630448 1294.65 1.26764L1290.2 17.2676C1290.08 17.7005 1289.69 18 1289.24 18H1249.32C1248.65 18 1248.18 17.3696 1248.35 16.7324L1252.8 0.732358Z" fill="#C40C2E"/>
<path d="M108.797 0.732358C108.917 0.299538 109.311 0 109.76 0H149.684C150.346 0 150.825 0.630448 150.648 1.26764L146.203 17.2676C146.083 17.7005 145.689 18 145.24 18H105.316C104.654 18 104.175 17.3696 104.352 16.7324L108.797 0.732358Z" fill="#C40C2E"/>
<path d="M1356.8 0.732358C1356.92 0.299538 1357.31 0 1357.76 0H1397.68C1398.35 0 1398.82 0.630448 1398.65 1.26764L1394.2 17.2676C1394.08 17.7005 1393.69 18 1393.24 18H1353.32C1352.65 18 1352.18 17.3696 1352.35 16.7324L1356.8 0.732358Z" fill="#C40C2E"/>
<path d="M212.797 0.732358C212.917 0.299538 213.311 0 213.76 0H253.684C254.346 0 254.825 0.630448 254.648 1.26764L250.203 17.2676C250.083 17.7005 249.689 18 249.24 18H209.316C208.654 18 208.175 17.3696 208.352 16.7324L212.797 0.732358Z" fill="#C40C2E"/>
<path d="M1460.8 0.732358C1460.92 0.299538 1461.31 0 1461.76 0H1501.68C1502.35 0 1502.82 0.630448 1502.65 1.26764L1498.2 17.2676C1498.08 17.7005 1497.69 18 1497.24 18H1457.32C1456.65 18 1456.18 17.3696 1456.35 16.7324L1460.8 0.732358Z" fill="#C40C2E"/>
<path d="M316.797 0.732358C316.917 0.299538 317.311 0 317.76 0H357.684C358.346 0 358.825 0.630448 358.648 1.26764L354.203 17.2676C354.083 17.7005 353.689 18 353.24 18H313.316C312.654 18 312.175 17.3696 312.352 16.7324L316.797 0.732358Z" fill="#C40C2E"/>
<path d="M1564.8 0.732358C1564.92 0.299538 1565.31 0 1565.76 0H1605.68C1606.35 0 1606.82 0.630448 1606.65 1.26764L1602.2 17.2676C1602.08 17.7005 1601.69 18 1601.24 18H1561.32C1560.65 18 1560.18 17.3696 1560.35 16.7324L1564.8 0.732358Z" fill="#C40C2E"/>
<path d="M56.7966 0.732358C56.9168 0.299538 57.3109 0 57.7601 0H97.6844C98.3457 0 98.8249 0.630448 98.6479 1.26764L94.2034 17.2676C94.0832 17.7005 93.6891 18 93.2399 18H53.3156C52.6543 18 52.1751 17.3696 52.3521 16.7324L56.7966 0.732358Z" fill="#2CA4B7"/>
<path d="M1304.8 0.732358C1304.92 0.299538 1305.31 0 1305.76 0H1345.68C1346.35 0 1346.82 0.630448 1346.65 1.26764L1342.2 17.2676C1342.08 17.7005 1341.69 18 1341.24 18H1301.32C1300.65 18 1300.18 17.3696 1300.35 16.7324L1304.8 0.732358Z" fill="#2CA4B7"/>
<path d="M160.797 0.732358C160.917 0.299538 161.311 0 161.76 0H201.684C202.346 0 202.825 0.630448 202.648 1.26764L198.203 17.2676C198.083 17.7005 197.689 18 197.24 18H157.316C156.654 18 156.175 17.3696 156.352 16.7324L160.797 0.732358Z" fill="#2CA4B7"/>
<path d="M1408.8 0.732358C1408.92 0.299538 1409.31 0 1409.76 0H1449.68C1450.35 0 1450.82 0.630448 1450.65 1.26764L1446.2 17.2676C1446.08 17.7005 1445.69 18 1445.24 18H1405.32C1404.65 18 1404.18 17.3696 1404.35 16.7324L1408.8 0.732358Z" fill="#2CA4B7"/>
<path d="M264.797 0.732358C264.917 0.299538 265.311 0 265.76 0H305.684C306.346 0 306.825 0.630448 306.648 1.26764L302.203 17.2676C302.083 17.7005 301.689 18 301.24 18H261.316C260.654 18 260.175 17.3696 260.352 16.7324L264.797 0.732358Z" fill="#2CA4B7"/>
<path d="M1512.8 0.732358C1512.92 0.299538 1513.31 0 1513.76 0H1553.68C1554.35 0 1554.82 0.630448 1554.65 1.26764L1550.2 17.2676C1550.08 17.7005 1549.69 18 1549.24 18H1509.32C1508.65 18 1508.18 17.3696 1508.35 16.7324L1512.8 0.732358Z" fill="#2CA4B7"/>
<path d="M368.797 0.732358C368.917 0.299538 369.311 0 369.76 0H409.684C410.346 0 410.825 0.630448 410.648 1.26764L406.203 17.2676C406.083 17.7005 405.689 18 405.24 18H365.316C364.654 18 364.175 17.3696 364.352 16.7324L368.797 0.732358Z" fill="#2CA4B7"/>
<path d="M1616.8 0.732358C1616.92 0.299538 1617.31 0 1617.76 0H1657.68C1658.35 0 1658.82 0.630448 1658.65 1.26764L1654.2 17.2676C1654.08 17.7005 1653.69 18 1653.24 18H1613.32C1612.65 18 1612.18 17.3696 1612.35 16.7324L1616.8 0.732358Z" fill="#2CA4B7"/>
<path d="M420.797 0.732358C420.917 0.299538 421.311 0 421.76 0H461.684C462.346 0 462.825 0.630448 462.648 1.26764L458.203 17.2676C458.083 17.7005 457.689 18 457.24 18H417.316C416.654 18 416.175 17.3696 416.352 16.7324L420.797 0.732358Z" fill="#C40C2E"/>
<path d="M1668.8 0.732358C1668.92 0.299538 1669.31 0 1669.76 0H1709.68C1710.35 0 1710.82 0.630448 1710.65 1.26764L1706.2 17.2676C1706.08 17.7005 1705.69 18 1705.24 18H1665.32C1664.65 18 1664.18 17.3696 1664.35 16.7324L1668.8 0.732358Z" fill="#C40C2E"/>
<path d="M524.797 0.732358C524.917 0.299538 525.311 0 525.76 0H565.684C566.346 0 566.825 0.630448 566.648 1.26764L562.203 17.2676C562.083 17.7005 561.689 18 561.24 18H521.316C520.654 18 520.175 17.3696 520.352 16.7324L524.797 0.732358Z" fill="#C40C2E"/>
<path d="M1772.8 0.732358C1772.92 0.299538 1773.31 0 1773.76 0H1813.68C1814.35 0 1814.82 0.630448 1814.65 1.26764L1810.2 17.2676C1810.08 17.7005 1809.69 18 1809.24 18H1769.32C1768.65 18 1768.18 17.3696 1768.35 16.7324L1772.8 0.732358Z" fill="#C40C2E"/>
<path d="M628.797 0.732358C628.917 0.299538 629.311 0 629.76 0H669.684C670.346 0 670.825 0.630448 670.648 1.26764L666.203 17.2676C666.083 17.7005 665.689 18 665.24 18H625.316C624.654 18 624.175 17.3696 624.352 16.7324L628.797 0.732358Z" fill="#C40C2E"/>
<path d="M1876.8 0.732358C1876.92 0.299538 1877.31 0 1877.76 0H1917.68C1918.35 0 1918.82 0.630448 1918.65 1.26764L1914.2 17.2676C1914.08 17.7005 1913.69 18 1913.24 18H1873.32C1872.65 18 1872.18 17.3696 1872.35 16.7324L1876.8 0.732358Z" fill="#C40C2E"/>
<path d="M732.797 0.732358C732.917 0.299538 733.311 0 733.76 0H773.684C774.346 0 774.825 0.630448 774.648 1.26764L770.203 17.2676C770.083 17.7005 769.689 18 769.24 18H729.316C728.654 18 728.175 17.3696 728.352 16.7324L732.797 0.732358Z" fill="#C40C2E"/>
<path d="M1980.8 0.732358C1980.92 0.299538 1981.31 0 1981.76 0H2021.68C2022.35 0 2022.82 0.630448 2022.65 1.26764L2018.2 17.2676C2018.08 17.7005 2017.69 18 2017.24 18H1977.32C1976.65 18 1976.18 17.3696 1976.35 16.7324L1980.8 0.732358Z" fill="#C40C2E"/>
<path d="M472.797 0.732358C472.917 0.299538 473.311 0 473.76 0H513.684C514.346 0 514.825 0.630448 514.648 1.26764L510.203 17.2676C510.083 17.7005 509.689 18 509.24 18H469.316C468.654 18 468.175 17.3696 468.352 16.7324L472.797 0.732358Z" fill="#2CA4B7"/>
<path d="M1720.8 0.732358C1720.92 0.299538 1721.31 0 1721.76 0H1761.68C1762.35 0 1762.82 0.630448 1762.65 1.26764L1758.2 17.2676C1758.08 17.7005 1757.69 18 1757.24 18H1717.32C1716.65 18 1716.18 17.3696 1716.35 16.7324L1720.8 0.732358Z" fill="#2CA4B7"/>
<path d="M576.797 0.732358C576.917 0.299538 577.311 0 577.76 0H617.684C618.346 0 618.825 0.630448 618.648 1.26764L614.203 17.2676C614.083 17.7005 613.689 18 613.24 18H573.316C572.654 18 572.175 17.3696 572.352 16.7324L576.797 0.732358Z" fill="#2CA4B7"/>
<path d="M1824.8 0.732358C1824.92 0.299538 1825.31 0 1825.76 0H1865.68C1866.35 0 1866.82 0.630448 1866.65 1.26764L1862.2 17.2676C1862.08 17.7005 1861.69 18 1861.24 18H1821.32C1820.65 18 1820.18 17.3696 1820.35 16.7324L1824.8 0.732358Z" fill="#2CA4B7"/>
<path d="M680.797 0.732358C680.917 0.299538 681.311 0 681.76 0H721.684C722.346 0 722.825 0.630448 722.648 1.26764L718.203 17.2676C718.083 17.7005 717.689 18 717.24 18H677.316C676.654 18 676.175 17.3696 676.352 16.7324L680.797 0.732358Z" fill="#2CA4B7"/>
<path d="M1928.8 0.732358C1928.92 0.299538 1929.31 0 1929.76 0H1969.68C1970.35 0 1970.82 0.630448 1970.65 1.26764L1966.2 17.2676C1966.08 17.7005 1965.69 18 1965.24 18H1925.32C1924.65 18 1924.18 17.3696 1924.35 16.7324L1928.8 0.732358Z" fill="#2CA4B7"/>
<path d="M784.797 0.732358C784.917 0.299538 785.311 0 785.76 0H825.684C826.346 0 826.825 0.630448 826.648 1.26764L822.203 17.2676C822.083 17.7005 821.689 18 821.24 18H781.316C780.654 18 780.175 17.3696 780.352 16.7324L784.797 0.732358Z" fill="#2CA4B7"/>
<path d="M2032.8 0.732358C2032.92 0.299538 2033.31 0 2033.76 0H2073.68C2074.35 0 2074.82 0.630448 2074.65 1.26764L2070.2 17.2676C2070.08 17.7005 2069.69 18 2069.24 18H2029.32C2028.65 18 2028.18 17.3696 2028.35 16.7324L2032.8 0.732358Z" fill="#2CA4B7"/>
<path d="M836.797 0.732358C836.917 0.299538 837.311 0 837.76 0H877.684C878.346 0 878.825 0.630448 878.648 1.26764L874.203 17.2676C874.083 17.7005 873.689 18 873.24 18H833.316C832.654 18 832.175 17.3696 832.352 16.7324L836.797 0.732358Z" fill="#C40C2E"/>
<path d="M2084.8 0.732358C2084.92 0.299538 2085.31 0 2085.76 0H2125.68C2126.35 0 2126.82 0.630448 2126.65 1.26764L2122.2 17.2676C2122.08 17.7005 2121.69 18 2121.24 18H2081.32C2080.65 18 2080.18 17.3696 2080.35 16.7324L2084.8 0.732358Z" fill="#C40C2E"/>
<path d="M940.797 0.732358C940.917 0.299538 941.311 0 941.76 0H981.684C982.346 0 982.825 0.630448 982.648 1.26764L978.203 17.2676C978.083 17.7005 977.689 18 977.24 18H937.316C936.654 18 936.175 17.3696 936.352 16.7324L940.797 0.732358Z" fill="#C40C2E"/>
<path d="M2188.8 0.732358C2188.92 0.299538 2189.31 0 2189.76 0H2229.68C2230.35 0 2230.82 0.630448 2230.65 1.26764L2226.2 17.2676C2226.08 17.7005 2225.69 18 2225.24 18H2185.32C2184.65 18 2184.18 17.3696 2184.35 16.7324L2188.8 0.732358Z" fill="#C40C2E"/>
<path d="M1044.8 0.732358C1044.92 0.299538 1045.31 0 1045.76 0H1085.68C1086.35 0 1086.82 0.630448 1086.65 1.26764L1082.2 17.2676C1082.08 17.7005 1081.69 18 1081.24 18H1041.32C1040.65 18 1040.18 17.3696 1040.35 16.7324L1044.8 0.732358Z" fill="#C40C2E"/>
<path d="M2292.8 0.732358C2292.92 0.299538 2293.31 0 2293.76 0H2333.68C2334.35 0 2334.82 0.630448 2334.65 1.26764L2330.2 17.2676C2330.08 17.7005 2329.69 18 2329.24 18H2289.32C2288.65 18 2288.18 17.3696 2288.35 16.7324L2292.8 0.732358Z" fill="#C40C2E"/>
<path d="M1148.8 0.732358C1148.92 0.299538 1149.31 0 1149.76 0H1189.68C1190.35 0 1190.82 0.630448 1190.65 1.26764L1186.2 17.2676C1186.08 17.7005 1185.69 18 1185.24 18H1145.32C1144.65 18 1144.18 17.3696 1144.35 16.7324L1148.8 0.732358Z" fill="#C40C2E"/>
<path d="M2396.8 0.732358C2396.92 0.299538 2397.31 0 2397.76 0H2437.68C2438.35 0 2438.82 0.630448 2438.65 1.26764L2434.2 17.2676C2434.08 17.7005 2433.69 18 2433.24 18H2393.32C2392.65 18 2392.18 17.3696 2392.35 16.7324L2396.8 0.732358Z" fill="#C40C2E"/>
<path d="M888.797 0.732358C888.917 0.299538 889.311 0 889.76 0H929.684C930.346 0 930.825 0.630448 930.648 1.26764L926.203 17.2676C926.083 17.7005 925.689 18 925.24 18H885.316C884.654 18 884.175 17.3696 884.352 16.7324L888.797 0.732358Z" fill="#2CA4B7"/>
<path d="M2136.8 0.732358C2136.92 0.299538 2137.31 0 2137.76 0H2177.68C2178.35 0 2178.82 0.630448 2178.65 1.26764L2174.2 17.2676C2174.08 17.7005 2173.69 18 2173.24 18H2133.32C2132.65 18 2132.18 17.3696 2132.35 16.7324L2136.8 0.732358Z" fill="#2CA4B7"/>
<path d="M992.797 0.732358C992.917 0.299538 993.311 0 993.76 0H1033.68C1034.35 0 1034.82 0.630448 1034.65 1.26764L1030.2 17.2676C1030.08 17.7005 1029.69 18 1029.24 18H989.316C988.654 18 988.175 17.3696 988.352 16.7324L992.797 0.732358Z" fill="#2CA4B7"/>
<path d="M2240.8 0.732358C2240.92 0.299538 2241.31 0 2241.76 0H2281.68C2282.35 0 2282.82 0.630448 2282.65 1.26764L2278.2 17.2676C2278.08 17.7005 2277.69 18 2277.24 18H2237.32C2236.65 18 2236.18 17.3696 2236.35 16.7324L2240.8 0.732358Z" fill="#2CA4B7"/>
<path d="M1096.8 0.732358C1096.92 0.299538 1097.31 0 1097.76 0H1137.68C1138.35 0 1138.82 0.630448 1138.65 1.26764L1134.2 17.2676C1134.08 17.7005 1133.69 18 1133.24 18H1093.32C1092.65 18 1092.18 17.3696 1092.35 16.7324L1096.8 0.732358Z" fill="#2CA4B7"/>
<path d="M2344.8 0.732358C2344.92 0.299538 2345.31 0 2345.76 0H2385.68C2386.35 0 2386.82 0.630448 2386.65 1.26764L2382.2 17.2676C2382.08 17.7005 2381.69 18 2381.24 18H2341.32C2340.65 18 2340.18 17.3696 2340.35 16.7324L2344.8 0.732358Z" fill="#2CA4B7"/>
<path d="M1200.8 0.732358C1200.92 0.299538 1201.31 0 1201.76 0H1241.68C1242.35 0 1242.82 0.630448 1242.65 1.26764L1238.2 17.2676C1238.08 17.7005 1237.69 18 1237.24 18H1197.32C1196.65 18 1196.18 17.3696 1196.35 16.7324L1200.8 0.732358Z" fill="#2CA4B7"/>
<path d="M2448.8 0.732358C2448.92 0.299538 2449.31 0 2449.76 0H2489.68C2490.35 0 2490.82 0.630448 2490.65 1.26764L2486.2 17.2676C2486.08 17.7005 2485.69 18 2485.24 18H2445.32C2444.65 18 2444.18 17.3696 2444.35 16.7324L2448.8 0.732358Z" fill="#2CA4B7"/>
</svg>
