<?xml version="1.0" encoding="UTF-8"?>
<svg id="Layer_2" data-name="Layer 2" xmlns="http://www.w3.org/2000/svg" viewBox="0 0 200.97 204.81">
  <defs>
    <style>
      .cls-1 {
        fill: #c40c2f;
      }

      .cls-1, .cls-2 {
        stroke-width: 0px;
      }

      .cls-2 {
        fill: #fff;
      }
    </style>
  </defs>
  <g id="Layer_1-2" data-name="Layer 1">
    <path class="cls-1" d="m55.33,103.95c2.54-1.44,5.15-2.76,7.63-4.29,1.75-1.08,3.43-2.31,4.97-3.67,1.72-1.51,1.5-4.36-.3-5.79-2.25-1.79-4.79-3.06-7.47-4.12-2.31-.91-4.48-2.2-6.79-3.11-2.02-.79-3.93-1.74-5.55-3.14-1.99-1.71-3.83-3.6-5.71-5.44-.97-.95-1.91-1.92-2.78-2.96-.86-1.04-1.63-2.15-2.39-3.27-.73-1.05-1.45-2.12-2.09-3.23-1.57-2.74-2.83-5.64-3.16-8.79-.36-3.4-.54-6.83-.53-10.25.02-5.27,1.95-10.03,4.5-14.55,1.26-2.23,2.64-4.4,4.12-6.49,1.35-1.91,2.85-3.73,4.39-5.5,4.67-5.4,9.89-10.11,16.67-12.76,3.59-1.41,7.2-2.77,11.01-3.47.49-.09.99-.19,1.48-.18,4,.09,8.03-.1,11.98.4,4.29.54,8.52,1.68,12.74,2.67,1.01.24,1.97.86,2.84,1.45,4.19,2.85,8.29,5.83,11.87,9.45,2.58,2.61,4.48,5.72,6.22,8.91,1.15,2.12,2.09,4.39,2.86,6.68,1.93,5.72,2.83,11.67,2.48,17.67-.16,2.78-1.26,5.55-2.27,8.2-.9,2.39-2.16,4.65-3.41,6.89-1.51,2.72-2.03,5.67-1.85,8.66.08,1.36,1.17,2.66,1.82,4.03,3.27-.59,6.05-1.81,8.69-3.34,4.56-2.65,9.08-5.37,13.59-8.1,4.15-2.51,8.18-5.21,12.42-7.57,3.43-1.91,7.07-3.41,11.15-3.22,1.14.05,2.3-.11,3.43,0,3.13.29,5.98,1.28,8.1,3.77.88,1.03,1.72,2.1,2.48,3.21,1.26,1.85,2.16,3.84,2.08,6.17-.06,1.78.01,3.57.03,5.35.02,2.28-.6,4.31-1.97,6.18-2.42,3.3-5.07,6.37-8.49,8.66-1.95,1.31-4.05,2.39-6.04,3.65-2.22,1.42-4.4,2.91-6.57,4.41-.4.27-.64.76-1.11,1.35-1.1-.4-2.32.05-3.46,1.05-.57.49-1.37.74-2.08,1.05-2.56,1.09-3.16,3.08-1.79,5.43.42.71.37,1.7.49,2.33,1.83.96,3.5,1.85,5.19,2.72,1.39.72,2.76,1.5,4.2,2.1,4.79,2.01,8.94,5.02,13.05,8.12,2.68,2.02,5.39,4,8.15,5.91,2.08,1.44,3.68,3.31,5.3,5.21.55.64,1.21,1.19,1.83,1.77.26.24.63.4.82.68,2.73,4.04,6.45,7.35,8.13,12.19,2.29,6.58,1.6,12.46-3,17.75-.64.74-1.5,1.34-2.37,1.82-6.79,3.77-13.74,4.26-20.63.43-5.04-2.81-9.9-5.95-14.81-8.99-4.42-2.74-8.77-5.6-13.23-8.28-1.83-1.1-3.9-1.75-6.09-1.86-1.95-.1-3.26.9-3.41,2.73-.2,2.51-.41,5.03-.52,7.55-.11,2.57-.06,5.15-.17,7.72-.1,2.34-.27,4.64-1,6.94-.7,2.2-.78,4.59-1.24,6.88-.97,4.83-1.91,9.71-5.07,13.71-2.11,2.67-4.67,4.8-8.09,5.67-1.79.45-3.59.88-5.37,1.39-4.64,1.32-8.05-.76-10.98-4.02-3.84-4.27-6.21-9.32-7.78-14.83-1.44-5.03-1.97-10.2-2.9-15.3-1.09-6.03-1.52-12.18-3.34-18.07-.29-.94-.36-1.96-.42-2.95-.2-3.61-1.69-6.73-3.63-9.69-.5-.77-1-1.53-1.75-2.66-1.12.15-10.81,2.58-10.81,2.58l1.9,4.44c2.73-1.85,4.01-2.24,7.17-3.5,1.26,2.74,2.19,5.49,2.75,8.34.45,2.28.43,4.7,1.16,6.88,1,2.99.67,6.08,1.27,9.08.53,2.68.91,5.39,1.17,8.11.17,1.81,1,3.44,1.03,5.33.03,2.17.43,4.39,1.06,6.47.64,2.12,1.44,4.19,1.7,6.41.02.13.12.26.19.38,1.55,2.72,2.93,5.55,4.69,8.13,4.3,6.34,10.56,9.19,18.07,9.2,3.77,0,7.2-1.58,10.47-3.4,2.17-1.21,3.98-2.85,5.21-4.97,1.14-1.96,2.09-4.06,2.91-6.17.72-1.84,1.26-3.78,1.68-5.72.44-2.01.67-4.06.95-6.1.21-1.48.33-2.97.53-4.45.33-2.45.96-4.9.99-7.35.05-3.98.51-7.95.09-11.95-.12-1.14.23-2.34.39-3.75,1.14.21,2.02.22,2.76.54,1.3.57,2.58,1.24,3.76,2.03,2.42,1.63,4.74,3.41,7.16,5.05,2.76,1.87,5.58,3.64,8.38,5.46,3.28,2.14,6.5,4.37,9.84,6.4,2.61,1.59,5.47,2.55,8.54,2.99,2.78.4,5.53.58,8.29.04,4-.79,7.43-2.78,10.59-5.26,1.1-.86,2.23-1.8,3.03-2.93,2.02-2.84,3.15-6.09,3.48-9.55.32-3.35.25-6.66-1.89-9.59-.7-.96-1.06-2.17-1.61-3.25-.68-1.32-1.24-2.74-2.12-3.91-1.27-1.7-2.76-3.24-4.19-4.83-1.19-1.33-2.41-2.64-3.65-3.92-.98-1.01-2.02-1.97-3.04-2.95-1.95-1.86-3.78-3.75-6.22-5.13-3.52-1.98-7.15-3.92-9.93-7.02-.65-.72-1.54-1.28-2.42-1.71-2.75-1.35-5.56-2.59-8.34-3.91-1.47-.7-2.92-1.46-4.31-2.17-.1-1.21-.18-2.25-.27-3.35.46-.31.91-.68,1.42-.93,2.64-1.28,5.04-2.93,7.41-4.66,1.37-.99,3-1.62,4.47-2.48,2.83-1.64,5.78-3.12,8.4-5.05,2.93-2.15,5.23-5.01,7.14-8.13.33-.54.47-1.18.7-1.78.8-2.09.82-4.31,1.18-6.47.54-3.31.29-6.48-.73-9.66-1.05-3.26-3.04-5.97-5.02-8.65-1.29-1.75-3.48-2.56-5.51-3.14-4.32-1.24-8.79-1.45-13.1-.12-4.02,1.25-7.7,3.35-11.31,5.51-3.24,1.95-6.5,3.87-9.76,5.78-1.35.79-2.75,1.51-4.12,2.28-1.99,1.12-3.91,2.39-5.96,3.37-2.43,1.16-4.95,2.19-8.28,2.21.32-1.26.33-2.34.84-3.07,2.2-3.19,3.81-6.65,5.28-10.21,2.15-5.21,3.45-10.53,2.4-16.21-.05-.28-.08-.57-.11-.85-.48-4.47-1.23-8.84-3.23-12.98-1.77-3.66-3.77-7.17-5.95-10.58-1.14-1.79-2.53-3.44-3.94-5.04-.84-.96-1.9-1.71-2.89-2.54-4.45-3.73-9.05-7.1-14.97-8.26-4.26-.84-8.44-2.16-12.82-2.24-3.91-.07-7.87-.27-11.74.17-2.85.33-5.61,1.56-8.39,2.44-9.8,3.11-17.54,9.16-23.78,17.15-2.23,2.85-3.94,6.1-5.77,9.25-2.2,3.8-4.48,7.59-4.8,12.14-.13,1.84-.35,3.68-.34,5.52.01,2.55.13,5.1.34,7.63.33,3.9.59,7.84,2.9,11.25,1.16,1.71,2.31,3.43,3.37,5.21,1.96,3.29,4.58,5.99,7.35,8.57,1.04.96,2.09,1.94,3.23,2.78,1.66,1.23,3.29,2.61,5.16,3.41,1.41.61,2.93.97,4.26,1.84.64.42,1.45.57,2.16.89,2.52,1.13,5.03,2.28,7.66,3.48-1.49,1.12-2.77,2.12-4.07,3.07-3,2.17-7.49,4.93-10.66,6.85"/>
    <path class="cls-1" d="m192.16,152.82c-1.08-7.57-2.36-12.78-9.37-16.83-12.33-8.95-24.31-18.87-37.51-26.46-.48-3.16-1.83-6.35,1.43-8.54,7.28-6.64,16.32-10.77,23.67-17.17,4.64-3.68,7.1-9.11,4.51-14.76-3.59-16.17-22.2-7.69-31.1-1.12-7.21,3.02-18.87,13.77-26.36,11.18-9.78-6.33.07-19.88.91-28.72,1.67-10.5-3.32-21.46-10.27-29.18-14.5-19.39-34.9-15.33-52.86-3.21-1.65,2.23-3.33,4.64-5.82,5.94-6.1,4.38-7.03,12.87-9.51,19.51-5.67,19.06,8.94,35.45,27.01,39.22,18.66,7.85-1.31,17.58-9.58,23.03l11.38,25.69c25.71-18.47,23.36,30.6,26.99,44.93,1.04,10.96,13.49,25.41,24.59,16.81,11.38-13.53,2.77-34.72,11.96-49.61,12.82.3,21.08,12.28,32.84,15.85,7.04,3.11,14.42,8.33,22.17,3.31,3.36-2.14,5.62-5.95,4.91-9.87Zm-68.14,24.64c-.75,3.26-1.22,6.62-2.33,9.75-1.66,4.65-7.54,6.77-12.17,4.72-1.92-.85-3.49-2.12-4.83-3.79-1.75-2.18-3.36-4.43-4.48-7.01-.3-.69-.73-1.4.17-2.62.77,1.94,2.06,2.9,3.53,3.65,2.07,1.06,2.9.77,3.9-1.29.53-1.09,1.04-2.2,1.72-3.19,1.12-1.6,2.18-1.58,3.74-.39,1.46,1.11,2.29,2.84,4.1,3.63,1.88.82,2.98.7,4.16-1.06.69-1.02,1.4-2.04,2.27-3.31.14.55.26.74.22.9Zm38.91-21.64c-33.61-21.93-35.15-20.85-38.47,19.37-3.05.17-3.39,4.75-6.34,4.11-2.09-.97-2.54-3.69-4.9-4.45-4.88-2.92-6.56,9.74-9.91,4.08-1.15-2.39-1.59-2.63-4.27-2.19-5.49-16.19-1.27-65.99-30.46-47.33l-9.82-22.44c46.15-28.2,1.16-18.51-11.05-38.39-5.65-7.4-6.94-17.17-3.77-25.91,2.7-8.04,5.44-15.98,11.94-21.75,7.81-6.61,17.97-10.34,28.1-10.99,8.16-1.23,15.08,5.58,20.74,10.69,8.55,7.7,14.63,19.4,11.45,31.03-2.58,8.58-11.7,28.63,2.9,30.13,14.04-2.66,24.09-15.83,38.19-18,.6,2.93-2.25,4.15-3.04,6.38,1.28,8.17,10.93.13,10.09,6.69-2.03,2.44-1.9,4.86-.66,7.42,1.56.62,2.44.01,2.95-1.17-5.96-2.86,5.11-6.33-2.52-10.87-2.54-1.01-5.44.19-7.63-1.83,2.1-2.44,4.61-4.83,2.16-8.56,9.11-3.53,16.12,5.26,15.31,13.71-4.73,12.85-20.86,15.41-28.57,25.67-8.87,6.65,2.46,10.48,7.22,14.78,2.93,2.49,5.35,6.13,9.21,7.17,39.25,28.64,7.51,12.89,8.92,24.77.58,6.35-7.99-.41-7.75,7.87Zm26.91,1.48c-2.31,2.87-4.96,5-9,4.88-2.39-.07-4.66-.3-6.86-1.26-1.89-.82-3.82-1.56-5.71-2.4-1.1-.49-2.03-1.21-2.82-2.2-.71-.9-.96-1.84-.52-2.75.47-.97,1.57-.83,2.5-.73.71.08,1.41.26,2.12.31,2.4.17,3.71-1.27,3.4-3.7-.09-.7-.23-1.4-.4-2.09-.55-2.27.12-3.24,2.48-3.36.99-.05,1.99.08,2.98.23,3.2.47,4.39-.34,5.1-3.86,2.19,1.09,3.92,2.2,4.95,4.47,1.07,2.35,2.05,4.68,2.65,7.19.46,1.91.37,3.7-.89,5.27Z"/>
    <path class="cls-1" d="m106.82,54.59c-.48-.23-.97-.46-1.44-.7-2.24-1.13-4.56-1.77-7.1-1.32-1.37.25-2.76.39-4.15.53-3.94.39-7.12,2.47-10.3,4.59-1.81,1.2-3.42,2.62-4.91,4.18-1.55,1.62-2.37,3.7-3.41,5.63-1.11,2.06-1.53,4.33-1.96,6.59-.1.52.03,1.08.08,1.62.07.8.22,1.61-.59,2.3-.67-.99-1.35-1.91-1.15-3.23.22-1.42.14-2.9.54-4.26.65-2.22,1.19-4.48,2.31-6.58.82-1.53,1.7-2.9,3-4.02.3-.26.62-.54.82-.87.86-1.37,2.15-2.18,3.53-2.93,1.18-.63,2.38-1.28,3.43-2.1,2.45-1.91,5.33-2.62,8.27-3.18.39-.07.81-.06,1.19-.17,2.97-.85,5.83-.47,8.66.65,1.25.49,2.34,1.14,3.13,2.22.16.21.21.51.31.76-.09.09-.18.18-.27.27Z"/>
    <path class="cls-1" d="m117.93,111.31c-.24,2.38-.22,4.19-.65,5.88-.5,1.98-2.8,3.4-4.89,2.66-1.2-.43-2.41-.8-3.62-1.21-.2-.07-.44-.16-.55-.31-1.02-1.5-2.32-2.86-2.25-4.89.07-1.93,1.28-3.06,2.67-4.08.57-.42,1.15-.86,1.79-1.13,1.03-.42,2.15-1.05,3.19-.97,2.71.22,4.15.9,4.3,4.04Z"/>
    <path class="cls-1" d="m127.92,128.6c-.52,4.82-3.41,7.28-7.56,5.28-.65-.31-1.32-.96-1.58-1.61-.54-1.37-.97-2.82-1.15-4.28-.14-1.12.26-2.26,1.34-2.96.24-.16.46-.34.69-.51,2.89-2.1,4.59-1.87,6.6,1.04.74,1.07,1.27,2.3,1.67,3.05Z"/>
    <path class="cls-1" d="m108.14,98.49c0,2.96-2.4,5.02-5.28,4.48-2.12-.4-3.74-1.65-4.85-3.47-.72-1.18.32-4.28,1.64-5.17.58-.39,1.19-.76,1.76-1.16,1.76-1.23,3.63-.85,5.03.85,1.11,1.34,1.57,2.85,1.7,4.47Z"/>
    <path class="cls-1" d="m72.17,53.44c-.17,1.45-.9,2.73-2.02,3.17-1.57.63-3.1.24-4.11-.92-1.31-1.5-2.35-3.28-1.74-5.46.23-.83.51-1.68,1.62-1.71.07,0,.14-.02.21-.05,2.82-.99,3.59-.69,4.87,2.04.45.95.78,1.95,1.16,2.92Z"/>
    <path class="cls-1" d="m92.58,42.68c.03,1.13-.18,2.17-1.27,2.76-1.13.61-2.06,0-2.96-.62-1.6-1.11-2.21-2.8-2.32-4.61-.1-1.62,2.11-2.92,3.62-2.28,1.99.85,2.95,2.41,2.93,4.75Z"/>
    <g>
      <path class="cls-1" d="m46.58,142.88c-6.3-.14-12.69.06-18.8-.87,4.51-3.58,2.71-5.07-.62-8.16,1.04-3.03,6.26-2.73,4.28-6.79-.62-1.83-1.43-3.53-3.24-4.62-3.22-3.22,8.08-3.59,20.18-4.18l-.67-1.48c-9.94.38-20,.58-29.52,2.53-8.43,6.04-14.69,19.19-.55,22.04,7.75,5.08,17.34,3.29,26.11,3.58.7-.09,1.37-.16,2.01-.22l.81-1.84Zm-20.88-1.09c-18.88-2.27-17.68-19.08-.23-22.21-.24,1.52-.43,2.74-.63,3.97,7.04.71,5.42,5.47,1.02,8.68-3.17,2.3.35,3.56,2.15,5.13-.8,1.52-1.53,2.92-2.32,4.42Z"/>
      <path class="cls-1" d="m43.69,149.43c-6.03.43-12.08.6-18.13.73-1.61.03-3.24-.43-4.84-.74-.91-.18-1.79-.5-2.67-.77-1.46-.45-3.15-.36-4.19-1.83-.19-.27-.72-.33-1.11-.43-3.31-.85-5.16-3.42-6.84-6.05-1.72-2.7-2.62-5.78-2.3-8.97.39-3.87,2.29-7.08,5.5-9.29,2.39-1.64,4.66-3.56,7.55-4.39,2.67-.76,5.31-1.63,8-2.29,4.56-1.13,9.22-.66,13.85-.75,2.7-.05,5.4-.24,8.11-.33,0,0-1.3-1.63-2.91-3.82-6.85.48-13.67,1.23-20.51,1.86-.64.06-1.36.3-1.9.08-2.02-.81-3.92-.31-5.8.37-3.32,1.21-6.28,2.97-9.01,5.26C1.38,122.36-.19,127.98.02,134.31c.04,1.25.5,2.51.89,3.73.46,1.42,1.06,2.79,1.59,4.18,1.28,3.38,3.31,6.18,6.56,7.87,3.7,1.91,7.79,2.69,11.8,3.62,1.44.33,2.95.42,4.44.48,2.41.1,4.82.14,7.23.1,3.27-.05,6.56,0,9.79-.37.65-.07,1.29-.12,1.94-.15l-.58-4.33Z"/>
    </g>
    <polygon class="cls-1" points="57.52 146.77 61.42 143.92 63.59 145.89 63.59 148.91 59.47 148.91 57.52 146.77"/>
    <polygon class="cls-1" points="47.97 108.36 50.88 108.36 49.39 110.22 50.88 112.18 46.02 110.27 47.97 108.36"/>
    <polygon class="cls-1" points="53.66 101.16 50.88 103.05 50.88 105.22 55.33 103.95 53.66 101.16"/>
    <polygon class="cls-1" points="45.97 147.62 49.56 147.62 50.88 149.49 47.56 150.69 45.97 147.62"/>
    <polygon class="cls-1" points="71.96 139.05 70.76 141.08 67.16 140.07 69.63 135.54 71.96 137.2 71.96 139.05"/>
    <polygon class="cls-1" points="68.33 130.9 66.78 133.89 68.47 132.89 68.33 130.9"/>
    <polygon class="cls-1" points="42.25 103.83 44.2 102.4 45.28 103.39 45.28 104.9 43.22 104.9 42.25 103.83"/>
    <polygon class="cls-1" points="58.01 119.2 58.61 120.23 58.08 120.72 57.33 120.65 57.43 119.63 58.01 119.2"/>
    <polygon class="cls-1" points="54.55 130.71 55.01 129.61 55.72 129.74 56.11 130.38 55.24 130.91 54.55 130.71"/>
    <polygon class="cls-1" points="72.2 146.86 72.81 147.89 72.28 148.38 71.53 148.3 71.63 147.29 72.2 146.86"/>
    <polygon class="cls-1" points="50.1 162.63 50.55 161.53 51.27 161.66 51.66 162.3 50.79 162.83 50.1 162.63"/>
    <polygon class="cls-2" points="56.11 107.02 59.18 107.02 66.43 122.58 68.57 129.41 67.24 130.53 56.11 107.02"/>
  </g>
</svg>