<?xml version="1.0" encoding="UTF-8"?>
<svg id="Layer_2" data-name="Layer 2" xmlns="http://www.w3.org/2000/svg" viewBox="0 0 780.84 787.57">
  <defs>
    <style>
      .cls-1 {
        fill: #c40c2e;
      }

      .cls-1, .cls-2 {
        stroke-width: 0px;
      }

      .cls-2 {
        fill: #fff;
      }
    </style>
  </defs>
  <g id="Layer_1-2" data-name="Layer 1">
    <g>
      <path class="cls-2" d="m192.05,451.3c-36.22,5.97-117.78-16.25-137.05,38.41-12.77,40.03,27.25,50.12,27.25,50.12,13.93.16,112.77,27.92,127.57-9.35l-26.66-11.49,15.34-11.49-29.54-23.72,29.54-14.08-27.69-11.69,21.23-6.71Z"/>
      <path class="cls-2" d="m293.51,341s5.55-13.55-32.32-27.02c-37.87-13.47-121.9-51.51-90.33-148.6,22.29-68.54,36.56-87.53,113.11-114.19,76.55-26.66,113.43,19.15,113.43,19.15,135.45,91.22-67.49,303.5,116.7,219.18,0,0,99.76-80.09,137.58-41.98,37.82,38.11-8.22,77.13-8.22,77.13l-74.61,49.45s-27.68,27.02-18.51,35.76c1.96,2.38,3.6,8.56,6.57,10.76,70.89,63.39,207.04,111.64,164.66,187.11-29.89,38.6-111.08-20.08-111.08-20.08l-82.82-44.55s-30.46-17.75-42.52,54.5c-12.76,76.49,1.81,127.72-41.47,137.61-43.28,9.89-68.7-41.7-75.41-116.23-8.48-94.2-34.92-170.1-99.86-123.54l-.79-34.91-18.36-9.56,13.44-17.04-41.55-8.97,4.59-20.93s75.2-31.74,67.78-63.04Z"/>
      <g>
        <path class="cls-2" d="m421.96,787.57c-46.03,0-68.78-36.34-83.5-68.37l-.22-.48-.13-.51c-1.19-4.53-3.71-10.09-6.15-15.47-1.74-3.84-3.54-7.81-4.85-11.42l-.1-.3c-2.29-7.53-3.7-17.19-3.89-26.58-1.93-9.92-3.44-19.79-4.9-29.33-1.02-6.67-2.07-13.57-3.26-20.42-.94-4.74-1.39-9.4-1.82-13.9-.64-6.62-1.25-12.87-3.3-19.01l-.17-.62c-1.26-5.74-2.22-10.83-3.15-15.75-1.95-10.35-3.68-19.48-7.59-32-.69.26-1.36.51-2.03.77-8.19,3.08-15.27,5.73-22.58,10.69l-6.73-9.93c8.5-5.76,16.56-8.78,25.09-11.99,2.5-.94,5.09-1.91,7.77-2.98l5.87-2.34,2.03,5.99c5.61,16.53,7.72,27.73,9.96,39.58.9,4.75,1.82,9.66,3.01,15.1,2.41,7.33,3.1,14.46,3.76,21.35.43,4.43.83,8.61,1.66,12.79l.03.14c1.22,7,2.28,13.98,3.31,20.74,1.46,9.59,2.98,19.51,4.91,29.36l.1.53v.54c.14,8.43,1.35,17.04,3.34,23.67,1.15,3.14,2.75,6.67,4.45,10.41,2.56,5.65,5.2,11.48,6.68,16.85,20.42,44.18,43.17,62.39,76.06,60.84h.28c28.88-.02,51.75-12.54,64.39-35.26l.11-.19c15.08-24.85,18.59-52.95,21.98-80.12,2.2-17.57,2.82-32.04,3.43-46.03.5-11.45,1.01-23.28,2.38-36.57l.62-5.98,5.98.63c16.65,1.75,29.07,10.76,41.07,19.48,4.26,3.09,8.67,6.29,13.12,9.04l.13.08c9.83,6.4,19.73,13.09,29.3,19.56,12.7,8.58,25.82,17.46,38.9,25.72,6.68,4.04,15.76,5.11,24.54,6.14,2.44.29,4.96.58,7.41.94l.34.06c26.85,5.48,56.81-5.67,76.43-28.42,12.02-18.28,18.43-45.35,5.81-65.01-2.05-2.84-3.35-5.87-4.61-8.8-.62-1.45-1.21-2.82-1.86-4.08l-.23-.5c-4.58-11.42-12.57-20.43-22.54-31.01-2.3-2.42-4.59-4.88-6.88-7.33-12.89-13.82-25.08-26.87-40.43-36.78l-2.17-1.22c-12.66-7.1-25.75-14.44-36.21-25.92-9.02-7-19.79-11.68-31.19-16.63-8.2-3.57-16.69-7.26-24.49-11.91l-2.66-1.59-1.55-19.57,3.4-1.87c7.5-4.12,14.86-8.91,21.98-13.55,8.97-5.84,18.25-11.88,28.19-16.87,20.38-10.67,43.15-23.97,55.77-46.77,8.23-21.43,9.72-44.29,4.11-62.82-13.09-31.95-25.12-38.41-35.17-40.52l-.6-.16c-37.32-11.95-70.76,8.99-103.11,29.23-11.85,7.42-24.11,15.09-36.34,20.99-2.53,1.44-5.04,2.92-7.46,4.35-14.71,8.69-28.6,16.9-48.78,17.35l-7.92.18,1.98-7.67c.35-1.38.6-2.75.85-4.09.57-3.14,1.16-6.39,3.09-9.26,16.58-26.56,34.67-61.71,27.6-98.2l-.08-.41-.02-.42c-.92-17.39-5.56-42.85-33.55-85.69-16.46-25.75-41.27-44.35-73.76-55.32-28.15-9.51-60.88-12.76-94.67-9.41-33.87,7.76-64.97,20.17-89.99,35.88-29.87,18.77-51.16,42.03-63.27,69.14l-.29.57-.7,1.2c-7.97,13.7-15.49,26.64-16.58,41.89v.12c-1.57,27.49-3.71,65.12,10,88.08,1.39,2.14,2.77,4.28,4.15,6.42,10.57,16.43,20.56,31.96,34.96,43.99l.46.43c15.95,16.48,36.27,25.1,57.78,34.22,7.92,3.36,16.09,6.83,24.06,10.73,3.67.58,5.76,3.05,6.51,5.38,2.49,7.68-7.29,17.87-10.94,20.51-6.8,4.92-17.73,9.12-28.3,13.19-8.01,3.08-16.29,6.26-21.24,9.26l-6.22-10.26c5.86-3.55,14.26-6.78,23.15-10.19,9.85-3.79,20.04-7.7,25.57-11.7,1.69-1.22,3.84-3.81,5.18-5.89-7.37-3.56-15.03-6.81-22.46-9.96-21.58-9.15-43.88-18.61-61.5-36.7-15.67-13.18-26.57-30.11-37.12-46.5-1.39-2.16-2.78-4.31-4.18-6.46l-.12-.19c-15.67-26.12-13.41-65.95-11.75-95.03v-.2c1.31-18.11,9.89-32.87,18.2-47.15l.54-.92c13.12-29.19,35.9-54.12,67.71-74.11,26.23-16.48,58.76-29.45,94.06-37.5l.73-.12c35.62-3.58,70.22-.14,100.08,9.94,35.15,11.87,62.07,32.12,80,60.18,15.43,23.62,33.42,55.36,35.43,91.15,7.66,40.49-11.64,78.19-29.35,106.53l-.15.23c-.22.32-.41.85-.59,1.51,13.2-1.98,23.58-8.11,35.31-15.04,2.52-1.49,5.13-3.03,7.81-4.56l.36-.19c11.7-5.62,23.19-12.82,35.36-20.44,34.59-21.65,70.35-44.03,112.84-30.58,23.25,5.04,35.09,27.04,43.61,47.92l.18.51c6.52,21.22,4.89,47.21-4.46,71.31l-.14.37-.19.34c-14.2,25.97-38.92,40.46-60.97,52.01l-.09.05c-9.36,4.69-18.36,10.55-27.07,16.22-6.25,4.07-12.68,8.26-19.35,12.1l.45,5.64c6.4,3.56,13.26,6.54,20.47,9.68,11.75,5.11,23.89,10.39,34.21,18.52l.41.32.35.38c9.19,10.24,21.56,17.17,33.51,23.87l2.64,1.5c16.69,10.73,30,24.99,42.87,38.78,2.27,2.43,4.54,4.86,6.83,7.28,8.5,9.02,19.04,20.22,24.85,34.54.77,1.54,1.43,3.08,2.07,4.56,1.06,2.48,2.07,4.82,3.37,6.6l.2.29c16.83,26.01,7.29,58.59-6,78.6l-.44.58c-22.37,26.15-56.89,38.97-88.01,32.69-2.24-.32-4.51-.59-6.92-.87-10.08-1.18-20.5-2.41-29.42-7.83l-.09-.05c-13.25-8.37-26.47-17.31-39.26-25.95-9.51-6.43-19.34-13.07-29.06-19.4-4.82-2.97-9.4-6.29-13.82-9.51-9.51-6.9-18.56-13.48-29.29-16.19-.89,10.3-1.29,19.64-1.72,29.44-.62,14.23-1.26,28.95-3.51,47-3.55,28.39-7.22,57.75-23.57,84.76-14.84,26.59-41.35,41.26-74.67,41.32-1.39.06-2.75.09-4.1.09Z"/>
        <path class="cls-2" d="m128.52,593.87c-30.25,0-61.54-3.43-90.71-15.49l-.51-.24c-23.63-12.48-32.24-40.45-37.1-63.43l-.11-.51-.02-.53c-.85-25.25,5.67-58.45,26.49-75.92l.38-.29c14.5-10.32,41.29-29.38,63.88-23.35,13.92-.72,28.25-2.2,42.13-3.63,13.49-1.39,27.44-2.83,41.16-3.6l.67,11.98c-13.45.75-27.25,2.18-40.6,3.55-14.36,1.48-29.2,3.01-43.75,3.73l-1.04.05-1-.3c-17.07-5.19-42.1,12.53-54.29,21.2-17.25,14.63-22.7,43.38-22.05,65.66,8.16,38.14,20.6,49.3,30.61,54.66,42.73,17.58,91.29,15.54,133.47,12.25l.93,11.96c-15.51,1.21-31.87,2.25-48.54,2.25Z"/>
      </g>
      <g>
        <path class="cls-1" d="m218.21,397.44c13.99-9.72,69.52-29.71,46.26-51.74-22.22-17.37-52.15-22.09-74.53-39.01-26.53-23.98-55.11-52.23-60.67-89.11-9.18-58.15,9.8-95.15,46.95-138.45C228.31,14.91,303.32,6.02,378.96,28.94c63.15,30.45,103.3,95.73,98.84,166.22-2.11,19.99-11.56,39.29-21.35,56.8-8.07,15.37-10.8,33.07-.09,47.76,31.83-6.8,56-27.93,83.83-43.05,31.68-18.67,62.26-45.48,101.59-40.64,11.79,1.09,22.5,4.83,30.47,14.17,8.45,10.21,17.66,21.19,17.16,35.31-.57,14.85,2.83,30.82-7.32,43.41-9.11,12.43-19.07,23.98-31.95,32.6-17.19,11.76-37.53,19.79-51.62,35.42-7.12-3.03-13.72,6.03-20.87,7.9-16.85,7.75-5.83,16.78-4.89,29.18,28.96,15.63,59.02,27.54,84.45,48.67,17.17,13.59,37.18,24.11,50.59,41.82,16,16.1,31.56,33.4,40.58,55.07,24.97,62.09-45.32,106.01-97.82,75.22-35.92-20.34-70.21-43.57-105.51-64.98-9.75-5.82-33.63-13.9-35.76,3.27-3.87,27.8.68,56.22-6.34,83.56-6.23,26.22-6.29,55.21-23.74,77.48-11.57,17.17-31.49,22.23-50.65,26.54-17.47,4.95-30.3-2.86-41.33-15.12-43.85-49.81-35.05-121.25-52.75-181.38-2.15-23.95-7.33-37.87-21.8-57.58-4.21.57-40.66,9.72-40.66,9.72l7.14,16.7c10.27-6.96,15.09-8.41,26.99-13.16,9.61,18.14,10.48,37.98,14.71,57.27,3.77,11.24,2.53,22.87,4.77,34.17,2.94,16.95,4.95,33.68,8.26,50.56.13,8.16,1.62,16.52,4,24.35,3.03,8.35,4.9,17.09,7.12,25.55,16.55,35.99,42.79,67.22,85.62,65.2,22.17-1.27,46.8-12.35,59-31.5,15.48-25.51,20.03-55.23,22.86-84.44,6.69-28.92,2.52-57.49,5.53-86.72,20.78,2.18,34.58,18.29,51.46,28.69,22.85,14.87,45.52,30.07,68.56,44.62,9.82,5.97,20.57,9.59,32.12,11.27,30.68,6.27,62.49-7.36,82.43-30.67,13.59-20.46,20.15-50.1,5.97-72.02-2.65-3.62-4-8.17-6.07-12.22-5.18-12.91-14.35-22.92-23.74-32.89-15.27-16.1-29.68-32.99-48.59-45.14-13.23-7.44-26.9-14.75-37.38-26.41-16.56-13.04-38.64-18.52-56.71-29.29-.36-4.57-.67-8.47-1-12.61,17.14-9.41,32.48-21.55,50.02-30.34,23.09-12.09,45.59-26,58.49-49.57,8.15-21,10.99-45.62,4.31-67.38-7.58-18.59-18.38-39.93-39.6-44.38-54.29-17.38-98.6,28.75-144.07,50.62-17.42,9.89-31.66,20.53-53.59,21.02,1.22-4.73,1.24-8.8,3.15-11.56,8.28-11.99,14.35-25.04,19.86-38.42,16.33-35.71,11.22-77.44-3.53-113.06-20.43-44.76-54.38-87.46-104.41-99.4-40.46-9.95-84.51-15.03-123.98,1.41-50.04,15.67-87.57,53.59-111.2,99.32-19.9,27.65-21.51,62.24-18.09,95.15,1.24,14.69,2.22,29.5,10.91,42.32,14.35,23.37,30.19,45.83,52.5,62.28,21.47,17.24,47.97,23.57,72.36,36.21-17.14,13.62-36.8,26.18-55.43,37.32"/>
        <path class="cls-1" d="m411.96,211.7c-10.1-5.17-20.47-9.87-32.16-7.58-28.3,1.09-53.59,14.72-72.86,34.96-10.74,13.09-17.61,29.36-20.19,46-.87,5.04,2.84,10.5-1.9,14.76-6.92-7.65-3.79-19-2.29-28.2,3.83-16.06,10.3-32.11,23.07-43.16,6.05-9.56,17.83-12.06,26.19-18.9,17.49-13.74,69.68-23.3,81.15,1.11-.33.34-.67.67-1,1.01Z"/>
        <path class="cls-1" d="m453.73,425.12c-.89,15.31-.89,36.59-20.87,32.13-5.04-2.15-11.04-2.88-15.66-5.72-3.84-5.64-8.73-10.75-8.45-18.39,1.15-19.61,44.2-36.35,44.97-8.02Z"/>
        <path class="cls-1" d="m491.32,490.18c-3.58,33.45-37.89,27.61-38.74-2.31-1.02-5.55,2.8-10.19,7.62-13.06,15.43-13.48,25.35,2.42,31.11,15.37Z"/>
        <path class="cls-1" d="m416.92,376.9c-.47,23.11-29.64,20.56-38.13,3.79-3.75-8.81,4.33-19.97,12.81-23.82,13.01-9.53,25.36,7.76,25.32,20.02Z"/>
        <path class="cls-1" d="m281.56,207.39c-4.64,26.51-35.35,7.58-29.58-12.08.8-3.58,2.49-6.48,6.88-6.6,15-7.55,18.29,7.51,22.71,18.68Z"/>
        <path class="cls-1" d="m358.35,166.91c1.16,9.81-8.78,14.83-15.9,8.04-11.26-7.07-12.9-29.99,4.89-25.93,7.49,3.2,11.11,9.06,11.01,17.89Z"/>
        <g>
          <path class="cls-1" d="m185.28,543.92c-23.71-.53-47.76.23-70.73-3.27,16.97-13.49,10.19-19.07-2.35-30.7,3.91-11.38,23.54-10.27,16.12-25.56-2.32-6.89-5.4-13.28-12.19-17.37-12.13-12.1,30.39-13.5,75.93-15.72l-2.5-5.57c-37.41,1.43-75.27,2.19-111.07,9.54-96.76,81.89,37.24,104.26,103.75,95.57l3.05-6.91Zm-78.56-4.1c-71.05-8.55-66.51-71.79-.87-83.56-.9,5.72-1.63,10.3-2.35,14.92,26.48,2.66,20.41,20.57,3.84,32.68-11.91,8.66,1.3,13.41,8.1,19.31-3,5.72-5.76,11-8.72,16.65Z"/>
          <path class="cls-1" d="m174.41,568.57c-32.03.65-65.47,7.58-96.49-2.92-5.5-1.7-11.85-1.35-15.78-6.9-24.09-6.34-40.58-33.97-38.56-58.16,2.04-26.16,26.73-42.37,49.1-51.45,10.03-2.87,19.97-6.13,30.09-8.63,27.2-5.54,55.09-1.36,82.61-4.05,0,0-4.88-6.13-10.93-14.38-28.05,1.57-56.42,5.9-84.31,7.28-20.18-5.63-40.24,9.75-55.71,21.2-27.47,22.79-30.31,60.66-15.01,90.9,4.83,12.71,12.44,23.27,24.69,29.6,41.12,19.78,88.19,17.03,132.49,13.8l-2.18-16.28Z"/>
        </g>
        <g>
          <polygon class="cls-1" points="244.52 584.2 235.6 574.45 252.62 562.01 262.17 570.67 262.17 584.2 244.52 584.2"/>
          <path class="cls-2" d="m252.52,563.94l8.16,7.39v11.37h-15.5l-7.34-8.04,14.68-10.73m.2-3.86l-1.97,1.44-14.68,10.73-2.7,1.97,2.26,2.47,7.34,8.04.89.98h19.82v-15.7l-.99-.89-8.16-7.39-1.81-1.64h0Z"/>
        </g>
        <g>
          <polygon class="cls-1" points="189.35 431.23 198.79 421.99 213.45 421.99 206.62 430.53 214.78 441.24 189.35 431.23"/>
          <path class="cls-2" d="m210.33,423.49l-5.61,7.01,5.61,7.37-18.28-7.19,7.34-7.19h10.93m6.24-3h-18.4l-.87.86-7.34,7.19-3.31,3.24,4.31,1.7,18.28,7.19,9.99,3.93-6.5-8.54-4.19-5.51,4.15-5.18,3.9-4.87h0Z"/>
        </g>
        <polygon class="cls-1" points="211.92 386.93 201.44 394.07 201.44 402.23 218.21 397.44 211.92 386.93"/>
        <g>
          <polygon class="cls-1" points="192.68 557.33 209.44 557.33 215.96 566.62 200.41 572.26 192.68 557.33"/>
          <path class="cls-2" d="m208.66,558.83l4.95,7.05-12.47,4.52-5.99-11.57h13.52m1.56-3h-20.01l2.27,4.38,5.99,11.57,1.21,2.34,2.48-.9,12.47-4.52,3.69-1.34-2.25-3.21-4.95-7.05-.9-1.28h0Z"/>
        </g>
        <polygon class="cls-1" points="280.77 529.51 276.25 537.16 262.69 533.33 272.02 516.29 280.77 522.55 280.77 529.51"/>
        <g>
          <polygon class="cls-1" points="254.55 488.56 255.75 506.41 240.56 515.37 254.55 488.56"/>
          <path class="cls-2" d="m253.41,493.98l.78,11.6-9.87,5.82,9.09-17.43m2.27-10.85l-4.93,9.46-9.09,17.43-4.85,9.3,9.04-5.33,9.87-5.82,1.59-.94-.12-1.85-.78-11.6-.72-10.65h0Z"/>
        </g>
        <g>
          <polygon class="cls-1" points="161.21 388.43 155.97 382.69 165.65 375.62 171.12 380.58 171.12 388.43 161.21 388.43"/>
          <path class="cls-2" d="m165.54,377.55l4.08,3.69v5.69h-7.75l-3.67-4.02,7.34-5.36m.2-3.86l-1.97,1.44-7.34,5.36-2.7,1.97,2.26,2.47,3.67,4.02.89.98h12.07v-10.02l-.99-.89-4.08-3.69-1.81-1.64h0Z"/>
        </g>
        <polygon class="cls-2" points="230.68 460.54 232.96 464.42 230.94 466.25 228.14 465.98 228.52 462.16 230.68 460.54"/>
        <polygon class="cls-2" points="215.28 498.15 216.99 493.98 219.67 494.49 221.14 496.89 217.87 498.9 215.28 498.15"/>
        <polygon class="cls-2" points="284.11 563 286.4 566.88 284.38 568.71 281.58 568.44 281.96 564.61 284.11 563"/>
        <polygon class="cls-2" points="198.51 618.25 200.22 614.09 202.9 614.59 204.37 616.99 201.1 619 198.51 618.25"/>
        <path class="cls-1" d="m733.07,581.31c-4.06-28.47-8.88-48.08-35.24-63.34-46.39-33.67-91.48-71.02-141.14-99.57-1.82-11.87-6.9-23.89,5.4-32.13,31.99-35.79,128.45-60.45,106.05-120.14-40.23-104.42-153.82,51.21-216.21,37.87-36.8-23.82.27-74.79,3.42-108.06,6.27-39.51-12.5-80.77-38.63-109.78-59.91-82.5-160.03-52.93-220.8,10.27-22.94,16.5-26.44,48.42-35.77,73.41-47.52,179.42,258.67,121.79,65.58,234.22l2.81,6.34c222.1-130.27-110.32-51.23-53.2-243.49,15.88-72.64,77.24-120.11,150.64-123.18,30.71-4.61,56.76,20.99,78.03,40.21,113.48,94.1-36.9,208.94,54,230.13,52.82-10,90.65-59.57,143.7-67.74,2.26,11.03-8.47,15.62-11.44,23.99,4.83,30.75,41.13.49,37.96,25.17-7.62,9.18-7.14,18.29-2.49,27.93,5.87,2.33,9.19.04,11.11-4.39-22.42-10.76,19.24-23.83-9.49-40.9-9.57-3.78-20.46.72-28.72-6.88,7.91-9.19,17.36-18.19,8.12-32.22,34.28-13.27,60.67,19.81,57.59,51.57-17.81,48.34-78.49,57.98-107.51,96.61-33.37,25.01,9.25,39.45,27.15,55.61,11.02,9.37,20.12,23.06,34.67,26.98,147.7,107.77,28.27,48.51,33.56,93.21,2.17,23.91-30.08-1.54-29.16,29.6-126.46-82.5-132.27-78.47-144.76,72.89-11.48.64-12.74,17.88-23.85,15.48-7.85-3.67-9.55-13.89-18.44-16.74-18.36-11-24.7,36.65-37.3,15.36-4.32-8.99-5.97-9.88-16.05-8.25-20.59-62.67-5.24-249.9-116.98-177.09l2.86,6.47c145.6-94.69,38.68,304.85,194.1,232.3,42.83-50.92,10.42-130.64,44.99-186.69,48.23,1.13,79.31,46.21,123.58,59.63,26.5,11.69,54.24,31.35,83.41,12.47,12.64-8.06,21.16-22.38,18.46-37.13Zm-256.41,92.72c-2.8,12.27-4.58,24.92-8.78,36.69-9.78,26.98-48.81,26.03-63.99,3.48-5.14-7.46-23.39-27.63-16.21-36.23,2.91,7.3,7.74,10.91,13.27,13.73,13.32,8.54,15-9.1,21.14-16.85,4.21-6.02,8.19-5.93,14.09-1.45,7.69,7.5,21.59,24.55,31.11,9.69,2.61-3.85,5.26-7.67,8.54-12.45.53,2.06.96,2.78.83,3.37Zm247.65-75.86c-12.91,19.71-38.85,22.45-59.67,13.63-11.58-6.27-37.73-10.04-34.02-27.65,5.62-9.75,31.41,9.95,30.17-15.53-1.54-9.33-6.22-20.57,7.83-20.51,14.24.32,27.74,6.47,30.41-13.65,8.22,4.09,14.76,8.27,18.64,16.83,5.4,14.35,17.22,32.47,6.63,46.88Z"/>
      </g>
    </g>
  </g>
</svg>