<svg width="250" height="52" viewBox="0 0 250 52" fill="none" xmlns="http://www.w3.org/2000/svg">
<path d="M75.931 40.8381C74.9735 40.8381 74.2006 40.0651 74.2006 39.1076V12.6091C74.2006 11.6516 74.9735 10.8787 75.931 10.8787C76.8885 10.8787 77.6614 11.6516 77.6614 12.6091V39.1076C77.6614 40.0651 76.8885 40.8381 75.931 40.8381Z" fill="#C40C2E"/>
<path d="M67.3137 36.6966C66.3562 36.6966 65.5833 35.9237 65.5833 34.9662V16.7622C65.5833 15.8047 66.3562 15.0317 67.3137 15.0317C68.2712 15.0317 69.0441 15.8047 69.0441 16.7622V34.9662C69.0441 35.9237 68.2712 36.6966 67.3137 36.6966Z" fill="#C40C2E"/>
<path d="M84.5487 36.6966C83.5912 36.6966 82.8182 35.9237 82.8182 34.9662V16.7622C82.8182 15.8047 83.5912 15.0317 84.5487 15.0317C85.5062 15.0317 86.2791 15.8047 86.2791 16.7622V34.9662C86.2791 35.9237 85.5062 36.6966 84.5487 36.6966Z" fill="#C40C2E"/>
<path d="M93.166 32.9704C92.2085 32.9704 91.4355 32.1975 91.4355 31.24V20.4768C91.4355 19.5193 92.2085 18.7463 93.166 18.7463C94.1235 18.7463 94.8964 19.5193 94.8964 20.4768V31.24C94.8964 32.1975 94.1235 32.9704 93.166 32.9704Z" fill="#C40C2E"/>
<path d="M231.035 40.8381C230.077 40.8381 229.304 40.0651 229.304 39.1076V12.6091C229.304 11.6516 230.077 10.8787 231.035 10.8787C231.992 10.8787 232.765 11.6516 232.765 12.6091V39.1076C232.765 40.0651 231.992 40.8381 231.035 40.8381Z" fill="#D9D9D9"/>
<path d="M222.417 36.6966C221.46 36.6966 220.687 35.9237 220.687 34.9662V16.7622C220.687 15.8047 221.46 15.0317 222.417 15.0317C223.375 15.0317 224.147 15.8047 224.147 16.7622V34.9662C224.147 35.9237 223.375 36.6966 222.417 36.6966Z" fill="#D9D9D9"/>
<path d="M239.652 36.6966C238.695 36.6966 237.922 35.9237 237.922 34.9662V16.7622C237.922 15.8047 238.695 15.0317 239.652 15.0317C240.61 15.0317 241.383 15.8047 241.383 16.7622V34.9662C241.383 35.9237 240.61 36.6966 239.652 36.6966Z" fill="#D9D9D9"/>
<path d="M248.27 32.9704C247.312 32.9704 246.539 32.1975 246.539 31.24V20.4768C246.539 19.5193 247.312 18.7463 248.27 18.7463C249.227 18.7463 250 19.5193 250 20.4768V31.24C250 32.1975 249.227 32.9704 248.27 32.9704Z" fill="#D9D9D9"/>
<path d="M101.784 36.3502C100.826 36.3502 100.053 35.5773 100.053 34.6198V17.0964C100.053 16.1389 100.826 15.366 101.784 15.366C102.741 15.366 103.514 16.1389 103.514 17.0964V34.6198C103.514 35.5773 102.741 36.3502 101.784 36.3502Z" fill="#C40C2E"/>
<path d="M110.401 40.1804C109.444 40.1804 108.671 39.4075 108.671 38.45V13.2666C108.671 12.3091 109.444 11.5361 110.401 11.5361C111.359 11.5361 112.132 12.3091 112.132 13.2666V38.45C112.132 39.4075 111.359 40.1804 110.401 40.1804Z" fill="#C40C2E"/>
<path d="M119.019 44.7719C118.061 44.7719 117.288 43.999 117.288 43.0415V8.67525C117.288 7.71775 118.061 6.94482 119.019 6.94482C119.976 6.94482 120.749 7.71775 120.749 8.67525V43.0299C120.749 43.9874 119.976 44.7604 119.019 44.7604V44.7719Z" fill="#C40C2E"/>
<path d="M127.636 40.3766C126.678 40.3766 125.905 39.6037 125.905 38.6462V13.0705C125.905 12.113 126.678 11.3401 127.636 11.3401C128.593 11.3401 129.366 12.113 129.366 13.0705V38.6462C129.366 39.6037 128.593 40.3766 127.636 40.3766Z" fill="#C40C2E"/>
<path d="M136.253 36.2581C135.296 36.2581 134.523 35.4852 134.523 34.5277V17.2004C134.523 16.2429 135.296 15.47 136.253 15.47C137.211 15.47 137.984 16.2429 137.984 17.2004V34.5277C137.984 35.4852 137.211 36.2581 136.253 36.2581Z" fill="#D9D9D9"/>
<path d="M144.872 34.0547C143.914 34.0547 143.141 33.2818 143.141 32.3243V19.4038C143.141 18.4463 143.914 17.6733 144.872 17.6733C145.829 17.6733 146.602 18.4463 146.602 19.4038V32.3243C146.602 33.2818 145.829 34.0547 144.872 34.0547Z" fill="#D9D9D9"/>
<path d="M153.488 40.665C152.531 40.665 151.758 39.8921 151.758 38.9346V12.7937C151.758 11.8362 152.531 11.0632 153.488 11.0632C154.446 11.0632 155.219 11.8362 155.219 12.7937V38.9346C155.219 39.8921 154.446 40.665 153.488 40.665Z" fill="#D9D9D9"/>
<path d="M187.947 40.665C186.99 40.665 186.217 39.8921 186.217 38.9346V12.7937C186.217 11.8362 186.99 11.0632 187.947 11.0632C188.905 11.0632 189.678 11.8362 189.678 12.7937V38.9346C189.678 39.8921 188.905 40.665 187.947 40.665Z" fill="#D9D9D9"/>
<path d="M162.106 44.7719C161.149 44.7719 160.376 43.999 160.376 43.0415V8.67525C160.376 7.71775 161.149 6.94482 162.106 6.94482C163.064 6.94482 163.836 7.71775 163.836 8.67525V43.0299C163.836 43.9874 163.064 44.7604 162.106 44.7604V44.7719Z" fill="#D9D9D9"/>
<path d="M170.712 51.7166C169.754 51.7166 168.982 50.9437 168.982 49.9862V1.73042C168.982 0.772923 169.754 0 170.712 0C171.669 0 172.442 0.772923 172.442 1.73042V49.9862C172.442 50.9437 171.669 51.7166 170.712 51.7166Z" fill="#D9D9D9"/>
<path d="M179.329 44.7719C178.372 44.7719 177.599 43.999 177.599 43.0415V8.67525C177.599 7.71775 178.372 6.94482 179.329 6.94482C180.287 6.94482 181.06 7.71775 181.06 8.67525V43.0299C181.06 43.9874 180.287 44.7604 179.329 44.7604V44.7719Z" fill="#D9D9D9"/>
<path d="M196.564 34.0547C195.607 34.0547 194.834 33.2818 194.834 32.3243V19.4038C194.834 18.4463 195.607 17.6733 196.564 17.6733C197.522 17.6733 198.295 18.4463 198.295 19.4038V32.3243C198.295 33.2818 197.522 34.0547 196.564 34.0547Z" fill="#D9D9D9"/>
<path d="M213.8 34.0547C212.842 34.0547 212.069 33.2818 212.069 32.3243V19.4038C212.069 18.4463 212.842 17.6733 213.8 17.6733C214.757 17.6733 215.53 18.4463 215.53 19.4038V32.3243C215.53 33.2818 214.757 34.0547 213.8 34.0547Z" fill="#D9D9D9"/>
<path d="M205.182 31.8974C204.225 31.8974 203.452 31.1245 203.452 30.167V21.561C203.452 20.6035 204.225 19.8306 205.182 19.8306C206.14 19.8306 206.913 20.6035 206.913 21.561V30.167C206.913 31.1245 206.14 31.8974 205.182 31.8974Z" fill="#D9D9D9"/>
<path d="M58.696 34.0547C57.7385 34.0547 56.9656 33.2818 56.9656 32.3243V19.4038C56.9656 18.4463 57.7385 17.6733 58.696 17.6733C59.6535 17.6733 60.4264 18.4463 60.4264 19.4038V32.3243C60.4264 33.2818 59.6535 34.0547 58.696 34.0547Z" fill="#C40C2E"/>
<path d="M48.3903 25.5987C48.3903 38.8232 37.6697 49.5438 24.4451 49.5438C11.2206 49.5438 0.5 38.8232 0.5 25.5987C0.5 12.3742 11.2206 1.65356 24.4451 1.65356C37.6697 1.65356 48.3903 12.3742 48.3903 25.5987Z" stroke="#C40C2E"/>
<path d="M33.6786 22.8844L33.678 22.884L27.5061 19.3194L21.3349 15.7551C21.3348 15.755 21.3347 15.7549 21.3346 15.7549C20.0634 15.0236 18.4735 15.9384 18.4735 17.4098V24.5276V24.5507V31.6685C18.4735 33.1397 20.0631 34.0545 21.3343 33.3235L33.6786 22.8844ZM33.6786 22.8844C34.9457 23.6137 34.9509 25.4516 33.6772 26.1946C33.6769 26.1948 33.6766 26.195 33.6763 26.1952L27.5061 29.7589L21.3349 33.3232L33.6786 22.8844Z" stroke="#C40C2E"/>
</svg>
