<svg width="375" height="18" viewBox="0 0 375 18" fill="none" xmlns="http://www.w3.org/2000/svg">
<path d="M-13.2034 0.732358C-13.0832 0.299538 -12.6891 0 -12.2399 0H27.6844C28.3457 0 28.8249 0.630448 28.6479 1.26764L24.2034 17.2676C24.0832 17.7005 23.6891 18 23.2399 18H-16.6844C-17.3457 18 -17.8249 17.3696 -17.6479 16.7324L-13.2034 0.732358Z" fill="#C40C2E"/>
<path d="M90.7966 0.732358C90.9168 0.299538 91.3109 0 91.7601 0H131.684C132.346 0 132.825 0.630448 132.648 1.26764L128.203 17.2676C128.083 17.7005 127.689 18 127.24 18H87.3156C86.6543 18 86.1751 17.3696 86.3521 16.7324L90.7966 0.732358Z" fill="#C40C2E"/>
<path d="M194.797 0.732358C194.917 0.299538 195.311 0 195.76 0H235.684C236.346 0 236.825 0.630448 236.648 1.26764L232.203 17.2676C232.083 17.7005 231.689 18 231.24 18H191.316C190.654 18 190.175 17.3696 190.352 16.7324L194.797 0.732358Z" fill="#C40C2E"/>
<path d="M298.797 0.732358C298.917 0.299538 299.311 0 299.76 0H339.684C340.346 0 340.825 0.630448 340.648 1.26764L336.203 17.2676C336.083 17.7005 335.689 18 335.24 18H295.316C294.654 18 294.175 17.3696 294.352 16.7324L298.797 0.732358Z" fill="#C40C2E"/>
<path d="M38.7966 0.732358C38.9168 0.299538 39.3109 0 39.7601 0H79.6844C80.3457 0 80.8249 0.630448 80.6479 1.26764L76.2034 17.2676C76.0832 17.7005 75.6891 18 75.2399 18H35.3156C34.6543 18 34.1751 17.3696 34.3521 16.7324L38.7966 0.732358Z" fill="#2CA4B7"/>
<path d="M142.797 0.732358C142.917 0.299538 143.311 0 143.76 0H183.684C184.346 0 184.825 0.630448 184.648 1.26764L180.203 17.2676C180.083 17.7005 179.689 18 179.24 18H139.316C138.654 18 138.175 17.3696 138.352 16.7324L142.797 0.732358Z" fill="#2CA4B7"/>
<path d="M246.797 0.732358C246.917 0.299538 247.311 0 247.76 0H287.684C288.346 0 288.825 0.630448 288.648 1.26764L284.203 17.2676C284.083 17.7005 283.689 18 283.24 18H243.316C242.654 18 242.175 17.3696 242.352 16.7324L246.797 0.732358Z" fill="#2CA4B7"/>
<path d="M350.797 0.732358C350.917 0.299538 351.311 0 351.76 0H391.684C392.346 0 392.825 0.630448 392.648 1.26764L388.203 17.2676C388.083 17.7005 387.689 18 387.24 18H347.316C346.654 18 346.175 17.3696 346.352 16.7324L350.797 0.732358Z" fill="#2CA4B7"/>
</svg>
