<svg width="287" height="157" viewBox="0 0 287 157" fill="none" xmlns="http://www.w3.org/2000/svg">
<path d="M166.425 78.7121C163.242 73.6747 160.07 68.6483 156.888 63.6109C156.438 62.9085 155.999 62.1951 155.549 61.4927C155.187 60.922 153.211 61.7122 153.431 62.0634C156.613 67.1008 159.785 72.1272 162.968 77.1646C163.418 77.867 163.857 78.5804 164.307 79.2828C164.669 79.8534 166.644 79.0633 166.425 78.7121Z" fill="#C40C2E"/>
<path fill-rule="evenodd" clip-rule="evenodd" d="M283.338 71.5235C284.194 70.2504 284.875 70.5028 285.742 69.1639C285.226 71.1284 286.762 69.2408 286.872 69.2298C287.158 70.6236 286.96 72.5551 286.455 74.794C285.753 76.1768 284.974 77.4828 284.161 78.7888C283.316 80.0728 282.416 81.3459 281.571 82.7287C277.73 88.7428 273.318 95.4704 267.348 100.387C266.679 100.903 265.987 101.43 265.285 101.967C264.934 102.242 264.582 102.516 264.231 102.79C263.858 103.043 263.485 103.295 263.101 103.548C262.344 104.053 261.575 104.568 260.807 105.095C259.995 105.556 259.172 106.017 258.349 106.478C257.932 106.708 257.526 106.95 257.109 107.169L255.814 107.751C254.947 108.124 254.091 108.552 253.202 108.881C251.402 109.463 249.635 110.144 247.824 110.451C245.651 111 243.478 110.857 241.305 111.054C240.142 111.054 238.935 111.054 237.716 111.065C237.102 111.087 236.487 111.043 235.873 111.011C235.258 110.978 234.632 110.945 234.018 110.868C231.538 110.637 229.068 110.166 226.796 109.474C222.78 108.278 219.202 106.346 215.932 104.206C212.65 102.066 209.665 99.6956 206.482 97.7311C203.311 95.7557 199.843 94.2741 196.056 94.0436C194.169 93.9229 192.226 94.0546 190.273 94.4717C188.352 94.8558 186.453 95.5581 184.632 96.5678C183.83 97.0068 182.876 97.775 182.085 98.3018C180.725 99.2018 179.232 99.97 177.827 101.111C174.875 103.504 172.044 106.434 169.015 109.134C166.007 111.823 162.682 114.303 159.115 115.565C157.963 115.96 156.942 116.333 155.878 116.191C154.44 117.014 152.004 116.948 149.82 116.717C145.485 116.311 140.634 114.544 138.066 112.624C135.311 111.845 132.063 109.792 128.803 107.136C125.544 104.47 122.251 101.221 118.948 98.1701C116.819 96.2166 114.635 94.2192 112.034 91.5304C108.719 88.0953 104.955 84.4298 101.674 81.6422C98.7983 79.1729 96.0656 76.6158 93.7389 75.1452C92.8829 74.5745 91.4452 73.455 90.8526 73.8392C86.5285 70.5577 80.8985 68.4945 74.3795 69.12C71.998 69.3395 69.5287 69.9322 67.1911 70.876C64.8534 71.8198 62.6585 73.1039 60.7489 74.5196C57.237 77.1096 53.9994 80.6545 51.4094 83.8701C49.3023 86.4491 47.4036 89.1818 45.9111 91.4975C42.8601 96.3593 42.1138 98.7847 38.6239 101.77C35.5839 104.426 35.3644 103.537 35.507 100.288C36.5606 98.2909 37.4386 96.7105 38.7775 94.735C39.5238 93.6815 40.4896 92.6828 41.2797 91.5743C42.3772 90.0818 43.2991 88.3697 44.4405 86.8881C47.7987 82.3885 52.013 77.7242 56.7541 73.916C59.6844 71.5784 62.9658 69.4383 66.7301 68.0445C70.4506 66.5958 74.6648 66.0471 78.7804 66.5849C82.8959 67.1556 86.8029 68.7579 90.3587 70.854C93.9255 72.9612 97.2179 75.5183 100.401 78.2291C110.333 86.7235 118.641 97.1056 128.726 105.106C132.414 108.036 136.387 110.572 140.601 112.448C142.708 113.381 144.87 114.149 147.087 114.698C149.271 115.247 151.499 115.444 153.716 115.225C157.48 114.874 160.915 113.195 164.153 110.901C167.412 108.607 170.496 105.655 174.173 102.395C177.037 99.8712 180.055 97.3031 183.578 95.3387C185.334 94.3619 187.222 93.5717 189.208 93.0888C191.184 92.6279 193.214 92.3645 195.266 92.3865C196.649 92.3865 198.054 92.595 199.447 92.9023C200.83 93.2535 202.18 93.7254 203.486 94.318C206.076 95.5252 208.403 97.0946 210.576 98.6311C212.749 100.157 214.79 101.627 216.733 102.79C218.675 103.954 220.508 104.799 222.088 105.271C222.527 105.655 222.154 105.984 223.669 106.467C226.786 107.641 230.045 108.552 233.458 108.991C234.314 109.09 235.17 109.2 236.037 109.233C236.904 109.309 237.771 109.299 238.649 109.277L241.272 109.222L243.884 108.892C249.251 108.102 254.442 105.984 258.963 103.131C264.67 99.52 268.885 94.5595 272.583 89.5769C273.45 88.4904 274.098 87.4259 274.756 86.4382C275.085 85.9443 275.404 85.4504 275.722 84.9675C276.029 84.4627 276.314 83.9469 276.611 83.4091C277.017 82.6958 277.675 81.8068 278.059 81.1154C278.619 80.007 278.872 78.9314 279.453 77.8779C280.002 76.9231 280.638 75.9573 281.231 74.9915C281.813 74.0257 282.383 73.0709 282.614 72.0613C282.833 73.038 283.272 72.4015 283.305 71.5235H283.338Z" fill="#C40C2E"/>
<path d="M51.6182 48.6192H51.278C51.3987 48.1473 51.4207 47.6315 51.278 47.1267C49.6867 40.7504 46.1199 34.8569 41.1922 30.5109C35.8585 25.8247 29.131 23.092 22.0633 22.6201C21.2731 29.6 21.328 36.8104 23.6327 43.4172C25.9374 50.046 30.7333 56.0601 37.2852 58.5623C42.7946 63.49 46.8772 68.6152 50.4988 74.4867C51.6731 76.4072 54.1973 77.0767 56.1398 75.9683C57.7421 75.0683 59.2018 73.8721 60.5956 72.61C62.1649 71.1833 62.4832 68.8347 61.3528 67.0678C57.4787 61.1085 54.0766 55.5223 51.5963 48.6083L51.6182 48.6192Z" fill="white"/>
<path d="M52.0681 48.1583H51.7279C51.9254 48.2571 52.123 48.3449 52.3205 48.4436C52.6168 46.7206 51.8376 44.8878 51.234 43.2855C50.5865 41.5735 49.8073 39.9163 48.8854 38.3359C47.1514 35.3398 44.9345 32.5961 42.3445 30.2914C36.912 25.4516 29.965 22.7079 22.7436 22.1701C22.2936 22.1372 21.0645 22.3238 20.9986 22.9054C20.1536 30.5 20.2414 38.5005 23.3143 45.6341C24.5544 48.5205 26.2665 51.2202 28.4175 53.5249C29.4931 54.6773 30.6674 55.7199 31.9624 56.6308C33.2574 57.5417 34.6512 58.1124 36.034 58.8477C37.5375 59.6488 38.9204 61.3828 40.0837 62.601C41.3567 63.929 42.5859 65.3008 43.7383 66.7275C44.8906 68.1542 45.9222 69.5151 46.9319 70.9747C47.9416 72.4344 48.7208 74.0038 49.8183 75.3207C51.5303 77.395 54.5484 77.3072 56.7543 76.1548C58.1042 75.4415 59.3333 74.4867 60.4967 73.4989C61.66 72.5112 62.8014 71.4467 63.0318 69.8114C63.3062 67.9786 62.2965 66.6507 61.3637 65.1911C60.2662 63.468 59.1797 61.734 58.1591 59.9671C55.997 56.2467 54.1204 52.3836 52.6497 48.3449C52.4522 47.8071 50.356 48.4436 50.5316 48.9155C52.8144 55.2041 56.1397 60.9548 59.7614 66.5629C60.6064 67.8689 61.243 69.109 60.8149 70.7113C60.3869 72.3137 58.8944 73.4111 57.6103 74.3879C56.1507 75.5073 54.691 76.6157 52.8692 75.5183C51.5632 74.7281 50.8718 73.1368 50.0487 71.9076C48.3586 69.3615 46.5258 66.9141 44.5394 64.5984C43.4749 63.3693 42.3774 62.173 41.2251 61.0316C40.2154 60.022 39.063 58.5623 37.7351 58.0026C32.116 55.654 27.9127 50.7812 25.4983 45.2719C22.3485 38.0945 22.2498 30.0171 23.0948 22.3457L21.3498 23.081C28.3627 23.5969 35.0682 26.3405 40.3251 31.0267C42.8603 33.2875 45.0223 35.9654 46.7344 38.9066C47.5465 40.3004 48.2489 41.749 48.8415 43.2416C49.489 44.8659 50.4987 47.0389 50.1914 48.8058C50.1365 49.1131 50.5975 49.0802 50.784 49.0802H51.1243C51.7279 49.0692 53.4289 48.1473 52.0242 48.1693L52.0681 48.1583Z" fill="white"/>
<path d="M52.6277 49.6728C53.824 47.9827 53.3301 46.3365 52.7375 44.5037C52.1448 42.6709 51.4095 40.9369 50.5206 39.2578C48.8195 36.0312 46.5806 33.079 43.9248 30.5768C38.3276 25.298 30.9965 22.3677 23.3691 21.808C22.5131 21.7421 19.9999 22.1372 19.8791 23.2457C18.9243 31.8608 19.2097 41.0467 23.5776 48.7729C25.3994 51.9885 27.8687 54.9078 30.8978 57.0369C32.2367 57.9807 34.0146 59.2099 35.6608 59.4732C37.4716 59.7696 39.9848 58.6501 41.631 57.9807C45.8563 56.2467 49.5658 53.4371 52.4521 49.8923C53.0228 49.1899 51.9363 49.157 51.4424 49.1899C50.6413 49.2338 49.1597 49.5192 48.611 50.2106C45.8453 53.6127 42.0261 56.9161 37.6143 57.838L38.9642 57.8051C32.983 55.4345 28.5711 50.1447 26.2006 44.2733C23.3691 37.2714 23.3032 29.5122 24.1263 22.1153L20.6364 23.553C27.8358 24.0798 34.684 27.0759 39.9409 32.0255C42.509 34.4399 44.6381 37.2824 46.2843 40.3882C47.1074 41.9356 47.7988 43.5599 48.3585 45.2171C48.9622 47.0169 49.6316 48.718 48.4354 50.4081C47.9854 51.0447 49.9828 50.8581 50.1364 50.8252C50.9596 50.6825 52.1009 50.3862 52.6167 49.6618L52.6277 49.6728Z" fill="#C40C2E"/>
<path d="M36.2424 59.0232C39.5348 61.9864 42.5638 65.224 45.2416 68.7578C46.5147 70.4369 47.7219 72.1819 48.8523 73.9598C49.8181 75.4853 50.7948 76.6925 52.6715 77.0218C54.2519 77.2962 55.7993 76.8572 57.1492 76.056C58.8064 75.0793 60.5404 73.8172 61.8244 72.3795C64.8425 68.9883 61.3525 65.3337 59.5307 62.3595C56.809 57.9148 54.4055 53.3054 52.6166 48.3997C52.3752 47.7193 50.2681 48.3448 50.4985 48.9704C52.1777 53.6017 54.4165 57.9806 56.9517 62.1949C57.5443 63.1717 58.1479 64.1484 58.7625 65.1142C59.432 66.1788 60.3538 67.2653 60.7379 68.4615C61.5171 70.9637 59.7283 72.6319 57.9284 74.0586C56.9736 74.8159 55.7225 75.9792 54.4494 76.0011C53.4727 76.0231 52.4959 75.4304 51.8704 74.7281C51.1131 73.883 50.5863 72.7746 49.9498 71.8307C49.2803 70.8211 48.5999 69.8333 47.8865 68.8676C45.0441 64.9935 41.7846 61.4486 38.2178 58.2331C37.702 57.7721 35.7265 58.5733 36.2424 59.0342V59.0232Z" fill="#C40C2E"/>
<path d="M60.1568 69.5919C57.4789 69.1309 54.8011 68.7139 52.1233 68.2529C51.3221 68.1212 50.3234 68.3298 49.61 68.681C49.0064 68.9773 48.2382 69.5589 47.9858 70.2284C47.7553 70.821 47.7004 71.5234 48.1285 72.0612C48.5894 72.6319 49.2369 72.8952 49.9503 73.0269C52.6281 73.4879 55.3059 73.9049 57.9838 74.3659C58.7849 74.4976 59.7836 74.289 60.497 73.9378C61.1006 73.6415 61.8688 73.0599 62.1212 72.3904C62.3517 71.7978 62.4066 71.0954 61.9786 70.5576C61.5176 69.9869 60.8701 69.7236 60.1568 69.5919Z" fill="#C40C2E"/>
<path d="M58.719 63.6986C56.8642 63.3474 55.0095 63.0071 53.1328 62.8425C51.2562 62.6779 49.3685 62.5572 47.4918 62.3596C46.6797 62.2718 45.7249 62.4694 44.9896 62.8206C44.4079 63.0949 43.6177 63.6217 43.3324 64.2473C42.6959 65.663 43.8921 66.5191 45.1981 66.6617C47.0748 66.8593 48.9624 66.98 50.8391 67.1446C52.7158 67.3092 54.5705 67.6495 56.4253 68.0006C57.1825 68.1433 58.258 67.858 58.9275 67.5397C59.5091 67.2653 60.2993 66.7386 60.5847 66.113C60.8151 65.5972 60.9139 64.9716 60.4969 64.4997C60.025 63.9619 59.3884 63.8302 58.719 63.6986Z" fill="#C40C2E"/>
<path d="M54.5375 58.0466C50.2902 57.882 46.043 57.5198 41.7958 57.3552C40.424 57.3003 38.4266 57.871 37.5815 59.0343C36.6925 60.2525 38.3497 60.6366 39.2387 60.6695C43.4859 60.8342 47.7331 61.1963 51.9803 61.361C53.3522 61.4158 55.3496 60.8451 56.1946 59.6818C57.0836 58.4636 55.4264 58.0795 54.5375 58.0466Z" fill="#C40C2E"/>
<path d="M29.1418 18.6143C29.3723 15.0805 29.6028 11.5466 29.8332 8.01276L29.932 6.48728C29.9978 5.55443 27.8578 5.93854 27.8029 6.71775C27.5724 10.2516 27.342 13.7855 27.1115 17.3193L27.0127 18.8448C26.9469 19.7777 29.0869 19.3936 29.1418 18.6143Z" fill="#C40C2E"/>
<path d="M37.5815 20.1289C40.2703 14.3123 42.9591 8.50666 45.6369 2.69005C46.021 1.86695 46.3942 1.04384 46.7783 0.220739C46.9649 -0.185326 44.9455 -0.0097306 44.6821 0.57193C41.9933 6.38853 39.3045 12.1942 36.6267 18.0108C36.2426 18.8339 35.8694 19.657 35.4853 20.4801C35.2987 20.8861 37.3181 20.7106 37.5815 20.1289Z" fill="#C40C2E"/>
<path d="M46.317 27.3943C49.7191 25.8578 53.1213 24.3323 56.5344 22.7958C57.0173 22.5764 57.5112 22.3569 57.9941 22.1374C58.2465 22.0276 58.6526 21.7203 58.2465 21.5447C57.8404 21.3691 57.1381 21.6325 56.7649 21.8081C53.3628 23.3446 49.9606 24.8701 46.5474 26.4065C46.0646 26.626 45.5707 26.8455 45.0878 27.065C44.8354 27.1748 44.4293 27.4821 44.8354 27.6576C45.2415 27.8332 45.9438 27.5698 46.317 27.3943Z" fill="#C40C2E"/>
<path d="M16.9929 29.5231C12.5371 28.8427 8.07043 28.1732 3.61469 27.4928C2.97816 27.394 2.3526 27.2952 1.71606 27.2074C1.24415 27.1306 0.585668 27.3062 0.212527 27.6135C-0.116714 27.8769 -0.0618408 28.1293 0.366173 28.1952C4.82191 28.8756 9.28862 29.5451 13.7444 30.2255C14.3809 30.3243 15.0065 30.423 15.643 30.5108C16.1149 30.5877 16.7734 30.4121 17.1465 30.1048C17.4758 29.8414 17.4209 29.589 16.9929 29.5231Z" fill="#C40C2E"/>
<path d="M16.8614 39.0273C14.6006 39.4992 12.3288 39.9601 10.068 40.432C9.74974 40.4979 9.4205 40.5637 9.10223 40.6296C8.82786 40.6845 8.5535 40.7613 8.2901 40.882C8.19133 40.9259 7.88404 41.0686 7.85111 41.2113C7.76332 41.5734 8.54252 41.4527 8.69617 41.4198C10.957 40.9479 13.2287 40.4869 15.4895 40.015C15.8078 39.9492 16.137 39.8833 16.4553 39.8175C16.7297 39.7626 17.004 39.6858 17.2674 39.565C17.3662 39.5211 17.6735 39.3785 17.7064 39.2358C17.7942 38.8736 17.015 38.9944 16.8614 39.0273Z" fill="#C40C2E"/>
<path d="M18.0905 48.9048C13.7994 51.8131 9.49733 54.7214 5.20622 57.6406C4.60261 58.0467 3.999 58.4638 3.38441 58.8698C3.08809 59.0674 2.76983 59.4295 3.19784 59.6819C3.59293 59.9124 4.35019 59.7149 4.70138 59.4844C8.9925 56.5761 13.2946 53.6678 17.5857 50.7485C18.1893 50.3425 18.7929 49.9254 19.4075 49.5194C19.7038 49.3218 20.0221 48.9596 19.5941 48.7072C19.199 48.4768 18.4417 48.6743 18.0905 48.9048Z" fill="#C40C2E"/>
<path d="M30.3931 38.347C29.1968 34.9888 28.5164 31.4659 28.4176 27.8991C28.3957 27.2625 26.2775 27.6686 26.2995 28.4698C26.3983 32.0366 27.0787 35.5594 28.2749 38.9177C28.5274 39.6311 30.6345 39.0165 30.3931 38.347Z" fill="#C40C2E"/>
<path d="M38.7118 51.1434C35.6937 48.257 33.2573 44.8329 31.4904 41.0466C31.1721 40.3662 29.1089 41.0466 29.3723 41.6173C31.1721 45.4804 33.6524 49.0033 36.7363 51.9445C37.2302 52.4165 39.2276 51.6263 38.7118 51.1434Z" fill="#C40C2E"/>
<path d="M226.445 86.1419L226.72 86.098C226.555 85.7249 226.467 85.3188 226.5 84.8908C226.851 79.5461 228.871 74.3002 232.207 70.1078C235.818 65.5862 240.811 62.4255 246.408 61.0317C248.044 66.5081 249.042 72.3028 248.142 77.9438C247.242 83.5958 244.268 89.1051 239.374 92.0573C235.664 96.8093 233.129 101.496 231.066 106.73C230.396 108.443 228.476 109.342 226.753 108.739C225.337 108.245 223.998 107.499 222.692 106.687C221.221 105.765 220.629 103.932 221.287 102.352C223.537 97.0179 225.458 92.0463 226.456 86.1419H226.445Z" fill="white"/>
<path d="M226.292 86.493L226.566 86.4491C226.698 86.4272 227.696 86.1967 227.587 85.8784C227.104 84.5505 227.51 82.9262 227.762 81.5763C228.015 80.2265 228.388 78.8875 228.849 77.5925C229.815 74.8927 231.197 72.3246 232.986 70.0858C236.41 65.7727 241.162 62.7218 246.485 61.3499L245.541 61.2841C248.417 71.0296 249.229 83.442 240.614 90.6744C239.681 91.4536 238.715 91.9475 237.98 92.9132C237.244 93.879 236.498 94.9326 235.818 95.9752C234.413 98.1043 233.162 100.343 232.053 102.637C231.527 103.745 231.022 104.876 230.561 106.017C229.968 107.466 229.398 108.849 227.455 108.399C226.127 108.091 224.624 107.169 223.504 106.401C222.461 105.677 221.803 104.546 221.891 103.262C221.99 101.847 222.922 100.365 223.449 99.0591C223.976 97.7531 224.492 96.3812 224.964 95.0204C225.984 92.0792 226.775 89.083 227.312 86.0211C227.389 85.5821 225.677 85.8675 225.6 86.3064C225.063 89.3684 224.272 92.3645 223.252 95.3057C222.78 96.6666 222.264 98.0165 221.737 99.3444C221.21 100.672 220.42 101.978 220.212 103.339C219.751 106.291 222.769 107.707 225.008 108.684C226.807 109.463 228.728 109.54 230.418 108.41C231.263 107.839 231.702 107.093 232.086 106.171C232.679 104.744 233.283 103.328 233.963 101.945C235.258 99.2895 236.762 96.7215 238.463 94.307C239.044 93.4839 239.604 92.5401 240.394 91.9036C240.822 91.5524 241.305 91.278 241.744 90.9378C242.765 90.1366 243.676 89.2148 244.499 88.2051C246.101 86.2187 247.308 83.9249 248.109 81.4995C250.337 74.7501 249.24 67.4958 247.275 60.8231C247.188 60.5378 246.485 60.7244 246.332 60.7573C240.789 62.184 235.708 65.1472 231.966 69.5151C230.012 71.7979 228.465 74.4318 227.378 77.2304C226.797 78.7339 226.358 80.2813 226.05 81.8617C225.787 83.2445 225.359 84.9895 225.853 86.3394L226.873 85.7687L226.599 85.8126C225.886 85.9333 225.073 86.7015 226.292 86.504V86.493Z" fill="white"/>
<path d="M229.145 86.537C227.971 85.3627 228.278 83.8372 228.509 82.3446C228.739 80.8521 229.068 79.4802 229.529 78.0974C230.407 75.4086 231.713 72.8405 233.403 70.5688C236.652 66.1899 241.316 62.9743 246.606 61.6134L244.729 61.5366C247.747 71.7431 248.439 85.5932 238.101 92.0463L240.548 91.3878C236.29 91.2561 232.339 89.2697 229.145 86.548C228.443 85.9444 225.359 87.2723 225.886 87.7332C229.123 90.4989 233.14 92.4414 237.42 92.7706C241.272 93.067 244.455 89.588 246.452 86.6358C251.654 78.8986 250.7 69.1201 248.186 60.6147C248.033 60.0879 246.584 60.472 246.31 60.5379C240.23 62.1073 234.644 65.3558 230.693 70.2834C228.629 72.8515 227.049 75.7927 226.05 78.9425C225.578 80.4241 225.238 81.9605 225.03 83.497C224.799 85.1542 224.646 86.4821 225.897 87.7332C226.522 88.3698 229.694 87.0967 229.156 86.548L229.145 86.537Z" fill="#C40C2E"/>
<path d="M238.638 92.1233C236.257 95.1853 234.172 98.4558 232.449 101.935C231.604 103.636 231.011 105.491 230.144 107.17C229.672 108.07 228.849 108.717 227.795 108.487C226.742 108.256 225.721 107.664 224.81 107.159C223.252 106.281 221.737 105.172 221.957 103.164C222.067 102.198 222.615 101.254 222.988 100.365C223.362 99.4764 223.691 98.6204 224.031 97.7424C225.491 93.9451 226.676 90.0711 227.367 86.0543C227.455 85.5385 225.743 85.8348 225.655 86.3287C225.019 90.0052 223.976 93.583 222.67 97.0839C222.034 98.785 221.342 100.464 220.651 102.154C220.124 103.438 220.025 104.744 220.826 105.951C221.682 107.236 223.405 107.982 224.766 108.607C226.127 109.233 227.323 109.573 228.761 109.211C231.9 108.432 232.438 105.304 233.656 102.725C235.434 98.9386 237.651 95.3828 240.208 92.0794C240.603 91.5746 238.913 91.7721 238.627 92.1453L238.638 92.1233Z" fill="#C40C2E"/>
<path d="M224.316 107.795C226.402 107.038 228.487 106.313 230.572 105.567C231.209 105.337 231.823 105.084 232.262 104.535C232.569 104.151 232.844 103.537 232.668 103.032C232.273 101.858 230.66 101.495 229.584 101.88C227.499 102.637 225.414 103.361 223.329 104.107C222.692 104.338 222.078 104.59 221.639 105.139C221.331 105.523 221.057 106.138 221.233 106.643C221.628 107.817 223.241 108.179 224.316 107.795Z" fill="#C40C2E"/>
<path d="M225.249 102.187C225.754 101.989 226.259 101.803 226.775 101.616C227.258 101.441 226.105 101.858 226.555 101.693C226.654 101.66 226.764 101.616 226.863 101.583C227.016 101.528 227.17 101.473 227.335 101.419C227.872 101.232 228.421 101.067 228.97 100.925C230.44 100.53 231.922 100.157 233.393 99.7395C234.007 99.5639 234.666 99.2566 235.094 98.7737C235.39 98.4554 235.708 97.8847 235.544 97.4238C235.138 96.2605 233.491 96.2166 232.515 96.5019C231.022 96.9299 229.519 97.3031 228.026 97.7091C226.325 98.1701 224.668 98.8066 223.022 99.4322C222.187 99.7504 220.936 100.991 221.748 101.912C222.626 102.9 224.174 102.593 225.238 102.187H225.249Z" fill="#C40C2E"/>
<path d="M227.027 96.425C230.418 95.6788 233.766 94.7788 237.146 94.0326C237.717 93.9118 238.43 93.5826 238.891 93.1985C239.154 92.979 239.538 92.5729 239.429 92.1778C239.154 91.1572 237.146 91.5852 236.531 91.7169C233.14 92.4632 229.793 93.3631 226.413 94.1094C225.842 94.2301 225.129 94.5593 224.668 94.9435C224.404 95.163 224.02 95.569 224.13 95.9641C224.404 96.9848 226.413 96.5567 227.027 96.425Z" fill="#C40C2E"/>
<path d="M241.887 58.5513C241.185 55.7418 240.493 52.9323 239.791 50.1227C239.692 49.7277 239.593 49.3326 239.495 48.9375C239.396 48.5424 237.662 48.9814 237.772 49.3984C238.474 52.2079 239.165 55.0175 239.868 57.827C239.967 58.2221 240.065 58.6172 240.164 59.0123C240.263 59.4074 241.997 58.9684 241.887 58.5513Z" fill="#C40C2E"/>
<path d="M235.28 60.944C232.284 56.6639 229.299 52.3947 226.303 48.1146C225.875 47.5109 225.458 46.9073 225.03 46.3037C224.745 45.8977 223.076 46.4464 223.417 46.9403C226.413 51.2204 229.398 55.4896 232.394 59.7697C232.822 60.3733 233.239 60.9769 233.667 61.5805C233.952 61.9866 235.621 61.4379 235.28 60.944Z" fill="#C40C2E"/>
<path d="M228.816 67.8031C225.853 67.0568 222.901 66.3215 219.938 65.5752L218.686 65.2679C218.313 65.1692 217.819 65.3228 217.479 65.4874C217.326 65.5642 216.887 65.8496 217.271 65.9484C220.234 66.6946 223.186 67.4299 226.149 68.1762L227.4 68.4835C227.774 68.5823 228.267 68.4286 228.608 68.264C228.761 68.1872 229.2 67.9019 228.816 67.8031Z" fill="#C40C2E"/>
<path d="M252.39 66.4094C255.869 65.2241 259.348 64.0388 262.827 62.8536C263.32 62.6889 263.814 62.5133 264.308 62.3487C264.506 62.2829 265.011 62.0414 264.802 61.7671C264.594 61.4927 263.902 61.7451 263.672 61.811C260.193 62.9962 256.714 64.1815 253.235 65.3668C252.741 65.5314 252.247 65.707 251.753 65.8716C251.556 65.9375 251.051 66.1789 251.259 66.4533C251.468 66.7276 252.159 66.4752 252.39 66.4094Z" fill="#C40C2E"/>
<path d="M252.818 74.2453C254.695 74.2892 256.582 74.344 258.459 74.3879L259.271 74.4099C259.655 74.4099 260.193 74.2782 260.412 73.927C260.632 73.5758 260.226 73.4002 259.941 73.4002C258.064 73.3563 256.176 73.3014 254.3 73.2575L253.487 73.2356C253.103 73.2356 252.566 73.3673 252.346 73.7185C252.127 74.0697 252.533 74.2453 252.818 74.2453Z" fill="#C40C2E"/>
<path d="M252.192 82.2458C256.055 83.9579 259.907 85.6699 263.77 87.382C264.319 87.6234 264.879 87.8758 265.428 88.1173C265.768 88.2709 266.339 88.0734 266.635 87.9088C266.843 87.799 267.184 87.5576 266.832 87.4039C262.969 85.6919 259.117 83.9798 255.254 82.2678C254.705 82.0263 254.146 81.7739 253.597 81.5325C253.257 81.3788 252.686 81.5764 252.39 81.741C252.181 81.8507 251.841 82.0922 252.192 82.2458Z" fill="#C40C2E"/>
<path d="M243.752 74.8598C244.235 71.9296 244.257 68.9554 243.818 66.0252C243.698 65.213 241.964 65.6411 242.095 66.4861C242.523 69.3066 242.468 72.171 242.007 74.9806C241.865 75.8585 243.632 75.65 243.763 74.8598H243.752Z" fill="#C40C2E"/>
<path d="M238.726 86.7343C240.833 83.8479 242.348 80.6323 243.259 77.1753C243.368 76.7582 242.754 76.6046 242.468 76.6265C242.051 76.6595 241.623 76.8899 241.514 77.318C240.669 80.5226 239.242 83.5735 237.288 86.2514C236.641 87.1294 238.276 87.3598 238.726 86.7343Z" fill="#C40C2E"/>
<path d="M103.747 112.185L103.824 112.448C103.418 112.459 103.012 112.558 102.65 112.778C98.0186 115.444 94.2104 119.549 91.9167 124.367C89.4473 129.58 88.8108 135.44 90.018 141.07C95.6481 140.127 101.267 138.48 105.92 135.199C110.585 131.918 114.217 126.825 114.711 121.151C117.334 115.741 120.429 111.417 124.204 107.268C125.444 105.918 125.412 103.8 124.106 102.527C123.052 101.474 121.79 100.596 120.484 99.7945C119.013 98.8836 117.115 99.1579 115.984 100.442C112.198 104.799 108.587 108.706 103.736 112.185H103.747Z" fill="white"/>
<path d="M102.881 112.415L102.957 112.679L104.187 112.075C101.684 112.338 99.4675 114.248 97.6347 115.85C95.4836 117.727 93.6399 119.955 92.1802 122.413C88.811 128.098 87.8343 134.87 89.1512 141.312C89.1951 141.531 89.7439 141.443 89.8646 141.421C100.422 139.622 113.021 134.474 115.326 122.666C115.633 121.096 116.094 119.889 116.873 118.473C117.653 117.058 118.399 115.817 119.244 114.544C120.967 111.932 123.019 109.661 124.984 107.235C126.641 105.194 125.938 103.065 124.084 101.484C122.229 99.904 120.308 98.4883 117.85 99.048C116.621 99.3224 115.721 99.937 114.887 100.87C113.735 102.154 112.604 103.46 111.419 104.711C108.851 107.433 106.107 109.957 103.078 112.152C102.365 112.668 104.077 112.481 104.406 112.24C108.609 109.189 112.242 105.545 115.666 101.66C116.061 101.21 116.445 100.65 116.906 100.266C117.982 99.3553 118.893 99.6626 119.869 100.233C120.956 100.881 122.064 101.66 122.964 102.538C123.864 103.416 124.435 104.48 124.183 105.765C123.93 107.049 122.756 108.047 121.922 109.035C120.396 110.824 118.97 112.69 117.664 114.643C117.027 115.587 116.423 116.564 115.853 117.54C115.183 118.704 114.25 120.021 113.855 121.305C113.537 122.336 113.548 123.5 113.219 124.553C112.879 125.673 112.418 126.759 111.869 127.791C110.739 129.909 109.202 131.808 107.424 133.421C102.672 137.734 96.3726 139.665 90.1719 140.73L90.8852 140.84C89.7219 135.166 90.3255 129.261 92.8607 124.026C93.9801 121.722 95.4397 119.593 97.1847 117.705C98.0188 116.805 98.9187 115.96 99.8626 115.181C100.378 114.753 100.927 114.358 101.476 113.974C101.981 113.622 102.826 112.876 103.451 112.81C103.649 112.788 104.801 112.602 104.68 112.207L104.604 111.943C104.472 111.515 102.76 111.998 102.881 112.404V112.415Z" fill="white"/>
<path d="M106.513 112.042C103.495 111.022 100.532 113.107 98.2605 114.863C95.7912 116.761 93.6621 119.077 91.961 121.689C88.1418 127.561 86.9456 134.749 88.3503 141.575C88.4381 141.992 89.5356 141.795 89.7551 141.762C98.1947 140.335 107.095 137.361 112.539 130.359C113.735 128.823 114.723 127.144 115.425 125.322C115.798 124.356 116.083 123.357 116.27 122.337C116.336 121.963 116.435 121.535 116.446 121.151C116.457 120.537 116.204 120.186 115.875 119.659C113.735 116.235 110.388 113.71 106.711 112.119C106.042 111.834 105.153 112.064 104.494 112.306C104.362 112.361 102.914 113.052 103.473 113.293C106.788 114.72 109.872 116.915 111.979 119.878C112.451 120.537 113.011 121.261 113.011 122.062C113.011 122.984 112.659 124.06 112.374 124.938C111.847 126.584 111.079 128.153 110.124 129.591C105.679 136.285 98.0081 139.172 90.3916 140.467L91.7964 140.653C90.6221 134.925 91.2476 128.987 93.8596 123.719C94.9791 121.448 96.4387 119.362 98.1727 117.519C99.0617 116.575 100.027 115.686 101.048 114.885C101.531 114.501 102.047 114.138 102.563 113.787C102.859 113.59 103.21 113.436 103.473 113.206C103.715 113.063 103.726 113.052 103.473 113.173C103.166 113.261 103.232 113.337 103.693 113.392C104.395 113.634 105.471 113.271 106.107 112.953C106.459 112.778 107.249 112.295 106.524 112.042H106.513Z" fill="#C40C2E"/>
<path d="M115.622 121.041C117.159 117.892 118.959 114.874 121.055 112.053C122.152 110.572 123.327 109.156 124.556 107.784C125.478 106.752 126.191 105.71 125.983 104.261C125.752 102.703 124.435 101.704 123.25 100.815C122.065 99.926 120.824 98.9932 119.299 98.9493C116.006 98.8505 114.305 101.704 112.319 103.866C109.509 106.917 106.513 109.759 103.155 112.196C102.464 112.701 104.165 112.481 104.472 112.251C106.974 110.44 109.312 108.42 111.485 106.236C112.56 105.161 113.592 104.053 114.613 102.933C115.107 102.384 115.6 101.836 116.083 101.276C116.621 100.661 117.181 99.8053 118.048 99.6955C119.507 99.52 121.165 101.023 122.229 101.88C123.392 102.812 124.402 103.855 124.292 105.446C124.183 107.038 122.888 108.025 121.955 109.123C121.022 110.22 120.188 111.263 119.365 112.371C117.269 115.192 115.469 118.21 113.932 121.36C113.801 121.623 115.414 121.502 115.633 121.063L115.622 121.041Z" fill="#C40C2E"/>
<path d="M118.739 101.561C119.014 103.998 120.111 106.237 120.385 108.684C120.418 108.991 120.813 109.266 121.066 109.364C121.428 109.507 121.911 109.507 122.284 109.397C123.019 109.178 123.667 108.662 123.568 107.839C123.294 105.402 122.196 103.164 121.922 100.716C121.889 100.409 121.494 100.135 121.241 100.036C120.879 99.8932 120.396 99.8932 120.023 100.003C119.288 100.222 118.64 100.738 118.739 101.561Z" fill="#C40C2E"/>
<path d="M114.284 102.297C114.668 106.335 115.458 110.286 116.16 114.281C116.292 115.027 117.488 114.983 118.015 114.852C118.641 114.687 119.475 114.182 119.343 113.436C118.641 109.441 117.851 105.49 117.466 101.452C117.401 100.705 116.095 100.76 115.612 100.881C114.942 101.057 114.218 101.528 114.284 102.297Z" fill="#C40C2E"/>
<path d="M109.685 107.4C110.64 111.274 111.803 115.082 112.758 118.956C112.999 119.944 116.193 119.121 115.941 118.1C114.986 114.226 113.823 110.418 112.868 106.544C112.626 105.556 109.433 106.379 109.685 107.4Z" fill="#C40C2E"/>
<path d="M85.5407 136.856C82.7202 137.46 79.8997 138.074 77.0902 138.678C76.6841 138.766 76.289 138.854 75.883 138.941C75.6525 138.996 75.0379 139.227 75.1257 139.567C75.2135 139.907 75.883 139.775 76.0915 139.721C78.912 139.117 81.7325 138.502 84.542 137.899C84.9481 137.811 85.3432 137.723 85.7492 137.635C85.9797 137.58 86.5943 137.35 86.5065 137.01C86.4187 136.67 85.7492 136.801 85.5407 136.856Z" fill="#C40C2E"/>
<path d="M85.2994 129.69C80.1632 128.888 75.0161 128.087 69.8799 127.286C69.1556 127.176 68.4202 127.056 67.6959 126.946C66.8728 126.814 65.94 127.988 67.0923 128.164C72.2285 128.965 77.3756 129.766 82.5118 130.567C83.2361 130.677 83.9714 130.798 84.6958 130.908C85.5189 131.039 86.4517 129.865 85.2994 129.69Z" fill="#C40C2E"/>
<path d="M89.1623 121.239C87.1978 118.923 85.2443 116.597 83.2798 114.281C83.0054 113.952 82.7201 113.623 82.4457 113.293C82.0616 112.843 80.4044 113.447 80.8434 113.974C82.8079 116.289 84.7614 118.616 86.7259 120.932C87.0002 121.261 87.2856 121.59 87.56 121.919C87.9441 122.369 89.6013 121.766 89.1623 121.239Z" fill="#C40C2E"/>
<path d="M96.2299 144.143C96.7018 147.776 97.1627 151.409 97.6346 155.052C97.7005 155.568 97.7663 156.084 97.8322 156.6C97.887 157.061 99.621 156.688 99.5552 156.139C99.0833 152.506 98.6223 148.874 98.1504 145.23C98.0846 144.714 98.0187 144.198 97.9529 143.682C97.898 143.222 96.164 143.595 96.2299 144.143Z" fill="#C40C2E"/>
<path d="M103.506 141.784C104.373 143.452 105.251 145.109 106.118 146.777C106.239 147.019 106.371 147.249 106.492 147.49C106.755 147.984 108.401 147.392 108.215 147.029C107.348 145.361 106.47 143.704 105.603 142.036C105.482 141.795 105.35 141.564 105.229 141.323C104.966 140.829 103.32 141.421 103.506 141.784Z" fill="#C40C2E"/>
<path d="M110.75 138.063C113.987 140.774 117.225 143.485 120.451 146.185C120.901 146.569 121.362 146.942 121.812 147.326C122.262 147.71 123.842 147.03 123.414 146.678C120.177 143.968 116.939 141.257 113.713 138.557C113.263 138.173 112.802 137.8 112.352 137.416C111.902 137.032 110.322 137.712 110.75 138.063Z" fill="#C40C2E"/>
<path d="M100.258 131.786C98.0738 133.344 95.6813 134.606 93.1242 135.419C92.9596 135.473 92.2681 135.649 92.334 135.934C92.3998 136.22 93.1352 136.033 93.2669 135.989C96.241 135.056 99.0396 133.685 101.575 131.863C101.838 131.676 101.794 131.49 101.465 131.457C101.081 131.424 100.565 131.555 100.247 131.786H100.258Z" fill="#C40C2E"/>
<path d="M108.324 122.337C106.755 125.322 104.637 127.967 102.079 130.184C101.794 130.436 101.926 130.776 102.266 130.864C102.683 130.974 103.166 130.809 103.484 130.535C106.118 128.263 108.324 125.508 109.948 122.425C110.135 122.062 109.784 121.865 109.465 121.843C109.103 121.821 108.522 121.975 108.335 122.337H108.324Z" fill="#C40C2E"/>
<path d="M172.702 78.7668C173.898 82.3885 175.435 85.8894 177.322 89.2038C177.805 90.0488 178.31 90.8829 178.837 91.706C179.364 92.5291 180.077 93.3632 180.494 94.2631C181.394 96.1508 180.264 97.6653 178.694 98.6311C177.037 99.6517 174.886 101.013 173.218 99.3005C172.559 98.6201 172.087 97.6982 171.561 96.908C171.034 96.1179 170.507 95.3606 169.969 94.6033C167.687 91.3658 165.173 88.3039 162.309 85.5711L161.409 86.4382C166.556 85.6699 171.462 82.9592 174.359 78.5693C174.82 77.8669 173.086 77.9766 172.746 78.4924C170.255 82.2677 166.073 84.7371 161.618 85.4065C161.376 85.4394 160.268 85.8455 160.718 86.2735C163.319 88.7538 165.623 91.4975 167.731 94.4058C168.795 95.8764 169.805 97.369 170.803 98.8725C171.616 100.102 172.516 100.991 174.03 101.199C175.545 101.408 176.927 100.76 178.266 100.069C179.605 99.3773 181.109 98.642 181.921 97.38C183.721 94.5924 180.911 91.8926 179.55 89.6098C177.41 86.0431 175.72 82.2458 174.414 78.3059C174.195 77.6584 172.483 78.1303 172.691 78.7668H172.702Z" fill="#C40C2E"/>
<path d="M177.959 98.9822C178.266 97.7421 178.595 96.6775 178.98 95.3935C179.364 94.1094 179.759 92.7705 180.088 91.4426C180.165 91.1353 179.923 90.7841 179.693 90.6085C179.408 90.4 178.947 90.3122 178.606 90.3451C177.805 90.4219 177.07 90.8499 176.861 91.6621C176.554 92.9022 176.225 93.9668 175.841 95.2508C175.457 96.5349 175.062 97.8738 174.732 99.2017C174.655 99.509 174.897 99.8602 175.127 100.036C175.413 100.244 175.874 100.332 176.214 100.299C177.015 100.222 177.75 99.7944 177.959 98.9822Z" fill="#C40C2E"/>
<path d="M173.602 97.5886C174.546 93.5608 175.95 89.7087 177.202 85.7798C177.443 85.0335 176.236 84.814 175.764 84.8579C175.007 84.9237 174.238 85.3188 173.997 86.0761C172.746 90.005 171.341 93.8681 170.397 97.8849C170.222 98.6421 171.319 98.8507 171.835 98.8068C172.548 98.7409 173.426 98.3458 173.602 97.5886Z" fill="#C40C2E"/>
<path d="M170.068 91.75C171.506 88.1283 172.932 84.4957 174.359 80.8741C174.611 80.2375 173.316 80.2485 173.02 80.3034C172.395 80.4021 171.462 80.6655 171.198 81.324C169.761 84.9457 168.334 88.5783 166.907 92.2C166.655 92.8365 167.95 92.8255 168.246 92.7707C168.872 92.6719 169.805 92.4085 170.068 91.75Z" fill="#C40C2E"/>
<path d="M171.32 66.6398C171.32 66.6398 177.454 75.1781 171.473 82.0044C165.492 88.8307 156.295 84.1774 156.295 84.1774L154.199 78.0206L159.708 77.7023L161.903 74.1465L166.941 72.0064L165.042 64.2473L171.32 66.6508V66.6398Z" fill="white" stroke="#C40C2E" stroke-width="2" stroke-miterlimit="10"/>
</svg>
