<svg width="240" height="196" viewBox="0 0 240 196" fill="none" xmlns="http://www.w3.org/2000/svg">
<g id="luces404">
<path id="Vector" d="M198.813 16.1434C199.118 16.1434 199.419 16.1906 199.715 16.2912C200.966 16.7186 201.296 17.9791 201.585 19.1326C201.761 19.8398 201.95 20.5627 202.072 21.2888C202.132 21.3045 202.195 21.3297 202.258 21.3737C204.895 23.1181 207.425 26.0444 207.249 29.3825C207.167 30.9321 206.617 32.4031 206.117 33.8552C205.482 35.7003 204.848 37.5453 204.209 39.3872C202.946 43.0521 201.893 46.9182 200.092 50.3663C198.681 53.0726 196.562 55.694 193.425 56.3352C192.712 56.4798 191.986 56.5363 191.256 56.5363C191.256 56.5363 191.253 56.5363 191.25 56.5363C191.26 56.6464 191.25 56.7689 191.203 56.9009C190.446 59.1295 189.638 61.2951 188.745 63.4702C188.676 63.6368 188.544 63.7153 188.396 63.7311C187.485 64.7683 185.97 65.1266 184.514 65.1266C184.474 65.1266 184.43 65.1266 184.389 65.1266C184.467 65.9093 184.323 66.7548 183.989 67.5029C184.804 67.5689 185.621 67.638 186.432 67.7103C203.606 69.2065 220.243 72.3716 237.219 75.3294C237.219 75.3294 238.156 75.4174 238.099 76.0712C238.071 76.3509 237.772 76.4169 237.499 76.4169C237.257 76.4169 237.034 76.3666 237.034 76.3666L211.998 73.6258C196.653 71.4224 179.602 68.955 162.801 68.955C160.576 68.955 158.357 68.999 156.144 69.0902C156.612 69.7094 156.996 70.426 157.285 71.0924C158.08 70.9006 158.894 70.7875 159.671 70.7875C160.183 70.7875 160.68 70.8346 161.145 70.9384C161.459 71.0075 161.613 71.2181 161.635 71.4475C161.708 71.4255 161.783 71.4161 161.858 71.4161C162.009 71.4161 162.163 71.457 162.305 71.5356C162.456 71.6173 162.553 71.787 162.515 71.9599C162.506 72.007 162.496 72.051 162.484 72.0982C162.459 72.2082 162.383 72.2836 162.295 72.3182C162.317 72.3528 162.339 72.3999 162.355 72.4534C162.446 72.5602 162.537 72.6702 162.628 72.7771C162.848 73.0537 163.062 73.3334 163.273 73.6195C163.691 74.1884 164.093 74.7667 164.47 75.3639C165.017 76.2315 165.812 77.3567 166.051 78.4285C167.588 78.4537 169.135 78.7806 170.496 79.2678C173.513 80.349 175.333 82.9358 176.729 85.7081C178.608 89.4422 180.108 93.412 181.701 97.2718C183.1 100.66 184.442 104.495 183.474 108.185C182.754 110.92 181.007 113.296 178.231 113.943C178.395 115.876 177.97 118.121 176.336 118.944C176.006 119.111 175.679 119.18 175.358 119.18C174.532 119.18 173.736 118.721 172.998 118.287C172.369 117.916 171.725 117.545 171.115 117.124C171.062 117.156 170.999 117.181 170.923 117.2C169.999 117.398 169.003 117.514 168.003 117.514C165.662 117.514 163.292 116.876 161.711 115.15C160.661 114.006 160.001 112.582 159.312 111.209C158.442 109.464 157.571 107.717 156.7 105.972C154.972 102.502 152.951 99.0446 151.75 95.3419C150.81 92.4408 150.424 89.0933 152.162 86.4059C152.558 85.793 153.029 85.2366 153.542 84.7149C153.457 84.6426 153.378 84.5514 153.315 84.4257C152.256 82.3229 151.278 80.2296 150.351 78.0702C150.282 77.9068 150.32 77.7559 150.411 77.6396C150.307 76.222 151.162 74.8516 152.225 73.8018C150.97 72.796 150.178 70.9164 150.622 69.4359C139.69 70.3349 129.078 72.6011 119.347 77.0141C130.169 84.5326 140.079 94.8956 144.018 107.663C147.494 118.931 145.275 132.623 135.704 140.305C129.921 144.947 121.164 147.484 112.759 147.484C107.491 147.484 102.364 146.488 98.1966 144.391C94.7265 142.647 91.9668 140.076 89.8578 137.02C89.5215 137.586 89.1128 138.117 88.7042 138.576C89.5497 139.636 90.2098 140.833 90.4738 142.012C90.543 142.326 90.4173 142.552 90.2192 142.672C90.3701 142.842 90.4393 143.077 90.4235 143.316C90.411 143.486 90.301 143.646 90.1281 143.687C90.0809 143.696 90.0369 143.709 89.9898 143.718C89.9646 143.725 89.9426 143.725 89.9206 143.725C89.8389 143.725 89.7666 143.69 89.71 143.637C89.688 143.674 89.6566 143.709 89.6126 143.747C89.5529 143.876 89.4932 144.005 89.4334 144.133C89.2763 144.451 89.1097 144.762 88.9431 145.073C88.6068 145.692 88.2485 146.302 87.8681 146.896C87.3118 147.757 86.6297 148.955 85.7591 149.621C86.3846 151.026 86.7429 152.567 86.8749 154.003C87.1672 157.193 85.5925 159.937 83.6689 162.37C81.0789 165.648 78.1117 168.685 75.286 171.762C72.8061 174.462 69.8955 177.297 66.1394 177.976C65.5296 178.086 64.9136 178.146 64.3069 178.146C62.1444 178.146 60.0794 177.407 58.7089 175.656C57.6874 176.241 56.471 176.678 55.352 176.678C54.626 176.678 53.9407 176.495 53.375 176.049C52.3377 175.229 52.4477 173.931 52.5609 172.746C52.63 172.02 52.696 171.278 52.8218 170.549C52.7715 170.511 52.7212 170.467 52.674 170.407C50.7693 167.883 49.3643 164.278 50.6436 161.191C51.2376 159.758 52.2466 158.557 53.2052 157.354C54.4185 155.826 55.6349 154.302 56.8513 152.774C59.2653 149.741 61.5504 146.45 64.3981 143.8C66.3971 141.939 68.9054 140.333 71.6839 140.333C72.0108 140.333 72.3409 140.355 72.674 140.402C73.397 140.503 74.101 140.695 74.7894 140.94C74.8177 140.833 74.8711 140.723 74.956 140.613C76.4144 138.768 77.898 136.995 79.4664 135.241C79.5544 135.141 79.6645 135.1 79.7745 135.1C79.809 135.1 79.8468 135.103 79.8813 135.112C80.4471 134.798 81.0883 134.666 81.7484 134.666C82.5405 134.666 83.3608 134.852 84.1246 135.134C84.4798 133.679 85.6899 132.268 87.0918 131.903C85.4573 127.977 84.6244 123.665 84.5144 119.46C84.0146 100.01 97.3354 85.463 113.724 76.7689C111.134 75.1785 108.49 73.7295 105.847 72.4345C90.4015 64.8657 73.8182 61.9269 57.0493 61.9269C52.344 61.9269 47.623 62.1595 42.9082 62.5838C43.3043 63.2156 43.6154 63.9197 43.848 64.5766C44.4389 64.4791 45.0361 64.4226 45.6176 64.4226C46.3531 64.4226 47.0635 64.5106 47.711 64.7023C48.019 64.7935 48.1573 65.0166 48.1636 65.2461C48.217 65.2335 48.2736 65.2272 48.3302 65.2272C48.4999 65.2272 48.6728 65.2806 48.8268 65.3812C48.9714 65.4755 49.0563 65.6484 49.006 65.8213C48.9934 65.8653 48.9777 65.9124 48.9651 65.9564C48.9337 66.0633 48.8519 66.1356 48.7608 66.1607C48.7828 66.1984 48.7985 66.2456 48.8111 66.3022C48.8928 66.4153 48.9777 66.5316 49.0594 66.6448C49.2574 66.9371 49.4523 67.2326 49.6409 67.5312C50.0181 68.1284 50.3764 68.735 50.7096 69.3573C51.1936 70.2626 51.904 71.4413 52.0643 72.5257C53.595 72.6608 55.1163 73.0977 56.4364 73.6823C59.369 74.9805 60.9972 77.6899 62.1884 80.5533C63.7946 84.4131 65.0016 88.4804 66.3154 92.4471C67.4658 95.9297 68.5282 99.8492 67.2929 103.461C66.3783 106.136 64.4641 108.38 61.6478 108.823C61.6729 110.762 61.0883 112.972 59.3973 113.673C59.1113 113.792 58.8347 113.843 58.5644 113.843C57.678 113.843 56.867 113.296 56.1158 112.777C55.5155 112.362 54.8994 111.944 54.3242 111.482C54.2676 111.51 54.2048 111.532 54.1293 111.542C53.4944 111.63 52.8343 111.677 52.1617 111.677C49.5183 111.677 46.7429 110.92 45.0896 108.832C44.1246 107.616 43.5683 106.148 42.9836 104.727C42.2419 102.923 41.5001 101.119 40.7583 99.3149C39.2841 95.7285 37.5177 92.1328 36.5904 88.3547C35.8612 85.3906 35.7166 82.0243 37.6465 79.4689C38.0866 78.8874 38.5989 78.3625 39.1458 77.8816C39.0641 77.8062 38.995 77.7056 38.9415 77.5767C38.0363 75.4048 37.2128 73.2454 36.4427 71.0232C36.383 70.8535 36.4333 70.7058 36.5339 70.5989C36.5339 69.1782 37.4862 67.8738 38.6178 66.9025C37.6371 65.991 37.0179 64.5011 37.1562 63.1936C25.5359 64.6237 14.0099 67.1445 2.90193 70.1997C2.81706 70.2217 2.73534 70.2343 2.6599 70.2343C1.80496 70.2343 1.51893 68.8733 2.45874 68.5935C10.8667 66.101 19.3533 63.8976 27.975 62.2726C37.7346 60.4307 47.7833 59.3746 57.8068 59.3778C78.5046 59.3778 99.0893 63.8788 116.729 75.2539C119.828 73.7735 123.012 72.4974 126.209 71.4287C125.501 70.7969 124.91 69.9482 124.464 69.1593C123.433 69.5271 122.355 69.7502 121.346 69.7502C121.104 69.7502 120.868 69.7377 120.639 69.7125C120.321 69.6748 120.145 69.4831 120.098 69.2568C120.001 69.2976 119.897 69.3165 119.79 69.3165C119.668 69.3165 119.542 69.2913 119.422 69.241C119.265 69.175 119.149 69.0179 119.171 68.8387C119.177 68.7916 119.18 68.7444 119.187 68.6973C119.199 68.5841 119.265 68.5024 119.353 68.4615C119.325 68.4301 119.303 68.3861 119.281 68.3327C119.177 68.2352 119.077 68.1346 118.976 68.0372C118.728 67.7858 118.486 67.528 118.25 67.2671C117.775 66.7454 117.317 66.211 116.88 65.6547C116.245 64.85 115.339 63.8128 114.991 62.7693C114.629 62.8007 114.268 62.8164 113.906 62.8164C112.731 62.8164 111.555 62.6592 110.483 62.3952C107.372 61.6314 105.294 59.2458 103.622 56.6338C101.368 53.1166 99.4664 49.3196 97.48 45.6452C95.7386 42.4172 94.0068 38.7428 94.5914 34.971C95.0251 32.1768 96.5181 29.6339 99.2118 28.7036C98.8504 26.7988 99.039 24.52 100.579 23.5362C100.969 23.2879 101.368 23.1904 101.77 23.1904C102.515 23.1904 103.263 23.5267 103.967 23.8474C104.631 24.1491 105.313 24.454 105.96 24.8092C106.011 24.7714 106.07 24.74 106.143 24.7149C107.419 24.3 108.849 24.0359 110.263 24.0359C112.184 24.0359 114.079 24.5263 115.515 25.8024C116.678 26.8334 117.483 28.1786 118.307 29.4768C119.353 31.1238 120.4 32.7708 121.443 34.4178C123.524 37.6899 125.888 40.9211 127.463 44.4791C128.698 47.2703 129.427 50.558 127.975 53.412C127.642 54.0627 127.23 54.6662 126.777 55.2382C126.869 55.3011 126.957 55.3859 127.032 55.5022C128.302 57.4824 129.493 59.4658 130.637 61.5183C130.725 61.6754 130.703 61.8294 130.625 61.952C130.873 63.3507 130.166 64.8029 129.22 65.9564C130.508 66.7862 131.461 68.4458 131.297 69.9137C132.941 69.4799 134.579 69.0996 136.201 68.779C144.719 67.0943 153.391 66.4782 162.082 66.4782C167.478 66.4782 172.882 66.7139 178.256 67.0785C178.102 65.8936 178.47 64.5231 178.916 63.4199C177.766 62.7032 176.741 61.798 176.1 60.7733C175.93 60.4999 175.971 60.2453 176.119 60.0661C175.921 59.9561 175.776 59.7581 175.71 59.5255C175.663 59.362 175.717 59.1735 175.868 59.076C175.908 59.0509 175.946 59.0257 175.987 59.0006C176.04 58.9692 176.094 58.9534 176.147 58.9534C176.191 58.9534 176.235 58.9629 176.276 58.9817C176.286 58.9409 176.304 58.8937 176.333 58.8434C176.345 58.702 176.358 58.5605 176.374 58.4191C176.418 58.0671 176.468 57.7182 176.524 57.3693C176.634 56.6715 176.77 55.98 176.93 55.2916C177.166 54.2921 177.411 52.9374 178.008 52.0165C176.949 50.9038 176.097 49.5711 175.493 48.2572C174.151 45.3466 174.72 42.2349 175.72 39.2992C177.065 35.3419 178.847 31.4915 180.485 27.6474C181.921 24.2748 183.719 20.6319 187.032 18.7366C188.406 17.9508 189.924 17.473 191.417 17.4761C192.592 17.4761 193.752 17.7716 194.811 18.4442C195.858 17.2278 197.342 16.1466 198.803 16.1466M97.1656 93.412C97.5963 93.2234 98.0489 93.1386 98.5078 93.1386C100.199 93.1386 102.012 94.267 103.348 95.3859C104.631 94.2984 106.092 93.4372 107.548 93.0694C107.629 93.0474 107.708 93.038 107.78 93.038C108.05 93.038 108.255 93.17 108.377 93.3617C108.569 93.1794 108.839 93.0851 109.122 93.0851C109.138 93.0851 109.154 93.0851 109.169 93.0851C109.38 93.0946 109.584 93.2266 109.638 93.4403C109.653 93.4969 109.666 93.5535 109.682 93.61C109.716 93.7452 109.675 93.8709 109.594 93.9589C109.641 93.9841 109.688 94.0249 109.735 94.0784C109.895 94.1475 110.059 94.2167 110.219 94.2858C110.618 94.4713 111.011 94.663 111.401 94.861C112.181 95.2571 112.951 95.6783 113.699 96.1309C114.95 96.8852 116.754 97.8376 117.493 99.1389C117.637 99.3935 117.584 99.7078 117.417 99.9247C117.574 101.817 113.831 103.486 112.787 105.309C112.595 105.642 112.423 105.956 112.259 106.255C112.331 106.255 112.407 106.28 112.479 106.334C114.62 107.889 116.672 109.562 118.665 111.3C119.752 112.249 120.834 113.208 121.896 114.182C122.779 114.993 123.757 115.757 124.37 116.8C124.58 117.159 124.285 117.552 123.93 117.552C123.854 117.552 123.776 117.533 123.697 117.495C122.628 116.939 121.808 116.005 120.928 115.191C119.938 114.276 118.945 113.368 117.939 112.472C115.93 110.681 113.897 108.92 111.904 107.11C111.879 107.088 111.857 107.063 111.838 107.035C109.955 110.63 110.021 111.532 107.601 112.585C107.475 112.639 107.365 112.664 107.271 112.664C107.167 112.664 107.082 112.636 107.013 112.585C106.997 112.585 106.982 112.585 106.969 112.585C106.777 112.585 106.567 112.523 106.363 112.369C104.021 110.624 101.77 108.845 99.5387 106.965C99.369 106.824 99.3281 106.632 99.3659 106.456C98.4638 104.941 98.6492 102.945 99.2433 101.191C96.9299 100.698 94.6574 98.4788 95.0283 96.1686C90.1941 102.908 87.2112 110.813 87.4344 119.45C87.601 125.978 89.5655 132.912 94.1639 137.731C98.8881 142.678 105.344 144.215 111.885 144.215C114.076 144.215 116.276 144.042 118.423 143.769C127.148 142.656 135.352 139.001 139.611 130.888C143.509 123.464 143.458 114.459 140.592 106.708C136.238 94.9428 126.922 85.4472 116.37 78.4411C113.762 79.7707 111.222 81.2637 108.767 82.9421C104.467 85.8841 100.494 89.4076 97.1656 93.4057M198.813 14.2544C197.364 14.2544 195.82 14.9302 194.444 16.1403C193.501 15.7694 192.489 15.584 191.426 15.584C189.672 15.584 187.834 16.1057 186.105 17.0958C182.242 19.3055 180.29 23.3162 178.759 26.9057C178.391 27.7732 178.014 28.6375 177.637 29.5082C176.345 32.4816 175.009 35.5557 173.944 38.6894C172.969 41.5528 172.071 45.3184 173.79 49.043C174.33 50.2186 175.013 51.3281 175.786 52.3119C175.512 53.0443 175.343 53.7955 175.195 54.4493C175.163 54.5876 175.132 54.7259 175.104 54.8547C174.937 55.5557 174.796 56.2786 174.67 57.0644C174.635 57.2813 174.604 57.4919 174.576 57.6962C173.941 58.2682 173.667 59.1735 173.906 60.0221C173.96 60.2107 174.032 60.393 174.12 60.5627C174.145 60.9745 174.277 61.3863 174.513 61.7634C175.041 62.6089 175.783 63.4136 176.691 64.1397C176.609 64.4351 176.537 64.7463 176.48 65.0638C171.241 64.74 166.517 64.5829 162.091 64.5829C152.372 64.5829 143.785 65.3466 135.846 66.9182C134.855 67.1131 133.846 67.3331 132.834 67.5752C132.577 66.8868 132.19 66.2267 131.706 65.6453C132.35 64.4603 132.646 63.2502 132.558 62.106C132.646 61.5937 132.561 61.0562 132.3 60.5879C131.291 58.7774 130.244 57.0172 129.116 55.2256C129.323 54.9019 129.509 54.5813 129.672 54.2575C131.165 51.3281 131.008 47.7795 129.204 43.7059C127.94 40.8519 126.221 38.2368 124.555 35.7065C124.055 34.9459 123.54 34.1632 123.053 33.3963L121.814 31.4444L119.916 28.4552L119.715 28.1378C118.898 26.8428 118.049 25.5038 116.785 24.3817C115.132 22.9138 112.881 22.1406 110.279 22.1406C108.934 22.1406 107.507 22.3512 106.114 22.7472C105.728 22.5587 105.341 22.3826 104.964 22.2098L104.766 22.1186C104.002 21.7697 102.959 21.292 101.786 21.292C100.988 21.292 100.246 21.5088 99.5796 21.9363C97.9137 23.0018 97.0651 25.0449 97.1939 27.5563C94.8366 28.9173 93.243 31.4318 92.7432 34.6724C92.0643 39.0697 93.9816 43.0993 95.8361 46.5285C96.2856 47.3583 96.7287 48.1944 97.1719 49.0304C98.6901 51.8907 100.262 54.8516 102.047 57.6365C103.678 60.1824 106.064 63.2313 110.046 64.212C111.288 64.5169 112.599 64.6803 113.846 64.6866C114.249 65.3561 114.733 65.9564 115.151 66.4813C115.242 66.5945 115.327 66.7014 115.409 66.8051C115.852 67.3709 116.33 67.9303 116.867 68.5213C117.015 68.6847 117.159 68.8387 117.301 68.9896C117.351 69.8414 117.892 70.6209 118.703 70.9635C118.885 71.0389 119.07 71.0987 119.262 71.1364C119.586 71.3627 119.972 71.5136 120.397 71.5701C119.209 72.0542 118.036 72.5634 116.883 73.0977C108.484 67.8203 99.0767 63.8222 88.8991 61.2134C79.2401 58.7366 68.7828 57.4824 57.8226 57.4824C48.0976 57.4824 37.942 58.4662 27.6387 60.4119C19.8216 61.886 11.4136 63.9699 1.93697 66.7799C0.6357 67.1665 -0.165808 68.4207 0.0290683 69.7691C0.227088 71.1301 1.33663 72.1139 2.67248 72.1139C2.92079 72.1139 3.1691 72.0793 3.41426 72.0133C14.9623 68.8356 25.4888 66.6354 35.5218 65.3026C35.6695 65.8056 35.8801 66.299 36.1441 66.7579C35.3017 67.8109 34.7988 68.955 34.6857 70.096C34.5097 70.5863 34.5002 71.1269 34.6762 71.6361C35.3552 73.5943 36.075 75.5117 36.8765 77.4699C36.6156 77.7527 36.3767 78.0356 36.1567 78.3279C34.1733 80.9525 33.7081 84.476 34.7737 88.7979C35.5186 91.8279 36.757 94.7039 37.9546 97.4887C38.3129 98.3217 38.6838 99.186 39.0295 100.025L39.6896 101.631L41.2549 105.438L41.3963 105.784C41.9778 107.201 42.575 108.669 43.6249 109.995C45.4416 112.293 48.4779 113.557 52.1743 113.557C52.7275 113.557 53.287 113.528 53.8433 113.469C54.1922 113.723 54.5379 113.962 54.8806 114.198L55.0597 114.324C55.9147 114.914 57.0871 115.722 58.5801 115.722C59.1113 115.722 59.6362 115.615 60.1359 115.408C61.9621 114.647 63.1565 112.783 63.4677 110.291C66.0262 109.364 68.0347 107.163 69.094 104.061C70.5304 99.8492 69.3454 95.5494 68.1196 91.8467C67.8241 90.9509 67.5318 90.0488 67.2395 89.1467C66.2431 86.0633 65.2153 82.8761 63.9455 79.8241C62.7825 77.0298 60.9689 73.6132 57.2159 71.9505C56.0341 71.4255 54.7894 71.0421 53.5573 70.8189C53.2775 70.0897 52.9066 69.4139 52.586 68.8261C52.5169 68.7004 52.4509 68.5778 52.388 68.4584C52.0485 67.8235 51.6777 67.1854 51.2502 66.5128C51.1339 66.3273 51.0176 66.1482 50.9044 65.9784C50.9987 65.2209 50.7033 64.4666 50.1092 63.9668C52.4666 63.8568 54.7925 63.8002 57.0651 63.8002C65.6616 63.8002 73.9125 64.5986 81.5818 66.1764C89.8766 67.8832 97.766 70.5517 105.036 74.113C106.702 74.9302 108.346 75.7977 109.955 76.7092C102.28 81.2134 95.8707 86.7799 91.2911 92.9406C85.3096 100.99 82.4022 109.923 82.6473 119.494C82.7511 123.476 83.4708 127.418 84.747 131.001C84.0838 131.501 83.5023 132.148 83.0591 132.881C82.619 132.805 82.1884 132.768 81.7672 132.768C80.9186 132.768 80.1359 132.922 79.4319 133.23C78.9132 133.311 78.4355 133.572 78.0772 133.972C76.6942 135.518 75.3709 137.08 74.0508 138.73C73.6767 138.639 73.3121 138.57 72.9538 138.52C72.542 138.463 72.1208 138.432 71.7028 138.432C68.8488 138.432 65.9665 139.768 63.1314 142.405C60.8463 144.529 58.9352 147.013 57.0871 149.414C56.5339 150.134 55.9618 150.875 55.396 151.586L54.3996 152.837L51.75 156.162L51.5142 156.455C50.5587 157.652 49.5686 158.887 48.9211 160.453C47.6261 163.577 48.3522 167.512 50.8573 171.074C50.8039 171.501 50.763 171.922 50.7253 172.334L50.7033 172.551C50.5776 173.858 50.367 176.046 52.2246 177.514C53.0827 178.193 54.1702 178.551 55.3709 178.551C56.295 178.551 57.3071 178.337 58.316 177.932C59.8845 179.287 61.9684 180.019 64.3258 180.019C65.0361 180.019 65.7654 179.953 66.4946 179.821C70.873 179.029 74.0539 175.898 76.6942 173.029C77.3322 172.334 77.9766 171.642 78.6209 170.951C80.8306 168.581 83.1157 166.126 85.1682 163.53C87.0415 161.157 89.1474 157.907 88.7734 153.821C88.6539 152.532 88.3868 151.259 87.9813 150.074C88.4842 149.474 88.8928 148.82 89.2511 148.254C89.3266 148.132 89.402 148.015 89.4743 147.905C89.8641 147.302 90.2381 146.667 90.6184 145.966C90.7253 145.771 90.8227 145.586 90.917 145.403C91.7028 145.079 92.2654 144.316 92.3251 143.432C92.3377 143.238 92.3314 143.043 92.3063 142.851C92.3252 142.785 92.3409 142.722 92.3534 142.653C93.8779 144.008 95.5532 145.146 97.3699 146.06C101.654 148.216 106.982 149.354 112.781 149.354C121.965 149.354 130.983 146.516 136.908 141.76C141.761 137.866 145.115 132.321 146.614 125.73C147.975 119.739 147.702 113.12 145.841 107.091C141.745 93.8081 131.756 83.8725 123.175 77.4227C130.757 74.3801 139.177 72.4282 148.758 71.4853C148.927 72.3025 149.267 73.1103 149.754 73.8301C148.99 74.9428 148.572 76.1152 148.541 77.2624C148.399 77.7622 148.428 78.3059 148.641 78.7994C149.459 80.7042 150.317 82.5649 151.256 84.4603C151.018 84.7589 150.801 85.0606 150.603 85.3655C148.814 88.1252 148.604 91.6739 149.977 95.9108C150.939 98.878 152.382 101.66 153.777 104.347C154.195 105.155 154.629 105.988 155.035 106.799L156.025 108.788L157.643 112.038L157.81 112.375C158.492 113.748 159.196 115.166 160.337 116.414C162.119 118.359 164.775 119.39 168.019 119.39C168.931 119.39 169.858 119.309 170.782 119.142C171.146 119.368 171.508 119.582 171.863 119.793L172.055 119.906C172.882 120.393 174.013 121.059 175.371 121.059C176.006 121.059 176.622 120.912 177.194 120.622C178.96 119.733 180.016 117.787 180.149 115.279C182.635 114.17 184.477 111.831 185.31 108.66C186.441 104.357 184.945 100.151 183.458 96.5458C183.097 95.672 182.742 94.795 182.386 93.9149C181.17 90.9132 179.913 87.8078 178.426 84.8532C177.065 82.15 175.009 78.8717 171.146 77.4856C169.927 77.0487 168.66 76.7564 167.416 76.6212C167.082 75.914 166.667 75.2665 166.303 74.7039C166.224 74.5844 166.149 74.465 166.08 74.3518C165.696 73.7421 165.278 73.1354 164.807 72.4942C164.678 72.3213 164.549 72.1485 164.423 71.985C164.442 71.5858 164.351 71.1898 164.169 70.8378C180.277 70.9666 196.782 73.3335 211.388 75.4331L211.744 75.4834H211.775L211.807 75.4928L236.757 78.2242C236.924 78.2557 237.2 78.2965 237.511 78.2965C239.074 78.2965 239.878 77.275 239.985 76.2629V76.244L239.988 76.2252C240.108 74.817 239.039 73.6383 237.493 73.456C235.283 73.0694 233.08 72.6828 230.879 72.2931C217.118 69.8665 202.908 67.3583 188.578 66.0036C188.902 65.8056 189.201 65.5792 189.474 65.3246C189.93 65.0732 190.295 64.674 190.496 64.1774C191.282 62.2601 192.008 60.3427 192.702 58.3468C193.086 58.3091 193.45 58.2525 193.809 58.1802C197.03 57.5233 199.708 55.1848 201.77 51.237C203.213 48.471 204.187 45.4944 205.127 42.6152C205.41 41.7509 205.702 40.8582 205.998 40.0001L206.63 38.1708L207.906 34.4681L208.028 34.113C208.531 32.6671 209.05 31.1678 209.138 29.4799C209.317 26.101 207.318 22.6341 203.766 20.1164C203.675 19.6952 203.571 19.2866 203.471 18.8874L203.417 18.6737C203.1 17.4007 202.569 15.2665 200.328 14.5027C199.844 14.3393 199.334 14.2544 198.816 14.2544H198.813ZM101.145 91.8027C103.716 89.1436 106.627 86.6951 109.839 84.5011C111.863 83.1181 114.016 81.8169 116.254 80.6319C124.213 86.0727 134.246 94.971 138.828 107.361C140.199 111.064 140.865 115.043 140.758 118.865C140.645 122.923 139.699 126.673 137.945 130.008C136.116 133.491 133.366 136.285 129.77 138.306C126.551 140.116 122.654 141.327 118.187 141.895C115.946 142.181 113.828 142.326 111.888 142.326C104.672 142.326 99.3219 140.396 95.5312 136.426C93.3153 134.107 89.5623 128.807 89.3203 119.4C89.1506 112.821 90.8982 106.437 94.5191 100.377C94.5851 100.459 94.6543 100.538 94.7265 100.616C95.3646 101.33 96.1504 101.927 97.0053 102.367C96.713 104.077 96.8796 105.652 97.4988 106.95C97.5868 107.509 97.8729 108.021 98.3286 108.405C100.563 110.291 102.823 112.079 105.244 113.88C105.646 114.182 106.102 114.371 106.573 114.44C106.799 114.512 107.038 114.547 107.28 114.547C107.639 114.547 108.003 114.468 108.362 114.311C110.785 113.255 111.473 112.042 112.423 110.099C113.105 110.706 113.79 111.309 114.459 111.9C115.204 112.557 115.949 113.214 116.691 113.874C117.559 114.647 118.473 115.48 119.655 116.571C119.84 116.741 120.023 116.92 120.205 117.096C120.934 117.8 121.758 118.601 122.833 119.161C123.172 119.337 123.556 119.431 123.936 119.431C124.791 119.431 125.589 118.966 126.017 118.218C126.444 117.473 126.438 116.583 126.004 115.839C125.35 114.723 124.442 113.912 123.637 113.195C123.483 113.057 123.329 112.922 123.182 112.783C122.217 111.9 121.148 110.945 119.913 109.87C118.149 108.333 116.48 106.969 114.846 105.727C115.207 105.362 115.71 104.951 116.172 104.57C117.562 103.432 119.118 102.156 119.297 100.384C119.567 99.6732 119.52 98.8717 119.136 98.1959C118.237 96.6118 116.512 95.5902 115.126 94.773C114.972 94.6819 114.821 94.5907 114.676 94.5059C113.919 94.0501 113.13 93.6132 112.259 93.17C111.964 93.0191 111.681 92.8808 111.401 92.7457C111.077 91.8562 110.222 91.2275 109.245 91.1898C109.204 91.1898 109.163 91.1898 109.122 91.1898C108.915 91.1898 108.714 91.2087 108.516 91.2495C108.28 91.1804 108.035 91.1458 107.783 91.1458C107.554 91.1458 107.321 91.1741 107.089 91.2338C105.853 91.545 104.58 92.1516 103.345 93.0066C102.682 92.5508 101.937 92.1233 101.142 91.7996L101.145 91.8027Z" fill="white"/>
<path id="Vector_2" d="M45.7495 171.224C47.0382 171.224 47.8837 173.176 46.4882 173.742C44.4263 174.578 42.0312 175.967 39.7178 175.967C39.3909 175.967 39.064 175.939 38.7434 175.879C37.6873 175.678 37.4201 174.204 38.1399 173.519C39.9692 171.781 43.1376 171.689 45.5106 171.249C45.5924 171.234 45.6709 171.227 45.7495 171.227M45.7495 169.342C45.5547 169.342 45.3598 169.36 45.168 169.395C44.7249 169.477 44.2408 169.549 43.7253 169.624C41.5031 169.948 38.7403 170.354 36.8449 172.152C35.9711 172.981 35.6379 174.298 35.9931 175.505C36.3326 176.662 37.2535 177.514 38.3945 177.731C38.822 177.812 39.2683 177.853 39.7209 177.853C41.9054 177.853 43.9736 176.923 45.7967 176.102C46.2902 175.879 46.7585 175.669 47.1985 175.49C48.5815 174.93 49.317 173.575 49.0341 172.123C48.7261 170.536 47.3117 169.338 45.7495 169.338V169.342Z" fill="white"/>
<path id="Vector_3" d="M52.2529 180.5C53.2682 180.5 54.3023 181.723 53.6076 182.741C52.7338 184.02 51.8191 185.268 50.8636 186.488C49.9364 187.673 49.0217 189.034 47.4093 189.115C47.3904 189.115 47.3716 189.115 47.3527 189.115C46.6298 189.115 46.0734 188.402 46.0734 187.723C46.0734 186.252 47.3998 185.227 48.3522 184.243C49.3769 183.178 50.3639 182.078 51.3162 180.949C51.5834 180.632 51.9166 180.5 52.2498 180.5M52.2498 178.614C51.3288 178.614 50.4833 179.01 49.8767 179.733C48.9149 180.871 47.9468 181.946 46.9944 182.936C46.8529 183.08 46.7052 183.228 46.5543 183.376C45.558 184.357 44.1907 185.696 44.1907 187.723C44.1907 189.502 45.6397 191.001 47.3558 191.001C47.4061 191.001 47.4564 191.001 47.5067 190.998C49.8547 190.879 51.1685 189.178 52.1303 187.933C52.2058 187.839 52.2781 187.742 52.3503 187.647C53.331 186.396 54.2771 185.101 55.1666 183.8C55.8393 182.813 55.9053 181.587 55.3395 180.519C54.7266 179.359 53.5165 178.611 52.2529 178.611L52.2498 178.614Z" fill="white"/>
<path id="Vector_4" d="M64.153 184.834C64.7376 184.834 65.3003 185.177 65.4857 185.972C65.7214 186.99 65.9603 188.009 66.1992 189.027C66.4381 190.046 66.787 191.136 66.3909 192.151C66.1458 192.777 65.5171 193.236 64.8854 193.236C64.5427 193.236 64.2001 193.101 63.9173 192.783C63.1472 191.919 63.0529 190.935 62.9177 189.829C62.7889 188.785 62.66 187.738 62.5311 186.695C62.3928 185.57 63.3012 184.837 64.1593 184.837M64.1593 182.951C63.1629 182.951 62.1696 183.401 61.5033 184.158C60.8338 184.916 60.5352 185.9 60.6609 186.927L60.8558 188.493L61.0507 190.058L61.0664 190.184C61.2141 191.394 61.3839 192.764 62.5123 194.034C63.1346 194.735 63.977 195.119 64.8885 195.119C66.2841 195.119 67.6262 194.179 68.1511 192.837C68.7169 191.385 68.3743 189.97 68.1228 188.936C68.0945 188.823 68.0662 188.71 68.0411 188.597L67.9751 188.317L67.3276 185.545C66.9598 183.967 65.7151 182.948 64.1593 182.948V182.951Z" fill="white"/>
<path id="Vector_5" d="M114.343 105.475C114.384 105.475 114.428 105.485 114.475 105.501C116.612 106.293 118.508 107.5 120.365 108.801C122.214 110.093 124.247 111.19 126.045 112.526C126.303 112.717 126.073 113.101 125.8 113.101C125.778 113.101 125.753 113.101 125.731 113.091C123.747 112.592 121.953 111.039 120.321 109.863C118.407 108.48 116.499 107.104 114.286 106.233C113.89 106.076 113.985 105.475 114.34 105.475M114.34 103.59C113.274 103.59 112.388 104.338 112.184 105.409C111.976 106.5 112.57 107.585 113.595 107.987C115.588 108.773 117.348 110.042 119.215 111.391C119.492 111.592 119.774 111.803 120.057 112.016C121.56 113.142 123.263 114.418 125.269 114.921C125.442 114.965 125.621 114.987 125.8 114.987C126.752 114.987 127.626 114.346 127.931 113.431C128.226 112.541 127.918 111.57 127.17 111.014C126.114 110.228 124.995 109.53 123.914 108.854C123.05 108.314 122.229 107.805 121.447 107.255C119.586 105.95 117.53 104.621 115.129 103.731C114.871 103.637 114.607 103.586 114.34 103.586V103.59Z" fill="white"/>
<path id="Vector_6" d="M52.803 117.287C53.4976 117.287 54.1545 117.721 54.0477 118.579C53.7365 121.1 53.8402 124.353 52.1461 126.384C51.9009 126.676 51.5646 126.805 51.222 126.805C50.5996 126.805 49.9521 126.384 49.7918 125.761C49.1663 123.316 50.6248 120.506 51.3948 118.218C51.6054 117.592 52.2183 117.284 52.8061 117.284M52.8061 115.398C51.3383 115.398 50.0527 116.291 49.6064 117.618C49.4618 118.045 49.2889 118.501 49.1035 118.988C48.3082 121.088 47.315 123.7 47.9656 126.23C48.3302 127.657 49.7007 128.691 51.222 128.691C52.1461 128.691 53.0136 128.292 53.5951 127.594C55.3301 125.513 55.5658 122.763 55.7733 120.333C55.8204 119.793 55.8644 119.283 55.921 118.812C56.031 117.919 55.7827 117.08 55.2201 116.442C54.6354 115.779 53.7554 115.402 52.8061 115.402V115.398Z" fill="white"/>
<path id="Vector_7" d="M64.2 116.033C64.6715 116.033 65.1272 116.244 65.3724 116.741C66.0639 118.127 66.7114 119.532 67.3117 120.959C67.8932 122.345 68.6413 123.806 67.9278 125.255C67.7078 125.699 67.2332 125.919 66.7585 125.919C66.5134 125.919 66.2714 125.862 66.0639 125.746C64.7783 125.029 64.53 123.373 64.1309 122.062C63.7002 120.648 63.2193 119.252 62.6976 117.869C62.3078 116.835 63.2853 116.033 64.2031 116.033M64.2031 114.147C63.0402 114.147 61.9181 114.726 61.2737 115.656C60.6859 116.505 60.5634 117.555 60.9311 118.535C61.456 119.928 61.9275 121.298 62.3267 122.612C62.3864 122.804 62.4398 123.008 62.4964 123.212C62.8673 124.561 63.3734 126.406 65.1461 127.393C65.6301 127.663 66.1865 127.805 66.7585 127.805C68.0032 127.805 69.1002 127.148 69.622 126.088C70.6592 123.979 69.8137 122.002 69.1945 120.56C69.1474 120.45 69.1002 120.336 69.0531 120.226C68.437 118.762 67.7675 117.303 67.0634 115.895C66.5165 114.801 65.4478 114.147 64.2031 114.147Z" fill="white"/>
<path id="Vector_8" d="M73.4849 107.861C73.6358 107.861 73.7992 107.883 73.9721 107.933C74.9779 108.222 75.9806 108.508 76.9864 108.798C77.9922 109.087 79.1143 109.31 79.809 110.149C80.4691 110.948 80.3339 112.356 79.1584 112.617C78.9132 112.67 78.6774 112.695 78.4511 112.695C77.6308 112.695 76.8984 112.381 76.0875 112.054C75.1131 111.658 74.1356 111.265 73.1612 110.869C71.5519 110.218 71.9416 107.861 73.4818 107.861M73.4818 105.975C71.9196 105.975 70.6152 107.078 70.3072 108.659C69.9771 110.344 70.8604 111.975 72.454 112.62L73.9187 113.214L75.3803 113.808L75.4966 113.855C76.3421 114.198 77.3007 114.587 78.4511 114.587C78.822 114.587 79.1992 114.547 79.567 114.465C80.6859 114.216 81.5377 113.462 81.9055 112.39C82.2984 111.249 82.0469 109.901 81.2643 108.952C80.271 107.748 78.866 107.361 77.8414 107.081C77.7282 107.05 77.6151 107.019 77.505 106.987L75.7197 106.475L74.4907 106.123C74.1544 106.025 73.815 105.978 73.4818 105.978V105.975Z" fill="white"/>
<path id="Vector_9" d="M213.759 11.5355C214.72 11.5355 215.358 12.7362 214.934 13.5723C213.79 15.8197 210.835 16.9669 208.745 18.1739C208.538 18.2934 208.315 18.3468 208.098 18.3468C207.01 18.3468 205.998 17.0298 206.991 16.1466C208.89 14.4618 210.961 11.9504 213.579 11.5481C213.642 11.5387 213.702 11.5355 213.762 11.5355M213.762 9.64963C213.605 9.64963 213.447 9.6622 213.293 9.6842C210.615 10.096 208.619 12.007 206.859 13.6917C206.466 14.0658 206.096 14.421 205.74 14.7353C204.775 15.5934 204.452 16.8569 204.898 18.0325C205.388 19.3275 206.705 20.2327 208.101 20.2327C208.66 20.2327 209.21 20.085 209.694 19.8052C210.084 19.5789 210.518 19.3495 210.977 19.1074C212.963 18.0576 215.434 16.7532 216.619 14.4272C217.125 13.434 217.059 12.1956 216.449 11.1992C215.855 10.228 214.849 9.64648 213.765 9.64648L213.762 9.64963Z" fill="white"/>
<path id="Vector_10" d="M201.406 1.88276C201.975 1.88276 202.521 2.30394 202.71 2.832C203.2 4.21814 202.292 5.62628 201.726 6.87412C201.113 8.21939 200.554 9.58667 200.032 10.9697C199.815 11.5417 199.334 11.7838 198.831 11.7838C197.954 11.7838 197.012 11.0514 197.276 10.0456C197.672 8.54943 198.115 7.06585 198.608 5.59799C199.086 4.17099 199.495 2.58369 200.988 1.96763C201.126 1.91105 201.267 1.8859 201.409 1.8859M201.409 0C201.016 0 200.632 0.0754361 200.271 0.226308C198.099 1.12211 197.426 3.16517 196.936 4.65818C196.898 4.77448 196.861 4.88763 196.823 5.00079C196.317 6.50322 195.858 8.04023 195.453 9.56781C195.201 10.5233 195.399 11.5166 195.999 12.2961C196.653 13.1447 197.738 13.6728 198.831 13.6728C200.186 13.6728 201.324 12.8933 201.795 11.6392C202.32 10.2499 202.874 8.91089 203.442 7.65991C203.527 7.4776 203.618 7.28902 203.71 7.09728C204.323 5.84001 205.162 4.1207 204.486 2.20965C204.027 0.91152 202.76 0.00314317 201.406 0.00314317L201.409 0Z" fill="white"/>
<path id="Vector_11" d="M183.556 3.84412C183.766 3.84412 183.983 3.89756 184.203 4.02014C185.218 4.57963 185.633 5.47229 186.133 6.47182C186.605 7.41162 187.073 8.35458 187.544 9.29438C188.145 10.4951 187.173 11.6706 186.168 11.6706C185.746 11.6706 185.316 11.4632 184.995 10.9603C184.433 10.0802 183.867 9.20009 183.304 8.32C182.738 7.43991 182.044 6.52839 182.082 5.43771C182.107 4.61734 182.76 3.84098 183.556 3.84098M183.556 1.95508C181.764 1.95508 180.259 3.48895 180.199 5.37799C180.149 6.93701 180.947 8.15656 181.531 9.04607C181.594 9.14351 181.66 9.24095 181.72 9.33839L183.411 11.9787C184.052 12.9813 185.058 13.5565 186.171 13.5565C187.284 13.5565 188.453 12.9153 189.094 11.8812C189.735 10.8408 189.789 9.55841 189.235 8.45201L188.509 6.99987L187.824 5.62945L187.768 5.51629C187.224 4.42561 186.608 3.19034 185.118 2.36998C184.624 2.09966 184.099 1.96136 183.559 1.96136L183.556 1.95508Z" fill="white"/>
<path id="Vector_12" d="M106.614 9.13389C107.158 9.13389 107.72 9.42935 107.95 9.93225C108.993 12.2299 108.047 15.2536 107.692 17.6393C107.579 18.3968 106.853 18.8306 106.183 18.8306C105.596 18.8306 105.052 18.4943 105.014 17.7493C104.882 15.2128 104.21 12.0287 105.523 9.73109C105.759 9.31934 106.18 9.13389 106.614 9.13389ZM106.614 7.24799C105.461 7.24799 104.442 7.82633 103.886 8.79443C102.541 11.1455 102.789 13.8958 103.009 16.3223C103.059 16.8629 103.103 17.3721 103.128 17.8468C103.216 19.5095 104.499 20.7133 106.18 20.7133C107.862 20.7133 109.314 19.5095 109.553 17.9159C109.619 17.4696 109.71 16.9887 109.808 16.4763C110.226 14.2698 110.744 11.5258 109.663 9.14646C109.138 7.98977 107.937 7.2417 106.611 7.2417L106.614 7.24799Z" fill="white"/>
<path id="Vector_13" d="M91.4858 12.7238C91.6399 12.7238 91.7939 12.7489 91.9353 12.7961C93.3277 13.277 93.8589 14.8643 94.4813 16.0838C95.1539 17.4008 95.8706 18.6927 96.6249 19.9625C97.2441 21.006 96.1975 22.0559 95.2011 22.0559C94.8239 22.0559 94.453 21.905 94.1827 21.5435C93.2586 20.302 92.3785 19.029 91.5361 17.7277C90.7189 16.4642 89.732 15.1566 90.1814 13.6039C90.3449 13.0381 90.9232 12.7238 91.4827 12.7238M91.4827 10.8379C90.0306 10.8379 88.7513 11.7588 88.3678 13.079C87.714 15.3358 88.8927 17.1337 89.754 18.4475C89.82 18.5481 89.886 18.6487 89.952 18.7493C90.8164 20.0851 91.7279 21.4021 92.6677 22.6656C93.2712 23.4766 94.1921 23.9386 95.1979 23.9386C96.4489 23.9386 97.659 23.2346 98.2782 22.1439C98.8409 21.1538 98.8283 19.9782 98.2405 18.9944C97.4799 17.7183 96.779 16.4485 96.1535 15.2258C96.0623 15.0466 95.9711 14.858 95.88 14.6663C95.2797 13.4027 94.4593 11.674 92.5419 11.0139C92.2025 10.8976 91.8442 10.8379 91.4764 10.8379H91.4827Z" fill="white"/>
<path id="Vector_14" d="M82.6191 27.7541C83.2163 27.7541 83.8104 27.8892 84.4485 28.0244C85.4763 28.2444 86.5072 28.4613 87.5351 28.6813C89.333 29.0648 89.2607 31.7239 87.4565 31.7239C87.3905 31.7239 87.3213 31.7208 87.2522 31.7145C86.2118 31.6076 85.1714 31.4976 84.1341 31.3907C83.0938 31.2838 81.9496 31.2587 81.1167 30.5515C80.3278 29.882 80.2146 28.4707 81.3273 28.0055C81.7705 27.8201 82.1948 27.7541 82.6191 27.7541ZM82.6191 25.8682C81.9056 25.8682 81.2456 25.997 80.6044 26.2642C79.5451 26.7042 78.8379 27.5969 78.665 28.7159C78.4796 29.9071 78.9605 31.1927 79.8971 31.9879C81.0853 32.9969 82.5343 33.132 83.5935 33.2326C83.7098 33.242 83.8261 33.2546 83.9393 33.2672L84.3542 33.3112L87.0573 33.5909C87.1925 33.6035 87.3245 33.6129 87.4565 33.6129C89.1947 33.6129 90.5336 32.406 90.7159 30.6741C90.9045 28.8636 89.707 27.2166 87.928 26.8394L85.3726 26.2956L84.8414 26.1825L84.7188 26.1573C84.0587 26.0159 83.3766 25.8713 82.6223 25.8713L82.6191 25.8682Z" fill="white"/>
<path id="Vector_15" d="M170.134 123.024C170.785 123.024 171.392 123.414 171.351 124.228C171.222 126.764 171.561 130.002 170.015 132.148C169.77 132.488 169.399 132.639 169.022 132.639C168.431 132.639 167.815 132.274 167.623 131.699C166.821 129.307 168.076 126.396 168.676 124.061C168.852 123.379 169.512 123.024 170.134 123.024ZM170.134 121.138C168.572 121.138 167.221 122.147 166.85 123.59C166.737 124.026 166.598 124.495 166.447 124.995C165.803 127.145 165.005 129.822 165.834 132.299C166.275 133.61 167.585 134.528 169.022 134.528C170.043 134.528 170.964 134.063 171.549 133.252C173.13 131.051 173.167 128.292 173.199 125.853C173.205 125.309 173.211 124.797 173.237 124.322C173.281 123.467 172.998 122.672 172.438 122.084C171.857 121.474 171.04 121.135 170.137 121.135L170.134 121.138Z" fill="white"/>
<path id="Vector_16" d="M181.406 120.952C181.836 120.952 182.254 121.138 182.515 121.575C183.307 122.907 184.052 124.262 184.753 125.642C185.435 126.984 186.284 128.386 185.677 129.882C185.476 130.375 184.958 130.63 184.448 130.63C184.241 130.63 184.037 130.589 183.854 130.504C182.518 129.882 182.154 128.248 181.66 126.971C181.129 125.592 180.548 124.234 179.928 122.892C179.444 121.848 180.456 120.949 181.409 120.949M181.409 119.063C180.218 119.063 179.042 119.701 178.41 120.688C177.829 121.6 177.756 122.694 178.215 123.684C178.841 125.035 179.407 126.368 179.9 127.647C179.972 127.836 180.042 128.034 180.114 128.232C180.579 129.549 181.22 131.353 183.056 132.211C183.483 132.409 183.964 132.516 184.448 132.516C185.784 132.516 186.95 131.758 187.425 130.589C188.308 128.411 187.321 126.5 186.598 125.104C186.542 124.998 186.488 124.891 186.435 124.784C185.715 123.366 184.942 121.961 184.137 120.607C183.562 119.638 182.54 119.06 181.406 119.06L181.409 119.063Z" fill="white"/>
<path id="Vector_17" d="M190.078 112.13C190.197 112.13 190.323 112.142 190.458 112.17C191.48 112.384 192.504 112.601 193.526 112.815C194.551 113.028 195.685 113.173 196.44 113.959C197.153 114.707 197.122 116.121 195.968 116.467C195.644 116.565 195.333 116.605 195.031 116.605C194.302 116.605 193.617 116.37 192.866 116.128C191.863 115.804 190.864 115.48 189.861 115.156C188.17 114.61 188.44 112.13 190.078 112.13ZM190.078 110.244C188.45 110.244 187.133 111.391 186.872 113.028C186.598 114.76 187.61 116.411 189.279 116.951L190.637 117.391L192.281 117.922L192.401 117.96C193.205 118.221 194.038 118.491 195.025 118.491C195.525 118.491 196.022 118.419 196.502 118.274C197.599 117.948 198.395 117.13 198.684 116.037C198.992 114.87 198.643 113.541 197.797 112.654C196.719 111.526 195.292 111.243 194.249 111.036C194.136 111.014 194.019 110.992 193.906 110.967L192.372 110.646L190.838 110.325C190.581 110.272 190.323 110.244 190.072 110.244H190.078Z" fill="white"/>
<path id="Vector_18" d="M238.108 76.0679C238.165 75.4141 237.228 75.3261 237.228 75.3261C220.252 72.3684 203.615 69.2001 186.441 67.7071C169.782 66.2581 152.708 65.5037 136.21 68.7663C111.728 73.6099 83.8164 91.4506 84.5362 119.447C84.7908 129.294 89.0089 139.745 98.2216 144.378C109.04 149.819 126.322 147.845 135.729 140.292C145.297 132.61 147.516 118.919 144.043 107.65C139.881 94.16 129.056 83.3569 117.527 75.7504C91.2123 58.3907 58.1964 56.5645 27.9874 62.2631C19.3657 63.8881 10.8791 66.0915 2.47114 68.584C1.44646 68.8889 1.87708 70.4762 2.91432 70.1902C36.3765 60.987 73.6137 56.618 105.866 72.4187C120.378 79.5285 134.836 91.1268 140.598 106.704C143.464 114.455 143.518 123.461 139.617 130.885C135.358 138.997 127.154 142.653 118.429 143.766C109.873 144.856 100.478 144.334 94.1732 137.727C89.5716 132.909 87.6102 125.975 87.4436 119.447C87.0539 104.206 96.6217 91.2526 108.776 82.942C138.071 62.9106 178.995 68.8795 212.014 73.6194L237.049 76.3602C237.049 76.3602 238.058 76.5928 238.112 76.0648L238.108 76.0679Z" fill="#C40C2E"/>
<path id="Vector_19" d="M75.6221 142.184C75.6221 142.184 79.1298 143.02 81.657 145.287C84.1872 147.553 85.1333 148.801 85.1333 148.801C85.1333 148.801 84.4575 149.178 86.862 146.443C89.2666 143.709 90.2567 142.527 89.5023 141.172C88.748 139.817 86.4566 137.294 85.3376 136.649C84.2186 136.005 82.3893 134.996 80.9152 135.31C79.441 135.624 76.7913 139.509 76.7913 139.509L75.6221 142.187V142.184Z" fill="#C40C2E"/>
<path id="Vector_20" d="M75.5781 142.207L76.7631 139.494C76.8731 139.331 79.4411 135.59 80.9089 135.279C82.4491 134.952 84.4104 136.081 85.3502 136.621C86.4409 137.25 88.7448 139.749 89.5275 141.157C90.2819 142.512 89.3232 143.693 86.8841 146.462C85.5294 148.003 85.1773 148.528 85.0956 148.704C85.1365 148.754 85.1553 148.779 85.1553 148.779L85.1773 148.807L85.1459 148.823C85.1459 148.823 85.061 148.867 85.0265 148.823C85.017 148.81 84.9982 148.788 85.0265 148.716C84.7499 148.38 83.7346 147.189 81.6318 145.306C79.1362 143.071 75.6441 142.219 75.6095 142.21L75.575 142.2L75.5781 142.207ZM89.4741 141.185C88.6946 139.786 86.4032 137.297 85.3188 136.675C84.3821 136.137 82.4365 135.015 80.9183 135.339C79.4756 135.647 76.8385 139.485 76.8102 139.526L75.6567 142.166C76.0307 142.26 79.2996 143.14 81.6696 145.265C83.7252 147.107 84.7467 148.289 85.0516 148.656C85.1679 148.424 85.5702 147.858 86.8338 146.422C89.254 143.671 90.2064 142.505 89.4709 141.185H89.4741ZM85.0736 148.773C85.0736 148.773 85.0736 148.785 85.0736 148.788C85.0736 148.788 85.0768 148.788 85.0831 148.788C85.0799 148.785 85.0768 148.779 85.0736 148.776V148.773Z" fill="#231F20"/>
<path id="Vector_21" d="M84.6997 134.597C84.6997 134.597 86.7616 131.929 88.5375 132.84C90.3134 133.752 89.3578 136.819 89.3578 136.819L87.7045 138.627L84.3696 136.049L84.7028 134.597H84.6997Z" fill="#C40C2E"/>
<path id="Vector_22" d="M84.335 136.061L84.6776 134.578C84.6996 134.55 86.7741 131.9 88.5531 132.811C90.329 133.723 89.3986 136.794 89.3892 136.825L89.3829 136.838L87.7107 138.667L87.6887 138.648L84.3381 136.058L84.335 136.061ZM84.7279 134.609L84.401 136.036L87.6981 138.585L89.3295 136.803C89.3766 136.646 90.2158 133.739 88.5217 132.868C86.8275 131.997 84.8284 134.48 84.7279 134.612V134.609Z" fill="#231F20"/>
<path id="Vector_23" d="M79.7836 144.429C79.7836 144.429 81.2892 144.856 82.4616 145.598C83.634 146.34 85.1333 149.939 85.5419 151.36C85.9505 152.777 87.3115 156.584 84.6367 159.975C81.9618 163.366 74.8834 171.363 71.2531 174.399C67.6227 177.435 67.343 177.844 64.8033 177.611C62.2667 177.379 58.8973 175.197 58.8973 175.197C58.8973 175.197 57.7594 176.338 55.6629 175.986C53.5664 175.634 53.5759 174.742 53.5979 174.097C53.6199 173.453 53.293 169.452 53.293 169.452C53.293 169.452 51.0739 166.378 51.0613 164.991C51.0488 163.605 51.4228 162.002 55.6755 155.072C59.9282 148.141 66.0637 143.458 68.2859 142.219C70.5113 140.981 71.5862 140.635 73.7487 141.333C75.9112 142.031 79.7836 144.435 79.7836 144.435V144.429Z" fill="white"/>
<path id="Vector_24" d="M45.5106 171.246C43.1375 171.686 39.9723 171.781 38.1399 173.516C37.4169 174.201 37.6873 175.675 38.7434 175.876C41.3459 176.37 44.137 174.694 46.4881 173.742C47.9654 173.142 46.925 170.982 45.5106 171.246Z" fill="#C40C2E"/>
<path id="Vector_25" d="M51.3192 180.95C50.3637 182.078 49.3799 183.178 48.3552 184.244C47.406 185.23 46.0796 186.252 46.0764 187.723C46.0764 188.421 46.661 189.153 47.4123 189.115C49.0247 189.034 49.9394 187.673 50.8666 186.488C51.8221 185.268 52.7368 184.02 53.6106 182.741C54.5347 181.39 52.4005 179.673 51.3192 180.95Z" fill="#C40C2E"/>
<path id="Vector_26" d="M62.5276 186.692C62.6565 187.735 62.7853 188.782 62.9142 189.825C63.0525 190.935 63.1468 191.916 63.9137 192.78C64.7153 193.682 66.0102 193.113 66.3874 192.148C66.7835 191.133 66.4346 190.042 66.1957 189.024C65.9568 188.006 65.7211 186.987 65.4822 185.969C65.0264 184.011 62.2887 184.796 62.5213 186.689L62.5276 186.692Z" fill="#C40C2E"/>
<path id="Vector_27" d="M81.2799 144.806C80.2207 143.589 78.6648 142.725 77.2441 142.002C75.8108 141.273 74.2927 140.616 72.6865 140.39C69.515 139.946 66.6453 141.71 64.4105 143.787C61.5628 146.437 59.2809 149.728 56.8638 152.761C55.6474 154.289 54.4341 155.813 53.2177 157.341C52.259 158.545 51.2501 159.745 50.656 161.179C49.3767 164.265 50.7817 167.867 52.6865 170.394C53.1706 171.036 54.0255 170.234 53.7458 169.602C53.004 167.921 51.929 166.447 51.6493 164.579C51.3569 162.643 52.2119 161.018 53.3403 159.516C55.8265 156.2 58.5077 153.009 61.0882 149.766C63.4424 146.808 66.1047 143.121 69.9205 142.018C73.9595 140.852 77.2913 143.96 80.6167 145.648C81.1636 145.925 81.6854 145.274 81.2768 144.806H81.2799Z" fill="#C40C2E"/>
<path id="Vector_28" d="M53.4816 168.395C52.8373 169.734 52.721 171.271 52.5795 172.733C52.4664 173.915 52.3564 175.216 53.3936 176.036C55.3675 177.599 58.8219 175.948 60.3274 174.458C60.8555 173.937 60.1986 173.028 59.5385 173.402C58.3598 174.075 55.3832 176.316 54.17 174.682C53.6482 173.978 54.0222 172.516 54.1197 171.674C54.236 170.665 54.4151 169.653 54.3303 168.637C54.2957 168.235 53.7016 167.943 53.4848 168.395H53.4816Z" fill="#C40C2E"/>
<path id="Vector_29" d="M58.47 175.301C60.1924 177.831 63.2382 178.494 66.1582 177.966C69.9111 177.287 72.8217 174.452 75.3048 171.752C78.1305 168.675 81.0977 165.642 83.6876 162.36C85.6113 159.928 87.186 157.184 86.8937 153.993C86.6265 151.076 85.4289 147.732 82.9521 145.978C82.1915 145.441 81.456 146.689 82.2135 147.226C84.596 148.914 85.7118 152.815 85.4698 155.603C85.1398 159.396 81.6477 162.593 79.2463 165.246C77.747 166.902 76.2509 168.562 74.7453 170.215C73.1769 171.938 71.5613 173.704 69.5905 174.98C66.4536 177.011 62.116 177.526 59.2055 174.751C58.844 174.408 58.1651 174.851 58.47 175.301Z" fill="#C40C2E"/>
<path id="Vector_30" d="M79.482 135.229C77.9136 136.983 76.43 138.752 74.9716 140.601C74.3272 141.415 75.4556 142.323 76.1031 141.487C77.5458 139.626 78.9068 137.759 80.2332 135.817C80.5381 135.37 79.8466 134.823 79.482 135.229Z" fill="#C40C2E"/>
<path id="Vector_31" d="M79.8025 135.942C81.767 136.181 83.4737 136.121 85.2119 137.262C86.158 137.885 86.972 138.721 87.6415 139.632C88.2953 140.525 88.6819 141.572 89.32 142.461C89.7192 143.017 90.659 142.747 90.4955 142.002C89.9675 139.626 87.8301 137.184 85.7997 135.93C84.1275 134.896 81.4212 134.022 79.6359 135.26C79.331 135.471 79.4379 135.898 79.8056 135.942H79.8025Z" fill="#C40C2E"/>
<path id="Vector_32" d="M90.0084 143.709C90.0555 143.7 90.0995 143.687 90.1467 143.678C90.3195 143.64 90.4327 143.48 90.4421 143.307C90.4704 142.892 90.2441 142.486 89.7946 142.427C89.1188 142.339 88.7417 143.065 88.4556 143.536C87.8647 144.504 87.2612 145.45 86.5917 146.368C85.9254 147.286 84.9479 148.16 84.5738 149.238C84.4104 149.706 84.9699 150.084 85.3722 149.87C86.4377 149.304 87.2455 147.874 87.8836 146.884C88.2639 146.29 88.6222 145.68 88.9585 145.061C89.1283 144.75 89.2917 144.438 89.4489 144.121C89.5086 143.992 89.5683 143.863 89.628 143.734C89.8009 143.583 89.8072 143.448 89.6438 143.329C89.5935 143.549 89.7758 143.756 90.0052 143.703L90.0084 143.709Z" fill="#C40C2E"/>
<path id="Vector_33" d="M84.8599 135.741C85.7652 134.804 87.1953 132.111 88.7638 133.67C90.0933 134.993 88.3049 136.92 87.409 137.86C86.7678 138.532 87.7799 139.569 88.4243 138.894C89.9833 137.256 91.8975 134.361 89.5558 132.456C87.3053 130.627 84.5676 132.953 84.1056 135.292C84.0238 135.71 84.5236 136.09 84.8599 135.741Z" fill="#C40C2E"/>
<path id="Vector_34" d="M80.8681 138.133C81.4151 138.202 81.9651 138.334 82.4869 138.507C82.9458 138.658 83.4801 139.063 83.9705 139.016C84.2722 138.985 84.4199 138.739 84.3068 138.46C84.0805 137.907 83.2192 137.677 82.6912 137.533C82.0594 137.363 81.4371 137.347 80.7896 137.423C80.3527 137.473 80.4973 138.086 80.8681 138.133Z" fill="white"/>
<path id="Vector_35" d="M80.1609 139.859C80.5161 139.966 80.8712 140.095 81.2139 140.239C81.5565 140.384 81.8834 140.572 82.2448 140.66C82.6566 140.758 83.0275 140.236 82.6849 139.919C82.0625 139.343 81.085 139.183 80.2678 139.142C79.8466 139.12 79.7648 139.743 80.1609 139.862V139.859Z" fill="white"/>
<path id="Vector_36" d="M55.6316 168.251C56.3608 168.22 57.1875 168.427 57.8287 168.763C58.4919 169.112 58.9225 169.659 59.4349 170.187C59.7115 170.47 60.2552 170.197 60.1326 169.797C59.57 167.943 57.2629 167.226 55.5719 167.723C55.2953 167.805 55.3142 168.264 55.6285 168.248L55.6316 168.251Z" fill="#C40C2E"/>
<path id="Vector_37" d="M62.8358 174.628C65.0989 175.735 67.45 174.921 69.317 173.412C70.6183 172.359 71.7561 171.083 72.9222 169.885C73.9815 168.795 75.3551 167.713 76.1157 166.393C76.3326 166.016 75.8988 165.526 75.5028 165.765C74.497 166.378 73.7143 167.377 72.8939 168.213C71.929 169.2 70.9735 170.197 70.0022 171.177C68.2263 172.975 65.8187 174.955 63.125 173.95C62.7321 173.802 62.4523 174.443 62.8327 174.628H62.8358Z" fill="#C40C2E"/>
<path id="Vector_38" d="M82.3644 151.604C82.949 153.506 82.6536 155.024 81.6195 156.731C80.7645 158.142 79.4538 159.381 78.8598 160.927C78.7026 161.339 79.2527 161.556 79.5293 161.326C80.3528 160.647 80.9405 159.645 81.5503 158.774C82.1444 157.925 82.7227 157.052 83.1062 156.083C83.6877 154.616 83.8605 152.66 82.7824 151.375C82.6253 151.189 82.2952 151.378 82.3675 151.608L82.3644 151.604Z" fill="#C40C2E"/>
<path id="Vector_39" d="M69.6848 143.876C69.7163 143.816 69.7351 143.737 69.7508 143.69C69.7917 143.574 69.7445 143.436 69.6628 143.351C69.3391 142.999 68.8205 143.172 68.6947 143.615C68.6319 143.835 68.6601 144.074 68.6696 144.297C68.6822 144.577 68.6759 144.875 68.7639 145.142C68.9179 145.614 69.5622 145.541 69.6157 145.048C69.6471 144.753 69.5717 144.441 69.5214 144.149C69.5088 144.083 69.512 143.863 69.4679 143.816C69.4742 143.753 69.4334 143.762 69.3516 143.841C69.2228 143.866 69.1976 143.888 69.2794 143.91C69.3139 143.942 69.3925 143.942 69.4365 143.942C69.3485 143.888 69.2605 143.835 69.1725 143.781C69.1788 143.794 69.1819 143.806 69.1882 143.822C69.1788 143.747 69.1693 143.671 69.1631 143.593C69.1599 143.608 69.1536 143.624 69.1505 143.64C69.0562 143.954 69.534 144.174 69.688 143.872L69.6848 143.876Z" fill="#C40C2E"/>
<path id="Vector_40" d="M70.3952 143.521C70.4266 143.835 70.4549 144.152 70.4863 144.467C70.5178 144.762 70.5115 145.105 70.6812 145.356C70.8478 145.604 71.2344 145.589 71.3287 145.281C71.4167 144.985 71.3224 144.674 71.2658 144.379C71.203 144.067 71.1338 143.756 71.0678 143.442C70.9892 143.071 70.3575 143.124 70.3952 143.514V143.521Z" fill="#C40C2E"/>
<path id="Vector_41" d="M78.3724 146.092C76.8669 147.654 75.4021 149.25 73.9123 150.828C73.1673 151.617 72.413 152.397 71.6523 153.173C70.9765 153.862 70.2065 154.503 69.735 155.351C69.5401 155.697 69.9236 156.103 70.2788 155.908C71.1337 155.439 71.7718 154.669 72.4444 153.978C73.2553 153.145 74.0506 152.296 74.8426 151.441C76.2916 149.876 77.6841 148.26 78.9853 146.573C79.2588 146.22 78.6773 145.777 78.3724 146.095V146.092Z" fill="#C40C2E"/>
<path id="Vector_42" d="M79.0232 148.024C78.2688 149.788 77.1153 151.29 75.9586 152.802C74.9716 154.088 73.6798 155.499 73.2335 157.083C73.1643 157.322 73.5069 157.57 73.6829 157.35C74.8019 155.933 75.7323 154.317 76.8167 152.862C77.9073 151.394 78.9226 149.898 79.6109 148.194C79.7587 147.83 79.1772 147.676 79.0263 148.028L79.0232 148.024Z" fill="#C40C2E"/>
<path id="Vector_43" d="M108.314 111.507C108.314 111.507 109.226 107.129 111.948 103.91C114.67 100.691 116.182 99.4718 116.182 99.4718C116.182 99.4718 116.672 100.298 113.196 97.4099C109.719 94.5245 108.214 93.3395 106.563 94.3233C104.91 95.3071 101.861 98.2397 101.101 99.651C100.343 101.062 99.155 103.366 99.5951 105.183C100.035 107 104.948 110.149 104.948 110.149L108.311 111.504L108.314 111.507Z" fill="#C40C2E"/>
<path id="Vector_44" d="M98.5766 100.516C98.5766 100.516 95.1914 98.0544 96.2601 95.8196C97.3288 93.5848 101.163 94.6598 101.163 94.6598L103.464 96.6463L100.387 100.877L98.5735 100.519L98.5766 100.516Z" fill="#C40C2E"/>
<path id="Vector_45" d="M100.406 100.918L98.5548 100.547C98.5203 100.522 95.1571 98.0389 96.2257 95.8041C97.2944 93.5661 101.135 94.6128 101.176 94.6223L101.192 94.6317L103.521 96.6402L103.499 96.6685L100.406 100.918ZM98.5926 100.481L100.375 100.833L103.417 96.6496L101.148 94.6914C100.953 94.638 97.3133 93.7013 96.2949 95.8355C95.2734 97.9697 98.426 100.359 98.5926 100.481Z" fill="#231F20"/>
<path id="Vector_46" d="M99.5481 106.962C101.78 108.845 104.03 110.624 106.372 112.365C107.406 113.135 108.49 111.705 107.428 110.929C105.071 109.206 102.704 107.584 100.249 106.01C99.6864 105.648 99.0295 106.525 99.5481 106.962Z" fill="#C40C2E"/>
<path id="Vector_47" d="M100.419 106.541C100.645 104.096 100.51 101.98 101.864 99.7833C102.603 98.5858 103.612 97.5454 104.718 96.6842C105.803 95.8418 107.088 95.3232 108.167 94.5028C108.842 93.9873 108.475 92.8306 107.554 93.0632C104.627 93.8019 101.673 96.5427 100.189 99.1044C98.9665 101.217 97.9795 104.605 99.5794 106.774C99.8528 107.145 100.378 106.997 100.419 106.538V106.541Z" fill="#C40C2E"/>
<path id="Vector_48" d="M109.691 93.6039C109.675 93.5473 109.663 93.4907 109.647 93.4342C109.594 93.2204 109.389 93.0884 109.179 93.079C108.663 93.0601 108.17 93.3524 108.113 93.9151C108.028 94.7543 108.943 95.1975 109.537 95.5369C110.76 96.2347 111.954 96.9514 113.117 97.7466C114.28 98.5418 115.396 99.7236 116.751 100.148C117.335 100.333 117.785 99.6262 117.505 99.1359C116.766 97.8346 114.962 96.8822 113.711 96.1279C112.963 95.6752 112.193 95.254 111.414 94.858C111.024 94.66 110.628 94.4651 110.232 94.2828C110.071 94.2137 109.908 94.1445 109.748 94.0754C109.556 93.8679 109.386 93.8648 109.242 94.0691C109.518 94.1257 109.766 93.8899 109.694 93.607L109.691 93.6039Z" fill="#C40C2E"/>
<path id="Vector_49" d="M99.9913 100.277C98.8 99.1891 95.4054 97.5075 97.285 95.5084C98.8786 93.8111 101.333 95.961 102.531 97.0391C103.389 97.8123 104.64 96.5174 103.776 95.741C101.689 93.8677 98.0299 91.5952 95.7511 94.5686C93.5603 97.4257 96.5432 100.739 99.4632 101.229C99.985 101.317 100.438 100.682 99.9913 100.277Z" fill="#C40C2E"/>
<path id="Vector_50" d="M103.1 105.142C103.166 104.46 103.31 103.775 103.505 103.121C103.678 102.546 104.162 101.87 104.084 101.263C104.037 100.893 103.722 100.717 103.38 100.867C102.701 101.169 102.446 102.244 102.289 102.901C102.1 103.69 102.103 104.466 102.22 105.265C102.298 105.805 103.056 105.604 103.1 105.142Z" fill="white"/>
<path id="Vector_51" d="M105.265 105.96C105.385 105.513 105.533 105.07 105.699 104.639C105.866 104.209 106.089 103.797 106.183 103.344C106.29 102.832 105.63 102.389 105.246 102.826C104.555 103.618 104.392 104.834 104.37 105.85C104.357 106.371 105.133 106.453 105.265 105.956V105.96Z" fill="white"/>
<path id="Vector_52" d="M111.916 107.103C113.906 108.914 115.943 110.674 117.951 112.466C118.957 113.361 119.95 114.27 120.94 115.184C121.82 115.999 122.641 116.929 123.71 117.488C124.146 117.715 124.637 117.231 124.382 116.794C123.772 115.75 122.795 114.986 121.908 114.176C120.846 113.198 119.765 112.242 118.677 111.293C116.681 109.552 114.632 107.883 112.492 106.327C112.045 106 111.517 106.739 111.919 107.103H111.916Z" fill="#C40C2E"/>
<path id="Vector_53" d="M114.293 106.233C116.505 107.107 118.413 108.48 120.327 109.863C121.959 111.039 123.754 112.595 125.737 113.091C126.035 113.167 126.331 112.733 126.051 112.526C124.253 111.187 122.217 110.093 120.371 108.801C118.514 107.5 116.619 106.293 114.481 105.501C114.022 105.331 113.853 106.057 114.296 106.233H114.293Z" fill="#C40C2E"/>
<path id="Vector_54" d="M116.037 98.8466C114.469 101.195 112.243 101.289 107.007 111.155C106.607 111.906 106.743 112.963 107.613 112.582C110.382 111.378 109.898 110.369 112.796 105.303C114.006 103.184 118.86 101.279 117.024 98.9849C116.738 98.6266 116.427 98.4474 116.037 98.8466Z" fill="#C40C2E"/>
<path id="Vector_55" d="M40.6512 77.7778C40.6512 77.7778 43.0871 75.1218 46.2963 74.0122C49.5055 72.9058 51.0582 72.6827 51.0582 72.6827C51.0582 72.6827 51.0582 73.459 49.8418 70.0267C48.6254 66.5944 48.0691 65.1548 46.5195 65.1548C44.9699 65.1548 41.6476 65.9311 40.5412 66.5944C39.4348 67.2576 37.662 68.3671 37.2188 69.8035C36.7756 71.2431 38.8784 75.4487 38.8784 75.4487L40.6512 77.7746V77.7778Z" fill="#C40C2E"/>
<path id="Vector_56" d="M40.6481 77.8249L38.8533 75.4706C38.7653 75.2946 36.7474 71.2305 37.1874 69.7972C37.6495 68.2916 39.5888 67.1287 40.5223 66.5692C41.6005 65.9217 44.9071 65.1265 46.5164 65.1265C48.1257 65.1265 48.6317 66.5377 49.867 70.0172C50.5522 71.9503 50.8382 72.5129 50.9545 72.6701C51.0174 72.6606 51.0488 72.6544 51.052 72.6544L51.0865 72.6481V72.6826C51.0865 72.6984 51.0865 72.7769 51.03 72.7864C51.0143 72.7864 50.9891 72.7927 50.9357 72.7329C50.5051 72.8084 48.9712 73.1195 46.3058 74.0405C43.1375 75.1312 40.6952 77.7714 40.6732 77.7966L40.6481 77.8249ZM46.5164 65.1862C44.9134 65.1862 41.6256 65.9783 40.5538 66.6226C39.6265 67.179 37.7029 68.3325 37.2472 69.8161C36.8134 71.2274 38.8848 75.3983 38.9068 75.4392L40.6544 77.7306C40.9184 77.4508 43.2789 75.0212 46.2869 73.9839C48.8958 73.085 50.4265 72.7675 50.8948 72.6795C50.7471 72.4658 50.4516 71.8403 49.8104 70.0361C48.5846 66.5849 48.0282 65.1862 46.5164 65.1862ZM51.0048 72.7235C51.0048 72.7235 51.0143 72.7298 51.0205 72.7298C51.0205 72.7298 51.0205 72.7266 51.0205 72.7204C51.0143 72.7204 51.0111 72.7204 51.0048 72.7204V72.7235Z" fill="#231F20"/>
<path id="Vector_57" d="M38.4384 66.1513C38.4384 66.1513 37.1088 63.0521 38.7716 61.9457C40.4311 60.8393 42.6471 63.1621 42.6471 63.1621L43.4234 65.4881L39.5479 67.1477L38.4415 66.1513H38.4384Z" fill="#C40C2E"/>
<path id="Vector_58" d="M39.5385 67.1855L38.4101 66.164C38.3976 66.1326 37.09 63.0271 38.7528 61.9207C40.4155 60.8112 42.644 63.1183 42.666 63.1434L42.6723 63.156L43.4549 65.5071L43.4298 65.5165L39.5385 67.1855ZM38.4636 66.1357L39.5511 67.1133L43.3826 65.4725L42.6189 63.1812C42.5057 63.0649 40.3715 60.9149 38.7873 61.971C37.2 63.0271 38.4007 65.9817 38.4636 66.1357Z" fill="#231F20"/>
<path id="Vector_59" d="M44.6368 75.2317C44.6368 75.2317 45.7432 74.1253 46.9627 73.4589C48.1791 72.7957 52.0547 73.2389 53.4942 73.5689C54.9338 73.899 58.9194 74.5653 60.5789 78.5509C62.2385 82.5364 65.784 92.6103 66.6673 97.2622C67.5536 101.911 67.7737 102.354 66.3341 104.457C64.8945 106.56 61.3522 108.442 61.3522 108.442C61.3522 108.442 61.7954 109.992 60.4658 111.652C59.1362 113.311 58.363 112.868 57.8098 112.538C57.2566 112.205 53.6043 110.545 53.6043 110.545C53.6043 110.545 49.8387 110.988 48.6223 110.325C47.4059 109.662 46.1864 108.552 42.2008 101.468C38.2153 94.383 37.1089 86.742 37.1089 84.196C37.1089 81.65 37.3289 80.5436 38.9916 78.994C40.6512 77.4445 44.6368 75.2285 44.6368 75.2285V75.2317Z" fill="white"/>
<path id="Vector_60" d="M51.3914 118.221C50.6214 120.506 49.1629 123.319 49.7884 125.765C50.0367 126.73 51.4543 127.21 52.1427 126.387C53.84 124.353 53.7331 121.1 54.0443 118.582C54.2392 116.998 51.8472 116.857 51.3883 118.224L51.3914 118.221Z" fill="#C40C2E"/>
<path id="Vector_61" d="M62.6944 117.869C63.2162 119.252 63.6971 120.648 64.1277 122.062C64.5269 123.373 64.7752 125.029 66.0607 125.746C66.6705 126.085 67.5946 125.928 67.9278 125.255C68.6413 123.806 67.8964 122.345 67.3117 120.959C66.7114 119.532 66.067 118.127 65.3724 116.741C64.64 115.276 62.1035 116.304 62.6944 117.869Z" fill="#C40C2E"/>
<path id="Vector_62" d="M73.1641 110.869C74.1385 111.265 75.116 111.658 76.0904 112.054C77.1277 112.475 78.0298 112.868 79.1613 112.617C80.3369 112.356 80.472 110.944 79.8119 110.149C79.1173 109.307 77.9952 109.084 76.9894 108.798C75.9836 108.509 74.9809 108.222 73.9751 107.933C72.042 107.38 71.3977 110.152 73.1641 110.869Z" fill="#C40C2E"/>
<path id="Vector_63" d="M45.693 74.1066C44.1151 74.4398 42.6032 75.3765 41.2799 76.266C39.9441 77.1649 38.6303 78.1707 37.6559 79.4626C35.726 82.018 35.8705 85.3843 36.5998 88.3452C37.5301 92.1233 39.2935 95.7191 40.7676 99.3054C41.5094 101.11 42.2512 102.914 42.993 104.718C43.5776 106.142 44.1371 107.607 45.0989 108.823C47.1703 111.441 51.0049 111.966 54.1387 111.532C54.937 111.422 54.651 110.285 53.9626 110.222C52.1333 110.049 50.3229 110.272 48.5532 109.612C46.7208 108.924 45.7181 107.387 44.9512 105.67C43.2633 101.883 41.7797 97.9916 40.205 94.1569C38.7654 90.6586 36.8418 86.541 37.7345 82.6718C38.6805 78.5762 43.0181 77.1775 46.1079 75.0936C46.6171 74.751 46.2996 73.9778 45.693 74.1066Z" fill="#C40C2E"/>
<path id="Vector_64" d="M52.7777 109.873C53.6357 111.086 54.9213 111.938 56.1283 112.771C57.1058 113.446 58.1902 114.172 59.4098 113.666C61.7326 112.701 61.9714 108.879 61.4057 106.843C61.2045 106.126 60.0918 106.261 60.1013 107.019C60.1138 108.376 60.6262 112.066 58.6051 112.33C57.7376 112.444 56.6438 111.406 55.9523 110.91C55.1256 110.319 54.3304 109.671 53.4 109.25C53.0323 109.084 52.4853 109.461 52.7777 109.873Z" fill="#C40C2E"/>
<path id="Vector_65" d="M61.2391 108.873C64.2879 108.6 66.3467 106.261 67.3085 103.451C68.5407 99.84 67.4814 95.9204 66.331 92.4378C65.0203 88.4711 63.8102 84.4038 62.204 80.544C61.0128 77.6806 59.3846 74.968 56.452 73.673C53.774 72.4881 50.2694 71.9066 47.5317 73.2173C46.6925 73.6196 47.4248 74.8706 48.2641 74.4683C50.8949 73.2079 54.8459 74.132 57.1655 75.7004C60.3213 77.8346 61.4119 82.4394 62.5623 85.8308C63.279 87.9462 64.0019 90.0615 64.7154 92.18C65.4572 94.3897 66.2147 96.6591 66.3687 99.0007C66.617 102.732 64.9574 106.771 61.1165 107.965C60.6419 108.113 60.6984 108.924 61.2391 108.873Z" fill="#C40C2E"/>
<path id="Vector_66" d="M36.452 71.0167C37.2221 73.2389 38.0456 75.3982 38.9509 77.5702C39.35 78.5288 40.689 77.9851 40.2741 77.0107C39.35 74.8482 38.3819 72.7485 37.329 70.6458C37.087 70.1649 36.2729 70.5012 36.452 71.0167Z" fill="#C40C2E"/>
<path id="Vector_67" d="M37.2315 71.0829C38.3945 69.483 39.174 67.9617 41.0159 66.9999C42.0217 66.475 43.1469 66.1701 44.2691 66.0318C45.366 65.8966 46.4724 66.0664 47.5568 65.9406C48.2389 65.862 48.4589 64.9097 47.7265 64.6896C45.3943 63.995 42.2197 64.6739 40.1358 65.8369C38.4196 66.7956 36.3388 68.7349 36.5526 70.8974C36.5903 71.2652 37.0115 71.3815 37.2315 71.0797V71.0829Z" fill="#C40C2E"/>
<path id="Vector_68" d="M48.9806 65.947C48.9931 65.903 49.0088 65.8559 49.0214 65.8119C49.0717 65.6421 48.9868 65.4661 48.8423 65.3718C48.4934 65.1455 48.0313 65.1455 47.7579 65.5101C47.3524 66.057 47.805 66.7391 48.0753 67.22C48.6348 68.207 49.166 69.1971 49.6438 70.2249C50.1215 71.2558 50.4076 72.532 51.1713 73.3838C51.5014 73.7515 52.1017 73.4498 52.1112 72.994C52.1363 71.787 51.2782 70.3852 50.725 69.3479C50.3918 68.7256 50.0335 68.1189 49.6563 67.5217C49.4677 67.2231 49.276 66.9277 49.0748 66.6354L48.8234 66.2928C48.7762 66.0696 48.6599 65.9973 48.4745 66.0822C48.6411 66.2362 48.9114 66.1733 48.9774 65.9502L48.9806 65.947Z" fill="#C40C2E"/>
<path id="Vector_69" d="M39.5135 66.5693C39.1363 65.3246 37.4768 62.7629 39.6047 62.15C41.4089 61.6314 42.2229 64.1334 42.6064 65.3718C42.883 66.2581 44.2817 65.881 44.002 64.9852C43.3293 62.8258 41.7326 59.7455 38.9289 60.8645C36.2352 61.9394 36.9361 65.4629 38.7529 67.0062C39.0798 67.2828 39.6518 67.0282 39.5135 66.563V66.5693Z" fill="#C40C2E"/>
<path id="Vector_70" d="M39.6644 71.2211C39.9913 70.7779 40.3748 70.363 40.7802 69.989C41.1354 69.6621 41.7515 69.3918 41.9463 68.9423C42.0658 68.6657 41.9212 68.4142 41.6226 68.3796C41.0285 68.3074 40.4093 68.9486 40.029 69.3383C39.5732 69.8067 39.2558 70.3441 39.0075 70.9445C38.8377 71.3499 39.4475 71.5228 39.6675 71.2211H39.6644Z" fill="white"/>
<path id="Vector_71" d="M40.8272 72.6798C41.0943 72.4189 41.3772 72.1737 41.6695 71.9443C41.9619 71.7148 42.2856 71.5231 42.5371 71.2497C42.8231 70.9385 42.5465 70.3601 42.1033 70.5047C41.2986 70.7688 40.6826 71.5451 40.2488 72.2366C40.0257 72.5949 40.5286 72.969 40.824 72.6798H40.8272Z" fill="white"/>
<path id="Vector_72" d="M53.6986 107.921C54.0254 107.27 54.6101 106.648 55.2167 106.252C55.8453 105.843 56.5337 105.73 57.2409 105.541C57.6244 105.438 57.6495 104.831 57.2409 104.743C55.3456 104.331 53.6011 106 53.2114 107.72C53.1485 108.002 53.5571 108.207 53.6986 107.924V107.921Z" fill="#C40C2E"/>
<path id="Vector_73" d="M62.7729 104.731C64.8379 103.291 65.2748 100.843 64.8631 98.4758C64.577 96.8256 64.0144 95.2132 63.5366 93.6101C63.0997 92.1548 62.8232 90.4292 62.0405 89.1217C61.8173 88.7477 61.1761 88.8891 61.195 89.3511C61.2421 90.5267 61.7325 91.6991 62.0656 92.8212C62.4554 94.1445 62.864 95.4646 63.2506 96.791C63.9547 99.2176 64.5142 102.285 62.3265 104.146C62.0091 104.416 62.4303 104.973 62.776 104.731H62.7729Z" fill="#C40C2E"/>
<path id="Vector_74" d="M52.1615 76.4671C54.1071 76.882 55.2921 77.8784 56.279 79.6134C57.0963 81.0499 57.5395 82.7943 58.6019 84.0673C58.8847 84.4068 59.3405 84.0296 59.2776 83.6744C59.0859 82.6246 58.495 81.6219 58.0329 80.6664C57.5803 79.7329 57.0994 78.8056 56.4394 77.9979C55.4398 76.7752 53.8148 75.6751 52.1678 75.9894C51.9289 76.0365 51.9352 76.4168 52.1678 76.4671H52.1615Z" fill="#C40C2E"/>
<path id="Vector_75" d="M39.2399 83.7876C39.2022 83.7311 39.1456 83.6776 39.111 83.6368C39.0293 83.5425 38.8879 83.5173 38.7716 83.5456C38.3064 83.6588 38.2058 84.1931 38.5295 84.52C38.693 84.6835 38.913 84.7715 39.1142 84.8752C39.3625 85.0009 39.6202 85.1518 39.8968 85.2052C40.384 85.2995 40.6355 84.7023 40.23 84.4163C39.988 84.2465 39.6768 84.1617 39.4002 84.0611C39.3373 84.0391 39.1456 83.9291 39.0859 83.9448C39.0356 83.9102 39.023 83.948 39.0513 84.058C39.0104 84.1805 39.0199 84.2151 39.0764 84.1554C39.1204 84.1397 39.1582 84.0705 39.1802 84.0328C39.0922 84.0831 39.001 84.1365 38.913 84.1868C38.9256 84.1868 38.9413 84.19 38.957 84.1931C38.8847 84.1648 38.8156 84.1334 38.7433 84.1051C38.7558 84.1177 38.7653 84.1303 38.7778 84.1397C39.0073 84.3754 39.4316 84.0674 39.243 83.7814L39.2399 83.7876Z" fill="#C40C2E"/>
<path id="Vector_76" d="M39.2744 82.989C39.5636 83.1147 39.8559 83.2436 40.1451 83.3693C40.4185 83.4856 40.714 83.6585 41.0189 83.6333C41.3143 83.6082 41.4935 83.2624 41.2672 83.033C41.0535 82.8129 40.736 82.7438 40.45 82.6495C40.1451 82.5521 39.8402 82.4609 39.5384 82.3666C39.177 82.2535 38.9161 82.8318 39.2744 82.989Z" fill="#C40C2E"/>
<path id="Vector_77" d="M45.4038 77.2717C46.0356 79.3462 46.7177 81.405 47.3714 83.4732C47.6983 84.5073 48.0126 85.5477 48.3207 86.5881C48.5941 87.5122 48.7796 88.496 49.2888 89.3226C49.4962 89.6589 50.0368 89.5238 50.04 89.1183C50.0463 88.1439 49.6848 87.2136 49.4082 86.2863C49.075 85.1736 48.7199 84.0641 48.3584 82.9577C47.6952 80.9304 46.9628 78.9282 46.1205 76.9668C45.9444 76.5582 45.2749 76.8505 45.4038 77.2686V77.2717Z" fill="#C40C2E"/>
<path id="Vector_78" d="M47.4058 77.6456C48.5782 79.1606 49.3326 80.902 50.0901 82.6464C50.7344 84.1331 51.3379 85.9499 52.5041 87.1129C52.6801 87.2889 53.0635 87.1129 52.9535 86.8488C52.2589 85.183 51.3002 83.5831 50.5553 81.9266C49.8041 80.2608 48.99 78.6452 47.8364 77.215C47.5881 76.907 47.1732 77.3407 47.4058 77.6456Z" fill="#C40C2E"/>
<path id="Vector_79" d="M190.065 55.6184C190.065 55.6184 186.482 56.0019 183.339 54.71C180.199 53.4182 178.888 52.5601 178.888 52.5601C178.888 52.5601 179.4 51.9786 178.046 55.3575C176.691 58.7364 176.153 60.1823 177.316 61.207C178.479 62.2316 181.484 63.8441 182.754 64.0798C184.024 64.3124 186.086 64.6519 187.368 63.8661C188.651 63.0803 189.854 58.5321 189.854 58.5321L190.062 55.6153L190.065 55.6184Z" fill="#C40C2E"/>
<path id="Vector_80" d="M190.1 55.5871L189.889 58.5385C189.839 58.7303 188.666 63.1119 187.387 63.8977C186.045 64.7212 183.82 64.3126 182.751 64.1145C181.513 63.8882 178.508 62.3009 177.298 61.2354C176.131 60.2107 176.644 58.7774 178.017 55.3514C178.781 53.4497 178.938 52.8368 178.954 52.642C178.901 52.6105 178.872 52.5917 178.872 52.5917L178.844 52.5728L178.866 52.5477C178.866 52.5477 178.932 52.4785 178.979 52.5068C178.995 52.5162 179.017 52.5288 179.014 52.6074C179.388 52.8337 180.742 53.6163 183.351 54.6882C186.45 55.9611 190.024 55.5965 190.062 55.5934H190.097L190.1 55.5871ZM177.342 61.1914C178.542 62.2506 181.535 63.8316 182.764 64.0548C183.826 64.2497 186.036 64.6552 187.356 63.8442C188.613 63.071 189.817 58.5731 189.829 58.5291L190.034 55.6563C189.65 55.6908 186.274 55.9549 183.329 54.7416C180.777 53.6918 179.419 52.9186 179.011 52.6734C178.979 52.9311 178.791 53.5975 178.077 55.3734C176.716 58.7711 176.207 60.1919 177.342 61.1914ZM178.957 52.5697C178.957 52.5697 178.954 52.5571 178.951 52.5571C178.951 52.5571 178.948 52.5571 178.945 52.5634C178.948 52.5634 178.954 52.5697 178.957 52.5728V52.5697Z" fill="#231F20"/>
<path id="Vector_81" d="M184.043 65.8052C184.043 65.8052 182.99 69.0081 181.013 68.741C179.036 68.4738 178.91 65.2646 178.91 65.2646L179.865 63.0078L183.87 64.3217L184.043 65.8021V65.8052Z" fill="#C40C2E"/>
<path id="Vector_82" d="M183.898 64.3032L184.071 65.8151C184.062 65.8465 182.987 69.04 181.006 68.7728C179.026 68.5056 178.878 65.2996 178.878 65.2681V65.2556L179.847 62.9736L179.872 62.9831L183.895 64.3032H183.898ZM184.011 65.8025L183.841 64.3503L179.881 63.0491L178.938 65.2744C178.948 65.4379 179.127 68.4616 181.013 68.7131C182.902 68.9677 183.955 65.9596 184.008 65.8025H184.011Z" fill="#C40C2E"/>
<path id="Vector_83" d="M185.391 54.8954C185.391 54.8954 183.829 54.9928 182.474 54.6879C181.119 54.383 178.508 51.4882 177.646 50.2875C176.785 49.0868 174.236 45.9531 175.622 41.8638C177.011 37.7745 181.013 27.8735 183.42 23.8C185.831 19.7264 185.957 19.2455 188.427 18.62C190.898 17.9946 194.802 18.9218 194.802 18.9218C194.802 18.9218 195.493 17.4665 197.59 17.0988C199.683 16.731 199.972 17.5765 200.17 18.1894C200.365 18.8055 202.009 22.4673 202.009 22.4673C202.009 22.4673 205.127 24.6235 205.602 25.9279C206.076 27.2323 206.259 28.8668 204.564 36.819C202.87 44.7712 198.652 51.2336 196.967 53.1446C195.283 55.0557 194.387 55.7409 192.114 55.8038C189.845 55.8698 185.388 54.8954 185.388 54.8954H185.391Z" fill="white"/>
<path id="Vector_84" d="M208.745 18.174C210.832 16.967 213.787 15.8198 214.934 13.5724C215.386 12.686 214.642 11.3848 213.579 11.5482C210.964 11.9505 208.893 14.4619 206.991 16.1467C205.797 17.2059 207.5 18.8938 208.745 18.1709V18.174Z" fill="#C40C2E"/>
<path id="Vector_85" d="M200.029 10.9666C200.551 9.58356 201.113 8.21942 201.723 6.871C202.289 5.62316 203.197 4.21816 202.707 2.82888C202.474 2.17196 201.676 1.67848 200.984 1.96137C199.491 2.57743 199.083 4.16787 198.605 5.59173C198.112 7.05959 197.668 8.54002 197.272 10.0393C196.854 11.6203 199.438 12.5287 200.029 10.9634V10.9666Z" fill="#C40C2E"/>
<path id="Vector_86" d="M187.547 9.29746C187.076 8.35765 186.608 7.4147 186.136 6.47489C185.636 5.47537 185.221 4.5827 184.206 4.02322C183.15 3.44173 182.119 4.40983 182.084 5.44393C182.05 6.53461 182.745 7.44299 183.307 8.32622C183.87 9.20631 184.436 10.0864 184.998 10.9665C186.083 12.6607 188.399 11.0042 187.547 9.29746Z" fill="#C40C2E"/>
<path id="Vector_87" d="M183.857 55.04C185.262 55.832 187.016 56.1306 188.597 56.3349C190.194 56.5424 191.844 56.6555 193.431 56.3349C196.568 55.6937 198.687 53.0723 200.098 50.3661C201.899 46.918 202.949 43.0519 204.213 39.387C204.847 37.5419 205.486 35.6969 206.12 33.855C206.62 32.3997 207.17 30.9318 207.255 29.3822C207.431 26.0473 204.901 23.1179 202.264 21.3734C201.594 20.9303 201.057 21.9706 201.531 22.4736C202.792 23.8125 204.297 24.8404 205.187 26.5062C206.108 28.235 205.844 30.0517 205.284 31.8434C204.049 35.8006 202.588 39.7013 201.236 43.6208C200.004 47.1946 198.728 51.5605 195.497 53.8738C192.08 56.3224 187.899 54.5025 184.203 54.0247C183.593 53.9461 183.32 54.7351 183.864 55.04H183.857Z" fill="#C40C2E"/>
<path id="Vector_88" d="M202.182 23.5206C202.342 22.0433 201.94 20.5534 201.585 19.1296C201.299 17.976 200.966 16.7125 199.715 16.2882C197.332 15.4772 194.629 18.1866 193.705 20.0914C193.381 20.7609 194.305 21.3958 194.802 20.8206C195.688 19.7928 197.744 16.6873 199.435 17.822C200.161 18.3092 200.296 19.8117 200.488 20.6415C200.717 21.6315 200.884 22.6437 201.305 23.574C201.472 23.9418 202.129 24.0204 202.182 23.5175V23.5206Z" fill="#C40C2E"/>
<path id="Vector_89" d="M195.176 18.6769C192.705 16.8665 189.616 17.2594 187.038 18.7335C183.725 20.6288 181.931 24.2718 180.491 27.6444C178.853 31.4885 177.071 35.3389 175.726 39.2961C174.726 42.2319 174.158 45.3436 175.5 48.2542C176.725 50.9133 178.973 53.6667 181.89 54.4934C182.786 54.748 183.062 53.3241 182.169 53.0727C179.359 52.2774 177.008 48.974 176.304 46.2646C175.349 42.5776 177.571 38.4003 178.951 35.0969C179.812 33.0349 180.667 30.9699 181.531 28.908C182.433 26.758 183.37 24.5547 184.8 22.6971C187.079 19.7362 190.995 17.8 194.667 19.4439C195.119 19.6482 195.616 19.0007 195.176 18.6801V18.6769Z" fill="#C40C2E"/>
<path id="Vector_90" d="M188.748 63.4671C189.641 61.292 190.449 59.1264 191.206 56.8979C191.539 55.9141 190.175 55.4363 189.845 56.4421C189.106 58.6769 188.446 60.8928 187.846 63.1654C187.708 63.6871 188.541 63.9732 188.748 63.4671Z" fill="#C40C2E"/>
<path id="Vector_91" d="M188.208 62.9044C186.278 63.3351 184.687 63.9637 182.669 63.4671C181.569 63.1967 180.522 62.6813 179.589 62.0432C178.674 61.4209 177.961 60.5628 177.062 59.9373C176.499 59.5444 175.704 60.1133 176.109 60.7639C177.401 62.8259 180.23 64.4132 182.562 64.9192C184.483 65.3341 187.327 65.2555 188.597 63.4922C188.814 63.1905 188.572 62.8259 188.211 62.9076L188.208 62.9044Z" fill="#C40C2E"/>
<path id="Vector_92" d="M175.996 58.9911C175.955 59.0163 175.918 59.0414 175.877 59.0665C175.726 59.1608 175.676 59.3494 175.72 59.516C175.833 59.9152 176.179 60.2232 176.625 60.1289C177.291 59.9875 177.404 59.1766 177.518 58.6359C177.75 57.5264 178.005 56.4326 178.328 55.345C178.652 54.2544 179.281 53.1071 179.271 51.9661C179.268 51.4726 178.615 51.3029 178.306 51.6361C177.489 52.5256 177.206 54.1412 176.936 55.2885C176.776 55.9737 176.641 56.6683 176.531 57.3661C176.474 57.715 176.424 58.0639 176.38 58.4159C176.367 58.5574 176.355 58.6988 176.339 58.8402C176.226 59.0383 176.267 59.1671 176.458 59.23C176.433 59.0037 176.191 58.8717 175.993 58.9974L175.996 58.9911Z" fill="#C40C2E"/>
<path id="Vector_93" d="M183.511 64.7809C182.971 65.9658 182.521 68.9833 180.522 68.0372C178.828 67.2325 179.869 64.8186 180.4 63.6336C180.78 62.7849 179.479 62.1437 179.098 62.9987C178.177 65.0637 177.338 68.4301 180.183 69.4422C182.914 70.4166 184.718 67.308 184.373 64.9506C184.31 64.5294 183.713 64.3377 183.511 64.7809Z" fill="#C40C2E"/>
<path id="Vector_94" d="M186.476 61.1915C185.938 61.3078 185.375 61.3675 184.822 61.3801C184.338 61.3895 183.7 61.1852 183.254 61.3958C182.98 61.5246 182.924 61.8075 183.125 62.0338C183.524 62.4802 184.41 62.411 184.954 62.367C185.605 62.3167 186.199 62.1218 186.784 61.8358C187.18 61.6441 186.837 61.1129 186.472 61.1915H186.476Z" fill="white"/>
<path id="Vector_95" d="M186.567 59.3305C186.196 59.3493 185.819 59.3462 185.448 59.3242C185.077 59.3022 184.706 59.233 184.335 59.2739C183.917 59.3179 183.738 59.934 184.168 60.1194C184.948 60.4557 185.919 60.2797 186.705 60.044C187.11 59.9245 186.978 59.3085 186.567 59.3305Z" fill="white"/>
<path id="Vector_96" d="M200.205 24.3756C199.529 24.649 198.677 24.7307 197.961 24.627C197.219 24.5201 196.628 24.1461 195.971 23.8224C195.616 23.6463 195.195 24.0864 195.443 24.4227C196.593 25.9849 199.004 25.8874 200.434 24.8533C200.667 24.6836 200.497 24.2593 200.205 24.3756Z" fill="#C40C2E"/>
<path id="Vector_97" d="M191.285 20.7733C188.783 20.4873 186.837 22.0369 185.583 24.0862C184.706 25.5132 184.062 27.0943 183.361 28.6156C182.726 29.9954 181.792 31.4727 181.516 32.9751C181.437 33.4058 182.012 33.7201 182.301 33.3617C183.043 32.4471 183.449 31.2464 183.945 30.184C184.527 28.933 185.096 27.6726 185.68 26.4216C186.755 24.1334 188.365 21.4648 191.234 21.512C191.652 21.5183 191.703 20.8236 191.281 20.7765L191.285 20.7733Z" fill="#C40C2E"/>
<path id="Vector_98" d="M180.563 48.9925C179.378 47.3957 179.149 45.865 179.554 43.9099C179.891 42.2912 180.711 40.6913 180.755 39.0349C180.768 38.5948 180.177 38.576 179.988 38.884C179.438 39.7987 179.218 40.9396 178.935 41.9643C178.658 42.9639 178.407 43.9791 178.369 45.0195C178.313 46.5974 178.803 48.4958 180.249 49.3508C180.46 49.4734 180.705 49.1842 180.563 48.9925Z" fill="#C40C2E"/>
<path id="Vector_99" d="M195.097 52.0447C195.088 52.1139 195.097 52.1893 195.097 52.2428C195.097 52.3685 195.188 52.4785 195.292 52.5351C195.716 52.7582 196.144 52.4219 196.119 51.963C196.106 51.7336 195.999 51.5198 195.914 51.3092C195.811 51.0483 195.716 50.7655 195.543 50.5423C195.242 50.1494 194.657 50.4323 194.773 50.9132C194.843 51.2024 195.019 51.4695 195.163 51.7273C195.195 51.7838 195.267 51.9944 195.323 52.0227C195.339 52.0824 195.374 52.0604 195.424 51.9599C195.537 51.8939 195.553 51.8656 195.471 51.8719C195.427 51.8561 195.355 51.8813 195.311 51.8939C195.411 51.9159 195.512 51.9347 195.613 51.9567C195.603 51.9473 195.594 51.9347 195.584 51.9253C195.619 51.9944 195.65 52.0636 195.685 52.1327C195.685 52.117 195.685 52.0982 195.685 52.0825C195.669 51.7556 195.144 51.7053 195.1 52.0447H195.097Z" fill="#C40C2E"/>
<path id="Vector_100" d="M194.547 52.6167C194.412 52.3306 194.28 52.0415 194.145 51.7554C194.016 51.4851 193.909 51.1614 193.664 50.9822C193.425 50.8062 193.064 50.9476 193.079 51.2682C193.095 51.5763 193.287 51.8371 193.441 52.0949C193.604 52.3683 193.774 52.6387 193.937 52.9121C194.135 53.2359 194.711 52.9718 194.547 52.6198V52.6167Z" fill="#C40C2E"/>
<path id="Vector_101" d="M186.167 52.8589C187.063 50.8849 187.912 48.889 188.789 46.9057C189.229 45.9124 189.678 44.9255 190.137 43.9417C190.543 43.0647 191.055 42.2066 191.219 41.248C191.285 40.8551 190.791 40.6005 190.521 40.9022C189.87 41.6283 189.527 42.5681 189.125 43.4451C188.638 44.5012 188.173 45.5667 187.714 46.6354C186.872 48.5967 186.098 50.5801 185.435 52.6074C185.297 53.0317 185.991 53.2549 186.174 52.8557L186.167 52.8589Z" fill="#C40C2E"/>
<path id="Vector_102" d="M184.91 51.2525C185.033 49.3383 185.617 47.5373 186.202 45.7268C186.702 44.1867 187.45 42.4233 187.343 40.7795C187.327 40.5311 186.922 40.4117 186.831 40.6789C186.249 42.3888 185.913 44.2212 185.378 45.9563C184.841 47.7039 184.382 49.4546 184.304 51.2902C184.288 51.6831 184.885 51.636 184.91 51.2525Z" fill="#C40C2E"/>
<path id="Vector_103" d="M125.331 55.584C125.331 55.584 123.398 58.6266 120.431 60.2767C117.464 61.9269 115.977 62.4172 115.977 62.4172C115.977 62.4172 115.842 61.6534 117.64 64.8218C119.438 67.9869 120.236 69.3102 121.761 69.0368C123.288 68.7664 126.422 67.4212 127.397 66.5757C128.371 65.727 129.921 64.3283 130.106 62.8353C130.291 61.3423 127.485 57.5673 127.485 57.5673L125.335 55.5871L125.331 55.584Z" fill="#C40C2E"/>
<path id="Vector_104" d="M125.325 55.5368L127.503 57.5422C127.623 57.7025 130.32 61.3486 130.134 62.8384C129.943 64.4006 128.236 65.8842 127.415 66.6008C126.466 67.4274 123.351 68.7884 121.767 69.0682C120.24 69.3385 119.438 68.0467 117.615 64.8375C116.603 63.0553 116.223 62.5524 116.078 62.4141C116.018 62.4361 115.987 62.4455 115.987 62.4455L115.952 62.455L115.946 62.4204C115.946 62.4204 115.933 62.3261 115.984 62.3072C115.999 62.3009 116.025 62.2915 116.084 62.3449C116.493 62.1941 117.948 61.622 120.416 60.2484C123.342 58.6203 125.287 55.5966 125.306 55.5651L125.325 55.5337V55.5368ZM121.755 69.0053C123.332 68.7256 126.432 67.3709 127.375 66.5505C128.189 65.8433 129.883 64.366 130.075 62.829C130.257 61.3643 127.488 57.6176 127.459 57.5799L125.338 55.628C125.124 55.9517 123.229 58.7523 120.444 60.3019C118.03 61.644 116.581 62.2224 116.135 62.3889C116.317 62.5744 116.719 63.137 117.665 64.8029C119.473 67.9869 120.268 69.2694 121.755 69.0053ZM116.018 62.3701C116.018 62.3701 116.006 62.3669 116.003 62.3669C116.003 62.3669 116.003 62.3701 116.003 62.3764C116.009 62.3764 116.012 62.3732 116.018 62.3701Z" fill="#C40C2E"/>
<path id="Vector_105" d="M129.543 66.6449C129.543 66.6449 131.392 69.4643 129.952 70.8442C128.509 72.224 125.922 70.3224 125.922 70.3224L124.753 68.1693L128.28 65.856L129.543 66.6449Z" fill="#C40C2E"/>
<path id="Vector_106" d="M128.28 65.8213L129.568 66.6291C129.587 66.6574 131.417 69.4862 129.971 70.8692C128.528 72.2522 125.929 70.3695 125.903 70.3506L125.894 70.3412L124.712 68.163L124.734 68.1472L128.277 65.8244L128.28 65.8213ZM129.521 66.6668L128.28 65.8936L124.794 68.1787L125.947 70.3003C126.079 70.3946 128.556 72.1391 129.93 70.8221C131.307 69.5051 129.612 66.8051 129.521 66.6668Z" fill="#C40C2E"/>
<path id="Vector_107" d="M121.852 58.7869C121.852 58.7869 120.956 60.0694 119.872 60.9369C118.787 61.8044 114.896 62.0433 113.422 61.9678C111.948 61.8924 107.906 61.9333 105.573 58.2998C103.241 54.6663 97.9921 45.3656 96.3074 40.94C94.6226 36.5176 94.3272 36.1184 95.377 33.7956C96.4268 31.4728 99.5857 28.9991 99.5857 28.9991C99.5857 28.9991 98.8785 27.5501 99.8969 25.6831C100.915 23.816 101.754 24.1178 102.358 24.3472C102.961 24.5767 106.85 25.5731 106.85 25.5731C106.85 25.5731 110.48 24.4792 111.794 24.9193C113.108 25.3593 114.5 26.2363 119.664 32.5163C124.825 38.7964 127.252 46.1231 127.695 48.6314C128.141 51.1396 128.116 52.268 126.752 54.0848C125.388 55.9015 121.849 58.7775 121.849 58.7775L121.852 58.7869Z" fill="white"/>
<path id="Vector_108" d="M107.692 17.6393C108.05 15.2537 108.996 12.2299 107.95 9.93229C107.538 9.02705 106.058 8.7976 105.523 9.73112C104.206 12.0288 104.879 15.2128 105.014 17.7494C105.099 19.3429 107.478 19.0632 107.692 17.6393Z" fill="#C40C2E"/>
<path id="Vector_109" d="M96.6248 19.9624C95.8704 18.6926 95.1506 17.4007 94.4811 16.0837C93.8588 14.8642 93.3276 13.2769 91.9352 12.796C91.2751 12.5697 90.3919 12.884 90.1844 13.6038C89.7349 15.1534 90.725 16.4641 91.5391 17.7276C92.3815 19.0289 93.2616 20.2987 94.1857 21.5434C95.1632 22.8573 97.4829 21.402 96.6248 19.9624Z" fill="#C40C2E"/>
<path id="Vector_110" d="M87.5379 28.6813C86.5101 28.4613 85.4791 28.2444 84.4513 28.0244C83.3574 27.7918 82.3988 27.5623 81.3301 28.0055C80.2174 28.4675 80.3306 29.8788 81.1195 30.5515C81.9493 31.2587 83.0934 31.2807 84.137 31.3907C85.1773 31.4976 86.2177 31.6076 87.255 31.7144C89.254 31.9219 89.4049 29.0773 87.5379 28.6813Z" fill="#C40C2E"/>
<path id="Vector_111" d="M121.01 60.0787C122.503 59.4752 123.832 58.2871 124.976 57.1807C126.133 56.0617 127.252 54.8422 127.988 53.3994C129.443 50.5454 128.71 47.2577 127.475 44.4666C125.9 40.9085 123.534 37.6773 121.456 34.4053C120.409 32.7582 119.366 31.1112 118.319 29.4642C117.492 28.1661 116.688 26.8208 115.528 25.7898C113.029 23.5739 109.163 23.7279 106.155 24.7023C105.391 24.9506 105.869 26.0193 106.561 25.9627C108.393 25.8118 110.137 25.2743 111.992 25.6201C113.916 25.9784 115.173 27.3143 116.226 28.8701C118.549 32.3025 120.689 35.8763 122.911 39.3778C124.939 42.5712 127.554 46.2864 127.349 50.2563C127.133 54.4524 123.106 56.5898 120.428 59.1829C119.988 59.6104 120.434 60.3144 121.01 60.0818V60.0787Z" fill="#C40C2E"/>
<path id="Vector_112" d="M107.783 26.1042C106.727 25.0607 105.312 24.4446 103.977 23.8348C102.895 23.3414 101.701 22.8133 100.588 23.5268C98.4698 24.8847 98.9004 28.6879 99.8182 30.5958C100.139 31.2653 101.214 30.9384 101.072 30.1935C100.821 28.8576 99.6736 25.3153 101.616 24.7024C102.449 24.4383 103.709 25.2681 104.476 25.6359C105.391 26.0759 106.29 26.5726 107.28 26.824C107.67 26.9246 108.141 26.4594 107.783 26.1042Z" fill="#C40C2E"/>
<path id="Vector_113" d="M99.6297 28.5652C96.6752 29.3699 95.0564 32.029 94.6007 34.9616C94.016 38.7334 95.7479 42.4078 97.4892 45.6358C99.4726 49.3102 101.374 53.1071 103.631 56.6243C105.303 59.2363 107.381 61.622 110.493 62.3858C113.337 63.0836 116.889 63.0427 119.353 61.2762C120.111 60.7325 119.171 59.6324 118.413 60.173C116.04 61.8734 111.989 61.6566 109.433 60.5156C105.954 58.966 104.074 54.6221 102.349 51.4853C101.27 49.5271 100.189 47.572 99.1174 45.6107C97.9984 43.5676 96.8606 41.4617 96.298 39.1829C95.4022 35.5525 96.3294 31.2872 99.9032 29.4391C100.346 29.2096 100.148 28.4238 99.6234 28.5652H99.6297Z" fill="#C40C2E"/>
<path id="Vector_114" d="M130.646 61.5058C129.502 59.4533 128.311 57.47 127.041 55.4898C126.482 54.616 125.256 55.3861 125.834 56.2693C127.123 58.2401 128.443 60.1354 129.845 62.0213C130.166 62.455 130.91 61.9804 130.643 61.5027L130.646 61.5058Z" fill="#C40C2E"/>
<path id="Vector_115" d="M129.87 61.578C129.006 63.3571 128.503 64.9915 126.856 66.2614C125.957 66.9529 124.901 67.4495 123.823 67.7827C122.767 68.1096 121.648 68.1316 120.601 68.4459C119.944 68.6408 119.894 69.6183 120.651 69.7063C123.068 69.9829 126.076 68.7571 127.925 67.2515C129.449 66.0099 131.159 63.7343 130.568 61.6441C130.467 61.2889 130.03 61.248 129.87 61.5812V61.578Z" fill="#C40C2E"/>
<path id="Vector_116" d="M119.199 68.6877C119.193 68.7348 119.19 68.782 119.183 68.8291C119.165 69.0052 119.278 69.1655 119.435 69.2315C119.818 69.3949 120.274 69.3132 120.478 68.9046C120.783 68.2948 120.217 67.7007 119.869 67.2764C119.146 66.4026 118.451 65.5225 117.8 64.5921C117.15 63.6618 116.644 62.4548 115.745 61.7476C115.355 61.4427 114.818 61.845 114.887 62.2945C115.072 63.4857 116.163 64.7179 116.889 65.642C117.326 66.1952 117.785 66.7326 118.259 67.2544C118.498 67.5153 118.74 67.773 118.985 68.0245C119.086 68.1219 119.19 68.2225 119.29 68.3199C119.375 68.5305 119.501 68.5808 119.671 68.4677C119.479 68.3482 119.224 68.4551 119.199 68.6877Z" fill="#C40C2E"/>
<path id="Vector_117" d="M128.409 66.4214C128.996 67.5812 131.077 69.816 129.091 70.7872C127.406 71.6139 126.167 69.2942 125.57 68.1375C125.143 67.3109 123.832 67.9301 124.263 68.7599C125.303 70.7684 127.412 73.5218 129.98 71.9282C132.444 70.3975 131.14 67.05 129.078 65.8493C128.71 65.6356 128.189 65.9845 128.409 66.4182V66.4214Z" fill="#C40C2E"/>
<path id="Vector_118" d="M127.45 61.8671C127.205 62.3605 126.903 62.8383 126.567 63.2752C126.274 63.6587 125.715 64.0327 125.602 64.5105C125.532 64.8059 125.718 65.0259 126.02 65.0102C126.617 64.9757 127.113 64.2401 127.422 63.7875C127.789 63.2469 128.006 62.6623 128.148 62.0274C128.242 61.5967 127.613 61.5339 127.45 61.8702V61.8671Z" fill="white"/>
<path id="Vector_119" d="M126.051 60.6351C125.834 60.9368 125.599 61.2292 125.35 61.5058C125.102 61.7824 124.816 62.0307 124.618 62.3418C124.392 62.697 124.763 63.2219 125.174 62.9988C125.922 62.5996 126.391 61.7289 126.696 60.9683C126.853 60.5785 126.29 60.2956 126.051 60.632V60.6351Z" fill="white"/>
<path id="Vector_120" d="M107.221 28.1851C107.013 28.8829 106.545 29.5995 106.017 30.0961C105.47 30.6085 104.813 30.8379 104.147 31.1491C103.788 31.3157 103.87 31.9223 104.285 31.938C106.224 32.0103 107.651 30.0647 107.733 28.3045C107.745 28.0153 107.305 27.8833 107.217 28.1882L107.221 28.1851Z" fill="#C40C2E"/>
<path id="Vector_121" d="M98.8408 32.912C97.0586 34.6878 97.0586 37.1772 97.8758 39.4372C98.4479 41.0119 99.2808 42.5018 100.032 43.9979C100.714 45.3558 101.289 47.0059 102.289 48.1563C102.575 48.4864 103.181 48.2349 103.084 47.7823C102.833 46.6319 102.144 45.5664 101.622 44.5165C101.006 43.2813 100.375 42.0523 99.7649 40.8139C98.6459 38.5477 97.5615 35.6245 99.3877 33.4086C99.6549 33.0848 99.1425 32.6134 98.8408 32.912Z" fill="#C40C2E"/>
<path id="Vector_122" d="M114.227 58.884C112.237 58.8149 110.898 58.0417 109.622 56.5047C108.566 55.2348 107.824 53.5941 106.557 52.5254C106.221 52.2425 105.837 52.692 105.963 53.0283C106.337 54.0278 107.092 54.9111 107.714 55.7723C108.324 56.6115 108.959 57.4413 109.751 58.1203C110.948 59.1481 112.74 59.9496 114.308 59.3524C114.535 59.2644 114.462 58.8903 114.223 58.884H114.227Z" fill="#C40C2E"/>
<path id="Vector_123" d="M125.674 49.4199C125.721 49.4702 125.787 49.5111 125.828 49.5457C125.925 49.6242 126.07 49.6211 126.18 49.574C126.617 49.3822 126.623 48.8353 126.249 48.5713C126.061 48.4393 125.828 48.389 125.611 48.323C125.344 48.2413 125.064 48.1407 124.781 48.1344C124.285 48.125 124.143 48.7599 124.593 48.9705C124.863 49.0962 125.18 49.1245 125.473 49.1748C125.539 49.1842 125.746 49.2596 125.803 49.2345C125.859 49.2596 125.863 49.2219 125.815 49.1182C125.834 48.9893 125.822 48.9579 125.775 49.027C125.734 49.0522 125.708 49.1245 125.693 49.1653C125.771 49.0993 125.85 49.0333 125.929 48.9673C125.913 48.9673 125.9 48.9673 125.885 48.9673C125.96 48.983 126.035 49.0019 126.108 49.0176C126.095 49.0082 126.079 48.9988 126.067 48.9893C125.8 48.7976 125.435 49.1748 125.674 49.4231V49.4199Z" fill="#C40C2E"/>
<path id="Vector_124" d="M125.778 50.2088C125.47 50.1334 125.162 50.058 124.854 49.9857C124.564 49.9165 124.244 49.8002 123.948 49.8788C123.659 49.9542 123.546 50.3251 123.807 50.5137C124.058 50.6929 124.382 50.7055 124.681 50.7463C124.995 50.7903 125.313 50.8249 125.63 50.8657C126.004 50.9129 126.161 50.2968 125.781 50.2057L125.778 50.2088Z" fill="#C40C2E"/>
<path id="Vector_125" d="M120.742 56.9101C119.759 54.9771 118.725 53.0723 117.722 51.1487C117.219 50.1869 116.729 49.2188 116.245 48.2475C115.814 47.3832 115.459 46.4465 114.811 45.7236C114.547 45.4281 114.038 45.6544 114.107 46.0567C114.271 47.0186 114.789 47.8704 115.226 48.7347C115.751 49.772 116.292 50.8029 116.842 51.8276C117.851 53.7072 118.919 55.5491 120.092 57.3344C120.337 57.7085 120.944 57.303 120.746 56.9133L120.742 56.9101Z" fill="#C40C2E"/>
<path id="Vector_126" d="M118.702 56.8944C117.282 55.6057 116.238 54.0246 115.188 52.4373C114.296 51.0858 113.384 49.4042 112.029 48.4644C111.825 48.3229 111.479 48.5649 111.63 48.8007C112.605 50.322 113.827 51.727 114.852 53.2263C115.883 54.7381 116.967 56.184 118.354 57.391C118.652 57.6487 118.985 57.1521 118.702 56.8912V56.8944Z" fill="#C40C2E"/>
<path id="Vector_127" d="M155.047 84.4979C155.047 84.4979 157.285 81.6722 160.406 80.3363C163.527 79.0005 165.058 78.6673 165.058 78.6673C165.058 78.6673 165.115 79.4405 163.653 76.1056C162.191 72.7707 161.535 71.3751 159.988 71.4883C158.442 71.6014 155.185 72.6135 154.129 73.3553C153.073 74.0971 151.385 75.3292 151.049 76.7971C150.713 78.265 153.114 82.3102 153.114 82.3102L155.047 84.501V84.4979Z" fill="#C40C2E"/>
<path id="Vector_128" d="M155.047 84.545L153.089 82.3259C152.988 82.1562 150.681 78.2492 151.017 76.7877C151.369 75.2538 153.221 73.9525 154.11 73.327C155.141 72.6041 158.379 71.57 159.985 71.4537C161.534 71.3406 162.198 72.711 163.678 76.0899C164.502 77.9664 164.828 78.507 164.954 78.6579C165.014 78.6421 165.045 78.6359 165.048 78.6359L165.083 78.6296V78.6641C165.083 78.6641 165.089 78.7584 165.036 78.771C165.02 78.7742 164.995 78.7804 164.938 78.7239C164.514 78.8307 163.009 79.2519 160.415 80.3615C157.335 81.6784 155.091 84.4853 155.066 84.5136L155.044 84.5419L155.047 84.545ZM159.988 71.5166C158.391 71.6329 155.166 72.6575 154.145 73.3773C153.262 73.9997 151.423 75.2884 151.077 76.8002C150.747 78.2398 153.114 82.2505 153.136 82.2914L155.044 84.4507C155.289 84.1521 157.464 81.559 160.393 80.308C162.93 79.2236 164.432 78.7962 164.898 78.6767C164.737 78.4724 164.395 77.8721 163.625 76.1182C162.154 72.7644 161.497 71.4097 159.991 71.5166H159.988ZM165.008 78.7113C165.008 78.7113 165.02 78.7176 165.023 78.7176C165.023 78.7176 165.023 78.7144 165.023 78.7081C165.017 78.7081 165.014 78.7081 165.008 78.7113Z" fill="#C40C2E"/>
<path id="Vector_129" d="M151.998 73.0629C151.998 73.0629 150.448 70.0674 152.026 68.8416C153.604 67.6189 155.98 69.7751 155.98 69.7751L156.92 72.0382L153.177 73.9744L152.001 73.0597L151.998 73.0629Z" fill="#C40C2E"/>
<path id="Vector_130" d="M153.174 74.0123L151.973 73.0757C151.957 73.0443 150.43 70.0425 152.007 68.8167C153.585 67.5908 155.974 69.7313 155.999 69.7534L156.006 69.7628L156.958 72.051L156.933 72.0636L153.17 74.0092L153.174 74.0123ZM152.023 73.0443L153.18 73.9432L156.882 72.029L155.955 69.7974C155.833 69.6873 153.551 67.7009 152.045 68.867C150.54 70.0362 151.948 72.8934 152.023 73.0443Z" fill="#C40C2E"/>
<path id="Vector_131" d="M158.838 81.6688C158.838 81.6688 159.862 80.4838 161.029 79.7358C162.195 78.9845 166.092 79.148 167.551 79.3743C169.009 79.6006 173.032 79.9778 174.978 83.8313C176.92 87.688 181.183 97.479 182.402 102.052C183.622 106.626 183.873 107.053 182.591 109.253C181.308 111.457 177.911 113.588 177.911 113.588C177.911 113.588 178.464 115.103 177.26 116.853C176.056 118.604 175.248 118.221 174.673 117.928C174.098 117.636 170.332 116.244 170.332 116.244C170.332 116.244 166.611 116.957 165.347 116.382C164.084 115.807 162.789 114.792 158.303 108.012C153.818 101.232 152.162 93.6914 151.976 91.1518C151.794 88.6121 151.932 87.4931 153.479 85.8272C155.022 84.1613 158.838 81.6657 158.838 81.6657V81.6688Z" fill="white"/>
<path id="Vector_132" d="M168.676 124.061C168.075 126.397 166.821 129.307 167.623 131.699C167.94 132.642 169.389 133.022 170.018 132.149C171.564 129.999 171.225 126.761 171.354 124.228C171.435 122.634 169.037 122.666 168.679 124.061H168.676Z" fill="#C40C2E"/>
<path id="Vector_133" d="M179.925 122.895C180.544 124.237 181.126 125.595 181.657 126.974C182.151 128.251 182.515 129.885 183.851 130.507C184.483 130.803 185.394 130.58 185.677 129.885C186.284 128.389 185.435 126.984 184.753 125.645C184.052 124.265 183.307 122.91 182.515 121.578C181.679 120.17 179.221 121.38 179.925 122.898V122.895Z" fill="#C40C2E"/>
<path id="Vector_134" d="M189.864 115.159C190.867 115.483 191.866 115.807 192.869 116.131C193.931 116.473 194.862 116.803 195.971 116.47C197.125 116.124 197.159 114.71 196.443 113.962C195.688 113.173 194.553 113.031 193.529 112.818C192.507 112.604 191.483 112.387 190.461 112.173C188.493 111.762 188.05 114.575 189.867 115.159H189.864Z" fill="#C40C2E"/>
<path id="Vector_135" d="M159.812 80.4714C158.262 80.9177 156.82 81.9613 155.565 82.9451C154.299 83.9383 153.06 85.0353 152.18 86.3963C150.439 89.0837 150.826 92.4312 151.769 95.3323C152.969 99.0318 154.987 102.492 156.719 105.963C157.59 107.707 158.46 109.455 159.331 111.199C160.016 112.576 160.679 113.996 161.729 115.141C163.986 117.605 167.846 117.85 170.939 117.19C171.725 117.023 171.36 115.911 170.668 115.895C168.83 115.857 167.041 116.209 165.231 115.675C163.354 115.122 162.242 113.66 161.355 112.004C159.397 108.348 157.64 104.573 155.789 100.864C154.101 97.4791 151.885 93.5124 152.495 89.5866C153.142 85.4345 157.37 83.7246 160.299 81.4238C160.783 81.0435 160.412 80.2985 159.812 80.4714Z" fill="#C40C2E"/>
<path id="Vector_136" d="M169.458 115.634C170.401 116.781 171.743 117.539 173.01 118.284C174.035 118.887 175.17 119.535 176.348 118.941C178.596 117.809 178.558 113.981 177.844 111.988C177.593 111.287 176.493 111.501 176.556 112.258C176.666 113.613 177.442 117.256 175.449 117.665C174.591 117.841 173.425 116.885 172.702 116.442C171.838 115.911 170.995 115.323 170.037 114.971C169.66 114.833 169.141 115.244 169.462 115.637L169.458 115.634Z" fill="#C40C2E"/>
<path id="Vector_137" d="M177.826 114.028C180.846 113.535 182.732 111.055 183.487 108.185C184.455 104.495 183.116 100.66 181.714 97.2719C180.12 93.4121 178.621 89.4423 176.741 85.7082C175.346 82.9359 173.526 80.3522 170.508 79.2678C167.752 78.2777 164.213 77.954 161.579 79.4564C160.771 79.9185 161.591 81.1129 162.399 80.6508C164.932 79.205 168.94 79.8399 171.366 81.2355C174.667 83.1371 176.087 87.6507 177.48 90.9479C178.347 93.0066 179.221 95.0654 180.086 97.1242C180.988 99.2741 181.902 101.484 182.226 103.81C182.742 107.512 181.381 111.661 177.634 113.129C177.172 113.312 177.285 114.116 177.823 114.028H177.826Z" fill="#C40C2E"/>
<path id="Vector_138" d="M150.373 78.0606C151.3 80.2199 152.281 82.3164 153.337 84.4161C153.802 85.3433 155.1 84.7052 154.616 83.7623C153.538 81.6721 152.422 79.6479 151.219 77.6268C150.942 77.1648 150.156 77.5577 150.37 78.0606H150.373Z" fill="#C40C2E"/>
<path id="Vector_139" d="M151.153 78.0702C152.196 76.3917 152.866 74.817 154.632 73.7232C155.597 73.126 156.697 72.7425 157.807 72.5225C158.891 72.3088 160.007 72.3999 161.079 72.1956C161.751 72.0699 161.905 71.1018 161.157 70.9383C158.781 70.4134 155.663 71.3218 153.67 72.6325C152.027 73.7106 150.09 75.7977 150.461 77.9382C150.524 78.3028 150.955 78.3877 151.15 78.0733L151.153 78.0702Z" fill="#C40C2E"/>
<path id="Vector_140" d="M162.502 72.0983C162.512 72.0511 162.521 72.0071 162.534 71.96C162.572 71.7871 162.474 71.6174 162.323 71.5356C161.959 71.3345 161.497 71.369 161.251 71.7525C160.887 72.3277 161.387 72.9752 161.692 73.4341C162.32 74.3771 162.92 75.3263 163.471 76.3195C164.021 77.3128 164.401 78.5669 165.221 79.3621C165.576 79.7079 166.155 79.3621 166.133 78.9064C166.07 77.7025 165.114 76.3667 164.486 75.3703C164.109 74.7731 163.706 74.1948 163.288 73.6258C163.078 73.343 162.864 73.0601 162.644 72.7835C162.553 72.6766 162.462 72.5666 162.37 72.4597C162.308 72.2397 162.188 72.1768 162.009 72.2743C162.188 72.4157 162.452 72.334 162.502 72.1045V72.0983Z" fill="#C40C2E"/>
<path id="Vector_141" d="M153.104 73.4024C152.639 72.1891 150.8 69.7531 152.875 68.9893C154.635 68.3418 155.628 70.7778 156.103 71.9879C156.442 72.8523 157.81 72.3745 157.467 71.5039C156.641 69.4011 154.824 66.4434 152.108 67.7604C149.499 69.0271 150.452 72.4908 152.378 73.899C152.724 74.1504 153.277 73.8581 153.104 73.4024Z" fill="#C40C2E"/>
<path id="Vector_142" d="M153.589 78.0323C153.881 77.564 154.233 77.124 154.613 76.7216C154.943 76.3696 155.537 76.0584 155.701 75.5932C155.801 75.3072 155.638 75.0683 155.336 75.0526C154.739 75.0243 154.167 75.7064 153.815 76.1244C153.394 76.6242 153.117 77.1837 152.913 77.7997C152.775 78.2178 153.391 78.3467 153.592 78.0292L153.589 78.0323Z" fill="white"/>
<path id="Vector_143" d="M154.852 79.3998C155.1 79.1201 155.364 78.856 155.641 78.6046C155.914 78.3563 156.226 78.1394 156.458 77.8471C156.719 77.517 156.405 76.9576 155.971 77.1336C155.185 77.4542 154.629 78.2714 154.249 78.9943C154.051 79.3684 154.582 79.7047 154.855 79.3967L154.852 79.3998Z" fill="white"/>
<path id="Vector_144" d="M170.235 113.623C170.515 112.95 171.052 112.287 171.627 111.847C172.224 111.394 172.903 111.234 173.595 110.992C173.969 110.863 173.95 110.253 173.538 110.193C171.618 109.92 169.996 111.708 169.735 113.453C169.691 113.739 170.115 113.915 170.238 113.623H170.235Z" fill="#C40C2E"/>
<path id="Vector_145" d="M179.058 109.785C181.016 108.201 181.274 105.727 180.692 103.395C180.287 101.77 179.611 100.201 179.017 98.6359C178.476 97.2151 178.077 95.5147 177.2 94.2668C176.949 93.9085 176.32 94.0971 176.373 94.556C176.505 95.7253 177.077 96.8568 177.492 97.9569C177.979 99.2488 178.479 100.537 178.96 101.832C179.837 104.202 180.617 107.22 178.57 109.235C178.272 109.527 178.734 110.052 179.064 109.785H179.058Z" fill="#C40C2E"/>
<path id="Vector_146" d="M166.432 82.3607C168.402 82.6341 169.653 83.5425 170.766 85.2021C171.684 86.5757 172.253 88.2824 173.403 89.4768C173.708 89.7943 174.139 89.3857 174.048 89.0368C173.78 88.0027 173.12 87.0471 172.589 86.1262C172.07 85.2272 171.524 84.3377 170.807 83.5802C169.723 82.433 168.022 81.4523 166.4 81.886C166.164 81.9489 166.199 82.3292 166.435 82.3607H166.432Z" fill="#C40C2E"/>
<path id="Vector_147" d="M154.073 90.5927C154.032 90.5393 153.969 90.489 153.931 90.4544C153.843 90.3664 153.699 90.3538 153.585 90.3884C153.13 90.533 153.07 91.0768 153.416 91.3785C153.589 91.5294 153.815 91.6017 154.025 91.6897C154.283 91.7966 154.55 91.9286 154.83 91.9631C155.324 92.0229 155.528 91.4068 155.104 91.1522C154.849 90.9982 154.535 90.9385 154.249 90.8599C154.186 90.841 153.985 90.7467 153.925 90.7656C153.871 90.7342 153.862 90.7719 153.9 90.8819C153.868 91.0076 153.878 91.0391 153.931 90.9762C153.975 90.9573 154.007 90.8882 154.025 90.8473C153.941 90.9039 153.856 90.9636 153.768 91.0202C153.783 91.0202 153.796 91.0202 153.812 91.0202C153.739 90.9951 153.667 90.973 153.595 90.9479C153.607 90.9573 153.62 90.9699 153.633 90.9793C153.878 91.1962 154.28 90.8599 154.069 90.5896L154.073 90.5927Z" fill="#C40C2E"/>
<path id="Vector_148" d="M154.05 89.7972C154.349 89.9041 154.648 90.0109 154.946 90.1147C155.229 90.2121 155.534 90.3598 155.836 90.3127C156.131 90.2655 156.282 89.9104 156.04 89.6966C155.811 89.4923 155.49 89.4452 155.198 89.376C154.887 89.3006 154.575 89.2314 154.267 89.1591C153.9 89.0743 153.683 89.6683 154.05 89.8003V89.7972Z" fill="#C40C2E"/>
<path id="Vector_149" d="M159.749 83.6522C160.529 85.6764 161.358 87.6786 162.16 89.6934C162.562 90.7023 162.949 91.7176 163.329 92.7328C163.669 93.6349 163.923 94.603 164.492 95.392C164.725 95.7126 165.253 95.5397 165.228 95.1342C165.165 94.163 164.737 93.2577 164.392 92.3556C163.977 91.2681 163.546 90.1869 163.103 89.1119C162.295 87.138 161.418 85.1955 160.437 83.3002C160.233 82.9041 159.586 83.2436 159.746 83.6522H159.749Z" fill="#C40C2E"/>
<path id="Vector_150" d="M161.776 83.8789C163.056 85.3059 163.933 86.9875 164.813 88.6754C165.561 90.1118 166.296 91.8783 167.544 92.9532C167.733 93.1167 168.1 92.9124 167.975 92.6578C167.164 91.0453 166.092 89.5209 165.228 87.921C164.357 86.3117 163.43 84.759 162.176 83.4169C161.905 83.1277 161.522 83.5897 161.776 83.8758V83.8789Z" fill="#C40C2E"/>
</g>
</svg>
