<svg width="25" height="25" viewBox="0 0 25 25" fill="none" xmlns="http://www.w3.org/2000/svg">
<circle cx="12.5" cy="12.5" r="12" stroke="#1E1E1E"/>
<path d="M9.84854 6.81814C9.84854 5.56295 10.8661 4.54541 12.1213 4.54541C13.3765 4.54541 14.394 5.56294 14.394 6.81814V12.8787C14.394 14.1339 13.3765 15.1515 12.1213 15.1515C10.8661 15.1515 9.84854 14.1339 9.84854 12.8787V6.81814Z" fill="#1E1E1E"/>
<path d="M16.6667 8.71208C17.0851 8.71208 17.4243 9.05126 17.4243 9.46965V12.8787C17.4243 15.5503 15.4488 17.7605 12.8788 18.1281V19.6969H13.6364C14.0548 19.6969 14.394 20.0361 14.394 20.4545C14.394 20.8729 14.0548 21.2121 13.6364 21.2121H10.6061C10.1877 21.2121 9.84854 20.8729 9.84854 20.4545C9.84854 20.0361 10.1877 19.6969 10.6061 19.6969H11.3637V18.1281C8.79377 17.7605 6.81824 15.5503 6.81824 12.8787V9.84844C6.81824 9.43004 7.15742 9.09086 7.57581 9.09086C7.99421 9.09086 8.33339 9.43004 8.33339 9.84844V12.8787C8.33339 14.9707 10.0293 16.6666 12.1213 16.6666C14.2133 16.6666 15.9091 14.9707 15.9091 12.8787V9.46965C15.9091 9.05126 16.2483 8.71208 16.6667 8.71208Z" fill="#1E1E1E"/>
</svg>
