<svg width="75" height="68" viewBox="0 0 75 68" fill="none" xmlns="http://www.w3.org/2000/svg">
<mask id="path-1-inside-1_892_2004" fill="white">
<path d="M0.5 34C0.5 15.2223 15.7223 0 34.5 0H40.5C59.2777 0 74.5 15.2223 74.5 34C74.5 52.7777 59.2777 68 40.5 68H34.5C15.7223 68 0.5 52.7777 0.5 34Z"/>
</mask>
<path d="M0.5 34C0.5 15.2223 15.7223 0 34.5 0H40.5C59.2777 0 74.5 15.2223 74.5 34C74.5 52.7777 59.2777 68 40.5 68H34.5C15.7223 68 0.5 52.7777 0.5 34Z" fill="#D9D9D9"/>
<path d="M0.5 34C0.5 14.67 16.17 -1 35.5 -1H39.5C58.83 -1 74.5 14.67 74.5 34C74.5 15.7746 59.2777 1 40.5 1H34.5C15.7223 1 0.5 15.7746 0.5 34ZM74.5 68H0.5H74.5ZM0.5 68V0V68ZM74.5 0V68V0Z" fill="#D1D9E2" mask="url(#path-1-inside-1_892_2004)"/>
<path d="M33.5 26C33.5 24.3431 34.8431 23 36.5 23C38.1569 23 39.5 24.3431 39.5 26V34C39.5 35.6569 38.1569 37 36.5 37C34.8431 37 33.5 35.6569 33.5 34V26Z" fill="#7C8B9D"/>
<path d="M42.5 28.5C43.0523 28.5 43.5 28.9477 43.5 29.5V34C43.5 37.5265 40.8923 40.4439 37.5 40.9291V43H38.5C39.0523 43 39.5 43.4477 39.5 44C39.5 44.5523 39.0523 45 38.5 45H34.5C33.9477 45 33.5 44.5523 33.5 44C33.5 43.4477 33.9477 43 34.5 43H35.5V40.9291C32.1077 40.4439 29.5 37.5265 29.5 34V30C29.5 29.4477 29.9477 29 30.5 29C31.0523 29 31.5 29.4477 31.5 30V34C31.5 36.7614 33.7386 39 36.5 39C39.2614 39 41.5 36.7614 41.5 34V29.5C41.5 28.9477 41.9477 28.5 42.5 28.5Z" fill="#7C8B9D"/>
</svg>
