<?xml version="1.0" encoding="UTF-8"?>
<svg id="Layer_2" data-name="Layer 2" xmlns="http://www.w3.org/2000/svg" viewBox="0 0 104.91 110.54">
  <defs>
    <style>
      .cls-1 {
        fill: #c40c2f;
        stroke-width: 0px;
      }
    </style>
  </defs>
  <g id="Layer_1-2" data-name="Layer 1">
    <g>
      <path class="cls-1" d="m67.6,77.32s.01,0,.02-.01c.01-.01.03-.02.04-.04-.02.02-.04.03-.05.05Zm5.47-.97s-.02.02-.03.03c.02.01.03.02.05.02,0-.02,0-.03-.01-.05Zm4.39,0s.05.03.08.04c0-.02.01-.05.02-.07-.03.01-.07.03-.1.04Zm1.27.4s.01.03.02.04c0,.01.02.03.03.06.02.03.03.05.04.08h0s.04.02.06.03c0-.03,0-.05,0-.08,0-.07,0-.13-.01-.2-.05.02-.09.05-.13.08Zm1.21-1.21c.07,0,.14,0,.21.02.02-.04.05-.06.08-.09-.1,0-.2.02-.29.08Zm3.2.79c-.14.07-.29.13-.43.17.08.03.16,0,.24-.06.08-.07.15-.09.22-.06-.01-.01-.02-.03-.03-.05Zm-15.53,1s.01,0,.02-.01c.01-.01.03-.02.04-.04-.02.02-.04.03-.05.05Zm15.53-1c-.14.07-.29.13-.43.17.08.03.16,0,.24-.06.08-.07.15-.09.22-.06-.01-.01-.02-.03-.03-.05Z"/>
      <path class="cls-1" d="m104.45,37.15c-.36-.21-.76-.32-1.16-.41-.22-.05-.45-.08-.65-.19-.14-.07-.3-.16-.31-.32,0-.16.18-.22.3-.27.27-.11.55-.18.81-.3.41-.18.48-.6.18-.94-.11-.12-.24-.19-.38-.26-.27-.13-.55-.22-.84-.3-1.02-.27-1.81-1.01-2.77-1.4-.1-.04-.23-.15-.19-.29.18-.52-.05-.92-.35-1.31-.1-.14-.06-.21.03-.32.42-.46.42-.76-.03-1.21-.23-.22-.48-.42-.7-.65-.41-.42-.38-.6.19-.73.85-.19,1.39-.78,1.88-1.42.37-.47.12-.94-.45-.99-.36-.03-.7.06-1.05.09-.52.04-.9-.14-1.13-.63-.12-.25-.28-.47-.51-.65-.5-.39-.55-.58-.33-1.17.05-.13.09-.25.14-.38.25-.68.08-1.36-.15-1.96-.31-.86-.85-1.04-1.77-.84-.23.05-.47.1-.7.02-.12-.05-.22-.11-.19-.27.04-.35.07-.7.11-1.04.04-.3.12-.59.34-.81.22-.23.41-.48.6-.74.29-.41.56-.39.82.04.02.04.04.07.06.11.17.24.36.28.56.07.82-.86.69-1.88-.29-2.54-.56-.38-.82-.85-.68-1.5.06-.25.03-.48-.07-.72-.08-.19-.16-.38-.21-.58-.23-1.04-.6-2-1.45-2.72-.15-.13-.27-.31-.4-.47-.32-.36-.66-.7-1.05-1-.41-.32-.85-.54-1.4-.56-.89-.03-1.76-.16-2.56-.61-.05-.03-.12-.04-.18-.04-.47,0-.91-.17-1.36-.28-.65-.15-1.24-.52-1.95-.42-.08.01-.16-.02-.24-.05-.28-.13-.57-.15-.87-.17-.55-.02-1.1-.04-1.64-.23-.5-.18-1.04-.17-1.55.02-.38.14-.76.15-1.15.08-.33-.06-.67-.15-1.01-.08-.4.07-.75,0-1.05-.29-.23-.21-.51-.29-.8-.16-.57.25-1.09.62-1.75.64-.35.36-.91.29-1.25.65-.06.07-.2.14-.27.02-.07-.12.07-.19.16-.21.44-.09.66-.47.97-.73.18-.16.27-.4.11-.61-.26-.34-.39-.72-.46-1.13-.03-.16-.1-.33-.23-.43-.41-.37-.53-.83-.46-1.37.07-.53-.17-1-.56-1.32-.94-.77-1.99-1.16-3.2-.6-.1.05-.21.09-.32.1-.36.05-.65.23-.93.47-.3.26-.58.55-.93.76-.06.04-.11.08-.12.17-.01.27-.18.46-.36.63-.24.24-.37.54-.43.87-.09.58-.02,1.15.09,1.72.04.2.13.36.28.5.4.39.83.73,1.41.83.35.06.46.31.36.65-.03.11-.06.23-.13.31-.43.49-.43,1.13-.55,1.7-.21,1.03-.07,2.05.44,3,.17.33.34.66.53.98.12.2.07.31-.11.43-.23.15-.46.16-.69.01-.18-.11-.34-.25-.45-.42-.31-.47-.69-.87-1.11-1.23-.39-.32-.51-.82-.83-1.18-.58-.66-1.13-1.34-1.71-1.99-.49-.55-1.01-1.05-1.69-1.38-.1-.04-.17-.14-.26-.21-.91-.79-1.75-1.68-2.86-2.22-.1-.05-.19-.13-.26-.21-.23-.26-.52-.43-.82-.59-.42-.22-.84-.44-1.26-.65-1.6-.81-3.23-1.52-5-1.84-.43-.08-.84-.21-1.24-.36-.77-.29-1.54-.61-2.37-.66-1.46-.08-2.91-.32-4.37-.41-1.07-.06-2.14-.13-3.2.06-1.38.25-2.74.56-4.12.81-.68.12-1.34.43-2.06.28-.15-.03-.29.08-.42.16-.16.11-.34.24-.54.21-.42-.06-.82-.08-1.18.2-.05.04-.14.03-.21.03-.17,0-.33.05-.47.14-.14.1-.31.17-.49.17-.74.03-1.41.39-2.13.54-.53.1-1.04.36-1.59.46-.15.02-.3.08-.44.15-.68.37-1.41.64-2.14.9-1.94.69-3.85,1.46-5.57,2.62-.67.45-1.33.9-2.01,1.32-.29.18-.58.36-.79.64-.22.29-.49.52-.81.71-.41.25-.8.51-1.15.83-.75.69-1.7,1.13-2.27,2.02-.08.13-.24.23-.37.32-.3.21-.58.44-.77.75-.56.96-1.46,1.61-2.2,2.39-.71.75-1.37,1.53-1.94,2.4-.15.23-.26.49-.49.66-.28.21-.51.48-.7.78-.26.39-.52.79-.85,1.14-.18.19-.3.42-.31.69-.01.29-.16.53-.37.73-.18.18-.32.38-.37.63-.07.32-.21.6-.41.86-.25.32-.49.64-.45,1.08,0,.09-.05.2-.09.29-.2.34-.32.71-.5,1.06-.37.68-.59,1.41-.85,2.13-.45,1.29-.79,2.6-1.12,3.91-.38,1.5-.63,3.03-.69,4.59,0,.07-.02.14-.03.21-.15.65-.18,1.32-.2,1.98-.02.97.1,1.95.16,2.93h.01c.03.43.08.86.07,1.3-.01,1.07.08,2.14.34,3.18.24.97.29,1.97.63,2.92.41,1.13.87,2.25,1.21,3.4.14.46.48.85.61,1.33.02.06.06.11.1.16.44.49.71,1.08.99,1.66.26.54.49,1.1.91,1.54.78.8,1.44,1.69,2.14,2.55.28.35.56.69.97.89.13.07.23.17.32.29.2.29.44.54.71.76.13.1.25.22.32.37.18.36.46.62.8.84.25.16.49.35.64.61.29.47.65.85,1.13,1.11.12.06.22.16.31.25.48.48,1.06.82,1.68,1.08.69.29,1.37.57,1.95,1.06.11.09.25.15.39.19.58.2,1.11.58,1.77.56.1,0,.22.07.31.13.24.17.51.27.8.31.31.04.6.15.85.33.24.17.51.25.81.27,1.13.07,2.25.25,3.38.28.82.02,1.6.32,2.42.33.66.01,1.32-.01,1.97.01,1.11.04,2.2.3,3.32.14.4-.06.69.22.76.66.04.26.07.54.04.8-.08.87.08,1.63.77,2.23.25.22.45.48.76.61.3.13.55.31.73.59.12.2.33.3.55.38.26.09.51.22.69.44.58.68,1.21,1.28,2.02,1.69.48.24.56.53.32,1.02-.18.37-.23.74-.21,1.14.03.57.11,1.13.04,1.7-.15,1.28-.43,2.53-.23,3.84.09.55-.35.78-.85.48-.38-.23-.77-.25-1.19-.19-.69.1-1.27.45-1.89.73-.47.22-.84.48-.97,1.01-.05.19-.19.37-.29.55-.18.32-.37.64-.49,1-.26.8-.26,1.54.45,2.14.1.08.2.17.22.3.06.38.29.64.52.92.27.32.19.6-.2.75-.27.1-.49.25-.67.47-.66.82-1.41,1.56-2.15,2.31-.32.33-.57.7-.75,1.12-.22.51-.39,1.05-.78,1.46-.68.73-.98,1.59-1.08,2.56-.01.14-.08.26-.17.35-.67.74-1.13,1.62-1.67,2.44-.42.65-.51,1.35-.51,2.09,0,.64.22,1.16.74,1.56.67.52,1.29,1.13,2.17,1.32.22.05.39.22.57.36.68.55,1.56.54,2.25,0,.23-.18.41-.4.48-.69.04-.16.13-.32.32-.33.21-.01.31.14.38.31.06.14.11.28.16.43.1.31.24.59.39.87.15.3.38.48.72.5.37.03.7.15,1.02.33.56.33,1.16.53,1.82.46.17-.02.35.02.52.05.84.19,1.68.02,2.52.06.09,0,.18-.03.27-.06.39-.12.79-.14,1.19-.13.58.02,1.17.07,1.76-.03.87-.15,1.15-.82.65-1.54-.39-.57-.96-.86-1.62-.98-1.37-.24-2.53-.87-3.58-1.77-.18-.16-.39-.31-.61-.42-.4-.21-.67-.53-.86-.93-.2-.41-.37-.83-.59-1.22-.1-.19-.08-.32.04-.47.24-.3.55-.49.88-.66.36-.19.73-.34,1.05-.58,1.16-.89,2.38-1.69,3.59-2.51.83-.56,1.67-.8,2.64-.59.41.09.82.09,1.21-.1.57-.27,1.17-.46,1.76-.66.64-.22,1.19-.58,1.67-1.04.9-.86,1.12-2.1.54-3.07-.37-.62-.35-.74.16-1.24.19-.18.38-.35.58-.51.55-.43,1.07-.88,1.53-1.39,1.45-1.64,2.89-3.29,4.26-5,.27-.34.54-.43.9-.28.7.27,1.48.26,2.17.59.08.04.18.04.27.05.87.09,1.72-.03,2.58-.13.69-.07,1.39-.2,2.05.06.72.28,1.43.35,2.18.28.57-.05,1.08.1,1.5.52.41.4.91.54,1.47.53.51,0,.97-.18,1.42-.4.82-.39,1.49-.27,2.19.35,1.39,1.24,2.86,2.39,4.64,3.06.07.03.13.06.19.1.51.29.55.54.19.98-.06.08-.13.16-.21.23-.8.86-.88,1.52-.31,2.54.15.26.34.5.42.79.17.7.77,1.06,1.29,1.39.61.38,1.32.61,2.09.55.5-.04.71.21.72.71,0,.17-.02.35-.02.52,0,.25-.03.5.07.73.3.71.5,1.46.75,2.19.04.11.06.22.14.31.25.26.39.58.52.9.14.35.34.66.62.91.1.09.2.19.25.31.43.91,1.02,1.74,1.34,2.7.1.3.18.6.32.87.53,1.1,1.45,1.87,2.78,1.3.31-.13.63-.24.95-.36.4-.15.79-.34,1.21-.36.46-.02.81-.25,1.18-.47.36-.22.44-.46.3-.86-.05-.14-.11-.27-.15-.4-.11-.4.07-.58.47-.48.16.04.29.12.4.22.43.4.89.4,1.4.17.31-.14.62-.27.95-.36,1.32-.35,2.59-.82,3.7-1.65.23-.17.5-.27.76-.42.25-.14.56-.19.76-.41.51-.55,1.04-1.08,1.62-1.56.08-.07.14-.16.19-.25.21-.36.18-.74-.02-1.09-.19-.33-.51-.39-.86-.36s-.67.1-1,.2c-.96.28-1.94.38-2.93.36-1.39-.03-2.76-.3-4.15-.34-.57-.02-1.1-.24-1.58-.56-.23-.16-.36-.35-.35-.64.02-.3-.02-.59-.14-.88-.06-.12-.06-.26-.04-.4.07-.44.11-.87-.08-1.3-.05-.11-.04-.25-.02-.37.1-.62.13-1.25.07-1.88-.03-.23.05-.42.26-.55.24-.15.37-.39.42-.66.04-.23.08-.47.1-.7.02-.24.11-.35.38-.35.62,0,1.14-.32,1.41-.82.46-.84.61-1.77.23-2.71-.33-.81-.8-1.53-1.38-2.18-.3-.34-.67-.57-1.13-.65-.25-.04-.48-.11-.72-.18-.29-.08-.46-.26-.5-.56-.08-.63-.4-1.16-.74-1.68-.26-.39-.52-.77-.72-1.18-.32-.65-.26-1.09.27-1.58.44-.41.77-.88,1.04-1.4.55-1.05.96-2.14,1.16-3.31.1-.57.08-1.11-.16-1.63-.21-.46-.42-.92-.65-1.36-.35-.66-.82-1.3-1.61-1.42-.82-.12-1.66-.16-2.49-.12-.84.04-1.63.32-2.39.68-.22.1-.4.25-.55.44-.12.16-.28.27-.48.31-.37.08-1.53-.39-1.69-.74-.13-.28-.34-.43-.58-.56-.43-.24-.49-.51-.18-.9.3-.35.5-.75.69-1.16.1-.23.22-.45.36-.64.35-.46.57-.97.73-1.52.13-.45.29-.88.57-1.26.45-.59.68-.69,1.37-.42.71.27,1.43.36,2.18.34,1.1-.02,1.4-.21,1.72-1.12.03-.09.05-.18.07-.27.07-.34.03-.4-.31-.3-.61.19-1.24.2-1.87.13-.39-.04-.78-.08-1.14-.24-.31-.14-.38-.35-.14-.58.59-.56.83-1.32,1.23-1.98.22-.36.32-.76.37-1.17.06-.43.13-.85.37-1.23.1-.16.13-.35.11-.54-.07-.55-.06-1.11-.03-1.66.02-.24-.03-.47-.12-.7-.36-.92-.74-1.83-1.24-2.69-.29-.5-.63-.94-1.22-1.16-.53-.2-.61-.55-.31-1.04.06-.1.12-.19.19-.28.91-1.12,2.15-1.41,3.51-1.33.22.01.42.12.57.29.61.67,1.34,1.22,2.06,1.77.53.4.98.87,1.3,1.47.3.57.56,1.15.72,1.77.15.56.34,1.12.25,1.7-.05.34-.09.67-.07,1.01.04.47-.02.92-.14,1.38-.13.52-.28,1.03-.38,1.56-.09.49-.27.9-.67,1.21-.2.15-.35.35-.44.58-.06.16,0,.23.16.24.27.01.5-.09.69-.29.26-.28.55-.53.91-.68.16-.06.29-.18.35-.33.35-.87,1.02-1.6,1.17-2.57.04-.3.23-.47.53-.53.32-.07.64-.12.95-.05,1.08.22,2.11.08,3.16-.27.55-.18,1.06-.39,1.49-.77.29-.26.59-.52.93-.72.42-.25.77-.55.93-1.03.03-.08.08-.19.15-.23.41-.21.54-.63.76-.98,1.12-1.85.9-3.7-.01-5.55-.02-.04-.05-.07-.08-.1-.28-.25-.5-.55-.72-.84-.49-.67-1.22-1.08-1.79-1.65-.3-.29-.61-.54-1.04-.63-.19-.04-.35-.16-.51-.29-.12-.09-.25-.19-.41-.21-1.54-.29-3.07-.42-4.46.55-.32.22-.67.36-1.06.4-.12.01-.25.03-.34-.08-.34-.37-.67-.75-.9-1.21-.34-.69-.82-1.27-1.41-1.77-.15-.13-.32-.26-.42-.45-.04-.08-.11-.17-.04-.26.07-.07.16,0,.23.01.4.11.75.32,1.12.51.5.26,1.01.46,1.58.51.3.03.5-.04.6-.34.08-.26.28-.33.54-.29.13.02.27.04.39.08.94.36,1.9.56,2.9.39,1.76.27,3.36-.43,5-.86.23-.06.4-.2.44-.46.03-.26-.1-.44-.28-.58-.25-.19-.52-.33-.8-.46-.21-.1-.41-.19-.58-.34-.11-.09-.19-.2-.16-.35.03-.15.15-.22.29-.25.2-.04.41-.06.61-.09.88-.1,1.72-.34,2.48-.8.58-.36.55-.85-.04-1.19Zm-11.64,64.11c.04-.1.13-.09.21-.08.3,0,.59.06.88.12.8.16,1.58.45,2.42.42.05,0,.1,0,.15.03.12.04.27.08.27.22,0,.14-.16.13-.27.15-.27.06-.54.11-.74.15-.99.04-1.86-.07-2.63-.62-.07-.05-.14-.11-.21-.18-.06-.06-.12-.12-.09-.21Zm3.89-75.77c.33.73.85,1.2,1.58,1.46.09.03.21.05.22.15,0,.12-.12.15-.21.19-.19.09-.4.11-.59.13-.35.02-.68-.05-.94-.31-.11-.11-.25-.19-.4-.22-.35-.06-.67-.2-.95-.42-.14-.1-.29-.16-.45-.04-.16.12-.1.28-.06.43.12.41.04.77-.24,1.09-.18.22-.4.25-.58.05-.5-.54-.72-.44-1.26.1-.49.49-1.11.68-1.8.68-.21,0-.32-.12-.32-.29,0-.56-.35-.66-.84-.63-.67.05-1.34.02-1.99-.17-.35-.1-.66-.29-.89-.58-.05-.07-.15-.15-.11-.24.04-.1.17-.04.25-.04.41.04.82.1,1.2.26.26.11.52.13.78.03.5-.19,1.03-.28,1.56-.38.95-.19,1.59-.77,2.06-1.58.06-.1.12-.22.19-.32.11-.18.26-.24.47-.16.14.06.29.09.43.16.54.24,1.08.25,1.65.08.73-.23.96-.14,1.27.55Zm-28.11-21.34c-.03-.48.09-.86.37-1.17.63-.71,1.38-1.23,2.32-1.42.35-.07.7-.06,1.03.1.48.23.63.71.26,1.08-.8.79-1.7,1.45-2.78,1.83-.26.09-.53.06-.79.02-.29-.04-.45-.19-.41-.44Zm-31.12,102.85c.18.15.39.27.58.4.11.07.23.18.2.32-.04.16-.21.13-.32.15-.22,0-.4-.07-.57-.18-.89-.59-1.62-1.35-2.35-2.12-.16-.16-.26-.37-.2-.62.07-.28.23-.35.48-.2.24.14.43.35.58.58.44.65.99,1.18,1.59,1.67Zm1.85-8.92c-1.03.32-1.89.93-2.76,1.54-.51.36-1.14.52-1.62.92-.41.34-.9.59-1.22,1.01-.29.38-.77.56-1.03.96-.05.07-.16.11-.25.04-.07-.07-.04-.15-.01-.23.07-.2.21-.35.34-.51.73-.92,1.68-1.6,2.63-2.27.38-.27.76-.53,1.06-.89.11-.13.26-.24.42-.3.61-.26,1.18-.57,1.74-.94.14-.1.31-.16.54-.17.21.03.55-.02.64.29.1.34-.22.48-.46.56Zm9.18-2.91c-.22.39-.51.73-.92.93-.76.39-1.56.63-2.61.7-.48.03-1.15,0-1.8-.2-.52-.15-1.05-.23-1.58-.19-.44.02-.83-.1-1.17-.38-.26-.21-.54-.38-.81-.57-.31-.22-.58-.46-.69-.84-.01-.04-.02-.09-.05-.11-.45-.33-.7-.9-1.26-1.09-.39-.12-.65-.37-.81-.74-.21-.49-.61-.82-.99-1.18-.53-.49-.98-1.03-1.31-1.69-.34-.7.06-2.19.87-2.48.28-.1.53-.28.82-.36.57-.16.93,0,.97.59.05.74.45,1.23.95,1.69.39.35.74.74.99,1.22.04.07.08.15.14.2.52.37.88.93,1.45,1.23.19.1.35.25.51.39.37.35.76.67,1.21.89.26.13.49.3.7.51.39.4.88.51,1.41.49.61-.02,1.23-.14,1.85,0,.54.12,1.09.18,1.66.17.62-.01.78.28.47.82Zm39.8,2.5c-.08-.16-.12-.33-.13-.5-.02-.3-.04-.6-.05-.89-.02-.37-.1-.74-.04-1.11.02-.14.03-.33.23-.35.18-.02.31.1.38.26.06.13.11.27.14.4.13.6.14,1.2.06,1.81-.02.12-.05.24-.09.36-.04.13-.09.29-.24.3-.15.01-.2-.15-.26-.27Zm.94,4.72s-.05-.07-.06-.11c-.21-1.01-.6-1.99-.69-3.06,0-.19.01-.4.02-.62,0-.07.03-.15.12-.15.08,0,.1.06.12.12.23.89.7,1.69.99,2.55.08.25.18.5.21.77.02.13.02.27-.03.4-.05.15-.09.34-.28.37-.2.02-.32-.11-.41-.27Zm1.02,3.41c-.32.02-.64-.27-.67-.6-.02-.31.22-.53.61-.56.26-.02.53.28.56.61.03.3-.18.52-.5.54Zm-.73-17.35c.27-.29.61-.45.99-.55.4-.1.66-.31.8-.72.12-.39.47-.45.77-.17.89.83,1.17,2.1.7,3.23-.14.34-.42.59-.68.84-.28.27-.58.53-.82.84-.39.51-.91.84-1.52,1-1.06.3-2.09.69-3.05,1.24-.48.28-1,.44-1.56.41-.72-.03-1.34.27-1.98.54-.58.25-1.18.4-1.8.23-1.17-.32-1.96-1.11-2.38-2.2-.26-.66.04-1.35.52-1.88.46-.51,1.1-.64,1.7-.44.68.23,1.33.22,2.01.11,1.18-.18,2.37-.33,3.44-.91.29-.15.57-.33.86-.49.22-.12.43-.27.66-.31.55-.1.96-.39,1.33-.79Zm-8.22-12.2c.03.1.09.16.18.22-.05.02-.11.03-.16.04l-.02-.26Zm1.31,1.66c.32-.27.71-.44,1.08-.66.57-.35.7-.58.56-1.12.08-.08.16-.16.24-.24.03.16.05.33.08.51.16-.08.21-.18.19-.32-.02-.15-.02-.3-.03-.45.06-.07.12-.13.18-.2.1,0,.14.06.15.17,0,.07-.04.2.07.2.12,0,.11-.13.07-.22-.1-.2.07-.19.16-.18.43.07.52-.3.69-.53.19-.24.21-.53.04-.81-.24-.4-.46-.83-.97-.97-.06-.02-.1-.07-.15-.11-.31-.27-.28-.5.11-.62.45-.14.92-.23,1.39-.29.2-.02.39.01.57.1.31.15.63.15.97.08.64-.14.89-.04,1.22.54.23.4.42.82.62,1.24.24.51.19,1.05.07,1.58-.17.76-.42,1.49-.92,2.1-.16.19-.28.41-.32.66-.06.34-.28.59-.53.81-.43.38-.84.75-.96,1.36-.05.26-.31.43-.5.62-.6.6-1.31.95-2.16.99-.53.03-.99.25-1.44.51-.71.39-1.39.85-2.21,1-.37.06-.74.09-1.11.1-.97,0-1.9.17-2.81.51-.89.34-1.79.46-2.75.31-.79-.13-1.63-.04-2.38.24-1.33.49-2.65.37-3.98.07-.71-.16-1.4-.41-2.1-.61-.57-.17-1.14-.23-1.74-.17-1.49.14-2.98.13-4.45-.23-.42-.1-.81-.24-1.16-.49-.7-.51-1.51-.52-2.31-.51-1.09,0-2.11-.28-3.13-.63-.26-.09-.48-.24-.67-.43-.52-.51-1.15-.81-1.86-.9-.92-.12-1.71-.56-2.54-.92-.21-.08-.35-.26-.47-.43-.3-.4-.69-.65-1.17-.76-.9-.21-1.74-.55-2.59-.92-.3-.13-.56-.29-.75-.56-.23-.33-.54-.5-.93-.54-.46-.05-.87-.24-1.23-.53-.75-.6-1.54-1.13-2.31-1.7-.35-.26-.69-.53-.99-.84-.14-.14-.29-.25-.46-.35-.77-.46-1.5-.98-2.1-1.66-.17-.18-.24-.38-.2-.61.06-.35-.04-.65-.22-.94-.27-.43-.2-.81.28-.98,1.04-.35,2.06-.79,3.12-1.07.45-.12.8.02,1.04.45.17.31.41.57.69.79,1.57,1.26,3.08,2.61,4.69,3.82.37.27.76.49,1.19.64.47.16.9.4,1.32.66,1.57.97,3.23,1.76,4.96,2.41,1.72.66,3.49,1.18,5.18,1.92,1.35.59,2.76.88,4.21,1.02,1.69.18,3.37.38,5.04.72,1.7.35,3.44.34,5.17.25,1.21-.07,2.41,0,3.61-.08.53-.04,1.06-.1,1.59-.22.18-.04.38-.07.53-.16.41-.26.84-.38,1.31-.39.11,0,.22-.05.31-.11.79-.55,1.72-.78,2.59-1.15.47-.2.92-.4,1.31-.74Zm-13.21-9.29c-.61-.26-1.28-.36-1.9-.62-1.05-.44-2.12-.84-3.18-1.28-.88-.36-1.68-.87-2.5-1.34-1-.57-1.94-1.23-2.88-1.88-1.97-1.34-3.73-2.91-5.19-4.81-.33-.43-.65-.88-.85-1.39-.07-.18-.13-.37-.14-.59-.04-.28.07-.55.27-.77.45-.52.88-1.06,1.16-1.7.07-.17.19-.37.43-.34.23.02.34.19.41.38.13.33.33.62.58.86.13.12.22.27.3.43.78,1.66,1.98,3,3.25,4.28.84.86,1.74,1.63,2.81,2.21.08.04.14.11.21.17.36.31.71.65,1.18.82.37.13.71.34,1.04.54.58.36,1.17.68,1.8.96.45.2.89.43,1.28.74.4.32.9.43,1.35.65.67.33,1.38.6,2.02.99,1,.6,2.1.89,3.22,1.1.44.09.88,0,1.32-.01.26,0,.52-.03.76.05.32.11.42.32.25.59-.24.39-.47.8-.79,1.14-.28.31-.66.4-1.05.3-1.72-.47-3.49-.78-5.15-1.48Zm3.67,7.77s-.03-.01-.05-.02c.02,0,.03-.02.03-.03,0,.02,0,.03.01.05Zm-5.43.87s-.03.02-.04.04c0,0-.01.01-.02.01.02-.02.04-.03.05-.05Zm9.97-.21c-.07.06-.16.05-.23.03-.04-.02-.06-.04-.07-.07.1.02.2.03.3.04Zm-.17-.72s.07-.02.1-.04c-.01.02-.02.05-.02.07-.03,0-.06-.02-.08-.04Zm.45-.17h0c.06-.03.12-.05.18-.06.06.09.1.18.05.28-.01.03-.17.05-.2.01-.07-.08-.06-.15-.03-.23Zm.86.67s-.02-.04-.03-.06c0-.02-.01-.03-.02-.04.04-.03.09-.06.13-.08,0,.07.01.13.01.2,0,.03,0,.05,0,.08-.02,0-.04-.02-.06-.02h0s-.02-.06-.04-.08Zm1.16-1.31c.09-.06.19-.08.29-.08-.03.03-.05.06-.08.09-.07-.01-.14-.01-.21-.02Zm1.17,1.02c.02.06.05.11.07.16.03.11,0,.15-.07.16-.06,0-.12.01-.17,0,.02-.1.05-.21.05-.32.03,0,.07,0,.11-.01Zm-.12-9.25c0,.06-.01.13-.05.18-.52.68-.81,1.5-1.28,2.21-.46.71-1.17.92-1.95,1-.24.02-.47,0-.7-.1-.19-.08-.24-.2-.13-.39.2-.32.42-.61.69-.87.58-.56,1.11-1.16,1.35-1.96.1-.31.35-.47.67-.51.4-.05.78.02,1.16.08.19.03.23.18.23.35Zm1.38-3.2c-.19.06-.38.08-.58.09-.23,0-.45.03-.77.05-1.14.26-2.29-.22-3.46-.47-1.37-.3-2.65-.88-3.96-1.37-1.31-.49-2.44-1.27-3.64-1.95-.15-.08-.3-.19-.41-.32-.52-.57-1.13-1.05-1.7-1.57-.27-.24-.51-.51-.7-.82-.04-.07-.09-.14-.15-.18-1-.75-1.73-1.72-2.33-2.81-.28-.52-.56-1.03-.85-1.54-.25-.45-.46-.92-.54-1.44,0-.07-.02-.15-.05-.21-.65-1.29-.62-2.67-.6-4.05,0-.6.05-1.19.08-1.79.02-.36.11-.7.25-1.04.28-.71.37-1.47.53-2.22.43-1.95,1.24-3.73,2.3-5.42.35-.56.68-1.12,1.24-1.51.13-.09.26-.21.41-.1.16.11.09.28.03.42-.3.7-.78,1.29-1.23,1.88-.59.76-1.04,1.62-1.33,2.5-.42,1.31-.91,2.6-1.16,3.97-.3,1.62-.3,3.2-.01,4.8.02.13.05.26.06.4.02.7.15,1.36.36,2.05.35,1.15.87,2.2,1.53,3.17.62.92,1.34,1.75,2.05,2.59.42.5.93.89,1.41,1.3.56.49,1.15.96,1.71,1.46.47.42,1,.72,1.57.95.73.3,1.45.58,2.16.92.56.27,1.12.49,1.74.6.43.08.8.33,1.19.5.56.25,1.13.39,1.74.34.14-.01.29-.02.43,0,.72.13,1.43.09,2.13-.13.16-.05.32-.05.49-.03.27.03.4.21.43.45.03.26-.11.43-.35.51Zm.52-12.1c-.36.23-.76.31-1.17.34-.71.06-1.31-.18-1.86-.6-.46-.35-.92-.74-1.23-1.21-.41-.63-.87-1.25-1.09-1.99-.04-.14-.07-.28-.05-.43.02-.09.04-.2,0-.27-.28-.6-.04-1.24-.14-1.85-.04-.24,0-.49.1-.72.09-.22.2-.2.33-.04.18.23.17.5.14.77-.06.46-.16.91-.14,1.38,0,.3.07.57.22.82.18.29.35.58.41.93.04.22.22.37.39.5.35.25.64.55.89.9.19.26.43.44.72.56.26.1.51.21.77.33.43.21.88.29,1.34.13.06-.02.14-.03.21-.03.16,0,.38-.05.44.13.05.17-.13.29-.27.38Zm5.85-6c-.12.19-.26.37-.39.56-.18.27-.19.56-.03.84.04.08.09.16.12.25.12.34.05.48-.3.55-.42.09-.85.16-1.29.08-.4-.07-.5-.23-.43-.62.04-.22.04-.42-.02-.64-.14-.47-.08-.96-.09-1.44,0-.67-.04-1.33-.27-1.98-.07-.2-.18-.5.06-.62.23-.11.41.13.58.3.63.65,1.22,1.33,1.91,1.92.31.26.35.46.15.8Zm3.57,1.52c.56-.46,1.13-.9,1.76-1.25,1.33-.75,2.73-.89,4.12-.25,1.45.68,2.73,1.61,3.62,2.99.34.53.33,1.15.42,1.75.12.72-.05,1.37-.43,1.97-.37.58-.64,1.23-1.12,1.73-.42.44-.93.77-1.48,1.05-.48.25-.95.48-1.42.74-.34.19-.69.25-1.07.17-.42-.09-.83-.07-1.26-.03-.64.07-.9-.12-.9-.7,0-1.36-.57-2.51-1.27-3.62-.44-.68-.99-1.25-1.58-1.8-.65-.59-1.3-1.19-1.69-2.01-.15-.32-.23-.66-.22-1.02,0-.24.06-.46.31-.56.24-.1.46-.05.66.11.21.17.35.4.52.61.35.43.62.46,1.05.11Zm-1.86-3.76c.19.38.44.72.66,1.08.07.11.17.27.06.36-.11.09-.27-.01-.35-.12-.49-.62-1.24-.94-1.73-1.57-.22-.29-.52-.52-.82-.75-.17-.13-.36-.26-.47-.43-.63-.96-1.58-1.6-2.44-2.3-.63-.51-1.23-1-1.69-1.66-.29-.41-.72-.68-1.11-.98-.32-.25-.63-.5-.88-.81-.04-.05-.08-.11-.13-.12-.5-.09-.79-.47-1.13-.78-.16-.15-.34-.27-.54-.36-.89-.41-1.69-.97-2.49-1.53-.08-.05-.15-.12-.24-.14-1.01-.23-1.76-.99-2.72-1.33-1.38-.5-2.79-.87-4.27-.89-.58,0-1.15,0-1.72-.08-.79-.1-1.58.03-2.37.07-1.09.06-2.17.22-3.25.37-.1.02-.21.03-.3.08-.67.35-1.41.45-2.13.63-1.48.36-2.88.93-4.19,1.7-.96.56-1.91,1.17-2.92,1.58-1.52.63-2.72,1.7-4.06,2.56-.16.1-.31.23-.42.4-.75,1.13-1.63,2.15-2.45,3.22-.35.45-.65.92-.8,1.48-.03.13-.12.27.03.36.15.1.31.12.46.02.06-.03.11-.06.15-.11.54-.64,1.32-1.01,1.87-1.65.28-.32.69-.48,1.08-.64.57-.25,1.06-.59,1.34-1.17.06-.12.14-.24.24-.32.7-.55,1.26-1.26,2.05-1.7.7-.39,1.4-.79,2.01-1.33.34-.3.8-.42,1.21-.6,1.5-.66,2.99-1.33,4.52-1.9,1.57-.58,3.14-1.19,4.8-1.48,1.03-.18,2.06-.3,3.1-.23.09,0,.21-.04.24.08.02.1-.07.17-.14.23-.07.06-.14.12-.23.16-.39.21-.77.44-1.19.57-1.27.41-2.29,1.16-3.12,2.18-.65.79-1.41,1.47-2.06,2.26-.32.4-.63.81-.99,1.18-.08.09-.16.2-.21.31-.41.94-.9,1.85-1.51,2.68-.08.11-.13.24-.13.37,0,.34-.15.61-.36.86-.11.12-.22.26-.26.41-.23.74-.69,1.36-1.13,1.98-.22.31-.41.64-.53,1.01-.06.2-.17.37-.28.55-.07.11-.16.23-.2.35-.32,1.08-.98,1.98-1.55,2.92-.27.44-.53.89-.79,1.33-.19.32-.39.63-.66.89-.05.06-.12.12-.15.19-.18.59-.68.94-1.02,1.41-.48.67-1.13,1.2-1.46,1.97-.04.1-.13.13-.21.18-.34.23-.66.51-.88.85-.6.94-1.56,1.54-2.21,2.43-.05.06-.13.1-.2.13-1.06.47-2.07,1.03-2.92,1.82-.18.17-.38.27-.63.28-.28.02-.55.13-.77.29-.95.68-2.04,1.07-3.12,1.46-.16.06-.32.13-.48.22-1.85,1.07-3.86,1.74-5.92,2.24-1.1.27-2.23.48-3.39.4-.22-.01-.45.03-.68.06-.37.06-.74.06-1.1-.04-.5-.14-1.02-.09-1.54-.09-1.89.03-3.8.12-5.66-.28-1.49-.32-2.95-.76-4.35-1.37-.19-.08-.36-.19-.54-.3-.33-.2-.65-.4-1.02-.5-.26-.07-.49-.23-.69-.4-.57-.48-1.14-.95-1.69-1.44-.25-.22-.52-.41-.86-.45-.23-.03-.39-.17-.55-.35-.65-.73-1.31-1.45-2-2.15-.6-.61-1.17-1.23-1.64-1.96-.33-.51-.69-1-1.12-1.45-.23-.24-.37-.57-.53-.87-.74-1.37-1.56-2.69-2.01-4.2-.2-.67-.37-1.34-.66-1.99-.25-.56-.23-1.21-.46-1.79-.34-.88-.5-1.8-.47-2.64-.03-.74,0-1.38-.24-1.98-.02-.05-.03-.11-.02-.15.17-.62-.05-1.25.04-1.88.05-.35-.05-.69-.13-1.04-.07-.32-.11-.65-.04-.98.06-.33.06-.66.04-.99-.1-1.21.06-2.4.28-3.59.11-.62.19-1.24.38-1.84.07-.24.1-.48.06-.73-.03-.19,0-.36.09-.53.12-.22.16-.47.2-.71.06-.4.17-.78.43-1.1.05-.05.1-.12.1-.19.05-.84.56-1.53.69-2.36.14-.82.47-1.6.83-2.35.74-1.54,1.64-3,2.73-4.31.52-.63,1.04-1.25,1.48-1.94.02-.02.04-.05.06-.07.43-.86,1.1-1.53,1.78-2.17.44-.42.95-.76,1.19-1.35.57-.24.88-.76,1.28-1.18.21-.23.42-.45.57-.73.14-.26.42-.41.66-.6,1.4-1.09,2.81-2.15,4.18-3.27.5-.41,1.02-.71,1.63-.89.66-.2,1.26-.56,1.78-1.02.17-.15.37-.24.58-.27,1.04-.18,2-.62,2.96-1.05.94-.42,1.93-.7,2.93-.97.34-.09.67-.2.95-.43.03-.03.07-.06.1-.06.62-.1,1.18-.38,1.79-.5.09-.02.2,0,.27-.04.8-.45,1.73-.46,2.57-.8.83-.34,1.73-.51,2.61-.73.88-.22,1.78-.34,2.69-.34.43,0,.86-.04,1.29-.11.6-.11,1.2-.11,1.81,0,.88.14,1.79.1,2.67.2.7.08,1.43.1,2.08.45.41.21.87.26,1.31.34.67.12,1.34.26,1.94.6.18.1.37.13.57.12.22,0,.44,0,.64.07,1.52.58,3.14.91,4.52,1.85.41.28.9.4,1.29.72.07.06.17.09.26.09.43.02.76.24,1.04.54.23.25.5.45.83.58.32.12.55.36.77.61.49.55.98,1.08,1.62,1.47.18.11.34.27.46.45.45.65,1.03,1.17,1.61,1.69.73.65,1.42,1.34,1.94,2.19.13.23.33.41.51.62.09.1.17.21.14.36-.03.17-.11.33-.27.39-.17.06-.29-.06-.4-.17-.76-.73-1.53-1.47-2.29-2.2-.25-.24-.52-.47-.82-.65-.08-.05-.16-.1-.2-.18-.26-.49-.68-.82-1.13-1.12-.99-.64-1.95-1.3-2.86-2.05-.2-.16-.42-.31-.68-.33-.09,0-.2-.01-.25.08-.05.08.02.16.06.23.07.14.21.22.32.32.59.49,1.23.93,1.72,1.54.14.18.33.31.52.44.35.23.68.46.86.86.02.05.06.08.1.11.95.74,1.76,1.62,2.55,2.51.86.96,1.83,1.82,2.76,2.7.23.23.47.47.65.74.54.82,1.27,1.48,1.97,2.16.11.11.23.23.36.28.43.16.54.53.67.89.02.07.03.14.09.19.67.49,1.05,1.23,1.57,1.85.22.25.43.5.71.68.15.1.31.22.4.38.5.86,1.23,1.52,1.88,2.24.41.44.7.97,1.09,1.41.82.92,1.27,2.13,2.36,2.82.43.27.74.68.94,1.16.09.22.29.37.48.52.46.36.86.76,1.07,1.33.11.28.34.47.58.63.3.21.55.47.75.77.39.6.88,1.14,1.24,1.77.03.06.08.13.14.16.48.26.73.71.99,1.16.13.22.3.42.53.55.2.11.22.34.36.49.36.38.73.72,1.12,1.07.56.5,1.09,1.03,1.54,1.64.31.42.68.77,1.07,1.11.3.26.54.56.72.92Zm11.76-5.75c-.78.2-1.57.16-2.36.06-.18-.02-.35-.02-.53,0-.5.05-.71.4-.55.88.1.28.31.45.54.61.29.2.61.36.86.6.39.37.36.62-.11.87-.53.28-1.11.29-1.69.24-.97-.08-1.95-.11-2.92-.24-.99-.14-1.79-.58-2.35-1.43-.12-.18-.26-.35-.4-.5-.12-.13-.27-.23-.44-.27-.22-.05-.44-.07-.62.08-.17.16-.09.38-.03.55.08.23.19.46.29.68s.21.45.22.7c0,.09.04.2-.07.24-.11.05-.2,0-.28-.07-.07-.07-.14-.15-.21-.23-.08-.11-.18-.21-.32-.23-.33-.05-.56-.25-.76-.49-.36-.43-.72-.87-1.09-1.31-.27-.31-.4-.69-.51-1.08-.05-.2-.11-.4-.24-.57-.22-.31-.6-.31-.83,0-.12.17-.2.36-.32.53-.26.4-.68.39-.89-.04-.19-.37-.27-.76-.17-1.19.11-.46.04-.92-.07-1.37-.07-.28-.29-.36-.55-.33-.23.03-.44.09-.67.13-.42.06-.48.03-.56-.39-.11-.54-.07-1.08-.06-1.63,0-.17.01-.35-.03-.52-.04-.16-.11-.29-.29-.33-.19-.03-.32.05-.41.21-.05.09-.09.18-.13.28-.05.13-.1.27-.15.4-.12.26-.25.54-.59.49-.35-.06-.33-.38-.36-.64-.04-.26-.06-.53-.08-.8-.04-.33-.03-.65.1-.97.1-.25.09-.51.09-.76.01-.43.06-.84.31-1.21.09-.13.18-.3.04-.42-.15-.13-.35-.09-.51.03-.2.14-.29.35-.4.55-.11.21-.23.42-.44.54-.16.09-.25.06-.27-.13-.03-.38.04-.74.16-1.09.07-.21.14-.42.25-.59.3-.47.37-1.02.57-1.52.04-.1.1-.24-.02-.32-.09-.07-.22-.02-.32.03-.18.09-.29.24-.37.41-.21.42-.43.84-.7,1.23-.23.33-.26.75-.35,1.15-.09.35-.15.7-.38,1-.11.14-.23.28-.43.24-.21-.04-.31-.2-.34-.4-.13-.79.05-1.53.41-2.23.07-.14.13-.27.14-.43,0-.35.17-.62.45-.84.18-.15.37-.3.53-.47.19-.2.22-.44.06-.68-.17-.25-.4-.15-.61-.05-.25.13-.51.27-.77.39-.13.06-.3.09-.4-.03-.11-.12.02-.25.08-.36.05-.11.12-.22.2-.31.66-.67,1.16-1.48,1.89-2.07.21-.17.37-.4.38-.68,0-.21.11-.36.26-.47.56-.4,1.06-.84,1.52-1.35.38-.42.68-.37.97.12.22.37.54.61.94.77.18.07.36.07.46-.11.1-.17-.07-.28-.18-.38-.12-.11-.26-.2-.38-.32-.14-.15-.14-.33-.06-.52.08-.2.25-.13.4-.11.34.05.39,0,.4-.35,0-.35-.09-.67-.17-1-.09-.41.03-.76.32-1.04.89-.88,1.9-1.54,3.13-1.82.37-.08.71-.07,1.09-.03.61.07,1.16.19,1.66.56.19.14.52.03.59-.16.09-.23,0-.42-.2-.56-.28-.18-.55-.36-.83-.54-.22-.15-.47-.18-.74-.17-.35.02-.7.04-1.05.06v.04c-.33.02-.66.02-.99.06-.56.06-1.07.23-1.53.59-.35.27-.76.46-1.14.68-.38.22-.74.45-1.01.8-.26.35-.5.71-.41,1.18.05.27-.08.45-.34.49-.58.1-.99.44-1.41.83-.95.89-2.08,1.55-3.11,2.33-.66.49-1.29,1.01-1.94,1.53-.09.07-.17.15-.25.23-.45.48-.43.79.05,1.22.42.38.43.56.08,1.02-.13.16-.23.34-.35.5-.26.34-.68.4-.86.02-.35-.72-1.11-1.11-1.38-1.87-.02-.07-.08-.16-.15-.19-.61-.29-.94-.89-1.37-1.35-.46-.5-.93-1.01-1.33-1.57-.19-.26-.23-.54-.16-.85.08-.35.22-.69.37-1.02.22-.5.41-1.01.49-1.56.04-.3.2-.56.4-.79.34-.39.62-.82.83-1.29.15-.33.38-.61.63-.87.34-.37.69-.74,1.02-1.11.21-.23.43-.45.72-.57.24-.1.38-.31.51-.52.53-.94,1.31-1.54,2.38-1.76.2-.04.41-.11.58-.21.63-.38,1.32-.57,2.02-.73.5-.11,1.01-.24,1.48-.45.71-.32,1.48-.49,2.23-.57.86-.09,1.75-.29,2.61.11.52.24,1.11.19,1.67.27.49.07.98.11,1.4.42.08.06.2.1.29.09.38-.03.61.19.82.45.57.71,1.01,1.5,1.35,2.35.11.29.18.59.16.91,0,.27.05.53.11.79.14.61,0,.89-.57,1.16-.24.11-.47.22-.58.48-.09.2-.02.32.2.32.13,0,.24-.06.35-.11.45-.21.93-.25,1.42-.22.08,0,.16.02.24.04.24.07.51.17.49.43-.02.24-.31.23-.51.25-.55.05-1.07.19-1.57.42-.57.27-.7.49-.54,1.1.15.58.15,1.13-.08,1.69-.25.64-.22,1.27.32,1.73.37.32.86.5,1.36.62.18.04.37.05.54.1.36.09.49.3.37.65-.19.56-.56.96-1.16,1.07-.47.09-.95.05-1.42.01-.14-.01-.19-.08-.2-.22,0-.22-.04-.43-.13-.63-.09-.19-.23-.29-.45-.24-.21.05-.26.21-.25.41v.06c.08.51.07,1-.3,1.42-.49.57-1.03,1.04-1.79,1.19-.48.1-.98.16-1.47.16-.84,0-1.51-.34-2.02-1-.11-.15-.21-.31-.37-.41-.17-.12-.35-.14-.53-.05-.18.09-.14.28-.13.44.04.4.28.7.47,1.03.08.13.28.31.16.42-.12.11-.27-.11-.41-.2-.14-.09-.29-.24-.47-.08-.17.15-.08.32,0,.48.23.46.51.87.86,1.24.41.44.9.75,1.52.8.19.02.39.07.58.12.25.07.44.21.53.47.13.38.42.58.79.67,1.06.25,2.1.31,3.07-.31.42-.27.89-.2,1.35-.17.33.03.65.08.98.06.57-.04.85-.28.98-.84.04-.19,0-.46.26-.5.26-.04.28.22.37.38.08.14.19.24.33.32.15.09.31.17.45.27.14.1.26.2.21.41-.05.2-.22.18-.37.2-.33.03-.5.31-.41.67.07.26.25.44.44.63.24.24.34.51.22.84-.21.57-.02.99.41,1.37.47.42,1.02.69,1.59.93.34.14.68.29,1.02.44.08.04.17.08.24.14.08.05.16.12.13.23-.03.1-.14.07-.21.08-.3.02-.6.02-.89.04-.2.01-.39.08-.47.29-.08.2.02.36.14.51.35.42.78.73,1.28.94.35.14.71.28,1.06.43.14.06.29.12.41.2.13.08.3.16.28.33-.02.18-.21.21-.36.25Z"/>
      <path class="cls-1" d="m60.06,23.05c1.17.04,2.45.16,3.71.53.4.12.81.22,1.23.3.39.07.76.18,1.11.37.32.17.66.28,1.02.35.29.05.56.13.76.37.05.06.12.08.19.09.85.14,1.55.58,2.22,1.09.25.19.48.37.81.43.29.05.51.27.72.46.29.25.61.45.97.59.29.11.57.24.75.51.02.02.04.06.07.06.49.1.8.52,1.24.71.15.07.29.16.4.28.28.32.58.61,1,.75.08.03.16.1.21.18.17.26.41.46.65.66.22.18.41.38.47.67.05.22-.02.32-.26.26-.28-.06-.52-.21-.72-.4-.4-.36-.87-.59-1.33-.86-.45-.27-.92-.58-1.31-.95-.1-.1-.21-.19-.34-.2-.71-.04-1.23-.5-1.8-.82-.34-.19-.73-.35-.99-.62-.55-.58-1.29-.83-1.91-1.28-.12-.09-.26-.16-.41-.22-1.42-.52-2.79-1.16-4.24-1.59-1.04-.31-2.07-.59-3.16-.64-.72-.03-1.38-.39-2.06-.61-.17-.06-.13-.16-.01-.24.27-.19.58-.21,1.02-.22Z"/>
      <path class="cls-1" d="m86.91,18.9c-.06-.79.42-1.28.94-1.75.32-.28.71-.45,1.1-.62.37-.16.74-.32,1.1-.48.25-.12.51-.15.78-.07.46.13.87.37,1.23.68.09.08.17.19.21.3.1.25.08.54-.13.68-.2.14-.38-.09-.53-.25-.06-.06-.1-.13-.15-.2-.34-.49-.91-.59-1.4-.25-.11.08-.22.16-.3.27-.26.31-.58.49-.98.6-.57.16-.87.62-1.04,1.17-.02.08-.03.16-.05.24-.04.19-.06.41-.32.41-.25,0-.35-.18-.41-.39-.03-.11-.04-.22-.06-.33Z"/>
      <path class="cls-1" d="m90.21,20.91c-.05-.78.5-1.38,1.3-1.41.35-.01.53.09.54.44.03.7-.01,1.4-.21,2.07-.15.49-.73.58-1.1.22-.28-.27-.49-.81-.53-1.32Z"/>
      <path class="cls-1" d="m87.72,20.56c.08,0,.13,0,.18,0,.29.02.6.22.56.39-.05.26-.3.33-.5.32-.81,0-1.27.55-1.79,1.03-.11.11-.17.26-.23.4-.07.15-.13.3-.25.42-.13.13-.29.17-.45.11-.16-.05-.15-.21-.16-.34-.03-.23.02-.47.15-.65.57-.76,1.18-1.48,2.2-1.64.1-.02.2-.04.28-.05Z"/>
      <path class="cls-1" d="m78.13,76.39s-.17.05-.2.01c-.07-.08-.06-.15-.03-.23h0c.06-.03.12-.05.18-.06.06.09.1.18.05.28Z"/>
    </g>
  </g>
</svg>