<?xml version="1.0" encoding="UTF-8"?>
<svg id="Layer_2" data-name="Layer 2" xmlns="http://www.w3.org/2000/svg" viewBox="0 0 92.25 124.39">
  <defs>
    <style>
      .cls-1 {
        fill: #c40c2f;
        stroke-width: 0px;
      }
    </style>
  </defs>
  <g id="Layer_1-2" data-name="Layer 1">
    <g>
      <g>
        <path class="cls-1" d="m54.78,79.19s0,0,.01,0c0,0,.01-.01.02-.02-.01,0-.02.02-.03.03Zm3.18-.57s-.01.01-.02.02c0,0,.02.01.03.01,0-.01,0-.02,0-.03Zm2.55,0s.03.02.05.02c0-.01,0-.03.01-.04-.02,0-.04.02-.06.02Zm.74.23s0,.02.01.02c0,0,.01.02.02.03,0,.02.02.03.02.05h0s.03.01.04.02c0-.02,0-.03,0-.05,0-.04,0-.08,0-.12-.03.01-.05.03-.08.05Zm.7-.7s.08,0,.12.01c.01-.02.03-.04.04-.05-.06,0-.12.01-.17.04Zm1.86.46c-.08.04-.17.07-.25.1.05.02.09,0,.14-.04.04-.04.09-.05.13-.03,0,0-.01-.02-.02-.03Zm-9.04.58s0,0,.01,0c0,0,.01-.01.02-.02-.01,0-.02.02-.03.03Zm9.04-.58c-.08.04-.17.07-.25.1.05.02.09,0,.14-.04.04-.04.09-.05.13-.03,0,0-.01-.02-.02-.03Z"/>
        <path class="cls-1" d="m76.22,55.81c-.21-.12-.44-.18-.68-.24-.13-.03-.26-.05-.38-.11-.08-.04-.18-.09-.18-.18,0-.09.1-.13.18-.16.16-.06.32-.1.47-.17.24-.11.28-.35.1-.55-.06-.07-.14-.11-.22-.15-.16-.08-.32-.13-.49-.17-.59-.16-1.05-.59-1.61-.81-.06-.02-.14-.09-.11-.17.1-.3-.03-.54-.2-.76-.06-.08-.03-.12.02-.18.25-.27.24-.44-.02-.7-.13-.13-.28-.25-.41-.38-.24-.24-.22-.35.11-.43.49-.11.81-.46,1.09-.83.21-.27.07-.55-.26-.58-.21-.02-.41.04-.61.05-.3.02-.53-.08-.66-.36-.07-.15-.17-.28-.3-.38-.29-.23-.32-.34-.19-.68.03-.07.05-.14.08-.22.15-.39.04-.79-.09-1.14-.18-.5-.49-.6-1.03-.49-.14.03-.27.06-.41,0-.07-.03-.13-.06-.11-.16.03-.2.04-.4.06-.61.02-.18.07-.34.2-.47.13-.13.24-.28.35-.43.17-.24.33-.23.48.02.01.02.02.04.04.06.1.14.21.16.33.04.48-.5.4-1.09-.17-1.48-.32-.22-.48-.49-.39-.88.03-.15.02-.28-.04-.42-.05-.11-.09-.22-.12-.34-.13-.61-.35-1.17-.84-1.59-.09-.08-.15-.18-.23-.27-.19-.21-.39-.41-.61-.58-.24-.19-.49-.32-.82-.33-.52-.02-1.03-.09-1.49-.35-.03-.02-.07-.02-.1-.03-.27,0-.53-.1-.79-.16-.38-.09-.72-.3-1.13-.24-.04,0-.1-.01-.14-.03-.16-.08-.33-.09-.51-.1-.32-.01-.64-.02-.96-.13-.29-.1-.6-.1-.9.01-.22.08-.44.09-.67.05-.19-.04-.39-.09-.59-.05-.24.04-.43,0-.61-.17-.13-.12-.3-.17-.47-.09-.33.15-.64.36-1.02.37-.2.21-.53.17-.73.38-.04.04-.12.08-.15.01-.04-.07.04-.11.09-.12.26-.05.39-.27.56-.43.11-.09.16-.23.06-.35-.15-.2-.23-.42-.27-.66-.02-.1-.06-.19-.13-.25-.24-.22-.31-.48-.27-.8.04-.31-.1-.58-.32-.77-.55-.45-1.16-.68-1.86-.35-.06.03-.12.05-.19.06-.21.03-.38.14-.54.27-.18.15-.34.32-.54.44-.04.02-.07.05-.07.1,0,.16-.11.26-.21.37-.14.14-.21.31-.25.51-.05.34-.01.67.05,1,.02.12.08.21.16.29.23.23.48.42.82.49.2.04.27.18.21.38-.02.06-.04.13-.08.18-.25.28-.25.66-.32.99-.12.6-.04,1.19.25,1.74.1.19.2.38.31.57.07.12.04.18-.06.25-.13.09-.27.09-.4,0-.1-.06-.2-.14-.26-.24-.18-.27-.4-.51-.65-.72-.22-.19-.3-.47-.48-.69-.34-.38-.66-.78-.99-1.16-.28-.32-.59-.61-.98-.8-.06-.03-.1-.08-.15-.12-.53-.46-1.02-.98-1.67-1.29-.06-.03-.11-.07-.15-.12-.13-.15-.3-.25-.48-.34-.25-.13-.49-.26-.73-.38-.93-.47-1.88-.88-2.91-1.07-.25-.05-.49-.12-.72-.21-.45-.17-.89-.35-1.38-.38-.85-.05-1.69-.18-2.54-.24-.62-.04-1.24-.08-1.86.03-.8.15-1.6.32-2.4.47-.4.07-.78.25-1.2.16-.09-.02-.17.04-.25.09-.09.06-.2.14-.31.12-.24-.03-.47-.05-.69.12-.03.02-.08.02-.12.02-.1,0-.19.03-.27.08-.08.06-.18.1-.28.1-.43.02-.82.23-1.24.31-.31.06-.61.21-.93.27-.09.01-.18.04-.25.09-.4.21-.82.37-1.24.52-1.13.4-2.24.85-3.24,1.52-.39.26-.78.52-1.17.77-.17.1-.34.21-.46.37-.13.17-.29.3-.47.41-.24.14-.47.3-.67.48-.43.4-.99.66-1.32,1.18-.05.08-.14.13-.22.19-.17.12-.34.26-.45.44-.33.56-.85.94-1.28,1.39-.41.44-.8.89-1.13,1.39-.09.13-.15.29-.29.39-.17.12-.3.28-.41.45-.15.23-.3.46-.49.66-.1.11-.17.24-.18.4,0,.17-.09.31-.21.42-.1.1-.19.22-.22.37-.04.19-.12.35-.24.5-.14.18-.28.37-.26.63,0,.05-.03.12-.05.17-.12.2-.18.42-.29.62-.22.4-.35.82-.49,1.24-.26.75-.46,1.51-.65,2.28-.22.87-.37,1.76-.4,2.67,0,.04-.01.08-.02.12-.08.38-.11.77-.11,1.15-.01.57.06,1.14.09,1.7h0c.02.25.05.5.04.75,0,.63.04,1.24.2,1.85.14.56.17,1.15.37,1.7.24.66.51,1.31.7,1.98.08.27.28.5.35.77,0,.03.04.07.06.09.26.29.42.63.58.97.15.31.29.64.53.89.45.46.84.99,1.25,1.48.16.2.33.4.56.52.08.04.13.1.18.17.12.17.26.31.42.44.08.06.14.13.19.22.11.21.27.36.47.49.15.09.28.21.37.35.17.27.38.49.66.65.07.04.13.09.18.15.28.28.62.48.98.63.4.17.8.33,1.13.62.06.05.14.09.22.11.34.12.65.34,1.03.33.06,0,.13.04.18.08.14.1.3.16.47.18.18.02.35.09.5.19.14.1.3.15.47.16.66.04,1.31.15,1.97.17.48.01.93.18,1.41.19.38,0,.77,0,1.15,0,.64.02,1.28.17,1.93.08.23-.03.4.13.44.38.02.15.04.31.03.46-.05.5.05.95.45,1.3.14.13.26.28.44.36.18.07.32.18.43.35.07.11.19.18.32.22.15.05.3.13.4.25.34.4.7.75,1.18.98.28.14.33.31.19.59-.1.21-.13.43-.12.66.02.33.06.66.02.99-.09.74-.25,1.47-.13,2.23.05.32-.2.45-.49.28-.22-.13-.45-.15-.69-.11-.4.06-.74.26-1.1.43-.27.13-.49.28-.57.59-.03.11-.11.21-.17.32-.11.19-.22.37-.29.58-.15.46-.15.9.26,1.24.06.05.12.1.13.17.03.22.17.37.3.54.16.19.11.35-.12.43-.16.06-.29.14-.39.27-.38.48-.82.91-1.25,1.34-.19.19-.33.41-.44.65-.13.3-.23.61-.45.85-.39.42-.57.93-.63,1.49,0,.08-.05.15-.1.21-.39.43-.66.94-.97,1.42-.25.38-.3.79-.29,1.22,0,.37.13.68.43.91.39.3.75.66,1.26.77.13.03.23.13.33.21.39.32.91.32,1.31,0,.14-.11.24-.23.28-.4.03-.1.07-.19.19-.19.12,0,.18.08.22.18.03.08.07.16.09.25.06.18.14.34.23.51.09.17.22.28.42.29.21.02.41.09.59.19.33.19.67.31,1.06.27.1-.01.21.01.3.03.49.11.98.01,1.47.04.05,0,.11-.02.16-.03.23-.07.46-.08.69-.08.34.01.68.04,1.02-.02.51-.09.67-.47.38-.9-.23-.33-.56-.5-.95-.57-.8-.14-1.47-.51-2.08-1.03-.11-.09-.23-.18-.35-.25-.23-.12-.39-.31-.5-.54-.12-.24-.22-.48-.34-.71-.06-.11-.05-.19.03-.28.14-.17.32-.28.51-.38.21-.11.42-.2.61-.34.68-.52,1.39-.98,2.09-1.46.48-.33.97-.47,1.54-.34.24.05.48.05.7-.06.33-.16.68-.27,1.03-.38.37-.13.69-.34.97-.6.52-.5.65-1.22.32-1.79-.21-.36-.21-.43.1-.72.11-.11.22-.2.34-.29.32-.25.62-.51.89-.81.84-.95,1.68-1.92,2.48-2.91.16-.2.31-.25.52-.16.41.16.86.15,1.26.35.05.02.1.02.16.03.5.05,1-.02,1.5-.08.4-.04.81-.12,1.19.03.42.16.83.2,1.27.17.33-.03.63.06.87.3.24.23.53.31.85.31.3,0,.57-.11.82-.23.48-.22.87-.16,1.28.2.81.72,1.66,1.39,2.7,1.78.04.02.07.04.11.06.3.17.32.31.11.57-.04.05-.08.09-.12.14-.47.5-.51.88-.18,1.48.09.15.2.29.24.46.1.41.45.62.75.81.35.22.77.35,1.22.32.29-.02.41.12.42.41,0,.1-.01.2-.01.3,0,.14-.02.29.04.43.18.41.29.85.44,1.27.02.06.03.13.08.18.14.15.23.34.3.53.08.2.2.38.36.53.06.05.11.11.15.18.25.53.59,1.01.78,1.57.06.17.11.35.19.51.31.64.84,1.09,1.62.76.18-.08.37-.14.55-.21.23-.09.46-.2.7-.21.27-.01.47-.14.68-.28.21-.13.26-.27.17-.5-.03-.08-.07-.16-.09-.24-.06-.23.04-.34.27-.28.09.02.17.07.23.13.25.23.52.23.82.1.18-.08.36-.15.55-.21.77-.21,1.51-.48,2.15-.96.13-.1.29-.16.44-.24.15-.08.32-.11.44-.24.3-.32.6-.63.94-.91.04-.04.08-.09.11-.14.12-.21.1-.43-.01-.63-.11-.19-.3-.22-.5-.21s-.39.06-.58.12c-.56.16-1.13.22-1.7.21-.81-.02-1.61-.17-2.42-.2-.33-.01-.64-.14-.92-.33-.13-.09-.21-.21-.2-.37,0-.17-.01-.35-.08-.51-.03-.07-.04-.15-.02-.23.04-.26.07-.51-.05-.76-.03-.06-.02-.14-.01-.21.06-.36.07-.73.04-1.09-.02-.14.03-.24.15-.32.14-.09.21-.23.24-.39.02-.14.04-.27.06-.41.01-.14.06-.21.22-.2.36,0,.66-.19.82-.47.27-.49.35-1.03.13-1.58-.19-.47-.47-.89-.8-1.27-.18-.2-.39-.33-.66-.38-.14-.02-.28-.07-.42-.1-.17-.04-.27-.15-.29-.32-.05-.37-.23-.68-.43-.98-.15-.22-.3-.45-.42-.69-.18-.38-.15-.64.16-.92.25-.24.45-.51.61-.82.32-.61.56-1.24.67-1.92.06-.33.04-.65-.1-.95-.12-.27-.24-.54-.38-.79-.21-.39-.48-.76-.94-.83-.48-.07-.97-.09-1.45-.07-.49.02-.95.19-1.39.39-.13.06-.23.14-.32.26-.07.09-.16.16-.28.18-.22.05-.89-.23-.98-.43-.08-.16-.19-.25-.34-.33-.25-.14-.29-.3-.1-.52.17-.21.29-.44.4-.67.06-.13.13-.26.21-.37.2-.27.33-.57.42-.89.07-.26.17-.51.33-.73.26-.34.4-.4.8-.24.41.16.83.21,1.27.2.64-.01.81-.12,1-.65.02-.05.03-.11.04-.16.04-.2.02-.23-.18-.17-.36.11-.72.12-1.09.08-.23-.02-.45-.05-.66-.14-.18-.08-.22-.2-.08-.34.34-.32.48-.77.72-1.15.13-.21.18-.44.22-.68.03-.25.08-.5.21-.72.06-.09.08-.2.06-.31-.04-.32-.03-.65-.02-.97,0-.14-.02-.28-.07-.4-.21-.54-.43-1.07-.72-1.57-.17-.29-.37-.55-.71-.68-.31-.12-.35-.32-.18-.6.03-.06.07-.11.11-.16.53-.65,1.25-.82,2.04-.77.13,0,.24.07.33.17.36.39.78.71,1.2,1.03.31.24.57.51.76.85.18.33.33.67.42,1.03.08.32.2.65.15.99-.03.2-.05.39-.04.59.02.27,0,.54-.08.8-.08.3-.17.6-.22.91-.05.29-.16.52-.39.7-.11.09-.2.2-.26.34-.04.09,0,.14.09.14.16,0,.29-.05.4-.17.15-.16.32-.31.53-.39.09-.03.17-.1.21-.19.21-.51.6-.93.68-1.5.03-.17.14-.27.31-.31.18-.04.37-.07.55-.03.63.13,1.23.05,1.84-.15.32-.11.62-.23.87-.45.17-.15.34-.3.54-.42.24-.14.45-.32.54-.6.02-.05.04-.11.09-.13.24-.12.31-.37.44-.57.65-1.08.52-2.15,0-3.23-.01-.02-.03-.04-.04-.06-.16-.15-.29-.32-.42-.49-.28-.39-.71-.63-1.04-.96-.17-.17-.36-.32-.6-.37-.11-.02-.21-.1-.3-.17-.07-.05-.15-.11-.24-.12-.9-.17-1.78-.24-2.59.32-.19.13-.39.21-.62.24-.07,0-.14.02-.2-.04-.2-.22-.39-.44-.52-.7-.2-.4-.48-.74-.82-1.03-.09-.08-.18-.15-.25-.26-.03-.05-.06-.1-.02-.15.04-.04.09,0,.14,0,.23.06.44.19.65.3.29.15.59.27.92.3.18.02.29-.02.35-.2.05-.15.17-.19.31-.17.08.01.16.02.23.05.55.21,1.1.32,1.69.23,1.03.16,1.95-.25,2.91-.5.13-.04.23-.12.25-.27.02-.15-.06-.26-.16-.34-.14-.11-.3-.19-.47-.27-.12-.06-.24-.11-.34-.2-.06-.05-.11-.12-.09-.2.02-.09.09-.13.17-.14.12-.02.24-.04.36-.05.51-.06,1-.2,1.44-.47.34-.21.32-.49-.02-.69Zm-6.78,37.31c.02-.06.08-.05.12-.05.18,0,.34.04.51.07.47.1.92.26,1.41.24.03,0,.06,0,.09.01.07.03.16.05.16.13,0,.08-.09.07-.15.09-.16.04-.32.06-.43.09-.57.03-1.08-.04-1.53-.36-.04-.03-.08-.07-.12-.1-.04-.03-.07-.07-.05-.12Zm2.26-44.09c.19.42.49.7.92.85.05.02.12.03.13.09,0,.07-.07.09-.12.11-.11.05-.23.06-.35.08-.21.01-.39-.03-.55-.18-.06-.06-.14-.11-.23-.13-.2-.04-.39-.12-.55-.24-.08-.06-.17-.1-.26-.02-.09.07-.06.17-.04.25.07.24.02.45-.14.64-.1.13-.23.14-.34.03-.29-.31-.42-.26-.73.06-.29.28-.65.39-1.05.4-.12,0-.19-.07-.19-.17,0-.33-.21-.39-.49-.37-.39.03-.78.01-1.16-.1-.21-.06-.38-.17-.52-.34-.03-.04-.09-.09-.07-.14.03-.06.1-.03.14-.02.24.02.48.06.7.15.15.06.3.08.46.02.29-.11.6-.16.91-.22.55-.11.93-.45,1.2-.92.04-.06.07-.13.11-.19.07-.11.15-.14.28-.09.08.04.17.05.25.09.31.14.63.15.96.05.43-.13.56-.08.74.32Zm-16.36-12.42c-.01-.28.06-.5.22-.68.37-.41.8-.72,1.35-.83.2-.04.4-.04.6.06.28.14.37.41.15.63-.46.46-.99.84-1.62,1.06-.15.05-.31.03-.46.01-.17-.03-.26-.11-.24-.26Zm-18.11,59.85c.11.09.23.15.34.23.07.04.14.1.12.19-.02.09-.12.07-.18.09-.13,0-.23-.04-.33-.11-.52-.34-.94-.79-1.37-1.24-.09-.1-.15-.22-.12-.36.04-.16.14-.21.28-.12.14.08.25.21.34.34.25.38.58.68.92.97Zm1.08-5.19c-.6.18-1.1.54-1.6.89-.3.21-.66.3-.95.54-.24.2-.52.34-.71.59-.17.22-.45.32-.6.56-.03.04-.09.06-.14.02-.04-.04-.02-.09,0-.13.04-.11.12-.21.2-.3.43-.54.98-.93,1.53-1.32.22-.15.44-.31.62-.52.06-.08.15-.14.25-.18.35-.15.69-.33,1.01-.54.08-.06.18-.09.32-.1.12.02.32-.01.37.17.06.2-.13.28-.27.32Zm5.34-1.69c-.13.23-.3.42-.54.54-.44.22-.91.37-1.52.41-.28.01-.67,0-1.05-.11-.3-.09-.61-.13-.92-.11-.26.01-.48-.06-.68-.22-.15-.12-.31-.22-.47-.33-.18-.13-.34-.27-.4-.49,0-.02-.01-.05-.03-.06-.26-.19-.4-.52-.74-.63-.23-.07-.38-.21-.47-.43-.13-.28-.36-.48-.58-.68-.31-.29-.57-.6-.76-.99-.2-.41.04-1.28.51-1.44.16-.06.31-.16.48-.21.33-.09.54,0,.57.34.03.43.26.72.55.98.23.21.43.43.57.71.02.04.05.09.08.12.3.21.51.54.85.72.11.06.2.14.3.23.21.2.44.39.71.52.15.08.29.18.41.29.23.23.51.3.82.29.36-.01.72-.08,1.07,0,.32.07.64.1.96.1.36,0,.46.16.27.48Zm23.16,1.45c-.04-.09-.07-.19-.08-.29-.01-.17-.02-.35-.03-.52-.01-.22-.06-.43-.03-.64.01-.08.02-.19.13-.21.11,0,.18.06.22.15.03.08.07.16.08.24.08.35.08.7.03,1.05,0,.07-.03.14-.05.21-.02.08-.05.17-.14.17-.09,0-.12-.09-.15-.16Zm.54,2.75s-.03-.04-.03-.06c-.12-.59-.35-1.16-.4-1.78,0-.11,0-.23.01-.36,0-.04.01-.09.07-.09.04,0,.06.03.07.07.13.52.41.98.58,1.49.05.15.11.29.12.45,0,.08,0,.16-.02.23-.03.09-.05.2-.16.21-.11.01-.19-.07-.24-.16Zm.6,1.98c-.19.01-.37-.15-.39-.35-.01-.18.13-.31.35-.32.15-.01.31.16.33.36.01.17-.11.3-.29.32Zm-.42-10.1c.16-.17.35-.26.57-.32.23-.06.39-.18.46-.42.07-.23.27-.26.45-.1.52.48.68,1.22.41,1.88-.08.2-.24.34-.39.49-.16.16-.34.31-.48.49-.23.3-.53.49-.88.58-.62.17-1.21.4-1.77.72-.28.16-.58.26-.91.24-.42-.02-.78.16-1.15.32-.34.15-.69.23-1.05.14-.68-.18-1.14-.65-1.39-1.28-.15-.39.02-.78.3-1.09.27-.29.64-.37.99-.25.39.13.78.13,1.17.07.69-.11,1.38-.19,2-.53.17-.09.33-.19.5-.28.13-.07.25-.16.39-.18.32-.06.56-.23.77-.46Zm-4.78-7.1c.01.06.06.1.1.13-.03.01-.06.02-.1.02v-.15Zm.76.97c.19-.16.42-.26.63-.39.33-.2.4-.33.32-.65.05-.05.1-.09.14-.14.02.1.03.19.05.3.09-.04.12-.1.11-.18,0-.09-.01-.17-.02-.26.04-.04.07-.08.11-.12.06,0,.08.03.09.1,0,.04-.02.12.04.12.07,0,.07-.08.04-.13-.06-.12.04-.11.09-.1.25.04.3-.18.4-.31.11-.14.12-.31.02-.47-.14-.23-.27-.48-.56-.57-.03,0-.06-.04-.09-.06-.18-.16-.16-.29.06-.36.26-.08.53-.14.81-.17.12-.01.23,0,.33.06.18.09.37.09.56.04.37-.08.52-.02.71.31.13.23.24.48.36.72.14.3.11.61.04.92-.1.44-.24.86-.54,1.22-.09.11-.16.24-.19.38-.04.2-.16.34-.31.47-.25.22-.49.43-.56.79-.03.15-.18.25-.29.36-.35.35-.76.55-1.26.58-.31.02-.58.15-.84.29-.41.23-.81.49-1.29.58-.21.04-.43.06-.64.06-.56,0-1.11.1-1.64.3-.52.2-1.04.27-1.6.18-.46-.07-.95-.03-1.39.14-.77.29-1.54.22-2.32.04-.41-.09-.81-.24-1.22-.35-.33-.1-.66-.13-1.01-.1-.87.08-1.73.07-2.59-.13-.24-.06-.47-.14-.68-.28-.4-.29-.88-.3-1.34-.3-.64,0-1.23-.17-1.82-.37-.15-.05-.28-.14-.39-.25-.3-.29-.67-.47-1.08-.53-.54-.07-1-.33-1.48-.53-.12-.05-.2-.15-.28-.25-.17-.23-.4-.38-.68-.44-.52-.12-1.02-.32-1.5-.54-.17-.08-.33-.17-.44-.33-.13-.19-.32-.29-.54-.31-.27-.03-.51-.14-.72-.31-.43-.35-.9-.66-1.35-.99-.2-.15-.4-.31-.57-.49-.08-.08-.17-.15-.27-.21-.45-.27-.87-.57-1.22-.97-.1-.11-.14-.22-.12-.36.03-.2-.03-.38-.13-.55-.16-.25-.11-.47.17-.57.61-.21,1.2-.46,1.81-.62.26-.07.47.01.61.26.1.18.24.33.4.46.91.73,1.79,1.52,2.73,2.22.21.16.44.29.69.37.27.09.52.23.77.38.91.57,1.88,1.02,2.89,1.4,1,.38,2.03.69,3.01,1.12.79.34,1.6.51,2.45.6.98.1,1.96.22,2.93.42.99.2,2,.2,3.01.15.7-.04,1.4,0,2.1-.05.31-.02.62-.06.92-.13.11-.02.22-.04.31-.09.24-.15.49-.22.76-.23.06,0,.13-.03.18-.06.46-.32,1-.45,1.51-.67.27-.12.53-.23.76-.43Zm-7.69-5.41c-.35-.15-.75-.21-1.11-.36-.61-.25-1.23-.49-1.85-.74-.51-.21-.97-.51-1.45-.78-.58-.33-1.13-.72-1.68-1.09-1.14-.78-2.17-1.7-3.02-2.8-.19-.25-.38-.51-.49-.81-.04-.11-.08-.22-.08-.35-.02-.16.04-.32.16-.45.26-.3.51-.62.67-.99.04-.1.11-.21.25-.2.13.01.2.11.24.22.08.19.19.36.34.5.07.07.13.16.17.25.45.96,1.15,1.74,1.89,2.49.49.5,1.02.95,1.63,1.29.05.02.08.07.12.1.21.18.41.38.69.48.21.08.41.2.6.32.34.21.68.39,1.05.56.26.12.52.25.75.43.23.19.53.25.79.38.39.19.8.35,1.18.57.58.35,1.22.52,1.88.64.26.05.51,0,.77,0,.15,0,.3-.02.44.03.18.06.25.19.15.35-.14.23-.28.46-.46.66-.16.18-.38.23-.61.17-1-.28-2.03-.46-3-.86Zm2.14,4.52s-.02,0-.03-.01c0,0,.02-.01.02-.02,0,.01,0,.02,0,.03Zm-3.16.51s-.01.01-.02.02c0,0,0,0-.01,0,.01,0,.02-.02.03-.03Zm5.8-.12s-.09.03-.14.02c-.03,0-.04-.02-.04-.04.06,0,.12.02.17.02Zm-.1-.42s.04-.01.06-.02c0,.01,0,.03-.01.04-.02,0-.03-.01-.05-.02Zm.26-.1h0s.07-.03.1-.04c.03.05.06.1.03.16,0,.02-.1.03-.12,0-.04-.05-.03-.09-.01-.13Zm.5.39s-.01-.02-.02-.03c0,0,0-.02-.01-.02.03-.02.05-.03.08-.05,0,.04,0,.08,0,.12,0,.02,0,.03,0,.05-.01,0-.03,0-.04-.01h0s-.01-.03-.02-.05Zm.67-.76c.05-.03.11-.04.17-.04-.02.02-.03.03-.04.05-.04,0-.08,0-.12-.01Zm.68.59s.03.06.04.09c.02.06,0,.09-.04.09-.03,0-.07,0-.1,0,.01-.06.03-.12.03-.18.02,0,.04,0,.06,0Zm-.07-5.38s0,.08-.03.1c-.3.4-.47.87-.74,1.29-.27.41-.68.53-1.14.58-.14.01-.27,0-.41-.06-.11-.05-.14-.12-.07-.22.11-.18.25-.35.4-.51.34-.33.64-.67.79-1.14.06-.18.2-.27.39-.3.23-.03.45.01.68.05.11.02.14.1.13.2Zm.8-1.86c-.11.04-.22.05-.34.05-.13,0-.26.02-.45.03-.67.15-1.33-.13-2.01-.28-.8-.17-1.54-.51-2.31-.8-.76-.28-1.42-.74-2.12-1.13-.09-.05-.17-.11-.24-.19-.3-.33-.66-.61-.99-.92-.16-.14-.3-.3-.41-.48-.02-.04-.05-.08-.09-.11-.58-.44-1.01-1-1.36-1.63-.16-.3-.33-.6-.5-.9-.15-.26-.27-.53-.31-.84,0-.04,0-.09-.03-.12-.38-.75-.36-1.55-.35-2.36,0-.35.03-.69.04-1.04,0-.21.06-.41.14-.61.16-.41.21-.86.31-1.29.25-1.14.72-2.17,1.34-3.15.2-.33.39-.65.72-.88.08-.05.15-.12.24-.06.09.06.05.16.02.25-.18.41-.45.75-.72,1.09-.34.44-.61.94-.77,1.45-.24.76-.53,1.51-.68,2.31-.17.94-.17,1.86,0,2.79.01.08.03.15.03.23.01.41.09.79.21,1.19.2.67.5,1.28.89,1.85.36.53.78,1.02,1.19,1.51.24.29.54.52.82.76.33.29.67.56.99.85.27.25.58.42.91.55.42.17.85.34,1.26.53.32.16.65.29,1.01.35.25.05.46.19.69.29.32.14.66.23,1.01.2.08,0,.17-.01.25,0,.42.08.83.05,1.24-.08.09-.03.19-.03.28-.02.16.02.23.12.25.26.02.15-.06.25-.2.3Zm.3-7.04c-.21.13-.44.18-.68.2-.41.04-.76-.1-1.08-.35-.27-.21-.54-.43-.71-.7-.24-.37-.51-.73-.64-1.16-.02-.08-.04-.16-.03-.25.01-.05.02-.12,0-.16-.16-.35-.02-.72-.08-1.08-.02-.14,0-.29.06-.42.05-.13.12-.12.19-.02.1.14.1.29.08.45-.04.27-.09.53-.08.8,0,.17.04.33.13.48.1.17.2.34.24.54.02.13.13.22.23.29.2.15.37.32.52.52.11.15.25.25.42.33.15.06.3.12.45.19.25.12.51.17.78.07.04-.01.08-.02.12-.02.09,0,.22-.03.25.07.03.1-.08.17-.16.22Zm3.41-3.49c-.07.11-.15.22-.23.32-.11.16-.11.32-.02.49.03.05.05.09.07.14.07.2.03.28-.17.32-.25.05-.5.09-.75.05-.23-.04-.29-.13-.25-.36.03-.13.02-.25-.01-.37-.08-.27-.05-.56-.05-.84,0-.39-.02-.78-.16-1.15-.04-.12-.11-.29.03-.36.13-.06.24.07.34.18.36.38.71.78,1.11,1.11.18.15.21.27.08.47Zm2.08.88c.33-.27.66-.52,1.02-.73.78-.44,1.59-.52,2.4-.14.84.39,1.59.94,2.1,1.74.2.31.19.67.24,1.02.07.42-.03.8-.25,1.15-.22.34-.37.72-.65,1.01-.25.26-.54.45-.86.61-.28.14-.55.28-.83.43-.2.11-.4.15-.62.1-.24-.05-.48-.04-.73-.02-.37.04-.52-.07-.52-.41,0-.79-.33-1.46-.74-2.1-.25-.39-.57-.73-.92-1.05-.38-.34-.76-.69-.98-1.17-.09-.19-.14-.39-.13-.59,0-.14.04-.27.18-.33.14-.06.27-.03.39.06.12.1.21.23.3.35.21.25.36.27.61.07Zm-1.08-2.19c.11.22.25.42.38.63.04.07.1.16.04.21-.06.05-.16,0-.2-.07-.28-.36-.72-.55-1-.91-.13-.17-.3-.31-.48-.44-.1-.08-.21-.15-.28-.25-.37-.56-.92-.93-1.42-1.34-.36-.3-.71-.58-.98-.97-.17-.24-.42-.39-.65-.57-.18-.14-.37-.29-.51-.47-.02-.03-.05-.07-.08-.07-.29-.05-.46-.27-.65-.45-.09-.09-.2-.16-.31-.21-.52-.24-.99-.56-1.45-.89-.04-.03-.09-.07-.14-.08-.59-.14-1.02-.58-1.58-.78-.8-.29-1.62-.51-2.48-.52-.34,0-.67,0-1-.05-.46-.06-.92.02-1.38.04-.64.03-1.26.13-1.89.22-.06.01-.12.02-.17.04-.39.2-.82.26-1.24.37-.86.21-1.68.54-2.44.99-.56.32-1.11.68-1.7.92-.89.36-1.58.99-2.36,1.49-.1.06-.18.13-.25.23-.43.66-.95,1.25-1.43,1.87-.2.26-.38.54-.47.86-.02.07-.07.15.02.21.09.06.18.07.27.01.03-.02.07-.04.09-.06.32-.37.77-.59,1.09-.96.16-.19.4-.28.63-.38.33-.15.62-.34.78-.68.03-.07.08-.14.14-.19.41-.32.73-.73,1.19-.99.41-.23.81-.46,1.17-.77.2-.17.46-.25.7-.35.87-.38,1.74-.78,2.63-1.11.91-.34,1.83-.69,2.79-.86.6-.11,1.2-.17,1.81-.13.05,0,.12-.03.14.05.01.06-.04.1-.08.13-.04.03-.08.07-.13.09-.23.12-.45.25-.69.33-.74.24-1.33.68-1.82,1.27-.38.46-.82.86-1.2,1.32-.19.23-.37.47-.57.69-.05.05-.09.11-.12.18-.24.55-.52,1.07-.88,1.56-.05.06-.08.14-.08.22,0,.2-.09.36-.21.5-.06.07-.13.15-.15.24-.14.43-.4.79-.66,1.15-.13.18-.24.37-.31.59-.04.11-.1.22-.16.32-.04.07-.09.13-.11.2-.19.63-.57,1.15-.9,1.7-.16.26-.31.52-.46.77-.11.19-.23.37-.38.52-.03.03-.07.07-.09.11-.11.34-.4.55-.6.82-.28.39-.66.7-.85,1.15-.02.06-.07.08-.12.11-.2.14-.38.3-.51.5-.35.54-.91.9-1.29,1.42-.03.04-.08.06-.12.07-.61.28-1.2.6-1.7,1.06-.1.1-.22.15-.37.16-.16,0-.32.07-.45.17-.55.4-1.18.62-1.82.85-.09.03-.19.08-.28.13-1.07.62-2.24,1.01-3.44,1.3-.64.16-1.3.28-1.97.23-.13,0-.26.02-.39.04-.22.03-.43.04-.64-.02-.29-.08-.59-.05-.89-.05-1.1.02-2.21.07-3.29-.16-.87-.19-1.72-.44-2.53-.8-.11-.05-.21-.11-.31-.18-.19-.12-.38-.23-.6-.29-.15-.04-.28-.13-.4-.23-.33-.28-.66-.55-.99-.84-.15-.13-.3-.24-.5-.26-.14-.02-.23-.1-.32-.21-.38-.43-.76-.85-1.16-1.25-.35-.35-.68-.71-.95-1.14-.19-.29-.4-.58-.65-.85-.13-.14-.21-.33-.31-.51-.43-.8-.91-1.57-1.17-2.44-.12-.39-.21-.78-.38-1.16-.15-.32-.13-.7-.27-1.04-.2-.51-.29-1.05-.28-1.53-.02-.43,0-.8-.14-1.15-.01-.03-.02-.06,0-.09.1-.36-.03-.73.02-1.09.03-.21-.03-.4-.07-.6-.04-.19-.06-.38-.03-.57.04-.19.04-.38.02-.57-.06-.7.03-1.4.16-2.09.07-.36.11-.72.22-1.07.04-.14.06-.28.03-.43-.02-.11,0-.21.05-.31.07-.13.1-.27.12-.41.04-.23.1-.46.25-.64.03-.03.06-.07.06-.11.03-.49.33-.89.4-1.37.08-.48.28-.93.49-1.37.43-.89.96-1.74,1.59-2.51.3-.37.61-.73.86-1.13.01-.01.03-.03.03-.04.25-.5.64-.89,1.03-1.27.26-.24.55-.44.69-.79.33-.14.51-.44.74-.69.12-.13.24-.26.33-.42.08-.15.25-.24.38-.35.81-.63,1.64-1.25,2.43-1.9.29-.24.59-.41.95-.52.39-.12.73-.33,1.04-.6.1-.09.22-.14.34-.16.61-.11,1.16-.36,1.72-.61.55-.24,1.12-.41,1.7-.56.2-.05.39-.12.55-.25.02-.01.04-.03.06-.04.36-.06.69-.22,1.04-.29.05,0,.11,0,.16-.03.46-.26,1.01-.27,1.5-.46.48-.2,1.01-.3,1.52-.43.51-.13,1.04-.2,1.57-.2.25,0,.5-.02.75-.07.35-.06.7-.06,1.05,0,.51.08,1.04.06,1.55.12.41.05.83.06,1.21.26.24.12.5.15.76.2.39.07.78.15,1.13.35.1.06.21.07.33.07.13,0,.25,0,.37.04.89.33,1.83.53,2.63,1.08.24.16.52.24.75.42.04.03.1.05.15.05.25,0,.44.14.6.32.13.15.29.26.48.33.18.07.32.21.45.35.28.32.57.63.94.86.11.07.2.16.27.26.26.38.6.68.94.98.43.38.83.78,1.13,1.28.08.13.19.24.3.36.05.06.1.12.08.21-.02.1-.06.19-.16.23-.1.04-.17-.04-.23-.1-.44-.42-.89-.85-1.33-1.28-.15-.14-.3-.27-.48-.38-.05-.03-.09-.06-.12-.11-.15-.29-.4-.48-.66-.65-.57-.37-1.14-.76-1.67-1.19-.12-.09-.24-.18-.4-.19-.05,0-.12,0-.15.05-.03.05.01.09.03.13.04.08.12.13.19.19.35.28.72.54,1,.9.08.11.19.18.3.25.2.13.4.27.5.5.01.03.04.05.06.07.55.43,1.02.94,1.48,1.46.5.56,1.06,1.06,1.6,1.57.14.13.28.27.38.43.32.48.74.86,1.15,1.26.06.06.13.13.21.16.25.09.31.31.39.52.01.04.02.08.05.11.39.29.61.72.92,1.08.13.15.25.29.41.4.09.06.18.13.23.22.29.5.71.88,1.1,1.3.24.26.41.57.64.82.48.53.74,1.24,1.37,1.64.25.16.43.39.55.67.05.13.17.22.28.3.27.21.5.44.62.77.06.16.2.27.33.37.18.12.32.27.43.45.23.35.51.66.72,1.03.02.03.05.07.08.09.28.15.42.41.58.67.08.13.18.24.31.32.12.06.13.2.21.28.21.22.43.42.65.62.33.29.64.6.9.95.18.24.4.45.62.65.17.15.32.32.42.53Zm6.84-3.35c-.45.12-.91.09-1.37.04-.1-.01-.21-.01-.31,0-.29.03-.42.23-.32.51.06.16.18.26.32.36.17.12.35.21.5.35.23.22.21.36-.06.51-.31.16-.65.17-.99.14-.57-.04-1.13-.06-1.7-.14-.58-.08-1.04-.34-1.37-.83-.07-.11-.15-.2-.23-.29-.07-.08-.15-.14-.26-.16-.13-.03-.26-.04-.36.05-.1.09-.05.22-.02.32.05.14.11.27.17.4s.12.26.13.41c0,.05.02.12-.04.14-.06.03-.12,0-.16-.04-.04-.04-.08-.09-.12-.13-.05-.06-.11-.12-.19-.13-.19-.03-.33-.14-.44-.29-.21-.25-.42-.51-.63-.76-.16-.18-.24-.4-.3-.63-.03-.12-.07-.23-.14-.33-.13-.18-.35-.18-.48,0-.07.1-.12.21-.18.31-.15.23-.4.22-.52-.02-.11-.22-.16-.44-.1-.7.06-.27.03-.54-.04-.8-.04-.16-.17-.21-.32-.19-.13.02-.26.05-.39.08-.25.04-.28.01-.33-.23-.06-.31-.04-.63-.04-.95,0-.1,0-.21-.02-.3-.02-.09-.06-.17-.17-.19-.11-.02-.18.03-.24.12-.03.05-.05.11-.08.16-.03.08-.06.16-.09.23-.07.15-.15.31-.34.28-.2-.03-.19-.22-.21-.37-.02-.15-.03-.31-.05-.46-.02-.19-.02-.38.06-.57.06-.14.05-.3.05-.44,0-.25.04-.49.18-.7.05-.08.1-.17.02-.25-.09-.08-.2-.05-.3.02-.11.08-.17.2-.23.32-.07.12-.13.24-.26.32-.09.05-.14.04-.16-.08-.02-.22.02-.43.09-.64.04-.12.08-.24.15-.35.18-.27.22-.59.33-.88.02-.06.06-.14,0-.18-.05-.04-.13-.01-.19.02-.1.05-.17.14-.22.24-.12.25-.25.49-.41.71-.14.19-.15.44-.2.67-.05.2-.09.41-.22.58-.06.08-.14.16-.25.14-.12-.02-.18-.12-.2-.23-.08-.46.03-.89.24-1.3.04-.08.08-.16.08-.25,0-.2.1-.36.26-.49.11-.09.21-.18.31-.28.11-.12.13-.26.03-.4-.1-.14-.23-.09-.35-.03-.15.07-.3.16-.45.23-.07.03-.18.05-.23-.02-.06-.07.01-.14.05-.21.03-.06.07-.13.12-.18.38-.39.67-.86,1.1-1.21.12-.1.22-.23.22-.4,0-.12.06-.21.15-.27.32-.23.62-.49.89-.78.22-.25.4-.21.57.07.13.21.32.36.55.45.1.04.21.04.27-.06.06-.1-.04-.16-.1-.22-.07-.07-.15-.12-.22-.19-.08-.09-.08-.19-.04-.3.05-.12.15-.08.23-.07.2.03.23,0,.23-.2,0-.2-.05-.39-.1-.58-.05-.24.02-.44.19-.61.52-.51,1.1-.89,1.82-1.06.21-.05.42-.04.63-.02.35.04.67.11.96.33.11.08.3.02.34-.09.05-.14,0-.24-.12-.32-.16-.1-.32-.21-.48-.32-.13-.09-.28-.11-.43-.1-.2.01-.41.02-.61.04v.02c-.19.01-.38.01-.57.04-.32.04-.62.13-.89.34-.2.16-.44.27-.66.39-.22.13-.43.26-.59.47-.15.2-.29.41-.24.69.03.16-.04.26-.2.29-.34.06-.58.26-.82.48-.55.52-1.21.9-1.81,1.36-.38.29-.75.59-1.13.89-.05.04-.1.09-.14.13-.26.28-.25.46.03.71.25.22.25.33.05.59-.07.09-.13.2-.2.29-.15.2-.4.23-.5.01-.2-.42-.65-.65-.8-1.09-.01-.04-.05-.09-.09-.11-.36-.17-.55-.52-.8-.79-.27-.29-.54-.59-.77-.91-.11-.15-.13-.31-.09-.49.05-.21.13-.4.21-.59.13-.29.24-.59.28-.91.03-.18.12-.33.23-.46.2-.23.36-.48.48-.75.09-.19.22-.35.37-.51.2-.22.4-.43.59-.65.12-.14.25-.26.42-.33.14-.06.22-.18.29-.3.31-.55.76-.89,1.38-1.03.12-.03.24-.06.34-.12.36-.22.77-.33,1.18-.42.29-.06.58-.14.86-.26.42-.19.86-.28,1.3-.33.5-.06,1.02-.17,1.52.06.3.14.65.11.97.16.28.04.57.07.82.24.05.03.11.06.17.05.22-.02.36.11.48.26.33.42.59.87.78,1.37.06.17.1.34.1.53,0,.16.03.31.07.46.08.36,0,.52-.33.67-.14.06-.27.13-.34.28-.05.12-.01.18.12.19.07,0,.14-.03.2-.06.26-.12.54-.15.83-.13.05,0,.1.01.14.03.14.04.3.1.28.25,0,.14-.18.13-.29.15-.32.03-.63.11-.92.24-.33.16-.41.29-.31.64.09.34.09.66-.05.98-.15.37-.13.74.19,1.01.22.19.5.29.79.36.1.03.21.03.32.06.21.05.28.17.21.38-.11.33-.32.56-.68.62-.27.05-.55.03-.82,0-.08,0-.11-.05-.12-.13,0-.13-.02-.25-.08-.37-.05-.11-.14-.17-.26-.14-.12.03-.15.12-.15.24v.04c.04.3.04.58-.18.83-.29.33-.6.6-1.04.69-.28.06-.57.09-.86.09-.49,0-.88-.2-1.18-.58-.07-.09-.12-.18-.21-.24-.1-.07-.21-.08-.31-.03-.11.05-.08.16-.07.26.02.23.16.41.27.6.05.08.16.18.09.24-.07.07-.16-.06-.24-.11-.08-.05-.17-.14-.27-.05-.1.09-.05.19,0,.28.13.27.3.51.5.72.24.26.52.44.88.47.11.01.22.04.33.07.14.04.26.12.31.27.07.22.25.34.46.39.62.15,1.22.18,1.79-.18.24-.16.52-.12.79-.1.19.02.38.05.57.03.33-.02.5-.17.57-.49.02-.11,0-.27.15-.29.15-.02.17.13.22.22.05.08.11.14.19.18.09.05.18.1.26.16.08.06.15.12.12.24-.03.12-.13.11-.22.11-.19.02-.29.18-.24.39.04.15.15.26.26.36.14.14.2.3.13.49-.12.33,0,.58.24.8.28.24.59.4.93.54.2.08.4.17.59.26.05.02.1.05.14.08.04.03.09.07.07.13-.02.06-.08.04-.12.05-.17.01-.35.01-.52.02-.12,0-.23.05-.27.17-.04.12.01.21.08.3.2.24.45.43.75.55.21.08.41.16.62.25.08.03.17.07.24.12.08.04.18.09.16.19-.01.11-.12.12-.21.15Z"/>
        <path class="cls-1" d="m50.39,47.61c.68.02,1.43.09,2.16.31.24.07.47.13.72.17.23.04.44.11.64.22.19.1.38.17.59.2.17.03.33.08.44.21.03.04.07.04.11.05.5.08.9.34,1.29.63.14.11.28.21.47.25.17.03.3.16.42.27.17.15.36.26.57.34.17.06.33.14.44.3,0,.01.02.03.04.04.29.06.47.3.72.41.09.04.17.09.23.16.17.18.34.36.58.44.05.02.09.06.12.1.1.15.24.27.38.38.13.1.24.22.27.39.03.13-.01.18-.15.15-.16-.04-.3-.12-.42-.23-.23-.21-.51-.35-.78-.5-.26-.16-.53-.33-.76-.55-.06-.06-.12-.11-.2-.12-.41-.02-.71-.29-1.05-.48-.2-.11-.42-.2-.58-.36-.32-.33-.75-.48-1.11-.74-.07-.05-.15-.09-.24-.13-.82-.31-1.62-.67-2.47-.92-.6-.18-1.2-.35-1.84-.37-.42-.02-.8-.22-1.2-.36-.1-.03-.08-.09,0-.14.16-.11.34-.12.59-.13Z"/>
        <path class="cls-1" d="m66.02,45.2c-.03-.46.24-.75.55-1.02.18-.17.41-.26.64-.36.21-.09.43-.18.64-.28.15-.07.3-.09.45-.04.27.08.5.22.72.4.05.04.1.11.12.17.06.15.04.31-.08.39-.12.08-.22-.06-.31-.14-.03-.03-.06-.08-.09-.12-.2-.28-.53-.34-.81-.14-.06.04-.13.1-.17.15-.15.18-.34.28-.57.35-.33.09-.5.36-.6.68-.01.05-.02.09-.03.14-.02.11-.03.24-.19.24-.15,0-.21-.11-.24-.23-.02-.06-.02-.13-.04-.19Z"/>
        <path class="cls-1" d="m67.93,46.36c-.03-.45.29-.81.75-.82.2,0,.31.05.32.25.02.41,0,.81-.12,1.2-.08.28-.42.34-.64.13-.16-.16-.29-.47-.31-.77Z"/>
        <path class="cls-1" d="m66.49,46.16s.08,0,.11,0c.17.01.35.13.33.23-.03.15-.17.19-.29.19-.47,0-.74.32-1.04.6-.07.06-.1.15-.13.23-.04.09-.08.18-.14.25-.07.07-.17.1-.26.07-.09-.03-.09-.12-.09-.19-.02-.14.01-.27.09-.38.33-.44.69-.86,1.28-.96.06,0,.12-.02.16-.03Z"/>
        <path class="cls-1" d="m60.91,78.65s-.1.03-.12,0c-.04-.05-.03-.09-.01-.13h0s.07-.03.1-.04c.03.05.06.1.03.16Z"/>
      </g>
      <g>
        <path class="cls-1" d="m8.5,12.49l68.64-4.38c.23-.01.42.16.44.38l6.56,102.96c.01.23-.16.42-.38.44l-68.64,4.38c-.23.01-.42-.16-.44-.38L8.11,12.93c0-.11.03-.22.1-.3.07-.08.17-.13.28-.14m.05.82l.38-.44,6.56,102.96-.44-.38,68.64-4.38-.38.44-6.56-102.96.44.38L8.55,13.31Z"/>
        <path class="cls-1" d="m84.11,3.86c-2.13.34-3.69,2.25-3.55,4.45.14,2.19,1.93,3.89,4.08,3.96l-.05-.83c-1.7-.1-3.1-1.45-3.21-3.19-.11-1.74,1.1-3.26,2.78-3.57l-.05-.83ZM84.28,0l-3.42.22h0s0,0,0,0l-.83.05c.02.1.03.2.04.3,0,.04,0,.07,0,.11,0,.14,0,.28,0,.41l.83-.05h0s0,0,0,0l3.01-.19.19,3.01h0s.05.83.05.83c.13-.02.27-.04.41-.05.14,0,.28,0,.41,0l-.05-.83-.22-3.42c-.01-.23-.21-.4-.44-.38h0Zm-11.78,1.58c.34,2.13,2.25,3.69,4.45,3.55,2.19-.14,3.89-1.93,3.96-4.08h0s-.83.05-.83.05c-.1,1.7-1.45,3.1-3.19,3.21-1.74.11-3.26-1.1-3.57-2.78l-.83.05Zm-3.91-.58c.02.13.04.27.05.41,0,.14,0,.28,0,.41l.83-.05h0s0,0,0,0l3.03-.19.83-.05c-.02-.13-.04-.27-.05-.41,0-.14,0-.28,0-.41h0s-.83.05-.83.05c0,.1,0,.2,0,.3h0c0-.1,0-.2,0-.3h0s-3.03.19-3.03.19h0s0,0,0,0l-.83.05h0Zm-6.7,1.25l-.83.05c.34,2.13,2.25,3.69,4.45,3.55,2.19-.14,3.89-1.93,3.96-4.08h0s-.83.05-.83.05l.41-.03-.41.03c-.1,1.7-1.45,3.1-3.19,3.21-1.74.11-3.26-1.1-3.57-2.78h0Zm-4.74-.52c.02.13.04.27.05.41,0,.14,0,.28,0,.41l.83-.05h0s0,0,0,0l3.03-.19.83-.05c-.02-.13-.04-.27-.05-.41,0-.14,0-.28,0-.41h0s-.83.05-.83.05c0,.1,0,.2,0,.3h0c0-.1,0-.2,0-.3h0s-3.03.19-3.03.19h0s0,0,0,0l-.83.05h0Zm-6.7,1.25l-.83.05c.34,2.13,2.25,3.69,4.45,3.55,2.19-.14,3.89-1.93,3.96-4.08h0s-.83.05-.83.05l.41-.03-.41.03c-.1,1.7-1.45,3.1-3.19,3.21-1.74.11-3.26-1.1-3.57-2.78h0Zm-4.74-.52c.02.13.04.27.05.41,0,.14,0,.28,0,.41l.83-.05s0,0,0,0h0s3.03-.19,3.03-.19h0s.83-.05.83-.05c-.02-.13-.04-.27-.05-.41,0-.14,0-.28,0-.41h0s-.83.05-.83.05c0,.1,0,.2,0,.3,0-.1,0-.2,0-.3h0s-3.03.19-3.03.19h0s0,0,0,0l-.83.05h0Zm-6.7,1.25l-.83.05c.34,2.13,2.25,3.69,4.45,3.55,2.19-.14,3.89-1.93,3.96-4.08h0s-.83.05-.83.05l.41-.03-.41.03c-.1,1.7-1.45,3.1-3.19,3.21-1.74.11-3.26-1.1-3.57-2.78h0Zm-3.91-.58l-.83.05c.02.13.04.27.05.41,0,.14,0,.28,0,.41l.83-.05h0s0,0,0,0l3.03-.19h0s.83-.05.83-.05c-.02-.13-.04-.27-.05-.41,0-.14,0-.28,0-.41h0s-.83.05-.83.05c0,.11,0,.21,0,.32h0c0-.11,0-.21,0-.32h0s-3.03.19-3.03.19h0s0,0,0,0Zm-7.53,1.31l-.83.05c.34,2.13,2.25,3.69,4.45,3.55,2.19-.14,3.89-1.93,3.96-4.08h0s-.83.05-.83.05l.41-.03-.41.03c-.1,1.7-1.45,3.1-3.19,3.21-1.74.11-3.26-1.1-3.57-2.78h0Zm-3.91-.58l-.83.05c.02.13.04.27.05.41,0,.14,0,.28,0,.41l.83-.05h0s0,0,0,0l3.03-.19.83-.05c-.02-.13-.04-.27-.05-.41,0-.14,0-.28,0-.41h0s-.83.05-.83.05c0,.11,0,.23,0,.34,0-.12,0-.23,0-.34h0s-3.03.19-3.03.19h0s0,0,0,0h0Zm-7.53,1.31l-.83.05c.34,2.13,2.25,3.69,4.45,3.55,2.19-.14,3.89-1.93,3.96-4.08h0s-.83.05-.83.05l.41-.03-.41.03c-.1,1.7-1.45,3.1-3.19,3.21-1.74.11-3.26-1.1-3.57-2.78h0Zm-3.91-.58l-.83.05c.02.13.04.27.05.41,0,.14,0,.28,0,.41l.83-.05h0s0,0,0,0l3.03-.19h0s0,0,0,0l.83-.05c-.02-.13-.04-.27-.05-.41,0-.14,0-.28,0-.41h0s-.83.05-.83.05c0,.13,0,.27,0,.41,0-.14-.01-.27,0-.41h0s-3.03.19-3.03.19h0s0,0,0,0h0Zm-7.53,1.31l-.83.05c.34,2.13,2.25,3.68,4.45,3.55,2.19-.14,3.89-1.93,3.96-4.08h0s-.83.05-.83.05l.41-.03-.41.03c-.1,1.7-1.45,3.1-3.19,3.21-1.74.11-3.26-1.1-3.57-2.78h0ZM.39,5.35c-.23.01-.4.21-.38.44l.22,3.42h0s.05.83.05.83c.13-.02.27-.04.41-.05.14,0,.28,0,.41,0l-.05-.83h0s0,0,0,0l-.19-3.01,3.01-.19.83-.05c-.02-.13-.04-.27-.05-.41,0-.14,0-.27,0-.41h0s-.82.05-.82.05c0,.1,0,.2,0,.3h0c0-.1,0-.2,0-.3h0s-3.42.22-3.42.22h0Zm.66,3.81l.05.83c1.7.1,3.1,1.45,3.21,3.19.11,1.74-1.1,3.26-2.78,3.57l.05.83c2.13-.34,3.69-2.25,3.55-4.45-.14-2.19-1.93-3.89-4.08-3.96h0Zm-.34,7.64l.05.83.19,3.03h0s0,0,0,0l.05.83c.13-.02.27-.04.41-.05.14,0,.28,0,.41,0l-.05-.83h0s0,0,0,0l-.19-3.03h0s-.08,0-.1.01h0s-.05,0-.07,0c-.06,0-.11.01-.17.02h0c.12,0,.23-.02.35-.04l-.05-.82h0c-.06,0-.1.02-.15.02-.09.01-.17.02-.26.03-.14,0-.28,0-.41,0h0Zm1.07,3.81l.05.83c1.7.1,3.1,1.45,3.21,3.19.11,1.74-1.1,3.26-2.78,3.57l.05.83c2.13-.34,3.69-2.25,3.55-4.45-.14-2.19-1.93-3.89-4.08-3.96h0Zm.48,7.58c-.13.02-.27.04-.41.05-.13,0-.26,0-.39,0h0s.03.83.03.83c0,0,.02,0,.03,0h0s0,0,0,0l.17,3.03h0s0,0,0,0l.05.83c.13-.02.27-.04.41-.05.07,0,.14,0,.21,0,0,0,.02,0,.03,0,0,0,0,0,0,0h0s.01,0,.02,0c0,0,0,0,0,0h0s0,0,0,0c.01,0,.03,0,.04,0,0,0,0,0,.01,0h0s0,0,0,0c0,0,0,0,0,0h0s.04,0,.06,0l-.05-.83h0s0,0,0,0l-.19-3.03h0s-.05-.83-.05-.83h0Zm.25,3.86l.05.83c1.7.1,3.1,1.45,3.21,3.19.11,1.74-1.1,3.26-2.78,3.57l.05.83c2.13-.34,3.69-2.25,3.55-4.45-.14-2.19-1.93-3.89-4.08-3.96h0Zm.48,7.58c-.13.02-.27.04-.41.05-.13,0-.26,0-.39,0h0s.03.83.03.83l.19,3.03h0s0,0,0,0l.05.83c.13-.02.27-.04.41-.05.07,0,.15,0,.22,0,0,0,0,0,0,0,0,0,.01,0,.01,0,0,0,0,0,.01,0h0s0,0,0,0h0s0,0,0,0c0,0,0,0,0,0,0,0,0,0,0,0h0s.01,0,.02,0c0,0,0,0,0,0h0s0,0,0,0c.02,0,.04,0,.05,0h0s0,0,.01,0h0s0,0,0,0h0s.04,0,.06,0l-.05-.83s0,0,0,0h0s-.19-3.03-.19-3.03h0s-.05,0-.07,0c0,0,0,0,0,0,0,0,0,0,0,0h0s.05,0,.07-.01l-.05-.83h0Zm-.14.85h0s0,0,0,0h0s0,0,0,0c0,0,0,0,0,0h0Zm0,0h0s0,0,0,0h0s0,0,0,0c0,0,0,0,0,0h0s0,0,0,0Zm0,0h0s0,0,0,0h0s0,0,0,0h0,0s0,0,0,0h0s0,0,0,0h0Zm-.03,0h0s0,0,0,0h0s0,0,0,0h0Zm-.02,0h0s0,0,0,0h0s0,0,0,0Zm0,0h0s0,0,0,0Zm-.31.02h0s0,0,0,0h0s0,0,0,0h0s0,0,0,0h0Zm.27-.02h0s0,0,0,0c0,0,0,0,0,0h0Zm-.02,0h0s0,0,0,0Zm-.14,0h0,0Zm0,0h0s0,0,0,0h0Zm.02,0h0s0,0,0,0h0s0,0,0,0c0,0,0,0,0,0h0Zm0,0h0s0,0,0,0h0Zm0,0h0s0,0,0,0h0Zm0,0h0s0,0,0,0h0s0,0,0,0h0s0,0,0,0Zm0,0h0s0,0,0,0h0Zm.02,0h0s0,0,0,0h0s0,0,0,0h0s0,0,0,0h0s0,0,0,0h0s0,0,0,0h0s0,0,0,0Zm0,0h0s0,0,0,0h0s0,0,0,0h0s0,0,0,0h0Zm0,0h0s0,0,0,0Zm.61,2.98l.05.83c1.7.1,3.1,1.45,3.21,3.19.11,1.74-1.1,3.26-2.78,3.57l.05.83c2.13-.34,3.69-2.25,3.55-4.45-.14-2.19-1.93-3.89-4.08-3.96h0Zm.48,7.58h0s0,0,0,0c-.13.02-.26.04-.4.05-.13,0-.26,0-.39,0h0s.03.83.03.83c0,0,.01,0,.02,0h0s.17,3.03.17,3.03h0s.05.83.05.83c.13-.02.27-.04.41-.05.14,0,.28,0,.41,0l-.05-.83s0,0,0,0h0s-.19-3.03-.19-3.03h0s-.03,0-.05,0c-.11.02-.23.03-.34.04.13,0,.26-.02.39-.04l-.05-.83Zm.25,3.86l.05.83c1.7.1,3.1,1.45,3.21,3.19.11,1.74-1.1,3.26-2.78,3.57l.05.82h0s0,0,0,0c2.13-.34,3.69-2.25,3.55-4.45-.14-2.19-1.93-3.89-4.08-3.96h0Zm.48,7.58h0s0,0,0,0c-.13.02-.26.04-.4.05-.13,0-.26,0-.39,0h0s.04.83.04.83l.19,3.03h0s-.02,0-.02,0l.08.82c.13-.02.27-.04.41-.05.14,0,.28,0,.41,0l-.05-.83s0,0,0,0h0s-.19-3.03-.19-3.03h0c-.06,0-.1.01-.14.02-.09.01-.18.02-.27.03.14,0,.27-.02.41-.05l-.05-.83Zm.25,3.86l.05.83c1.7.1,3.1,1.45,3.21,3.19.11,1.74-1.1,3.26-2.78,3.57l.05.82h0c2.13-.34,3.69-2.25,3.55-4.44-.14-2.19-1.93-3.89-4.08-3.96h0Zm-.34,7.64l.05.83.19,3.03h0s-.02,0-.02,0l.08.82c.13-.02.27-.04.41-.05.14,0,.28,0,.41,0l-.05-.83h0s0,0,0,0l-.19-3.03h0c-.05,0-.09.01-.13.02h0s-.03,0-.05,0h0s-.05,0-.08,0c-.05,0-.1,0-.15.01.14,0,.27-.02.41-.05l-.05-.82h0c-.06,0-.1.01-.14.02-.09.01-.18.02-.27.03-.14,0-.28,0-.41,0h0Zm1.07,3.81l.05.83c1.7.1,3.1,1.45,3.21,3.19.11,1.74-1.1,3.26-2.78,3.57l.05.83c2.13-.34,3.69-2.25,3.55-4.45-.14-2.19-1.93-3.89-4.08-3.96h0Zm-.34,7.64l.05.83.19,3.03h0s.05.83.05.83c.13-.02.27-.04.41-.05.14,0,.28,0,.41,0l-.05-.83h0s0,0,0,0l-.19-3.03h0s-.08.01-.11.02c-.07,0-.14.02-.21.02h0c.11,0,.22-.02.32-.04l-.05-.82h0c-.06,0-.1.01-.14.02-.09.01-.18.02-.27.03-.14,0-.28,0-.41,0h0Zm.41,0h0s0,0,0,0h0s0,0,0,0h0s0,0,0,0Zm.66,3.81l.05.83c1.7.1,3.1,1.45,3.21,3.19.11,1.74-1.1,3.26-2.78,3.57l.05.83c2.13-.34,3.69-2.25,3.55-4.45-.14-2.19-1.93-3.89-4.08-3.96h0Zm-.34,7.64l.05.83.19,3.03h0s0,0,0,0c0,0-.01,0-.02,0l.07.82c.13-.02.27-.04.41-.05.14,0,.28,0,.41,0l-.05-.83h0s0,0,0,0h0s-.19-3.03-.19-3.03h0s-.08.01-.11.02c-.05,0-.1.01-.15.02h0c.09,0,.18-.02.27-.03l-.05-.82h0c-.06,0-.1.02-.15.02-.09.01-.17.02-.26.03-.14,0-.28,0-.41,0h0Zm.32.83s.1,0,.14,0h0s0,0,0,0c-.05,0-.1,0-.14,0h0Zm.75,2.98l.05.83c1.7.1,3.1,1.45,3.21,3.19.11,1.74-1.1,3.26-2.78,3.57l.05.83c2.13-.34,3.69-2.25,3.55-4.45-.14-2.19-1.93-3.89-4.08-3.96h0Zm-.34,7.64l.05.83s.01,0,.02,0h0s.17,3.03.17,3.03h0s0,0,0,0l.05.83c.13-.02.27-.04.41-.05.14,0,.28,0,.41,0l-.05-.83h0s0,0,0,0l-.19-3.03h0s-.01,0-.02,0c0,0-.01,0-.02,0h0s.03,0,.04,0l-.05-.83h0c-.06,0-.1.02-.15.02-.09.01-.17.02-.26.03-.14,0-.28,0-.41,0h0Zm1.07,3.81l.05.83c1.7.1,3.1,1.45,3.21,3.19.11,1.74-1.1,3.26-2.78,3.57l.05.83c2.13-.34,3.69-2.25,3.55-4.45-.14-2.19-1.93-3.89-4.08-3.96h0Zm.48,7.58c-.13.02-.27.04-.41.05-.13,0-.26,0-.39,0h0s.03.83.03.83l.22,3.42c.01.23.21.4.44.38l3.42-.22.83-.05c-.02-.13-.04-.27-.05-.41,0-.14,0-.28,0-.41h0s-.82.05-.82.05c0,.1,0,.2,0,.3h0c0-.1,0-.2,0-.31l-3.01.19-.19-3.01s0,0-.01,0h0s0,0,.01,0l-.05-.83h0Zm7.22-.44c-2.19.14-3.89,1.93-3.96,4.08l.83-.05c.1-1.7,1.45-3.1,3.19-3.21,1.74-.11,3.26,1.1,3.57,2.78l.41-.03h0s-.41.03-.41.03l.83-.05h0s0,0,0,0c-.34-2.13-2.25-3.69-4.45-3.55h0Zm3.62,3.6c.02.13.04.27.05.41,0,.14,0,.28,0,.41l.83-.05h0s0,0,0,0l3.03-.19h0s0,0,0,0l.83-.05c-.02-.13-.04-.27-.05-.41,0-.14,0-.28,0-.41h0s-.82.05-.82.05c0,.1,0,.2,0,.3h0c0-.1,0-.2,0-.31l-3.03.19h0s0,0,0,0l-.83.05h0Zm7.82-4.33c-2.19.14-3.89,1.93-3.96,4.08l.83-.05c.1-1.7,1.45-3.1,3.19-3.21,1.74-.11,3.26,1.1,3.57,2.78h.03s.8-.05.8-.05h0s0,0,0,0h0s0,0,0,0c-.34-2.13-2.25-3.69-4.45-3.55h0Zm4.45,3.55h0s0,0,0,0h0s-.83.05-.83.05c.02.13.04.27.05.41,0,.14,0,.28,0,.41l.83-.05h0s0,0,0,0l3.03-.19h0s0,0,0,0l.83-.05c-.02-.13-.04-.27-.05-.41,0-.14,0-.28,0-.41h0s-.83.05-.83.05c0,.1,0,.2,0,.3,0-.1,0-.21,0-.31l-3.03.19Zm6.99-4.27c-2.19.14-3.89,1.93-3.96,4.08l.83-.05c.1-1.7,1.45-3.1,3.19-3.21,1.74-.11,3.26,1.1,3.57,2.78l.42-.03h0s-.4.03-.4.03l.81-.05h0s0,0,0,0c-.34-2.13-2.25-3.69-4.45-3.55h0Zm4.45,3.55h0s0,0,0,0h0s-.83.05-.83.05c.02.13.04.27.05.41,0,.14,0,.28,0,.41l.83-.05h0s0,0,0,0l3.03-.19h0s.83-.05.83-.05c-.02-.13-.04-.27-.05-.41,0-.14,0-.27,0-.41h0s-.83.05-.83.05c0,.1,0,.2,0,.3,0-.1,0-.21,0-.31l-3.03.19Zm6.99-4.27c-2.19.14-3.89,1.93-3.96,4.08l.83-.05c.1-1.7,1.45-3.1,3.19-3.21,1.74-.11,3.26,1.1,3.57,2.78l.41-.03-.41.03.83-.05h0s0,0,0,0c-.34-2.13-2.25-3.69-4.45-3.55h0Zm4.46,3.54c0,.1.02.2.03.3h0c0-.1-.02-.2-.04-.3h0s-.83.05-.83.05c.02.13.04.27.05.41,0,.14,0,.28,0,.41l.83-.05h0s0,0,0,0l3.03-.19h0s.83-.05.83-.05c-.02-.13-.04-.27-.05-.41,0-.14,0-.28,0-.41h0s-.83.05-.83.05c0,.1,0,.2,0,.3,0-.1,0-.21,0-.31l-3.02.19h0Zm6.98-4.27c-2.19.14-3.89,1.93-3.96,4.08l.83-.05c.1-1.7,1.45-3.1,3.19-3.21,1.74-.11,3.26,1.1,3.57,2.78l.41-.03-.41.03.83-.05h0s0,0,0,0c-.34-2.13-2.25-3.69-4.45-3.55h0Zm4.45,3.55s0,0,0,0h0s-.82.05-.82.05h0c.02.1.03.2.04.3,0,.04,0,.07,0,.11,0,.14,0,.28,0,.41l.83-.05h0s0,0,0,0l3.03-.19h0s.83-.05.83-.05c-.02-.13-.04-.27-.05-.41,0-.14,0-.28,0-.41h0s-.83.05-.83.05c0,.1,0,.2,0,.3,0-.1,0-.2,0-.31l-3.03.19h0Zm6.99-4.27c-2.19.14-3.89,1.93-3.96,4.08l.83-.05c.1-1.7,1.45-3.1,3.19-3.21,1.74-.11,3.26,1.1,3.57,2.78h.03s.8-.05.8-.05h0s0,0,0,0c-.34-2.13-2.25-3.69-4.45-3.55h0Zm4.45,3.55h0c.01.1.02.2.03.3h0c0-.1-.02-.2-.04-.3l-.82.05h0c.01.1.03.2.04.3,0,.04,0,.07,0,.11,0,.14,0,.28,0,.41l.83-.05h0s0,0,0,0l3.03-.19s0,0,0,0h0s0,0,0,0l.83-.05c-.02-.13-.04-.27-.05-.41,0-.14,0-.28,0-.41l-.83.05s0,0,0,0h0s0,0,0,0l-3.03.19h0Zm6.99-4.27c-2.19.14-3.89,1.93-3.96,4.08l.83-.05c.1-1.7,1.45-3.1,3.19-3.21,1.74-.11,3.26,1.1,3.57,2.78l.42-.03-.41.03.82-.05h0c-.34-2.13-2.25-3.69-4.45-3.55h0Zm7.21-.48l.05.83s0,0,0,0h0s.19,3.01.19,3.01l-3.01.19h0c.01.1.03.2.04.3,0-.1-.02-.2-.04-.3l-.82.05h0c.02.1.03.2.04.3,0,.04,0,.07,0,.11,0,.14,0,.28,0,.41l.83-.05h0s0,0,0,0l3.42-.22c.11,0,.21-.06.28-.14.07-.08.11-.19.1-.3l-.22-3.42h0s-.05-.82-.05-.82h0s-.04,0-.05,0c0,0,0,0,0,0,0,0,0,0,0,0h0s0,0,0,0c0,0,0,0,0,0h0s0,0,0,0c0,0,0,0,0,0,0,0,0,0,0,0-.02,0-.04,0-.07.01h0s0,0,0,0c0,0,0,0,0,0h0s0,0,0,0c0,0-.02,0-.02,0,0,0,0,0-.01,0h0c-.08.01-.16.02-.24.02-.14,0-.28,0-.41,0h0Zm.68-.03s0,0-.01,0c0,0,0,0,0,0,0,0,0,0,0,0h0Zm-1.17-7.55c-2.13.34-3.69,2.25-3.55,4.45.14,2.19,1.93,3.89,4.08,3.96l-.05-.83c-1.7-.1-3.1-1.45-3.21-3.19-.11-1.74,1.1-3.26,2.78-3.57l-.05-.83Zm.58-3.91c-.13.02-.27.04-.41.05-.14,0-.27,0-.41,0l.05.83.19,3.03h0,0l.05.83c.13-.02.27-.04.41-.05.14,0,.28,0,.41,0l-.05-.83-.19-3.03h0s0,0,0,0h0s0,0,0,0c0,0,0,0,0,0h0s0,0,0,0c0,0,0,0,0,0h0s0,0,0,0c0,0,0,0,0,0h0s0,0,0,0l-.05-.83h0Zm.04.83h0s0,0,0,0h0Zm-.02,0h0s0,0,0,0c0,0,0,0,0,0h0s0,0,0,0c0,0,0,0,0,0,0,0,0,0,0,0,0,0,0,0,0,0h0s0,0,0,0c0,0,0,0,0,0h0Zm-.03,0h0s0,0,0,0t0,0h0Zm-.06,0h0s0,0,0,0h0s0,0,0,0h0s0,0,0,0t0,0h0s0,0,0,0h0s0,0,0,0h0s0,0,0,0h0s0,0,0,0h0Zm0,0h0s0,0,0,0h0s0,0,0,0Zm-.02,0s0,0,0,0c0,0,0,0,0,0,0,0,0,0,0,0,0,0,0,0,0,0h0s0,0,0,0h0s0,0,0,0c0,0,0,0,0,0h0s0,0,0,0h0s0,0,0,0h0s0,0,0,0h0s0,0,0,0h0s0,0-.01,0h0s.02,0,.03,0c0,0,0,0,0,0h0Zm-.64-12.29c-.13.02-.27.04-.41.05-.14,0-.27,0-.41,0l.05.83.19,3.03h0s.05.83.05.83c.13-.02.27-.04.41-.05.14,0,.28,0,.41,0l-.05-.83-.19-3.03h0s0,0,0,0h0s-.05-.83-.05-.83h0Zm-.58,3.91c-2.13.34-3.69,2.25-3.55,4.45.14,2.19,1.93,3.89,4.08,3.96l-.05-.83c-1.7-.1-3.1-1.45-3.21-3.19-.11-1.74,1.1-3.26,2.78-3.57l-.05-.83h0Zm-.97-15.3l.05.83.19,3.03h0s.05.83.05.83c.13-.02.27-.04.41-.05.14,0,.28,0,.41,0l-.05-.83-.19-3.03h0s0,0,0,0h0s-.05-.83-.05-.83h0c-.13.02-.27.04-.41.05-.14,0-.28,0-.41,0h0Zm.25,3.86c-2.13.34-3.69,2.25-3.55,4.45.14,2.19,1.93,3.89,4.08,3.96l-.05-.83c-1.7-.1-3.1-1.45-3.21-3.19-.11-1.74,1.1-3.26,2.78-3.57l-.05-.83Zm-.73-11.44c-2.13.34-3.69,2.25-3.55,4.45.14,2.19,1.93,3.89,4.08,3.96l-.05-.83c-1.7-.1-3.1-1.45-3.21-3.19-.11-1.74,1.1-3.26,2.78-3.57l-.05-.83Zm-.25-3.86l.05.83.19,3.03h0s.05.83.05.83c.13-.02.27-.04.41-.05.12,0,.24,0,.36,0-.02,0-.03,0-.04,0h0s0,0,0,0h0s0,0,0,0h0s0,0,0,0c.01,0,.03,0,.04,0,.02,0,.04,0,.06,0l-.05-.83s-.03,0-.04,0c-.02,0-.04,0-.07,0h0s.07,0,.11,0l-.19-3.03h0s0,0,0,0c0,0,0,0-.01,0,0,0,0,0,0,0,0,0,0,0,0,0,0,0,0,0,0,0h0s0,0,0,0,0,0,0,0h0s0,0,0,0c0,0,0,0,0,0,0,0,0,0,0,0,0,0,0,0,0,0,0,0,0,0,0,0,0,0,0,0,0,0h0s0,0,0,0c0,0,0,0,0,0h0s0,0,0,0c.01,0,.03,0,.04,0h0s0,0,0,0c0,0,0,0,0,0h0s0,0,0,0l-.05-.83h0c-.13.02-.27.04-.41.05-.14,0-.28,0-.41,0h0Zm.84.78h0s0,0,0,0h0Zm-.02,0s0,0,0,0c0,0,0,0,0,0,0,0-.01,0-.02,0,0,0,0,0,.01,0,0,0,.01,0,.02,0h0Zm-.04,0s-.01,0-.02,0c0,0,.01,0,.02,0h0Zm-1.26-8.37c-2.13.34-3.69,2.25-3.55,4.45.14,2.19,1.93,3.89,4.08,3.96l-.05-.83c-1.7-.1-3.1-1.45-3.21-3.19-.11-1.74,1.1-3.26,2.78-3.57l-.05-.83Zm-.25-3.86l.05.83s0,0,0,0h0s.19,3.03.19,3.03h0s.05.83.05.83c.13-.02.27-.04.41-.05.14,0,.28,0,.41,0l-.05-.83h0s0,0,0,0l-.19-3.03s0,0,0,0t0,0h0s0,0,0,0c0,0,0,0,0,0,0,0,0,0,0,0,0,0,0,0-.01,0-.07.01-.13.02-.2.03.02,0,.04,0,.05,0,.06,0,.12-.02.18-.02l-.05-.83h0c-.13.02-.27.04-.41.05-.14,0-.28,0-.41,0h0Zm-.48-7.58c-2.13.34-3.69,2.25-3.55,4.45.14,2.19,1.93,3.89,4.08,3.96l-.05-.83c-1.7-.1-3.1-1.45-3.21-3.19-.11-1.74,1.1-3.26,2.78-3.57l-.05-.83Zm-.25-3.86l.05.83h0s0,0,0,0l.19,3.03h0s.05.83.05.83c.13-.02.27-.04.41-.05.14,0,.28,0,.41,0l-.05-.83h0s0,0,0,0l-.19-3.03h0s-.05-.83-.05-.83c-.13.02-.27.04-.41.05-.14,0-.28,0-.41,0h0Zm-.48-7.58c-2.13.34-3.69,2.25-3.55,4.45.14,2.19,1.93,3.89,4.08,3.96l-.05-.83c-1.7-.1-3.1-1.45-3.21-3.19-.11-1.74,1.1-3.26,2.78-3.57l-.05-.83Zm-.25-3.86l.05.83s0,0,0,0h0s.19,3.03.19,3.03h0,0l.05.83c.13-.02.27-.04.41-.05.14,0,.27,0,.4,0,0,0,0,0,0,0,0,0,0,0,0,0,0,0,0,0,0,0l-.05-.83h0s0,0,0,0l-.19-3.03h0s-.02,0-.03,0c0,0,0,0,.01,0,0,0,0,0,0,0,0,0,0,0,0,0h0s0,0,0,0h0s0,0,0,0h0s0,0,0,0l-.05-.83h0c-.13.02-.27.04-.41.05-.14,0-.28,0-.41,0h0Zm.82.78s-.01,0-.02,0c0,0,.01,0,.02,0h0Zm-1.3-8.37c-2.13.34-3.69,2.25-3.55,4.45.14,2.19,1.93,3.89,4.08,3.96l-.05-.83c-1.7-.1-3.1-1.45-3.21-3.19-.11-1.74,1.1-3.26,2.78-3.57l-.05-.83Zm-.25-3.86l.05.83.19,3.03h0s0,0,0,0l.05.83c.13-.02.27-.04.41-.05.14,0,.28,0,.41,0l-.05-.83-.19-3.03h0s-.01,0-.02,0h0s0,0,0,0c0,0,0,0,0,0h0s0,0,.01,0l-.05-.83h0c-.13.02-.27.04-.41.05-.14,0-.28,0-.41,0h0Zm.86.78s0,0,0,0c0,0,0,0,0,0h0Zm-.01,0s0,0,0,0c0,0,0,0,0,0h0Zm0,0s0,0,0,0c0,0,0,0,0,0h0Zm-.04,0s-.02,0-.02,0c0,0,.02,0,.02,0h0Zm-.06,0h0s0,0,0,0h0Zm-1.23-8.38c-2.13.34-3.69,2.25-3.55,4.45.14,2.19,1.93,3.89,4.08,3.96l-.05-.83c-1.7-.1-3.1-1.45-3.21-3.19-.11-1.74,1.1-3.26,2.78-3.57l-.05-.83Zm.58-3.91c-.13.02-.27.04-.41.05-.14,0-.28,0-.41,0l.05.83.19,3.03h0s.05.83.05.83c.13-.02.27-.04.41-.05.14,0,.28,0,.41,0l-.05-.83-.19-3.03h0s0,0,0,0h0s-.05-.83-.05-.83h0Z"/>
      </g>
      <g>
        <path class="cls-1" d="m12.9,19.02l.15,2.4c.01.19-.13.35-.31.36l-.27.02c-.19.01-.35-.13-.36-.32l-.35-5.74c-.01-.19.13-.35.32-.37l1.03-.06c1.16-.07,1.71.51,1.79,1.74.07,1.23-.4,1.87-1.57,1.94l-.43.03Zm-.17-2.74l.11,1.79.43-.03c.52-.03.71-.32.67-.94-.04-.64-.26-.88-.78-.85l-.43.03Z"/>
        <path class="cls-1" d="m15.56,17.04c-.07-1.2.41-1.89,1.45-1.96,1.05-.06,1.6.55,1.68,1.77l.16,2.7c.05.75-.13,1.2-.41,1.52-.3.32-.69.42-1.04.45-.34.02-.75-.03-1.08-.32-.31-.28-.55-.7-.6-1.46l-.16-2.7Zm1.12,2.64c.04.63.26.91.67.89.4-.02.59-.31.55-.96l-.16-2.7c-.04-.64-.26-.9-.67-.88-.42.03-.59.33-.55.95l.17,2.7Z"/>
        <path class="cls-1" d="m22.33,20.86c.01.19-.13.35-.32.36l-2.03.12c-.19.01-.35-.13-.36-.32l-.35-5.74c-.01-.19.13-.35.32-.37l.28-.02c.18-.01.34.13.35.32l.31,5.14,1.42-.09c.19-.01.35.13.36.32l.02.26Z"/>
        <path class="cls-1" d="m22.62,16.61c-.07-1.2.41-1.89,1.45-1.96,1.05-.06,1.6.55,1.68,1.77l.16,2.7c.05.75-.13,1.2-.41,1.52-.3.32-.69.42-1.04.45-.34.02-.75-.03-1.08-.32-.31-.28-.55-.7-.6-1.46l-.16-2.7Zm1.12,2.64c.04.63.26.91.67.89.4-.02.59-.31.55-.96l-.17-2.7c-.04-.64-.26-.9-.67-.88-.42.03-.59.33-.55.95l.16,2.7Z"/>
        <path class="cls-1" d="m31.36,20.66c-.11,0-.28-.09-.33-.19l-1.52-3.2.19,3.15c.01.19-.14.35-.32.36l-.28.02c-.18.01-.35-.13-.36-.32l-.35-5.74c-.01-.19.14-.35.32-.37h.23c.12-.02.28.07.33.18l1.53,3.2-.19-3.15c-.01-.19.13-.35.32-.37l.27-.02c.19-.01.35.13.36.32l.35,5.74c.01.19-.13.35-.32.36h-.22Z"/>
        <path class="cls-1" d="m32.4,16.01c-.07-1.2.41-1.89,1.45-1.96,1.05-.06,1.6.55,1.68,1.77l.17,2.7c.05.75-.13,1.2-.41,1.52-.3.32-.69.42-1.04.45-.34.02-.75-.03-1.08-.32-.31-.28-.55-.7-.6-1.46l-.16-2.7Zm1.12,2.64c.04.63.26.91.67.89.4-.02.59-.31.55-.96l-.16-2.7c-.04-.64-.26-.9-.67-.88-.42.03-.59.33-.55.95l.17,2.7Z"/>
        <path class="cls-1" d="m39.6,19.8c.01.19-.13.35-.32.36l-.27.02c-.19.01-.35-.13-.36-.32l-.1-1.59c-.03-.48-.31-.73-.78-.7l-.43.03.14,2.34c.01.19-.13.35-.31.36l-.27.02c-.19.01-.35-.13-.36-.32l-.35-5.74c-.01-.19.13-.35.32-.36l1.2-.07c1.17-.07,1.62.49,1.7,1.77.04.59-.04,1.07-.32,1.39-.03.03-.04.05-.07.08.29.28.45.66.48,1.16l.1,1.59Zm-2.32-3.17l.43-.03c.53-.03.79-.32.75-.96-.04-.65-.2-.91-.69-.88l-.6.04.11,1.83Z"/>
        <path class="cls-1" d="m39.93,14.02c-.01-.19.13-.35.32-.36l2.5-.15c.19-.01.35.13.36.32l.02.27c.01.19-.13.35-.32.36l-.78.05.31,5.13c.01.19-.13.35-.32.36l-.26.02c-.19.01-.35-.13-.36-.32l-.31-5.13-.77.05c-.19.01-.35-.13-.36-.32l-.02-.27Z"/>
        <path class="cls-1" d="m46.17,13.31c.19-.01.35.13.36.32l.02.26c.01.19-.13.35-.32.36l-1.46.09.11,1.79,1.2-.07c.19-.01.35.13.36.32l.02.26c.01.19-.13.35-.32.36l-1.2.07.11,1.8,1.46-.09c.19-.01.35.13.36.32l.02.26c.01.19-.13.35-.32.36l-2.06.13c-.19.01-.35-.13-.36-.32l-.35-5.74c-.01-.19.13-.35.32-.37l2.06-.13Z"/>
      </g>
      <g>
        <path class="cls-1" d="m68.53,108.17c.19-.01.35.13.36.32l.02.26c.01.19-.13.35-.32.36l-2.13.13c-.19.01-.35-.13-.36-.32v-.13c-.04-.54,0-1.01.13-1.43h0c.14-.47.42-.91.8-1.31.46-.49.7-1.05.67-1.61-.03-.47-.21-.76-.5-.75-.31.02-.44.28-.41.83v.06c.01.18-.13.34-.31.35l-.28.02c-.19.01-.35-.13-.36-.31v-.06c-.07-1.11.36-1.77,1.3-1.83.9-.05,1.45.65,1.51,1.63.05.88-.25,1.65-.94,2.34-.43.43-.64.88-.66,1.53l1.49-.09Z"/>
        <path class="cls-1" d="m69.34,104.5c-.07-1.2.34-1.91,1.3-1.96.94-.06,1.44.62,1.51,1.79l.16,2.66c.07,1.17-.35,1.92-1.29,1.97-.94.06-1.45-.6-1.53-1.8l-.16-2.66Zm1.12,2.7c.04.63.2.82.51.8.3-.02.44-.23.4-.86l-.17-2.85c-.04-.62-.2-.81-.5-.79-.31.02-.45.23-.41.85l.17,2.85Z"/>
        <path class="cls-1" d="m75.59,107.74c.19-.01.35.13.36.32l.02.26c.01.19-.13.35-.32.36l-2.13.13c-.19.01-.35-.13-.36-.32v-.13c-.04-.54,0-1.01.14-1.43h0c.14-.47.42-.91.8-1.31.46-.49.7-1.05.67-1.61-.03-.47-.21-.76-.5-.75-.31.02-.44.28-.41.83v.06c.01.18-.13.34-.31.35l-.28.02c-.19.01-.35-.13-.36-.31v-.06c-.07-1.11.36-1.77,1.3-1.83.9-.05,1.45.65,1.51,1.63.05.88-.25,1.65-.94,2.34-.43.43-.63.88-.66,1.53l1.49-.09Z"/>
        <path class="cls-1" d="m76.57,106.71c-.01-.19.13-.35.32-.36l.28-.02c.18-.01.34.13.35.32v.05c.04.64.22.91.52.89.26-.02.35-.29.38-.48.01-.12.02-.27.01-.42-.02-.39-.18-.6-.3-.7-.16-.14-.33-.18-.42-.17h-.12c-.19.02-.35-.12-.36-.31l-.02-.26c-.01-.19.13-.35.32-.36h.12c.12-.02.28-.09.41-.24h0c.14-.15.24-.39.21-.72-.02-.3-.08-.54-.21-.7-.07-.11-.18-.16-.3-.15-.3.02-.44.33-.4.95v.05c.01.19-.13.35-.31.37l-.28.02c-.19.01-.35-.13-.36-.32v-.05c-.07-1.18.36-1.9,1.29-1.96.48-.03.85.15,1.13.55h0c.24.29.36.69.39,1.19.04.71-.23,1.16-.46,1.43.26.22.58.63.63,1.35.07,1.12-.44,1.85-1.29,1.91-.93.06-1.45-.6-1.52-1.77v-.05Z"/>
      </g>
    </g>
  </g>
</svg>