<?xml version="1.0" encoding="UTF-8"?>
<svg id="Layer_2" data-name="Layer 2" xmlns="http://www.w3.org/2000/svg" viewBox="0 0 602.85 213.76">
  <defs>
    <style>
      .cls-1 {
        fill: #c40c2f;
        stroke-width: 0px;
      }
    </style>
  </defs>
  <g id="Layer_1-2" data-name="Layer 1">
    <g>
      <path class="cls-1" d="m94.14,136.09s.01,0,.02-.01c.01-.01.03-.02.04-.04-.02.02-.04.03-.05.05Zm5.47-.97s-.02.02-.03.03c.02.01.03.02.05.02,0-.02,0-.03-.01-.05Zm4.39,0s.05.03.08.04c0-.02.01-.05.02-.07-.03.01-.07.03-.1.04Zm1.27.4s.01.03.02.04c0,.01.02.03.03.06.02.03.03.05.04.08h0s.04.02.06.03c0-.03,0-.05,0-.08,0-.07,0-.13-.01-.2-.05.02-.09.05-.13.08Zm1.21-1.21c.07,0,.14,0,.21.02.02-.04.05-.06.08-.09-.1,0-.2.02-.29.08Zm3.2.79c-.14.07-.29.13-.43.17.08.03.16,0,.24-.06.08-.07.15-.09.22-.06-.01-.01-.02-.03-.03-.05Zm-15.53,1s.01,0,.02-.01c.01-.01.03-.02.04-.04-.02.02-.04.03-.05.05Zm15.53-1c-.14.07-.29.13-.43.17.08.03.16,0,.24-.06.08-.07.15-.09.22-.06-.01-.01-.02-.03-.03-.05Z"/>
      <path class="cls-1" d="m130.99,95.92c-.36-.21-.76-.32-1.16-.41-.22-.05-.45-.08-.65-.19-.14-.07-.3-.16-.31-.32,0-.16.18-.22.3-.27.27-.11.55-.18.81-.3.41-.18.48-.6.18-.94-.11-.12-.24-.19-.38-.26-.27-.13-.55-.22-.84-.3-1.02-.27-1.81-1.01-2.77-1.4-.1-.04-.23-.15-.19-.29.18-.52-.05-.92-.35-1.31-.1-.14-.06-.21.03-.32.42-.46.42-.76-.03-1.21-.23-.22-.48-.42-.7-.65-.41-.42-.38-.6.19-.73.85-.19,1.39-.78,1.88-1.42.37-.47.12-.94-.45-.99-.36-.03-.7.06-1.05.09-.52.04-.9-.14-1.13-.63-.12-.25-.28-.47-.51-.65-.5-.39-.55-.58-.33-1.17.05-.13.09-.25.14-.38.25-.68.08-1.36-.15-1.96-.31-.86-.85-1.04-1.77-.84-.23.05-.47.1-.7.02-.12-.05-.22-.11-.19-.27.04-.35.07-.7.11-1.04.04-.3.12-.59.34-.81.22-.23.41-.48.6-.74.29-.41.56-.39.82.04.02.04.04.07.06.11.17.24.36.28.56.07.82-.86.69-1.88-.29-2.54-.56-.38-.82-.85-.68-1.5.06-.25.03-.48-.07-.72-.08-.19-.16-.38-.21-.58-.23-1.04-.6-2-1.45-2.72-.15-.13-.27-.31-.4-.47-.32-.36-.66-.7-1.05-1-.41-.32-.85-.54-1.4-.56-.89-.03-1.76-.16-2.56-.61-.05-.03-.12-.04-.18-.04-.47,0-.91-.17-1.36-.28-.65-.15-1.24-.52-1.95-.42-.08.01-.16-.02-.24-.05-.28-.13-.57-.15-.87-.17-.55-.02-1.1-.04-1.64-.23-.5-.18-1.04-.17-1.55.02-.38.14-.76.15-1.15.08-.33-.06-.67-.15-1.01-.08-.4.07-.75,0-1.05-.29-.23-.21-.51-.29-.8-.16-.57.25-1.09.62-1.75.64-.35.36-.91.29-1.25.65-.06.07-.2.14-.27.02-.07-.12.07-.19.16-.21.44-.09.66-.47.97-.73.18-.16.27-.4.11-.61-.26-.34-.39-.72-.46-1.13-.03-.16-.1-.33-.23-.43-.41-.37-.53-.83-.46-1.37.07-.53-.17-1-.56-1.32-.94-.77-1.99-1.16-3.2-.6-.1.05-.21.09-.32.1-.36.05-.65.23-.93.47-.3.26-.58.55-.93.76-.06.04-.11.08-.12.17-.01.27-.18.46-.36.63-.24.24-.37.54-.43.87-.09.58-.02,1.15.09,1.72.04.2.13.36.28.5.4.39.83.73,1.41.83.35.06.46.31.36.65-.03.11-.06.23-.13.31-.43.49-.43,1.13-.55,1.7-.21,1.03-.07,2.05.44,3,.17.33.34.66.53.98.12.2.07.31-.11.43-.23.15-.46.16-.69.01-.18-.11-.34-.25-.45-.42-.31-.47-.69-.87-1.11-1.23-.39-.32-.51-.82-.83-1.18-.58-.66-1.13-1.34-1.71-1.99-.49-.55-1.01-1.05-1.69-1.38-.1-.04-.17-.14-.26-.21-.91-.79-1.75-1.68-2.86-2.22-.1-.05-.19-.13-.26-.21-.23-.26-.52-.43-.82-.59-.42-.22-.84-.44-1.26-.65-1.6-.81-3.23-1.52-5-1.84-.43-.08-.84-.21-1.24-.36-.77-.29-1.54-.61-2.37-.66-1.46-.08-2.91-.32-4.37-.41-1.07-.06-2.14-.13-3.2.06-1.38.25-2.74.56-4.12.81-.68.12-1.34.43-2.06.28-.15-.03-.29.08-.42.16-.16.11-.34.24-.54.21-.42-.06-.82-.08-1.18.2-.05.04-.14.03-.21.03-.17,0-.33.05-.47.14-.14.1-.31.17-.49.17-.74.03-1.41.39-2.13.54-.53.1-1.04.36-1.59.46-.15.02-.3.08-.44.15-.68.37-1.41.64-2.14.9-1.94.69-3.85,1.46-5.57,2.62-.67.45-1.33.9-2.01,1.32-.29.18-.58.36-.79.64-.22.29-.49.52-.81.71-.41.25-.8.51-1.15.83-.75.69-1.7,1.13-2.27,2.02-.08.13-.24.23-.37.32-.3.21-.58.44-.77.75-.56.96-1.46,1.61-2.2,2.39-.71.75-1.37,1.53-1.94,2.4-.15.23-.26.49-.49.66-.28.21-.51.48-.7.78-.26.39-.52.79-.85,1.14-.18.19-.3.42-.31.69-.01.29-.16.53-.37.73-.18.18-.32.38-.37.63-.07.32-.21.6-.41.86-.25.32-.49.64-.45,1.08,0,.09-.05.2-.09.29-.2.34-.32.71-.5,1.06-.37.68-.59,1.41-.85,2.13-.45,1.29-.79,2.6-1.12,3.91-.38,1.5-.63,3.03-.69,4.59,0,.07-.02.14-.03.21-.15.65-.18,1.32-.2,1.98-.02.97.1,1.95.16,2.93h.01c.03.43.08.86.07,1.3-.01,1.07.08,2.14.34,3.18.24.97.29,1.97.63,2.92.41,1.13.87,2.25,1.21,3.4.14.46.48.85.61,1.33.02.06.06.11.1.16.44.49.71,1.08.99,1.66.26.54.49,1.1.91,1.54.78.8,1.44,1.69,2.14,2.55.28.35.56.69.97.89.13.07.23.17.32.29.2.29.44.54.71.76.13.1.25.22.32.37.18.36.46.62.8.84.25.16.49.35.64.61.29.47.65.85,1.13,1.11.12.06.22.16.31.25.48.48,1.06.82,1.68,1.08.69.29,1.37.57,1.95,1.06.11.09.25.15.39.19.58.2,1.11.58,1.77.56.1,0,.22.07.31.13.24.17.51.27.8.31.31.04.6.15.85.33.24.17.51.25.81.27,1.13.07,2.25.25,3.38.28.82.02,1.6.32,2.42.33.66.01,1.32-.01,1.97.01,1.11.04,2.2.3,3.32.14.4-.06.69.22.76.66.04.26.07.54.04.8-.08.87.08,1.63.77,2.23.25.22.45.48.76.61.3.13.55.31.73.59.12.2.33.3.55.38.26.09.51.22.69.44.58.68,1.21,1.28,2.02,1.69.48.24.56.53.32,1.02-.18.37-.23.74-.21,1.14.03.57.11,1.13.04,1.7-.15,1.28-.43,2.53-.23,3.84.09.55-.35.78-.85.48-.38-.23-.77-.25-1.19-.19-.69.1-1.27.45-1.89.73-.47.22-.84.48-.97,1.01-.05.19-.19.37-.29.55-.18.32-.37.64-.49,1-.26.8-.26,1.54.45,2.14.1.08.2.17.22.3.06.38.29.64.52.92.27.32.19.6-.2.75-.27.1-.49.25-.67.47-.66.82-1.41,1.56-2.15,2.31-.32.33-.57.7-.75,1.12-.22.51-.39,1.05-.78,1.46-.68.73-.98,1.59-1.08,2.56-.01.14-.08.26-.17.35-.67.74-1.13,1.62-1.67,2.44-.42.65-.51,1.35-.51,2.09,0,.64.22,1.16.74,1.56.67.52,1.29,1.13,2.17,1.32.22.05.39.22.57.36.68.55,1.56.54,2.25,0,.23-.18.41-.4.48-.69.04-.16.13-.32.32-.33.21-.01.31.14.38.31.06.14.11.28.16.43.1.31.24.59.39.87.15.3.38.48.72.5.37.03.7.15,1.02.33.56.33,1.16.53,1.82.46.17-.02.35.02.52.05.84.19,1.68.02,2.52.06.09,0,.18-.03.27-.06.39-.12.79-.14,1.19-.13.58.02,1.17.07,1.76-.03.87-.15,1.15-.82.65-1.54-.39-.57-.96-.86-1.62-.98-1.37-.24-2.53-.87-3.58-1.77-.18-.16-.39-.31-.61-.42-.4-.21-.67-.53-.86-.93-.2-.41-.37-.83-.59-1.22-.1-.19-.08-.32.04-.47.24-.3.55-.49.88-.66.36-.19.73-.34,1.05-.58,1.16-.89,2.38-1.69,3.59-2.51.83-.56,1.67-.8,2.64-.59.41.09.82.09,1.21-.1.57-.27,1.17-.46,1.76-.66.64-.22,1.19-.58,1.67-1.04.9-.86,1.12-2.1.54-3.07-.37-.62-.35-.74.16-1.24.19-.18.38-.35.58-.51.55-.43,1.07-.88,1.53-1.39,1.45-1.64,2.89-3.29,4.26-5,.27-.34.54-.43.9-.28.7.27,1.48.26,2.17.59.08.04.18.04.27.05.87.09,1.72-.03,2.58-.13.69-.07,1.39-.2,2.05.06.72.28,1.43.35,2.18.28.57-.05,1.08.1,1.5.52.41.4.91.54,1.47.53.51,0,.97-.18,1.42-.4.82-.39,1.49-.27,2.19.35,1.39,1.24,2.86,2.39,4.64,3.06.07.03.13.06.19.1.51.29.55.54.19.98-.06.08-.13.16-.21.23-.8.86-.88,1.52-.31,2.54.15.26.34.5.42.79.17.7.77,1.06,1.29,1.39.61.38,1.32.61,2.09.55.5-.04.71.21.72.71,0,.17-.02.35-.02.52,0,.25-.03.5.07.73.3.71.5,1.46.75,2.19.04.11.06.22.14.31.25.26.39.58.52.9.14.35.34.66.62.91.1.09.2.19.25.31.43.91,1.02,1.74,1.34,2.7.1.3.18.6.32.87.53,1.1,1.45,1.87,2.78,1.3.31-.13.63-.24.95-.36.4-.15.79-.34,1.21-.36.46-.02.81-.25,1.18-.47.36-.22.44-.46.3-.86-.05-.14-.11-.27-.15-.4-.11-.4.07-.58.47-.48.16.04.29.12.4.22.43.4.89.4,1.4.17.31-.14.62-.27.95-.36,1.32-.35,2.59-.82,3.7-1.65.23-.17.5-.27.76-.42.25-.14.56-.19.76-.41.51-.55,1.04-1.08,1.62-1.56.08-.07.14-.16.19-.25.21-.36.18-.74-.02-1.09-.19-.33-.51-.39-.86-.36s-.67.1-1,.2c-.96.28-1.94.38-2.93.36-1.39-.03-2.76-.3-4.15-.34-.57-.02-1.1-.24-1.58-.56-.23-.16-.36-.35-.35-.64.02-.3-.02-.59-.14-.88-.06-.12-.06-.26-.04-.4.07-.44.11-.87-.08-1.3-.05-.11-.04-.25-.02-.37.1-.62.13-1.25.07-1.88-.03-.23.05-.42.26-.55.24-.15.37-.39.42-.66.04-.23.08-.47.1-.7.02-.24.11-.35.38-.35.62,0,1.14-.32,1.41-.82.46-.84.61-1.77.23-2.71-.33-.81-.8-1.53-1.38-2.18-.3-.34-.67-.57-1.13-.65-.25-.04-.48-.11-.72-.18-.29-.08-.46-.26-.5-.56-.08-.63-.4-1.16-.74-1.68-.26-.39-.52-.77-.72-1.18-.32-.65-.26-1.09.27-1.58.44-.41.77-.88,1.04-1.4.55-1.05.96-2.14,1.16-3.31.1-.57.08-1.11-.16-1.63-.21-.46-.42-.92-.65-1.36-.35-.66-.82-1.3-1.61-1.42-.82-.12-1.66-.16-2.49-.12-.84.04-1.63.32-2.39.68-.22.1-.4.25-.55.44-.12.16-.28.27-.48.31-.37.08-1.53-.39-1.69-.74-.13-.28-.34-.43-.58-.56-.43-.24-.49-.51-.18-.9.3-.35.5-.75.69-1.16.1-.23.22-.45.36-.64.35-.46.57-.97.73-1.52.13-.45.29-.88.57-1.26.45-.59.68-.69,1.37-.42.71.27,1.43.36,2.18.34,1.1-.02,1.4-.21,1.72-1.12.03-.09.05-.18.07-.27.07-.34.03-.4-.31-.3-.61.19-1.24.2-1.87.13-.39-.04-.78-.08-1.14-.24-.31-.14-.38-.35-.14-.58.59-.56.83-1.32,1.23-1.98.22-.36.32-.76.37-1.17.06-.43.13-.85.37-1.23.1-.16.13-.35.11-.54-.07-.55-.06-1.11-.03-1.66.02-.24-.03-.47-.12-.7-.36-.92-.74-1.83-1.24-2.69-.29-.5-.63-.94-1.22-1.16-.53-.2-.61-.55-.31-1.04.06-.1.12-.19.19-.28.91-1.12,2.15-1.41,3.51-1.33.22.01.42.12.57.29.61.67,1.34,1.22,2.06,1.77.53.4.98.87,1.3,1.47.3.57.56,1.15.72,1.77.15.56.34,1.12.25,1.7-.05.34-.09.67-.07,1.01.04.47-.02.92-.14,1.38-.13.52-.28,1.03-.38,1.56-.09.49-.27.9-.67,1.21-.2.15-.35.35-.44.58-.06.16,0,.23.16.24.27.01.5-.09.69-.29.26-.28.55-.53.91-.68.16-.06.29-.18.35-.33.35-.87,1.02-1.6,1.17-2.57.04-.3.23-.47.53-.53.32-.07.64-.12.95-.05,1.08.22,2.11.08,3.16-.27.55-.18,1.06-.39,1.49-.77.29-.26.59-.52.93-.72.42-.25.77-.55.93-1.03.03-.08.08-.19.15-.23.41-.21.54-.63.76-.98,1.12-1.85.9-3.7-.01-5.55-.02-.04-.05-.07-.08-.1-.28-.25-.5-.55-.72-.84-.49-.67-1.22-1.08-1.79-1.65-.3-.29-.61-.54-1.04-.63-.19-.04-.35-.16-.51-.29-.12-.09-.25-.19-.41-.21-1.54-.29-3.07-.42-4.46.55-.32.22-.67.36-1.06.4-.12.01-.25.03-.34-.08-.34-.37-.67-.75-.9-1.21-.34-.69-.82-1.27-1.41-1.77-.15-.13-.32-.26-.42-.45-.04-.08-.11-.17-.04-.26.07-.07.16,0,.23.01.4.11.75.32,1.12.51.5.26,1.01.46,1.58.51.3.03.5-.04.6-.34.08-.26.28-.33.54-.29.13.02.27.04.39.08.94.36,1.9.56,2.9.39,1.76.27,3.36-.43,5-.86.23-.06.4-.2.44-.46.03-.26-.1-.44-.28-.58-.25-.19-.52-.33-.8-.46-.21-.1-.41-.19-.58-.34-.11-.09-.19-.2-.16-.35.03-.15.15-.22.29-.25.2-.04.41-.06.61-.09.88-.1,1.72-.34,2.48-.8.58-.36.55-.85-.04-1.19Zm-11.64,64.11c.04-.1.13-.09.21-.08.3,0,.59.06.88.12.8.16,1.58.45,2.42.42.05,0,.1,0,.15.03.12.04.27.08.27.22,0,.14-.16.13-.27.15-.27.06-.54.11-.74.15-.99.04-1.86-.07-2.63-.62-.07-.05-.14-.11-.21-.18-.06-.06-.12-.12-.09-.21Zm3.89-75.77c.33.73.85,1.2,1.58,1.46.09.03.21.05.22.15,0,.12-.12.15-.21.19-.19.09-.4.11-.59.13-.35.02-.68-.05-.94-.31-.11-.11-.25-.19-.4-.22-.35-.06-.67-.2-.95-.42-.14-.1-.29-.16-.45-.04-.16.12-.1.28-.06.43.12.41.04.77-.24,1.09-.18.22-.4.25-.58.05-.5-.54-.72-.44-1.26.1-.49.49-1.11.68-1.8.68-.21,0-.32-.12-.32-.29,0-.56-.35-.66-.84-.63-.67.05-1.34.02-1.99-.17-.35-.1-.66-.29-.89-.58-.05-.07-.15-.15-.11-.24.04-.1.17-.04.25-.04.41.04.82.1,1.2.26.26.11.52.13.78.03.5-.19,1.03-.28,1.56-.38.95-.19,1.59-.77,2.06-1.58.06-.1.12-.22.19-.32.11-.18.26-.24.47-.16.14.06.29.09.43.16.54.24,1.08.25,1.65.08.73-.23.96-.14,1.27.55Zm-28.11-21.34c-.03-.48.09-.86.37-1.17.63-.71,1.38-1.23,2.32-1.42.35-.07.7-.06,1.03.1.48.23.63.71.26,1.08-.8.79-1.7,1.45-2.78,1.83-.26.09-.53.06-.79.02-.29-.04-.45-.19-.41-.44Zm-31.12,102.85c.18.15.39.27.58.4.11.07.23.18.2.32-.04.16-.21.13-.32.15-.22,0-.4-.07-.57-.18-.89-.59-1.62-1.35-2.35-2.12-.16-.16-.26-.37-.2-.62.07-.28.23-.35.48-.2.24.14.43.35.58.58.44.65.99,1.18,1.59,1.67Zm1.85-8.92c-1.03.32-1.89.93-2.76,1.54-.51.36-1.14.52-1.62.92-.41.34-.9.59-1.22,1.01-.29.38-.77.56-1.03.96-.05.07-.16.11-.25.04-.07-.07-.04-.15-.01-.23.07-.2.21-.35.34-.51.73-.92,1.68-1.6,2.63-2.27.38-.27.76-.53,1.06-.89.11-.13.26-.24.42-.3.61-.26,1.18-.57,1.74-.94.14-.1.31-.16.54-.17.21.03.55-.02.64.29.1.34-.22.48-.46.56Zm9.18-2.91c-.22.39-.51.73-.92.93-.76.39-1.56.63-2.61.7-.48.03-1.15,0-1.8-.2-.52-.15-1.05-.23-1.58-.19-.44.02-.83-.1-1.17-.38-.26-.21-.54-.38-.81-.57-.31-.22-.58-.46-.69-.84-.01-.04-.02-.09-.05-.11-.45-.33-.7-.9-1.26-1.09-.39-.12-.65-.37-.81-.74-.21-.49-.61-.82-.99-1.18-.53-.49-.98-1.03-1.31-1.69-.34-.7.06-2.19.87-2.48.28-.1.53-.28.82-.36.57-.16.93,0,.97.59.05.74.45,1.23.95,1.69.39.35.74.74.99,1.22.04.07.08.15.14.2.52.37.88.93,1.45,1.23.19.1.35.25.51.39.37.35.76.67,1.21.89.26.13.49.3.7.51.39.4.88.51,1.41.49.61-.02,1.23-.14,1.85,0,.54.12,1.09.18,1.66.17.62-.01.78.28.47.82Zm39.8,2.5c-.08-.16-.12-.33-.13-.5-.02-.3-.04-.6-.05-.89-.02-.37-.1-.74-.04-1.11.02-.14.03-.33.23-.35.18-.02.31.1.38.26.06.13.11.27.14.4.13.6.14,1.2.06,1.81-.02.12-.05.24-.09.36-.04.13-.09.29-.24.3-.15.01-.2-.15-.26-.27Zm.94,4.72s-.05-.07-.06-.11c-.21-1.01-.6-1.99-.69-3.06,0-.19.01-.4.02-.62,0-.07.03-.15.12-.15.08,0,.1.06.12.12.23.89.7,1.69.99,2.55.08.25.18.5.21.77.02.13.02.27-.03.4-.05.15-.09.34-.28.37-.2.02-.32-.11-.41-.27Zm1.02,3.41c-.32.02-.64-.27-.67-.6-.02-.31.22-.53.61-.56.26-.02.53.28.56.61.03.3-.18.52-.5.54Zm-.73-17.35c.27-.29.61-.45.99-.55.4-.1.66-.31.8-.72.12-.39.47-.45.77-.17.89.83,1.17,2.1.7,3.23-.14.34-.42.59-.68.84-.28.27-.58.53-.82.84-.39.51-.91.84-1.52,1-1.06.3-2.09.69-3.05,1.24-.48.28-1,.44-1.56.41-.72-.03-1.34.27-1.98.54-.58.25-1.18.4-1.8.23-1.17-.32-1.96-1.11-2.38-2.2-.26-.66.04-1.35.52-1.88.46-.51,1.1-.64,1.7-.44.68.23,1.33.22,2.01.11,1.18-.18,2.37-.33,3.44-.91.29-.15.57-.33.86-.49.22-.12.43-.27.66-.31.55-.1.96-.39,1.33-.79Zm-8.22-12.2c.03.1.09.16.18.22-.05.02-.11.03-.16.04l-.02-.26Zm1.31,1.66c.32-.27.71-.44,1.08-.66.57-.35.7-.58.56-1.12.08-.08.16-.16.24-.24.03.16.05.33.08.51.16-.08.21-.18.19-.32-.02-.15-.02-.3-.03-.45.06-.07.12-.13.18-.2.1,0,.14.06.15.17,0,.07-.04.2.07.2.12,0,.11-.13.07-.22-.1-.2.07-.19.16-.18.43.07.52-.3.69-.53.19-.24.21-.53.04-.81-.24-.4-.46-.83-.97-.97-.06-.02-.1-.07-.15-.11-.31-.27-.28-.5.11-.62.45-.14.92-.23,1.39-.29.2-.02.39.01.57.1.31.15.63.15.97.08.64-.14.89-.04,1.22.54.23.4.42.82.62,1.24.24.51.19,1.05.07,1.58-.17.76-.42,1.49-.92,2.1-.16.19-.28.41-.32.66-.06.34-.28.59-.53.81-.43.38-.84.75-.96,1.36-.05.26-.31.43-.5.62-.6.6-1.31.95-2.16.99-.53.03-.99.25-1.44.51-.71.39-1.39.85-2.21,1-.37.06-.74.09-1.11.1-.97,0-1.9.17-2.81.51-.89.34-1.79.46-2.75.31-.79-.13-1.63-.04-2.38.24-1.33.49-2.65.37-3.98.07-.71-.16-1.4-.41-2.1-.61-.57-.17-1.14-.23-1.74-.17-1.49.14-2.98.13-4.45-.23-.42-.1-.81-.24-1.16-.49-.7-.51-1.51-.52-2.31-.51-1.09,0-2.11-.28-3.13-.63-.26-.09-.48-.24-.67-.43-.52-.51-1.15-.81-1.86-.9-.92-.12-1.71-.56-2.54-.92-.21-.08-.35-.26-.47-.43-.3-.4-.69-.65-1.17-.76-.9-.21-1.74-.55-2.59-.92-.3-.13-.56-.29-.75-.56-.23-.33-.54-.5-.93-.54-.46-.05-.87-.24-1.23-.53-.75-.6-1.54-1.13-2.31-1.7-.35-.26-.69-.53-.99-.84-.14-.14-.29-.25-.46-.35-.77-.46-1.5-.98-2.1-1.66-.17-.18-.24-.38-.2-.61.06-.35-.04-.65-.22-.94-.27-.43-.2-.81.28-.98,1.04-.35,2.06-.79,3.12-1.07.45-.12.8.02,1.04.45.17.31.41.57.69.79,1.57,1.26,3.08,2.61,4.69,3.82.37.27.76.49,1.19.64.47.16.9.4,1.32.66,1.57.97,3.23,1.76,4.96,2.41,1.72.66,3.49,1.18,5.18,1.92,1.35.59,2.76.88,4.21,1.02,1.69.18,3.37.38,5.04.72,1.7.35,3.44.34,5.17.25,1.21-.07,2.41,0,3.61-.08.53-.04,1.06-.1,1.59-.22.18-.04.38-.07.53-.16.41-.26.84-.38,1.31-.39.11,0,.22-.05.31-.11.79-.55,1.72-.78,2.59-1.15.47-.2.92-.4,1.31-.74Zm-13.21-9.29c-.61-.26-1.28-.36-1.9-.62-1.05-.44-2.12-.84-3.18-1.28-.88-.36-1.68-.87-2.5-1.34-1-.57-1.94-1.23-2.88-1.88-1.97-1.34-3.73-2.91-5.19-4.81-.33-.43-.65-.88-.85-1.39-.07-.18-.13-.37-.14-.59-.04-.28.07-.55.27-.77.45-.52.88-1.06,1.16-1.7.07-.17.19-.37.43-.34.23.02.34.19.41.38.13.33.33.62.58.86.13.12.22.27.3.43.78,1.66,1.98,3,3.25,4.28.84.86,1.74,1.63,2.81,2.21.08.04.14.11.21.17.36.31.71.65,1.18.82.37.13.71.34,1.04.54.58.36,1.17.68,1.8.96.45.2.89.43,1.28.74.4.32.9.43,1.35.65.67.33,1.38.6,2.02.99,1,.6,2.1.89,3.22,1.1.44.09.88,0,1.32-.01.26,0,.52-.03.76.05.32.11.42.32.25.59-.24.39-.47.8-.79,1.14-.28.31-.66.4-1.05.3-1.72-.47-3.49-.78-5.15-1.48Zm3.67,7.77s-.03-.01-.05-.02c.02,0,.03-.02.03-.03,0,.02,0,.03.01.05Zm-5.43.87s-.03.02-.04.04c0,0-.01.01-.02.01.02-.02.04-.03.05-.05Zm9.97-.21c-.07.06-.16.05-.23.03-.04-.02-.06-.04-.07-.07.1.02.2.03.3.04Zm-.17-.72s.07-.02.1-.04c-.01.02-.02.05-.02.07-.03,0-.06-.02-.08-.04Zm.45-.17h0c.06-.03.12-.05.18-.06.06.09.1.18.05.28-.01.03-.17.05-.2.01-.07-.08-.06-.15-.03-.23Zm.86.67s-.02-.04-.03-.06c0-.02-.01-.03-.02-.04.04-.03.09-.06.13-.08,0,.07.01.13.01.2,0,.03,0,.05,0,.08-.02,0-.04-.02-.06-.02h0s-.02-.06-.04-.08Zm1.16-1.31c.09-.06.19-.08.29-.08-.03.03-.05.06-.08.09-.07-.01-.14-.01-.21-.02Zm1.17,1.02c.02.06.05.11.07.16.03.11,0,.15-.07.16-.06,0-.12.01-.17,0,.02-.1.05-.21.05-.32.03,0,.07,0,.11-.01Zm-.12-9.25c0,.06-.01.13-.05.18-.52.68-.81,1.5-1.28,2.21-.46.71-1.17.92-1.95,1-.24.02-.47,0-.7-.1-.19-.08-.24-.2-.13-.39.2-.32.42-.61.69-.87.58-.56,1.11-1.16,1.35-1.96.1-.31.35-.47.67-.51.4-.05.78.02,1.16.08.19.03.23.18.23.35Zm1.38-3.2c-.19.06-.38.08-.58.09-.23,0-.45.03-.77.05-1.14.26-2.29-.22-3.46-.47-1.37-.3-2.65-.88-3.96-1.37-1.31-.49-2.44-1.27-3.64-1.95-.15-.08-.3-.19-.41-.32-.52-.57-1.13-1.05-1.7-1.57-.27-.24-.51-.51-.7-.82-.04-.07-.09-.14-.15-.18-1-.75-1.73-1.72-2.33-2.81-.28-.52-.56-1.03-.85-1.54-.25-.45-.46-.92-.54-1.44,0-.07-.02-.15-.05-.21-.65-1.29-.62-2.67-.6-4.05,0-.6.05-1.19.08-1.79.02-.36.11-.7.25-1.04.28-.71.37-1.47.53-2.22.43-1.95,1.24-3.73,2.3-5.42.35-.56.68-1.12,1.24-1.51.13-.09.26-.21.41-.1.16.11.09.28.03.42-.3.7-.78,1.29-1.23,1.88-.59.76-1.04,1.62-1.33,2.5-.42,1.31-.91,2.6-1.16,3.97-.3,1.62-.3,3.2-.01,4.8.02.13.05.26.06.4.02.7.15,1.36.36,2.05.35,1.15.87,2.2,1.53,3.17.62.92,1.34,1.75,2.05,2.59.42.5.93.89,1.41,1.3.56.49,1.15.96,1.71,1.46.47.42,1,.72,1.57.95.73.3,1.45.58,2.16.92.56.27,1.12.49,1.74.6.43.08.8.33,1.19.5.56.25,1.13.39,1.74.34.14-.01.29-.02.43,0,.72.13,1.43.09,2.13-.13.16-.05.32-.05.49-.03.27.03.4.21.43.45.03.26-.11.43-.35.51Zm.52-12.1c-.36.23-.76.31-1.17.34-.71.06-1.31-.18-1.86-.6-.46-.35-.92-.74-1.23-1.21-.41-.63-.87-1.25-1.09-1.99-.04-.14-.07-.28-.05-.43.02-.09.04-.2,0-.27-.28-.6-.04-1.24-.14-1.85-.04-.24,0-.49.1-.72.09-.22.2-.2.33-.04.18.23.17.5.14.77-.06.46-.16.91-.14,1.38,0,.3.07.57.22.82.18.29.35.58.41.93.04.22.22.37.39.5.35.25.64.55.89.9.19.26.43.44.72.56.26.1.51.21.77.33.43.21.88.29,1.34.13.06-.02.14-.03.21-.03.16,0,.38-.05.44.13.05.17-.13.29-.27.38Zm5.85-6c-.12.19-.26.37-.39.56-.18.27-.19.56-.03.84.04.08.09.16.12.25.12.34.05.48-.3.55-.42.09-.85.16-1.29.08-.4-.07-.5-.23-.43-.62.04-.22.04-.42-.02-.64-.14-.47-.08-.96-.09-1.44,0-.67-.04-1.33-.27-1.98-.07-.2-.18-.5.06-.62.23-.11.41.13.58.3.63.65,1.22,1.33,1.91,1.92.31.26.35.46.15.8Zm3.57,1.52c.56-.46,1.13-.9,1.76-1.25,1.33-.75,2.73-.89,4.12-.25,1.45.68,2.73,1.61,3.62,2.99.34.53.33,1.15.42,1.75.12.72-.05,1.37-.43,1.97-.37.58-.64,1.23-1.12,1.73-.42.44-.93.77-1.48,1.05-.48.25-.95.48-1.42.74-.34.19-.69.25-1.07.17-.42-.09-.83-.07-1.26-.03-.64.07-.9-.12-.9-.7,0-1.36-.57-2.51-1.27-3.62-.44-.68-.99-1.25-1.58-1.8-.65-.59-1.3-1.19-1.69-2.01-.15-.32-.23-.66-.22-1.02,0-.24.06-.46.31-.56.24-.1.46-.05.66.11.21.17.35.4.52.61.35.43.62.46,1.05.11Zm-1.86-3.76c.19.38.44.72.66,1.08.07.11.17.27.06.36-.11.09-.27-.01-.35-.12-.49-.62-1.24-.94-1.73-1.57-.22-.29-.52-.52-.82-.75-.17-.13-.36-.26-.47-.43-.63-.96-1.58-1.6-2.44-2.3-.63-.51-1.23-1-1.69-1.66-.29-.41-.72-.68-1.11-.98-.32-.25-.63-.5-.88-.81-.04-.05-.08-.11-.13-.12-.5-.09-.79-.47-1.13-.78-.16-.15-.34-.27-.54-.36-.89-.41-1.69-.97-2.49-1.53-.08-.05-.15-.12-.24-.14-1.01-.23-1.76-.99-2.72-1.33-1.38-.5-2.79-.87-4.27-.89-.58,0-1.15,0-1.72-.08-.79-.1-1.58.03-2.37.07-1.09.06-2.17.22-3.25.37-.1.02-.21.03-.3.08-.67.35-1.41.45-2.13.63-1.48.36-2.88.93-4.19,1.7-.96.56-1.91,1.17-2.92,1.58-1.52.63-2.72,1.7-4.06,2.56-.16.1-.31.23-.42.4-.75,1.13-1.63,2.15-2.45,3.22-.35.45-.65.92-.8,1.48-.03.13-.12.27.03.36.15.1.31.12.46.02.06-.03.11-.06.15-.11.54-.64,1.32-1.01,1.87-1.65.28-.32.69-.48,1.08-.64.57-.25,1.06-.59,1.34-1.17.06-.12.14-.24.24-.32.7-.55,1.26-1.26,2.05-1.7.7-.39,1.4-.79,2.01-1.33.34-.3.8-.42,1.21-.6,1.5-.66,2.99-1.33,4.52-1.9,1.57-.58,3.14-1.19,4.8-1.48,1.03-.18,2.06-.3,3.1-.23.09,0,.21-.04.24.08.02.1-.07.17-.14.23-.07.06-.14.12-.23.16-.39.21-.77.44-1.19.57-1.27.41-2.29,1.16-3.12,2.18-.65.79-1.41,1.47-2.06,2.26-.32.4-.63.81-.99,1.18-.08.09-.16.2-.21.31-.41.94-.9,1.85-1.51,2.68-.08.11-.13.24-.13.37,0,.34-.15.61-.36.86-.11.12-.22.26-.26.41-.23.74-.69,1.36-1.13,1.98-.22.31-.41.64-.53,1.01-.06.2-.17.37-.28.55-.07.11-.16.23-.2.35-.32,1.08-.98,1.98-1.55,2.92-.27.44-.53.89-.79,1.33-.19.32-.39.63-.66.89-.05.06-.12.12-.15.19-.18.59-.68.94-1.02,1.41-.48.67-1.13,1.2-1.46,1.97-.04.1-.13.13-.21.18-.34.23-.66.51-.88.85-.6.94-1.56,1.54-2.21,2.43-.05.06-.13.1-.2.13-1.06.47-2.07,1.03-2.92,1.82-.18.17-.38.27-.63.28-.28.02-.55.13-.77.29-.95.68-2.04,1.07-3.12,1.46-.16.06-.32.13-.48.22-1.85,1.07-3.86,1.74-5.92,2.24-1.1.27-2.23.48-3.39.4-.22-.01-.45.03-.68.06-.37.06-.74.06-1.1-.04-.5-.14-1.02-.09-1.54-.09-1.89.03-3.8.12-5.66-.28-1.49-.32-2.95-.76-4.35-1.37-.19-.08-.36-.19-.54-.3-.33-.2-.65-.4-1.02-.5-.26-.07-.49-.23-.69-.4-.57-.48-1.14-.95-1.69-1.44-.25-.22-.52-.41-.86-.45-.23-.03-.39-.17-.55-.35-.65-.73-1.31-1.45-2-2.15-.6-.61-1.17-1.23-1.64-1.96-.33-.51-.69-1-1.12-1.45-.23-.24-.37-.57-.53-.87-.74-1.37-1.56-2.69-2.01-4.2-.2-.67-.37-1.34-.66-1.99-.25-.56-.23-1.21-.46-1.79-.34-.88-.5-1.8-.47-2.64-.03-.74,0-1.38-.24-1.98-.02-.05-.03-.11-.02-.15.17-.62-.05-1.25.04-1.88.05-.35-.05-.69-.13-1.04-.07-.32-.11-.65-.04-.98.06-.33.06-.66.04-.99-.1-1.21.06-2.4.28-3.59.11-.62.19-1.24.38-1.84.07-.24.1-.48.06-.73-.03-.19,0-.36.09-.53.12-.22.16-.47.2-.71.06-.4.17-.78.43-1.1.05-.05.1-.12.1-.19.05-.84.56-1.53.69-2.36.14-.82.47-1.6.83-2.35.74-1.54,1.64-3,2.73-4.31.52-.63,1.04-1.25,1.48-1.94.02-.02.04-.05.06-.07.43-.86,1.1-1.53,1.78-2.17.44-.42.95-.76,1.19-1.35.57-.24.88-.76,1.28-1.18.21-.23.42-.45.57-.73.14-.26.42-.41.66-.6,1.4-1.09,2.81-2.15,4.18-3.27.5-.41,1.02-.71,1.63-.89.66-.2,1.26-.56,1.78-1.02.17-.15.37-.24.58-.27,1.04-.18,2-.62,2.96-1.05.94-.42,1.93-.7,2.93-.97.34-.09.67-.2.95-.43.03-.03.07-.06.1-.06.62-.1,1.18-.38,1.79-.5.09-.02.2,0,.27-.04.8-.45,1.73-.46,2.57-.8.83-.34,1.73-.51,2.61-.73.88-.22,1.78-.34,2.69-.34.43,0,.86-.04,1.29-.11.6-.11,1.2-.11,1.81,0,.88.14,1.79.1,2.67.2.7.08,1.43.1,2.08.45.41.21.87.26,1.31.34.67.12,1.34.26,1.94.6.18.1.37.13.57.12.22,0,.44,0,.64.07,1.52.58,3.14.91,4.52,1.85.41.28.9.4,1.29.72.07.06.17.09.26.09.43.02.76.24,1.04.54.23.25.5.45.83.58.32.12.55.36.77.61.49.55.98,1.08,1.62,1.47.18.11.34.27.46.45.45.65,1.03,1.17,1.61,1.69.73.65,1.42,1.34,1.94,2.19.13.23.33.41.51.62.09.1.17.21.14.36-.03.17-.11.33-.27.39-.17.06-.29-.06-.4-.17-.76-.73-1.53-1.47-2.29-2.2-.25-.24-.52-.47-.82-.65-.08-.05-.16-.1-.2-.18-.26-.49-.68-.82-1.13-1.12-.99-.64-1.95-1.3-2.86-2.05-.2-.16-.42-.31-.68-.33-.09,0-.2-.01-.25.08-.05.08.02.16.06.23.07.14.21.22.32.32.59.49,1.23.93,1.72,1.54.14.18.33.31.52.44.35.23.68.46.86.86.02.05.06.08.1.11.95.74,1.76,1.62,2.55,2.51.86.96,1.83,1.82,2.76,2.7.23.23.47.47.65.74.54.82,1.27,1.48,1.97,2.16.11.11.23.23.36.28.43.16.54.53.67.89.02.07.03.14.09.19.67.49,1.05,1.23,1.57,1.85.22.25.43.5.71.68.15.1.31.22.4.38.5.86,1.23,1.52,1.88,2.24.41.44.7.97,1.09,1.41.82.92,1.27,2.13,2.36,2.82.43.27.74.68.94,1.16.09.22.29.37.48.52.46.36.86.76,1.07,1.33.11.28.34.47.58.63.3.21.55.47.75.77.39.6.88,1.14,1.24,1.77.03.06.08.13.14.16.48.26.73.71.99,1.16.13.22.3.42.53.55.2.11.22.34.36.49.36.38.73.72,1.12,1.07.56.5,1.09,1.03,1.54,1.64.31.42.68.77,1.07,1.11.3.26.54.56.72.92Zm11.76-5.75c-.78.2-1.57.16-2.36.06-.18-.02-.35-.02-.53,0-.5.05-.71.4-.55.88.1.28.31.45.54.61.29.2.61.36.86.6.39.37.36.62-.11.87-.53.28-1.11.29-1.69.24-.97-.08-1.95-.11-2.92-.24-.99-.14-1.79-.58-2.35-1.43-.12-.18-.26-.35-.4-.5-.12-.13-.27-.23-.44-.27-.22-.05-.44-.07-.62.08-.17.16-.09.38-.03.55.08.23.19.46.29.68s.21.45.22.7c0,.09.04.2-.07.24-.11.05-.2,0-.28-.07-.07-.07-.14-.15-.21-.23-.08-.11-.18-.21-.32-.23-.33-.05-.56-.25-.76-.49-.36-.43-.72-.87-1.09-1.31-.27-.31-.4-.69-.51-1.08-.05-.2-.11-.4-.24-.57-.22-.31-.6-.31-.83,0-.12.17-.2.36-.32.53-.26.4-.68.39-.89-.04-.19-.37-.27-.76-.17-1.19.11-.46.04-.92-.07-1.37-.07-.28-.29-.36-.55-.33-.23.03-.44.09-.67.13-.42.06-.48.03-.56-.39-.11-.54-.07-1.08-.06-1.63,0-.17.01-.35-.03-.52-.04-.16-.11-.29-.29-.33-.19-.03-.32.05-.41.21-.05.09-.09.18-.13.28-.05.13-.1.27-.15.4-.12.26-.25.54-.59.49-.35-.06-.33-.38-.36-.64-.04-.26-.06-.53-.08-.8-.04-.33-.03-.65.1-.97.1-.25.09-.51.09-.76.01-.43.06-.84.31-1.21.09-.13.18-.3.04-.42-.15-.13-.35-.09-.51.03-.2.14-.29.35-.4.55-.11.21-.23.42-.44.54-.16.09-.25.06-.27-.13-.03-.38.04-.74.16-1.09.07-.21.14-.42.25-.59.3-.47.37-1.02.57-1.52.04-.1.1-.24-.02-.32-.09-.07-.22-.02-.32.03-.18.09-.29.24-.37.41-.21.42-.43.84-.7,1.23-.23.33-.26.75-.35,1.15-.09.35-.15.7-.38,1-.11.14-.23.28-.43.24-.21-.04-.31-.2-.34-.4-.13-.79.05-1.53.41-2.23.07-.14.13-.27.14-.43,0-.35.17-.62.45-.84.18-.15.37-.3.53-.47.19-.2.22-.44.06-.68-.17-.25-.4-.15-.61-.05-.25.13-.51.27-.77.39-.13.06-.3.09-.4-.03-.11-.12.02-.25.08-.36.05-.11.12-.22.2-.31.66-.67,1.16-1.48,1.89-2.07.21-.17.37-.4.38-.68,0-.21.11-.36.26-.47.56-.4,1.06-.84,1.52-1.35.38-.42.68-.37.97.12.22.37.54.61.94.77.18.07.36.07.46-.11.1-.17-.07-.28-.18-.38-.12-.11-.26-.2-.38-.32-.14-.15-.14-.33-.06-.52.08-.2.25-.13.4-.11.34.05.39,0,.4-.35,0-.35-.09-.67-.17-1-.09-.41.03-.76.32-1.04.89-.88,1.9-1.54,3.13-1.82.37-.08.71-.07,1.09-.03.61.07,1.16.19,1.66.56.19.14.52.03.59-.16.09-.23,0-.42-.2-.56-.28-.18-.55-.36-.83-.54-.22-.15-.47-.18-.74-.17-.35.02-.7.04-1.05.06v.04c-.33.02-.66.02-.99.06-.56.06-1.07.23-1.53.59-.35.27-.76.46-1.14.68-.38.22-.74.45-1.01.8-.26.35-.5.71-.41,1.18.05.27-.08.45-.34.49-.58.1-.99.44-1.41.83-.95.89-2.08,1.55-3.11,2.33-.66.49-1.29,1.01-1.94,1.53-.09.07-.17.15-.25.23-.45.48-.43.79.05,1.22.42.38.43.56.08,1.02-.13.16-.23.34-.35.5-.26.34-.68.4-.86.02-.35-.72-1.11-1.11-1.38-1.87-.02-.07-.08-.16-.15-.19-.61-.29-.94-.89-1.37-1.35-.46-.5-.93-1.01-1.33-1.57-.19-.26-.23-.54-.16-.85.08-.35.22-.69.37-1.02.22-.5.41-1.01.49-1.56.04-.3.2-.56.4-.79.34-.39.62-.82.83-1.29.15-.33.38-.61.63-.87.34-.37.69-.74,1.02-1.11.21-.23.43-.45.72-.57.24-.1.38-.31.51-.52.53-.94,1.31-1.54,2.38-1.76.2-.04.41-.11.58-.21.63-.38,1.32-.57,2.02-.73.5-.11,1.01-.24,1.48-.45.71-.32,1.48-.49,2.23-.57.86-.09,1.75-.29,2.61.11.52.24,1.11.19,1.67.27.49.07.98.11,1.4.42.08.06.2.1.29.09.38-.03.61.19.82.45.57.71,1.01,1.5,1.35,2.35.11.29.18.59.16.91,0,.27.05.53.11.79.14.61,0,.89-.57,1.16-.24.11-.47.22-.58.48-.09.2-.02.32.2.32.13,0,.24-.06.35-.11.45-.21.93-.25,1.42-.22.08,0,.16.02.24.04.24.07.51.17.49.43-.02.24-.31.23-.51.25-.55.05-1.07.19-1.57.42-.57.27-.7.49-.54,1.1.15.58.15,1.13-.08,1.69-.25.64-.22,1.27.32,1.73.37.32.86.5,1.36.62.18.04.37.05.54.1.36.09.49.3.37.65-.19.56-.56.96-1.16,1.07-.47.09-.95.05-1.42.01-.14-.01-.19-.08-.2-.22,0-.22-.04-.43-.13-.63-.09-.19-.23-.29-.45-.24-.21.05-.26.21-.25.41v.06c.08.51.07,1-.3,1.42-.49.57-1.03,1.04-1.79,1.19-.48.1-.98.16-1.47.16-.84,0-1.51-.34-2.02-1-.11-.15-.21-.31-.37-.41-.17-.12-.35-.14-.53-.05-.18.09-.14.28-.13.44.04.4.28.7.47,1.03.08.13.28.31.16.42-.12.11-.27-.11-.41-.2-.14-.09-.29-.24-.47-.08-.17.15-.08.32,0,.48.23.46.51.87.86,1.24.41.44.9.75,1.52.8.19.02.39.07.58.12.25.07.44.21.53.47.13.38.42.58.79.67,1.06.25,2.1.31,3.07-.31.42-.27.89-.2,1.35-.17.33.03.65.08.98.06.57-.04.85-.28.98-.84.04-.19,0-.46.26-.5.26-.04.28.22.37.38.08.14.19.24.33.32.15.09.31.17.45.27.14.1.26.2.21.41-.05.2-.22.18-.37.2-.33.03-.5.31-.41.67.07.26.25.44.44.63.24.24.34.51.22.84-.21.57-.02.99.41,1.37.47.42,1.02.69,1.59.93.34.14.68.29,1.02.44.08.04.17.08.24.14.08.05.16.12.13.23-.03.1-.14.07-.21.08-.3.02-.6.02-.89.04-.2.01-.39.08-.47.29-.08.2.02.36.14.51.35.42.78.73,1.28.94.35.14.71.28,1.06.43.14.06.29.12.41.2.13.08.3.16.28.33-.02.18-.21.21-.36.25Z"/>
      <path class="cls-1" d="m86.6,81.82c1.17.04,2.45.16,3.71.53.4.12.81.22,1.23.3.39.07.76.18,1.11.37.32.17.66.28,1.02.35.29.05.56.13.76.37.05.06.12.08.19.09.85.14,1.55.58,2.22,1.09.25.19.48.37.81.43.29.05.51.27.72.46.29.25.61.45.97.59.29.11.57.24.75.51.02.02.04.06.07.06.49.1.8.52,1.24.71.15.07.29.16.4.28.28.32.58.61,1,.75.08.03.16.1.21.18.17.26.41.46.65.66.22.18.41.38.47.67.05.22-.02.32-.26.26-.28-.06-.52-.21-.72-.4-.4-.36-.87-.59-1.33-.86-.45-.27-.92-.58-1.31-.95-.1-.1-.21-.19-.34-.2-.71-.04-1.23-.5-1.8-.82-.34-.19-.73-.35-.99-.62-.55-.58-1.29-.83-1.91-1.28-.12-.09-.26-.16-.41-.22-1.42-.52-2.79-1.16-4.24-1.59-1.04-.31-2.07-.59-3.16-.64-.72-.03-1.38-.39-2.06-.61-.17-.06-.13-.16-.01-.24.27-.19.58-.21,1.02-.22Z"/>
      <path class="cls-1" d="m113.45,77.67c-.06-.79.42-1.28.94-1.75.32-.28.71-.45,1.1-.62.37-.16.74-.32,1.1-.48.25-.12.51-.15.78-.07.46.13.87.37,1.23.68.09.08.17.19.21.3.1.25.08.54-.13.68-.2.14-.38-.09-.53-.25-.06-.06-.1-.13-.15-.2-.34-.49-.91-.59-1.4-.25-.11.08-.22.16-.3.27-.26.31-.58.49-.98.6-.57.16-.87.62-1.04,1.17-.02.08-.03.16-.05.24-.04.19-.06.41-.32.41-.25,0-.35-.18-.41-.39-.03-.11-.04-.22-.06-.33Z"/>
      <path class="cls-1" d="m116.75,79.67c-.05-.78.5-1.38,1.3-1.41.35-.01.53.09.54.44.03.7-.01,1.4-.21,2.07-.15.49-.73.58-1.1.22-.28-.27-.49-.81-.53-1.32Z"/>
      <path class="cls-1" d="m114.26,79.33c.08,0,.13,0,.18,0,.29.02.6.22.56.39-.05.26-.3.33-.5.32-.81,0-1.27.55-1.79,1.03-.11.11-.17.26-.23.4-.07.15-.13.3-.25.42-.13.13-.29.17-.45.11-.16-.05-.15-.21-.16-.34-.03-.23.02-.47.15-.65.57-.76,1.18-1.48,2.2-1.64.1-.02.2-.04.28-.05Z"/>
      <path class="cls-1" d="m104.67,135.16s-.17.05-.2.01c-.07-.08-.06-.15-.03-.23h0c.06-.03.12-.05.18-.06.06.09.1.18.05.28Z"/>
    </g>
    <g>
      <path class="cls-1" d="m14.61,21.46l117.96-7.52c.39-.03.73.27.75.66l11.28,176.94c.03.39-.27.73-.66.75l-117.96,7.52c-.39.02-.73-.27-.75-.66L13.94,22.21c-.01-.19.05-.37.17-.51.12-.14.3-.23.49-.24m.09,1.41l.66-.75,11.28,176.94-.75-.66,117.96-7.52-.66.75-11.28-176.94.75.66L14.7,22.88Z"/>
      <path class="cls-1" d="m144.55,6.63c-3.66.59-6.33,3.87-6.09,7.64.24,3.77,3.31,6.69,7.01,6.81l-.09-1.42c-2.92-.16-5.32-2.49-5.51-5.48-.19-2.99,1.9-5.6,4.77-6.13l-.09-1.42ZM144.84,0l-5.88.38h0s0,0,0,0l-1.42.09c.03.17.05.34.07.52,0,.06.01.12.01.18.02.24.02.48,0,.71l1.42-.09h0s0,0,0,0l5.17-.33.33,5.17h0s.09,1.42.09,1.42c.23-.04.46-.07.7-.09.24-.02.48-.02.71,0l-.09-1.42-.37-5.88c-.03-.39-.36-.69-.75-.66h0Zm-20.24,2.71c.59,3.66,3.87,6.33,7.64,6.09,3.77-.24,6.69-3.31,6.81-7.01h0s-1.42.09-1.42.09c-.16,2.92-2.49,5.32-5.48,5.51-2.99.19-5.6-1.9-6.13-4.77l-1.42.09Zm-6.72-.99c.04.23.07.46.09.7.01.24.02.48,0,.71l1.42-.09h0s0,0,0,0l5.21-.33,1.42-.09c-.04-.23-.07-.47-.09-.7-.01-.24-.02-.48,0-.71h0s-1.42.09-1.42.09c0,.17,0,.35,0,.52h0c0-.18,0-.35,0-.52h0s-5.21.33-5.21.33h0s0,0,0,0l-1.42.09h0Zm-11.52,2.15l-1.42.09c.59,3.66,3.87,6.33,7.64,6.09,3.77-.24,6.69-3.31,6.81-7.01h0s-1.42.09-1.42.09l.71-.05-.71.05c-.16,2.92-2.49,5.32-5.48,5.51-2.99.19-5.6-1.9-6.13-4.77h0Zm-8.14-.9c.04.23.07.46.09.7.01.24.02.48,0,.71l1.42-.09h0s0,0,0,0l5.21-.33,1.42-.09c-.04-.23-.07-.47-.09-.7-.01-.24-.02-.48,0-.71h0s-1.42.09-1.42.09c0,.17,0,.35,0,.52h0c0-.18,0-.35,0-.52h0s-5.21.33-5.21.33h0s0,0,0,0l-1.42.09h0Zm-11.52,2.15l-1.42.09c.59,3.66,3.87,6.33,7.64,6.09,3.77-.24,6.69-3.31,6.81-7.01h0s-1.42.09-1.42.09l.71-.05-.71.05c-.16,2.92-2.49,5.32-5.48,5.51-2.99.19-5.6-1.9-6.13-4.77h0Zm-8.14-.9c.04.23.07.46.09.7.02.24.02.48,0,.71l1.42-.09s0,0,0,0h0s5.21-.33,5.21-.33h0s1.42-.09,1.42-.09c-.04-.23-.07-.47-.09-.7-.02-.24-.02-.48,0-.71h0s-1.42.09-1.42.09c0,.17,0,.35,0,.52,0-.18,0-.35,0-.52h0s-5.21.33-5.21.33h0s0,0,0,0l-1.42.09h0Zm-11.52,2.15l-1.42.09c.59,3.66,3.87,6.33,7.64,6.09,3.77-.24,6.69-3.31,6.81-7.01h0s-1.42.09-1.42.09l.71-.05-.71.05c-.16,2.92-2.49,5.32-5.48,5.51-2.99.19-5.6-1.9-6.13-4.77h0Zm-6.72-.99l-1.42.09c.04.23.07.46.09.7.02.24.02.48,0,.71l1.42-.09h0s0,0,0,0l5.21-.33h0s1.42-.09,1.42-.09c-.04-.23-.07-.47-.09-.71-.02-.24-.02-.48,0-.71h0s-1.42.09-1.42.09c0,.18,0,.36,0,.55h0c0-.18,0-.37,0-.55h0s-5.21.33-5.21.33h0s0,0,0,0Zm-12.94,2.24l-1.42.09c.59,3.66,3.87,6.33,7.64,6.09,3.77-.24,6.69-3.31,6.81-7.01h0s-1.42.09-1.42.09l.71-.05-.71.05c-.16,2.92-2.49,5.32-5.48,5.51-2.99.19-5.6-1.9-6.13-4.77h0Zm-6.72-.99l-1.42.09c.04.23.07.46.09.7.02.24.02.48,0,.71l1.42-.09h0s0,0,0,0l5.21-.33,1.42-.09c-.04-.23-.07-.47-.09-.7-.02-.24-.02-.48,0-.71h0s-1.42.09-1.42.09c0,.19,0,.39,0,.59,0-.2-.01-.39,0-.59h0s-5.21.33-5.21.33h0s0,0,0,0h0Zm-12.94,2.24l-1.42.09c.59,3.66,3.87,6.33,7.64,6.09,3.77-.24,6.69-3.31,6.81-7.01h0s-1.42.09-1.42.09l.71-.05-.71.05c-.16,2.92-2.49,5.32-5.48,5.51-2.99.19-5.6-1.9-6.13-4.77h0Zm-6.72-.99l-1.42.09c.04.23.07.46.09.7.02.24.02.48,0,.71l1.42-.09h0s0,0,0,0l5.21-.33h0s0,0,0,0l1.42-.09c-.04-.23-.07-.47-.09-.7-.02-.24-.02-.48,0-.71h0s-1.42.09-1.42.09c0,.23,0,.46,0,.7-.01-.23-.02-.47-.01-.7h0s-5.21.33-5.21.33h0s0,0,0,0h0Zm-12.94,2.24l-1.42.09c.59,3.66,3.87,6.33,7.64,6.09,3.77-.24,6.69-3.31,6.81-7.01h0s-1.42.09-1.42.09l.71-.05-.71.05c-.16,2.92-2.49,5.32-5.48,5.51-2.99.19-5.6-1.9-6.13-4.77h0Zm-7.39-.95c-.39.03-.69.36-.66.75l.38,5.88h0s.09,1.42.09,1.42c.23-.04.46-.07.7-.09.24-.02.48-.02.71,0l-.09-1.42h0s0,0,0,0l-.33-5.17,5.17-.33,1.42-.09c-.04-.23-.07-.47-.09-.7-.02-.24-.02-.47,0-.7h0s-1.42.09-1.42.09c0,.17,0,.34,0,.52h0c0-.17,0-.35,0-.52h0s-5.88.38-5.88.38h0Zm1.13,6.54l.09,1.42c2.92.16,5.32,2.49,5.51,5.48.19,2.99-1.9,5.6-4.77,6.13l.09,1.42c3.66-.59,6.33-3.87,6.09-7.64-.24-3.77-3.31-6.69-7.01-6.81h0Zm-.58,13.12l.09,1.42.33,5.21h0s0,0,0,0l.09,1.42c.23-.04.46-.07.7-.09.24-.02.48-.02.71,0l-.09-1.42h0s0,0,0,0l-.33-5.2h0c-.08,0-.13.02-.18.02h0s-.08.01-.12.02c-.1.01-.19.02-.29.03h0c.2-.02.4-.04.6-.07l-.09-1.42h0c-.11.02-.18.03-.25.04-.15.02-.3.04-.45.05-.24.01-.47.02-.71,0h0Zm1.84,6.54l.09,1.42c2.92.16,5.32,2.49,5.51,5.48.19,2.99-1.9,5.6-4.77,6.13l.09,1.42c3.66-.59,6.33-3.87,6.09-7.64-.24-3.77-3.31-6.69-7.01-6.81h0Zm.83,13.03c-.23.04-.46.07-.7.09-.23.01-.45.02-.67,0h0s.06,1.42.06,1.42c.01,0,.03,0,.04,0h0s0,0,0,0l.29,5.21h0s0,0,0,0l.09,1.42c.23-.04.47-.07.7-.09.12,0,.25-.01.37-.01.02,0,.03,0,.05,0,0,0,0,0,.01,0h0s.02,0,.03,0c0,0,0,0,0,0h0s0,0,0,0c.03,0,.05,0,.08,0,0,0,.02,0,.02,0h0s0,0,.01,0c0,0,0,0,0,0h0s.07,0,.11,0l-.09-1.42h0s0,0,0,0l-.33-5.21h0s-.09-1.42-.09-1.42h0Zm.43,6.63l.09,1.42c2.92.16,5.32,2.49,5.51,5.48.19,2.99-1.9,5.6-4.77,6.13l.09,1.42c3.66-.59,6.33-3.87,6.09-7.64-.24-3.77-3.31-6.69-7.01-6.81h0Zm.83,13.03c-.23.04-.46.07-.7.09-.23.01-.45.02-.67,0h0s.06,1.42.06,1.42l.33,5.21h0s0,0,0,0l.09,1.42c.23-.04.46-.07.7-.09.13,0,.25-.01.37-.01,0,0,0,0,0,0,0,0,.02,0,.02,0,0,0,.01,0,.02,0h0s0,0,0,0h0s0,0,0,0c0,0,0,0,0,0,0,0,0,0,.01,0h0s.02,0,.03,0c0,0,0,0,0,0h.01s0,0,0,0c.03,0,.06,0,.09,0h0s.01,0,.02,0h0s0,0,0,0h0s.07,0,.1,0l-.09-1.42s0,0,0,0h0s-.33-5.2-.33-5.2h0c-.06,0-.09.01-.12.02,0,0,0,0,0,0,0,0,0,0,0,0h0s.08-.01.12-.02l-.09-1.42h0Zm-.24,1.47h0s0,0,0,0h0s0,0,0,0c0,0,0,0,0,0h0Zm0,0h0s0,0,0,0h0s0,0,0,0c0,0,0,0,0,0h0s0,0,0,0Zm0,0h0s0,0,0,0h0s0,0,0,0h0,0s0,0,0,0h0s0,0,0,0h0Zm-.05,0h0s0,0,0,0h0s0,0,0,0h0Zm-.04,0h0s0,0,0,0h0s0,0,0,0Zm0,0h0s0,0,0,0Zm-.53.03h0s0,0,0,0h0s0,0,0,0h0s0,0,0,0h0Zm.47-.03h0s0,0,0,0c0,0,0,0,0,0h0Zm-.04,0h0s0,0,0,0Zm-.24.02h0,0Zm-.01,0h0s0,0,0,0h0Zm.04,0h0s0,0,0,0h0s0,0,0,0c0,0,0,0,0,0h0Zm.01,0h0s0,0,0,0h0Zm0,0h0s0,0,0,0h0Zm0,0h0s0,0,0,0h0s0,0,0,0h0s0,0,0,0Zm0,0h0s0,0,0,0h0Zm.04,0h0s0,0,0,0h0s0,0,0,0h0s0,0,0,0h0s0,0,0,0h0s0,0,0,0h0s0,0,0,0Zm0,0h0s0,0,0,0h0s0,0,0,0h0s0,0,0,0h0Zm0,0h0s0,0,0,0Zm1.04,5.13l.09,1.42c2.92.16,5.32,2.49,5.51,5.48.19,2.99-1.9,5.6-4.77,6.13l.09,1.42c3.66-.59,6.33-3.87,6.09-7.64-.24-3.77-3.31-6.69-7.01-6.81h0Zm.83,13.03h0s0,0-.01,0c-.23.04-.45.07-.69.08-.23.01-.45.02-.68,0h0s.06,1.42.06,1.42c.01,0,.03,0,.04,0h0s.3,5.21.3,5.21h0s.09,1.42.09,1.42c.23-.04.47-.07.7-.09.24-.01.48-.02.71,0l-.09-1.42s0,0,0,0h0s-.33-5.21-.33-5.21h0s-.05,0-.08.01c-.2.03-.39.05-.59.06.23-.02.45-.04.67-.08l-.09-1.42Zm.42,6.63l.09,1.42c2.92.17,5.32,2.49,5.51,5.48.19,2.99-1.9,5.6-4.77,6.13l.09,1.41h0s0,0,0,0c3.66-.59,6.33-3.87,6.09-7.64-.24-3.77-3.31-6.69-7.01-6.81h0Zm.83,13.03h0s0,0-.01,0c-.23.04-.45.07-.69.08-.23.01-.45.02-.68,0h0s.06,1.42.06,1.42l.33,5.21h0s-.03,0-.04,0l.13,1.41c.23-.04.46-.07.7-.09.24-.02.48-.02.71,0l-.09-1.42s0,0,0,0h0s-.33-5.2-.33-5.2h0c-.1.01-.17.02-.24.03-.15.02-.31.03-.47.04.24-.02.47-.04.7-.08l-.09-1.42Zm.42,6.63l.09,1.42c2.92.17,5.32,2.49,5.51,5.48.19,2.99-1.9,5.6-4.77,6.13l.09,1.42h0c3.66-.58,6.33-3.87,6.09-7.64-.24-3.77-3.31-6.69-7.01-6.81h0Zm-.58,13.12l.09,1.42.33,5.21h0s-.03,0-.04,0l.13,1.41c.23-.04.47-.07.7-.09.24-.02.48-.02.71,0l-.09-1.42h0s0,0,0,0l-.33-5.21h0c-.09.01-.16.02-.22.03h0s-.06,0-.09.01h0s-.09.01-.14.02c-.09,0-.17.02-.26.02.24-.02.47-.04.7-.08l-.09-1.42h0c-.1.01-.17.02-.23.03-.16.02-.31.04-.47.05-.24.02-.47.02-.71,0h0Zm1.84,6.54l.09,1.42c2.92.16,5.32,2.49,5.51,5.48.19,2.99-1.9,5.6-4.77,6.13l.09,1.42c3.66-.59,6.33-3.87,6.09-7.64-.24-3.77-3.31-6.69-7.01-6.81h0Zm-.58,13.12l.09,1.42.33,5.21h0s.09,1.42.09,1.42c.23-.04.46-.07.7-.09.24-.02.48-.02.71,0l-.09-1.42h0s0,0,0,0l-.33-5.21h0c-.08.01-.14.02-.19.03-.12.02-.24.03-.36.04h0c.19-.02.37-.04.55-.07l-.09-1.42h0c-.1.01-.17.02-.23.03-.16.02-.31.04-.47.05-.24.02-.47.02-.71,0h0Zm.71,0h0s0,0,0,0h0s0,0,0,0h0s0,0,0,0Zm1.13,6.54l.09,1.42c2.92.16,5.32,2.49,5.51,5.48.19,2.99-1.9,5.6-4.77,6.13l.09,1.42c3.66-.59,6.33-3.87,6.09-7.64-.24-3.77-3.31-6.69-7.01-6.81h0Zm-.58,13.12l.09,1.42.33,5.21h0s0,0,0,0c-.01,0-.02,0-.03,0l.12,1.42c.23-.04.46-.07.7-.09.24-.02.48-.02.71,0l-.09-1.42h0s0,0,0,0h0s-.33-5.2-.33-5.2h0c-.08.01-.14.02-.19.03-.09.01-.18.02-.26.03h0c.15-.01.31-.03.46-.06l-.09-1.42h0c-.1.01-.18.03-.25.04-.15.02-.3.04-.45.05-.24.02-.47.02-.71,0h0Zm.55,1.42c.08,0,.16,0,.25-.01h0s0,0,0,0c-.08,0-.17,0-.25.01h0Zm1.28,5.12l.09,1.42c2.92.16,5.32,2.49,5.51,5.48.19,2.99-1.9,5.6-4.77,6.13l.09,1.42c3.66-.59,6.33-3.87,6.09-7.64-.24-3.77-3.31-6.69-7.01-6.81h0Zm-.58,13.12l.09,1.42s.02,0,.04,0h0s.3,5.21.3,5.21h0s0,0,0,0l.09,1.42c.23-.04.46-.07.7-.09.24-.02.48-.02.71,0l-.09-1.42h0s0,0,0,0l-.33-5.21h0s-.02,0-.04,0c-.01,0-.02,0-.04,0h0s.05,0,.07-.01l-.09-1.42h0c-.1.02-.18.03-.25.04-.15.02-.3.04-.45.05-.24.01-.47.02-.71,0h0Zm1.84,6.54l.09,1.42c2.92.16,5.32,2.49,5.51,5.48.19,2.99-1.9,5.6-4.77,6.13l.09,1.42c3.66-.59,6.33-3.87,6.09-7.64-.24-3.77-3.31-6.69-7.01-6.81h0Zm.83,13.03c-.23.04-.46.07-.7.09-.23.01-.45.02-.68,0h0s.06,1.42.06,1.42l.38,5.88c.02.39.36.69.75.66l5.88-.37,1.42-.09c-.04-.23-.07-.47-.09-.7-.01-.24-.02-.47,0-.7h0s-1.42.09-1.42.09c0,.17,0,.35,0,.52h0c0-.18,0-.35,0-.53l-5.17.33-.33-5.17s-.01,0-.02,0h0s.01,0,.02,0l-.09-1.42h0Zm12.4-.75c-3.77.24-6.69,3.31-6.81,7.01l1.42-.09c.16-2.92,2.49-5.32,5.48-5.51,2.99-.19,5.6,1.9,6.13,4.77l.71-.05h0s-.71.05-.71.05l1.42-.09h0s0,0,0,0c-.59-3.66-3.87-6.33-7.64-6.09h0Zm6.22,6.18c.04.23.07.46.09.7.02.24.02.48,0,.71l1.42-.09h0s0,0,0,0l5.21-.33h0s0,0,0,0l1.42-.09c-.04-.23-.07-.46-.09-.7-.01-.24-.02-.47,0-.7h0s-1.42.09-1.42.09c0,.17,0,.35,0,.52h0c0-.18,0-.35,0-.53l-5.21.33h0s0,0,0,0l-1.42.09h0Zm13.44-7.44c-3.77.24-6.69,3.31-6.81,7.01l1.42-.09c.17-2.92,2.49-5.32,5.48-5.51,2.99-.19,5.6,1.9,6.13,4.77h.05s1.37-.09,1.37-.09h0s0,0,0,0h0s0,0,0,0c-.59-3.66-3.87-6.33-7.64-6.09h0Zm7.65,6.09h0s0,0,0,0h0s-1.42.09-1.42.09c.04.23.07.46.09.7.02.24.02.48,0,.71l1.42-.09h0s0,0,0,0l5.21-.33h0s0,0,0,0l1.42-.09c-.04-.23-.07-.47-.09-.7-.01-.24-.02-.47,0-.7h0s-1.42.09-1.42.09c0,.17,0,.35,0,.52,0-.18,0-.35,0-.53l-5.21.33Zm12.01-7.35c-3.77.24-6.69,3.31-6.81,7.01l1.42-.09c.16-2.92,2.49-5.32,5.48-5.51,2.99-.19,5.6,1.9,6.13,4.77l.72-.05h0s-.69.04-.69.04l1.39-.09h0s0,0,0,0c-.59-3.66-3.87-6.33-7.64-6.09h0Zm7.65,6.09h0s0,0,0,0h0s-1.42.09-1.42.09c.04.23.07.46.09.7.02.24.02.47,0,.71l1.42-.09h0s0,0,0,0l5.21-.33h0s1.42-.09,1.42-.09c-.04-.23-.07-.46-.09-.7-.01-.24-.02-.47,0-.7h0s-1.42.09-1.42.09c0,.17,0,.35,0,.52,0-.18,0-.35,0-.53l-5.21.33Zm12.01-7.35c-3.77.24-6.69,3.31-6.81,7.01l1.42-.09c.16-2.92,2.49-5.32,5.48-5.51,2.99-.19,5.6,1.9,6.13,4.77l.71-.04-.71.05,1.42-.09h0s0,0,0,0c-.59-3.66-3.87-6.33-7.64-6.09h0Zm7.66,6.09c.01.17.03.35.05.52h0c-.02-.17-.04-.35-.06-.52h0s-1.42.09-1.42.09c.04.23.07.46.09.7.02.24.02.48,0,.71l1.42-.09h0s0,0,0,0l5.21-.33h0s1.42-.09,1.42-.09c-.04-.23-.07-.47-.09-.7-.02-.24-.02-.47,0-.7h0s-1.42.09-1.42.09c0,.17,0,.35,0,.52,0-.18,0-.35,0-.53l-5.19.33h0Zm12-7.35c-3.77.24-6.69,3.31-6.81,7.01l1.42-.09c.16-2.92,2.49-5.32,5.48-5.51,2.99-.19,5.6,1.9,6.13,4.77l.71-.04-.71.05,1.42-.09h0s0,0,0,0c-.59-3.66-3.87-6.33-7.64-6.09h0Zm7.64,6.09s0,0,0,0h0s-1.42.09-1.42.09h0c.03.17.05.34.07.52,0,.06.01.12.01.18.02.24.02.48,0,.71l1.42-.09h0s0,0,0,0l5.21-.33h0s1.42-.09,1.42-.09c-.04-.23-.07-.47-.09-.7-.02-.24-.02-.47,0-.7h0s-1.42.09-1.42.09c0,.17,0,.35,0,.52,0-.18,0-.35,0-.53l-5.21.33h0Zm12.02-7.35c-3.77.24-6.69,3.31-6.81,7.01l1.42-.09c.17-2.92,2.49-5.32,5.48-5.51,2.99-.19,5.6,1.9,6.13,4.77h.05s1.37-.09,1.37-.09h0s0,0,0,0c-.59-3.66-3.87-6.33-7.64-6.09h0Zm7.65,6.09h0c.02.17.04.35.06.52h0c-.02-.18-.04-.35-.07-.52l-1.41.09h0c.03.17.05.35.07.52,0,.06.01.12.01.18.02.24.02.48,0,.71l1.42-.09h0s0,0,0,0l5.21-.33s0,0,0,0h0s0,0,0,0l1.42-.09c-.04-.23-.07-.47-.09-.7-.02-.24-.02-.48,0-.71l-1.42.09s0,0,0,0h0s0,0,0,0l-5.2.33h0Zm12.01-7.35c-3.77.24-6.69,3.31-6.81,7.01l1.42-.09c.16-2.92,2.49-5.32,5.48-5.51,2.99-.19,5.6,1.9,6.13,4.77l.72-.05-.7.04,1.4-.09h0c-.59-3.66-3.87-6.33-7.64-6.09h0Zm12.4-.83l.09,1.42s0,0,0,0h0s.32,5.17.32,5.17l-5.17.33h0c.02.17.05.35.06.52-.02-.18-.04-.35-.07-.52l-1.42.09h0c.03.17.05.35.07.52,0,.06.01.12.01.18.02.24.02.48,0,.71l1.42-.09h0s0,0,0,0l5.88-.38c.19-.01.36-.1.49-.24.12-.14.19-.33.18-.51l-.38-5.88h0s-.09-1.42-.09-1.42h0s-.06,0-.09.01c0,0,0,0,0,0,0,0,0,0,0,0h0s0,0,0,0c0,0,0,0,0,0h0s0,0,0,0c0,0,0,0,0,0,0,0,0,0,0,0-.04,0-.08.01-.12.02h0s0,0,0,0c0,0,0,0,0,0h0s0,0,0,0c-.01,0-.03,0-.04,0,0,0-.01,0-.02,0h0c-.13.02-.27.03-.41.04-.24.01-.48.02-.71,0h0Zm1.17-.05s-.01,0-.02,0c0,0,0,0,0,0,0,0,0,0,.01,0h0Zm-2.01-12.98c-3.66.59-6.33,3.87-6.09,7.64.24,3.77,3.31,6.69,7.01,6.81l-.09-1.42c-2.92-.16-5.32-2.49-5.51-5.48-.19-2.99,1.9-5.6,4.77-6.13l-.09-1.42Zm.99-6.72c-.23.04-.46.07-.7.09-.24.01-.47.02-.7,0l.08,1.42.33,5.21h0,0l.09,1.42c.23-.04.47-.07.7-.09.24-.01.48-.02.71,0l-.09-1.42-.33-5.21h0s0,0,0,0h0s0,0,0,0c0,0,0,0,0,0h0s0,0,0,0c0,0,0,0,0,0h0s0,0,0,0c0,0,0,0,0,0h0s0,0,.01,0l-.09-1.42h0Zm.07,1.43h0s0,0,0,0h0Zm-.03,0h0s0,0,0,0c0,0,0,0,0,0h0s0,0,0,0c0,0,0,0,0,0,0,0,0,0,0,0,0,0,0,0,0,0h0s0,0,0,0c0,0,0,0,0,0h0Zm-.04,0h0s0,0,0,0t0,0h0Zm-.1.01h0s0,0,0,0h0s0,0,0,0h0s0,0,0,0t0,0h0s0,0,0,0h0s0,0,0,0h0s0,0,0,0h0s0,0,0,0h0Zm-.01,0h0s0,0,0,0h0s0,0,0,0Zm-.03,0s0,0-.01,0c0,0,0,0,0,0,0,0,0,0,0,0,0,0,0,0,0,0h0s0,0,0,0h0s0,0,0,0c0,0,0,0,0,0h0s0,0,0,0h0s0,0,0,0h0s0,0,0,0h0s0,0,0,0h0s-.01,0-.02,0h0s.03,0,.04,0c0,0,0,0,0,0h0Zm-1.1-21.12c-.23.04-.46.07-.7.09-.24.01-.47.02-.7,0l.09,1.42.33,5.21h0s.09,1.42.09,1.42c.23-.04.46-.07.7-.09.24-.02.48-.02.71,0l-.09-1.42-.33-5.21h0s0,0,0,0h0s-.09-1.42-.09-1.42h0Zm-.99,6.72c-3.66.59-6.33,3.87-6.09,7.64.24,3.77,3.31,6.69,7.01,6.81l-.09-1.42c-2.92-.16-5.32-2.49-5.51-5.48-.19-2.99,1.9-5.6,4.77-6.13l-.09-1.42h0Zm-1.68-26.29l.09,1.42.33,5.21h0s.09,1.42.09,1.42c.23-.04.47-.07.7-.09.24-.02.48-.02.71,0l-.09-1.42-.33-5.21h0s0,0,0,0h0s-.09-1.42-.09-1.42h0c-.23.04-.47.07-.7.09-.24.02-.48.02-.71,0h0Zm.42,6.63c-3.66.59-6.33,3.87-6.09,7.64.24,3.77,3.31,6.69,7.01,6.81l-.09-1.42c-2.92-.16-5.32-2.49-5.51-5.48-.19-2.99,1.9-5.6,4.77-6.13l-.09-1.42Zm-1.25-19.66c-3.66.59-6.33,3.87-6.09,7.64.24,3.77,3.31,6.69,7.01,6.81l-.09-1.42c-2.92-.16-5.32-2.49-5.51-5.48-.19-2.99,1.9-5.6,4.77-6.13l-.09-1.42Zm-.42-6.63l.09,1.42.33,5.21h0s.09,1.42.09,1.42c.23-.04.46-.07.7-.09.21-.01.41-.02.61,0-.03,0-.05,0-.08,0h0s0,0,0,0h0s0,0,0,0h0s0,0,0,0c.02,0,.05,0,.07,0,.03,0,.06,0,.09,0l-.09-1.42s-.05,0-.07,0c-.04,0-.08,0-.11,0h0c.06,0,.12,0,.19,0l-.33-5.21h0s0,0,0,0c0,0-.02,0-.03,0,0,0,0,0,0,0,0,0,0,0,0,0,0,0,0,0,0,0h0s0,0,0,0,0,0,0,0h0s0,0,0,0c0,0,0,0,0,0,0,0,0,0,0,0,0,0,0,0,0,0,0,0,0,0,0,0,0,0,0,0,0,0h0s0,0,0,0c0,0,0,0,0,0h0s0,0-.01,0c.03,0,.05,0,.08-.01h0s0,0,0,0c0,0,0,0,0,0h0s0,0,0,0l-.09-1.42h0c-.23.04-.47.07-.7.09-.24.02-.48.02-.71,0h0Zm1.44,1.34h0s0,0,0,0h0Zm-.04,0s0,0-.01,0c0,0,0,0,0,0-.01,0-.03,0-.04,0,0,0,.01,0,.02,0,.01,0,.02,0,.03,0h0Zm-.07,0s-.02,0-.04,0c.01,0,.02,0,.04,0h0Zm-2.17-14.39c-3.66.59-6.33,3.87-6.09,7.64.24,3.77,3.31,6.69,7.01,6.81l-.09-1.42c-2.92-.16-5.32-2.49-5.51-5.48-.19-2.99,1.9-5.6,4.77-6.13l-.09-1.42Zm-.42-6.63l.09,1.42s0,0,0,0h0s.33,5.21.33,5.21h0s.09,1.42.09,1.42c.23-.04.46-.07.7-.09.24-.02.48-.02.71,0l-.09-1.42h0s0,0,0,0l-.33-5.21s0,0,0,0t0,0h0s0,0,0,0c0,0,0,0,0,0,0,0,0,0-.01,0,0,0-.01,0-.02,0-.11.02-.23.03-.35.04.03,0,.06,0,.09-.01.1-.01.2-.03.31-.04l-.09-1.42h0c-.23.04-.46.07-.7.09-.24.02-.48.02-.71,0h0Zm-.83-13.03c-3.66.59-6.33,3.87-6.09,7.64.24,3.77,3.31,6.69,7.01,6.81l-.09-1.42c-2.92-.16-5.32-2.49-5.51-5.48-.19-2.99,1.9-5.6,4.77-6.13l-.09-1.42Zm-.42-6.63l.09,1.42h0s0,0,0,0l.33,5.21h0s.09,1.42.09,1.42c.23-.04.46-.07.7-.09.24-.02.48-.02.71,0l-.09-1.42h0s0,0,0,0l-.33-5.21h0s-.09-1.42-.09-1.42c-.23.04-.47.07-.7.09-.24.02-.48.02-.71,0h0Zm-.83-13.03c-3.66.59-6.33,3.87-6.09,7.64.24,3.77,3.31,6.69,7.01,6.81l-.09-1.42c-2.92-.16-5.32-2.49-5.51-5.48-.19-2.99,1.9-5.6,4.77-6.13l-.09-1.42Zm-.42-6.63l.09,1.42s0,0,0,0h0s.33,5.21.33,5.21h0,0l.09,1.42c.23-.04.46-.07.7-.09.23-.01.47-.02.69,0,0,0-.01,0-.02,0,0,0,.01,0,.02,0,0,0,.01,0,.02,0l-.09-1.42h0s0,0,0,0l-.33-5.21h0s-.03,0-.05,0c0,0,.01,0,.02,0,0,0,0,0,.01,0,0,0,0,0,0,0h0s0,0,0,0h0s0,0,0,0h0s0,0,.01,0l-.09-1.42h0c-.23.04-.46.07-.7.09-.24.02-.48.02-.71,0h0Zm1.41,1.35s-.02,0-.03,0c.01,0,.02,0,.03,0h0Zm-2.24-14.38c-3.66.59-6.33,3.87-6.09,7.64.24,3.77,3.31,6.69,7.01,6.81l-.09-1.42c-2.92-.16-5.32-2.49-5.51-5.48-.19-2.99,1.9-5.6,4.77-6.13l-.09-1.42Zm-.42-6.63l.09,1.42.33,5.21h0s0,0,0,0l.09,1.42c.23-.04.46-.07.7-.09.24-.01.48-.02.71,0l-.09-1.42-.33-5.21h0s-.02,0-.03,0h0s0,0,0,0c0,0,0,0,0,0h0s.02,0,.03,0l-.09-1.42h0c-.23.04-.46.07-.7.09-.24.01-.48.02-.71,0h0Zm1.49,1.33s0,0-.01,0c0,0,0,0,.01,0h0Zm-.02,0s0,0,0,0c0,0,0,0,0,0h0Zm0,0s0,0-.01,0c0,0,0,0,.01,0h0Zm-.07,0s-.03,0-.04,0c.01,0,.03,0,.04,0h0Zm-.1.01h0s0,0,0,0h0Zm-2.12-14.39c-3.66.59-6.33,3.87-6.09,7.64.24,3.77,3.31,6.69,7.01,6.81l-.09-1.42c-2.92-.16-5.32-2.49-5.51-5.48-.19-2.99,1.9-5.6,4.77-6.13l-.09-1.42Zm.99-6.72c-.23.04-.46.07-.7.09-.24.01-.47.02-.71,0l.09,1.42.33,5.21h0s.09,1.42.09,1.42c.23-.04.46-.07.7-.09.24-.02.48-.02.71,0l-.09-1.42-.33-5.21h0s0,0,0,0h0s-.09-1.42-.09-1.42h0Z"/>
    </g>
    <g>
      <path class="cls-1" d="m22.15,32.68l.25,4.13c.02.33-.23.6-.54.62l-.46.03c-.33.02-.61-.23-.62-.55l-.6-9.87c-.02-.33.23-.61.55-.63l1.77-.11c2-.12,2.95.87,3.08,2.99s-.69,3.22-2.69,3.34l-.74.04Zm-.29-4.7l.19,3.08.74-.04c.88-.05,1.22-.55,1.15-1.62-.07-1.1-.45-1.52-1.34-1.46l-.74.04Z"/>
      <path class="cls-1" d="m26.71,29.26c-.13-2.07.71-3.25,2.49-3.36,1.8-.11,2.75.95,2.88,3.03l.28,4.64c.08,1.29-.22,2.07-.7,2.61-.51.56-1.19.73-1.8.77-.59.04-1.29-.05-1.86-.54-.54-.48-.94-1.21-1.02-2.5l-.28-4.64Zm1.92,4.54c.07,1.08.44,1.57,1.15,1.53.69-.04,1.02-.54.95-1.65l-.28-4.64c-.07-1.1-.44-1.55-1.15-1.51-.72.04-1.02.57-.95,1.64l.28,4.64Z"/>
      <path class="cls-1" d="m38.36,35.84c.02.33-.23.6-.56.62l-3.49.21c-.33.02-.61-.23-.62-.55l-.6-9.87c-.02-.33.23-.61.55-.63l.48-.03c.31-.02.59.23.61.56l.54,8.83,2.44-.15c.33-.02.61.23.63.55l.03.44Z"/>
      <path class="cls-1" d="m38.85,28.52c-.13-2.07.71-3.25,2.49-3.36,1.8-.11,2.75.95,2.88,3.03l.28,4.64c.08,1.29-.22,2.07-.7,2.61-.51.56-1.19.73-1.8.77-.59.04-1.29-.05-1.86-.54-.54-.48-.94-1.21-1.02-2.5l-.28-4.64Zm1.92,4.54c.07,1.08.44,1.57,1.15,1.53.69-.04,1.02-.54.95-1.65l-.28-4.64c-.07-1.1-.44-1.55-1.14-1.51-.72.04-1.02.57-.95,1.64l.28,4.64Z"/>
      <path class="cls-1" d="m53.88,35.49c-.2.01-.49-.15-.56-.33l-2.62-5.5.33,5.41c.02.33-.24.61-.55.62l-.48.03c-.31.02-.61-.23-.62-.55l-.6-9.87c-.02-.33.24-.61.55-.63l.39-.02c.21-.01.49.15.56.33l2.62,5.5-.33-5.41c-.02-.33.23-.61.55-.63l.46-.03c.33-.02.61.23.63.56l.6,9.87c.02.33-.23.6-.55.62l-.38.02Z"/>
      <path class="cls-1" d="m55.66,27.5c-.13-2.07.71-3.25,2.49-3.36,1.8-.11,2.75.95,2.88,3.03l.28,4.64c.08,1.29-.22,2.07-.7,2.61-.51.56-1.19.73-1.79.77-.59.04-1.29-.05-1.86-.54-.54-.48-.94-1.21-1.02-2.5l-.28-4.64Zm1.92,4.54c.07,1.08.44,1.57,1.15,1.53.69-.04,1.02-.54.95-1.65l-.28-4.64c-.07-1.1-.44-1.55-1.14-1.51-.72.04-1.02.57-.95,1.64l.28,4.64Z"/>
      <path class="cls-1" d="m68.03,34.02c.02.33-.23.61-.55.63l-.46.03c-.33.02-.61-.23-.62-.55l-.17-2.74c-.05-.82-.54-1.25-1.34-1.2l-.74.04.25,4.02c.02.33-.23.61-.54.62l-.46.03c-.33.02-.61-.23-.62-.55l-.6-9.87c-.02-.33.23-.61.55-.63l2.06-.13c2.02-.12,2.78.85,2.92,3.05.06,1.02-.07,1.85-.55,2.39-.05.05-.08.09-.12.14.51.48.78,1.14.83,1.99l.17,2.74Zm-3.98-5.45l.74-.04c.92-.06,1.37-.54,1.3-1.66-.07-1.11-.34-1.56-1.19-1.51l-1.03.06.19,3.15Z"/>
      <path class="cls-1" d="m68.6,24.08c-.02-.33.23-.61.55-.63l4.29-.26c.33-.02.6.23.62.55l.03.46c.02.33-.23.61-.55.63l-1.34.08.54,8.82c.02.33-.23.61-.55.63l-.44.03c-.33.02-.61-.23-.62-.55l-.54-8.82-1.33.08c-.33.02-.61-.23-.63-.55l-.03-.46Z"/>
      <path class="cls-1" d="m79.31,22.85c.33-.02.61.23.63.56l.03.44c.02.33-.23.61-.55.63l-2.51.15.19,3.08,2.07-.13c.33-.02.61.23.63.55l.03.44c.02.33-.23.6-.55.62l-2.07.13.19,3.1,2.51-.15c.33-.02.61.23.63.55l.03.44c.02.33-.23.6-.55.62l-3.54.22c-.33.02-.61-.23-.62-.55l-.6-9.87c-.02-.33.23-.61.55-.63l3.54-.22Z"/>
    </g>
    <g>
      <path class="cls-1" d="m117.75,185.88c.33-.02.61.23.63.55l.03.44c.02.33-.23.61-.55.63l-3.65.22c-.33.02-.6-.23-.62-.55v-.23c-.07-.93.01-1.73.23-2.45l-.02.02c.25-.82.73-1.59,1.38-2.27.79-.84,1.21-1.8,1.15-2.77-.05-.8-.36-1.31-.85-1.28-.52.03-.76.47-.7,1.42v.1c.03.31-.22.59-.53.61l-.48.03c-.33.02-.6-.23-.62-.54v-.1c-.12-1.9.61-3.05,2.24-3.15,1.54-.09,2.49,1.12,2.59,2.8.09,1.51-.44,2.84-1.61,4.03-.75.74-1.09,1.51-1.14,2.64l2.56-.16Z"/>
      <path class="cls-1" d="m119.14,179.58c-.12-2.07.59-3.28,2.23-3.38,1.62-.1,2.48,1.07,2.61,3.08l.28,4.57c.12,2.02-.61,3.29-2.21,3.39-1.62.1-2.5-1.03-2.62-3.1l-.28-4.57Zm1.93,4.64c.07,1.08.35,1.41.87,1.38.51-.03.75-.39.68-1.47l-.3-4.9c-.06-1.07-.35-1.39-.86-1.36-.52.03-.77.39-.7,1.46l.3,4.9Z"/>
      <path class="cls-1" d="m129.88,185.14c.33-.02.61.23.63.55l.03.44c.02.33-.23.61-.55.63l-3.65.22c-.33.02-.6-.23-.62-.55v-.23c-.07-.93.01-1.73.23-2.45l-.02.02c.25-.82.73-1.59,1.38-2.27.79-.84,1.21-1.8,1.15-2.77-.05-.8-.36-1.31-.85-1.28-.52.03-.76.47-.7,1.42v.1c.03.31-.22.59-.53.61l-.47.03c-.33.02-.6-.23-.62-.54v-.1c-.12-1.9.61-3.05,2.24-3.15,1.54-.09,2.49,1.12,2.59,2.8.09,1.51-.44,2.84-1.61,4.03-.75.74-1.09,1.51-1.14,2.64l2.56-.16Z"/>
      <path class="cls-1" d="m131.56,183.38c-.02-.33.23-.61.55-.63l.48-.03c.31-.02.59.23.61.56v.08c.07,1.1.38,1.56.89,1.53.44-.03.6-.5.66-.83.02-.21.04-.46.02-.72-.04-.67-.31-1.03-.52-1.2-.28-.25-.56-.31-.73-.3h-.21c-.33.03-.61-.21-.62-.54l-.03-.44c-.02-.33.23-.61.55-.63h.21c.21-.03.48-.16.7-.42h-.02c.25-.26.4-.66.37-1.24-.03-.52-.14-.93-.35-1.21-.13-.19-.31-.28-.51-.26-.51.03-.75.57-.69,1.64v.08c.03.33-.22.61-.53.62l-.48.03c-.33.02-.61-.23-.63-.55v-.08c-.13-2.03.62-3.26,2.22-3.36.82-.05,1.46.26,1.95.95l-.02-.02c.41.52.62,1.2.67,2.06.07,1.21-.39,2-.79,2.45.45.38,1,1.09,1.08,2.32.12,1.93-.76,3.19-2.22,3.28-1.6.1-2.5-1.03-2.62-3.05v-.08Z"/>
    </g>
    <g>
      <path class="cls-1" d="m514.27,116.74c-.27-.4-.44-.79-.92-1.08-.89-.14-1.79-.27-2.71-.41-.13,0-.25,0-.39.01-.63.03-1.15.31-1.75.48-.81-.21-.64-.5.53-.73-6.38-.87-13.43-1.54-21.46-1.88.31.59-1.88.96-1.91,1.29-1.59.34-2.66.6-3.81.81-.56.1-1.29.13-1.83.17-.04-.27-.07-.49-.11-.77,1.02-.04,2.1-.09,3.23-.13.13-.27.25-.51.37-.76.21,0,.43,0,.64-.01.15.12.3.25.48.39,1.39-.09,2.16-.38,1.42-.71-.4-.18-.5-.29-.42-.36-6.21-.23-13-.27-20.52-.07-11.86.31-21.75,1.12-30.31,2.25,1.04.32,2.11.64,3.19.97-.09.04-.17.08-.26.12-.32,0-.7.01-.96-.03-1.68-.25-3.21-.42-5.34-.2-1.07.11-1.95.11-2.69.02-7.35,1.19-13.67,2.62-19.44,4.16.02.11.04.23.06.35-.27-.06-.49-.13-.68-.19-4.25,1.15-8.21,2.36-12.08,3.58.13.11.27.23.44.38-.48-.05-.88-.08-1.25-.12-.98.31-1.95.62-2.93.93-.64.21-1.29.41-1.93.61,1.31.55,2.18,1.42,1.53,1.88-.71-.45-1.32-.83-1.88-1.22-.18-.13-.36-.25-.54-.38-8.03,2.55-16.09,4.98-26.12,6.9-.11.09-.24.17-.44.2-.18.03-.44.03-.7.02-.16.03-.32.06-.48.09,1.18.06,2.32.12,3.38.17-.56.31-.98.52-1.36.75-.16.09-.17.26-.37.28-1.45.16-1.85.47-2.09.81,0,.06.02.12.03.19.38,0,.72-.02,1.04,0,.9.04,2.22.01,2.58.17.05.02.08.04.1.07,4.61-.86,8.81-1.82,12.74-2.83.03-.25.05-.48.08-.75.68.07,1.16.12,1.97.21.09-.03.19-.05.28-.08-.31-.3-.55-.53-.86-.84,1.13-.16,2.33-.46,3.46-.45.45,0,.92.07,1.37.17,4.19-1.21,8.13-2.47,12.05-3.72,1.03-.33,2.06-.66,3.09-.98-1.18-.04-2.27-.08-3.56-.13,1.3-.36,2.34-.76,3.69-.95.5-.07,1.42.13,2.38.29,7.05-2.2,14.3-4.28,23.04-5.97.34-.21,1.07-.37,2.23-.47-.04.03-.07.05-.11.08,10.07-1.82,22.13-3.14,38.05-3.56,21.02-.55,35.81.79,48.35,2.94,0-.17-.08-.35-.23-.51-.72-.83-1.51-1.65-2.05-2.5,1.35.63,2.69,1.26,4.36,2.04.29-.41.45-.62.66-.91.53.15.99.27,1.03.28.14.38.22.62.36,1,1.55-.35,2.63-.59,4.11-.92-2.33-.46-4.73-.9-7.23-1.31-.18.24-.37.51-.6.83Zm-90.95,2.01c-.06-.37-.12-.74-.18-1.14q1.29.33.18,1.14Zm65.9-5.2c1.69.06,2.91.1,4.14.14-2.55.53-2.57.53-4.14-.14Zm7.24,1.96c.8-.62,2.48-.34,3.79-.39-1,.35-1.95.76-3.79.39Z"/>
      <polygon class="cls-1" points="522.1 117.22 522.1 117.22 522.1 117.22 522.1 117.22"/>
      <path class="cls-1" d="m564.21,128.86s0,0,0,0c0,0,0,0,0,0,.93-.75,1.64-.86,4.45-.86.59,0,1.37-.18,1.79-.34.11-.04.19-.09.26-.14-11.51-1.54-20.85-3.82-30.46-6.16-4.76-1.16-9.57-2.33-14.69-3.42.42.18.1.26-.95.53-.98-.23-1.26-.3-.77-.89-.58-.12-1.16-.23-1.74-.35-.81.72-1.47,1.29-2.13,1.87.26.03.53.06.79.09.49-.28.98-.55,1.48-.83.23.02.46.04.68.06-.27.29-.3.63-.88.85-.43.16-1.56.18-2.4.22-.13,0-.47-.22-.49-.35-.04-.22.26-.47.06-.67-.07-.08-1.42-.14-1.64-.07-.48.16-.89.42-.83.63.02.09.05.17.08.26,7.15,1.33,13.64,2.91,20.26,4.53,7.95,1.94,16.02,3.91,25.48,5.46.53-.14,1.11-.26,1.66-.39Z"/>
      <path class="cls-1" d="m563.75,129.36s-.05.05-.07.08c.86.14,1.74.27,2.63.4-.83-.15-1.68-.31-2.56-.47Z"/>
      <path class="cls-1" d="m597.33,131.79c.03-.2.78-.41,1.31-.58.94-.31,1.95-.61,3.06-.95.32.08.73.18,1.15.28v-1.08c-11.06,0-20.29-.55-28.38-1.48.11.11.22.21.33.32-1.08-.14-1.53-.2-2.13-.28-.18.25-.36.49-.54.73.88-.02,1.76-.03,2.64-.05-2.15.71-4.51,1.05-7.33.96-.15.09-.3.18-.44.26,1.48.21,3,.41,4.56.6.04-.15.08-.31.11-.46.13,0,.25,0,.38,0,.25.2.49.4.74.6,4.85.56,10.1.99,15.85,1.27,1.59.06,3.18.09,4.8.03-.35.04-.71.08-1.06.13,2.2.07,4.47.13,6.82.15-.06-.03-.14-.05-.27-.07-.58-.13-1.63-.27-1.61-.4Zm-12.16-2.16c2.31-.66,2.62-.67,4.1-.11-1.45.04-2.75.07-4.1.11Z"/>
      <path class="cls-1" d="m183.15,145.04c-.78.02-1.56.03-2.36.05l.07.51c.14-.07.29-.14.48-.2.45-.15,1.11-.25,1.82-.37Z"/>
      <path class="cls-1" d="m252.93,153.99s-.09-.06-.14-.09c.22.01.42.03.61.05,1.22-.07,2.27.16,3.46.69.54-.19,1.07-.39,1.61-.58-.85-.21-1.69-.41-2.54-.62-6.14-1.5-12.35-3.01-19.22-4.34.06.18.11.35.17.53-1.97.35-2.18,1.06-.24,1.53.78-.13,1.57-.26,2.35-.39-1.56.66-.68,1.01,1.2,1.32.94.16.82.61-.03.83.71.16,1.41.31,2.11.47.3,0,.59,0,.89.02.11,0,.25.04.3.08.11.09.23.18.36.26.5.12,1,.23,1.5.35.25,0,.53,0,.87-.02.21-.02.56.15,1.05.29,1.13-.48,2.18-.93,3.23-1.37.23.03.47.06.7.08-.15.43-.29.86-.46,1.37.83-.23,1.55-.38,2.22-.46Z"/>
      <path class="cls-1" d="m462.77,138.15c1.15-.07,1.75-.23,1.89-.52-1.2.04-2.37.09-3.53.15.42.14.85.29,1.29.44.11-.03.23-.06.36-.07Z"/>
      <path class="cls-1" d="m476.77,137.38c-.23,0-.46,0-.7,0,.21.02.45.03.7,0Z"/>
      <path class="cls-1" d="m339.72,163.73c.16,0,.33-.02.49-.03-.09-.08-.2-.16-.32-.24-.05.09-.11.18-.17.26Z"/>
      <path class="cls-1" d="m520.27,93.11s0-.04,0-.07c-2.98-.61-6.07-1.19-9.32-1.71-.96.4.68.52,1.3.69.29.08,1.34-.07,1.95-.11.17.42.36,1.02.72,1.6.04.06,1.1.05,1.56.07-.18-.2-.31-.34-.45-.49.41,0,.82,0,1.24,0,.96,0,1.91,0,2.99.01Z"/>
      <path class="cls-1" d="m240.07,56.11c-.16-.09-1.11-.09-1.66-.06-.8.04-1.57.15-2.6.25.58-.22,1.05-.39,1.48-.56-2.15-.09-4.27-.11-6.22.23,2.65.62,5.27,1.26,7.91,1.9,6.42,1.57,12.91,3.15,20.16,4.52.12-.03.24-.07.36-.11.12.03.24.07.35.1-.05.03-.1.07-.15.1.54.1,1.08.2,1.63.3.76-.17,1.54-.35,2.53-.58-.75-.04-1.24-.05-1.65-.11-.45-.06-1.09-.14-1.17-.25-.12-.16-.01-.42.35-.53.72-.22,1.72-.35,2.54-.55.45-.11.9-.22,1.34-.32-7.66-1.32-14.48-2.94-21.37-4.61.1.16.19.34.32.48-1.85.08-3.24.29-4.15-.22Z"/>
      <path class="cls-1" d="m461.43,66.55c-.22.1-.49.17-.86.19,0,0,0,0,0,0,.25,0,.49-.01.74-.02.04-.06.07-.12.11-.18Z"/>
      <path class="cls-1" d="m503.52,93.17c.43.06.86.12,1.28.18.06-.04.11-.08.17-.11,1.04.13,2.08.26,3.5.44,1.1-.23,2.59-.47,1.9-1.22-.35-.39-.3-.82-.24-1.26-4.3-.68-8.89-1.27-13.89-1.74-.31.15-.66.3-.97.46-.82-.2-1.41-.3-1.84-.45-.25-.09-.53-.19-.67-.3-8.9-.69-19.06-.98-31.1-.67-11.22.3-20.67,1.03-28.9,2.07.29.09.59.18.91.28-2.85.56-4.13,1.71-8.12,2.06.41-.4.74-.73,1.14-1.11.19-.01.53-.03.58-.03.46-.22.88-.42,1.3-.62-4.63.67-8.86,1.44-12.79,2.27.35.23.86.47,1.15.69-.42.04-1.23.04-1.4.14-.36.21-.39.46-.56.69.2.02.4.04.61.06.44-.12.89-.24,1.43-.39.17.07.4.16.69.27,2.14-.27,1.03-.82,1.42-1.34.47.02.88.04,1.51.07-.15-.25-.27-.45-.43-.72.47.06.82.11,1.3.18-.03-.19-.06-.36-.08-.52.61.49,1.69.83.77,1.54-.96.75-2.95,1.18-4.04,1.83-.36.22-1.28.36-1.95.5.02,0,.05,0,.07,0,7.74-1.76,16.57-3.23,27.62-4.16-.02,0-.04,0-.05,0-.28,0-.58-.27-1.14-.55,1.77,0,2.95.01,4.14.01.05.1.09.19.14.29,4.63-.34,9.64-.59,15.1-.73,1.18-.03,2.33-.06,3.47-.07.02-.02.03-.04.05-.06.02.02.04.04.05.05,14.92-.25,26.61.49,36.64,1.79-.03-.1-.09-.2.06-.27.14-.06.89-.09,1.05-.04.25.08.4.24.29.35-.04.04-.09.08-.14.12Z"/>
      <path class="cls-1" d="m569.35,128.55c-.28.16-.53.32-.78.46,1.17,0,2.33-.11,3.5-.24-1.71-.57-3.91-.59-6.04-.02.28.06.55.11.83.15.74-.1,1.56-.22,2.48-.34Z"/>
      <path class="cls-1" d="m174.75,98.58c.06-.04-.09-.11-.15-.17-.18-.16-.32-.29-.42-.41l.12.88c.08,0,.15,0,.22,0-.01-.08.05-.17.23-.3Z"/>
      <path class="cls-1" d="m206.05,74.54c.87.09,1.7.03,3.35-.38-.18-.14-.34-.27-.51-.4,1.11-.19,1.81-.36,2.16-.57-1.35-.16-2.73-.32-4.14-.46-.87.09-1.91.17-2.8.19-.02,0-.05.01-.07.02.49.39,1.02.81,1.58,1.25-1.53-.07-2.59-.12-3.84-.17,0,0-.11-.14.06-.18,1.49-.35,1.32-.65-.05-.95-.15-.03-.16-.12-.2-.19-.13-.18-.26-.35-.5-.48-6.57-.5-13.84-.78-22.03-.76-.09.06-.18.12-.27.18.44.09.84.17,1.33.27-.65.18-1.24.34-1.86.51q-1.64-.77-5.69-.44c-.03.07-.05.14-.07.2.51.09,1.28.03,2.36-.17.19-.03.46-.03.9-.05-.33.21-.56.35-.94.59,2.82-.01,4.47.42,6.32,1.16-.18.01-.35.02-.53.03.73.15,1.4.05,2.18-.18.8-.23,1.78-.42,2.68-.62.2.06.41.13.61.19-1.15.36-2.31.73-3.53,1.11,2.74.02,5.36.08,7.87.17.43-.48,1.47-1.03,1.02-1.4-.36-.29-2.65-.35-4.08-.52-.14.06-.28.12-.42.18-.14-.21-.29-.43-.45-.66,1.59-.41,2.99-.25,4.43.01.68.12,1.5.18,2.77.32-.04.09-.23.34-.2.59.03.22.3.43.59.82-1.13.59-1.34.67-3.01.68,4.51.17,8.68.45,12.59.81-.04-.07-.06-.14-.05-.23.76-.16,1.45-.3,2.43-.5Zm-5.02-.75c-2.43.25-3.78.89-6,.77-.1-.08-.2-.17-.31-.25.89-.14,1.79-.27,2.69-.41-.25-.23-.56-.5-.88-.78,1.29-.15,1.84.06,2.45.29.59-.05,1.18-.09,1.77-.14.1.07.2.14.31.21-.39.06-.77.14-1.16.2.3.06.66.11,1.12.11Z"/>
      <path class="cls-1" d="m272.48,112.52c0-.12.15-.25.41-.4.31-.17.71-.33.86-.5.17-.21.12-.44.16-.66-.71,0-1.43,0-2.14.03-.61.02-1.21.06-1.71.08.35-.33.65-.62.96-.91.76.14,1.51.29,2.39.45.15-.46.23-.73.18-.9-.51-.08-1.02-.17-1.52-.26-.39.22-.79.44-1.19.66-.48-.11-.96-.21-1.57-.35.54-.18.96-.31,1.42-.46-.74.02-1.48.04-2.22.06-.14,0-.29-.15-.43-.23-.01,0-.03,0-.04,0h.03s0,0,.01,0c.53-.03,1.05-.07,1.58-.11-2.38-.44-4.68-.9-6.94-1.39.34.24.31.51-.13.79-.26.17-.3.37-.52.65-.63-.17-1.11-.3-1.51-.41-.65.14-1.26.27-1.86.4-.48-.21-1.18-.4-1.36-.64-.13-.17.4-.4.73-.59.15-.08.66-.11.8-.19.37-.21.27-.58,1.12-.61-.53-.12-1.06-.24-1.58-.36-.19.08-.42.15-.68.2-1.35.22-2.64.39-2.58.95.01.11-.69.23-1.42.47.98-.05,1.47-.08,1.99-.11,1.09.71,1.48,1.6,4.43,1.98.38.05.7.15.98.26.68.14,1.36.28,2.05.42.17-.02.34-.06.54-.11.79-.21,1.05-.42.61-.61-.39.05-.81.11-1.27.18.29-.12.55-.22.79-.32-.08-.02-.16-.03-.26-.05-.17-.03-.2-.13-.34-.22.42.04.76.07,1.04.1.47-.19.9-.37,1.44-.59-1.29.04-2.2.06-3.24.09,1.42-.54,2.19-.55,5.55-.17.01,0,.03,0,.04-.01,0,0-.03.01-.03.01,0,0,0,0-.01,0-.44.11-.98.2-1.24.34-.11.06.45.22.48.23-.76.11-1.42.2-2.12.3.23.17.03.46-.4,1.08,2.29.07,2.74.09,2.64.57,1.66.3,3.36.6,5.1.87Z"/>
      <path class="cls-1" d="m252.33,106.2c-2.11.71-2.16.72-1.38,1.44.15.14.8.22,1.22.33.24-.15.51-.29.72-.44.16-.11.12-.28.39-.35,1.09-.29,1.83-.77,2.04-1.23-2.09-.5-4.17-1-6.27-1.52-7.39-1.8-14.89-3.63-23.51-5.12-.25.17-.39.3-.32.37.14.13.64.3,1.05.32,1.44.06,1.46.29,1.02.61-2.65,0-5.28,0-7.92,0-.21,0-.39-.09-.62-.11-.53-.06-1.07-.1-1.61-.15-.05.19-.28.41-.09.58.01.01.03.02.05.03,4.93.7,9.47,1.54,13.82,2.46.78.04,1.23.16,2.13.39-.05.01-.1.02-.15.04,4.41.96,8.67,2,12.97,3.05.91.22,1.83.45,2.75.67.24-.18.38-.39.3-.57-.23-.56,1.24-1.34,3.02-1.48.36-.03.93-.01,1.14.05.19.06.11.23-.02.34-.14.11-.45.22-.73.31Zm-8.2-2.26c-.15.19-.61.37-.93.56-.27,0-.55,0-.82,0,.05-.33.05-.67.22-.99.02-.05.91-.06,1.39-.09.06.18.27.37.14.54Z"/>
      <path class="cls-1" d="m173.55,74.32c1.41-.03,2.79-.05,4.14-.06,0-.1,0-.21.02-.31-1.51.1-2.93.2-4.32.27.05.03.11.06.16.09Z"/>
      <path class="cls-1" d="m228.57,76.03c-.45-.09-.89-.18-1.34-.27-.09.09-.19.18-.32.29-.19-.13-.37-.26-.56-.4-.76.02-1.49.04-2.22.06-.09.07-.19.13-.28.2,1.18.17,2.36.35,3.42.51.45-.14.88-.27,1.3-.39Z"/>
      <path class="cls-1" d="m357.48,111.48c.14.18.14.39.37.54,11.7-1.92,20.79-4.46,29.25-7.08-1.03-.08-2.06-.16-3.09-.25-.03-.04-.05-.09-.08-.13,1.57-.04,3.14-.09,4.81-.14,1.51-.48,3.01-.95,4.51-1.43,6.76-2.16,13.38-4.26,21-6.09-.03,0-.06-.02-.1-.03.34-.17.63-.47,1.02-.49.15,0,.29,0,.45,0-1.47-.4-2.95-.83-4.54-1.21-.45-.11-1.71,0-1.89-.11-.05-.03-.09-.07-.14-.1-5.71,1.43-10.85,2.99-15.84,4.56.9.2,1.79.39,2.56.56-.99.28-1.87.53-2.89.82-.61-.04-1.55-.1-2.79-.17.45.29.72.46,1.19.77-1.57.01-2.98.03-4.4.04-7.52,2.39-15.04,4.68-24.16,6.55.23.13.26.29.22.47-.25.05-.49.1-.74.15-.23-.12-.46-.24-.71-.37-.31.06-.63.12-.94.18.46.37.92.75,1.4,1.13-1.01.17-1.78.3-2.88.48.22-.29.39-.51.61-.8-1.51.27-2.56.22-3.37-.04-3.39.57-7.01,1.08-10.93,1.52,1.79-.13,3.61-.25,5.49-.39-.09.18-.21.44-.35.72,1.09,0,2.17,0,3.34.01-.12.53-.23,1.04-.33,1.53.6-.09,1.2-.17,1.79-.26.13-.42.14-.85.25-1.27.08-.28.27-.56.39-.8,1.91.22,3.41.4,4.92.58-.59.28-1.1.52-1.51.71-.63-.05-1.26-.1-1.89-.16Zm8.37-4.03l.89.12c-.72.39-1.44.78-2.15,1.17-.24-.03-.49-.06-.73-.1.67-.4,1.33-.79,2-1.19Z"/>
      <path class="cls-1" d="m218.24,77.16c.52-.35,1.05-.69,1.61-1.03.13-.08.91-.16.96-.14.4.16.7.35,1.14.58.49.02,1.23.05,2.26.09-1.05-.71-2.02-1.35-2.97-2-1.18-.2-2.39-.39-3.62-.58-.38.22-.74.42-1.11.64-.52-.18-.95-.33-1.48-.51.41-.11.82-.22,1.23-.33-.51-.07-1.03-.15-1.55-.22-.86.18-1.68.37-1.03.78-.8.04-1.65.05-2.42.1-.24.13-.51.26-.83.42-.13-.11-.26-.2-.37-.3,0,0,0,0,0,0-1.02.18-1.65.56-2.56.89-.29,0-.56.01-.81.02,1.41.15,2.79.31,4.14.49-.27-.12-.56-.26-.89-.41,1.39.05,2.69,0,3.01.14.42.19,1.14.43.88.68,1.51.22,2.99.45,4.44.69Zm-6.8-1.91c2.16-.5,2.75-.07,3.3.37-1-.11-2-.22-3.3-.37Z"/>
      <path class="cls-1" d="m174.74,71.49c-.99.01-2,.03-3.01.06,0,.01,0,.02,0,.03.98-.03,1.99-.03,2.98-.05,0-.01.02-.03.03-.04Z"/>
      <path class="cls-1" d="m230.01,149.1c-1.46.05-2.93.08-4.61.12.37-.58-.47-1.19,1.84-1.64.1-.02.19-.04.27-.07-11.68-1.75-25.55-2.83-43.8-2.49.52.89-.14,1.17-2.74,1.31l.22,1.55c19.58-.52,33.76.61,45.75,2.51.19-.13.39-.26.59-.39,1.21.25,1.36.46,1.02.66,1.35.22,2.67.46,3.97.7.09-.63.22-1.27.15-1.91,0,0,0,0,0-.01-.41-.32-1.33-.39-2.65-.34Zm-31.35-2.25c-.96-.06-1.91-.12-3.18-.2.77-.27,1.25-.44,1.81-.64.52.2,1.05.4,1.58.6-.07.08-.14.16-.21.24Zm4.79-.2c.61-.46,1.89-.33,2.88-.23.6.06.99.29,1.73.53-2.03-.13-3.27-.21-4.61-.3Zm5.9-.55c1.11.43,2.21.86,3.28,1.27-3.06-.04-3.81-.32-3.28-1.27Zm7.45,1.41c-1.01,0-2.02,0-3.31,0,.53-.29.82-.45,1.21-.66.8.14,1.53.27,2.26.4-.05.09-.1.18-.16.27Z"/>
      <path class="cls-1" d="m274.19,88.44c.06-.25.13-.5.15-.75,0-.12-.12-.25-.19-.37-.38.1-1.14.24-1.09.3.26.29.73.55,1.13.82Z"/>
      <path class="cls-1" d="m283.7,137.52c-.18.27.01.47.38.64.79.09,1.59.19,2.41.27-.49-.44-.99-.88-1.58-1.41-.39.15-1.09.31-1.21.5Z"/>
      <path class="cls-1" d="m359.46,134.24c.48-.04.99-.09,1.56-.14-.08-.18-.22-.34-.5-.44-.55.1-1.11.19-1.67.28.07.06.16.11.27.17.07.03.17.06.35.13Z"/>
      <path class="cls-1" d="m347.96,113.14c.2.07.36.14.52.21,1.45-.17,2.85-.35,4.23-.54.05-.1.09-.21.1-.31.13-.99-1.48-1.32-5.1-.95.38.14.74.24.97.36.28.15.54.31.6.47.02.06-.68.23-.84.21-.62-.08-1.33-.18-1.7-.33-1.1-.46-2.12-.89-4.47-.76-.52.03-1.09-.06-1.59-.19-5.97.55-12.59.95-20.06,1.14-10.15.27-18.84.09-26.54-.4-.22.23-.45.48-.83.88-1.25-.43-2.19-.75-3.13-1.08.07-.02.14-.05.21-.07-2.71-.22-5.3-.48-7.78-.77-.04.02-.08.05-.12.07-.92.06-1.88.08-2.73.19-.41.05-.78.27-.85.41-.18.39-.56.46-1.69.24-.43-.08-1.22-.01-1.84-.01-.35.54-.09.92.85,1.18.88.12,1.77.25,2.68.36.44.03.93.05,1.45.07-.02.04-.05.07-.07.1,5.61.68,11.74,1.2,18.58,1.49,0,0,0-.02,0-.02.1,0,.2,0,.29,0,.07-.14.15-.27.22-.41-.09-.16-.19-.32-.28-.48-.65.2-1.3.4-1.96.6.25-.4.44-.81,2.64-.86-.14.26-.27.5-.4.74.05.09.11.18.16.27-.09.05-.17.09-.26.14,2.36.03,4.72.06,7.17.1-.12.05-.25.09-.39.13,1.87.03,3.79.05,5.77.05.35-.42,1.67-.52,2.86-.53.71,0,1.41.23,2.11.36-.15.04-.29.08-.44.13-.08,0-.16,0-.23,0,1.61-.02,3.24-.05,4.92-.09,10.33-.27,19.18-.92,26.94-1.83,0-.08,0-.17,0-.27Zm-5.95.41c-.53-.24-.99-.46-1.76-.81.86.11,1.27.16,1.87.24.63-.24,1.23-.47,1.98-.76.15.28.28.53.41.77-.79.18-1.6.36-2.5.56Z"/>
      <path class="cls-1" d="m392.01,99.91c-.47.15-.95.3-1.42.45.65,0,1.31-.01,1.97-.02.1-.14-.29-.29-.55-.43Z"/>
      <path class="cls-1" d="m255.32,82.25h-.52s.06-.07.09-.1c-.49-.11-.97-.22-1.45-.34-.1.08-.21.17-.33.26-1.23-.32-2.31-.6-3.74-.97-.13,0-.84.05-1.52.04-1.96-.04-4.34.15-4.76-.75-.07-.14-.75-.24-.98-.38-.28-.18-.74-.48-.48-.57.24-.09.54-.18.87-.27-4.29-1.04-8.66-2.07-13.31-3.03-2.04.63-1.65,1.54-2.48,2.39-.98-.31-1.79-.56-2.61-.82.22-.17.48-.37.74-.57-.15-.03-.3-.06-.45-.08-.81.19-1.72.36-2.41.59-.11.04-.21.07-.32.1,7.35,1.35,13.99,2.97,20.76,4.62.03,0,.07.02.1.02,0,0,.01-.01.02-.02.63-.09,1.31-.16,1.89-.27,1.34-.26,2.14-.17,2.71.37-1.53,0-2.88.01-4.22.02,6.93,1.69,13.96,3.39,21.94,4.82.45-.05.91-.13,1.38-.24-.27.11-.53.23-.79.34.75.13,1.51.26,2.28.39,1-.28,1.89-.54,2.75-.8.04-.01-.51-.19-1.03-.38,1.23-.3,2.56-.59,3.82-.92-6.49-.96-12.32-2.16-17.96-3.45Zm-27.57-4.38c1.67,0,3.34,0,5.43.01q-1.12.35-5.43-.01Zm9.71,2.48c-.03-.49.64-.91,2.01-1.2.24.03.48.06.72.09-.53.5-1.06,1-1.81,1.71-.49-.3-.91-.45-.92-.59Zm3.51.27c-.2,0-.4,0-.59,0-.19-.47-1.43-.96.82-1.47-.08.53-.16,1-.23,1.47Zm8.23,1.8c1.31-.08,2.46-.16,3.61-.23.04.06.09.13.13.19-1.04.21-2.08.42-3.4.68-.11-.21-.21-.39-.34-.64Zm4.52,2.49s.06-.04.09-.06c.54.07,1.08.13,1.64.2.28-.4.09-.73-.37-1.02-.8.09-1.6.18-2.42.27-.09-.55.16-.66,2.08-.46-.55-.27-1.32-.51-2.13-.74,5.42.68,6.27.98,3.97,2.57-1.04-.28-1.96-.52-2.87-.76Zm4.34,1.04c-.74-.07-1.03-.22-.81-.68.24-.51,1.69-.91,3.31-.96-.79.52-1.63,1.07-2.49,1.64Z"/>
      <path class="cls-1" d="m556.18,149.2c.99.03,1.93.09,2.81.2-5.25-1.1-10.23-2.31-15.28-3.54-1.43-.35-2.86-.7-4.31-1.05.16.09.29.19.52.26-.72.18-1.45.36-2.17.53-.15-.06-.31-.13-.46-.19.35-.17.69-.34,1.3-.64-.1.02-.19.03-.28.05-.08.04-.16.08-.24.12-.09-.01-.18-.02-.26-.03-1.41.26-2.52.5-3.75.61-1.54.13-3.3.14-4.39-.27.64-.17,1.22-.35,1.83-.51-.15,0-.31-.02-.46-.03-.83-.04-1.69-.04-2.56-.2.53-.07,1.06-.13,1.71-.21-.97-.47-1.93-.93-2.88-1.39.17-.04.34-.08.51-.12.67.16,1.32.33,2.02.47,1.38.28,1.8.25,2.16-.17-2.13-.47-4.3-.94-6.54-1.38,0,.03,0,.05.01.08.12.31.94.59,1.25.76-2.3.23-4.22.42-6.44.64.38-.7.77-1.43,1.2-2.23-3.05-.55-6.25-1.05-9.62-1.5-.38.03-.7.07-.9.18-.16-.12-.32-.24-.47-.36-3.11-.39-6.39-.74-9.85-1.02-.07.18-.13.31-.19.47.79-.07,1.52-.14,2.26-.21.05.06.11.11.16.17-2.12.21-4.23.42-6.35.64-.13-.05-.25-.1-.38-.15,1.28-.29,2.57-.59,4.12-.95-2.07-.17-4.2-.31-6.41-.43-.09.09-.18.18-.26.27-.35.4-1.83.61-3.02.48-.64-.07-1.47,0-2.36,0,.29-.47-.13-.79-1.02-1.03-3.04-.09-6.23-.14-9.57-.13.29.14.63.28.55.4-.32.48.63,1.58,1.81,1.83q-1.05.44-4.36.46c-.77-.41-1.43-.76-2.06-1.1-1.17.16-1.87.25-2.53.34-.06-.4-.12-.72-.17-1.05-.09-.68-.28-.71-2.39-.45-.15-.1-.31-.19-.47-.3-.56.02-1.11.03-1.67.05.06.29-.25.55-1.27.74-.53.1-1.21.13-1.88.16.32.11.64.22.98.33-3.13.2-4.4-.09-4.15-.98-8.89.45-16.6,1.19-23.42,2.14-1.29.42-2.59.83-3.88,1.25-.19-.04-.38-.09-.56-.13,1.07-.31,2.14-.62,3.21-.93-10.24,1.49-18.52,3.46-25.99,5.58h0c-1.14.32-1.78.53.33.72.82.07,1.54.68,1.42,1.03-.21.59-.18.84.63.93.98-.28,1.97-.56,2.97-.84.3-.66.12-1.35,2.47-1.85,1.28-.27,1.15-1.05.28-1.43-.34-.15-.12-.42.16-.64.86.54,2.8.96,1.53,1.68-.09.05.35.26.58.27.53,0,1.09-.07,1.06-.07.2-.37.09-.61.46-.75.8-.31,1.28-.67,2.73-.87,2.32-.33.54-.73-.14-1.14,2.2.34,3.68.11,4.96-.44.65-.28,1.55-.52,2.34-.77l.57.14c-1.23.42-2.45.84-3.69,1.26-.18.06-.64.08-.7.14-.48.45-1.16.85-2.25,1.14.06.14-.39.36-1.34.83,0-.18,0-.37,0-.56-.3.05-.62.09-.97.12-.33.03-.65.35-.55.51.09.14.3.28.48.42,11.67-2.69,25.78-4.7,46.26-5.24,16.95-.45,29.84.34,40.78,1.79-.35-.1-.7-.2-1.05-.29,1.04-.17,1.23-.19,2.7.52,1.28.18,2.54.37,3.77.57-.41-.2-.82-.4-1.25-.62l-.98.03c.24-.23.44-.42.84-.79.75.29,1.6.47,1.56.64-.16.56.67.8,2.8.78-.29.13-.51.23-.72.33,1.14.2,2.27.4,3.38.61.12-.04.24-.08.36-.13.17.08.26.17.28.25,6.7,1.29,12.85,2.78,19.11,4.31,2.91.71,5.83,1.42,8.82,2.12,1.58-.21,3.05-.49,4.32-.92.55-.18,1.72-.32,2.51-.3Zm-110.53-8.46c.5-.32.96-.61,1.51-.97,1.19.76.94.92-1.51.97Zm17.32-1.58c-.01-.06-.03-.13-.04-.19,1.65-.08,3.3-.15,4.95-.23.04.08.07.16.11.24-1.63.37-3.3.45-5.02.18Zm41.46.7c1.1.14,1.86.24,2.95.39-1.17.18-1.95.31-2.98.47.01-.3.02-.5.04-.85Zm2.78,1.89c-.7-.36-2.34-.59-.3-1.01.86.29,2.11.52.3,1.01Z"/>
      <path class="cls-1" d="m359.73,161.67c.04-.19.08-.38.13-.64-.76.03-1.66.07-2.55.11-.05-.07-.09-.13-.14-.2,1.47-.13,2.93-.25,4.07-.35-.53-.53-1.07-1.13-1.73-1.71-8.81,1.3-19.16,2.23-32.02,2.57-16.88.45-29.75-.33-40.66-1.77-.18.19-.36.37-.65.52-.67.37-.38,1.07-2.97.88-1.45-.11-2.93-.19-4.33-.33-1.08-.11-2.05-.3-3.53-.52,1.65-.28,3.44-.04,5.33-.04-.1-.31-.2-.61-.26-.82,1.07-.05,2.14-.09,3.24-.14-4.87-.72-9.37-1.57-13.69-2.5.07.03.14.06.21.1-1.35.04-2.08.06-2.8.08-.18-.07-.37-.14-.55-.2.43-.13.85-.25,1.28-.38-2.62-.58-5.18-1.18-7.73-1.8-.51.29-1.27.52-2.22.64-.75.09-1.63.09-2.6.05-.05.11-.12.22-.21.34-.2-.13-.39-.25-.57-.37-.68-.03-1.39-.06-2.13-.08-.57.16-1,.3-1.26.45.46.11.92.22,1.38.34.76.19,1.52.37,2.29.56.29-.35.71-.63,2.61-.5-.02-.1-.02-.19.02-.28.06-.13.42-.25.64-.38.37.1.93.18,1.07.3.38.33.57.69.87,1.08-.89.23-1.94.26-2.85.1-.16.03-.36.07-.59.1,1.34.32,2.68.64,4.04.96.19,0,.38,0,.57,0-.03.04-.07.07-.1.11,3.25.75,6.58,1.49,10.09,2.17,0,0,.01-.01.02-.02l.85.06s-.05.08-.07.12c7.6,1.46,16.01,2.69,26.02,3.41-.07-.04-.15-.09-.22-.13.17-.06.35-.11.52-.17.75.12,1.73.19,2.15.37.06.02.07.06.07.09,1.57.1,3.19.18,4.84.25-.44-.16-.83-.34-1.21-.52-.28-.13-.38-.3-.53-.42.91.07,1.62.13,2.22.18.47.21,1.01.41,1.37.64.09.06.13.13.15.2.81.03,1.63.05,2.45.08.15-.07.31-.14.46-.21.69.09,1.38.17,2.13.27,4.75.09,9.81.07,15.27-.07,1.79-.05,3.52-.11,5.22-.18-.2,0-.4,0-.61,0-1.68.04-3.39-.26-5.32-.43-1.97.63-2.96.55-4.54.03-.3.2-.54.37-.78.53-.18,0-.37-.02-.55-.02.13-.24.1-.5.42-.72.55-.38,1.17-.76,2.05-1.08.58-.21,1.66-.3,2.7-.48.26,1.06.57,1.13,2.52.73-.7-.36-2.47-.64-1.03-1.16,1.7.44,2.39,1.01,2.42,1.68.08-.14.17-.29.26-.45,1.17-.1,2.35-.2,3.89-.34-.18.19-.26.33-.46.46-.18.12-.5.21-.75.32.49.05,1.01.16,1.47.14.59-.03,1.1-.19,1.69-.26.55-.06,1.21-.04,1.73-.11.28-.04.55-.09.83-.14,0-.17.22-.34.81-.54.1.12.2.22.28.32.11-.02.22-.04.34-.07-.06.09-.11.18-.17.27,0,0,.01.02.02.02.9-.08,2.31-.24,2.37-.2.46.28.94.59,1.13.89,6.98-.52,13.17-1.23,18.77-2.09,0,0,0,0,0,0-.83.09-1.86.2-2.89.31Zm-58.7,1.1c-.32.06-.61.08-.89.08-.02.01-.05.02-.07.04-.22-.03-.45-.06-.67-.09-.02-.01-.04-.03-.06-.04-.49-.1-.92-.27-1.32-.42-.65-.23-1.39-.44-2.09-.66.06-.06.12-.12.18-.18.83.04,1.66.08,2.47.13,1.25.08,2.49.18,4.19.31-.41.21-.81.65-1.75.83Zm10.38,1.15c.39-.18.7-.41.94-.41,2.52.04,3.72-1.18,7.14-.69-3.12.21-4.39,1.29-8.08,1.09Zm40.96-1.57c-.83-.12-1.57-.29-2.55-.49.52-.09.91-.21,1.12-.18.83.09,1.61.22,2.41.34-.34.12-.88.34-.98.33Zm2.18-.65c-.55-.19-1.12-.4-1.79-.64.58-.48,1.47-.58,2.76-.23-.34.3-.66.59-.97.87Z"/>
      <path class="cls-1" d="m199.8,50.55c-.38.03-.75.06-1.12.09,1.69.14,3.33.31,4.93.48.14-.06.28-.11.43-.17-.33-.05-.75-.12-1.17-.18.05-.07.1-.14.15-.21.85.03,1.71.06,2.56.09.01.07.02.14.03.22-.43.11-.86.22-1.3.33,7.42.84,13.91,1.98,20.04,3.28.06,0,.13,0,.18.01.3.04.57.11.81.2.09.02.19.04.28.06.08-.15.57-.36.61-.52.42,0,.81-.04,1.09,0,.87.11,1.69.26,2.53.39-.9.11-1.78.3-2.7.33-.23,0-.42.01-.59,0,.52.11,1.04.23,1.55.35.11-.02.21-.05.29-.09,1.44-.59,3.36-.2,5-.37,1.32-.14,2.97,0,4.44.07.98.04,1.9.18,2.96.28-.16.1-.3.18-.43.27.64,0,1.27,0,1.9,0-.04-.01-.08-.02-.13-.03-15.32-3.74-31.07-7.58-56.39-8.34.03.14.06.29.04.43-.02.2-.03.41-.11.62.27-.08.48-.21.61-.4.03-.04.08-.1.17-.11.37-.04.77-.1,1.13-.09,1.56.05,3.1.12,4.67.33-2.59-.1-4.71.16-6.76.63-.04.06-.09.12-.14.18-.07-.03-.15-.06-.23-.09-.57.14-1.14.29-1.71.45-.08-.48-.11-.68-.15-.94.45.07.87.12,1.25.14-.22-.4-.45-.8-.62-1.2-5.21-.12-10.81-.12-16.89.04l.39,2.8c10.29-.27,19.08-.09,26.85.42,2.46-.36,4.31-.27,5.55.25Zm33.14,3.34c.73.12,1.46.25,2.41.41-.53.14-.93.3-1.06.28-.69-.09-1.35-.21-1.93-.35-.07-.02.38-.22.58-.34Zm-18.24-2.75c.3,0,.6.01.89.02-.13.31-.26.62-.44,1.05-1.37-.26-2.32-.44-3.27-.61.05-.04.11-.08.16-.12.68.02,1.37.04,2.23.07.14-.13.28-.26.43-.4Zm-3.33-1.53c-.24.46,3.05.31,1.29,1.16-.81-.4-1.44-.72-2.07-1.03.26-.04.52-.09.78-.13Zm-43.77-.62c1.72,0,3.85-.21,4.13.6-1.38-.2-2.76-.4-4.13-.6Z"/>
      <path class="cls-1" d="m596.94,155.57c.86.37,1.73.75,2.63,1.14,1.05.02,2.19.01,3.28.02v-2.79c-14.03-.15-25.04-1.23-34.63-2.81-.46.02-.97.04-1.55.07.4.25.84.55,1.35.83.25.14.84.24.95.38.75.97,3.34,1.48,5.49,2.12.41.12.84.26,1.06.42.09.07.2.13.3.19,6.49.76,13.69,1.3,21.86,1.52-.69-.16-1.47-.28-2.54-.26-.41,0-.82-.36-1.22-.56.1-.05.21-.1.31-.14,1.17.2,2.34.38,2.7-.13Z"/>
      <path class="cls-1" d="m278.98,63.86c.18,0,.36-.01.54-.02.11-.15.23-.29.42-.54.35.19.57.31.51.27,1.15-.15,2.22-.29,3.3-.43.18.07.36.13.55.2-.79.27-1.58.55-2.48.86.25.06.66.16,1.32.32-.86.17-1.6.31-2.42.46,0,.12-.04.24-.06.36,3.36.3,6.9.53,10.66.7.01-.07.02-.15.03-.22,1.57-.4,3.42-.34,4.02.2-1.36,0-2.63.02-3.89.02,3.34.15,6.86.24,10.57.27-.51-.2-1.03-.41-1.53-.61.2-.19.42-.39.68-.63.49.08,1.05.16,1.62.25-.17.04-.34.08-.51.11.42.24.85.47,1.26.71.1.06.2.12.3.18.86,0,1.74,0,2.62,0-.03-.02-.06-.05-.09-.07-.17-.14-.38-.27-.53-.4-.11-.1-.16-.21-.24-.32.43,0,1.17-.04,1.23,0,.33.25.58.52.83.78,2.09-.02,4.23-.06,6.44-.11,10.75-.28,19.88-.97,27.87-1.94-.77-.08-1.54-.24-2.28-.41,2.28.28,3.49,0,4.23-.6,0-.01-.01-.02-.02-.03,0,0,0,0,0,0-.35-.19-.7-.38-1.06-.57.17.02.33.03.5.05.8-.61,1.6-1.23,2.42-1.86-1.11.16-2.25.32-3.41.48-.29.16-.69.32-1.14.48-.07-.1-.13-.21-.2-.31-2.96.37-6.09.7-9.42.98.06.04.09.07.05.1-.39.33-.12.81-2.12.92.34-.31.66-.6,1.03-.94-3.86.31-7.99.55-12.43.72.07.15.14.29.21.45,1.87-.07,3.3.04,2.34.86-.33.28.04.63.09.94-.32.03-.64.06-.96.1-.52-.26-1.03-.52-1.83-.92-1.4.18-3.06.39-4.37.55.41-.54.67-1.08,1.27-1.58.14-.12.51-.21.99-.32-.71.02-1.42.05-2.15.07-.76.02-1.5.03-2.25.05-.24.48.21,1.04-1.77,1.34-.22-.03-.44-.05-.66-.08.6-.41,1.2-.83,1.81-1.24-11.54.22-21.15-.16-29.56-.92.07.15.05.33.3.49-1.17-.06-2.04-.1-3.25-.16.26.39.45.67.64.96Zm24.47.58c-.92-.08-1.67-.14-2.6-.22.03.2.05.33.11.66-1.38-.48-2.36-.83-3.37-1.18,1.68-.27,4.94.13,5.87.74Zm-6.5-.48c1.9.37-.85.73-.78,1.14-1.59-.14-3-.26-4.87-.42,2.13-.27,3.77-.48,5.65-.72Zm-7.01.64c-.34-.23-.69-.46-1.03-.69-1.01.08-2.02.15-3.02.23,4.08-.66,4.77-.58,4.06.46Z"/>
      <path class="cls-1" d="m343.96,63.25s-.02.01-.03.02c.05.09.13.18.1.28-.04.14.11.31.11.46,2.52-.33,4.92-.69,7.22-1.07-.26-.18-1.2-.14-3.36-.08-.66.02-1.34-.06-2.11-.09.15-.12.27-.22.39-.32-.18-.03-.36-.06-.55-.09-.6.29-1.21.58-1.81.87.01,0,.02.01.03.02,0,0,0,0,0,0Z"/>
      <path class="cls-1" d="m564.21,128.86s0,0,0,0c-.14.15-.27.3-.41.45.61-.08,1.26-.17,1.98-.27-.52-.06-1.04-.12-1.57-.18,0,0,0,0,0,0h0Z"/>
      <path class="cls-1" d="m409.78,147.68c.1-.15-.43-.32-.66-.49-.45-.33-.92-.66-1.35-1-3.97,1.16-7.73,2.36-11.46,3.55-3.45,1.1-6.87,2.19-10.39,3.23.1,0,.2.02.31.03.1.01.27-.01.38-.03,2.41-.38,4.82-.75,7.22-1.13l.31.18c-3.35.56-6.71,1.12-10.5,1.75.04-.06.08-.11.11-.17-3.16.91-6.44,1.77-9.93,2.58.01,0,.02,0,.03,0,.42.09.9.17,1.38.24,1.36.19,1.42.27.3.83-.23-.76-2.03-.54-3.5-.59-.1,0-.19-.01-.28-.02-.62.13-1.24.27-1.88.4.22.04.45.08.69.13-1.12.17-1.76.26-2.55.38.9.38.4.97,2.21,1.23.28.04.32.45,0,.55-.47.15-1.52.28-2.06.23-.75-.08-1.26-.34-2.31-.65-1.01.53-1.98,1.04-2.93,1.54,1.12.25,2.17.35,3.17.36,13.87-2.37,24.06-5.61,34.05-8.8.34-.11.69-.22,1.03-.33-.25.01-.5.02-.75.03-.99.04-1.97.13-3.27.22-1.72-.28-.05-.63.57-.9.24-.11,1.41-.03,2.13-.04-.02-.03-.12-.18-.32-.48.89.16,1.43.26,2.09.38,2-.56,4.04-1.13,6.07-1.7.35.07.65.12.92.16.74-.23,1.49-.45,2.24-.67-.87.04-1.67.08-2.37.11.5-.4,1.04-.75,1.29-1.1Z"/>
      <path class="cls-1" d="m357.08,61.91c10.15-1.99,18.32-4.45,26.15-6.93-.28-.06-.56-.13-.84-.19.56-.05,1.12-.07,1.65-.06.77-.25,1.55-.49,2.32-.74.23-.07.47-.15.7-.22-.12-.03-.25-.06-.37-.08-2.19-.5-4.67-.78-7.27-.97-7.61,2.41-15.26,4.71-24.6,6.58,1.46,0,2.92,0,4.37,0,.02.08.05.16.07.23-1.27.12-2.58.23-3.81.38-.47.06-1.19.3-1.1.37.68.48,1.53.93,2.32,1.39.14.08.27.16.4.24Z"/>
      <path class="cls-1" d="m382.48,52.12c1.51.48,3.01.95,4.52,1.43.16-.03.33-.07.49-.1-.19-.15-.39-.29-.78-.59.85.14,1.47.17,1.69.28.08.04.17.08.26.12,7.02-2.23,14.04-4.38,22.33-6.19-.76,0-1.52-.02-2.3-.03.35-.32.6-.54.96-.87.99.1,1.96.22,2.97.28.37.02.76.03,1.14.03,10.09-2.03,22.15-3.54,38.3-4.1,1.05-.49-2.12-.74-1.79-1.14,1.11.08,2.21.17,3.67.28-.16.74,1.25.94,3.62.5.3.06.4.13.39.21,13.61-.26,24.56.3,33.99,1.36.06-.08.12-.16.18-.25.59.14.88.27.99.38.94.11,1.85.23,2.76.35.9-.34,1.89-.72,3.01-1.15-.16.55-.08.97-.46,1.35-.04.04-.12.08-.21.12,10.63,1.53,19.45,3.68,28.51,5.89.94.23,1.89.46,2.83.69,2.54-.42,5.12-.84,7.94-1.31-2.54-.6-5.06-1.21-7.59-1.83-4.41-1.08-8.87-2.16-13.57-3.18-.34,0-.85-.06-.98-.13-.06-.04-.12-.08-.18-.12-4.49-.95-9.23-1.84-14.4-2.59-.41.27-.83.54-1.24.82-.18-.03-.36-.05-.55-.08.35-.28.69-.56,1.04-.85-12.01-1.71-26.34-2.72-45.27-2.22-6,.16-11.49.44-16.57.83.58.09,1.16.17,1.77.27-.96.03-1.78.05-2.78.07.1.2.19.37.28.55-.12.02-.25.03-.37.05-.39-.22-.8-.44-1.17-.66-.05-.03-.1-.06-.15-.09-6.06.52-11.51,1.19-16.49,1.97.34.18.69.37,1.03.56-.26.05-.53.11-.79.16-.32-.15-.63-.3-.95-.46-.08-.04-.16-.08-.24-.12-11.27,1.82-20.13,4.22-28.31,6.73.2.07.44.13.73.2-.35-.03-.69-.07-1.02-.11-2.46.76-4.86,1.52-7.24,2.28-.22.07-.44.14-.67.21.27.04.55.09.62.18Zm136.89-6.69c1.06.29,1.85.51,3.07.85-1.06.03-2.33.16-2.59.05-1.58-.63-3.24-.6-5.07-.03-.74-.33-1.32-.58-2.05-.9,2.64.01,4.95.02,6.64.03Z"/>
      <path class="cls-1" d="m584.83,55.87c-.76-.02-1.52-.04-2.27-.07.15.11.3.22.43.35.5-.08,1-.15,1.83-.28Z"/>
      <path class="cls-1" d="m576.13,55.6s.03-.06.05-.09c-.29-.02-.57-.03-.86-.05.06.05.13.09.19.14.21,0,.41,0,.62,0Z"/>
      <path class="cls-1" d="m602.85,104.94c-5.04.06-9.7,0-14.06-.16-.64.15-1.27.29-1.9.44,0,0-.04-.1-.1-.25-.63.07-1.23.14-2.1.25.09-.27,1.23-.37,1.89-.52-8.71-.39-16.16-1.17-22.9-2.2-.26.29-.95.48-1.98.57-.32.03-.82-.15-1.35-.26.96-.18,1.71-.32,2.44-.45-1.72-.27-3.4-.56-5.03-.86-.47.23-.95.46-1.19.7.25.23.48.43.72.64-.16.02-.32.04-.49.06-1.04-.29-2.07-.58-3.27-.92.71-.03,1.27-.06,1.7-.08.27-.24.53-.47.81-.72-2.48-.47-4.88-.98-7.24-1.5-.14.26-.77.53-1.2.83-1.12-.4-2.04-.72-3.05-1.08-.43.02-1.13.06-2.13.1.86-.26,2.3-.44,3.56-.49-3.08-.71-6.11-1.45-9.17-2.2-3.99-.97-8.02-1.95-12.23-2.89-.09.05-.19.1-.32.16-.23.1-.32.22-.5.35.36.04.73.08,1.09.12.03.05.06.1.1.15-1.12.1-2.25.19-3.77.32.68-.31,1.11-.51,1.53-.7-.14-.03-.28-.07-.42-.1l-2.43.8c-.13-.04-.27-.07-.4-.11l1.12-.63c-.12-.05-.25-.1-.37-.16-.71.13-1.53.23-2.1.4-.86.26-1.31.55-1.18.89.35.07.71.14,1.06.22.37-.1.7-.19.98-.27.17.19.34.39.51.58.56.12,1.12.24,1.67.36.07-.06.14-.11.21-.17l.7.15c-.02.07-.04.14-.06.21,3.25.72,6.42,1.49,9.6,2.26.15-.14.34-.32.61-.57,1.59.13,3.18.26,4.78.39.03.04.05.09.08.13-1.66.04-3.32.09-5.09.13.55.13,1.1.27,1.65.4,3.07.75,6.15,1.5,9.33,2.23.49-.04.99-.07,1.48-.1.25-.02.64.05.82.11.11.04-.03.21-.1.22-.34.02-.68.03-1.01.04,6.46,1.46,13.32,2.83,21.19,3.88.07-.11.15-.23.26-.36.61.26,1.05.44,1.37.57,3.98.5,8.22.92,12.8,1.24-.07-.09-.12-.2-.16-.31.53.14,1.02.27,1.5.4,6.5.41,13.71.6,21.74.52v-2.79Zm-73.06-6.99c-1.11-.13-2.16-.22-3.1-.38-.33-.05-.37-.26-.55-.39.46-.03,1.23-.12,1.33-.08,1.19.54,2.08.1,3.03-.17.15.04.31.08.46.12-.4.3-.79.6-1.18.89Zm42.63,8.09c.46-.42-1.82-.87.6-1.39-.17.56.87,1-.6,1.39Z"/>
      <path class="cls-1" d="m602.85,55.79c-.46.01-.89.03-1.35.05-.37,0-.72.02-1.09.02-.49.22-.38.42.9.64.11.02.07.11.06.1-.26.07-.51.14-.76.22.1.26-.58.44-1.87.53-.89.25-1.77.5-2.7.76-.44-.08-1-.19-1.76-.33,1.81-.45,2.16-1.02,2.62-1.58-.45-.01-.93-.03-1.41-.06-.14-.07-.32-.13-.53-.19-3.46.03-6.73,0-9.85-.08-.59.31-1.01.6-1.49.83.07.04.14.08.22.13-.17,0-.33,0-.49-.01-.19.08-.4.14-.64.2-1.24.28-2.95.36-4.47.52-.01,0-.02.02-.03.03,0,0,0,0,0,0-.02,0-.05,0-.07,0,.04.16.27.41.06.45-.58.11-1.19.22-1.8.33,4.13.23,8.52.37,13.23.41.23-.28.36-.5.65-.69.07-.05.94-.08,1.08-.03.47.17.78.38,1.41.7-.77.01-1.32.02-1.84.03,3.48.02,7.12-.02,10.97-.12.33,0,.64-.02.96-.03v-2.82Z"/>
      <path class="cls-1" d="m578.24,57.54c.14-.12.25-.24.33-.36-.83.06-1.67.08-2.55-.01,0-.03-.02-.07-.02-.1-.28.05-.64.12-1.21.23,1.41.11,2.38.19,3.34.26,0,0,0,0,0-.01.03,0,.07,0,.1-.01Z"/>
      <path class="cls-1" d="m323.06,137.6c1.03-.07,2.21-.15,3.36-.22-.17-.18-.32-.34-.46-.5-.63.02-1.26.04-1.9.06-2.34.06-4.6.1-6.79.11-.38.18-1.06.28-1.59.27-.51-.01-1-.12-1.46-.27-10.2-.02-18.8-.53-26.42-1.36.05.01.08.03.09.04.41.42,1.53.87-.27,1.32-.36.09-.48.45-.2.57.81.34,1.06.68,1.01,1.01,2.53.25,5.17.47,7.92.65.64-.09,1.28-.18,1.92-.27,0,0,0-.01-.02-.02,0,0,.01,0,.02,0-.31-.12-.63-.25-1.06-.42,1.1-.48,2.26-.98,3.74-1.63-.5.72-.88,1.28-1.31,1.9-.22.02-.79.08-1.37.15.01,0,.03.01.04.02h0s0,0,0,0c-.01,0-.03,0-.04,0,.11.12.1.26,0,.39,5.74.33,11.99.5,18.9.45.2-.11.4-.22.62-.34.41.11.8.22,1.18.32,1.78-.02,3.6-.05,5.47-.1.04,0,.07,0,.11,0,.22-.13.47-.26.79-.37.91-.31,1.77-.51.38-.86-.25-.06-.08-.28-.14-.63-.93.36-1.59.62-2.29.87-.41.14-.9.26-1.36.39-.08-.2-.36-.42-.19-.61.3-.33.88-.64,1.3-.93Zm-12.43.57c-1.12-.11-1.98-.2-2.97-.3.47-.52,2.26-.34,3.96-.6-.46.41-.76.69-1,.9Z"/>
      <path class="cls-1" d="m453.2,65.34c.43.28.86.56,1.55,1-.7.18-1.64.43-2.61.69,2.09-.09,4.24-.17,6.48-.23.17,0,.34,0,.51-.01,0-.03,0-.07,0-.11-1.12-.14-1.24-.34-.72-.73.71.14,1.28.25,1.87.37.4-.09.82-.18,1.46-.32.03.08.08.15.11.21.17-.08.39-.16.57-.25.37.11,1,.21,1.07.35.08.14.07.28,0,.4,31.83-.41,48.81,3.72,66.71,8.09,1.76.43,3.53.86,5.32,1.29.88-.09,1.58-.15,2.5-.24-.13.26-.25.51-.37.75,1.39.33,2.8.65,4.23.97-.04-.05-.06-.1-.03-.15.17-.32,1.27-.61,2.28-.86-.87.54-2.51,1.04.67,1.53-.11.01-.23.02-.35.04,2.15.46,4.36.91,6.64,1.33.8-.55,1.99-1.01,4.36-1.24-.09.11-.13.32-.27.33-2.1.12-2.74.58-3.38,1.04,1.04.19,2.09.37,3.17.55.33-.25.66-.5.88-.76,1.78.31,2.3-.12,2.65-.51.31-.34.51-.68.71-1.03-9.45-1.49-17.54-3.47-25.82-5.49-3.31-.81-6.63-1.62-10.07-2.4-.02.01-.04.02-.06.03-.4.19-1.11.32-1.81.52-.28-.11-.82-.3-.77-.31.69-.2.87-.42.84-.65-.75-.17-1.5-.33-2.26-.49-.53.03-1.09.04-1.67.04,0-.14.02-.27.02-.39-.27-.06-.53-.11-.8-.17-.64.34-1.27.68-1.86,1-.82-.63-.65-1.04.61-1.25-3.84-.76-7.87-1.47-12.21-2.09-.47.17-1.3.2-2.07.23-1.98.06-3.68-.36-3.77-.95-.51.06-1.01.11-1.52.17.44.18.84.34,1.25.51-.19.03-.38.05-.58.08-.87-.06-1.74-.12-2.77-.19.04-.06.08-.11.12-.18-.98.11-1.97.22-2.95.33-.1-.08-.19-.17-.29-.25,1.15-.13,2.31-.26,3.46-.4.09-.13.19-.27.3-.42-10.02-1.01-21.69-1.5-35.98-1.14.07,0,.14.02.21.03.01.06.03.13.04.19-1.65.07-3.3.15-4.95.22-.04-.08-.07-.16-.11-.24.1-.02.2-.04.3-.06-1.11.04-2.21.09-3.28.14.03.22.06.42.08.62.07.68.26.71,2.38.45Zm64.18,3.79c2.19-.07.91.41,1.15.63.08.07-.46.21-.72.32-.21-.1-.57-.2-.6-.3-.05-.2.09-.4.17-.65Zm-60.76-4.28c.18-.03.38-.06.59-.08-.36-.12-.74-.25-1.13-.38,3.53-.24,4.71.16,4.01,1.36-.63-.21-1.27-.43-1.93-.65-.91.12-1.27.33-1.17.7.04.13-.62.3-1.2.4-.63-.53-.86-1.02.82-1.34Z"/>
      <path class="cls-1" d="m494.75,65.15c.23.09.45.18.65.27.3-.03.6-.07.9-.1-.51-.06-1.03-.11-1.55-.16Z"/>
      <path class="cls-1" d="m393.96,73.72c-.66.2-1.31.4-1.96.6.78-.19,1.78-.34,1.96-.6Z"/>
      <path class="cls-1" d="m391.31,74.54c-.07.02-.13.04-.2.06.02,0,.04,0,.06.01.04-.03.09-.05.14-.07Z"/>
      <path class="cls-1" d="m510.36,94.01c-.23.05-.44.08-.65.1.37.06.74.13,1.11.19-.15-.1-.3-.2-.46-.29Z"/>
      <path class="cls-1" d="m535.74,50.29c-.1-.01-.27.01-.38.03-1.72.27-3.45.53-5.17.8,5.74,1.39,11.63,2.76,18.15,3.95.16-.08.32-.17.49-.27.34.19.66.36.96.53,1.29.23,2.61.45,3.96.66.98-.68-.92-1.39,0-2.06.19.19.39.38.68.67.61-.23,1.02-.37,1.41-.52.17,0,.33-.02.43,0,2.32.35,2.31.35.86,1.14-.27.15-.45.31-.68.46-.5,0-1.02,0-1.77-.01.23.21.42.4.61.57,1.66.25,3.36.48,5.12.7.63-.13,1.15-.35,1.49-.72,1.55.03,2.73.05,4.36.07.37.17,1.02.48,1.68.8,1.17-.13,2.38-.27,3.59-.4.1.04.19.07.29.11-.78.33-1.55.66-2.47,1.05-.37-.02-1.03-.16-1.4-.1,1.77.16,3.6.3,5.47.43.02-.03.03-.07.03-.1.03-.26-.41-.52-.69-.83.9-.08,2.26-.21,3.63-.34.02.02.05.04.07.06.74-.06,1.47-.12,2.21-.18-.09-.24-.47-.46-1.35-.65-.56.02-1.31.09-1.94.04-1.23-.09-2.56-.2-1.81-.77.02-.02.02-.03.03-.05-7.64-.54-14.29-1.39-20.4-2.44-.1.06-.2.13-.32.18-.14.07-.68.08-1.04.12-.08-.11-.34-.24-.21-.32.11-.07.24-.13.37-.19-4.87-.86-9.41-1.85-13.86-2.88-.33.42-.77.67-2.39.48Z"/>
      <path class="cls-1" d="m274.03,63.97c-.07.07-.16.13-.27.19.01.01.02.03.03.04-.05,0-.1,0-.14.01-.21.11-.49.21-.8.31,1.56.19,3.15.37,4.8.54-.13-.57-.61-1.11-.66-1.68-1.56-.03-2.41.02-2.96.57Z"/>
      <path class="cls-1" d="m535.13,143.8c-.66-.15-1.32-.3-1.98-.46-.27.24-.47.42-.73.64.61.13,1.36.28,2.16.45.93.04,1.86.17,2.76.18l-.04-.3c-.58-.14-1.16-.27-1.74-.41h-.22c-.07-.03-.14-.06-.2-.1Z"/>
      <polygon class="cls-1" points="560.39 78.02 560.4 78.02 560.4 78.02 560.39 78.02"/>
      <path class="cls-1" d="m195.01,50.35c.49.03.97.07,1.45.1-.02-.05-.03-.09-.05-.14-.45.01-.89.03-1.4.04Z"/>
      <path class="cls-1" d="m276.87,87.87c-.88.21-1.79.4-2.69.6,0,0,0,0,0-.01-.52.03-1.04.06-1.56.09,5.08.72,10.57,1.3,16.65,1.71-.66-.18-1.29-.36-1.88-.52.18-.29.35-.55.56-.87,1.07-.09,1.77-.04,1.9.44.09.34.43.68.78,1.03,5.85.36,12.24.54,19.3.5-.34-.22-.71-.45-1.11-.71,2,.01,1.97.39,2.17.7,2.13-.02,4.32-.06,6.57-.12.56-.01,1.1-.03,1.65-.05,0-.48.01-.85.02-1.21,1.71.4,2.08.78.06,1.2,11.68-.36,21.43-1.2,29.86-2.36.21-.27.73-.53,1.86-.76-.22.16-.19.33-.06.51,1.58-.23,3.12-.47,4.61-.73-.02-.01-.05-.02-.07-.03.15-.07.3-.13.44-.2.18.03.35.05.52.08,13.53-2.36,23.54-5.55,33.36-8.68,1.26-.4,2.52-.8,3.78-1.2.07-.07.14-.15.21-.22.09-.09.3-.25.19-.28-1.9-.46-2.85-1.08-3.89-1.73-.05-.03-.12-.06-.18-.09-1.33.42-2.64.84-3.95,1.26-8.86,2.83-17.47,5.57-28.43,7.7-.22.51-.42.97-.63,1.46-1.58.15-1.75-.11-1.8-.44-.04-.22-.03-.43.2-.61-4.8.87-10.07,1.63-15.99,2.23.51.2,1.02.4,1.58.62-1.08.15-2.11.17-2.65-.33-.06-.06-.22-.11-.4-.15-6.13.58-12.95,1-20.68,1.2-4.03.11-7.82.14-11.42.11-.4.22-.85.45-1.34.71-1.18-.31-2.4-.53-3.2-.77-7.38-.17-13.89-.6-19.81-1.24-.58.41-1.75.69-3.64.88-.35.04-.57.18-.9.25Zm112.48-11.67c.06.39.1.64.15.97-.97-.14-1.65-.24-2.59-.38.77-.19,1.4-.34,2.44-.59Zm-53.31,11.56c-.86.48-1.64.9-2.54,1.4-1.25-.48.03-1.18,2.54-1.4Z"/>
      <path class="cls-1" d="m592.32,82.91c-.44.08-.86.23-1.26.32.38,0,.75.01,1.13.02.01-.01.03-.02.04-.03.1-.07.05-.16.09-.3Z"/>
      <path class="cls-1" d="m563.31,56.6c-.08.19-.17.4-.26.64,1.13.13,2.27.25,3.45.36.02-.19.27-.37.45-.56-1.09-.13-2.13-.26-3.63-.44Z"/>
      <path class="cls-1" d="m397.36,74.06c-.17.11-.4.21-.71.3-.32.17-.63.34-.86.52-.21.16-.28.41.01.52.28.1,1.11.08,1.98.12-.22.22-.45.45-.68.67,4.59-1.41,9.3-2.76,14.49-3.98-.52-.71-1.21-1.4-1.7-2.11-.06-.09,1.1-.39,1.25-.36.94.16,2.2.32,2.5.58.45.39.59.82.76,1.25,9.79-2.13,21.37-3.78,36.88-4.51-.06-.02-.13-.04-.19-.06.31-.18.62-.35,1.09-.62-.65-.05-1.24-.16-1.71-.12-1.42.13-2.54.16-3.69-.2-.39-.12-1.29-.55-2.49-.18-.28-.18-.88-.37-.77-.53.11-.17.07-.41-.07-.67-3.27.23-6.37.5-9.32.81.64.23,1.67.39,2.92.52.59.06.73.47,1.07.72-.97.12-1.94.23-2.91.35-.07-.05-.14-.1-.21-.15-.79.18-1.3.74-2.61.17-.26-.11-1.32-.03-1.95-.09-.53-.05-.96-.18-1.58-.31-.38.1-.95.25-1.43.37-.93-.14-1.8-.28-2.66-.41-8.63,1.27-15.86,2.87-22.4,4.62-.19.16-.38.32-.57.47,3.16.14,6.46.97,5.85,1.31-2.79-.31-5.54-.61-8.4-.92-.81.23-1.61.46-2.4.69.25.02.51.05.76.07.08.16.13.32.14.46.19-.02.37-.04.59-.06.11.31.21.6.32.89-.23.06-.47.12-.7.18-.23-.14-.46-.27-.58-.34Zm20.54-5.07c-.18-.18-.37-.36-.55-.54.35-.06.7-.12,1.05-.19.59.16,1.17.32,1.76.48-.51.09-1.01.18-1.52.26.75.02,1.49.04,2.24.05-.09.1-.17.2-.26.29-2.65-.11-5.3-.21-7.96-.32,1.81-.11,3.53-.09,5.24-.04Z"/>
      <path class="cls-1" d="m231.33,55.8c-.92-.25-1.53-.34-2.1-.26.39.09.78.18,1.17.27.28-.01.58-.02.93-.01Z"/>
      <path class="cls-1" d="m264.86,63.08l-.52-.1c.15-.2.3-.41.46-.61-.12-.02-.24-.04-.36-.07-.49.19-.91.4-1.5.55-.19.05-.44.08-.71.1,2.61.46,5.32.88,8.16,1.26.2-.04.41-.08.63-.11-.1-.05-.19-.09-.29-.14-.53-.01-1.05-.02-1.39-.03.4-.56.8-1.11,1.35-1.88,1.61-.36,1.03.59,2.5.8,1.01-.27,2-.54,3.02-.81-3.24-.37-6.3-.81-9.23-1.29-.29,0-.58,0-.87.02-.13,0-.17.24-.22.32,1.08-.03,1.8-.05,2.1-.06-.67.56-1.21,1.06-1.88,1.54-.26.19-.83.34-1.25.51Z"/>
      <path class="cls-1" d="m351.1,62.38s.76.03,1.14.06c.43.04.84.09,1.26.14.67-.12,1.33-.24,1.98-.36-.03-.03-.07-.05-.13-.08-1.39-.56-2.92-1.1-4.45-1.63-.2-.07-.74-.06-.96-.07-.83.52-1.58.99-2.48,1.55,1.71-.04,3.32-.25,3.65.39Z"/>
      <path class="cls-1" d="m563.13,150.23c-.58-.11-1.15-.22-1.72-.33.05.02.11.03.16.05.45.15.99.24,1.56.29Z"/>
      <path class="cls-1" d="m183.35,122.61c1.7.03,1.96.28,1.77.66,30.22-.17,46.76,3.86,64.19,8.11.62.15,1.23.3,1.85.45.59-.24,1.64-.45,2.71-.51.75-.04,1.46-.15,2.19-.22.02-.05.05-.1.08-.15.94.05,1.88.09,2.82.14.2.51-1.74,1.23-4.21,1.61,1.64.39,3.3.78,4.99,1.16l.25-.03c-.28-.19-.56-.38-1.02-.68,1.3.16,2.38.29,3.76.46-.77.22-1.28.37-1.8.52.16.04.33.07.49.11,1.51.09,1.91-.46,2.93-.64,1.09.24,1.22.66.29,1.33,1.28.27,2.59.53,3.92.79,0,0,0,0,0,0,.13.01.26.03.4.04.02.02.03.03.05.05,4.11.79,8.46,1.5,13.18,2.11.05-.01.09-.02.14-.04.15-.03.11-.16.08-.24-.08-.24-.57-.55-.22-.7,1.21-.51,2.68-.97,4.16-1.41,0,0,.03,0,.04,0-.64-.07-1.27-.15-1.9-.23,0,.08-.02.16-.03.24-.57.04-1.29.09-2.1.14-.19.42-.21.96-2.43.57,0,0,0,0,0,0-.01,0-.03,0-.04,0,.2.18.39.36.59.54-.95.03-1.91.05-2.86.08-.08-.09-.16-.19-.24-.28.84-.11,1.67-.22,2.51-.34,0,0-.02-.01-.02-.02.02,0,.04,0,.06.01-.16-.41-.32-.81-.48-1.22.33-.15.69-.24,1.07-.29-10.41-1.53-19.1-3.65-28.02-5.82-2.25-.55-4.52-1.1-6.82-1.65-.1.03-.2.06-.29.09-.32-.08-.65-.16-.97-.24.07-.03.15-.07.22-.1-.97-.23-1.95-.45-2.95-.68-.36.19-.73.39-1.14.6-1.24-.78-1.52-.97-1.33-1.15-.63-.14-1.26-.27-1.9-.41-.28.06-.56.17-.91.34-.47-.2-.94-.41-1.5-.65.26,0,.52-.02.78-.04-2.87-.58-5.84-1.14-8.97-1.64-.32.07-.65.13-.98.2-.38-.03-1.2-.16-1.81-.1-.41.04-.51.37-.74.57-.15.13-.28.26-.94.39-.21-.18-.42-.35-.67-.55-1.19.09-2.32.17-3.95.3.76-.53.72-.96,2.99-1.04,1.11-.04,2.22-.11,3.32-.21-12.27-1.83-26.96-2.93-46.59-2.41l.39,2.8c2.02-.05,3.97-.09,5.88-.11-.55-.16-.71-.36-.27-.67Zm91.35,12.18c.67,0,1.36,0,2.05-.01.28.23.54.44.8.65-3.55.37-3.58.37-2.85-.63Zm-41.72-9.48c.07-.04.81-.06.94-.01.32.11.67.27.62.4-.14.34.08.76-1.31.96-.31-.34-.64-.58-.72-.83-.05-.17.21-.36.46-.52Zm-30.3-3.87c.25.34.5.68.75,1.02-.25,0-.5,0-.75.01-.6-.22-1.21-.44-2.11-.77.72-.09,1.42-.18,2.12-.27Z"/>
      <path class="cls-1" d="m177.89,97.44c-.54.38-.96.69-1.43,1.02.08.11.17.24.27.37,2.7-.05,5.29-.08,7.79-.07-.33-.21-1.34-.32-1.95-.5,1.44-.29,1.97.02,2.38.26.14.08.28.17.35.25.74,0,1.47.01,2.19.02-.22-.12-.46-.23-.61-.35-.6-.46-1.14-.92-1.47-1.41,2.52.38,3.31,1.07,4.12,1.79,8.78.17,16.33.73,23.12,1.55-.23-.11-.56-.21-.67-.33-.18-.2-.2-.41-.29-.61.27-.03.53-.06.8-.08.51.18,1.02.36,1.78.63,2.85.07,6.29.16,10.15.25-.36-.33-.68-.63-.98-.91.19-.08.4-.16.61-.25-.57-.1-1.15-.19-1.73-.28-.8.12-1.64.25-2.57.38-.09-.26-.18-.53-.27-.81-8.49-1.22-18.14-2.1-29.77-2.33-.08.4-.83.69-1.66.96-.25.08-1.32-.07-2.02-.11,0-.06,0-.12,0-.17,1.3.09,2.41.16,2.2-.42-.03-.08.09-.17.28-.27-4.56-.07-9.41-.05-14.61.08l.22,1.54c.3-.17,1.37-.18,3.77-.18Zm37.59,1.02c.42,0,.84,0,1.25.01-.12.24-.21.49-.39.72-.02.02-.59.01-.91.02.01-.25.02-.5.04-.75Zm-6.62-.16c1.26.25,3.4.2,2.44.91-2.04,0-2.9-.3-2.44-.91Zm-12.19-.44c.72,0,1.44.02,2.15.05.26.01.53.09.74.07,2.06-.18,3.28.14,4.18.67-.42-.06-.82-.15-1.26-.17-1.27-.04-2.58-.04-3.85-.09-.74-.03-1.46-.12-2.13-.22-.11-.02.12-.32.16-.32Z"/>
      <path class="cls-1" d="m286.56,136.08c-.33,0-.66,0-.99,0-.18.22-.36.44-.54.66.73-.02,1.46-.03,2.19-.05-.22-.2-.44-.41-.65-.61Z"/>
      <path class="cls-1" d="m566.2,152.3c-.15.26-.24.41-.33.57-.17.01-.35.02-.52.03-.13-.18-.35-.35-.38-.53-.05-.4.06-.81-.05-1.21-.03-.09-.74-.14-1.06-.24-1.67-.49-3.31-.97-5.81-1.13-1.72-.11-4.2-.01-5.02.47-.47.28-1.08.46-1.8.59,6.28,1.42,12.94,2.74,20.54,3.78-1.45-.83-3.87-1.48-5.57-2.33Z"/>
      <path class="cls-1" d="m416.86,146.99c.31-.08.63-.16.95-.25-.16-.03-.32-.06-.48-.09-.15.12-.31.23-.47.34Z"/>
      <path class="cls-1" d="m602.85,80.37c-1.55.03-3.11.07-4.6.08,1.05.25,1.67.83,1.24,1.33-.78-.13-1.51-.25-2.37-.39.47-.19.86-.35,1.23-.5-.29-.15-.55-.29-.81-.43-1.42,0-2.82,0-4.18,0-.04.13-.02.27.14.4-1.35-.2-2.28-.34-2.83-.42.01,0,.03-.01.04-.02-5.55-.09-10.62-.33-15.31-.7-.11.05-.22.1-.32.15-.03,0-.64-.06-1.6-.14.08-.05.16-.09.25-.14-2.82-.24-5.5-.52-8.07-.84-.35.2-.69.39-1.04.59-.39-.03-.78-.05-1.16-.08.08-.24-.12-.57.32-.7.05-.01.11-.03.17-.04-.57-.08-1.13-.15-1.69-.23-1.1.32-1.88.72-2.17,1.25-.18.33-.91.63-1.39.95l.42.07c.22-.1.43-.2.66-.3.44.29.6.37,0,.61,2.98.43,6.11.82,9.41,1.15.02,0,.04,0,.06,0,0,0,0,0,0,.01,6.21.62,13.04,1.04,20.74,1.18-.16-.05-.31-.13-.47-.25-.13-.1-2.18.04-3.55.08,2.24-.77,2.12-1.13-.1-1.38.43-.2.89-.4,1.44-.65.33.17.83.41,1.58.79.73-.3,1.26-.53,1.79-.75-.5.53.96.74,1.53,1.09.87.53,2.07.5,3.5.54,1.54.05,1.79.3,1.84.59,1.71,0,3.51-.05,5.3-.08v-2.8Zm-31.66.96c-.8.15-1.73.22-2.61.33-.08-.04-.16-.09-.25-.13.68-.22,1.29-.46,2.06-.64.26-.06.9.01,1.36.03-.18.14-.22.35-.56.42Z"/>
      <path class="cls-1" d="m252.66,132.2s-.07-.06-.12-.1c-.03.02-.05.03-.08.05.07.02.13.03.2.05Z"/>
      <path class="cls-1" d="m355.56,136.95c.74-.09,1.49-.17,2.25-.24-.03-.2.19-.4.96-.62.26-.07-.5-.54-1.02-.77-.29-.13-1.05-.17-1.62-.24-1.39-.16-1.14-.37-.28-.59-.18,0-.37,0-.59,0-2.55.37-5.22.7-8.04,1,.09.03.18.07.28.11-.56,0-1.08,0-1.49.01-3.79.38-7.85.7-12.23.94-.51.04-.93.08-1.31.07-.02,0-.04,0-.06,0-.57.03-1.13.06-1.71.08-.99.15-1.6.47-1.81.88-.24.47-1.55,1.7-2.09,1.93.09.05.18.1.27.15,5.53-.18,10.63-.48,15.36-.86-.81-.28-.86-.66-.37-1.04.67-.52,2.08-.49,4.27-.32-.93.36-1.61.63-2.42.94,0,0,.21.07.36.16.05.03.09.06.14.08.04,0,.07,0,.11,0-.03-.01-.07-.03-.1-.04.17-.04.34-.09.51-.13.19.03.39.06.59.09,3.49-.32,6.77-.7,9.88-1.12-.06-.11-.02-.43.17-.45Zm-11.42-.3c-.46.33-.85.72-3.4.6,1.13-.35,1.91-.6,2.69-.84.25.08.77.19.7.24Z"/>
    </g>
  </g>
</svg>