<?xml version="1.0" encoding="UTF-8"?>
<svg id="Layer_2" data-name="Layer 2" xmlns="http://www.w3.org/2000/svg" viewBox="0 0 232.82 100.8">
  <defs>
    <style>
      .cls-1 {
        fill: #2b638a;
        stroke-width: 0px;
      }
    </style>
  </defs>
  <g id="Layer_1-2" data-name="Layer 1">
    <g>
      <g>
        <path class="cls-1" d="m42.74,100.8c-7.01,0-13.95-1.74-20.28-5.17-10.05-5.43-17.39-14.46-20.65-25.41-3.27-10.95-2.07-22.52,3.36-32.57,5.43-10.05,14.46-17.39,25.41-20.65,10.95-3.27,22.52-2.07,32.57,3.36,10.05,5.43,17.39,14.46,20.65,25.41,6.74,22.6-6.16,46.48-28.77,53.22-4.05,1.21-8.18,1.8-12.29,1.8Zm.11-82.93c-3.85,0-7.72.56-11.52,1.69-10.27,3.06-18.73,9.94-23.82,19.37-5.09,9.43-6.21,20.27-3.15,30.54,3.06,10.27,9.94,18.73,19.36,23.82,9.43,5.1,20.27,6.21,30.54,3.15,21.19-6.32,33.29-28.71,26.97-49.9-3.06-10.27-9.94-18.73-19.37-23.82-5.94-3.21-12.45-4.84-19.02-4.84Z"/>
        <g>
          <path class="cls-1" d="m13.28,59.68h4.2c.33,0,.6.31.6.69v.55c0,.39-.27.71-.6.71H7.45c-.33,0-.6-.31-.6-.71v-2.13c0-2.41,1.07-3.47,3.22-3.47,2.15,0,3.22,1.06,3.22,3.47v.89Zm-4.78,0h3.13s0-.89,0-.89c0-1.07-.48-1.5-1.57-1.5-1.12,0-1.57.44-1.57,1.5v.89Z"/>
          <path class="cls-1" d="m10.37,52.12c-2-.62-2.78-2-2.15-4.05.64-2.07,2.04-2.75,4.06-2.13l4.5,1.4c1.26.39,1.87,1.01,2.18,1.75.32.78.2,1.61-.02,2.31-.21.68-.58,1.43-1.28,1.89-.67.43-1.53.62-2.79.23l-4.5-1.4Zm5.09-.49c1.05.32,1.67.08,1.92-.73.24-.79-.09-1.35-1.17-1.68l-4.5-1.4c-1.07-.33-1.65-.08-1.9.73-.26.83.12,1.36,1.15,1.68l4.5,1.4Z"/>
          <path class="cls-1" d="m22.74,42.41c.28.18.33.59.12.92l-2.29,3.52c-.21.33-.61.45-.89.27l-8.41-5.47c-.28-.18-.33-.59-.12-.92l.31-.48c.2-.31.6-.43.88-.25l7.53,4.9,1.6-2.46c.22-.33.61-.45.89-.27l.38.25Z"/>
          <path class="cls-1" d="m18.21,36.08c-1.38-1.58-1.32-3.16.3-4.58,1.63-1.43,3.18-1.27,4.57.32l3.1,3.55c.87.99,1.06,1.84.94,2.63-.14.83-.67,1.47-1.22,1.95-.54.47-1.25.91-2.09.94-.8.01-1.63-.28-2.5-1.27l-3.1-3.55Zm4.59,2.25c.72.83,1.38.95,2.01.39.62-.54.63-1.19-.11-2.05l-3.1-3.55c-.73-.84-1.37-.93-2-.38-.65.57-.61,1.22.1,2.04l3.1,3.55Z"/>
          <path class="cls-1" d="m37.71,33.9c-.23.06-.6-.03-.72-.19l-4.1-4.85,1.39,5.32c.08.32-.17.66-.54.76l-.55.14c-.36.1-.75-.08-.84-.4l-2.54-9.7c-.08-.32.17-.67.53-.76l.46-.12c.25-.06.6.03.72.19l4.1,4.85-1.39-5.32c-.08-.32.16-.66.54-.76l.53-.14c.38-.1.75.08.84.4l2.54,9.7c.08.32-.15.66-.54.76l-.44.11Z"/>
          <path class="cls-1" d="m40.15,25.3c.1-2.1,1.24-3.2,3.38-3.1,2.17.1,3.18,1.28,3.08,3.4l-.22,4.71c-.06,1.32-.51,2.06-1.15,2.55-.68.5-1.51.6-2.24.56-.71-.03-1.53-.21-2.15-.77-.59-.54-.98-1.33-.92-2.65l.22-4.71Zm1.75,4.81c-.05,1.1.34,1.63,1.18,1.67.83.04,1.28-.42,1.34-1.55l.22-4.71c.05-1.12-.34-1.62-1.18-1.66-.87-.04-1.29.46-1.34,1.54l-.22,4.71Z"/>
          <path class="cls-1" d="m53.41,35.15c-.11.31-.5.46-.87.32l-.52-.19c-.37-.13-.58-.49-.46-.81l.95-2.62c.28-.78-.08-1.41-.98-1.74l-.83-.3-1.39,3.84c-.11.31-.5.46-.85.33l-.52-.19c-.37-.13-.58-.49-.46-.81l3.41-9.43c.11-.31.5-.46.87-.32l2.33.84c2.28.83,2.72,2.09,1.96,4.18-.35.97-.84,1.68-1.59,1.96-.07.03-.12.05-.19.07.36.68.39,1.42.09,2.23l-.95,2.62Zm-2.15-6.91l.83.3c1.04.38,1.73.13,2.12-.93s.27-1.6-.7-1.95l-1.17-.42-1.09,3.01Z"/>
          <path class="cls-1" d="m60.47,27.42c.2-.27.61-.29.93-.05l4.13,3.1c.32.24.41.64.21.91l-.28.37c-.2.27-.61.29-.93.05l-1.29-.97-5.38,7.17c-.2.27-.61.29-.93.05l-.43-.32c-.32-.24-.41-.64-.21-.91l5.38-7.17-1.28-.96c-.32-.24-.41-.64-.21-.91l.28-.37Z"/>
          <path class="cls-1" d="m72.03,37.67c.24.32.21.73-.06.93l-.36.27c-.27.2-.67.11-.91-.21l-1.81-2.42-2.51,1.88,1.49,1.99c.23.32.21.73-.06.93l-.36.27c-.27.2-.67.11-.91-.21l-1.49-1.99-2.52,1.89,1.81,2.42c.24.32.21.73-.06.93l-.36.27c-.27.2-.67.11-.91-.21l-2.55-3.41c-.24-.32-.21-.73.06-.93l8.04-6.02c.27-.2.67-.11.9.21l2.55,3.41Z"/>
        </g>
        <g>
          <path class="cls-1" d="m33.52,80.91c.35.13.54.49.42.8l-.16.42c-.12.31-.5.45-.85.32l-2.7-1.02-1.11,2.93,2.22.84c.35.13.54.49.42.8l-.16.42c-.12.31-.5.45-.85.32l-2.22-.84-1.12,2.95,2.7,1.02c.35.13.54.49.42.8l-.16.42c-.12.31-.49.45-.85.32l-3.81-1.45c-.35-.13-.54-.49-.42-.8l3.57-9.38c.12-.31.5-.45.85-.32l3.81,1.44Z"/>
          <path class="cls-1" d="m35.89,92.73c-.09.16-.41.31-.63.29l-.58-.06c-.52-.05-.78-.51-.53-.91l3.03-4.48-2.07-5c-.16-.44.16-.84.7-.78l.58.06c.23.02.51.24.57.41l1.45,3.46c.69-1.04,1.4-2.07,2.09-3.1.09-.17.41-.31.63-.29l.58.06c.52.05.78.52.51.91l-2.99,4.49,2.07,5c.18.44-.14.84-.69.78l-.58-.06c-.23-.02-.51-.22-.58-.41l-1.43-3.48-2.13,3.12Z"/>
          <path class="cls-1" d="m46.67,88.49l.77,4.13c.06.33-.18.64-.54.71l-.52.1c-.37.07-.71-.14-.78-.47l-1.83-9.86c-.06-.33.19-.64.56-.71l2-.37c2.26-.42,3.45.44,3.85,2.56.39,2.11-.41,3.35-2.67,3.77l-.83.16Zm-.87-4.7l.57,3.08.84-.16c1-.19,1.32-.74,1.12-1.8-.2-1.1-.69-1.46-1.69-1.28l-.83.16Z"/>
          <path class="cls-1" d="m61.07,87.98c.15.3,0,.67-.34.84l-.47.23c-.34.17-.73.06-.87-.24l-1.23-2.49c-.37-.75-1.05-.93-1.88-.52l-.76.38,1.81,3.66c.15.3,0,.67-.32.83l-.47.23c-.34.17-.73.06-.88-.24l-4.44-8.99c-.15-.3,0-.67.34-.84l2.13-1.05c2.08-1.03,3.26-.46,4.25,1.54.46.93.64,1.76.34,2.49-.03.07-.05.12-.07.19.72.22,1.26.72,1.64,1.49l1.23,2.49Zm-6.31-3.32l.76-.38c.95-.47,1.23-1.13.73-2.14-.5-1.02-.96-1.31-1.84-.88l-1.07.53,1.42,2.87Z"/>
          <path class="cls-1" d="m61.15,74.61c.28-.25.68-.25.91,0l.3.34c.22.25.17.65-.11.9l-2.15,1.92,2.09,2.34,1.77-1.58c.28-.25.69-.25.91,0l.3.33c.22.25.17.65-.11.9l-1.77,1.58,2.1,2.35,2.15-1.92c.28-.25.68-.25.91,0l.3.34c.22.25.18.65-.11.9l-3.04,2.71c-.28.25-.68.25-.91,0l-6.69-7.49c-.22-.25-.17-.65.11-.9l3.04-2.71Z"/>
          <path class="cls-1" d="m68.71,78.08c-.28-.18-.33-.58-.12-.9l.29-.44c.2-.3.6-.42.88-.23l.18.12c.67.44,1.08.51,1.39.41.27-.07.47-.32.62-.54.44-.66.43-1.19-.31-1.68-.65-.43-1.65-.05-2.68.37h.01c-1.41.57-2.88,1.15-4.25.24-1.57-1.04-1.86-2.57-.75-4.24,1.13-1.7,2.68-1.95,4.44-.78l.2.13c.28.18.33.58.12.9l-.29.44c-.21.32-.6.42-.88.23l-.19-.13c-.91-.61-1.55-.56-2.01.13-.44.66-.36,1.23.36,1.71.71.47,1.76.06,2.8-.36h-.01c1.4-.55,2.8-1.13,4.15-.24,1.55,1.03,1.77,2.51.66,4.18-1.15,1.73-2.61,2-4.43.79l-.18-.12Z"/>
          <path class="cls-1" d="m73.83,69.76c-.32-.1-.49-.46-.38-.82l.15-.51c.1-.34.45-.57.77-.48l.21.06c.77.23,1.18.18,1.45-.02.24-.15.36-.44.44-.7.23-.76.06-1.26-.78-1.51-.75-.23-1.59.43-2.46,1.13h.02c-1.19.95-2.42,1.93-4,1.46-1.8-.54-2.52-1.92-1.95-3.83.58-1.95,2-2.65,4.02-2.04l.22.07c.32.1.49.46.38.82l-.15.51c-.11.36-.45.57-.77.48l-.22-.07c-1.05-.32-1.65-.08-1.89.71-.23.76.01,1.28.84,1.53.82.24,1.7-.45,2.58-1.16v.02c1.17-.95,2.34-1.91,3.89-1.45,1.79.54,2.42,1.89,1.85,3.8-.6,1.99-1.92,2.67-4.01,2.04l-.21-.06Z"/>
        </g>
        <path class="cls-1" d="m29.51,62.94c-.87.26-1.67.5-2.48.74-.1.03-.14.09-.19.17-.18.33-.35.66-.53.99-.24.43-.63.55-1.06.32-.45-.24-.9-.48-1.34-.72-.43-.24-.54-.63-.31-1.06.24-.45.48-.9.72-1.34.23-.42.62-.53,1.04-.31.33.17.66.35.99.53.07.04.14.09.23.06.82-.25,1.64-.49,2.51-.75-.09-.06-.15-.1-.21-.13-.54-.3-1.09-.59-1.64-.89-.41-.23-.56-.64-.36-1.02.2-.38.64-.49,1.06-.26.99.53,1.97,1.06,2.96,1.6.13.07.24.08.38.04.88-.27,1.76-.53,2.64-.79.07-.02.14-.04.27-.08-.11-.06-.18-.1-.25-.14-1.44-.78-2.88-1.56-4.32-2.33-.36-.2-.53-.45-.48-.78.05-.38.3-.56.64-.66,1.55-.46,3.11-.92,4.66-1.39.08-.02.16-.05.23-.07,0-.08-.06-.09-.1-.11-.85-.46-1.7-.92-2.54-1.38-.11-.06-.2-.06-.32-.02-1.1.33-2.2.66-3.31.99-.32.09-.62,0-.8-.25-.18-.24-.2-.56-.04-.82.1-.17.25-.27.44-.32.6-.18,1.2-.36,1.8-.54.07-.02.14-.04.21-.06,0-.09-.06-.09-.1-.11-.69-.37-1.38-.74-2.07-1.12-.12-.06-.22-.07-.34-.03-.34.11-.69.21-1.03.31-.48.14-.84-.06-.99-.54-.15-.48-.29-.96-.43-1.44-.14-.48.05-.83.54-.98.49-.15.97-.29,1.46-.43.44-.13.81.06.95.51.12.36.22.73.33,1.09.03.09.06.16.15.21.72.39,1.45.78,2.17,1.17.02.01.05.03.1,0-.12-.4-.24-.8-.36-1.21-.08-.27-.17-.54-.24-.82-.11-.41.08-.79.47-.91.39-.12.79.09.92.5.33,1.08.65,2.16.96,3.24.05.18.15.29.31.37.86.46,1.71.92,2.61,1.41-.03-.12-.05-.2-.07-.27-.47-1.58-.94-3.16-1.41-4.75-.16-.53.15-.99.66-1.01.16,0,.3.06.44.13,1.45.78,2.89,1.56,4.34,2.34.07.04.13.1.24.08-.02-.08-.05-.16-.07-.24-.25-.84-.51-1.69-.75-2.54-.06-.21-.17-.34-.36-.44-.98-.52-1.95-1.05-2.92-1.57-.27-.15-.4-.38-.4-.67,0-.29.16-.51.42-.64.23-.11.46-.08.69.04.54.3,1.09.59,1.64.89.07.04.12.08.18.12.08-.08.03-.13.01-.18-.22-.75-.44-1.49-.66-2.23-.03-.12-.09-.19-.2-.25-.33-.17-.64-.35-.97-.52-.43-.23-.56-.63-.33-1.06.24-.46.49-.91.74-1.36.22-.41.62-.53,1.03-.31.46.24.92.49,1.38.75.4.22.52.62.31,1.03-.18.34-.36.67-.54,1.01-.04.07-.08.14-.05.23.25.81.49,1.63.73,2.45.1-.02.11-.1.14-.16.31-.56.61-1.13.92-1.69.17-.31.48-.45.81-.37.31.07.54.34.56.68,0,.16-.05.31-.12.45-.53.98-1.07,1.97-1.6,2.95-.07.13-.09.24-.04.38.29.95.57,1.9.86,2.87.1-.05.12-.13.15-.2.78-1.44,1.56-2.88,2.33-4.32.17-.32.4-.52.78-.48.38.04.56.29.66.64.46,1.56.93,3.12,1.4,4.68.02.07.02.16.09.22.07-.04.09-.12.12-.18.43-.79.86-1.59,1.29-2.38.09-.17.1-.31.04-.48-.33-1.06-.64-2.13-.96-3.2-.15-.5.16-.95.65-.98.33-.02.62.18.72.52.18.6.36,1.2.54,1.8.02.08.05.16.07.23.09,0,.1-.07.12-.12.37-.68.74-1.37,1.11-2.05.06-.12.07-.22.03-.34-.11-.35-.22-.7-.31-1.05-.13-.46.07-.82.52-.96.49-.15.99-.3,1.48-.44.46-.13.81.06.95.52.15.49.3.99.44,1.48.13.44-.06.81-.5.95-.36.12-.73.22-1.09.33-.09.03-.16.06-.21.15-.39.73-.79,1.46-1.18,2.19,0,.02,0,.04-.02.09.11-.03.2-.06.29-.09.57-.17,1.14-.34,1.72-.51.45-.13.85.06.97.47.12.41-.11.79-.56.92-1.08.32-2.16.65-3.24.96-.13.04-.21.1-.28.23-.47.88-.94,1.75-1.42,2.64.1.03.17-.01.24-.03,1.57-.47,3.14-.93,4.7-1.4.35-.1.66-.08.89.21.24.29.19.6.02.92-.78,1.43-1.55,2.86-2.33,4.3-.04.07-.1.13-.15.2.13.06.19.01.25,0,.9-.27,1.8-.54,2.71-.8.13-.04.2-.11.26-.22.53-.99,1.06-1.97,1.59-2.96.12-.22.27-.4.53-.45.3-.06.55.02.74.26.19.25.21.52.06.8-.3.55-.6,1.1-.89,1.66-.04.07-.07.14-.11.22.08.04.14,0,.2-.02.73-.22,1.46-.44,2.19-.65.14-.04.21-.11.28-.23.17-.33.34-.65.52-.97.22-.4.62-.53,1.03-.31.46.24.92.49,1.38.75.41.23.52.62.31,1.03-.24.46-.49.92-.75,1.38-.22.39-.61.51-1.01.31-.34-.18-.67-.36-1.01-.54-.07-.04-.14-.09-.23-.06-.82.25-1.64.49-2.48.74.04.09.12.11.18.14.54.3,1.09.59,1.64.89.42.23.56.64.36,1.01-.2.38-.63.49-1.06.26-.99-.53-1.97-1.06-2.96-1.6-.13-.07-.24-.09-.38-.04-.88.27-1.76.53-2.64.79-.07.02-.14.04-.23.07.05.09.14.11.2.15,1.44.78,2.88,1.56,4.32,2.33.36.2.53.45.49.78-.05.38-.29.56-.64.66-1.55.46-3.11.92-4.66,1.39-.08.02-.16.05-.23.07,0,.09.07.09.12.12.84.46,1.68.91,2.52,1.37.11.06.2.06.32.03,1.09-.33,2.19-.66,3.29-.98.5-.15.95.16.97.66.02.33-.18.62-.52.72-.6.18-1.2.36-1.8.54-.08.02-.15.05-.23.07,0,.09.08.1.12.12.68.37,1.37.74,2.05,1.11.12.06.22.07.34.03.35-.11.7-.22,1.05-.32.46-.13.82.07.96.52.15.49.3.99.44,1.48.13.46-.06.81-.52.95-.49.15-.99.3-1.48.44-.44.13-.81-.07-.95-.51-.12-.36-.22-.73-.33-1.09-.03-.09-.06-.16-.15-.21-.73-.39-1.46-.79-2.19-1.18-.02,0-.04,0-.09-.01.09.29.17.56.25.82.12.39.24.79.35,1.18.13.45-.06.85-.47.97-.41.12-.78-.11-.92-.56-.32-1.08-.65-2.16-.97-3.24-.03-.09-.04-.18-.15-.24-.9-.48-1.8-.97-2.71-1.47-.03.1.01.18.04.25.47,1.58.94,3.16,1.41,4.75.16.53-.14.99-.66,1.01-.17,0-.32-.06-.46-.14-1.44-.78-2.88-1.56-4.32-2.33-.07-.04-.13-.1-.22-.09-.03.07.01.13.03.19.27.9.54,1.79.8,2.69.04.13.11.21.23.28,1.01.54,2.01,1.08,3.02,1.63.27.14.41.37.4.67,0,.29-.16.51-.42.64-.24.12-.48.08-.71-.05-.54-.3-1.09-.59-1.64-.88-.06-.03-.12-.09-.23-.08l.21.71c.16.54.33,1.09.48,1.63.04.15.11.24.25.31.32.16.63.34.95.51.42.23.54.63.32,1.04-.24.46-.49.91-.74,1.36-.23.42-.62.53-1.05.31-.46-.24-.91-.49-1.36-.74-.41-.23-.53-.63-.3-1.05.18-.33.35-.66.53-.99.04-.08.08-.15.05-.25-.23-.74-.45-1.49-.67-2.23-.02-.06-.04-.13-.06-.19-.11,0-.11.1-.14.16-.31.57-.62,1.14-.93,1.71-.17.31-.49.44-.82.35-.31-.08-.53-.35-.54-.69,0-.18.07-.33.16-.48.52-.97,1.04-1.93,1.57-2.9.07-.13.09-.25.04-.4-.27-.87-.52-1.75-.79-2.62-.02-.07-.02-.16-.09-.22-.08.05-.1.13-.13.2-.78,1.44-1.56,2.88-2.33,4.32-.17.31-.4.5-.77.47-.37-.04-.56-.27-.66-.61-.46-1.57-.93-3.14-1.4-4.7-.02-.08-.03-.16-.09-.23-.07.04-.09.12-.12.18-.44.81-.88,1.63-1.33,2.44-.07.12-.07.23-.03.36.33,1.09.65,2.17.98,3.26.15.51-.17.97-.67.98-.33,0-.6-.2-.71-.54-.18-.59-.36-1.19-.53-1.78-.02-.08-.05-.16-.07-.23-.09-.01-.09.06-.11.09-.38.7-.75,1.39-1.13,2.09-.05.1-.06.19-.03.3.11.35.21.7.32,1.05.14.49-.05.84-.53.99-.49.15-.97.29-1.46.44-.46.13-.82-.06-.96-.52-.15-.49-.29-.97-.44-1.46-.14-.48.05-.84.54-.99.35-.11.7-.21,1.05-.31.09-.03.16-.06.21-.15.39-.73.79-1.46,1.18-2.19,0-.02,0-.04.02-.09-.22.06-.41.12-.61.18-.47.14-.94.28-1.42.42-.43.13-.83-.07-.95-.47-.12-.4.11-.79.54-.92,1.09-.33,2.18-.65,3.26-.97.1-.03.19-.05.25-.16.47-.88.94-1.75,1.41-2.62.01-.02.02-.05.03-.08-.1-.02-.18.02-.25.05-1.58.47-3.16.94-4.75,1.41-.51.15-.97-.15-.99-.66,0-.17.06-.32.14-.47.78-1.44,1.56-2.88,2.34-4.32.04-.07.1-.13.15-.2-.15-.05-.22,0-.29.02-.87.26-1.75.52-2.62.77-.15.04-.24.12-.31.25-.53,1-1.08,2-1.61,3-.15.28-.38.42-.69.41-.29-.01-.51-.16-.63-.43-.11-.24-.07-.46.05-.69.29-.54.58-1.08.87-1.62.04-.07.07-.14.14-.27Zm6.32-13.37c.01.07.02.1.03.13.45,1.5.9,3.01,1.34,4.51.04.12.12.18.22.23,1.09.59,2.18,1.18,3.27,1.77.3.16.61.33.96.51-.02-.09-.03-.13-.04-.17-.44-1.49-.89-2.98-1.33-4.47-.04-.12-.1-.18-.21-.24-1.35-.73-2.69-1.45-4.04-2.18-.05-.03-.1-.05-.19-.09Zm7.2,6.73c.05-.06.06-.08.07-.09.75-1.39,1.5-2.77,2.25-4.16.07-.12.04-.22,0-.34-.43-1.44-.86-2.88-1.29-4.31-.02-.07-.05-.15-.09-.25-.04.06-.06.09-.08.12-.75,1.38-1.49,2.76-2.24,4.14-.06.1-.04.19-.01.3.44,1.47.88,2.93,1.31,4.4l.06.2Zm-11.27.76c.07.05.1.07.13.09,1.38.75,2.76,1.49,4.14,2.24.1.06.19.04.3.01,1.47-.44,2.93-.88,4.4-1.32.06-.02.14,0,.16-.09-.02-.01-.04-.03-.05-.04-1.39-.75-2.77-1.5-4.16-2.25-.11-.06-.21-.05-.32-.02-.8.24-1.6.48-2.4.72-.72.21-1.43.43-2.2.66Zm19.72-5.87c-.08.02-.12.02-.15.03-1.5.45-2.99.89-4.49,1.34-.12.04-.18.11-.24.21-.72,1.34-1.45,2.68-2.17,4.02-.03.06-.09.1-.06.2.08-.02.16-.05.23-.07,1.43-.43,2.86-.86,4.3-1.28.15-.05.25-.12.33-.26.71-1.32,1.42-2.64,2.14-3.96.03-.06.06-.13.12-.23Zm-17.28,14.04c.08-.02.12-.02.15-.03,1.5-.45,2.99-.89,4.49-1.34.12-.04.18-.11.24-.21.72-1.34,1.45-2.68,2.17-4.02.03-.06.09-.1.06-.2-.08.02-.16.05-.23.07-1.43.43-2.86.86-4.3,1.28-.15.05-.25.12-.33.26-.71,1.32-1.42,2.64-2.14,3.96-.03.06-.06.13-.12.23Zm19.69-5.9s-.06-.04-.09-.06c-1.38-.75-2.76-1.49-4.14-2.24-.11-.06-.21-.05-.32-.01-1.34.4-2.68.8-4.02,1.2-.18.05-.36.11-.58.17.06.05.08.06.11.08,1.39.75,2.77,1.5,4.16,2.25.11.06.19.04.3.01,1.46-.44,2.92-.87,4.38-1.31.06-.02.13-.02.19-.09Zm-11.23.79c-.05.06-.06.07-.07.09-.75,1.39-1.5,2.77-2.25,4.16-.06.11-.05.21-.02.32.44,1.46.87,2.92,1.31,4.38.02.06.02.13.09.19.02-.04.05-.07.06-.1.75-1.38,1.49-2.76,2.24-4.14.06-.1.04-.19.01-.3-.44-1.47-.88-2.93-1.31-4.4-.02-.05-.03-.11-.06-.2Zm7.21,6.73c-.02-.07-.02-.1-.03-.13-.45-1.5-.9-3.01-1.34-4.51-.04-.12-.12-.18-.22-.23-1.35-.73-2.69-1.46-4.04-2.18-.05-.03-.09-.08-.17-.05,0,.03,0,.06.02.08.45,1.51.9,3.02,1.35,4.53.03.12.11.17.2.22,1.35.73,2.69,1.46,4.04,2.18.05.03.1.05.19.09Z"/>
      </g>
      <g>
        <path class="cls-1" d="m228.61,29.88c1.24.04,2.4.13,3.53.23v-1.02c-.33-.04-.71-.08-.61-.34.23-.02.42.02.61.06v-.28c-2.3-.2-4.79-.29-7.56-.22.18.12.35.23.62.41-.3-.04-.44-.05-.64-.08-.21.16-.41.31-.66.5-.06-.16-.11-.3-.16-.44.26-.13.53-.26.83-.4-.7.02-1.42.05-2.16.08,0,.04,0,.08,0,.13-.09-.04-.15-.08-.21-.12-.37.02-.75.04-1.13.07-.03.15-.07.31-.09.46-.02.11-.05.23-.06.34-.02.58.54.72,1.76.39-.13-.07-.26-.12-.34-.18-.1-.08-.19-.16-.22-.26,0-.03.23-.15.28-.15.21.03.46.06.59.14.39.23.74.45,1.54.3.23-.04.49.02.69.12-.36.08-.72.15-1.07.23,1.23-.04,2.4-.04,3.52-.02-.04-.03-.07-.06-.12-.1.35,0,.61,0,.68,0,.54-.23.97-.42,1.47-.63.05.13.07.19.1.28-.65.05-1.15.15-1.2.48Z"/>
        <path class="cls-1" d="m153.83,66.12c-.06,0-.13-.02-.22-.04,0,.02,0,.04,0,.06.07,0,.14-.02.21-.03Z"/>
        <path class="cls-1" d="m232.15,56.62c-2.76-.07-5.79.01-9.22.32.21.13.42.26.7.42-.42.06-.61.09-.8.11-.26.65-.26.65,1.04.46.22-.03.46,0,.72-.01-.05.08-.09.14-.12.2.06.01.13.02.19.03.2-.19.4-.37.59-.56,0,0,0,0-.01,0,0,0,0,0,0,0,0,0,0,0,0-.01-.02-.05-.05-.1-.04-.16.02-.17-.24-.41.27-.48.39-.06.8.05,1.19.16-.79-.09-1.19.11-1.42.48,0,0,0,.01,0,.02h0c.13.1.25.2.38.3-.06,0-.11,0-.17-.01-.1.14-.19.29-.29.43,2.54-.17,4.85-.21,6.98-.15v-1.54Zm-1.94.87c-.13-.11-.27-.17-.24-.22.12-.21.01-.47.69-.6-.14.26-.27.5-.45.83Z"/>
        <path class="cls-1" d="m216.75,43.46c.09-.09.16-.16.23-.23-.23.03-.47.06-.7.09.08.08.22.11.47.13Z"/>
        <path class="cls-1" d="m220.11,29.17c-.07.31-.06.62-.09.93.19-.02.39-.03.58-.05.03-.41.07-.8.1-1.18-.05-.01-.1-.03-.16-.04-.15.11-.41.23-.43.34Z"/>
        <path class="cls-1" d="m216.22,1.74c-.91-.25-1.65-.07-2.37.28.79-.08,1.56-.15,2.31-.21.02-.02.04-.04.06-.06Z"/>
        <path class="cls-1" d="m92.94,61.96s.1-.04.15-.05c.1.09.19.17.29.26,2.82-.37,5.38-.59,7.74-.7.33-.14.7-.27,1.18-.32-.15.1-.29.2-.43.29,9.25-.34,15.3,1.12,21.61,2.64.19.05.37.09.56.14.48-.36,1.13-.11,1.65-.27,0,.15,0,.29,0,.46-.13.03-.29.06-.46.1.21.05.41.1.62.15.16-.1.32-.21.49-.31.05-.03.49,0,.53.06.11.17.35.34.24.54,1.04.23,2.09.46,3.19.67.32-.28.65-.57,1.07-.93-.14.4-.24.72-.36,1.06,2.21.4,4.57.73,7.17.92,0-.07-.02-.13-.06-.14-.38-.12-.84-.2-1.45-.33.12-.13.31-.34.52-.57.62.22,1.11.4,1.62.58.2-.08.38-.15.55-.22-.06-.01-.12-.02-.18-.03.18-.22.3-.47.57-.66.04-.03.09-.06.13-.09-.36-.02-.72-.04-1.07-.06-.07.04-.15.08-.22.13-.01-.05-.04-.1-.06-.15-1.27-.09-2.47-.22-3.64-.38-.08.14-.14.25-.19.33-.39-.03-.68-.05-1.02-.08.09-.2.38-.26.72-.32-2.57-.36-4.93-.86-7.25-1.4-.26.11-.53.22-.84.35.04-.14.02-.31.1-.42-.31.02-.65.03-1.01.05.09-.1.14-.22.27-.28.03-.01.06-.02.09-.03-.49-.12-.97-.23-1.46-.35-1.17-.28-2.34-.56-3.54-.84-.07.09-.16.17-.27.25-.27.17-.67.25-1.02.04.28-.13.55-.26.81-.39-.28-.06-.56-.12-.84-.18.03.09.05.18.08.26-.08.01-.15.02-.23.03-.12-.08-.25-.15-.38-.23l-.8.11s-.03-.04-.04-.06c.18-.09.36-.18.55-.28-.61-.13-1.23-.25-1.86-.36-.02.36-.43.62-1.06.71-.12.02-.24-.02-.36-.03.08-.07.14-.19.23-.2.46-.09.56-.23.54-.45,0-.04.04-.08.1-.13-.52-.09-1.04-.18-1.58-.26-.06.05-.13.1-.18.15-.12.1-.19.21-.29.32-.13-.08-.26-.17-.3-.2,0-.14.04-.26.12-.36-.29-.04-.58-.08-.87-.12-.36.18-.7.36-.99.57-.11-.04-.23-.07-.34-.11.14-.13.27-.25.41-.37-.18.05-.44.1-.61.15l-.14-.05c.14-.11.28-.22.43-.34-.24-.03-.48-.05-.73-.07-.19.2-.42.44-.67.71-.56-.52-.58-.55-.42-.71-.13-.05-.24-.09-.33-.12-.09,0-.17-.01-.26-.02-.15.02-.27.11-.44.28-.17-.1-.33-.2-.53-.33.02,0,.04,0,.06,0-1.31-.07-2.69-.11-4.14-.11-.04.05-.11.11-.25.17-.04-.05-.09-.11-.14-.17-.25,0-.5,0-.75.01-.21.05-.43.1-.7.16.04-.05.07-.1.09-.14-3.16.09-6.68.37-10.66.93l.21,1.53c.25-.03.48-.07.72-.1.01-.09.02-.18.03-.26Zm37.25,2.09c.03.07.1.2.09.2-.3.08-.61.15-.92.22-.03-.06-.07-.13-.1-.19.31-.08.62-.15.93-.23Zm-2.11-.42c.38-.05.52.31.18.46-.21.09-.45.16-.69.24-.15-.11-.29-.21-.51-.37.34-.12.67-.28,1.02-.33Zm-8.63-1.58c.13.22.25.44.38.66-.12.03-.24.06-.37.09-.07-.23-.14-.47-.21-.7.07-.01.13-.03.2-.04Zm-1.46-.04c.63-.06,1.12.21,1.09.6-.26.05-.49.09-.73.14-.21-.16-.44-.3-.59-.47-.05-.05.15-.25.23-.26Zm-10.19-1.86s.27-.06.32-.04c.11.05.24.14.22.21-.04.2.05.44-.42.6-.12-.19-.24-.32-.27-.46-.02-.1.06-.21.14-.31Zm-7.77.32c-.15.13-.29.26-.44.39-.06-.01-.13-.03-.19-.04-.04-.13-.09-.26-.17-.52.36.08.58.13.8.17Z"/>
        <path class="cls-1" d="m117.76,21.54c-.15.02-.3.03-.46.04.07.02.13.03.2.05.85.21,1.7.41,2.57.61.24-.13.48-.27.73-.39.52-.26.99-.55,1.63-.74-.92-.2-1.83-.42-2.75-.64,0,.05-.02.11-.03.16-.02.11-.15.31-.26.32-.52.08-.8.26-1.07.49-.07.06-.37.07-.57.09Z"/>
        <path class="cls-1" d="m204.01,18.07s.06-.01.09-.02c0,0,0,0,0,0-.03,0-.06.02-.08.03Z"/>
        <path class="cls-1" d="m232.15,16.18v-1.27c-.25.04-.51.05-.74.12-.38.12-.84.13-1.43.21.77-.25,1.4-.47,2.03-.68-.82-.09-1.66-.17-2.53-.24.09.14.17.27.25.4-.13.01-.28.03-.52.05.04.28.08.57.13.9-.3.16-.53.17-.53-.11,0-.25.03-.51.05-.78-.75-.02-1.67.46-2.28-.05.27-.05.47-.12.65-.13.49-.02.83-.16,1.02-.37-1.53-.08-3.14-.12-4.86-.1-.23.25-.69.27-1.38.25.1-.08.2-.16.28-.23-.47.01-.95.03-1.44.06-.03.01-.06.03-.09.04-.02-.01-.03-.02-.05-.04-.67.03-1.35.07-2.04.12-.02.05-.06.1-.07.12-.35-.01-.68-.02-1-.04-1.02.09-2.08.19-3.17.32-.03.02-.05.03-.08.05,0-.01,0-.03,0-.04-.84.1-1.7.21-2.59.33-.21.03-.42.06-.63.09.13.2.27.41.4.61-.04.03-.08.05-.12.08-.13-.07-.27-.14-.41-.2-.14-.06-.28-.12-.54-.23.07-.06.15-.12.23-.19-.58.09-1.16.18-1.72.27-.7.78-2.21.74-3.19,1.32.13-.41.44-.61,1.08-.65.53-.03.94-.14,1.27-.42.1-.09.33-.14.58-.2-13.69,2.31-20.72,6.29-27.52,10.16-.69.39-1.38.78-2.07,1.17.12.03.26.06.44.11-.23,0-.45.02-.69.02-3.71,2.07-7.55,4.04-12.59,5.71.18.04.43.04.76-.02.21-.04.38-.22.58-.34.35.12.21.35-.47.56.04.25-.02.53.14.74.07.1.18.18.3.27,6.09-2.08,10.48-4.57,14.77-7.01.9-.51,1.8-1.02,2.7-1.52.06-.4.61-.86,1.32-1.15.4-.16.78-.18,1.15-.19.47-.24.94-.49,1.42-.73-.2-.18-.49-.11-.97.06.08-.1.13-.22.26-.31.12-.08.32-.12.61-.23.12.11.31.19.53.26,3.51-1.72,7.46-3.29,12.59-4.59-.38-.49,0-.76,1.29-.88.08.1.17.2.22.25.22-.18.38-.36.62-.49.1-.06.49-.07.56-.02.09.06.05.22-.05.31-.11.1-.23.19-.38.26.02,0,.04.02.06.02,2.31-.51,4.84-.97,7.65-1.36,1.39-.2,2.72-.36,4-.49-.05-.1.08-.29.09-.44.01-.19,0-.38,0-.57,0,0-.01,0-.01,0h0s0,0,0,0c0,0,0,0-.01,0-.72.19-.73.19-.72.6-.5-.2-.56-.76-.07-1.03.09-.05.29-.05.44-.07,0,.1,0,.21,0,.36.06.02.21.08.36.14,0,0,.02,0,.03,0,0,0,0,0,0,.01.49-.01.98-.03,1.48-.04.03-.02.05-.03.08-.05,0-.04,0-.09,0-.15-.23-.02-.42-.03-.6-.05.02-.04.04-.09.05-.13.25,0,.5,0,.74-.01.01,0,.02,0,.03,0,0,0,0,0,0,0,.36,0,.72,0,1.08,0,.04,0,.05.27-.02.29-.14.04-.29.09-.44.13.16.18.28.37-.17.63-.04.03,0,.1.08.18,1.34-.1,2.62-.17,3.84-.21-.02-.01-.05-.03-.08-.04.41-.03.75-.1.83-.06.03.02.06.05.07.08.67-.01,1.32-.01,1.95,0-.03-.05-.05-.12-.04-.2.63.04,1.24.09,1.86.13-.18.04-.34.07-.49.1,2.1.06,4.02.23,5.84.46Zm-61.7,16.29c.33-.24.64-.5,1.28-.35-.25.38-.83.28-1.28.35Zm36.45-15.28c-.74.1-1.43.06-2.09-.05.03-.05.05-.09.08-.14.69.03,1.37.05,2.06.08-.02.04-.03.08-.05.12Zm16.59-2.11c-.09-.04-.27-.09-.25-.12.15-.21.27-.44,1.14-.46-.38.24-.64.41-.9.57Zm3.15.36c-.42-.03-.81-.07-1.21-.1.02-.05.04-.1.06-.15.48-.03.96-.06,1.55-.09-.18.16-.28.24-.4.34Z"/>
        <path class="cls-1" d="m154.71,22.62c.1-.1.17-.18.18-.19-.46-.2-.85-.38-1.36-.6,0,.4-.41.75.03,1,.39-.07.77-.14,1.15-.21Z"/>
        <path class="cls-1" d="m126.07,64.69c.16.04.31.07.47.11-.04-.06-.08-.11-.12-.17-.11.01-.23.02-.34.03,0,0,0,.02-.01.03Z"/>
        <path class="cls-1" d="m142.79,52.65c1.73-.04,3.56-.14,5.51-.31-.22-.01-.31-.12-.35-.27-.04-.18-.04-.36-.08-.54-.02-.1-.1-.18-.15-.27-.16.08-.32.15-.47.23-.06.03-.1.06-.15.09-.48-.2-.46-.31.11-.53.18-.07.32-.12.44-.17-.21.03-.41.06-.61.01-1.02.08-2,.13-2.95.17-.11.3-.39.55-1.31.65.15-.1.32-.21.46-.33.11-.09.27-.22.24-.3,0,0,0,0,0,0-.66.02-1.31.03-1.94.03.09.02.19.05.32.08-1.23.1-1.77.74-1.6,1.26.02.06.03.13.03.2.69,0,1.41,0,2.14,0-.07-.04-.13-.08-.19-.13-.07-.05-.05-.14-.07-.2.14,0,.37-.02.41.02.1.09.16.2.23.31Z"/>
        <path class="cls-1" d="m232.15.7c-3.74-.55-7.96-.85-13.09-.63.02,0,.05.02.07.02-.3.09-.66.09-.97.02-.95.05-1.93.12-2.95.21-.17.06-.38.1-.64.09.01-.01.02-.02.03-.04-.98.09-1.98.2-3.02.33.19.14.37.26.54.38-.07.04-.15.08-.22.12-.31-.13-.63-.25-.91-.39,0,0,0-.02.02-.03-.41.05-.83.11-1.25.17-3.09.43-5.87.95-8.39,1.53-.01,0-.03.02-.04.03,0,0,0-.01-.01-.02-2.04.47-3.9.98-5.64,1.52,0,.18-.02.34-.09.49-.07.13-.4.26-.61.38-.22-.13-.35-.2-.47-.26.17-.13.34-.26.53-.41-.51.17-1.01.33-1.5.5-.05.05-.1.09-.12.14-.09,0-.18,0-.26,0,0,0,0,0,0,0-3.9,1.39-7.09,2.95-10.04,4.54.37.26.66.47.95.68-.01.04-.03.08-.04.11-1.4-.1-2.27.34-3.04.94.09.09.18.18.35.35-.59-.07-.76-.15-.6-.41.07-.11.03-.23,0-.35-.51.29-1.02.58-1.53.87-3.55,2.02-7.01,3.98-11.33,5.71.19.1.3.21-.16.41-.14-.07-.31-.12-.39-.2-1.97.77-4.12,1.49-6.53,2.14.49.05.59.24.58.51-.01.31,0,.62.03.92,2.05-.56,3.91-1.16,5.64-1.8-.07-.08-.14-.17-.22-.25.29-.14.54-.01.66.09,1.62-.61,3.12-1.25,4.53-1.91-.1,0-.21,0-.31-.02.43-.16.83-.32,1.32-.5-.01.02-.03.04-.05.06.49-.23.96-.47,1.43-.71-.65.07-1.29.15-1.88.22.11-.07.33-.21.61-.4.47,0,1.04,0,1.62,0,1.97-1.01,3.8-2.05,5.61-3.08,3.56-2.02,7.03-3.99,11.36-5.72-.42-.04-.86-.08-1.36-.12.67-.19,1.29-.19,1.74-.03.25-.1.51-.2.77-.3.23-.31.47-.62.71-.93.33.02.39.24.18.6,2.24-.81,4.73-1.55,7.56-2.22-.24-.21-.45-.43-.65-.66-.02-.02.08-.08.13-.13.22.09.42.16.62.2-.04-.05-.09-.09-.16-.12.62-.16.79-.01.94.17.33-.04.64-.16.95-.36-.09.22-.27.43-.51.6,2.22-.48,4.64-.92,7.32-1.29,1.08-.15,2.12-.28,3.13-.39.38-.14.78-.29,1.2-.45-.29-.08-.62-.17-1.07-.29.35-.13.62-.22.88-.32.2-.07.39-.15.59-.21.14-.04.37-.1.45-.07.4.13.76.29,1.15.45.28-.08.63-.17.98-.27,0,.11-.02.22-.03.38.23-.04.49-.08.75-.13-.02,0-.03,0-.05-.02.1-.19.2-.37.3-.54.19.09.4.19.64.31-.15.25-.4.35-.75.28,0,.02.02.04.03.05-.5.12-.99.24-1.38.33.03.05.06.1.09.15,1.95-.14,3.76-.2,5.45-.2.01,0,.03-.02.04-.02.03,0,.06.02.09.02.11,0,.23,0,.34,0,.13-.1.42-.16.62-.24.16-.07.33-.18.49-.19.24-.02.65-.02.69.05.07.14.12.28.17.42,1.11.04,2.17.11,3.19.2.05-.05.12-.11.21-.17.04.07.08.13.12.2.66.06,1.3.13,1.93.21,0-.04.01-.08.02-.12.45.03.68.11.79.23.34.05.68.1,1.02.15.02-.02.07-.05.1-.08V.7Zm-66.8,18.69s-.06-.05-.08-.08c.22-.1.45-.2.67-.31l-.06-.07c-.21.02-.43.05-.69.08.05-.45.92-.28,1.16-.53.14.15.25.29.39.45-.42.14-.9.3-1.39.46Zm2.2-1.37c.39-.14.66-.24,1-.36,0,.17,0,.29,0,.5-.38-.05-.64-.08-1.01-.13Zm2.57-.76c-.07-.03-.13-.05-.2-.08.3-.13.59-.26.86-.38.05.06.15.17.26.29-.3.06-.61.11-.91.17Zm32.76-14.18c-.14.01-.27-.04-.4-.06.1-.06.19-.16.31-.19.43-.09.62-.21.59-.44-.01-.08.17-.18.26-.27.15.06.29.12.34.14.07.45-.39.76-1.09.82Zm17.39-2.42c-.29-.03-.55-.08-.83-.12.11-.08.29-.23.33-.22.29.05.54.12.88.2-.17.07-.31.15-.38.14Z"/>
        <path class="cls-1" d="m218.72,29.97c.22.01.43.02.65.03-.06-.12-.06-.28-.21-.36-.2-.09-.54-.12-.92-.19-.01.19-.02.31-.03.42q-.63.08-.66-.38c-.2.12-.32.18-.43.25-.1.06-.18.13-.27.19-.11-.04-.23-.08-.31-.13-.1-.06-.13-.19-.26-.2-.2-.03-.45,0-.68.02-.04.18-.1.35-.09.52,0,.1.14.18.23.3-.3.06-.52.1-.79.15,0,.02,0,.04-.01.06,1.21-.16,2.37-.29,3.49-.4.11-.1.21-.2.3-.28Z"/>
        <path class="cls-1" d="m221.75,29.98s-.03,0-.04,0c.01,0,.03,0,.04,0,0,0,0,0,0,0Z"/>
        <path class="cls-1" d="m149.51,36.57s.06-.09.1-.14c-.2-.03-.4-.05-.58-.07-.59.07-1.18.13-1.75.19-.49.44.12.84-.29,1.31.85-.11,1.67-.27,2.31.03.14-.02.29-.03.43-.05.12-.12.22-.22.33-.33.04,0,.09-.01.13-.02-.01.1-.03.2-.04.3.54-.07,1.09-.14,1.65-.22.05,0,.1-.01.15-.02-.3-.09-.61-.18-.91-.27.05-.04.11-.08.16-.12.39.11.77.21,1.16.32,2.33-.34,4.49-.72,6.48-1.15-.18-.11-.32-.19-.45-.28,0,0,.19-.1.29-.15.15.12.36.23.47.36,1.3-.28,2.54-.58,3.72-.89,0,0,0,0,0,0,.02,0,.04,0,.06-.01,1.03-.28,2.02-.56,2.96-.86-.11-.15-.22-.29-.32-.43.53,0,.65-.06.5-.43-.1-.24-.3-.45-.56-.64-1.61.51-3.33.99-5.22,1.43v.05c-.18.05-.36.11-.55.16.07-.04.1-.07.12-.11-1.98.45-4.12.87-6.47,1.24.08.26-.01.52-.28.79-.08,0-.16.01-.24.02-.01-.24-.03-.48-.04-.72-.41.06-.83.12-1.25.18s-.83.11-1.24.17c0,.43-.29.91-.77,1.21-.04-.12-.08-.22-.13-.39-.27.22-.47.37-.67.54q-.7-.37-.06-1.01c.26,0,.53.02.8.03Zm10.47-1.89c.08-.12.47-.2.72-.31-.05.22-.1.45-.15.67-.14.02-.28.04-.43.06-.06-.14-.24-.3-.15-.43Z"/>
        <path class="cls-1" d="m201.28,32.97c-.81.37-1.29-.04-1.94-.17.03-.03.05-.07.08-.1.36.04.72.09,1.21.14.37-.17.87-.36.61-.77-.04-.07-.07-.14-.09-.21-.75.22-1.48.44-2.19.67.02.03.02.07,0,.1-.14.29-.52.39-1,.3l.53-.08c0-.07,0-.11,0-.16,0,0,0,0,0,0-.48.16-.95.32-1.41.49.06.11.12.21.16.29-.16.22-.3.4-.43.57-.31-.2-.44-.41-.35-.64-1.95.72-3.72,1.48-5.37,2.26.25-.04.48.01.72.16-.25.11-.43.2-.67.31-.17-.08-.33-.17-.5-.25-2.7,1.3-5.1,2.66-7.48,4.01-2.13,1.21-4.22,2.4-6.49,3.53-.41.33.14.39.53.51-.52.15-.84-.17-1.26-.15-.15.07-.31.15-.46.22.06.05.13.1.22.16-.28.04-.55.08-.82.12-2.07.96-4.31,1.87-6.86,2.7,0,.03,0,.06,0,.09-.09,0-.17,0-.24,0-1.99.64-4.18,1.24-6.61,1.78-.07.06-.15.13-.25.18-.04.02-.17,0-.34-.05-.54.12-1.09.23-1.66.34.51.21,1.02.43,1.54.63.1.04.27.05.42.05.04,0,.17-.11.17-.15-.02-.27.04-.51.74-.59.05,0,.1-.09.18-.17.1.24.49.37,0,.69-.25.16-.11.34.17.44,7.09-1.63,12.16-3.75,16.54-6-.25.02-.5.02-.69-.02-.13-.03-.12-.23-.07-.35.03-.09.19-.23.34-.26.16-.04.45-.02.53.04.26.19.43.04.66-.08.18-.09.39-.16.59-.24.04.03.07.07.11.1-.03.03-.05.06-.08.09,1.47-.79,2.87-1.58,4.26-2.37.2-.11.4-.23.6-.34-.02-.08-.06-.16-.14-.22-.17-.13-.6-.14-.82-.25-.26-.13-.41-.32-.61-.48.05-.03.1-.05.14-.08.61.18,1.48.29,1.74.58.06.07.13.12.2.16.56-.32,1.12-.63,1.68-.94-.06-.01-.13-.02-.19-.04.15-.03.29-.05.42-.08,3.12-1.72,6.37-3.36,10.38-4.8-.03-.13-.06-.26-.09-.39.07-.01.13-.03.2-.04.04.11.09.23.13.35,1.16-.41,2.38-.8,3.67-1.18-.13-.12-.25-.24-.38-.36Zm-35.3,15.49c-.17,0-.38,0-.68.02-.07.25-.14.52-.21.78-.05,0-.09.02-.14.03-.11-.19-.23-.37-.35-.57.46-.29.89-.56,1.42-.89-.02.27-.03.43-.04.64Zm.85-.61s-.07-.06-.11-.1c.24-.36.82-.41,1.45-.41-.45.17-.89.34-1.34.51Zm13.91-6.12s-.51.06-.78.09c0-.03,0-.06.01-.09.71-.3,1.42-.6,2.13-.89.05.02.11.04.16.06-.17.11-.31.25-.52.32-.42.13-.85.23-1,.52Zm1.63.38c.12-.24.23-.48.37-.75.52.25.32.58-.37.75Zm2.86-2.09c-.1,0-.2,0-.3-.01-.03-.19-.19-.4-.05-.57.24-.3.79-.44,1.47-.43-.63.27-1.06.59-1.12,1Zm2.28-.81c-.24-.14-.44-.26-.7-.41-.09.04-.24.1-.42.18-.05-.06-.15-.12-.12-.17.06-.1.17-.24.3-.27.16-.03.51.02.51.07.03.23,1.03.12.44.6Zm8.68-4.25c-.06.03-.11.05-.17.08-.19-.03-.38-.06-.67-.11-.23.49-.91.66-1.86.63.16.16.24.24.37.38-.62.1-1.41.08-1.17.71-.41-.18-.57-.25-.81-.36.98-.33,1.45-.89,2.54-1.07.4-.07.39-.11.35-.57.34-.06.79-.21.97-.15.11.03.18.1.24.17.21-.01.4-.07.58-.22.03-.02.38.04.72.07-.49.19-.79.31-1.11.43,0,0,0,.01.01.02Z"/>
        <path class="cls-1" d="m144.05,66.4c.25.03.47.22.53.4,2.02-.04,4.19-.16,6.53-.39.36-.48-.28-1.08-1.18-1.08-.82,0-1.63-.05-2.44-.07-.14,0-.32.03-.46.07-.17.05-.33.13-.49.2.04-.11.04-.23.1-.34-2.28.11-4.36.1-6.31.02-.03.04-.06.08-.09.1.19.15.38.3.58.45.78-.01,1.3-.02,1.84-.02-.44.54-1.33,1.02-1.54.88-.19-.13-.22-.34-.25-.56-.04,0-.07-.02-.11-.03-.23.23-.47.47-.73.72.6.03,1.22.05,1.85.06.02,0,.03-.01.05-.02.3-.11.55-.25.85-.36.43-.15.89-.3,1.22-.05.02,0,.03-.01.05-.02,0,.01,0,.02,0,.03Zm.5-.74c0-.09.08-.19.11-.25.48.05.99.08,1.44.16.21.04.31.18.46.28-.06.03-.12.06-.18.09-.12-.02-.3-.01-.35-.05-.22-.2-.56-.12-.92-.03-.16.04-.32.06-.48.1-.03-.1-.09-.19-.08-.3Z"/>
        <path class="cls-1" d="m203.5,47.51s0,0,0,0c-.01,0-.03.01-.04.02.02,0,.03-.01.05-.02Z"/>
        <path class="cls-1" d="m143.98,66.82c.02-.14.04-.27.07-.41,0,0-.02,0-.03,0,0,0-.01,0-.02-.01-.35.12-.7.23-1.05.35.02.02.02.05.01.08.33,0,.67,0,1.02,0Z"/>
        <path class="cls-1" d="m206.45,45.25s-.02-.06-.07-.1c-1.04.25-2.03.51-2.98.78-.01.03-.02.06-.03.09-.01-.02-.02-.05-.03-.07-.06.02-.13.04-.2.05.26.17.53.36.83.56.09-.24.13-.38.19-.55.19.07.35.13.36.13.06.22.1.35.16.57.52-.25.88-.43,1.37-.67-.2.34-.36.63-.52.91.16-.04.32-.08.49-.13.04-.05.08-.09.12-.14.08,0,.16,0,.23.01,0,.01-.01.03-.02.04.15-.04.3-.07.45-.11-.33-.11-.28-.21.17-1.08-.69.05-.67.05-.51-.31Z"/>
        <path class="cls-1" d="m151.89,65.69c.26-.17.5-.33.83-.55-.96.04-1.12.16-.83.55Z"/>
        <path class="cls-1" d="m149.95,52.18c.29-.03.59-.06.89-.1.09-.03.17-.05.25-.08,0,.02,0,.03,0,.05.29-.03.59-.07.89-.11.05-.08.12-.15.22-.22.07.07.14.12.2.17.46-.06.92-.12,1.4-.19,2.36-.33,4.54-.71,6.56-1.13-.18-.26-.43-.49-1.01-.6-.1-.02-.18-.07-.25-.12-.18-.14-.35-.28-.57-.46,0,0,.03-.02.07-.04-1.57.3-3.24.58-5.02.83-.28.04-.55.07-.83.11-.03.17-.28.27-1.16.44.05-.09.1-.18.16-.31-.06,0-.12.01-.17.02-.1.02-.18.03-.25.03-.68.08-1.35.16-2,.22.02.02.04.03.05.05-.3,0-.47,0-.56,0-.17.39-.35.78-.47,1.07.5.08.82.13,1.16.17.27.03.41.09.46.18Z"/>
        <path class="cls-1" d="m121.61,21.84c-.04.06.06.18.1.18.67-.06.42.24.61.43-.4,0-.7,0-1.11.02,0,.02.01.03.02.05.31.07.62.14.93.21.31-.1.6-.19.89-.29.06.03.13.07.19.1-.15.11-.3.21-.45.32,1.17.25,2.38.48,3.64.68.2-.02.39,0,.53.08.97.15,1.97.28,3.01.39-.38-.21-.75-.42-1.11-.63.06-.12.13-.24.21-.39.17.03.36.06.56.09-.06.03-.11.05-.17.08.15.12.3.25.45.37.21.17.41.35.61.52,2.41.24,5.04.36,7.97.31.08-.12.16-.24.24-.36.09.11.12.24.1.36,1.15-.03,2.36-.08,3.61-.16,0-.05.01-.11.02-.17.54.06.71-.09.82-.36.12-.29.4-.58.62-.9-.2-.05-.41-.11-.63-.17-5.46.42-9.85.26-13.73-.22.11.05.2.1.26.16-.31-.02-.57-.03-.89-.04.02.11.03.19.06.38-.49-.24-.83-.4-1.19-.58.13-.05.29-.08.47-.09-1.11-.16-2.18-.34-3.23-.55-.2.13-.47.22-.91.23-.05-.13-.1-.27-.15-.41-.06,0-.12,0-.18,0-.17.14-.34.28-.4.33-.51-.04-.97-.08-1.45-.1-.09,0-.28.08-.31.13Zm14.87,1.88s.01.09.02.13c-.7.13-1.4.25-2.2.4-.09-.19-.15-.33-.22-.48.7.39,1.66-.1,2.4-.04Zm-5.47-.65c.16.18.27.38.4.57-.11.03-.23.06-.34.09-.07-.08-.13-.16-.2-.24-.06-.07-.14-.14-.19-.22-.04-.06-.06-.12-.09-.18.15-.01.4-.06.42-.03Zm-3.42-.61c.66.15-.26.45-.23.69-.55-.03-1.03-.05-1.67-.09.72-.23,1.27-.4,1.9-.6Zm-2.37.6c-.12-.12-.25-.25-.38-.37-.34.08-.68.15-1.02.23,1.37-.52,1.61-.49,1.4.14Z"/>
        <path class="cls-1" d="m152.73,65.74c-.39.09-.76.21-1.03.29-.06.13-.1.24-.14.34.49-.05.98-.1,1.49-.16-.05-.07-.04-.15.05-.27.13-.17.01-.28-.37-.2Z"/>
        <path class="cls-1" d="m152.33,21.75s.01-.07.02-.1c-.08-.05-.16-.09-.25-.14-.21.03-.41.07-.62.1.1.05.2.09.32.12.13.04.35.01.53.02Z"/>
        <path class="cls-1" d="m155.66,20.86c-.12.02-.23.05-.35.07.05.04.11.11.21.2.05-.11.1-.19.14-.27Z"/>
        <path class="cls-1" d="m143.16,80.94s.09,0,.13,0c-.03-.02-.06-.03-.1-.05-.01.02-.02.03-.04.05Z"/>
        <path class="cls-1" d="m144.25,23.57s.01.05.02.07c-.19.03-.38.06-.69.12.04.11.08.22.13.34.19-.02.38-.03.58-.05.13-.23.25-.44.38-.67.33-.06.87-.08,1.18-.23.36-.17.51-.46.76-.72.49.05.55.17.17.47-.15.12-.27.28-.27.41,0,.29.02.29-.6.51-.05-.16-.1-.31-.17-.55-.21.27-.45.48-.42.69,1.44-.14,2.93-.32,4.51-.54.81-.11,1.59-.23,2.36-.36-.04,0-.08,0-.12,0,.03-.21.33-.53-.33-.62-.07-.01-.13-.15-.07-.2.41-.35-.06-.42-.42-.54-.03-.01-.06-.02-.08-.04-.51.08-1.02.15-1.54.23-1.84.26-3.57.46-5.2.6-.24.37-.48.74-.74,1.12.19-.01.39-.03.59-.05Z"/>
        <path class="cls-1" d="m212.4,60c.18-.04.37-.07.55-.11-.19,0-.37.03-.55.11Z"/>
        <path class="cls-1" d="m222.44,58.31c-.18-.01-.34-.04-.52-.05-.21-.01-.42-.01-.64-.02.03.11-.02.27.1.34.03.02.06.04.09.05.51-.05,1.01-.1,1.5-.15-.07-.03-.12-.09-.15-.17,0-.02-.26,0-.39,0Z"/>
        <path class="cls-1" d="m221.57,57.59c.09.05.03.16.09.23.05.05.2.13.26.12.13-.03.29-.11.33-.18.08-.16.09-.32.14-.47.03-.1.08-.2.13-.31-.78.07-1.58.16-2.4.26.21.04.44.05.67.05.3,0,.55.18.78.3Z"/>
        <path class="cls-1" d="m103.54,19.08c.21.03.42.06.63.1.4.04.8.07,1.19.12.09-.01.18-.03.27-.05.44-.12,1.01-.09,1.52-.1.33,0,.65.04,1.02.07-.05.06-.1.12-.14.17.35-.04.7-.07,1.03-.08.14,0,.19.28.3.46-.1.02-.19.03-.28.05,1.68.28,3.29.62,4.86.98-.09-.35-.46-.48-1.21-.29.13-.42.22-.45.85-.37.19.03.45-.02.78-.04-.06.21-.14.47-.22.72-.02,0-.03,0-.05.01.88.2,1.75.41,2.63.62.31-.16.62-.33.93-.49.2-.1.45-.18.65-.28.22-.12.42-.25.62-.37h-.02s-.1-.03-.14-.04c-.19.06-.38.12-.63.2-.04-.13-.11-.25-.12-.38-3.25-.79-6.57-1.57-10.38-2.09-.03.07-.06.16-.1.25-.27.04-.54.08-.82.12-.02-.02-.05-.04-.07-.06.24-.11.47-.23.72-.34-.81-.11-1.63-.2-2.49-.28.03.18.26.31.62.41-.04.03-.09.07-.13.1-.26-.03-.65-.02-.77-.11-.12-.09-.11-.26,0-.42-1.87-.16-3.87-.26-6.04-.25-.03.05-.07.1-.13.16-.08-.06-.15-.11-.22-.16-3.55.02-7.56.3-12.2.96l.14.98c.26-.2.21-.55,1.03-.56-.15.17-.24.39-.38.41-.31.05-.51.14-.64.25l.06.44c6.99-.98,12.41-1.11,17.03-.78.11-.02.21-.04.29-.03Zm1.9-.37c.25.05.5.1.84.16-.18.1-.31.2-.35.2-.24-.03-.47-.08-.67-.14-.02,0,.12-.14.19-.21Zm-13.44-.52c.88-.17,1.22-.09,1.35.35-.47-.12-.88-.23-1.35-.35Zm.96-.09c-.02-.09-.05-.16-.08-.27-.28.04-.53.08-.93.13.92-.36,1.62-.39,2.1-.11-.36.08-.69.16-1.09.25Zm2.31.17s-.08-.02-.12-.04c.12-.09.23-.18.36-.29-.11-.02-.26-.04-.4-.07.01-.04.03-.08.04-.12.29-.01.58-.02.88-.03,0,.04.01.08.02.12-.26.14-.52.28-.77.42Zm4.07.05c-.48-.1-.81-.18-1.13-.25.02-.03.03-.05.05-.08.23,0,.47-.02.76-.03.04-.08.09-.16.13-.25.1,0,.2-.01.3-.02-.03.18-.07.37-.12.62Z"/>
        <path class="cls-1" d="m196.99,49.75s.06,0,.08.02c1.84-.76,3.83-1.48,6.05-2.14.08-.13.15-.24.16-.34.01-.13-.02-.27-.09-.39-.15-.26-.31-.51-.46-.77-4.74,1.4-8.48,3.03-11.82,4.74.09,0,.18,0,.27-.01-.32.16-.46.24-.69.23-1.86.97-3.6,1.96-5.33,2.94-6.43,3.65-12.56,7.13-24.05,9.38-.18.14-.26.15-.42.08-1.6.31-3.3.59-5.13.85-.99.14-1.94.26-2.86.37.18.16.35.32.53.48.32-.1.75-.24,1.31-.42.42.37-.5.88-.22,1.3.48-.06.96-.13,1.45-.19.63-.09,1.24-.18,1.84-.28.31-.23.61-.46,1.28-.48.48-.02.95-.02,1.43-.03-.01.02-.02.04-.03.05,1.1-.2,2.16-.42,3.17-.64-.06-.04-.12-.08-.18-.13.14,0,.3,0,.51,0,.01-.12.02-.22.03-.32.1.1.15.21.2.32,1.8-.41,3.46-.85,5.02-1.32-.11-.03-.24-.07-.38-.11.36-.08.69-.16,1.03-.24-.68.05-1.35.09-1.96-.09.27-.14.52-.28.84-.45.02.43.44.5,1.55.41.04,0,.07,0,.11,0,.01,0,.03,0,.04,0,0,0,0,0,0,0,.12,0,.24-.01.36-.02,1.29-.42,2.51-.86,3.67-1.31-.15-.08-.28-.16-.41-.23-.18.05-.35.1-.53.15,0,0,0,.01,0,.02,0,.09-.37.21-.42.25-1.1.14-1.7.01-1.72-.27-.02-.3.42-.37.81-.43.57-.09,1.09.04,1.27.28.13-.04.26-.07.39-.11-.09-.05-.18-.1-.27-.15.06-.02.13-.04.19-.07.25,0,.5,0,.78.01.22-.06.44-.13.66-.19.03.05.07.09.1.14-.21.06-.43.12-.64.19-.03.11-.08.23-.12.38,4.67-1.85,8.33-3.92,11.93-5.96,2.5-1.42,4.96-2.81,7.7-4.12-.28-.4-.1-.82.35-1.26.19-.19.18-.41.27-.65.33-.16.75-.37,1.21-.59.19.07.6.08.13.36-.25.14.06.45.41.45.15,0,.31-.02.59-.04-.27.18-.69.36,0,.36Zm-37.42,15.16c.36-.31,2.73-.97,3.52-.94-1.21.32-2.34.63-3.52.94Zm3.83-1.02s-.05-.07-.07-.11c.9-.28,1.79-.56,2.73-.85-.02-.02-.07-.09-.17-.24.51-.02.97-.04,1.44-.06.02.05.03.1.05.15-1.32.37-2.65.74-3.97,1.11Z"/>
        <path class="cls-1" d="m155.41,21.55c.1.12.3.23.27.35-.04.2.02.37.14.51,1.78-.36,3.44-.74,5-1.16-.04-.31-.05-.62.27-.95-.07,0-.14-.01-.21-.02-.22.07-.45.14-.89.27.26-.34.47-.59.67-.85-1.43.39-2.95.75-4.59,1.09.17.13,0,.26-.66.77Z"/>
        <path class="cls-1" d="m170.09,62.73c.07-.02.14-.04.21-.07-.05,0-.09,0-.14,0-.02.02-.05.04-.07.06Z"/>
        <path class="cls-1" d="m108.5,75.46c0-.44.05-.89,0-1.33,0,0,0,0,0,0-.06-.07-.15-.11-.26-.13-.13,0-.26,0-.4,0-.08,0-.17.02-.26.03-.5.08-.99.14-1.57.22.03-.09.03-.17.03-.26-3.52.03-7.49.31-12.08.96l.21,1.53c5.85-.82,10.6-1.05,14.7-.9.09-.14.14-.25-.37-.1Zm-1.64-.31c-.1.05-.35.03-.53.04.14-.19.28-.37.43-.57.64.16.44.35.1.53Z"/>
        <path class="cls-1" d="m114.85,46.97c.02-.05.04-.11.06-.16-1.15-.21-2.35-.4-3.6-.57-.13.17-.25.34-.39.5-.02.03-.19.06-.24.05-.08-.02-.18-.09-.16-.12.16-.16.35-.32.53-.47-1.85-.24-3.83-.41-5.98-.48.07.06.05.15-.03.26-.9.09-1.8.17-2.7.26-.07,0-.14-.04-.21-.05-.18-.02-.37-.02-.55-.04,0,.11-.08.25-.01.34.08.1.3.16.42.25.11.09.18.2.18.36-.79-.3-1.59-.32-2.55.12.01-.38-.54-.26-.98-.31l1.01-.14c.7-.1.77-.16.43-.43-.08-.07-.22-.11-.26-.19-.07-.11-.08-.23-.12-.35.08-.02.15-.04.23-.06-2.35.08-4.88.28-7.66.61.02.02.04.05.06.07-.07.06-.2.15-.35.27.45.08.92.07.61.48-.14.19.11.42.3.65,1.44-.17,2.81-.3,4.12-.39-.04-.21.18-.39.74-.66-.03.26-.05.43-.07.62.05,0,.11,0,.16-.01.11-.03.21-.06.33-.1v.08c4.74-.28,8.66-.09,12.15.34,0-.18,0-.36.04-.54,0-.03.31-.07.47-.1.03.1.1.21.07.31-.05.12-.2.24-.3.35-.02,0-.04,0-.07,0,.94.12,1.85.26,2.74.41.11-.05.22-.09.34-.12.12-.03.32-.04.39,0,.07.03.04.13,0,.2-.01.02-.03.04-.04.05.24.04.49.09.73.14.15-.27.14-.55-.09-.74-.08-.07-.34-.07-.51-.1.09-.11.19-.23.24-.29.22-.13.48-.22.52-.31Z"/>
        <path class="cls-1" d="m100.6,46.03c.97-.05,2.15-.11,3.47-.18-.04-.05-.08-.1-.12-.16-1.26-.02-2.58-.01-3.96.04.17.09.35.17.61.3Z"/>
        <path class="cls-1" d="m122,49.12c.26-.18.43-.4.61-.61-.11-.03-.22-.05-.32-.08-.02,0-.03,0-.05-.01-.44.13-.88.26-1.31.39-.03-.02-.06-.05-.09-.07.15-.18.3-.37.45-.55-.23-.06-.47-.11-.7-.17-.02,0-.04,0-.06.01,0,0,0-.02,0-.03-1.54-.37-3.11-.72-4.76-1.05.01.04,0,.07-.02.09-.51.37-.15.55.19.76.27.17.15.6-.23.78.18.04.37.08.55.11.08-.06.23-.09.52-.04.33.05.54.16.63.29.78.17,1.56.35,2.33.54.05-.01.09-.02.14-.03-.07-.03-.14-.05-.2-.08.02-.04.05-.08.07-.11.45-.02.91-.04,1.36-.07.31-.02.78,0,.91-.08Zm-3.88-.25c.2-.27.34-.47.52-.73.32-.03.78-.08,1.24-.13.01.02.02.04.04.06-.58.26-1.15.51-1.8.8Z"/>
        <path class="cls-1" d="m92.02,47.51c-.4-.28-.41-.62-.34-.99,0-.03,0-.07-.02-.1-.4.05-.81.1-1.22.16-.05.02-.1.03-.15.05.01-.01.03-.02.04-.03-.11.02-.22.03-.33.04l.21,1.53c.69-.1,1.35-.18,2.01-.26-.04-.14-.05-.3-.19-.4Z"/>
        <path class="cls-1" d="m232.15,42.55c-1.23-.07-2.49-.11-3.84-.11-.17.15-.45.29-.83.38.12-.13.23-.25.34-.38-1.59.01-3.28.08-5.07.2.13.34.26.69-.55,1.05.25-.34-.55-.67-.04-1.01-.63.05-1.27.1-1.93.17-.02.02-.04.04-.06.06-.03-.02-.06-.03-.1-.05-.88.09-1.78.19-2.71.31.12.07.24.13.36.2.02-.05.05-.09.08-.15.66.15,1.23.29,1.89.44,0-.23-.01-.4-.02-.62.41.07.91.03.53.4-.08.08.05.22.13.32.07.09.22.15.33.22-.05.04-.1.09-.15.13-.61-.1-1.22-.2-1.83-.29-.36-.05-.72-.1-1.14-.15.02-.04.07-.12.14-.26-.04.03-.08.05-.12.08-.14.01-.28.03-.46.05-.38.33-.76.66-1.22,1.06-.06-.42-.11-.78-.16-1.15-.43.31-.79.61-1.23.87-.2.12-.57.16-.85.25-.19.06-.35.14-.54.21-.15.05-.32.11-.49.14-.06.01-.15-.06-.22-.09.11-.06.22-.13.33-.19.05-.03.18-.06.18-.07-.18-.47.77-.5,1.17-.74.03-.02.11-.03.12-.05.03-.06.08-.12.13-.18-2.84.43-5.4.94-7.74,1.49.75.17.9.62.3,1.1.41.17.5.21.27.35,2.59-.61,5.47-1.15,8.74-1.61,3.96-.56,7.41-.84,10.5-.92-.25-.14-.5-.28-.78-.44.36-.12.71-.17.91.11.06.08.31.1.42.17.06.04.08.09.09.14,1.81-.03,3.48.02,5.07.11v-1.56Z"/>
        <path class="cls-1" d="m102.05,33.1c.15,0,.3,0,.44.01.06-.03.12-.06.18-.08-.01.03-.03.06-.04.09.49.02.96.04,1.43.06-.32-.13-.59-.25-.86-.36.07-.11.15-.23.23-.35-.05-.01-.1-.02-.15-.03-.27.14-.57.27-.8.42-.17.11-.31.2-.44.25Z"/>
        <path class="cls-1" d="m149.01,52.19c-.17.06-.32.1-.44.13.13-.01.25-.02.38-.04.02-.03.04-.06.06-.09Z"/>
        <path class="cls-1" d="m113.61,33.83h0c-.16-.02-.32-.04-.31-.04-.02-.38-.04-.72-.06-1.07-1.37-.26-2.79-.49-4.3-.68-.71.31-1.29.33-1.64.06.23-.06.52-.09.72-.16-.97-.11-1.98-.2-3.02-.26-.79.44-.61.97-.87,1.51,1.35.07,2.62.19,3.85.33.11-.13.28-.26.52-.37.08,0,.16.02.25.03-.07.13-.14.27-.22.41.05,0,.09.01.14.02-.05-.15.01-.31.42-.51,0,.2-.01.38-.02.56.24.03.47.07.7.1,0,0,0,0,0,0-.03-.08-.26-.11-.34-.19-.1-.1-.27-.25-.18-.31.2-.15.53-.34.82-.38.63-.07,1.26-.05,1.92-.07.21.3.37.65.7.95.11.1.6.06.93.09,0,0,0,0,0,0,0,0,0,0,0,0Zm-9.14-1.04c.57-.05,1.14-.1,1.85-.17q-.37.24-1.85.17Z"/>
        <path class="cls-1" d="m202.67,17.93c-.19.2-.37.4-.55.58.24-.06.48-.12.72-.18,0,0,0-.02,0-.03.08-.01.14-.02.2-.02.09-.02.18-.04.28-.06-.13.02-.27.04-.41.05,0-.12,0-.22,0-.32-.08,0-.15-.02-.23-.02Z"/>
        <path class="cls-1" d="m205.56,32.01c.27.04.48.09.58.17,1.99-.44,4.15-.85,6.52-1.21.02-.07.05-.14.07-.22.36,0,.62.03.8.09.14-.02.27-.04.41-.06.16-.02.32-.04.48-.06.14-.14.27-.27.4-.4.05-.05.12-.14.08-.17-.18-.15-.37-.29.14-.46.3-.1.57-.23.86-.35.33-.13.7-.22.98-.37.1-.05.17-.1.22-.15-1.09.12-2.21.26-3.38.42-4.66.66-8.6,1.49-12.03,2.45.06.01.12.03.17.04.1.04.45-.09.66-.13.07.24.16.58.3.91.01.03.38,0,.53-.01-.07-.11-.12-.19-.17-.27.14-.01.28-.02.42-.04.33-.03.65-.06,1.02-.09,0-.12,0-.21,0-.31.1,0,.18,0,.23,0,.24.06.44.16.7.2Z"/>
        <path class="cls-1" d="m204.54,46.87c-.16.11-.29.27-.26.39,0,.01,0,.02,0,.03.28-.08.55-.15.84-.23.01-.07.02-.15-.02-.21-.03-.04-.49-.04-.56.01Z"/>
        <path class="cls-1" d="m120.56,49.7c.19.05.38.09.57.14,0-.22-.12-.22-.48-.23-.03.03-.06.06-.09.1Z"/>
        <path class="cls-1" d="m119.49,35.77c.2.05.4.1.61.15.14-.07.27-.15.4-.23.21-.12.29-.3.43-.46-.06-.02-.13-.05-.19-.07-.37.06-.74.13-1.21.21,0-.14,0-.28-.02-.42-.03-.26-.05-.5-.58-.61-.05-.01-.1-.04-.13-.07-.46.1-.63,0-.69-.3.17-.05.32-.08.46-.11-1.32-.32-2.67-.62-4.06-.91.01.03.02.06.03.08.13.45.48.58-.93.78,0,0,.02,0,.02,0,0,0-.02,0-.03,0-.09.14-.19.29-.34.53,2.13.42,4.16.92,6.23,1.41Zm-4.59-1.67c.42-.07.83-.19,1.24-.28.05.02.09.04.14.06.13-.11.26-.23.43-.38.23.14.43.26.73.45-.06.24-.39.41-.78.26-.49-.19-.72-.04-.99.19-.05.04-.11.08-.23.17-.04-.14-.06-.24-.09-.34l-.83.12-.71.1c.06-.18.06-.17,1.08-.35Z"/>
        <path class="cls-1" d="m155.58,79.01c-.02-.08-.03-.17-.05-.27-.15.02-.31.04-.46.06-.02.01-.03.03-.05.04-.09,0-.18,0-.28,0-.58.07-1.14.12-1.7.18.03.06.07.13.1.19.07.02.13.04.2.07-.37.13-.74.25-1.16.39-.04-.3-.1-.47-.23-.55-.68.06-1.35.11-2,.15.1.06.18.14.27.21.04.03.06.08.1.14-.14.01-.27.02-.41.03,0,.02,0,.03,0,.05.01.14.04.28.06.46-.7-.07-1.07-.43-1.05-.84-1.27.06-2.49.1-3.65.1-.01.05-.03.1-.05.15-.22-.06-.42-.11-.62-.15-.6,0-1.18-.02-1.75-.04-.42.04-.85-.02-1.31-.06-.14,0-.27-.01-.41-.02-.64.42-.98.41-1.53.16-.09.13-.17.23-.25.33-.06,0-.13,0-.19,0,.04-.14.02-.29.12-.43.05-.06.1-.13.15-.19-.32-.03-.64-.06-.95-.09-1.05.23-1.45.89-2.71.89.13-.12.23-.26.31-.27.8-.06,1.17-.7,2.16-.65-4.03-.44-7.49-1.23-10.97-2.07-.07,0-.15.01-.23.01.02-.02.04-.04.06-.05-.29-.07-.58-.14-.88-.21-.18-.04-.35-.09-.53-.13.21.09.38.16.55.22-.03.04-.06.09-.08.13-.3-.02-.6-.05-.9-.07.07-.1.14-.2.24-.33-1.83-.44-3.69-.88-5.65-1.27-.08.04-.16.08-.22.12-.06-.02-.12-.04-.18-.06.05-.03.11-.07.16-.1-1.85-.36-3.8-.67-5.9-.9-1.02.14-1.68.08-1.91-.17-.62-.05-1.26-.09-1.91-.12,0,.02,0,.03.01.05-.66.27-.71.69-.03.9.26-.1.52-.2.79-.3-.51.43-.2.61.45.73.2.04.27.16.22.28.99.07,1.94.17,2.87.28.15-.13.3-.25.44-.38.08,0,.16.02.24.03-.02.14-.04.28-.06.43.19.03.38.05.57.08.04-.01.08-.03.12-.04-.02-.02-.03-.03-.05-.05.08,0,.14,0,.21,0,.42-.08.78.02,1.2.29.43-.32.85-.62,1.34-.99.22.37-.03.85-.6,1.13,1.01.18,1.98.37,2.95.58.13-.08.26-.16.39-.24.15.1.31.2.52.35-.1.01-.18.03-.26.04,1.41.31,2.8.65,4.2.99.05.01.09.02.14.03.59-.1,1.2-.2,1.86-.32-.14.28-.19.49-.36.68,1.37.33,2.76.65,4.21.94-.04-.02-.08-.04-.12-.06-.23-.11-.49-.21-.73-.32.02-.04.04-.07.06-.11.28,0,.57,0,.85,0,.43,0,.85.02,1.44.04-.13.14-.26.4-.57.54-.06.03-.13.04-.18.06.42.08.85.16,1.28.24-.05-.05-.08-.11-.12-.16.31.01.56.02.76.03.16.1.35.2.47.32.28.05.57.09.85.13.07-.06.14-.13.2-.19.4.05.79.09,1.29.15.01.05.03.13.06.24.18.02.36.04.53.06.1-.13.21-.27.37-.48.17.13.41.24.36.29-.09.09-.22.16-.36.24,1.11.12,2.27.22,3.48.29.05-.05.09-.11.14-.17.11.07.2.13.3.2.36.02.72.03,1.09.04.23-.24.49-.48,1.08-.65-.04-.14-.08-.33-.14-.55.36.05.74.08,1.07.16.05-.1.1-.2.15-.31.44,0,.85,0,1.26.02.1,0,.16.08.24.12-.1.05-.2.13-.3.14-.39.04-.77.06-1.25.09.04.06.05.15,0,.2-.19.21-.47.41-.69.62-.06.06-.11.12-.13.19.12,0,.25,0,.37,0,.01,0,.03-.02.04-.02.03,0,.05.02.07.02.24,0,.48,0,.73,0,.1-.2.19-.39.32-.59.02-.04.31-.05.47-.08-.06.07-.11.14-.18.21-.12.12-.25.24-.38.35-.04.03-.08.07-.11.1,2.47-.01,5.16-.15,8.14-.45.12-.12.21-.22.32-.31-.02,0-.04,0-.06,0,.04-.01.07-.03.1-.04.03-.02.06-.04.09-.06.37-.24.79-.45,1.07-.72.21-.04.43-.09.64-.13-.04-.08-.1-.17-.12-.25Zm-9.36,1.75c.21-.22.42-.43.62-.64.26.07.54.14.92.24-.54.14-1.03.27-1.53.4Zm6.41-.81c-.27.1-.62.14-.94.2-.02-.05-.03-.09-.05-.14.18-.06.37-.1.54-.17.16-.06.28-.15.61-.32-.07.21-.04.38-.17.43Z"/>
        <path class="cls-1" d="m220.36,58.43c-.24.06-.46.15-.72.23-.24-.47-.42-1.03-1.74-.99-.31,0-.65.14-.77.17-.87.08-1.57.15-2.37.23.02-.02.04-.05.06-.07-4.11.69-7.62,1.53-10.71,2.47.23.11.45.18.44.26-.03.33.25.44.98.36-.2.18-.31.28-.49.45-.35-.25-.64-.46-.97-.69l-.33.05c.06-.12.12-.22.2-.38-.32.1-.63.2-.94.3.15.09.34.23.62.43-.3-.11-.6-.22-.9-.34-1.28.42-2.49.86-3.64,1.31.16.05.32.11.51.17-.52.08-.84.09-1.01.03-4.01,1.62-7.28,3.41-10.43,5.19.03.04.04.08,0,.1-.09.06-.27.1-.44.14-.19.11-.39.22-.58.33-.12.07-.23.13-.35.2-.26.35-.48.7-.21,1.05-.4,0-.73-.21-.87-.44-3.91,2.2-7.85,4.31-13.12,6.09-.07.11-.13.21-.2.32-.11-.01-.21-.02-.32-.03.04-.05.08-.1.12-.15-2.35.78-4.96,1.49-7.95,2.11-.16.28-.32.55-.5.82-.02.03-.26.08-.31.06-.08-.03-.16-.12-.12-.17.16-.21.34-.42.52-.63-1.93.39-4.01.76-6.28,1.07-.43.06-.85.12-1.27.17.03.14,0,.3-.15.48s.1.42-.04.61c-.15.22-.35.44-.7.58.42-.05.85-.1,1.29-.16.03-.11.08-.22.15-.34.06-.1.12-.21.25-.28.11-.06.33-.07.49-.1-.04.07-.03.18-.12.22-.29.14-.41.3-.46.45.13-.02.27-.04.4-.05.06-.03.12-.05.18-.08.02.02.04.03.06.05.04,0,.08-.01.12-.02,5.82-.82,10.52-1.92,14.5-3.19.09-.27.18-.54.27-.8-.06,0-.13,0-.19,0-.13.09-.25.19-.38.28-.05,0-.1,0-.15,0,.05-.19.1-.38.17-.63.89.26.98-.15,1.25-.4-.11,0-.22,0-.33.01.24-.32.49-.34,1.41-.05-.24,0-.49.02-.73.03-.37.5-.75,1.01-1.12,1.51,4.04-1.3,7.33-2.78,10.31-4.32-.07.02-.14.03-.22.05-.03-.04-.06-.07-.09-.11.22-.1.43-.21.61-.29.12-.2.24-.39.39-.65-.06-.03-.23-.12-.54-.28.69.07,1.18.13,1.73.18,0,.04,0,.07,0,.1,1.25-.68,2.45-1.36,3.65-2.04,2.7-1.53,5.35-3.04,8.37-4.43-.04-.04-.09-.07-.13-.1.05-.03.09-.06.14-.09.13,0,.26,0,.39.01,3.26-1.48,6.96-2.83,11.62-3.96-.01-.01-.03-.02-.04-.03.06-.03.11-.06.17-.08.05.02.1.03.15.05.49-.12.99-.23,1.49-.34.04-.04.07-.08.1-.12.07.02.15.03.23.05.34-.07.69-.15,1.05-.22.45-.22.91-.43,1.36-.65.04.01.08.03.12.04-.05.09-.11.18-.17.29.1,0,.19,0,.28.01,1.41-.26,2.89-.5,4.47-.72.97-.14,1.91-.26,2.82-.36-.06-.05-.11-.1-.17-.15-.06-.05-.17-.15-.21-.14Zm-61.49,20.44c-.23-.02-.45-.04-.68-.07-.23-.02-.46-.05-.69-.07.01-.03.02-.06.04-.09.47-.07.94-.14,1.61-.23-.12.2-.2.33-.27.46Zm2.82-.39c-.14.17-.22.35-.43.49-.08.05-.58.05-.66-.02-.16-.13-.15-.32-.21-.48.1,0,.19,0,.29,0,.21-.04.44-.06.63-.12.23-.08.43-.19.8-.36-.2.24-.31.37-.41.49Zm5.26-.81c.07-.63.77-.21,1.3-.35-.39.37-.82.41-1.3.35Zm18.1-7.07c-.28.02-.55.03-.83.05.12-.35.5-.48,1.34-.48-.16.14-.33.28-.52.44Zm1.58-.33c-.17-.03-.42-.03-.5-.1-.18-.14-.37-.31.14-.51.13.1.28.19.35.3.06.09,0,.21,0,.31Zm5.51-3.41c-.36.14-.76.24-1.15.36-.03-.03-.06-.06-.1-.09.37-.19.74-.37,1.21-.61.02.14.12.31.04.35Zm3.34-2.21c-.13,0-.27.01-.4.02-.03-.23-.18-.46-.05-.68.07-.1.66-.17,1.05-.26-.24.38-.42.65-.6.92Zm10.78-3.48c.11-.42.22-.87.34-1.35.57-.06,1.09-.12,1.54-.16-.04.12-.21.35-.15.53.05.18.34.31.45.4-.78.21-1.43.38-2.17.58Zm3.45-.7s-.1.04-.14.05c-.19-.11-.37-.23-.61-.37.24-.07.43-.12.68-.19l.07.51Z"/>
        <path class="cls-1" d="m139.52,52.66c.24-.22.53-.43.21-.68-.23-.18.44-.59.96-.67.11-.02.2-.09.33-.18-5.37-.02-9.64-.66-13.64-1.51,0,0,0,0,0,.01,0,0,0,0,0-.01-.92-.2-1.83-.4-2.73-.61-.14.11-.28.23-.43.36-.1-.15-.16-.24-.25-.38-.08.02-.17.03-.25.04,0,.02.01.04.02.05-.18.04-.36.09-.54.11-.06,0-.12.02-.19.03-.22.13-.39.29-.59.43.35.1.7.2,1.05.29.27.07.55.13.82.2-.04.04-.07.08-.11.12-.24.05-.49.09-.72.14,1.92.45,3.88.89,5.98,1.26.1-.13.3-.24.74-.3-.04.14-.07.28-.1.41.39.06.78.13,1.18.19.41-.03.82-.06,1.24-.09-.11.09-.23.16-.39.21.7.09,1.41.18,2.14.25,0,0,0,0,0,0,.03,0,.06.01.1.02.18.02.36.04.54.05.08-.08.15-.16.23-.25.12.04.23.07.48.14-.14.05-.27.09-.4.14,1.37.12,2.8.2,4.32.24Zm-11.59-1.68c-.44-.21-.77-.37-1.1-.52.06-.04.12-.09.18-.13.4,0,.79.01,1.22.02-.08.17-.16.33-.3.63Zm6.38.87c.06-.3.54-.41.98-.45.24-.03.49.09.73.14-.05.03-.1.06-.15.09-.51.07-1.02.15-1.57.22Z"/>
        <path class="cls-1" d="m140.12,52.58c-.06.03-.11.06-.16.09.04,0,.09,0,.13,0,0-.03.01-.06.02-.09Z"/>
        <path class="cls-1" d="m181.53,10.62c-.03-.12-.02-.25.03-.37-.11.06-.22.12-.33.18.02.07.05.13.07.2.08,0,.15,0,.23-.01Z"/>
        <path class="cls-1" d="m130.05,51.76c-.03-.08-.06-.15-.1-.23-.09.06-.18.11-.27.17.12.02.24.04.36.06Z"/>
        <path class="cls-1" d="m104.73,31.65c-.18-.01-.36-.02-.54-.03-.02.04-.04.08-.07.13-.04-.05-.09-.09-.13-.14-.15,0-.3-.01-.44-.02l-.38.05s-.06.08-.09.13c.41.06.82.13,1.18.18.17-.11.33-.21.48-.3Z"/>
        <path class="cls-1" d="m111.46,34.02c.49.09.98.18,1.47.27-.31-.11-.62-.21-.99-.34-.04,0-.25.05-.47.07Z"/>
        <path class="cls-1" d="m123.16,35.82c-.01.28-.18.51-.54.7.97.22,1.96.44,2.98.64.12,0,.21,0,.28.06,5.52,1.09,11.86,1.76,20.79.94-.03-.03-.05-.06-.09-.09-.24-.19-.53-.36-.71-.57-.09-.1-.08-.31.06-.4.32-.19.68-.36,1.08-.52-1.05.1-2.07.18-3.05.25-.1.14-.19.29-.37.4-.29.17-.67.31-1.01.47-.02-.03-.03-.05-.05-.08.19-.19.34-.4.58-.58.08-.06.19-.12.31-.18-2.52.14-4.81.15-6.93.07-.04.1-.19.2-.46.32,0-.13-.01-.24-.02-.34-1.76-.09-3.39-.24-4.95-.44-.05.05-.09.09-.14.14-.36-.12-.74-.21-1.01-.3-1.21-.18-2.38-.39-3.51-.62-.12.08-.25.17-.37.26-.04-.07-.09-.11-.09-.17,0-.01,0-.03,0-.04l-1.06.26c-.03-.06-.06-.12-.09-.17.36-.08.72-.16,1.07-.24-.41-.09-.82-.17-1.22-.26-.06.04-.11.08-.13.11-.15.24-.25.48-.37.72-.18.01-.35.02-.49.03-.27-.08.39-.55-.51-.35Zm10.28,1.95c-.09.04-.18.08-.27.12-.21-.19-.42-.39-.68-.63.96-.08.57.39.95.51Z"/>
        <path class="cls-1" d="m91.28,33.61c.08-.03.15-.05.23-.08.03.02.06.05.1.07.67-.07,1.33-.14,1.97-.2.19-.1.36-.21.49-.32.38-.32.98-.5,1.49-.4-.22.17-.44.34-.68.54.03.02.07.05.11.07.91-.07,1.8-.11,2.65-.15.1-.01.2-.03.3-.04-.01.01-.02.02-.03.03,1.07-.04,2.1-.05,3.09-.05-.03,0-.06-.02-.09-.02.26-.34.52-.69.81-1.04.04-.05.31-.12.32-.11.14.08.25.18.41.3.17,0,.42-.01.77-.02-.22-.22-.43-.43-.64-.63-1.28-.03-2.62-.04-4.03,0-.03.03-.06.06-.09.09-.03-.03-.05-.06-.07-.08-.08,0-.16,0-.23,0-.25.14-.43.34-.67.52-1.13.15-1.33.13-1.33-.18.2-.09.39-.18.63-.28-.97.05-1.98.12-3.02.2-.17.05-.35.08-.55.08,0,0-.01-.02-.02-.03-1.45.13-2.96.3-4.56.52.52.05.95.12,1.45-.13.1-.05.35-.01.65-.02-1.04.52-1.85.46-2.54.23-.06.04-.12.08-.17.13l.2,1.41c1.06-.15,2.09-.28,3.08-.39,0,0,0-.02-.01-.02Zm8.68-1.72c-.34-.03-.69-.07-1.14-.11.72-.36.93-.13,1.14.11Zm-.61.16c.22.14.68.33-.1.62-.28-.18-.53-.34-.93-.6.48-.01.92-.09,1.03-.02Zm-3.24.91c.29,0,.58,0,1,0,.46-.28.99-.29,1.71-.1-1.05.11-1.9.19-2.75.28.01-.06.02-.11.04-.17Z"/>
        <path class="cls-1" d="m166.24,34.39c.15-.05.3-.1.45-.15-.15,0-.33,0-.59,0,.05.05.09.1.14.14Z"/>
      </g>
    </g>
  </g>
</svg>