<?xml version="1.0" encoding="UTF-8"?>
<svg id="Layer_2" data-name="Layer 2" xmlns="http://www.w3.org/2000/svg" viewBox="0 0 742.83 109.02">
  <defs>
    <style>
      .cls-1 {
        fill: #c40c2e;
        stroke-width: 0px;
      }
    </style>
  </defs>
  <g id="Layer_1-2" data-name="Layer 1">
    <g>
      <path class="cls-1" d="m439.7,0h29.45v2.1h-6.07v73.02h6.07v2.1h-33.64v-2.1h6.07V6.18h-.44l-16.54,71.03h-13.79l-19.41-71.36h-.44v69.26h6.07v2.1h-15v-2.1h6.07V2.1h-6.07V0h29.78l14.67,56.8L439.7,0Z"/>
      <path class="cls-1" d="m492.36,54.56h2.8v-7.42c0-6.1-.34-10.2-1.01-12.29-.67-2.09-1.98-3.13-3.9-3.13-1.16,0-2.2.3-3.13.91-.93.61-1.4,1.45-1.4,2.51s.19,2.14.58,3.23h2.41c.51,1.35.77,2.97.77,4.87s-.8,3.53-2.41,4.91c-1.61,1.38-3.63,2.07-6.07,2.07-5.53,0-8.29-2.67-8.29-8,0-7.9,6.71-11.85,20.14-11.85,7.64,0,12.93,1.3,15.85,3.9,2.92,2.6,4.38,7.37,4.38,14.31v19.56c0,3.34.93,5.01,2.8,5.01,2.18,0,3.47-3.31,3.85-9.93l1.45.1c-.26,5.65-1.32,9.54-3.18,11.66-1.86,2.12-4.91,3.18-9.16,3.18-7.71,0-12.14-2.38-13.3-7.13-.84,2.44-2.09,4.24-3.76,5.4-1.67,1.16-4.11,1.73-7.32,1.73-9.51,0-14.26-3.89-14.26-11.66,0-4.56,1.81-7.69,5.45-9.4,3.63-1.7,9.2-2.55,16.72-2.55Zm-5.98-30.07l6.07-18.41,4.53-.96c1.99-.45,3.52-.21,4.58.72,1.06.93,1.59,2.18,1.59,3.76s-.93,3.2-2.8,4.87l-12.91,10.7-1.06-.67Zm2.65,48.38c.35.96,1.03,1.45,2.02,1.45s1.93-.82,2.79-2.46c.87-1.64,1.3-3.9,1.3-6.8v-8.96h-.67c-3.98,0-5.98,2.93-5.98,8.77v1.54c0,3.34.18,5.49.53,6.46Z"/>
      <path class="cls-1" d="m577.1,81.2h-.58v1.73h.94c-.1-.6-.21-1.18-.37-1.73Zm-15.71-54.08l-2.35-1.27c-.19-.1-.39-.19-.58-.29-2.45-.27-.31.31-2.6-.5,1.46.04.44-.42-1.04-.91-.44,1.02-.75,1.97-.89,2.83,6.05,2.24-3.87,1.02,1.93,3.85h5.78c-.15-1.16-.1-2.31.13-3.45-.12-.1-.25-.17-.39-.27Z"/>
      <path class="cls-1" d="m633.15,32.38c-2.83,0-4.85,1.54-6.07,4.62-1.22,3.09-1.83,8.19-1.83,15.32v5.01c0,6.36.71,10.92,2.12,13.69,1.41,2.76,4.01,4.14,7.81,4.14s6.81-1.28,9.06-3.85c2.25-2.57,3.69-5.49,4.34-8.77l1.73.19c-1.22,5.53-3.47,9.51-6.75,11.95-3.34,2.51-7.94,3.76-13.78,3.76-7.45,0-13.17-2.01-17.15-6.02-3.98-4.01-5.98-9.89-5.98-17.64s2.26-13.7,6.79-17.88c4.53-4.17,10.84-6.26,18.94-6.26,5.72,0,10.09,1.11,13.11,3.32,3.02,2.22,4.53,5,4.53,8.34s-.72,5.78-2.17,7.32c-1.45,1.54-3.44,2.31-5.98,2.31s-4.58-.67-6.12-2.02c-1.54-1.35-2.31-3.34-2.31-5.97,0-1.16.16-2.31.48-3.47h3.18c.45-1.28.67-2.44.67-3.47,0-3.08-1.54-4.62-4.63-4.62Z"/>
      <path class="cls-1" d="m674.12,54.56h2.8v-7.42c0-6.1-.34-10.2-1.01-12.29-.67-2.09-1.98-3.13-3.9-3.13-1.16,0-2.2.3-3.13.91-.93.61-1.4,1.45-1.4,2.51s.19,2.14.58,3.23h2.41c.51,1.35.77,2.97.77,4.87s-.8,3.53-2.41,4.91c-1.61,1.38-3.63,2.07-6.07,2.07-5.53,0-8.29-2.67-8.29-8,0-7.9,6.71-11.85,20.14-11.85,7.64,0,12.93,1.3,15.85,3.9,2.92,2.6,4.38,7.37,4.38,14.31v19.56c0,3.34.93,5.01,2.8,5.01,2.18,0,3.47-3.31,3.85-9.93l1.45.1c-.26,5.65-1.32,9.54-3.18,11.66-1.86,2.12-4.91,3.18-9.16,3.18-7.71,0-12.14-2.38-13.3-7.13-.84,2.44-2.09,4.24-3.76,5.4-1.67,1.16-4.11,1.73-7.32,1.73-9.51,0-14.26-3.89-14.26-11.66,0-4.56,1.81-7.69,5.45-9.4,3.63-1.7,9.2-2.55,16.72-2.55Zm-3.33,18.31c.35.96,1.03,1.45,2.02,1.45s1.93-.82,2.79-2.46c.87-1.64,1.3-3.9,1.3-6.8v-8.96h-.67c-3.98,0-5.98,2.93-5.98,8.77v1.54c0,3.34.18,5.49.53,6.46Z"/>
      <path class="cls-1" d="m706.11,78.17v-17.25h1.16c1.67,5.59,3.92,9.51,6.75,11.76,2.83,2.25,6.36,3.37,10.6,3.37,6.55,0,9.83-2.09,9.83-6.26,0-1.8-.8-3.15-2.41-4.05-2.51-1.41-5.72-2.51-9.64-3.28-4.37-1.16-8.03-2.7-10.99-4.63-3.53-2.31-5.3-5.97-5.3-10.99s1.54-9.01,4.63-12c3.08-2.99,7.2-4.48,12.34-4.48,3.15,0,6.39.74,9.73,2.22,1.22.51,2.15.77,2.8.77s1.19-.22,1.64-.67c.45-.45,1-1.29,1.64-2.51h1.06v14.74h-1.16c-3.28-8.35-8.35-12.53-15.23-12.53-3.02,0-5.27.53-6.75,1.59-1.48,1.06-2.22,2.39-2.22,4,0,.96.22,1.72.67,2.26.45.55.8.95,1.06,1.2.26.26.67.53,1.25.82.58.29,1.06.52,1.45.68.38.16.98.37,1.78.62.8.26,1.4.42,1.78.48,4.37,1.09,7.52,2.04,9.44,2.84,1.93.8,3.76,1.78,5.49,2.94,3.53,2.44,5.3,6.38,5.3,11.81s-1.61,9.54-4.82,12.34c-3.21,2.8-7.61,4.19-13.2,4.19-3.98,0-7.84-.93-11.56-2.8-.77-.51-1.38-.77-1.83-.77-1.41,0-2.79,1.19-4.14,3.57h-1.16Z"/>
      <path class="cls-1" d="m590.68,30.42c-3.41,0-5.83-.87-7.28-2.6-1.45-1.73-2.17-3.89-2.17-6.46s.79-4.69,2.36-6.36c1.57-1.67,3.97-2.51,7.18-2.51s5.65.76,7.32,2.26c1.67,1.51,2.51,3.66,2.51,6.46s-.8,5.03-2.41,6.7c-1.61,1.67-4.11,2.51-7.52,2.51Zm-13.59,50.78h-.58v1.73h.94c-.1-.6-.21-1.18-.37-1.73Z"/>
      <path class="cls-1" d="m554.81,24.15c1.62-3.68,5.09-7.98,8.52-10.37,5.03-3.53,10.83-6.26,18.93-6.26,5.72,0,10.08,1.12,13.11,3.32,3.03,2.24,4.53,5.01,4.53,8.35s-.71,5.78-2.16,7.32-3.45,2.31-5.99,2.31-4.57-.67-6.11-2.02c-1.54-1.35-2.31-3.33-2.31-5.98,0-1.16.15-2.31.48-3.47h3.18c.44-1.29.67-2.45.67-3.47,0-3.08-1.6-4.03-4.63-4.63-2.1-.42-7.02,1.04-11.76,4.24-2.83,1.95-8.4,7.73-9.5,13.9-.12-.1-.25-.17-.39-.27l-2.35-1.27c-.19-.1-.39-.19-.58-.29-2.45-.27-.31.31-2.6-.5,1.46.04.44-.42-1.04-.91Z"/>
      <path class="cls-1" d="m576.52,81.2h.58c-2.31-9.08-10.95-13.61-25.89-13.61h-11.93c-4.99,0-7.5-.54-7.5-1.64s1.72-2.72,5.15-4.91c3.28.64,6.44.94,9.48.94,7.32,0,13.15-1.72,17.42-5.15,4.3-3.43,6.44-8.25,6.44-14.46s-2.83-11.04-8.5-15c-.23,1.14-.29,2.29-.13,3.45h-5.78c-5.8-2.83,4.12-1.62-1.93-3.85.13-.87.44-1.81.89-2.83-1.14-.35-2.54-.71-3.32-.81-1.7-.29-3.51-.42-5.44-.42-8.42,0-14.74,1.79-18.95,5.38-4.22,3.59-6.32,8.31-6.32,14.15,0,9.29,4.51,15.21,13.57,17.79-4.99,3.05-8.46,5.59-10.41,7.65-1.97,2.08-2.93,4.65-2.93,7.73s1.37,5.67,4.09,7.79c2.74,2.1,7.27,3.14,13.57,3.14h11.35c5.92,0,9.89.58,11.87,1.7,1.99,1.14,2.99,3.37,2.99,6.73s-1.64,6.17-4.91,8.42c-3.28,2.27-7.96,3.39-14.03,3.39-9.98,0-14.98-3.35-14.98-10.06,0-2.02.31-4.16.93-6.42l-7.02-3.16c-5.99,1.72-9,4.84-9,9.35,0,8.35,9.64,12.53,28.89,12.53,11.31,0,19.62-2.02,24.98-6.03,5.34-4.01,8-9.46,8-16.31,0-1.31-.1-2.56-.29-3.74h-.94v-1.73Zm-36.2-41.32c0-5.94.48-9.89,1.41-11.87.94-1.99,2.33-2.99,4.16-2.99s3.12.96,3.91,2.87c.77,1.91,1.18,5.9,1.18,11.99v5.72c0,5.71-.42,9.46-1.23,11.29-.83,1.83-2.14,2.76-3.97,2.76s-3.2-.94-4.11-2.81c-.89-1.87-1.35-5.42-1.35-10.64v-6.32Z"/>
      <path class="cls-1" d="m607.07,79.08h-27.68c-.1-.6-.21-1.18-.37-1.73h4.72v-42.4h-5.69v-1.73h23.61v44.14h5.4v1.73Z"/>
      <path class="cls-1" d="m561.64,30.84h-5.78c-5.8-2.83,4.12-1.62-1.93-3.85.13-.87.44-1.81.89-2.83,1.48.48,2.51.94,1.04.91,2.29.81.15.23,2.6.5.19.1.39.19.58.29l2.35,1.27c.13.1.27.17.39.27-.23,1.14-.29,2.29-.13,3.45Z"/>
      <g>
        <path class="cls-1" d="m65.9.7l1.1,27.57h-2.09c-3.22-9.74-6.08-16.38-8.57-19.94-2.49-3.55-6.08-5.33-10.76-5.33h-1.32v72.27h9.34v2.31H13.51v-2.31h9.34V3h-1.43c-4.69,0-8.31,1.85-10.87,5.55-2.56,3.7-5.38,10.27-8.46,19.72H0L1.1.7h64.81Z"/>
        <path class="cls-1" d="m78.7,54.94h2.79v-7.42c0-6.1-.34-10.2-1.01-12.29-.68-2.09-1.98-3.13-3.9-3.13-1.16,0-2.2.31-3.13.92-.93.61-1.4,1.45-1.4,2.51s.19,2.14.58,3.23h2.41c.51,1.35.77,2.97.77,4.87s-.8,3.53-2.41,4.92c-1.61,1.38-3.63,2.07-6.07,2.07-5.53,0-8.29-2.67-8.29-8,0-7.9,6.71-11.85,20.14-11.85,7.64,0,12.93,1.3,15.85,3.9,2.92,2.6,4.39,7.37,4.39,14.31v19.56c0,3.34.93,5.01,2.79,5.01,2.18,0,3.47-3.31,3.85-9.93l1.45.1c-.26,5.65-1.32,9.54-3.18,11.66-1.87,2.12-4.92,3.18-9.16,3.18-7.71,0-12.14-2.38-13.3-7.13-.84,2.44-2.09,4.24-3.76,5.4-1.67,1.16-4.11,1.74-7.32,1.74-9.51,0-14.26-3.89-14.26-11.66,0-4.56,1.81-7.69,5.45-9.4,3.63-1.7,9.2-2.55,16.72-2.55Zm-3.32,18.31c.35.96,1.03,1.45,2.02,1.45s1.93-.82,2.79-2.46c.87-1.64,1.3-3.9,1.3-6.79v-8.96h-.67c-3.98,0-5.98,2.92-5.98,8.77v1.54c0,3.34.18,5.49.53,6.46Z"/>
        <path class="cls-1" d="m140.67,34.41c-2.38,0-4.47,1.54-6.26,4.63-1.8,3.08-2.7,6.75-2.7,10.99v25.83h6.84v1.73h-30.07v-1.73h5.3v-42.41h-5.3v-1.74h23.23v9.25c.83-3.28,2.44-5.8,4.82-7.56,2.38-1.77,5.07-2.65,8.1-2.65s5.48.85,7.37,2.55c1.89,1.7,2.84,4.11,2.84,7.23s-.71,5.51-2.12,7.18c-1.41,1.67-3.58,2.51-6.51,2.51s-5.08-.96-6.46-2.89c-1.38-1.93-1.56-4.59-.53-8h3.47c1.61-3.28.93-4.92-2.02-4.92Z"/>
        <path class="cls-1" d="m179.41,31.71v37.59c0,10.54-1.82,18.57-5.45,24.09-3.63,5.53-9.56,8.29-17.78,8.29-5.33,0-9.24-1.06-11.71-3.18-2.47-2.12-3.71-4.59-3.71-7.42s.84-5,2.51-6.5c1.67-1.51,3.76-2.27,6.26-2.27s4.39.69,5.64,2.07c1.25,1.38,1.88,2.91,1.88,4.58s-.19,3.28-.58,4.82h-3.66c-1.03,1.73-1.17,3.21-.43,4.43.74,1.22,2.09,1.83,4.05,1.83s3.29-1.11,4-3.32c.71-2.22,1.06-6.79,1.06-13.73v-49.54h-6.26v-1.74h24.19Zm-9.16-6.65c-3.41,0-5.83-.87-7.28-2.6-1.45-1.74-2.17-3.89-2.17-6.46s.79-4.69,2.36-6.36c1.57-1.67,3.97-2.51,7.18-2.51s5.65.76,7.32,2.26c1.67,1.51,2.51,3.66,2.51,6.46s-.8,5.03-2.41,6.7c-1.61,1.67-4.11,2.51-7.52,2.51Z"/>
        <path class="cls-1" d="m192.85,72.14c-4.14-4.27-6.22-10.22-6.22-17.83s2.33-13.44,6.99-17.49c4.66-4.05,10.58-6.07,17.78-6.07,14.58,0,21.59,7.32,21.01,21.97h-27.18v3.76c0,6.3.8,11.05,2.41,14.26,1.61,3.21,4.4,4.82,8.38,4.82,7.45,0,12.34-3.98,14.65-11.95l1.73.29c-1.22,4.63-3.42,8.22-6.6,10.79-3.18,2.57-7.95,3.86-14.31,3.86-8.29,0-14.5-2.14-18.65-6.41Zm12.48-21.35h9.93v-4.72c0-5.2-.31-8.75-.92-10.65-.61-1.89-1.83-2.84-3.66-2.84s-3.18,1.01-4.05,3.04c-.87,2.02-1.3,5.51-1.3,10.46v4.72Z"/>
        <path class="cls-1" d="m240.7,63.8v-30.36h-5.3v-1.74h5.3v-12.43l17.93-4.43v16.87h12.53v1.74h-12.53v32.48c0,3.02.3,5.24.92,6.65.61,1.41,1.88,2.12,3.81,2.12s3.61-.96,5.06-2.89c1.45-1.93,2.39-4.56,2.84-7.9l1.64.19c-.52,4.43-1.93,7.95-4.24,10.55-2.31,2.6-6.14,3.9-11.47,3.9s-9.41-1.06-12.24-3.18c-2.83-2.12-4.24-5.98-4.24-11.56Z"/>
        <path class="cls-1" d="m293.05,54.94h2.79v-7.42c0-6.1-.34-10.2-1.01-12.29-.68-2.09-1.98-3.13-3.9-3.13-1.16,0-2.2.31-3.13.92-.93.61-1.4,1.45-1.4,2.51s.19,2.14.58,3.23h2.41c.51,1.35.77,2.97.77,4.87s-.8,3.53-2.41,4.92c-1.61,1.38-3.63,2.07-6.07,2.07-5.53,0-8.29-2.67-8.29-8,0-7.9,6.71-11.85,20.14-11.85,7.64,0,12.93,1.3,15.85,3.9,2.92,2.6,4.39,7.37,4.39,14.31v19.56c0,3.34.93,5.01,2.79,5.01,2.18,0,3.47-3.31,3.85-9.93l1.45.1c-.26,5.65-1.32,9.54-3.18,11.66-1.87,2.12-4.92,3.18-9.16,3.18-7.71,0-12.14-2.38-13.3-7.13-.84,2.44-2.09,4.24-3.76,5.4-1.67,1.16-4.11,1.74-7.32,1.74-9.51,0-14.26-3.89-14.26-11.66,0-4.56,1.81-7.69,5.45-9.4,3.63-1.7,9.2-2.55,16.72-2.55Zm-3.32,18.31c.35.96,1.03,1.45,2.02,1.45s1.93-.82,2.79-2.46c.87-1.64,1.3-3.9,1.3-6.79v-8.96h-.67c-3.98,0-5.98,2.92-5.98,8.77v1.54c0,3.34.18,5.49.53,6.46Z"/>
        <path class="cls-1" d="m325.05,78.55v-17.25h1.16c1.67,5.59,3.92,9.51,6.75,11.76,2.83,2.25,6.36,3.37,10.6,3.37,6.55,0,9.83-2.09,9.83-6.26,0-1.8-.8-3.15-2.41-4.05-2.51-1.41-5.72-2.51-9.64-3.28-4.37-1.16-8.03-2.7-10.99-4.63-3.53-2.31-5.3-5.98-5.3-10.99s1.54-9.01,4.63-12c3.08-2.99,7.19-4.48,12.34-4.48,3.15,0,6.39.74,9.73,2.22,1.22.51,2.15.77,2.79.77s1.19-.22,1.64-.68c.45-.45,1-1.28,1.64-2.51h1.06v14.75h-1.16c-3.28-8.35-8.35-12.53-15.23-12.53-3.02,0-5.27.53-6.75,1.59-1.48,1.06-2.22,2.39-2.22,4,0,.96.22,1.72.67,2.26.45.55.8.95,1.06,1.2.26.26.67.53,1.25.82.58.29,1.06.52,1.45.68.39.16.98.37,1.78.63.8.26,1.4.42,1.78.48,4.37,1.09,7.52,2.04,9.44,2.84,1.93.8,3.76,1.78,5.49,2.94,3.53,2.44,5.3,6.38,5.3,11.81s-1.61,9.54-4.82,12.34c-3.21,2.79-7.61,4.19-13.2,4.19-3.98,0-7.84-.93-11.56-2.8-.77-.51-1.38-.77-1.83-.77-1.41,0-2.79,1.19-4.14,3.57h-1.16Z"/>
      </g>
    </g>
  </g>
</svg>